%TF.GenerationSoftware,KiCad,Pcbnew,(6.0.5)*%
%TF.CreationDate,2023-02-14T12:10:34-05:00*%
%TF.ProjectId,vco2,76636f32-2e6b-4696-9361-645f70636258,rev?*%
%TF.SameCoordinates,Original*%
%TF.FileFunction,Legend,Top*%
%TF.FilePolarity,Positive*%
%FSLAX46Y46*%
G04 Gerber Fmt 4.6, Leading zero omitted, Abs format (unit mm)*
G04 Created by KiCad (PCBNEW (6.0.5)) date 2023-02-14 12:10:34*
%MOMM*%
%LPD*%
G01*
G04 APERTURE LIST*
G04 Aperture macros list*
%AMRoundRect*
0 Rectangle with rounded corners*
0 $1 Rounding radius*
0 $2 $3 $4 $5 $6 $7 $8 $9 X,Y pos of 4 corners*
0 Add a 4 corners polygon primitive as box body*
4,1,4,$2,$3,$4,$5,$6,$7,$8,$9,$2,$3,0*
0 Add four circle primitives for the rounded corners*
1,1,$1+$1,$2,$3*
1,1,$1+$1,$4,$5*
1,1,$1+$1,$6,$7*
1,1,$1+$1,$8,$9*
0 Add four rect primitives between the rounded corners*
20,1,$1+$1,$2,$3,$4,$5,0*
20,1,$1+$1,$4,$5,$6,$7,0*
20,1,$1+$1,$6,$7,$8,$9,0*
20,1,$1+$1,$8,$9,$2,$3,0*%
G04 Aperture macros list end*
%ADD10C,0.150000*%
%ADD11C,0.120000*%
%ADD12R,1.700000X1.700000*%
%ADD13RoundRect,0.250000X-0.312500X-0.625000X0.312500X-0.625000X0.312500X0.625000X-0.312500X0.625000X0*%
%ADD14C,1.620000*%
%ADD15RoundRect,0.250000X0.625000X-0.312500X0.625000X0.312500X-0.625000X0.312500X-0.625000X-0.312500X0*%
%ADD16RoundRect,0.250000X0.312500X0.625000X-0.312500X0.625000X-0.312500X-0.625000X0.312500X-0.625000X0*%
%ADD17R,1.500000X1.050000*%
%ADD18O,1.500000X1.050000*%
%ADD19R,1.600000X1.600000*%
%ADD20O,1.600000X1.600000*%
%ADD21RoundRect,0.250000X-0.375000X-0.625000X0.375000X-0.625000X0.375000X0.625000X-0.375000X0.625000X0*%
%ADD22RoundRect,0.250000X0.325000X0.650000X-0.325000X0.650000X-0.325000X-0.650000X0.325000X-0.650000X0*%
%ADD23RoundRect,0.250000X-0.325000X-0.650000X0.325000X-0.650000X0.325000X0.650000X-0.325000X0.650000X0*%
%ADD24RoundRect,0.250000X0.650000X-0.325000X0.650000X0.325000X-0.650000X0.325000X-0.650000X-0.325000X0*%
%ADD25O,1.700000X1.700000*%
%ADD26C,1.400000*%
%ADD27O,1.400000X1.400000*%
%ADD28RoundRect,0.250000X-0.625000X0.375000X-0.625000X-0.375000X0.625000X-0.375000X0.625000X0.375000X0*%
%ADD29RoundRect,0.250000X-0.625000X0.312500X-0.625000X-0.312500X0.625000X-0.312500X0.625000X0.312500X0*%
%ADD30R,1.050000X1.500000*%
%ADD31O,1.050000X1.500000*%
G04 APERTURE END LIST*
D10*
X102417619Y-118213809D02*
X103417619Y-118213809D01*
X102941428Y-118213809D02*
X102941428Y-118785238D01*
X102417619Y-118785238D02*
X103417619Y-118785238D01*
X102512857Y-119261428D02*
X102465238Y-119309047D01*
X102417619Y-119261428D01*
X102465238Y-119213809D01*
X102512857Y-119261428D01*
X102417619Y-119261428D01*
X102417619Y-120499523D02*
X103417619Y-120499523D01*
X103417619Y-120880476D01*
X103370000Y-120975714D01*
X103322380Y-121023333D01*
X103227142Y-121070952D01*
X103084285Y-121070952D01*
X102989047Y-121023333D01*
X102941428Y-120975714D01*
X102893809Y-120880476D01*
X102893809Y-120499523D01*
X102417619Y-122070952D02*
X102893809Y-121737619D01*
X102417619Y-121499523D02*
X103417619Y-121499523D01*
X103417619Y-121880476D01*
X103370000Y-121975714D01*
X103322380Y-122023333D01*
X103227142Y-122070952D01*
X103084285Y-122070952D01*
X102989047Y-122023333D01*
X102941428Y-121975714D01*
X102893809Y-121880476D01*
X102893809Y-121499523D01*
X102417619Y-122499523D02*
X103417619Y-122499523D01*
X103417619Y-122832857D02*
X103417619Y-123404285D01*
X102417619Y-123118571D02*
X103417619Y-123118571D01*
X102512857Y-124309047D02*
X102465238Y-124261428D01*
X102417619Y-124118571D01*
X102417619Y-124023333D01*
X102465238Y-123880476D01*
X102560476Y-123785238D01*
X102655714Y-123737619D01*
X102846190Y-123690000D01*
X102989047Y-123690000D01*
X103179523Y-123737619D01*
X103274761Y-123785238D01*
X103370000Y-123880476D01*
X103417619Y-124023333D01*
X103417619Y-124118571D01*
X103370000Y-124261428D01*
X103322380Y-124309047D01*
X102417619Y-124737619D02*
X103417619Y-124737619D01*
X102941428Y-124737619D02*
X102941428Y-125309047D01*
X102417619Y-125309047D02*
X103417619Y-125309047D01*
X102703333Y-125737619D02*
X102703333Y-126213809D01*
X102417619Y-125642380D02*
X103417619Y-125975714D01*
X102417619Y-126309047D01*
X102417619Y-127213809D02*
X102893809Y-126880476D01*
X102417619Y-126642380D02*
X103417619Y-126642380D01*
X103417619Y-127023333D01*
X103370000Y-127118571D01*
X103322380Y-127166190D01*
X103227142Y-127213809D01*
X103084285Y-127213809D01*
X102989047Y-127166190D01*
X102941428Y-127118571D01*
X102893809Y-127023333D01*
X102893809Y-126642380D01*
X102417619Y-127642380D02*
X103417619Y-127642380D01*
X103417619Y-127880476D01*
X103370000Y-128023333D01*
X103274761Y-128118571D01*
X103179523Y-128166190D01*
X102989047Y-128213809D01*
X102846190Y-128213809D01*
X102655714Y-128166190D01*
X102560476Y-128118571D01*
X102465238Y-128023333D01*
X102417619Y-127880476D01*
X102417619Y-127642380D01*
X105857857Y-117785238D02*
X105810238Y-117737619D01*
X105762619Y-117594761D01*
X105762619Y-117499523D01*
X105810238Y-117356666D01*
X105905476Y-117261428D01*
X106000714Y-117213809D01*
X106191190Y-117166190D01*
X106334047Y-117166190D01*
X106524523Y-117213809D01*
X106619761Y-117261428D01*
X106715000Y-117356666D01*
X106762619Y-117499523D01*
X106762619Y-117594761D01*
X106715000Y-117737619D01*
X106667380Y-117785238D01*
X106286428Y-118213809D02*
X106286428Y-118547142D01*
X105762619Y-118690000D02*
X105762619Y-118213809D01*
X106762619Y-118213809D01*
X106762619Y-118690000D01*
X105762619Y-119690000D02*
X106238809Y-119356666D01*
X105762619Y-119118571D02*
X106762619Y-119118571D01*
X106762619Y-119499523D01*
X106715000Y-119594761D01*
X106667380Y-119642380D01*
X106572142Y-119690000D01*
X106429285Y-119690000D01*
X106334047Y-119642380D01*
X106286428Y-119594761D01*
X106238809Y-119499523D01*
X106238809Y-119118571D01*
X106762619Y-119975714D02*
X106762619Y-120547142D01*
X105762619Y-120261428D02*
X106762619Y-120261428D01*
X106048333Y-120832857D02*
X106048333Y-121309047D01*
X105762619Y-120737619D02*
X106762619Y-121070952D01*
X105762619Y-121404285D01*
X105762619Y-121737619D02*
X106762619Y-121737619D01*
X105762619Y-122213809D02*
X106762619Y-122213809D01*
X105762619Y-122785238D01*
X106762619Y-122785238D01*
X105810238Y-123975714D02*
X105762619Y-124118571D01*
X105762619Y-124356666D01*
X105810238Y-124451904D01*
X105857857Y-124499523D01*
X105953095Y-124547142D01*
X106048333Y-124547142D01*
X106143571Y-124499523D01*
X106191190Y-124451904D01*
X106238809Y-124356666D01*
X106286428Y-124166190D01*
X106334047Y-124070952D01*
X106381666Y-124023333D01*
X106476904Y-123975714D01*
X106572142Y-123975714D01*
X106667380Y-124023333D01*
X106715000Y-124070952D01*
X106762619Y-124166190D01*
X106762619Y-124404285D01*
X106715000Y-124547142D01*
X106238809Y-125166190D02*
X105762619Y-125166190D01*
X106762619Y-124832857D02*
X106238809Y-125166190D01*
X106762619Y-125499523D01*
X105762619Y-125832857D02*
X106762619Y-125832857D01*
X105762619Y-126404285D01*
X106762619Y-126404285D01*
X106762619Y-126737619D02*
X106762619Y-127309047D01*
X105762619Y-127023333D02*
X106762619Y-127023333D01*
X105762619Y-127642380D02*
X106762619Y-127642380D01*
X106286428Y-127642380D02*
X106286428Y-128213809D01*
X105762619Y-128213809D02*
X106762619Y-128213809D01*
X105810238Y-128642380D02*
X105762619Y-128785238D01*
X105762619Y-129023333D01*
X105810238Y-129118571D01*
X105857857Y-129166190D01*
X105953095Y-129213809D01*
X106048333Y-129213809D01*
X106143571Y-129166190D01*
X106191190Y-129118571D01*
X106238809Y-129023333D01*
X106286428Y-128832857D01*
X106334047Y-128737619D01*
X106381666Y-128690000D01*
X106476904Y-128642380D01*
X106572142Y-128642380D01*
X106667380Y-128690000D01*
X106715000Y-128737619D01*
X106762619Y-128832857D01*
X106762619Y-129070952D01*
X106715000Y-129213809D01*
X105152619Y-116904285D02*
X104152619Y-117237619D01*
X105152619Y-117570952D01*
X104247857Y-118475714D02*
X104200238Y-118428095D01*
X104152619Y-118285238D01*
X104152619Y-118190000D01*
X104200238Y-118047142D01*
X104295476Y-117951904D01*
X104390714Y-117904285D01*
X104581190Y-117856666D01*
X104724047Y-117856666D01*
X104914523Y-117904285D01*
X105009761Y-117951904D01*
X105105000Y-118047142D01*
X105152619Y-118190000D01*
X105152619Y-118285238D01*
X105105000Y-118428095D01*
X105057380Y-118475714D01*
X105152619Y-119094761D02*
X105152619Y-119285238D01*
X105105000Y-119380476D01*
X105009761Y-119475714D01*
X104819285Y-119523333D01*
X104485952Y-119523333D01*
X104295476Y-119475714D01*
X104200238Y-119380476D01*
X104152619Y-119285238D01*
X104152619Y-119094761D01*
X104200238Y-118999523D01*
X104295476Y-118904285D01*
X104485952Y-118856666D01*
X104819285Y-118856666D01*
X105009761Y-118904285D01*
X105105000Y-118999523D01*
X105152619Y-119094761D01*
X104152619Y-120713809D02*
X105152619Y-120713809D01*
X105152619Y-121094761D01*
X105105000Y-121190000D01*
X105057380Y-121237619D01*
X104962142Y-121285238D01*
X104819285Y-121285238D01*
X104724047Y-121237619D01*
X104676428Y-121190000D01*
X104628809Y-121094761D01*
X104628809Y-120713809D01*
X104247857Y-122285238D02*
X104200238Y-122237619D01*
X104152619Y-122094761D01*
X104152619Y-121999523D01*
X104200238Y-121856666D01*
X104295476Y-121761428D01*
X104390714Y-121713809D01*
X104581190Y-121666190D01*
X104724047Y-121666190D01*
X104914523Y-121713809D01*
X105009761Y-121761428D01*
X105105000Y-121856666D01*
X105152619Y-121999523D01*
X105152619Y-122094761D01*
X105105000Y-122237619D01*
X105057380Y-122285238D01*
X104676428Y-123047142D02*
X104628809Y-123190000D01*
X104581190Y-123237619D01*
X104485952Y-123285238D01*
X104343095Y-123285238D01*
X104247857Y-123237619D01*
X104200238Y-123190000D01*
X104152619Y-123094761D01*
X104152619Y-122713809D01*
X105152619Y-122713809D01*
X105152619Y-123047142D01*
X105105000Y-123142380D01*
X105057380Y-123190000D01*
X104962142Y-123237619D01*
X104866904Y-123237619D01*
X104771666Y-123190000D01*
X104724047Y-123142380D01*
X104676428Y-123047142D01*
X104676428Y-122713809D01*
X104438333Y-124428095D02*
X104438333Y-124904285D01*
X104152619Y-124332857D02*
X105152619Y-124666190D01*
X104152619Y-124999523D01*
X104200238Y-125285238D02*
X104152619Y-125428095D01*
X104152619Y-125666190D01*
X104200238Y-125761428D01*
X104247857Y-125809047D01*
X104343095Y-125856666D01*
X104438333Y-125856666D01*
X104533571Y-125809047D01*
X104581190Y-125761428D01*
X104628809Y-125666190D01*
X104676428Y-125475714D01*
X104724047Y-125380476D01*
X104771666Y-125332857D01*
X104866904Y-125285238D01*
X104962142Y-125285238D01*
X105057380Y-125332857D01*
X105105000Y-125380476D01*
X105152619Y-125475714D01*
X105152619Y-125713809D01*
X105105000Y-125856666D01*
X104200238Y-126237619D02*
X104152619Y-126380476D01*
X104152619Y-126618571D01*
X104200238Y-126713809D01*
X104247857Y-126761428D01*
X104343095Y-126809047D01*
X104438333Y-126809047D01*
X104533571Y-126761428D01*
X104581190Y-126713809D01*
X104628809Y-126618571D01*
X104676428Y-126428095D01*
X104724047Y-126332857D01*
X104771666Y-126285238D01*
X104866904Y-126237619D01*
X104962142Y-126237619D01*
X105057380Y-126285238D01*
X105105000Y-126332857D01*
X105152619Y-126428095D01*
X105152619Y-126666190D01*
X105105000Y-126809047D01*
X104628809Y-127428095D02*
X104152619Y-127428095D01*
X105152619Y-127094761D02*
X104628809Y-127428095D01*
X105152619Y-127761428D01*
X105057380Y-128809047D02*
X105105000Y-128856666D01*
X105152619Y-128951904D01*
X105152619Y-129189999D01*
X105105000Y-129285238D01*
X105057380Y-129332857D01*
X104962142Y-129380476D01*
X104866904Y-129380476D01*
X104724047Y-129332857D01*
X104152619Y-128761428D01*
X104152619Y-129380476D01*
%TO.C,J44*%
X130000476Y-102542380D02*
X130000476Y-103256666D01*
X129952857Y-103399523D01*
X129857619Y-103494761D01*
X129714761Y-103542380D01*
X129619523Y-103542380D01*
X130905238Y-102875714D02*
X130905238Y-103542380D01*
X130667142Y-102494761D02*
X130429047Y-103209047D01*
X131048095Y-103209047D01*
X131857619Y-102875714D02*
X131857619Y-103542380D01*
X131619523Y-102494761D02*
X131381428Y-103209047D01*
X132000476Y-103209047D01*
%TO.C,R71*%
X124484642Y-70092380D02*
X124151309Y-69616190D01*
X123913214Y-70092380D02*
X123913214Y-69092380D01*
X124294166Y-69092380D01*
X124389404Y-69140000D01*
X124437023Y-69187619D01*
X124484642Y-69282857D01*
X124484642Y-69425714D01*
X124437023Y-69520952D01*
X124389404Y-69568571D01*
X124294166Y-69616190D01*
X123913214Y-69616190D01*
X124817976Y-69092380D02*
X125484642Y-69092380D01*
X125056071Y-70092380D01*
X126389404Y-70092380D02*
X125817976Y-70092380D01*
X126103690Y-70092380D02*
X126103690Y-69092380D01*
X126008452Y-69235238D01*
X125913214Y-69330476D01*
X125817976Y-69378095D01*
%TO.C,ROTrim1*%
X106934285Y-115232380D02*
X106600952Y-114756190D01*
X106362857Y-115232380D02*
X106362857Y-114232380D01*
X106743809Y-114232380D01*
X106839047Y-114280000D01*
X106886666Y-114327619D01*
X106934285Y-114422857D01*
X106934285Y-114565714D01*
X106886666Y-114660952D01*
X106839047Y-114708571D01*
X106743809Y-114756190D01*
X106362857Y-114756190D01*
X107553333Y-114232380D02*
X107743809Y-114232380D01*
X107839047Y-114280000D01*
X107934285Y-114375238D01*
X107981904Y-114565714D01*
X107981904Y-114899047D01*
X107934285Y-115089523D01*
X107839047Y-115184761D01*
X107743809Y-115232380D01*
X107553333Y-115232380D01*
X107458095Y-115184761D01*
X107362857Y-115089523D01*
X107315238Y-114899047D01*
X107315238Y-114565714D01*
X107362857Y-114375238D01*
X107458095Y-114280000D01*
X107553333Y-114232380D01*
X108267619Y-114232380D02*
X108839047Y-114232380D01*
X108553333Y-115232380D02*
X108553333Y-114232380D01*
X109172380Y-115232380D02*
X109172380Y-114565714D01*
X109172380Y-114756190D02*
X109220000Y-114660952D01*
X109267619Y-114613333D01*
X109362857Y-114565714D01*
X109458095Y-114565714D01*
X109791428Y-115232380D02*
X109791428Y-114565714D01*
X109791428Y-114232380D02*
X109743809Y-114280000D01*
X109791428Y-114327619D01*
X109839047Y-114280000D01*
X109791428Y-114232380D01*
X109791428Y-114327619D01*
X110267619Y-115232380D02*
X110267619Y-114565714D01*
X110267619Y-114660952D02*
X110315238Y-114613333D01*
X110410476Y-114565714D01*
X110553333Y-114565714D01*
X110648571Y-114613333D01*
X110696190Y-114708571D01*
X110696190Y-115232380D01*
X110696190Y-114708571D02*
X110743809Y-114613333D01*
X110839047Y-114565714D01*
X110981904Y-114565714D01*
X111077142Y-114613333D01*
X111124761Y-114708571D01*
X111124761Y-115232380D01*
X112124761Y-115232380D02*
X111553333Y-115232380D01*
X111839047Y-115232380D02*
X111839047Y-114232380D01*
X111743809Y-114375238D01*
X111648571Y-114470476D01*
X111553333Y-114518095D01*
%TO.C,R15*%
X107249880Y-63212857D02*
X106773690Y-63546190D01*
X107249880Y-63784285D02*
X106249880Y-63784285D01*
X106249880Y-63403333D01*
X106297500Y-63308095D01*
X106345119Y-63260476D01*
X106440357Y-63212857D01*
X106583214Y-63212857D01*
X106678452Y-63260476D01*
X106726071Y-63308095D01*
X106773690Y-63403333D01*
X106773690Y-63784285D01*
X107249880Y-62260476D02*
X107249880Y-62831904D01*
X107249880Y-62546190D02*
X106249880Y-62546190D01*
X106392738Y-62641428D01*
X106487976Y-62736666D01*
X106535595Y-62831904D01*
X106249880Y-61355714D02*
X106249880Y-61831904D01*
X106726071Y-61879523D01*
X106678452Y-61831904D01*
X106630833Y-61736666D01*
X106630833Y-61498571D01*
X106678452Y-61403333D01*
X106726071Y-61355714D01*
X106821309Y-61308095D01*
X107059404Y-61308095D01*
X107154642Y-61355714D01*
X107202261Y-61403333D01*
X107249880Y-61498571D01*
X107249880Y-61736666D01*
X107202261Y-61831904D01*
X107154642Y-61879523D01*
%TO.C,J45*%
X130000476Y-105072380D02*
X130000476Y-105786666D01*
X129952857Y-105929523D01*
X129857619Y-106024761D01*
X129714761Y-106072380D01*
X129619523Y-106072380D01*
X130905238Y-105405714D02*
X130905238Y-106072380D01*
X130667142Y-105024761D02*
X130429047Y-105739047D01*
X131048095Y-105739047D01*
X131905238Y-105072380D02*
X131429047Y-105072380D01*
X131381428Y-105548571D01*
X131429047Y-105500952D01*
X131524285Y-105453333D01*
X131762380Y-105453333D01*
X131857619Y-105500952D01*
X131905238Y-105548571D01*
X131952857Y-105643809D01*
X131952857Y-105881904D01*
X131905238Y-105977142D01*
X131857619Y-106024761D01*
X131762380Y-106072380D01*
X131524285Y-106072380D01*
X131429047Y-106024761D01*
X131381428Y-105977142D01*
%TO.C,R20*%
X121277142Y-118012380D02*
X120943809Y-117536190D01*
X120705714Y-118012380D02*
X120705714Y-117012380D01*
X121086666Y-117012380D01*
X121181904Y-117060000D01*
X121229523Y-117107619D01*
X121277142Y-117202857D01*
X121277142Y-117345714D01*
X121229523Y-117440952D01*
X121181904Y-117488571D01*
X121086666Y-117536190D01*
X120705714Y-117536190D01*
X121658095Y-117107619D02*
X121705714Y-117060000D01*
X121800952Y-117012380D01*
X122039047Y-117012380D01*
X122134285Y-117060000D01*
X122181904Y-117107619D01*
X122229523Y-117202857D01*
X122229523Y-117298095D01*
X122181904Y-117440952D01*
X121610476Y-118012380D01*
X122229523Y-118012380D01*
X122848571Y-117012380D02*
X122943809Y-117012380D01*
X123039047Y-117060000D01*
X123086666Y-117107619D01*
X123134285Y-117202857D01*
X123181904Y-117393333D01*
X123181904Y-117631428D01*
X123134285Y-117821904D01*
X123086666Y-117917142D01*
X123039047Y-117964761D01*
X122943809Y-118012380D01*
X122848571Y-118012380D01*
X122753333Y-117964761D01*
X122705714Y-117917142D01*
X122658095Y-117821904D01*
X122610476Y-117631428D01*
X122610476Y-117393333D01*
X122658095Y-117202857D01*
X122705714Y-117107619D01*
X122753333Y-117060000D01*
X122848571Y-117012380D01*
%TO.C,1v/Oct1*%
X128869880Y-77548333D02*
X128869880Y-78119761D01*
X128869880Y-77834047D02*
X127869880Y-77834047D01*
X128012738Y-77929285D01*
X128107976Y-78024523D01*
X128155595Y-78119761D01*
X128203214Y-77215000D02*
X128869880Y-76976904D01*
X128203214Y-76738809D01*
X127822261Y-75643571D02*
X129107976Y-76500714D01*
X127869880Y-75119761D02*
X127869880Y-74929285D01*
X127917500Y-74834047D01*
X128012738Y-74738809D01*
X128203214Y-74691190D01*
X128536547Y-74691190D01*
X128727023Y-74738809D01*
X128822261Y-74834047D01*
X128869880Y-74929285D01*
X128869880Y-75119761D01*
X128822261Y-75215000D01*
X128727023Y-75310238D01*
X128536547Y-75357857D01*
X128203214Y-75357857D01*
X128012738Y-75310238D01*
X127917500Y-75215000D01*
X127869880Y-75119761D01*
X128822261Y-73834047D02*
X128869880Y-73929285D01*
X128869880Y-74119761D01*
X128822261Y-74215000D01*
X128774642Y-74262619D01*
X128679404Y-74310238D01*
X128393690Y-74310238D01*
X128298452Y-74262619D01*
X128250833Y-74215000D01*
X128203214Y-74119761D01*
X128203214Y-73929285D01*
X128250833Y-73834047D01*
X128203214Y-73548333D02*
X128203214Y-73167380D01*
X127869880Y-73405476D02*
X128727023Y-73405476D01*
X128822261Y-73357857D01*
X128869880Y-73262619D01*
X128869880Y-73167380D01*
X128869880Y-72310238D02*
X128869880Y-72881666D01*
X128869880Y-72595952D02*
X127869880Y-72595952D01*
X128012738Y-72691190D01*
X128107976Y-72786428D01*
X128155595Y-72881666D01*
%TO.C,R57*%
X127024642Y-66112380D02*
X126691309Y-65636190D01*
X126453214Y-66112380D02*
X126453214Y-65112380D01*
X126834166Y-65112380D01*
X126929404Y-65160000D01*
X126977023Y-65207619D01*
X127024642Y-65302857D01*
X127024642Y-65445714D01*
X126977023Y-65540952D01*
X126929404Y-65588571D01*
X126834166Y-65636190D01*
X126453214Y-65636190D01*
X127929404Y-65112380D02*
X127453214Y-65112380D01*
X127405595Y-65588571D01*
X127453214Y-65540952D01*
X127548452Y-65493333D01*
X127786547Y-65493333D01*
X127881785Y-65540952D01*
X127929404Y-65588571D01*
X127977023Y-65683809D01*
X127977023Y-65921904D01*
X127929404Y-66017142D01*
X127881785Y-66064761D01*
X127786547Y-66112380D01*
X127548452Y-66112380D01*
X127453214Y-66064761D01*
X127405595Y-66017142D01*
X128310357Y-65112380D02*
X128977023Y-65112380D01*
X128548452Y-66112380D01*
%TO.C,R47*%
X107842380Y-102252857D02*
X107366190Y-102586190D01*
X107842380Y-102824285D02*
X106842380Y-102824285D01*
X106842380Y-102443333D01*
X106890000Y-102348095D01*
X106937619Y-102300476D01*
X107032857Y-102252857D01*
X107175714Y-102252857D01*
X107270952Y-102300476D01*
X107318571Y-102348095D01*
X107366190Y-102443333D01*
X107366190Y-102824285D01*
X107175714Y-101395714D02*
X107842380Y-101395714D01*
X106794761Y-101633809D02*
X107509047Y-101871904D01*
X107509047Y-101252857D01*
X106842380Y-100967142D02*
X106842380Y-100300476D01*
X107842380Y-100729047D01*
%TO.C,R17*%
X116139880Y-84802857D02*
X115663690Y-85136190D01*
X116139880Y-85374285D02*
X115139880Y-85374285D01*
X115139880Y-84993333D01*
X115187500Y-84898095D01*
X115235119Y-84850476D01*
X115330357Y-84802857D01*
X115473214Y-84802857D01*
X115568452Y-84850476D01*
X115616071Y-84898095D01*
X115663690Y-84993333D01*
X115663690Y-85374285D01*
X116139880Y-83850476D02*
X116139880Y-84421904D01*
X116139880Y-84136190D02*
X115139880Y-84136190D01*
X115282738Y-84231428D01*
X115377976Y-84326666D01*
X115425595Y-84421904D01*
X115139880Y-83517142D02*
X115139880Y-82850476D01*
X116139880Y-83279047D01*
%TO.C,Q2*%
X104335119Y-84255238D02*
X104287500Y-84350476D01*
X104192261Y-84445714D01*
X104049404Y-84588571D01*
X104001785Y-84683809D01*
X104001785Y-84779047D01*
X104239880Y-84731428D02*
X104192261Y-84826666D01*
X104097023Y-84921904D01*
X103906547Y-84969523D01*
X103573214Y-84969523D01*
X103382738Y-84921904D01*
X103287500Y-84826666D01*
X103239880Y-84731428D01*
X103239880Y-84540952D01*
X103287500Y-84445714D01*
X103382738Y-84350476D01*
X103573214Y-84302857D01*
X103906547Y-84302857D01*
X104097023Y-84350476D01*
X104192261Y-84445714D01*
X104239880Y-84540952D01*
X104239880Y-84731428D01*
X103335119Y-83921904D02*
X103287500Y-83874285D01*
X103239880Y-83779047D01*
X103239880Y-83540952D01*
X103287500Y-83445714D01*
X103335119Y-83398095D01*
X103430357Y-83350476D01*
X103525595Y-83350476D01*
X103668452Y-83398095D01*
X104239880Y-83969523D01*
X104239880Y-83350476D01*
%TO.C,R65*%
X127024642Y-68652380D02*
X126691309Y-68176190D01*
X126453214Y-68652380D02*
X126453214Y-67652380D01*
X126834166Y-67652380D01*
X126929404Y-67700000D01*
X126977023Y-67747619D01*
X127024642Y-67842857D01*
X127024642Y-67985714D01*
X126977023Y-68080952D01*
X126929404Y-68128571D01*
X126834166Y-68176190D01*
X126453214Y-68176190D01*
X127881785Y-67652380D02*
X127691309Y-67652380D01*
X127596071Y-67700000D01*
X127548452Y-67747619D01*
X127453214Y-67890476D01*
X127405595Y-68080952D01*
X127405595Y-68461904D01*
X127453214Y-68557142D01*
X127500833Y-68604761D01*
X127596071Y-68652380D01*
X127786547Y-68652380D01*
X127881785Y-68604761D01*
X127929404Y-68557142D01*
X127977023Y-68461904D01*
X127977023Y-68223809D01*
X127929404Y-68128571D01*
X127881785Y-68080952D01*
X127786547Y-68033333D01*
X127596071Y-68033333D01*
X127500833Y-68080952D01*
X127453214Y-68128571D01*
X127405595Y-68223809D01*
X128881785Y-67652380D02*
X128405595Y-67652380D01*
X128357976Y-68128571D01*
X128405595Y-68080952D01*
X128500833Y-68033333D01*
X128738928Y-68033333D01*
X128834166Y-68080952D01*
X128881785Y-68128571D01*
X128929404Y-68223809D01*
X128929404Y-68461904D01*
X128881785Y-68557142D01*
X128834166Y-68604761D01*
X128738928Y-68652380D01*
X128500833Y-68652380D01*
X128405595Y-68604761D01*
X128357976Y-68557142D01*
%TO.C,J40*%
X125587976Y-77472380D02*
X125587976Y-78186666D01*
X125540357Y-78329523D01*
X125445119Y-78424761D01*
X125302261Y-78472380D01*
X125207023Y-78472380D01*
X126492738Y-77805714D02*
X126492738Y-78472380D01*
X126254642Y-77424761D02*
X126016547Y-78139047D01*
X126635595Y-78139047D01*
X127207023Y-77472380D02*
X127302261Y-77472380D01*
X127397500Y-77520000D01*
X127445119Y-77567619D01*
X127492738Y-77662857D01*
X127540357Y-77853333D01*
X127540357Y-78091428D01*
X127492738Y-78281904D01*
X127445119Y-78377142D01*
X127397500Y-78424761D01*
X127302261Y-78472380D01*
X127207023Y-78472380D01*
X127111785Y-78424761D01*
X127064166Y-78377142D01*
X127016547Y-78281904D01*
X126968928Y-78091428D01*
X126968928Y-77853333D01*
X127016547Y-77662857D01*
X127064166Y-77567619D01*
X127111785Y-77520000D01*
X127207023Y-77472380D01*
%TO.C,R34*%
X102762380Y-102252857D02*
X102286190Y-102586190D01*
X102762380Y-102824285D02*
X101762380Y-102824285D01*
X101762380Y-102443333D01*
X101810000Y-102348095D01*
X101857619Y-102300476D01*
X101952857Y-102252857D01*
X102095714Y-102252857D01*
X102190952Y-102300476D01*
X102238571Y-102348095D01*
X102286190Y-102443333D01*
X102286190Y-102824285D01*
X101762380Y-101919523D02*
X101762380Y-101300476D01*
X102143333Y-101633809D01*
X102143333Y-101490952D01*
X102190952Y-101395714D01*
X102238571Y-101348095D01*
X102333809Y-101300476D01*
X102571904Y-101300476D01*
X102667142Y-101348095D01*
X102714761Y-101395714D01*
X102762380Y-101490952D01*
X102762380Y-101776666D01*
X102714761Y-101871904D01*
X102667142Y-101919523D01*
X102095714Y-100443333D02*
X102762380Y-100443333D01*
X101714761Y-100681428D02*
X102429047Y-100919523D01*
X102429047Y-100300476D01*
%TO.C,J33*%
X115427976Y-54612380D02*
X115427976Y-55326666D01*
X115380357Y-55469523D01*
X115285119Y-55564761D01*
X115142261Y-55612380D01*
X115047023Y-55612380D01*
X115808928Y-54612380D02*
X116427976Y-54612380D01*
X116094642Y-54993333D01*
X116237500Y-54993333D01*
X116332738Y-55040952D01*
X116380357Y-55088571D01*
X116427976Y-55183809D01*
X116427976Y-55421904D01*
X116380357Y-55517142D01*
X116332738Y-55564761D01*
X116237500Y-55612380D01*
X115951785Y-55612380D01*
X115856547Y-55564761D01*
X115808928Y-55517142D01*
X116761309Y-54612380D02*
X117380357Y-54612380D01*
X117047023Y-54993333D01*
X117189880Y-54993333D01*
X117285119Y-55040952D01*
X117332738Y-55088571D01*
X117380357Y-55183809D01*
X117380357Y-55421904D01*
X117332738Y-55517142D01*
X117285119Y-55564761D01*
X117189880Y-55612380D01*
X116904166Y-55612380D01*
X116808928Y-55564761D01*
X116761309Y-55517142D01*
%TO.C,U2*%
X108882380Y-104901904D02*
X109691904Y-104901904D01*
X109787142Y-104854285D01*
X109834761Y-104806666D01*
X109882380Y-104711428D01*
X109882380Y-104520952D01*
X109834761Y-104425714D01*
X109787142Y-104378095D01*
X109691904Y-104330476D01*
X108882380Y-104330476D01*
X108977619Y-103901904D02*
X108930000Y-103854285D01*
X108882380Y-103759047D01*
X108882380Y-103520952D01*
X108930000Y-103425714D01*
X108977619Y-103378095D01*
X109072857Y-103330476D01*
X109168095Y-103330476D01*
X109310952Y-103378095D01*
X109882380Y-103949523D01*
X109882380Y-103330476D01*
%TO.C,R9*%
X121150833Y-90242380D02*
X120817500Y-89766190D01*
X120579404Y-90242380D02*
X120579404Y-89242380D01*
X120960357Y-89242380D01*
X121055595Y-89290000D01*
X121103214Y-89337619D01*
X121150833Y-89432857D01*
X121150833Y-89575714D01*
X121103214Y-89670952D01*
X121055595Y-89718571D01*
X120960357Y-89766190D01*
X120579404Y-89766190D01*
X121627023Y-90242380D02*
X121817500Y-90242380D01*
X121912738Y-90194761D01*
X121960357Y-90147142D01*
X122055595Y-90004285D01*
X122103214Y-89813809D01*
X122103214Y-89432857D01*
X122055595Y-89337619D01*
X122007976Y-89290000D01*
X121912738Y-89242380D01*
X121722261Y-89242380D01*
X121627023Y-89290000D01*
X121579404Y-89337619D01*
X121531785Y-89432857D01*
X121531785Y-89670952D01*
X121579404Y-89766190D01*
X121627023Y-89813809D01*
X121722261Y-89861428D01*
X121912738Y-89861428D01*
X122007976Y-89813809D01*
X122055595Y-89766190D01*
X122103214Y-89670952D01*
%TO.C,D2*%
X114821904Y-91352380D02*
X114821904Y-90352380D01*
X115060000Y-90352380D01*
X115202857Y-90400000D01*
X115298095Y-90495238D01*
X115345714Y-90590476D01*
X115393333Y-90780952D01*
X115393333Y-90923809D01*
X115345714Y-91114285D01*
X115298095Y-91209523D01*
X115202857Y-91304761D01*
X115060000Y-91352380D01*
X114821904Y-91352380D01*
X115774285Y-90447619D02*
X115821904Y-90400000D01*
X115917142Y-90352380D01*
X116155238Y-90352380D01*
X116250476Y-90400000D01*
X116298095Y-90447619D01*
X116345714Y-90542857D01*
X116345714Y-90638095D01*
X116298095Y-90780952D01*
X115726666Y-91352380D01*
X116345714Y-91352380D01*
%TO.C,R46*%
X105302380Y-102252857D02*
X104826190Y-102586190D01*
X105302380Y-102824285D02*
X104302380Y-102824285D01*
X104302380Y-102443333D01*
X104350000Y-102348095D01*
X104397619Y-102300476D01*
X104492857Y-102252857D01*
X104635714Y-102252857D01*
X104730952Y-102300476D01*
X104778571Y-102348095D01*
X104826190Y-102443333D01*
X104826190Y-102824285D01*
X104635714Y-101395714D02*
X105302380Y-101395714D01*
X104254761Y-101633809D02*
X104969047Y-101871904D01*
X104969047Y-101252857D01*
X104302380Y-100443333D02*
X104302380Y-100633809D01*
X104350000Y-100729047D01*
X104397619Y-100776666D01*
X104540476Y-100871904D01*
X104730952Y-100919523D01*
X105111904Y-100919523D01*
X105207142Y-100871904D01*
X105254761Y-100824285D01*
X105302380Y-100729047D01*
X105302380Y-100538571D01*
X105254761Y-100443333D01*
X105207142Y-100395714D01*
X105111904Y-100348095D01*
X104873809Y-100348095D01*
X104778571Y-100395714D01*
X104730952Y-100443333D01*
X104683333Y-100538571D01*
X104683333Y-100729047D01*
X104730952Y-100824285D01*
X104778571Y-100871904D01*
X104873809Y-100919523D01*
%TO.C,C6*%
X112853333Y-112707142D02*
X112805714Y-112754761D01*
X112662857Y-112802380D01*
X112567619Y-112802380D01*
X112424761Y-112754761D01*
X112329523Y-112659523D01*
X112281904Y-112564285D01*
X112234285Y-112373809D01*
X112234285Y-112230952D01*
X112281904Y-112040476D01*
X112329523Y-111945238D01*
X112424761Y-111850000D01*
X112567619Y-111802380D01*
X112662857Y-111802380D01*
X112805714Y-111850000D01*
X112853333Y-111897619D01*
X113710476Y-111802380D02*
X113520000Y-111802380D01*
X113424761Y-111850000D01*
X113377142Y-111897619D01*
X113281904Y-112040476D01*
X113234285Y-112230952D01*
X113234285Y-112611904D01*
X113281904Y-112707142D01*
X113329523Y-112754761D01*
X113424761Y-112802380D01*
X113615238Y-112802380D01*
X113710476Y-112754761D01*
X113758095Y-112707142D01*
X113805714Y-112611904D01*
X113805714Y-112373809D01*
X113758095Y-112278571D01*
X113710476Y-112230952D01*
X113615238Y-112183333D01*
X113424761Y-112183333D01*
X113329523Y-112230952D01*
X113281904Y-112278571D01*
X113234285Y-112373809D01*
%TO.C,R50*%
X105979880Y-112742857D02*
X105503690Y-113076190D01*
X105979880Y-113314285D02*
X104979880Y-113314285D01*
X104979880Y-112933333D01*
X105027500Y-112838095D01*
X105075119Y-112790476D01*
X105170357Y-112742857D01*
X105313214Y-112742857D01*
X105408452Y-112790476D01*
X105456071Y-112838095D01*
X105503690Y-112933333D01*
X105503690Y-113314285D01*
X104979880Y-111838095D02*
X104979880Y-112314285D01*
X105456071Y-112361904D01*
X105408452Y-112314285D01*
X105360833Y-112219047D01*
X105360833Y-111980952D01*
X105408452Y-111885714D01*
X105456071Y-111838095D01*
X105551309Y-111790476D01*
X105789404Y-111790476D01*
X105884642Y-111838095D01*
X105932261Y-111885714D01*
X105979880Y-111980952D01*
X105979880Y-112219047D01*
X105932261Y-112314285D01*
X105884642Y-112361904D01*
X104979880Y-111171428D02*
X104979880Y-111076190D01*
X105027500Y-110980952D01*
X105075119Y-110933333D01*
X105170357Y-110885714D01*
X105360833Y-110838095D01*
X105598928Y-110838095D01*
X105789404Y-110885714D01*
X105884642Y-110933333D01*
X105932261Y-110980952D01*
X105979880Y-111076190D01*
X105979880Y-111171428D01*
X105932261Y-111266666D01*
X105884642Y-111314285D01*
X105789404Y-111361904D01*
X105598928Y-111409523D01*
X105360833Y-111409523D01*
X105170357Y-111361904D01*
X105075119Y-111314285D01*
X105027500Y-111266666D01*
X104979880Y-111171428D01*
%TO.C,J21*%
X130667976Y-68582380D02*
X130667976Y-69296666D01*
X130620357Y-69439523D01*
X130525119Y-69534761D01*
X130382261Y-69582380D01*
X130287023Y-69582380D01*
X131096547Y-68677619D02*
X131144166Y-68630000D01*
X131239404Y-68582380D01*
X131477500Y-68582380D01*
X131572738Y-68630000D01*
X131620357Y-68677619D01*
X131667976Y-68772857D01*
X131667976Y-68868095D01*
X131620357Y-69010952D01*
X131048928Y-69582380D01*
X131667976Y-69582380D01*
X132620357Y-69582380D02*
X132048928Y-69582380D01*
X132334642Y-69582380D02*
X132334642Y-68582380D01*
X132239404Y-68725238D01*
X132144166Y-68820476D01*
X132048928Y-68868095D01*
%TO.C,R10*%
X117409880Y-63212857D02*
X116933690Y-63546190D01*
X117409880Y-63784285D02*
X116409880Y-63784285D01*
X116409880Y-63403333D01*
X116457500Y-63308095D01*
X116505119Y-63260476D01*
X116600357Y-63212857D01*
X116743214Y-63212857D01*
X116838452Y-63260476D01*
X116886071Y-63308095D01*
X116933690Y-63403333D01*
X116933690Y-63784285D01*
X117409880Y-62260476D02*
X117409880Y-62831904D01*
X117409880Y-62546190D02*
X116409880Y-62546190D01*
X116552738Y-62641428D01*
X116647976Y-62736666D01*
X116695595Y-62831904D01*
X116409880Y-61641428D02*
X116409880Y-61546190D01*
X116457500Y-61450952D01*
X116505119Y-61403333D01*
X116600357Y-61355714D01*
X116790833Y-61308095D01*
X117028928Y-61308095D01*
X117219404Y-61355714D01*
X117314642Y-61403333D01*
X117362261Y-61450952D01*
X117409880Y-61546190D01*
X117409880Y-61641428D01*
X117362261Y-61736666D01*
X117314642Y-61784285D01*
X117219404Y-61831904D01*
X117028928Y-61879523D01*
X116790833Y-61879523D01*
X116600357Y-61831904D01*
X116505119Y-61784285D01*
X116457500Y-61736666D01*
X116409880Y-61641428D01*
%TO.C,J43*%
X105267976Y-88902380D02*
X105267976Y-89616666D01*
X105220357Y-89759523D01*
X105125119Y-89854761D01*
X104982261Y-89902380D01*
X104887023Y-89902380D01*
X106172738Y-89235714D02*
X106172738Y-89902380D01*
X105934642Y-88854761D02*
X105696547Y-89569047D01*
X106315595Y-89569047D01*
X106601309Y-88902380D02*
X107220357Y-88902380D01*
X106887023Y-89283333D01*
X107029880Y-89283333D01*
X107125119Y-89330952D01*
X107172738Y-89378571D01*
X107220357Y-89473809D01*
X107220357Y-89711904D01*
X107172738Y-89807142D01*
X107125119Y-89854761D01*
X107029880Y-89902380D01*
X106744166Y-89902380D01*
X106648928Y-89854761D01*
X106601309Y-89807142D01*
%TO.C,R27*%
X114869880Y-63212857D02*
X114393690Y-63546190D01*
X114869880Y-63784285D02*
X113869880Y-63784285D01*
X113869880Y-63403333D01*
X113917500Y-63308095D01*
X113965119Y-63260476D01*
X114060357Y-63212857D01*
X114203214Y-63212857D01*
X114298452Y-63260476D01*
X114346071Y-63308095D01*
X114393690Y-63403333D01*
X114393690Y-63784285D01*
X113965119Y-62831904D02*
X113917500Y-62784285D01*
X113869880Y-62689047D01*
X113869880Y-62450952D01*
X113917500Y-62355714D01*
X113965119Y-62308095D01*
X114060357Y-62260476D01*
X114155595Y-62260476D01*
X114298452Y-62308095D01*
X114869880Y-62879523D01*
X114869880Y-62260476D01*
X113869880Y-61927142D02*
X113869880Y-61260476D01*
X114869880Y-61689047D01*
%TO.C,C19*%
X114324642Y-64887142D02*
X114277023Y-64934761D01*
X114134166Y-64982380D01*
X114038928Y-64982380D01*
X113896071Y-64934761D01*
X113800833Y-64839523D01*
X113753214Y-64744285D01*
X113705595Y-64553809D01*
X113705595Y-64410952D01*
X113753214Y-64220476D01*
X113800833Y-64125238D01*
X113896071Y-64030000D01*
X114038928Y-63982380D01*
X114134166Y-63982380D01*
X114277023Y-64030000D01*
X114324642Y-64077619D01*
X115277023Y-64982380D02*
X114705595Y-64982380D01*
X114991309Y-64982380D02*
X114991309Y-63982380D01*
X114896071Y-64125238D01*
X114800833Y-64220476D01*
X114705595Y-64268095D01*
X115753214Y-64982380D02*
X115943690Y-64982380D01*
X116038928Y-64934761D01*
X116086547Y-64887142D01*
X116181785Y-64744285D01*
X116229404Y-64553809D01*
X116229404Y-64172857D01*
X116181785Y-64077619D01*
X116134166Y-64030000D01*
X116038928Y-63982380D01*
X115848452Y-63982380D01*
X115753214Y-64030000D01*
X115705595Y-64077619D01*
X115657976Y-64172857D01*
X115657976Y-64410952D01*
X115705595Y-64506190D01*
X115753214Y-64553809D01*
X115848452Y-64601428D01*
X116038928Y-64601428D01*
X116134166Y-64553809D01*
X116181785Y-64506190D01*
X116229404Y-64410952D01*
%TO.C,J50*%
X105267976Y-54612380D02*
X105267976Y-55326666D01*
X105220357Y-55469523D01*
X105125119Y-55564761D01*
X104982261Y-55612380D01*
X104887023Y-55612380D01*
X106220357Y-54612380D02*
X105744166Y-54612380D01*
X105696547Y-55088571D01*
X105744166Y-55040952D01*
X105839404Y-54993333D01*
X106077500Y-54993333D01*
X106172738Y-55040952D01*
X106220357Y-55088571D01*
X106267976Y-55183809D01*
X106267976Y-55421904D01*
X106220357Y-55517142D01*
X106172738Y-55564761D01*
X106077500Y-55612380D01*
X105839404Y-55612380D01*
X105744166Y-55564761D01*
X105696547Y-55517142D01*
X106887023Y-54612380D02*
X106982261Y-54612380D01*
X107077500Y-54660000D01*
X107125119Y-54707619D01*
X107172738Y-54802857D01*
X107220357Y-54993333D01*
X107220357Y-55231428D01*
X107172738Y-55421904D01*
X107125119Y-55517142D01*
X107077500Y-55564761D01*
X106982261Y-55612380D01*
X106887023Y-55612380D01*
X106791785Y-55564761D01*
X106744166Y-55517142D01*
X106696547Y-55421904D01*
X106648928Y-55231428D01*
X106648928Y-54993333D01*
X106696547Y-54802857D01*
X106744166Y-54707619D01*
X106791785Y-54660000D01*
X106887023Y-54612380D01*
%TO.C,R66*%
X105302380Y-97172857D02*
X104826190Y-97506190D01*
X105302380Y-97744285D02*
X104302380Y-97744285D01*
X104302380Y-97363333D01*
X104350000Y-97268095D01*
X104397619Y-97220476D01*
X104492857Y-97172857D01*
X104635714Y-97172857D01*
X104730952Y-97220476D01*
X104778571Y-97268095D01*
X104826190Y-97363333D01*
X104826190Y-97744285D01*
X104302380Y-96315714D02*
X104302380Y-96506190D01*
X104350000Y-96601428D01*
X104397619Y-96649047D01*
X104540476Y-96744285D01*
X104730952Y-96791904D01*
X105111904Y-96791904D01*
X105207142Y-96744285D01*
X105254761Y-96696666D01*
X105302380Y-96601428D01*
X105302380Y-96410952D01*
X105254761Y-96315714D01*
X105207142Y-96268095D01*
X105111904Y-96220476D01*
X104873809Y-96220476D01*
X104778571Y-96268095D01*
X104730952Y-96315714D01*
X104683333Y-96410952D01*
X104683333Y-96601428D01*
X104730952Y-96696666D01*
X104778571Y-96744285D01*
X104873809Y-96791904D01*
X104302380Y-95363333D02*
X104302380Y-95553809D01*
X104350000Y-95649047D01*
X104397619Y-95696666D01*
X104540476Y-95791904D01*
X104730952Y-95839523D01*
X105111904Y-95839523D01*
X105207142Y-95791904D01*
X105254761Y-95744285D01*
X105302380Y-95649047D01*
X105302380Y-95458571D01*
X105254761Y-95363333D01*
X105207142Y-95315714D01*
X105111904Y-95268095D01*
X104873809Y-95268095D01*
X104778571Y-95315714D01*
X104730952Y-95363333D01*
X104683333Y-95458571D01*
X104683333Y-95649047D01*
X104730952Y-95744285D01*
X104778571Y-95791904D01*
X104873809Y-95839523D01*
%TO.C,C5*%
X102637142Y-96696666D02*
X102684761Y-96744285D01*
X102732380Y-96887142D01*
X102732380Y-96982380D01*
X102684761Y-97125238D01*
X102589523Y-97220476D01*
X102494285Y-97268095D01*
X102303809Y-97315714D01*
X102160952Y-97315714D01*
X101970476Y-97268095D01*
X101875238Y-97220476D01*
X101780000Y-97125238D01*
X101732380Y-96982380D01*
X101732380Y-96887142D01*
X101780000Y-96744285D01*
X101827619Y-96696666D01*
X101732380Y-95791904D02*
X101732380Y-96268095D01*
X102208571Y-96315714D01*
X102160952Y-96268095D01*
X102113333Y-96172857D01*
X102113333Y-95934761D01*
X102160952Y-95839523D01*
X102208571Y-95791904D01*
X102303809Y-95744285D01*
X102541904Y-95744285D01*
X102637142Y-95791904D01*
X102684761Y-95839523D01*
X102732380Y-95934761D01*
X102732380Y-96172857D01*
X102684761Y-96268095D01*
X102637142Y-96315714D01*
%TO.C,J0*%
X133249880Y-57823333D02*
X133964166Y-57823333D01*
X134107023Y-57870952D01*
X134202261Y-57966190D01*
X134249880Y-58109047D01*
X134249880Y-58204285D01*
X133249880Y-57156666D02*
X133249880Y-57061428D01*
X133297500Y-56966190D01*
X133345119Y-56918571D01*
X133440357Y-56870952D01*
X133630833Y-56823333D01*
X133868928Y-56823333D01*
X134059404Y-56870952D01*
X134154642Y-56918571D01*
X134202261Y-56966190D01*
X134249880Y-57061428D01*
X134249880Y-57156666D01*
X134202261Y-57251904D01*
X134154642Y-57299523D01*
X134059404Y-57347142D01*
X133868928Y-57394761D01*
X133630833Y-57394761D01*
X133440357Y-57347142D01*
X133345119Y-57299523D01*
X133297500Y-57251904D01*
X133249880Y-57156666D01*
%TO.C,J61*%
X102727976Y-54612380D02*
X102727976Y-55326666D01*
X102680357Y-55469523D01*
X102585119Y-55564761D01*
X102442261Y-55612380D01*
X102347023Y-55612380D01*
X103632738Y-54612380D02*
X103442261Y-54612380D01*
X103347023Y-54660000D01*
X103299404Y-54707619D01*
X103204166Y-54850476D01*
X103156547Y-55040952D01*
X103156547Y-55421904D01*
X103204166Y-55517142D01*
X103251785Y-55564761D01*
X103347023Y-55612380D01*
X103537500Y-55612380D01*
X103632738Y-55564761D01*
X103680357Y-55517142D01*
X103727976Y-55421904D01*
X103727976Y-55183809D01*
X103680357Y-55088571D01*
X103632738Y-55040952D01*
X103537500Y-54993333D01*
X103347023Y-54993333D01*
X103251785Y-55040952D01*
X103204166Y-55088571D01*
X103156547Y-55183809D01*
X104680357Y-55612380D02*
X104108928Y-55612380D01*
X104394642Y-55612380D02*
X104394642Y-54612380D01*
X104299404Y-54755238D01*
X104204166Y-54850476D01*
X104108928Y-54898095D01*
%TO.C,J42*%
X105267976Y-86362380D02*
X105267976Y-87076666D01*
X105220357Y-87219523D01*
X105125119Y-87314761D01*
X104982261Y-87362380D01*
X104887023Y-87362380D01*
X106172738Y-86695714D02*
X106172738Y-87362380D01*
X105934642Y-86314761D02*
X105696547Y-87029047D01*
X106315595Y-87029047D01*
X106648928Y-86457619D02*
X106696547Y-86410000D01*
X106791785Y-86362380D01*
X107029880Y-86362380D01*
X107125119Y-86410000D01*
X107172738Y-86457619D01*
X107220357Y-86552857D01*
X107220357Y-86648095D01*
X107172738Y-86790952D01*
X106601309Y-87362380D01*
X107220357Y-87362380D01*
%TO.C,R24*%
X108419880Y-84802857D02*
X107943690Y-85136190D01*
X108419880Y-85374285D02*
X107419880Y-85374285D01*
X107419880Y-84993333D01*
X107467500Y-84898095D01*
X107515119Y-84850476D01*
X107610357Y-84802857D01*
X107753214Y-84802857D01*
X107848452Y-84850476D01*
X107896071Y-84898095D01*
X107943690Y-84993333D01*
X107943690Y-85374285D01*
X107515119Y-84421904D02*
X107467500Y-84374285D01*
X107419880Y-84279047D01*
X107419880Y-84040952D01*
X107467500Y-83945714D01*
X107515119Y-83898095D01*
X107610357Y-83850476D01*
X107705595Y-83850476D01*
X107848452Y-83898095D01*
X108419880Y-84469523D01*
X108419880Y-83850476D01*
X107753214Y-82993333D02*
X108419880Y-82993333D01*
X107372261Y-83231428D02*
X108086547Y-83469523D01*
X108086547Y-82850476D01*
%TO.C,R31*%
X104164642Y-78812380D02*
X103831309Y-78336190D01*
X103593214Y-78812380D02*
X103593214Y-77812380D01*
X103974166Y-77812380D01*
X104069404Y-77860000D01*
X104117023Y-77907619D01*
X104164642Y-78002857D01*
X104164642Y-78145714D01*
X104117023Y-78240952D01*
X104069404Y-78288571D01*
X103974166Y-78336190D01*
X103593214Y-78336190D01*
X104497976Y-77812380D02*
X105117023Y-77812380D01*
X104783690Y-78193333D01*
X104926547Y-78193333D01*
X105021785Y-78240952D01*
X105069404Y-78288571D01*
X105117023Y-78383809D01*
X105117023Y-78621904D01*
X105069404Y-78717142D01*
X105021785Y-78764761D01*
X104926547Y-78812380D01*
X104640833Y-78812380D01*
X104545595Y-78764761D01*
X104497976Y-78717142D01*
X106069404Y-78812380D02*
X105497976Y-78812380D01*
X105783690Y-78812380D02*
X105783690Y-77812380D01*
X105688452Y-77955238D01*
X105593214Y-78050476D01*
X105497976Y-78098095D01*
%TO.C,C3*%
X112260833Y-77587142D02*
X112213214Y-77634761D01*
X112070357Y-77682380D01*
X111975119Y-77682380D01*
X111832261Y-77634761D01*
X111737023Y-77539523D01*
X111689404Y-77444285D01*
X111641785Y-77253809D01*
X111641785Y-77110952D01*
X111689404Y-76920476D01*
X111737023Y-76825238D01*
X111832261Y-76730000D01*
X111975119Y-76682380D01*
X112070357Y-76682380D01*
X112213214Y-76730000D01*
X112260833Y-76777619D01*
X112594166Y-76682380D02*
X113213214Y-76682380D01*
X112879880Y-77063333D01*
X113022738Y-77063333D01*
X113117976Y-77110952D01*
X113165595Y-77158571D01*
X113213214Y-77253809D01*
X113213214Y-77491904D01*
X113165595Y-77587142D01*
X113117976Y-77634761D01*
X113022738Y-77682380D01*
X112737023Y-77682380D01*
X112641785Y-77634761D01*
X112594166Y-77587142D01*
%TO.C,C18*%
X114917142Y-100007142D02*
X114869523Y-100054761D01*
X114726666Y-100102380D01*
X114631428Y-100102380D01*
X114488571Y-100054761D01*
X114393333Y-99959523D01*
X114345714Y-99864285D01*
X114298095Y-99673809D01*
X114298095Y-99530952D01*
X114345714Y-99340476D01*
X114393333Y-99245238D01*
X114488571Y-99150000D01*
X114631428Y-99102380D01*
X114726666Y-99102380D01*
X114869523Y-99150000D01*
X114917142Y-99197619D01*
X115869523Y-100102380D02*
X115298095Y-100102380D01*
X115583809Y-100102380D02*
X115583809Y-99102380D01*
X115488571Y-99245238D01*
X115393333Y-99340476D01*
X115298095Y-99388095D01*
X116440952Y-99530952D02*
X116345714Y-99483333D01*
X116298095Y-99435714D01*
X116250476Y-99340476D01*
X116250476Y-99292857D01*
X116298095Y-99197619D01*
X116345714Y-99150000D01*
X116440952Y-99102380D01*
X116631428Y-99102380D01*
X116726666Y-99150000D01*
X116774285Y-99197619D01*
X116821904Y-99292857D01*
X116821904Y-99340476D01*
X116774285Y-99435714D01*
X116726666Y-99483333D01*
X116631428Y-99530952D01*
X116440952Y-99530952D01*
X116345714Y-99578571D01*
X116298095Y-99626190D01*
X116250476Y-99721428D01*
X116250476Y-99911904D01*
X116298095Y-100007142D01*
X116345714Y-100054761D01*
X116440952Y-100102380D01*
X116631428Y-100102380D01*
X116726666Y-100054761D01*
X116774285Y-100007142D01*
X116821904Y-99911904D01*
X116821904Y-99721428D01*
X116774285Y-99626190D01*
X116726666Y-99578571D01*
X116631428Y-99530952D01*
%TO.C,J71*%
X122380476Y-110152380D02*
X122380476Y-110866666D01*
X122332857Y-111009523D01*
X122237619Y-111104761D01*
X122094761Y-111152380D01*
X121999523Y-111152380D01*
X122761428Y-110152380D02*
X123428095Y-110152380D01*
X122999523Y-111152380D01*
X124332857Y-111152380D02*
X123761428Y-111152380D01*
X124047142Y-111152380D02*
X124047142Y-110152380D01*
X123951904Y-110295238D01*
X123856666Y-110390476D01*
X123761428Y-110438095D01*
%TO.C,R30*%
X104164642Y-77712380D02*
X103831309Y-77236190D01*
X103593214Y-77712380D02*
X103593214Y-76712380D01*
X103974166Y-76712380D01*
X104069404Y-76760000D01*
X104117023Y-76807619D01*
X104164642Y-76902857D01*
X104164642Y-77045714D01*
X104117023Y-77140952D01*
X104069404Y-77188571D01*
X103974166Y-77236190D01*
X103593214Y-77236190D01*
X104497976Y-76712380D02*
X105117023Y-76712380D01*
X104783690Y-77093333D01*
X104926547Y-77093333D01*
X105021785Y-77140952D01*
X105069404Y-77188571D01*
X105117023Y-77283809D01*
X105117023Y-77521904D01*
X105069404Y-77617142D01*
X105021785Y-77664761D01*
X104926547Y-77712380D01*
X104640833Y-77712380D01*
X104545595Y-77664761D01*
X104497976Y-77617142D01*
X105736071Y-76712380D02*
X105831309Y-76712380D01*
X105926547Y-76760000D01*
X105974166Y-76807619D01*
X106021785Y-76902857D01*
X106069404Y-77093333D01*
X106069404Y-77331428D01*
X106021785Y-77521904D01*
X105974166Y-77617142D01*
X105926547Y-77664761D01*
X105831309Y-77712380D01*
X105736071Y-77712380D01*
X105640833Y-77664761D01*
X105593214Y-77617142D01*
X105545595Y-77521904D01*
X105497976Y-77331428D01*
X105497976Y-77093333D01*
X105545595Y-76902857D01*
X105593214Y-76807619D01*
X105640833Y-76760000D01*
X105736071Y-76712380D01*
%TO.C,R18*%
X109789880Y-63212857D02*
X109313690Y-63546190D01*
X109789880Y-63784285D02*
X108789880Y-63784285D01*
X108789880Y-63403333D01*
X108837500Y-63308095D01*
X108885119Y-63260476D01*
X108980357Y-63212857D01*
X109123214Y-63212857D01*
X109218452Y-63260476D01*
X109266071Y-63308095D01*
X109313690Y-63403333D01*
X109313690Y-63784285D01*
X109789880Y-62260476D02*
X109789880Y-62831904D01*
X109789880Y-62546190D02*
X108789880Y-62546190D01*
X108932738Y-62641428D01*
X109027976Y-62736666D01*
X109075595Y-62831904D01*
X109218452Y-61689047D02*
X109170833Y-61784285D01*
X109123214Y-61831904D01*
X109027976Y-61879523D01*
X108980357Y-61879523D01*
X108885119Y-61831904D01*
X108837500Y-61784285D01*
X108789880Y-61689047D01*
X108789880Y-61498571D01*
X108837500Y-61403333D01*
X108885119Y-61355714D01*
X108980357Y-61308095D01*
X109027976Y-61308095D01*
X109123214Y-61355714D01*
X109170833Y-61403333D01*
X109218452Y-61498571D01*
X109218452Y-61689047D01*
X109266071Y-61784285D01*
X109313690Y-61831904D01*
X109408928Y-61879523D01*
X109599404Y-61879523D01*
X109694642Y-61831904D01*
X109742261Y-61784285D01*
X109789880Y-61689047D01*
X109789880Y-61498571D01*
X109742261Y-61403333D01*
X109694642Y-61355714D01*
X109599404Y-61308095D01*
X109408928Y-61308095D01*
X109313690Y-61355714D01*
X109266071Y-61403333D01*
X109218452Y-61498571D01*
%TO.C,J41*%
X125587976Y-80012380D02*
X125587976Y-80726666D01*
X125540357Y-80869523D01*
X125445119Y-80964761D01*
X125302261Y-81012380D01*
X125207023Y-81012380D01*
X126492738Y-80345714D02*
X126492738Y-81012380D01*
X126254642Y-79964761D02*
X126016547Y-80679047D01*
X126635595Y-80679047D01*
X127540357Y-81012380D02*
X126968928Y-81012380D01*
X127254642Y-81012380D02*
X127254642Y-80012380D01*
X127159404Y-80155238D01*
X127064166Y-80250476D01*
X126968928Y-80298095D01*
%TO.C,R8*%
X119949880Y-62736666D02*
X119473690Y-63070000D01*
X119949880Y-63308095D02*
X118949880Y-63308095D01*
X118949880Y-62927142D01*
X118997500Y-62831904D01*
X119045119Y-62784285D01*
X119140357Y-62736666D01*
X119283214Y-62736666D01*
X119378452Y-62784285D01*
X119426071Y-62831904D01*
X119473690Y-62927142D01*
X119473690Y-63308095D01*
X119378452Y-62165238D02*
X119330833Y-62260476D01*
X119283214Y-62308095D01*
X119187976Y-62355714D01*
X119140357Y-62355714D01*
X119045119Y-62308095D01*
X118997500Y-62260476D01*
X118949880Y-62165238D01*
X118949880Y-61974761D01*
X118997500Y-61879523D01*
X119045119Y-61831904D01*
X119140357Y-61784285D01*
X119187976Y-61784285D01*
X119283214Y-61831904D01*
X119330833Y-61879523D01*
X119378452Y-61974761D01*
X119378452Y-62165238D01*
X119426071Y-62260476D01*
X119473690Y-62308095D01*
X119568928Y-62355714D01*
X119759404Y-62355714D01*
X119854642Y-62308095D01*
X119902261Y-62260476D01*
X119949880Y-62165238D01*
X119949880Y-61974761D01*
X119902261Y-61879523D01*
X119854642Y-61831904D01*
X119759404Y-61784285D01*
X119568928Y-61784285D01*
X119473690Y-61831904D01*
X119426071Y-61879523D01*
X119378452Y-61974761D01*
%TO.C,J46*%
X128730476Y-119042380D02*
X128730476Y-119756666D01*
X128682857Y-119899523D01*
X128587619Y-119994761D01*
X128444761Y-120042380D01*
X128349523Y-120042380D01*
X129635238Y-119375714D02*
X129635238Y-120042380D01*
X129397142Y-118994761D02*
X129159047Y-119709047D01*
X129778095Y-119709047D01*
X130587619Y-119042380D02*
X130397142Y-119042380D01*
X130301904Y-119090000D01*
X130254285Y-119137619D01*
X130159047Y-119280476D01*
X130111428Y-119470952D01*
X130111428Y-119851904D01*
X130159047Y-119947142D01*
X130206666Y-119994761D01*
X130301904Y-120042380D01*
X130492380Y-120042380D01*
X130587619Y-119994761D01*
X130635238Y-119947142D01*
X130682857Y-119851904D01*
X130682857Y-119613809D01*
X130635238Y-119518571D01*
X130587619Y-119470952D01*
X130492380Y-119423333D01*
X130301904Y-119423333D01*
X130206666Y-119470952D01*
X130159047Y-119518571D01*
X130111428Y-119613809D01*
%TO.C,J30*%
X107807976Y-54612380D02*
X107807976Y-55326666D01*
X107760357Y-55469523D01*
X107665119Y-55564761D01*
X107522261Y-55612380D01*
X107427023Y-55612380D01*
X108188928Y-54612380D02*
X108807976Y-54612380D01*
X108474642Y-54993333D01*
X108617500Y-54993333D01*
X108712738Y-55040952D01*
X108760357Y-55088571D01*
X108807976Y-55183809D01*
X108807976Y-55421904D01*
X108760357Y-55517142D01*
X108712738Y-55564761D01*
X108617500Y-55612380D01*
X108331785Y-55612380D01*
X108236547Y-55564761D01*
X108188928Y-55517142D01*
X109427023Y-54612380D02*
X109522261Y-54612380D01*
X109617500Y-54660000D01*
X109665119Y-54707619D01*
X109712738Y-54802857D01*
X109760357Y-54993333D01*
X109760357Y-55231428D01*
X109712738Y-55421904D01*
X109665119Y-55517142D01*
X109617500Y-55564761D01*
X109522261Y-55612380D01*
X109427023Y-55612380D01*
X109331785Y-55564761D01*
X109284166Y-55517142D01*
X109236547Y-55421904D01*
X109188928Y-55231428D01*
X109188928Y-54993333D01*
X109236547Y-54802857D01*
X109284166Y-54707619D01*
X109331785Y-54660000D01*
X109427023Y-54612380D01*
%TO.C,D1*%
X128669880Y-87438095D02*
X127669880Y-87438095D01*
X127669880Y-87200000D01*
X127717500Y-87057142D01*
X127812738Y-86961904D01*
X127907976Y-86914285D01*
X128098452Y-86866666D01*
X128241309Y-86866666D01*
X128431785Y-86914285D01*
X128527023Y-86961904D01*
X128622261Y-87057142D01*
X128669880Y-87200000D01*
X128669880Y-87438095D01*
X128669880Y-85914285D02*
X128669880Y-86485714D01*
X128669880Y-86200000D02*
X127669880Y-86200000D01*
X127812738Y-86295238D01*
X127907976Y-86390476D01*
X127955595Y-86485714D01*
%TO.C,C8*%
X124960833Y-63507142D02*
X124913214Y-63554761D01*
X124770357Y-63602380D01*
X124675119Y-63602380D01*
X124532261Y-63554761D01*
X124437023Y-63459523D01*
X124389404Y-63364285D01*
X124341785Y-63173809D01*
X124341785Y-63030952D01*
X124389404Y-62840476D01*
X124437023Y-62745238D01*
X124532261Y-62650000D01*
X124675119Y-62602380D01*
X124770357Y-62602380D01*
X124913214Y-62650000D01*
X124960833Y-62697619D01*
X125532261Y-63030952D02*
X125437023Y-62983333D01*
X125389404Y-62935714D01*
X125341785Y-62840476D01*
X125341785Y-62792857D01*
X125389404Y-62697619D01*
X125437023Y-62650000D01*
X125532261Y-62602380D01*
X125722738Y-62602380D01*
X125817976Y-62650000D01*
X125865595Y-62697619D01*
X125913214Y-62792857D01*
X125913214Y-62840476D01*
X125865595Y-62935714D01*
X125817976Y-62983333D01*
X125722738Y-63030952D01*
X125532261Y-63030952D01*
X125437023Y-63078571D01*
X125389404Y-63126190D01*
X125341785Y-63221428D01*
X125341785Y-63411904D01*
X125389404Y-63507142D01*
X125437023Y-63554761D01*
X125532261Y-63602380D01*
X125722738Y-63602380D01*
X125817976Y-63554761D01*
X125865595Y-63507142D01*
X125913214Y-63411904D01*
X125913214Y-63221428D01*
X125865595Y-63126190D01*
X125817976Y-63078571D01*
X125722738Y-63030952D01*
%TO.C,R56*%
X124484642Y-67552380D02*
X124151309Y-67076190D01*
X123913214Y-67552380D02*
X123913214Y-66552380D01*
X124294166Y-66552380D01*
X124389404Y-66600000D01*
X124437023Y-66647619D01*
X124484642Y-66742857D01*
X124484642Y-66885714D01*
X124437023Y-66980952D01*
X124389404Y-67028571D01*
X124294166Y-67076190D01*
X123913214Y-67076190D01*
X125389404Y-66552380D02*
X124913214Y-66552380D01*
X124865595Y-67028571D01*
X124913214Y-66980952D01*
X125008452Y-66933333D01*
X125246547Y-66933333D01*
X125341785Y-66980952D01*
X125389404Y-67028571D01*
X125437023Y-67123809D01*
X125437023Y-67361904D01*
X125389404Y-67457142D01*
X125341785Y-67504761D01*
X125246547Y-67552380D01*
X125008452Y-67552380D01*
X124913214Y-67504761D01*
X124865595Y-67457142D01*
X126294166Y-66552380D02*
X126103690Y-66552380D01*
X126008452Y-66600000D01*
X125960833Y-66647619D01*
X125865595Y-66790476D01*
X125817976Y-66980952D01*
X125817976Y-67361904D01*
X125865595Y-67457142D01*
X125913214Y-67504761D01*
X126008452Y-67552380D01*
X126198928Y-67552380D01*
X126294166Y-67504761D01*
X126341785Y-67457142D01*
X126389404Y-67361904D01*
X126389404Y-67123809D01*
X126341785Y-67028571D01*
X126294166Y-66980952D01*
X126198928Y-66933333D01*
X126008452Y-66933333D01*
X125913214Y-66980952D01*
X125865595Y-67028571D01*
X125817976Y-67123809D01*
%TO.C,C1*%
X116673333Y-119047142D02*
X116625714Y-119094761D01*
X116482857Y-119142380D01*
X116387619Y-119142380D01*
X116244761Y-119094761D01*
X116149523Y-118999523D01*
X116101904Y-118904285D01*
X116054285Y-118713809D01*
X116054285Y-118570952D01*
X116101904Y-118380476D01*
X116149523Y-118285238D01*
X116244761Y-118190000D01*
X116387619Y-118142380D01*
X116482857Y-118142380D01*
X116625714Y-118190000D01*
X116673333Y-118237619D01*
X117625714Y-119142380D02*
X117054285Y-119142380D01*
X117340000Y-119142380D02*
X117340000Y-118142380D01*
X117244761Y-118285238D01*
X117149523Y-118380476D01*
X117054285Y-118428095D01*
%TO.C,J23*%
X130667976Y-63502380D02*
X130667976Y-64216666D01*
X130620357Y-64359523D01*
X130525119Y-64454761D01*
X130382261Y-64502380D01*
X130287023Y-64502380D01*
X131096547Y-63597619D02*
X131144166Y-63550000D01*
X131239404Y-63502380D01*
X131477500Y-63502380D01*
X131572738Y-63550000D01*
X131620357Y-63597619D01*
X131667976Y-63692857D01*
X131667976Y-63788095D01*
X131620357Y-63930952D01*
X131048928Y-64502380D01*
X131667976Y-64502380D01*
X132001309Y-63502380D02*
X132620357Y-63502380D01*
X132287023Y-63883333D01*
X132429880Y-63883333D01*
X132525119Y-63930952D01*
X132572738Y-63978571D01*
X132620357Y-64073809D01*
X132620357Y-64311904D01*
X132572738Y-64407142D01*
X132525119Y-64454761D01*
X132429880Y-64502380D01*
X132144166Y-64502380D01*
X132048928Y-64454761D01*
X132001309Y-64407142D01*
%TO.C,J12*%
X117967976Y-54612380D02*
X117967976Y-55326666D01*
X117920357Y-55469523D01*
X117825119Y-55564761D01*
X117682261Y-55612380D01*
X117587023Y-55612380D01*
X118967976Y-55612380D02*
X118396547Y-55612380D01*
X118682261Y-55612380D02*
X118682261Y-54612380D01*
X118587023Y-54755238D01*
X118491785Y-54850476D01*
X118396547Y-54898095D01*
X119348928Y-54707619D02*
X119396547Y-54660000D01*
X119491785Y-54612380D01*
X119729880Y-54612380D01*
X119825119Y-54660000D01*
X119872738Y-54707619D01*
X119920357Y-54802857D01*
X119920357Y-54898095D01*
X119872738Y-55040952D01*
X119301309Y-55612380D01*
X119920357Y-55612380D01*
%TO.C,J60*%
X130000476Y-100002380D02*
X130000476Y-100716666D01*
X129952857Y-100859523D01*
X129857619Y-100954761D01*
X129714761Y-101002380D01*
X129619523Y-101002380D01*
X130905238Y-100002380D02*
X130714761Y-100002380D01*
X130619523Y-100050000D01*
X130571904Y-100097619D01*
X130476666Y-100240476D01*
X130429047Y-100430952D01*
X130429047Y-100811904D01*
X130476666Y-100907142D01*
X130524285Y-100954761D01*
X130619523Y-101002380D01*
X130810000Y-101002380D01*
X130905238Y-100954761D01*
X130952857Y-100907142D01*
X131000476Y-100811904D01*
X131000476Y-100573809D01*
X130952857Y-100478571D01*
X130905238Y-100430952D01*
X130810000Y-100383333D01*
X130619523Y-100383333D01*
X130524285Y-100430952D01*
X130476666Y-100478571D01*
X130429047Y-100573809D01*
X131619523Y-100002380D02*
X131714761Y-100002380D01*
X131810000Y-100050000D01*
X131857619Y-100097619D01*
X131905238Y-100192857D01*
X131952857Y-100383333D01*
X131952857Y-100621428D01*
X131905238Y-100811904D01*
X131857619Y-100907142D01*
X131810000Y-100954761D01*
X131714761Y-101002380D01*
X131619523Y-101002380D01*
X131524285Y-100954761D01*
X131476666Y-100907142D01*
X131429047Y-100811904D01*
X131381428Y-100621428D01*
X131381428Y-100383333D01*
X131429047Y-100192857D01*
X131476666Y-100097619D01*
X131524285Y-100050000D01*
X131619523Y-100002380D01*
%TO.C,U1*%
X118009880Y-73501904D02*
X118819404Y-73501904D01*
X118914642Y-73454285D01*
X118962261Y-73406666D01*
X119009880Y-73311428D01*
X119009880Y-73120952D01*
X118962261Y-73025714D01*
X118914642Y-72978095D01*
X118819404Y-72930476D01*
X118009880Y-72930476D01*
X119009880Y-71930476D02*
X119009880Y-72501904D01*
X119009880Y-72216190D02*
X118009880Y-72216190D01*
X118152738Y-72311428D01*
X118247976Y-72406666D01*
X118295595Y-72501904D01*
%TO.C,U3*%
X124962380Y-126501904D02*
X125771904Y-126501904D01*
X125867142Y-126454285D01*
X125914761Y-126406666D01*
X125962380Y-126311428D01*
X125962380Y-126120952D01*
X125914761Y-126025714D01*
X125867142Y-125978095D01*
X125771904Y-125930476D01*
X124962380Y-125930476D01*
X124962380Y-125549523D02*
X124962380Y-124930476D01*
X125343333Y-125263809D01*
X125343333Y-125120952D01*
X125390952Y-125025714D01*
X125438571Y-124978095D01*
X125533809Y-124930476D01*
X125771904Y-124930476D01*
X125867142Y-124978095D01*
X125914761Y-125025714D01*
X125962380Y-125120952D01*
X125962380Y-125406666D01*
X125914761Y-125501904D01*
X125867142Y-125549523D01*
%TO.C,R6*%
X111492380Y-125896666D02*
X111016190Y-126230000D01*
X111492380Y-126468095D02*
X110492380Y-126468095D01*
X110492380Y-126087142D01*
X110540000Y-125991904D01*
X110587619Y-125944285D01*
X110682857Y-125896666D01*
X110825714Y-125896666D01*
X110920952Y-125944285D01*
X110968571Y-125991904D01*
X111016190Y-126087142D01*
X111016190Y-126468095D01*
X110492380Y-125039523D02*
X110492380Y-125230000D01*
X110540000Y-125325238D01*
X110587619Y-125372857D01*
X110730476Y-125468095D01*
X110920952Y-125515714D01*
X111301904Y-125515714D01*
X111397142Y-125468095D01*
X111444761Y-125420476D01*
X111492380Y-125325238D01*
X111492380Y-125134761D01*
X111444761Y-125039523D01*
X111397142Y-124991904D01*
X111301904Y-124944285D01*
X111063809Y-124944285D01*
X110968571Y-124991904D01*
X110920952Y-125039523D01*
X110873333Y-125134761D01*
X110873333Y-125325238D01*
X110920952Y-125420476D01*
X110968571Y-125468095D01*
X111063809Y-125515714D01*
%TO.C,R19*%
X117409880Y-70832857D02*
X116933690Y-71166190D01*
X117409880Y-71404285D02*
X116409880Y-71404285D01*
X116409880Y-71023333D01*
X116457500Y-70928095D01*
X116505119Y-70880476D01*
X116600357Y-70832857D01*
X116743214Y-70832857D01*
X116838452Y-70880476D01*
X116886071Y-70928095D01*
X116933690Y-71023333D01*
X116933690Y-71404285D01*
X117409880Y-69880476D02*
X117409880Y-70451904D01*
X117409880Y-70166190D02*
X116409880Y-70166190D01*
X116552738Y-70261428D01*
X116647976Y-70356666D01*
X116695595Y-70451904D01*
X117409880Y-69404285D02*
X117409880Y-69213809D01*
X117362261Y-69118571D01*
X117314642Y-69070952D01*
X117171785Y-68975714D01*
X116981309Y-68928095D01*
X116600357Y-68928095D01*
X116505119Y-68975714D01*
X116457500Y-69023333D01*
X116409880Y-69118571D01*
X116409880Y-69309047D01*
X116457500Y-69404285D01*
X116505119Y-69451904D01*
X116600357Y-69499523D01*
X116838452Y-69499523D01*
X116933690Y-69451904D01*
X116981309Y-69404285D01*
X117028928Y-69309047D01*
X117028928Y-69118571D01*
X116981309Y-69023333D01*
X116933690Y-68975714D01*
X116838452Y-68928095D01*
%TO.C,J31*%
X110347976Y-54612380D02*
X110347976Y-55326666D01*
X110300357Y-55469523D01*
X110205119Y-55564761D01*
X110062261Y-55612380D01*
X109967023Y-55612380D01*
X110728928Y-54612380D02*
X111347976Y-54612380D01*
X111014642Y-54993333D01*
X111157500Y-54993333D01*
X111252738Y-55040952D01*
X111300357Y-55088571D01*
X111347976Y-55183809D01*
X111347976Y-55421904D01*
X111300357Y-55517142D01*
X111252738Y-55564761D01*
X111157500Y-55612380D01*
X110871785Y-55612380D01*
X110776547Y-55564761D01*
X110728928Y-55517142D01*
X112300357Y-55612380D02*
X111728928Y-55612380D01*
X112014642Y-55612380D02*
X112014642Y-54612380D01*
X111919404Y-54755238D01*
X111824166Y-54850476D01*
X111728928Y-54898095D01*
%TO.C,J70*%
X122380476Y-93642380D02*
X122380476Y-94356666D01*
X122332857Y-94499523D01*
X122237619Y-94594761D01*
X122094761Y-94642380D01*
X121999523Y-94642380D01*
X122761428Y-93642380D02*
X123428095Y-93642380D01*
X122999523Y-94642380D01*
X123999523Y-93642380D02*
X124094761Y-93642380D01*
X124190000Y-93690000D01*
X124237619Y-93737619D01*
X124285238Y-93832857D01*
X124332857Y-94023333D01*
X124332857Y-94261428D01*
X124285238Y-94451904D01*
X124237619Y-94547142D01*
X124190000Y-94594761D01*
X124094761Y-94642380D01*
X123999523Y-94642380D01*
X123904285Y-94594761D01*
X123856666Y-94547142D01*
X123809047Y-94451904D01*
X123761428Y-94261428D01*
X123761428Y-94023333D01*
X123809047Y-93832857D01*
X123856666Y-93737619D01*
X123904285Y-93690000D01*
X123999523Y-93642380D01*
%TO.C,J13*%
X130667976Y-60962380D02*
X130667976Y-61676666D01*
X130620357Y-61819523D01*
X130525119Y-61914761D01*
X130382261Y-61962380D01*
X130287023Y-61962380D01*
X131667976Y-61962380D02*
X131096547Y-61962380D01*
X131382261Y-61962380D02*
X131382261Y-60962380D01*
X131287023Y-61105238D01*
X131191785Y-61200476D01*
X131096547Y-61248095D01*
X132001309Y-60962380D02*
X132620357Y-60962380D01*
X132287023Y-61343333D01*
X132429880Y-61343333D01*
X132525119Y-61390952D01*
X132572738Y-61438571D01*
X132620357Y-61533809D01*
X132620357Y-61771904D01*
X132572738Y-61867142D01*
X132525119Y-61914761D01*
X132429880Y-61962380D01*
X132144166Y-61962380D01*
X132048928Y-61914761D01*
X132001309Y-61867142D01*
%TO.C,J32*%
X112887976Y-54612380D02*
X112887976Y-55326666D01*
X112840357Y-55469523D01*
X112745119Y-55564761D01*
X112602261Y-55612380D01*
X112507023Y-55612380D01*
X113268928Y-54612380D02*
X113887976Y-54612380D01*
X113554642Y-54993333D01*
X113697500Y-54993333D01*
X113792738Y-55040952D01*
X113840357Y-55088571D01*
X113887976Y-55183809D01*
X113887976Y-55421904D01*
X113840357Y-55517142D01*
X113792738Y-55564761D01*
X113697500Y-55612380D01*
X113411785Y-55612380D01*
X113316547Y-55564761D01*
X113268928Y-55517142D01*
X114268928Y-54707619D02*
X114316547Y-54660000D01*
X114411785Y-54612380D01*
X114649880Y-54612380D01*
X114745119Y-54660000D01*
X114792738Y-54707619D01*
X114840357Y-54802857D01*
X114840357Y-54898095D01*
X114792738Y-55040952D01*
X114221309Y-55612380D01*
X114840357Y-55612380D01*
%TO.C,Q3*%
X107252261Y-104007619D02*
X107157023Y-103960000D01*
X107061785Y-103864761D01*
X106918928Y-103721904D01*
X106823690Y-103674285D01*
X106728452Y-103674285D01*
X106776071Y-103912380D02*
X106680833Y-103864761D01*
X106585595Y-103769523D01*
X106537976Y-103579047D01*
X106537976Y-103245714D01*
X106585595Y-103055238D01*
X106680833Y-102960000D01*
X106776071Y-102912380D01*
X106966547Y-102912380D01*
X107061785Y-102960000D01*
X107157023Y-103055238D01*
X107204642Y-103245714D01*
X107204642Y-103579047D01*
X107157023Y-103769523D01*
X107061785Y-103864761D01*
X106966547Y-103912380D01*
X106776071Y-103912380D01*
X107537976Y-102912380D02*
X108157023Y-102912380D01*
X107823690Y-103293333D01*
X107966547Y-103293333D01*
X108061785Y-103340952D01*
X108109404Y-103388571D01*
X108157023Y-103483809D01*
X108157023Y-103721904D01*
X108109404Y-103817142D01*
X108061785Y-103864761D01*
X107966547Y-103912380D01*
X107680833Y-103912380D01*
X107585595Y-103864761D01*
X107537976Y-103817142D01*
%TO.C,C17*%
X119804642Y-91227142D02*
X119757023Y-91274761D01*
X119614166Y-91322380D01*
X119518928Y-91322380D01*
X119376071Y-91274761D01*
X119280833Y-91179523D01*
X119233214Y-91084285D01*
X119185595Y-90893809D01*
X119185595Y-90750952D01*
X119233214Y-90560476D01*
X119280833Y-90465238D01*
X119376071Y-90370000D01*
X119518928Y-90322380D01*
X119614166Y-90322380D01*
X119757023Y-90370000D01*
X119804642Y-90417619D01*
X120757023Y-91322380D02*
X120185595Y-91322380D01*
X120471309Y-91322380D02*
X120471309Y-90322380D01*
X120376071Y-90465238D01*
X120280833Y-90560476D01*
X120185595Y-90608095D01*
X121090357Y-90322380D02*
X121757023Y-90322380D01*
X121328452Y-91322380D01*
%TO.C,R12*%
X121277142Y-115472380D02*
X120943809Y-114996190D01*
X120705714Y-115472380D02*
X120705714Y-114472380D01*
X121086666Y-114472380D01*
X121181904Y-114520000D01*
X121229523Y-114567619D01*
X121277142Y-114662857D01*
X121277142Y-114805714D01*
X121229523Y-114900952D01*
X121181904Y-114948571D01*
X121086666Y-114996190D01*
X120705714Y-114996190D01*
X122229523Y-115472380D02*
X121658095Y-115472380D01*
X121943809Y-115472380D02*
X121943809Y-114472380D01*
X121848571Y-114615238D01*
X121753333Y-114710476D01*
X121658095Y-114758095D01*
X122610476Y-114567619D02*
X122658095Y-114520000D01*
X122753333Y-114472380D01*
X122991428Y-114472380D01*
X123086666Y-114520000D01*
X123134285Y-114567619D01*
X123181904Y-114662857D01*
X123181904Y-114758095D01*
X123134285Y-114900952D01*
X122562857Y-115472380D01*
X123181904Y-115472380D01*
%TO.C,HFTrim1*%
X117261785Y-78742380D02*
X117261785Y-77742380D01*
X117261785Y-78218571D02*
X117833214Y-78218571D01*
X117833214Y-78742380D02*
X117833214Y-77742380D01*
X118642738Y-78218571D02*
X118309404Y-78218571D01*
X118309404Y-78742380D02*
X118309404Y-77742380D01*
X118785595Y-77742380D01*
X119023690Y-77742380D02*
X119595119Y-77742380D01*
X119309404Y-78742380D02*
X119309404Y-77742380D01*
X119928452Y-78742380D02*
X119928452Y-78075714D01*
X119928452Y-78266190D02*
X119976071Y-78170952D01*
X120023690Y-78123333D01*
X120118928Y-78075714D01*
X120214166Y-78075714D01*
X120547500Y-78742380D02*
X120547500Y-78075714D01*
X120547500Y-77742380D02*
X120499880Y-77790000D01*
X120547500Y-77837619D01*
X120595119Y-77790000D01*
X120547500Y-77742380D01*
X120547500Y-77837619D01*
X121023690Y-78742380D02*
X121023690Y-78075714D01*
X121023690Y-78170952D02*
X121071309Y-78123333D01*
X121166547Y-78075714D01*
X121309404Y-78075714D01*
X121404642Y-78123333D01*
X121452261Y-78218571D01*
X121452261Y-78742380D01*
X121452261Y-78218571D02*
X121499880Y-78123333D01*
X121595119Y-78075714D01*
X121737976Y-78075714D01*
X121833214Y-78123333D01*
X121880833Y-78218571D01*
X121880833Y-78742380D01*
X122880833Y-78742380D02*
X122309404Y-78742380D01*
X122595119Y-78742380D02*
X122595119Y-77742380D01*
X122499880Y-77885238D01*
X122404642Y-77980476D01*
X122309404Y-78028095D01*
%TO.C,R70*%
X117809880Y-112412857D02*
X117333690Y-112746190D01*
X117809880Y-112984285D02*
X116809880Y-112984285D01*
X116809880Y-112603333D01*
X116857500Y-112508095D01*
X116905119Y-112460476D01*
X117000357Y-112412857D01*
X117143214Y-112412857D01*
X117238452Y-112460476D01*
X117286071Y-112508095D01*
X117333690Y-112603333D01*
X117333690Y-112984285D01*
X116809880Y-112079523D02*
X116809880Y-111412857D01*
X117809880Y-111841428D01*
X116809880Y-110841428D02*
X116809880Y-110746190D01*
X116857500Y-110650952D01*
X116905119Y-110603333D01*
X117000357Y-110555714D01*
X117190833Y-110508095D01*
X117428928Y-110508095D01*
X117619404Y-110555714D01*
X117714642Y-110603333D01*
X117762261Y-110650952D01*
X117809880Y-110746190D01*
X117809880Y-110841428D01*
X117762261Y-110936666D01*
X117714642Y-110984285D01*
X117619404Y-111031904D01*
X117428928Y-111079523D01*
X117190833Y-111079523D01*
X117000357Y-111031904D01*
X116905119Y-110984285D01*
X116857500Y-110936666D01*
X116809880Y-110841428D01*
%TO.C,J11*%
X130667976Y-66042380D02*
X130667976Y-66756666D01*
X130620357Y-66899523D01*
X130525119Y-66994761D01*
X130382261Y-67042380D01*
X130287023Y-67042380D01*
X131667976Y-67042380D02*
X131096547Y-67042380D01*
X131382261Y-67042380D02*
X131382261Y-66042380D01*
X131287023Y-66185238D01*
X131191785Y-66280476D01*
X131096547Y-66328095D01*
X132620357Y-67042380D02*
X132048928Y-67042380D01*
X132334642Y-67042380D02*
X132334642Y-66042380D01*
X132239404Y-66185238D01*
X132144166Y-66280476D01*
X132048928Y-66328095D01*
%TO.C,J22*%
X120507976Y-54612380D02*
X120507976Y-55326666D01*
X120460357Y-55469523D01*
X120365119Y-55564761D01*
X120222261Y-55612380D01*
X120127023Y-55612380D01*
X120936547Y-54707619D02*
X120984166Y-54660000D01*
X121079404Y-54612380D01*
X121317500Y-54612380D01*
X121412738Y-54660000D01*
X121460357Y-54707619D01*
X121507976Y-54802857D01*
X121507976Y-54898095D01*
X121460357Y-55040952D01*
X120888928Y-55612380D01*
X121507976Y-55612380D01*
X121888928Y-54707619D02*
X121936547Y-54660000D01*
X122031785Y-54612380D01*
X122269880Y-54612380D01*
X122365119Y-54660000D01*
X122412738Y-54707619D01*
X122460357Y-54802857D01*
X122460357Y-54898095D01*
X122412738Y-55040952D01*
X121841309Y-55612380D01*
X122460357Y-55612380D01*
%TO.C,R28*%
X117409880Y-75912857D02*
X116933690Y-76246190D01*
X117409880Y-76484285D02*
X116409880Y-76484285D01*
X116409880Y-76103333D01*
X116457500Y-76008095D01*
X116505119Y-75960476D01*
X116600357Y-75912857D01*
X116743214Y-75912857D01*
X116838452Y-75960476D01*
X116886071Y-76008095D01*
X116933690Y-76103333D01*
X116933690Y-76484285D01*
X116505119Y-75531904D02*
X116457500Y-75484285D01*
X116409880Y-75389047D01*
X116409880Y-75150952D01*
X116457500Y-75055714D01*
X116505119Y-75008095D01*
X116600357Y-74960476D01*
X116695595Y-74960476D01*
X116838452Y-75008095D01*
X117409880Y-75579523D01*
X117409880Y-74960476D01*
X116838452Y-74389047D02*
X116790833Y-74484285D01*
X116743214Y-74531904D01*
X116647976Y-74579523D01*
X116600357Y-74579523D01*
X116505119Y-74531904D01*
X116457500Y-74484285D01*
X116409880Y-74389047D01*
X116409880Y-74198571D01*
X116457500Y-74103333D01*
X116505119Y-74055714D01*
X116600357Y-74008095D01*
X116647976Y-74008095D01*
X116743214Y-74055714D01*
X116790833Y-74103333D01*
X116838452Y-74198571D01*
X116838452Y-74389047D01*
X116886071Y-74484285D01*
X116933690Y-74531904D01*
X117028928Y-74579523D01*
X117219404Y-74579523D01*
X117314642Y-74531904D01*
X117362261Y-74484285D01*
X117409880Y-74389047D01*
X117409880Y-74198571D01*
X117362261Y-74103333D01*
X117314642Y-74055714D01*
X117219404Y-74008095D01*
X117028928Y-74008095D01*
X116933690Y-74055714D01*
X116886071Y-74103333D01*
X116838452Y-74198571D01*
%TO.C,R23*%
X112329880Y-63212857D02*
X111853690Y-63546190D01*
X112329880Y-63784285D02*
X111329880Y-63784285D01*
X111329880Y-63403333D01*
X111377500Y-63308095D01*
X111425119Y-63260476D01*
X111520357Y-63212857D01*
X111663214Y-63212857D01*
X111758452Y-63260476D01*
X111806071Y-63308095D01*
X111853690Y-63403333D01*
X111853690Y-63784285D01*
X111425119Y-62831904D02*
X111377500Y-62784285D01*
X111329880Y-62689047D01*
X111329880Y-62450952D01*
X111377500Y-62355714D01*
X111425119Y-62308095D01*
X111520357Y-62260476D01*
X111615595Y-62260476D01*
X111758452Y-62308095D01*
X112329880Y-62879523D01*
X112329880Y-62260476D01*
X111329880Y-61927142D02*
X111329880Y-61308095D01*
X111710833Y-61641428D01*
X111710833Y-61498571D01*
X111758452Y-61403333D01*
X111806071Y-61355714D01*
X111901309Y-61308095D01*
X112139404Y-61308095D01*
X112234642Y-61355714D01*
X112282261Y-61403333D01*
X112329880Y-61498571D01*
X112329880Y-61784285D01*
X112282261Y-61879523D01*
X112234642Y-61927142D01*
%TO.C,R42*%
X120542380Y-102252857D02*
X120066190Y-102586190D01*
X120542380Y-102824285D02*
X119542380Y-102824285D01*
X119542380Y-102443333D01*
X119590000Y-102348095D01*
X119637619Y-102300476D01*
X119732857Y-102252857D01*
X119875714Y-102252857D01*
X119970952Y-102300476D01*
X120018571Y-102348095D01*
X120066190Y-102443333D01*
X120066190Y-102824285D01*
X119875714Y-101395714D02*
X120542380Y-101395714D01*
X119494761Y-101633809D02*
X120209047Y-101871904D01*
X120209047Y-101252857D01*
X119637619Y-100919523D02*
X119590000Y-100871904D01*
X119542380Y-100776666D01*
X119542380Y-100538571D01*
X119590000Y-100443333D01*
X119637619Y-100395714D01*
X119732857Y-100348095D01*
X119828095Y-100348095D01*
X119970952Y-100395714D01*
X120542380Y-100967142D01*
X120542380Y-100348095D01*
%TO.C,R69*%
X114917142Y-93892380D02*
X114583809Y-93416190D01*
X114345714Y-93892380D02*
X114345714Y-92892380D01*
X114726666Y-92892380D01*
X114821904Y-92940000D01*
X114869523Y-92987619D01*
X114917142Y-93082857D01*
X114917142Y-93225714D01*
X114869523Y-93320952D01*
X114821904Y-93368571D01*
X114726666Y-93416190D01*
X114345714Y-93416190D01*
X115774285Y-92892380D02*
X115583809Y-92892380D01*
X115488571Y-92940000D01*
X115440952Y-92987619D01*
X115345714Y-93130476D01*
X115298095Y-93320952D01*
X115298095Y-93701904D01*
X115345714Y-93797142D01*
X115393333Y-93844761D01*
X115488571Y-93892380D01*
X115679047Y-93892380D01*
X115774285Y-93844761D01*
X115821904Y-93797142D01*
X115869523Y-93701904D01*
X115869523Y-93463809D01*
X115821904Y-93368571D01*
X115774285Y-93320952D01*
X115679047Y-93273333D01*
X115488571Y-93273333D01*
X115393333Y-93320952D01*
X115345714Y-93368571D01*
X115298095Y-93463809D01*
X116345714Y-93892380D02*
X116536190Y-93892380D01*
X116631428Y-93844761D01*
X116679047Y-93797142D01*
X116774285Y-93654285D01*
X116821904Y-93463809D01*
X116821904Y-93082857D01*
X116774285Y-92987619D01*
X116726666Y-92940000D01*
X116631428Y-92892380D01*
X116440952Y-92892380D01*
X116345714Y-92940000D01*
X116298095Y-92987619D01*
X116250476Y-93082857D01*
X116250476Y-93320952D01*
X116298095Y-93416190D01*
X116345714Y-93463809D01*
X116440952Y-93511428D01*
X116631428Y-93511428D01*
X116726666Y-93463809D01*
X116774285Y-93416190D01*
X116821904Y-93320952D01*
%TO.C,Q1*%
X110685119Y-84255238D02*
X110637500Y-84350476D01*
X110542261Y-84445714D01*
X110399404Y-84588571D01*
X110351785Y-84683809D01*
X110351785Y-84779047D01*
X110589880Y-84731428D02*
X110542261Y-84826666D01*
X110447023Y-84921904D01*
X110256547Y-84969523D01*
X109923214Y-84969523D01*
X109732738Y-84921904D01*
X109637500Y-84826666D01*
X109589880Y-84731428D01*
X109589880Y-84540952D01*
X109637500Y-84445714D01*
X109732738Y-84350476D01*
X109923214Y-84302857D01*
X110256547Y-84302857D01*
X110447023Y-84350476D01*
X110542261Y-84445714D01*
X110589880Y-84540952D01*
X110589880Y-84731428D01*
X110589880Y-83350476D02*
X110589880Y-83921904D01*
X110589880Y-83636190D02*
X109589880Y-83636190D01*
X109732738Y-83731428D01*
X109827976Y-83826666D01*
X109875595Y-83921904D01*
D11*
%TO.C,J44*%
X129480000Y-105420000D02*
X129480000Y-104090000D01*
X129480000Y-106750000D02*
X132140000Y-106750000D01*
X129480000Y-104090000D02*
X130810000Y-104090000D01*
X132140000Y-106690000D02*
X132140000Y-106750000D01*
X129480000Y-106690000D02*
X132140000Y-106690000D01*
X129480000Y-106690000D02*
X129480000Y-106750000D01*
%TO.C,R71*%
X124400436Y-72370000D02*
X125854564Y-72370000D01*
X124400436Y-70550000D02*
X125854564Y-70550000D01*
%TO.C,ROTrim1*%
X109099000Y-120460000D02*
X112840000Y-120460000D01*
X112840000Y-116070000D02*
X112840000Y-122610000D01*
X110145000Y-116070000D02*
X112840000Y-116070000D01*
X109099000Y-118220000D02*
X112840000Y-118220000D01*
X112840000Y-118220000D02*
X112840000Y-120460000D01*
X110145000Y-122610000D02*
X112840000Y-122610000D01*
X109099000Y-118220000D02*
X109099000Y-120460000D01*
X109099000Y-117906000D02*
X109099000Y-120775000D01*
%TO.C,R15*%
X107707500Y-63297064D02*
X107707500Y-61842936D01*
X109527500Y-63297064D02*
X109527500Y-61842936D01*
%TO.C,J45*%
X129480000Y-106620000D02*
X130810000Y-106620000D01*
X129480000Y-107950000D02*
X129480000Y-106620000D01*
X129480000Y-109220000D02*
X129480000Y-109280000D01*
X129480000Y-109280000D02*
X132140000Y-109280000D01*
X129480000Y-109220000D02*
X132140000Y-109220000D01*
X132140000Y-109220000D02*
X132140000Y-109280000D01*
%TO.C,R20*%
X121192936Y-118470000D02*
X122647064Y-118470000D01*
X121192936Y-120290000D02*
X122647064Y-120290000D01*
%TO.C,1v/Oct1*%
X122737500Y-75094000D02*
X122737500Y-78835000D01*
X124977500Y-75094000D02*
X122737500Y-75094000D01*
X124977500Y-75094000D02*
X124977500Y-78835000D01*
X124977500Y-78835000D02*
X122737500Y-78835000D01*
X127127500Y-78835000D02*
X120587500Y-78835000D01*
X120587500Y-76140000D02*
X120587500Y-78835000D01*
X127127500Y-76140000D02*
X127127500Y-78835000D01*
X125291500Y-75094000D02*
X122422500Y-75094000D01*
%TO.C,R57*%
X128394564Y-62930000D02*
X126940436Y-62930000D01*
X128394564Y-64750000D02*
X126940436Y-64750000D01*
%TO.C,R47*%
X108300000Y-102337064D02*
X108300000Y-100882936D01*
X110120000Y-102337064D02*
X110120000Y-100882936D01*
%TO.C,R17*%
X116597500Y-84887064D02*
X116597500Y-83432936D01*
X118417500Y-84887064D02*
X118417500Y-83432936D01*
%TO.C,Q2*%
X109197500Y-85960000D02*
X109197500Y-82360000D01*
X104747499Y-84160000D02*
G75*
G03*
X109185978Y-85998478I2600001J0D01*
G01*
X109185978Y-82321522D02*
G75*
G03*
X104747500Y-84160000I-1838478J-1838478D01*
G01*
%TO.C,R65*%
X128394564Y-65470000D02*
X126940436Y-65470000D01*
X128394564Y-67290000D02*
X126940436Y-67290000D01*
%TO.C,J40*%
X125067500Y-80350000D02*
X125067500Y-79020000D01*
X125067500Y-81620000D02*
X127727500Y-81620000D01*
X127727500Y-81620000D02*
X127727500Y-81680000D01*
X125067500Y-81620000D02*
X125067500Y-81680000D01*
X125067500Y-81680000D02*
X127727500Y-81680000D01*
X125067500Y-79020000D02*
X126397500Y-79020000D01*
%TO.C,R34*%
X103220000Y-102337064D02*
X103220000Y-100882936D01*
X105040000Y-102337064D02*
X105040000Y-100882936D01*
%TO.C,J33*%
X114907500Y-58820000D02*
X117567500Y-58820000D01*
X114907500Y-57490000D02*
X114907500Y-56160000D01*
X114907500Y-58760000D02*
X117567500Y-58760000D01*
X114907500Y-58760000D02*
X114907500Y-58820000D01*
X117567500Y-58760000D02*
X117567500Y-58820000D01*
X114907500Y-56160000D02*
X116237500Y-56160000D01*
%TO.C,U2*%
X110430000Y-101490000D02*
X110430000Y-103140000D01*
X110430000Y-105140000D02*
X110430000Y-106790000D01*
X120710000Y-106790000D02*
X120710000Y-101490000D01*
X110430000Y-106790000D02*
X120710000Y-106790000D01*
X120710000Y-101490000D02*
X110430000Y-101490000D01*
X110430000Y-105140000D02*
G75*
G03*
X110430000Y-103140000I0J1000000D01*
G01*
%TO.C,R9*%
X122044564Y-88880000D02*
X120590436Y-88880000D01*
X122044564Y-87060000D02*
X120590436Y-87060000D01*
%TO.C,D2*%
X113275000Y-91585000D02*
X113275000Y-93855000D01*
X113275000Y-93855000D02*
X117160000Y-93855000D01*
X117160000Y-91585000D02*
X113275000Y-91585000D01*
%TO.C,R46*%
X105760000Y-102337064D02*
X105760000Y-100882936D01*
X107580000Y-102337064D02*
X107580000Y-100882936D01*
%TO.C,C6*%
X113731252Y-111410000D02*
X112308748Y-111410000D01*
X113731252Y-109590000D02*
X112308748Y-109590000D01*
%TO.C,R50*%
X106437500Y-112827064D02*
X106437500Y-111372936D01*
X108257500Y-112827064D02*
X108257500Y-111372936D01*
%TO.C,J21*%
X132807500Y-72730000D02*
X132807500Y-72790000D01*
X130147500Y-71460000D02*
X130147500Y-70130000D01*
X130147500Y-72790000D02*
X132807500Y-72790000D01*
X130147500Y-70130000D02*
X131477500Y-70130000D01*
X130147500Y-72730000D02*
X130147500Y-72790000D01*
X130147500Y-72730000D02*
X132807500Y-72730000D01*
%TO.C,R10*%
X117867500Y-63297064D02*
X117867500Y-61842936D01*
X119687500Y-63297064D02*
X119687500Y-61842936D01*
%TO.C,J43*%
X107407500Y-93050000D02*
X107407500Y-93110000D01*
X104747500Y-91780000D02*
X104747500Y-90450000D01*
X104747500Y-93110000D02*
X107407500Y-93110000D01*
X104747500Y-93050000D02*
X104747500Y-93110000D01*
X104747500Y-90450000D02*
X106077500Y-90450000D01*
X104747500Y-93050000D02*
X107407500Y-93050000D01*
%TO.C,R27*%
X115327500Y-63297064D02*
X115327500Y-61842936D01*
X117147500Y-63297064D02*
X117147500Y-61842936D01*
%TO.C,C19*%
X114256248Y-65470000D02*
X115678752Y-65470000D01*
X114256248Y-67290000D02*
X115678752Y-67290000D01*
%TO.C,J50*%
X104747500Y-57490000D02*
X104747500Y-56160000D01*
X104747500Y-56160000D02*
X106077500Y-56160000D01*
X104747500Y-58820000D02*
X107407500Y-58820000D01*
X104747500Y-58760000D02*
X104747500Y-58820000D01*
X107407500Y-58760000D02*
X107407500Y-58820000D01*
X104747500Y-58760000D02*
X107407500Y-58760000D01*
%TO.C,R66*%
X107580000Y-97257064D02*
X107580000Y-95802936D01*
X105760000Y-97257064D02*
X105760000Y-95802936D01*
%TO.C,C5*%
X105040000Y-97241252D02*
X105040000Y-95818748D01*
X103220000Y-97241252D02*
X103220000Y-95818748D01*
%TO.C,J0*%
X130197500Y-56160000D02*
X130197500Y-58820000D01*
X131467500Y-56160000D02*
X132797500Y-56160000D01*
X130197500Y-56160000D02*
X122517500Y-56160000D01*
X130197500Y-58820000D02*
X122517500Y-58820000D01*
X132797500Y-56160000D02*
X132797500Y-57490000D01*
X122517500Y-56160000D02*
X122517500Y-58820000D01*
%TO.C,J61*%
X102207500Y-58760000D02*
X102207500Y-58820000D01*
X102207500Y-58760000D02*
X104867500Y-58760000D01*
X104867500Y-58760000D02*
X104867500Y-58820000D01*
X102207500Y-57490000D02*
X102207500Y-56160000D01*
X102207500Y-56160000D02*
X103537500Y-56160000D01*
X102207500Y-58820000D02*
X104867500Y-58820000D01*
%TO.C,J42*%
X104747500Y-90510000D02*
X107407500Y-90510000D01*
X107407500Y-90510000D02*
X107407500Y-90570000D01*
X104747500Y-90510000D02*
X104747500Y-90570000D01*
X104747500Y-87910000D02*
X106077500Y-87910000D01*
X104747500Y-90570000D02*
X107407500Y-90570000D01*
X104747500Y-89240000D02*
X104747500Y-87910000D01*
%TO.C,R24*%
X110807500Y-86080000D02*
X110807500Y-82240000D01*
X108967500Y-86080000D02*
X108967500Y-82240000D01*
%TO.C,R31*%
X105534564Y-75630000D02*
X104080436Y-75630000D01*
X105534564Y-77450000D02*
X104080436Y-77450000D01*
%TO.C,C3*%
X111716248Y-78170000D02*
X113138752Y-78170000D01*
X111716248Y-79990000D02*
X113138752Y-79990000D01*
%TO.C,C18*%
X116271252Y-96890000D02*
X114848748Y-96890000D01*
X116271252Y-98710000D02*
X114848748Y-98710000D01*
%TO.C,J71*%
X121860000Y-114360000D02*
X124520000Y-114360000D01*
X124520000Y-114300000D02*
X124520000Y-114360000D01*
X121860000Y-114300000D02*
X121860000Y-114360000D01*
X121860000Y-114300000D02*
X124520000Y-114300000D01*
X121860000Y-113030000D02*
X121860000Y-111700000D01*
X121860000Y-111700000D02*
X123190000Y-111700000D01*
%TO.C,R30*%
X104080436Y-79990000D02*
X105534564Y-79990000D01*
X104080436Y-78170000D02*
X105534564Y-78170000D01*
%TO.C,R18*%
X112067500Y-63297064D02*
X112067500Y-61842936D01*
X110247500Y-63297064D02*
X110247500Y-61842936D01*
%TO.C,J41*%
X127727500Y-84160000D02*
X127727500Y-84220000D01*
X125067500Y-82890000D02*
X125067500Y-81560000D01*
X125067500Y-84160000D02*
X125067500Y-84220000D01*
X125067500Y-84220000D02*
X127727500Y-84220000D01*
X125067500Y-84160000D02*
X127727500Y-84160000D01*
X125067500Y-81560000D02*
X126397500Y-81560000D01*
%TO.C,R8*%
X120407500Y-63297064D02*
X120407500Y-61842936D01*
X122227500Y-63297064D02*
X122227500Y-61842936D01*
%TO.C,J46*%
X128210000Y-123190000D02*
X128210000Y-123250000D01*
X130870000Y-123190000D02*
X130870000Y-123250000D01*
X128210000Y-120590000D02*
X129540000Y-120590000D01*
X128210000Y-123190000D02*
X130870000Y-123190000D01*
X128210000Y-121920000D02*
X128210000Y-120590000D01*
X128210000Y-123250000D02*
X130870000Y-123250000D01*
%TO.C,J30*%
X109947500Y-58760000D02*
X109947500Y-58820000D01*
X107287500Y-58820000D02*
X109947500Y-58820000D01*
X107287500Y-58760000D02*
X107287500Y-58820000D01*
X107287500Y-58760000D02*
X109947500Y-58760000D01*
X107287500Y-57490000D02*
X107287500Y-56160000D01*
X107287500Y-56160000D02*
X108617500Y-56160000D01*
%TO.C,D1*%
X125262500Y-84415000D02*
X125262500Y-88300000D01*
X127532500Y-84415000D02*
X125262500Y-84415000D01*
X127532500Y-88300000D02*
X127532500Y-84415000D01*
%TO.C,C8*%
X125838752Y-62210000D02*
X124416248Y-62210000D01*
X125838752Y-60390000D02*
X124416248Y-60390000D01*
%TO.C,R56*%
X124400436Y-68010000D02*
X125854564Y-68010000D01*
X124400436Y-69830000D02*
X125854564Y-69830000D01*
%TO.C,C1*%
X117551252Y-117750000D02*
X116128748Y-117750000D01*
X117551252Y-115930000D02*
X116128748Y-115930000D01*
%TO.C,J23*%
X130147500Y-67650000D02*
X130147500Y-67710000D01*
X132807500Y-67650000D02*
X132807500Y-67710000D01*
X130147500Y-66380000D02*
X130147500Y-65050000D01*
X130147500Y-67650000D02*
X132807500Y-67650000D01*
X130147500Y-67710000D02*
X132807500Y-67710000D01*
X130147500Y-65050000D02*
X131477500Y-65050000D01*
%TO.C,J12*%
X120107500Y-58760000D02*
X120107500Y-58820000D01*
X117447500Y-58760000D02*
X120107500Y-58760000D01*
X117447500Y-58760000D02*
X117447500Y-58820000D01*
X117447500Y-58820000D02*
X120107500Y-58820000D01*
X117447500Y-57490000D02*
X117447500Y-56160000D01*
X117447500Y-56160000D02*
X118777500Y-56160000D01*
%TO.C,J60*%
X129480000Y-101550000D02*
X130810000Y-101550000D01*
X129480000Y-104210000D02*
X132140000Y-104210000D01*
X132140000Y-104150000D02*
X132140000Y-104210000D01*
X129480000Y-102880000D02*
X129480000Y-101550000D01*
X129480000Y-104150000D02*
X132140000Y-104150000D01*
X129480000Y-104150000D02*
X129480000Y-104210000D01*
%TO.C,U1*%
X117557500Y-75390000D02*
X117557500Y-73740000D01*
X107277500Y-75390000D02*
X117557500Y-75390000D01*
X117557500Y-70090000D02*
X107277500Y-70090000D01*
X107277500Y-70090000D02*
X107277500Y-75390000D01*
X117557500Y-71740000D02*
X117557500Y-70090000D01*
X117557500Y-71740000D02*
G75*
G03*
X117557500Y-73740000I0J-1000000D01*
G01*
%TO.C,U3*%
X124510000Y-124740000D02*
X124510000Y-123090000D01*
X114230000Y-128390000D02*
X124510000Y-128390000D01*
X124510000Y-123090000D02*
X114230000Y-123090000D01*
X114230000Y-123090000D02*
X114230000Y-128390000D01*
X124510000Y-128390000D02*
X124510000Y-126740000D01*
X124510000Y-124740000D02*
G75*
G03*
X124510000Y-126740000I0J-1000000D01*
G01*
%TO.C,R6*%
X108310000Y-125002936D02*
X108310000Y-126457064D01*
X110130000Y-125002936D02*
X110130000Y-126457064D01*
%TO.C,R19*%
X119687500Y-70917064D02*
X119687500Y-69462936D01*
X117867500Y-70917064D02*
X117867500Y-69462936D01*
%TO.C,J31*%
X109827500Y-58760000D02*
X112487500Y-58760000D01*
X109827500Y-58760000D02*
X109827500Y-58820000D01*
X109827500Y-58820000D02*
X112487500Y-58820000D01*
X112487500Y-58760000D02*
X112487500Y-58820000D01*
X109827500Y-56160000D02*
X111157500Y-56160000D01*
X109827500Y-57490000D02*
X109827500Y-56160000D01*
%TO.C,J70*%
X124520000Y-97790000D02*
X124520000Y-97850000D01*
X121860000Y-95190000D02*
X123190000Y-95190000D01*
X121860000Y-97850000D02*
X124520000Y-97850000D01*
X121860000Y-97790000D02*
X124520000Y-97790000D01*
X121860000Y-97790000D02*
X121860000Y-97850000D01*
X121860000Y-96520000D02*
X121860000Y-95190000D01*
%TO.C,J13*%
X130147500Y-65110000D02*
X132807500Y-65110000D01*
X130147500Y-65110000D02*
X130147500Y-65170000D01*
X132807500Y-65110000D02*
X132807500Y-65170000D01*
X130147500Y-65170000D02*
X132807500Y-65170000D01*
X130147500Y-62510000D02*
X131477500Y-62510000D01*
X130147500Y-63840000D02*
X130147500Y-62510000D01*
%TO.C,J32*%
X115027500Y-58760000D02*
X115027500Y-58820000D01*
X112367500Y-58760000D02*
X115027500Y-58760000D01*
X112367500Y-57490000D02*
X112367500Y-56160000D01*
X112367500Y-58820000D02*
X115027500Y-58820000D01*
X112367500Y-56160000D02*
X113697500Y-56160000D01*
X112367500Y-58760000D02*
X112367500Y-58820000D01*
%TO.C,Q3*%
X105547500Y-108870000D02*
X109147500Y-108870000D01*
X109185978Y-108858478D02*
G75*
G03*
X107347500Y-104420000I-1838478J1838478D01*
G01*
X107347500Y-104419999D02*
G75*
G03*
X105509022Y-108858478I0J-2600001D01*
G01*
%TO.C,C17*%
X119736248Y-93630000D02*
X121158752Y-93630000D01*
X119736248Y-91810000D02*
X121158752Y-91810000D01*
%TO.C,R12*%
X121192936Y-115930000D02*
X122647064Y-115930000D01*
X121192936Y-117750000D02*
X122647064Y-117750000D01*
%TO.C,HFTrim1*%
X119926500Y-81730000D02*
X123667500Y-81730000D01*
X120972500Y-79580000D02*
X123667500Y-79580000D01*
X123667500Y-79580000D02*
X123667500Y-86120000D01*
X123667500Y-81730000D02*
X123667500Y-83970000D01*
X119926500Y-83970000D02*
X123667500Y-83970000D01*
X119926500Y-81730000D02*
X119926500Y-83970000D01*
X119926500Y-81416000D02*
X119926500Y-84285000D01*
X120972500Y-86120000D02*
X123667500Y-86120000D01*
%TO.C,R70*%
X120087500Y-112497064D02*
X120087500Y-111042936D01*
X118267500Y-112497064D02*
X118267500Y-111042936D01*
%TO.C,J11*%
X130147500Y-70190000D02*
X132807500Y-70190000D01*
X130147500Y-68920000D02*
X130147500Y-67590000D01*
X130147500Y-67590000D02*
X131477500Y-67590000D01*
X132807500Y-70190000D02*
X132807500Y-70250000D01*
X130147500Y-70250000D02*
X132807500Y-70250000D01*
X130147500Y-70190000D02*
X130147500Y-70250000D01*
%TO.C,J22*%
X119987500Y-58760000D02*
X119987500Y-58820000D01*
X119987500Y-57490000D02*
X119987500Y-56160000D01*
X119987500Y-58760000D02*
X122647500Y-58760000D01*
X122647500Y-58760000D02*
X122647500Y-58820000D01*
X119987500Y-56160000D02*
X121317500Y-56160000D01*
X119987500Y-58820000D02*
X122647500Y-58820000D01*
%TO.C,R28*%
X119687500Y-75997064D02*
X119687500Y-74542936D01*
X117867500Y-75997064D02*
X117867500Y-74542936D01*
%TO.C,R23*%
X114607500Y-63297064D02*
X114607500Y-61842936D01*
X112787500Y-63297064D02*
X112787500Y-61842936D01*
%TO.C,R42*%
X121000000Y-102337064D02*
X121000000Y-100882936D01*
X122820000Y-102337064D02*
X122820000Y-100882936D01*
%TO.C,R69*%
X114832936Y-94350000D02*
X116287064Y-94350000D01*
X114832936Y-96170000D02*
X116287064Y-96170000D01*
%TO.C,Q1*%
X115547500Y-85960000D02*
X115547500Y-82360000D01*
X111097499Y-84160000D02*
G75*
G03*
X115535978Y-85998478I2600001J0D01*
G01*
X115535978Y-82321522D02*
G75*
G03*
X111097500Y-84160000I-1838478J-1838478D01*
G01*
%TD*%
%LPC*%
D12*
%TO.C,J44*%
X130810000Y-105420000D03*
%TD*%
D13*
%TO.C,R71*%
X123665000Y-71460000D03*
X126590000Y-71460000D03*
%TD*%
D14*
%TO.C,ROTrim1*%
X109220000Y-116840000D03*
X111720000Y-119340000D03*
X109220000Y-121840000D03*
%TD*%
D15*
%TO.C,R15*%
X108617500Y-64032500D03*
X108617500Y-61107500D03*
%TD*%
D12*
%TO.C,J45*%
X130810000Y-107950000D03*
%TD*%
D13*
%TO.C,R20*%
X120457500Y-119380000D03*
X123382500Y-119380000D03*
%TD*%
D14*
%TO.C,1v/Oct1*%
X126357500Y-75215000D03*
X123857500Y-77715000D03*
X121357500Y-75215000D03*
%TD*%
D16*
%TO.C,R57*%
X129130000Y-63840000D03*
X126205000Y-63840000D03*
%TD*%
D15*
%TO.C,R47*%
X109210000Y-103072500D03*
X109210000Y-100147500D03*
%TD*%
%TO.C,R17*%
X117507500Y-85622500D03*
X117507500Y-82697500D03*
%TD*%
D17*
%TO.C,Q2*%
X107347500Y-85430000D03*
D18*
X107347500Y-84160000D03*
X107347500Y-82890000D03*
%TD*%
D16*
%TO.C,R65*%
X129130000Y-66380000D03*
X126205000Y-66380000D03*
%TD*%
D12*
%TO.C,J40*%
X126397500Y-80350000D03*
%TD*%
D15*
%TO.C,R34*%
X104130000Y-103072500D03*
X104130000Y-100147500D03*
%TD*%
D12*
%TO.C,J33*%
X116237500Y-57490000D03*
%TD*%
D19*
%TO.C,U2*%
X111760000Y-107950000D03*
D20*
X114300000Y-107950000D03*
X116840000Y-107950000D03*
X119380000Y-107950000D03*
X119380000Y-100330000D03*
X116840000Y-100330000D03*
X114300000Y-100330000D03*
X111760000Y-100330000D03*
%TD*%
D16*
%TO.C,R9*%
X122780000Y-87970000D03*
X119855000Y-87970000D03*
%TD*%
D21*
%TO.C,D2*%
X114160000Y-92720000D03*
X116960000Y-92720000D03*
%TD*%
D15*
%TO.C,R46*%
X106670000Y-103072500D03*
X106670000Y-100147500D03*
%TD*%
D22*
%TO.C,C6*%
X114495000Y-110500000D03*
X111545000Y-110500000D03*
%TD*%
D15*
%TO.C,R50*%
X107347500Y-113562500D03*
X107347500Y-110637500D03*
%TD*%
D12*
%TO.C,J21*%
X131477500Y-71460000D03*
%TD*%
D15*
%TO.C,R10*%
X118777500Y-64032500D03*
X118777500Y-61107500D03*
%TD*%
D12*
%TO.C,J43*%
X106077500Y-91780000D03*
%TD*%
D15*
%TO.C,R27*%
X116237500Y-64032500D03*
X116237500Y-61107500D03*
%TD*%
D23*
%TO.C,C19*%
X113492500Y-66380000D03*
X116442500Y-66380000D03*
%TD*%
D12*
%TO.C,J50*%
X106077500Y-57490000D03*
%TD*%
D15*
%TO.C,R66*%
X106670000Y-97992500D03*
X106670000Y-95067500D03*
%TD*%
D24*
%TO.C,C5*%
X104130000Y-98005000D03*
X104130000Y-95055000D03*
%TD*%
D12*
%TO.C,J0*%
X131467500Y-57490000D03*
D25*
X128927500Y-57490000D03*
X126387500Y-57490000D03*
X123847500Y-57490000D03*
%TD*%
D12*
%TO.C,J61*%
X103537500Y-57490000D03*
%TD*%
%TO.C,J42*%
X106077500Y-89240000D03*
%TD*%
D26*
%TO.C,R24*%
X109887500Y-86700000D03*
D27*
X109887500Y-81620000D03*
%TD*%
D16*
%TO.C,R31*%
X106270000Y-76540000D03*
X103345000Y-76540000D03*
%TD*%
D23*
%TO.C,C3*%
X110952500Y-79080000D03*
X113902500Y-79080000D03*
%TD*%
D22*
%TO.C,C18*%
X117035000Y-97800000D03*
X114085000Y-97800000D03*
%TD*%
D12*
%TO.C,J71*%
X123190000Y-113030000D03*
%TD*%
D13*
%TO.C,R30*%
X103345000Y-79080000D03*
X106270000Y-79080000D03*
%TD*%
D15*
%TO.C,R18*%
X111157500Y-64032500D03*
X111157500Y-61107500D03*
%TD*%
D12*
%TO.C,J41*%
X126397500Y-82890000D03*
%TD*%
D15*
%TO.C,R8*%
X121317500Y-64032500D03*
X121317500Y-61107500D03*
%TD*%
D12*
%TO.C,J46*%
X129540000Y-121920000D03*
%TD*%
%TO.C,J30*%
X108617500Y-57490000D03*
%TD*%
D28*
%TO.C,D1*%
X126397500Y-85300000D03*
X126397500Y-88100000D03*
%TD*%
D22*
%TO.C,C8*%
X126602500Y-61300000D03*
X123652500Y-61300000D03*
%TD*%
D13*
%TO.C,R56*%
X123665000Y-68920000D03*
X126590000Y-68920000D03*
%TD*%
D22*
%TO.C,C1*%
X118315000Y-116840000D03*
X115365000Y-116840000D03*
%TD*%
D12*
%TO.C,J23*%
X131477500Y-66380000D03*
%TD*%
%TO.C,J12*%
X118777500Y-57490000D03*
%TD*%
%TO.C,J60*%
X130810000Y-102880000D03*
%TD*%
D19*
%TO.C,U1*%
X116227500Y-68930000D03*
D20*
X113687500Y-68930000D03*
X111147500Y-68930000D03*
X108607500Y-68930000D03*
X108607500Y-76550000D03*
X111147500Y-76550000D03*
X113687500Y-76550000D03*
X116227500Y-76550000D03*
%TD*%
D19*
%TO.C,U3*%
X123180000Y-121930000D03*
D20*
X120640000Y-121930000D03*
X118100000Y-121930000D03*
X115560000Y-121930000D03*
X115560000Y-129550000D03*
X118100000Y-129550000D03*
X120640000Y-129550000D03*
X123180000Y-129550000D03*
%TD*%
D29*
%TO.C,R6*%
X109220000Y-124267500D03*
X109220000Y-127192500D03*
%TD*%
D15*
%TO.C,R19*%
X118777500Y-71652500D03*
X118777500Y-68727500D03*
%TD*%
D12*
%TO.C,J31*%
X111157500Y-57490000D03*
%TD*%
%TO.C,J70*%
X123190000Y-96520000D03*
%TD*%
%TO.C,J13*%
X131477500Y-63840000D03*
%TD*%
%TO.C,J32*%
X113697500Y-57490000D03*
%TD*%
D30*
%TO.C,Q3*%
X106077500Y-107020000D03*
D31*
X107347500Y-107020000D03*
X108617500Y-107020000D03*
%TD*%
D23*
%TO.C,C17*%
X118972500Y-92720000D03*
X121922500Y-92720000D03*
%TD*%
D13*
%TO.C,R12*%
X120457500Y-116840000D03*
X123382500Y-116840000D03*
%TD*%
D14*
%TO.C,HFTrim1*%
X120047500Y-80350000D03*
X122547500Y-82850000D03*
X120047500Y-85350000D03*
%TD*%
D15*
%TO.C,R70*%
X119177500Y-113232500D03*
X119177500Y-110307500D03*
%TD*%
D12*
%TO.C,J11*%
X131477500Y-68920000D03*
%TD*%
%TO.C,J22*%
X121317500Y-57490000D03*
%TD*%
D15*
%TO.C,R28*%
X118777500Y-76732500D03*
X118777500Y-73807500D03*
%TD*%
%TO.C,R23*%
X113697500Y-64032500D03*
X113697500Y-61107500D03*
%TD*%
%TO.C,R42*%
X121910000Y-103072500D03*
X121910000Y-100147500D03*
%TD*%
D13*
%TO.C,R69*%
X114097500Y-95260000D03*
X117022500Y-95260000D03*
%TD*%
D17*
%TO.C,Q1*%
X113697500Y-85430000D03*
D18*
X113697500Y-84160000D03*
X113697500Y-82890000D03*
%TD*%
M02*
