%TF.GenerationSoftware,KiCad,Pcbnew,7.0.2*%
%TF.CreationDate,2023-06-12T17:36:46-04:00*%
%TF.ProjectId,as3340_no_mux,61733333-3430-45f6-9e6f-5f6d75782e6b,rev?*%
%TF.SameCoordinates,Original*%
%TF.FileFunction,Copper,L1,Top*%
%TF.FilePolarity,Positive*%
%FSLAX46Y46*%
G04 Gerber Fmt 4.6, Leading zero omitted, Abs format (unit mm)*
G04 Created by KiCad (PCBNEW 7.0.2) date 2023-06-12 17:36:46*
%MOMM*%
%LPD*%
G01*
G04 APERTURE LIST*
G04 Aperture macros list*
%AMRoundRect*
0 Rectangle with rounded corners*
0 $1 Rounding radius*
0 $2 $3 $4 $5 $6 $7 $8 $9 X,Y pos of 4 corners*
0 Add a 4 corners polygon primitive as box body*
4,1,4,$2,$3,$4,$5,$6,$7,$8,$9,$2,$3,0*
0 Add four circle primitives for the rounded corners*
1,1,$1+$1,$2,$3*
1,1,$1+$1,$4,$5*
1,1,$1+$1,$6,$7*
1,1,$1+$1,$8,$9*
0 Add four rect primitives between the rounded corners*
20,1,$1+$1,$2,$3,$4,$5,0*
20,1,$1+$1,$4,$5,$6,$7,0*
20,1,$1+$1,$6,$7,$8,$9,0*
20,1,$1+$1,$8,$9,$2,$3,0*%
G04 Aperture macros list end*
%TA.AperFunction,ComponentPad*%
%ADD10O,3.100000X2.300000*%
%TD*%
%TA.AperFunction,ComponentPad*%
%ADD11RoundRect,0.650000X-0.650000X-0.650000X0.650000X-0.650000X0.650000X0.650000X-0.650000X0.650000X0*%
%TD*%
%TA.AperFunction,ComponentPad*%
%ADD12C,1.600000*%
%TD*%
%TA.AperFunction,ComponentPad*%
%ADD13R,1.800000X1.800000*%
%TD*%
%TA.AperFunction,ComponentPad*%
%ADD14C,1.800000*%
%TD*%
%TA.AperFunction,ComponentPad*%
%ADD15RoundRect,0.750000X0.750000X-1.250000X0.750000X1.250000X-0.750000X1.250000X-0.750000X-1.250000X0*%
%TD*%
%TA.AperFunction,ComponentPad*%
%ADD16C,1.620000*%
%TD*%
%TA.AperFunction,ComponentPad*%
%ADD17R,1.600000X1.600000*%
%TD*%
%TA.AperFunction,ComponentPad*%
%ADD18O,1.600000X1.600000*%
%TD*%
%TA.AperFunction,ComponentPad*%
%ADD19R,1.700000X1.700000*%
%TD*%
%TA.AperFunction,ComponentPad*%
%ADD20O,1.700000X1.700000*%
%TD*%
%TA.AperFunction,ComponentPad*%
%ADD21C,1.200000*%
%TD*%
%TA.AperFunction,ViaPad*%
%ADD22C,0.800000*%
%TD*%
%TA.AperFunction,Conductor*%
%ADD23C,0.250000*%
%TD*%
G04 APERTURE END LIST*
D10*
%TO.P,J15,S*%
%TO.N,GND*%
X193040000Y-140716000D03*
D11*
%TO.P,J15,T*%
%TO.N,Net-(J15-PadR)*%
X193040000Y-129316000D03*
%TO.P,J15,TN*%
%TO.N,N/C*%
X193040000Y-137616000D03*
%TD*%
D10*
%TO.P,J1,S*%
%TO.N,GND*%
X182880000Y-125476000D03*
D11*
%TO.P,J1,T*%
%TO.N,Net-(SW1-B)*%
X182880000Y-114076000D03*
%TO.P,J1,TN*%
%TO.N,N/C*%
X182880000Y-122376000D03*
%TD*%
D10*
%TO.P,J5,S*%
%TO.N,GND*%
X182880000Y-140716000D03*
D11*
%TO.P,J5,T*%
%TO.N,Net-(J5-PadR)*%
X182880000Y-129316000D03*
%TO.P,J5,TN*%
%TO.N,N/C*%
X182880000Y-137616000D03*
%TD*%
D12*
%TO.P,D1,1,K*%
%TO.N,GND*%
X179070000Y-146538000D03*
%TO.P,D1,2,A*%
%TO.N,Net-(D1-A)*%
X179070000Y-144038000D03*
%TD*%
D10*
%TO.P,J2,S*%
%TO.N,GND*%
X182880000Y-94996000D03*
D11*
%TO.P,J2,T*%
%TO.N,Net-(J2-PadR)*%
X182880000Y-83596000D03*
%TO.P,J2,TN*%
%TO.N,N/C*%
X182880000Y-91896000D03*
%TD*%
D10*
%TO.P,J12,S*%
%TO.N,GND*%
X193040000Y-94996000D03*
D11*
%TO.P,J12,T*%
%TO.N,Net-(J12-PadR)*%
X193040000Y-83596000D03*
%TO.P,J12,TN*%
%TO.N,N/C*%
X193040000Y-91896000D03*
%TD*%
D13*
%TO.P,THONKY_FINE_CV1,1,1*%
%TO.N,Net-(R16-Pad1)*%
X185500000Y-58420000D03*
D14*
%TO.P,THONKY_FINE_CV1,2,2*%
%TO.N,Net-(R19-Pad1)*%
X188000000Y-58420000D03*
%TO.P,THONKY_FINE_CV1,3,3*%
%TO.N,Net-(R6-Pad2)*%
X190500000Y-58420000D03*
D15*
%TO.P,THONKY_FINE_CV1,MP*%
%TO.N,N/C*%
X183600000Y-51420000D03*
X192400000Y-51420000D03*
%TD*%
D10*
%TO.P,J13,S*%
%TO.N,GND*%
X193040000Y-110236000D03*
D11*
%TO.P,J13,T*%
%TO.N,Net-(J13-PadR)*%
X193040000Y-98836000D03*
%TO.P,J13,TN*%
%TO.N,N/C*%
X193040000Y-107136000D03*
%TD*%
D10*
%TO.P,J4,S*%
%TO.N,GND*%
X182880000Y-110236000D03*
D11*
%TO.P,J4,T*%
%TO.N,Net-(C1-Pad2)*%
X182880000Y-98836000D03*
%TO.P,J4,TN*%
%TO.N,N/C*%
X182880000Y-107136000D03*
%TD*%
D13*
%TO.P,THONKY_COURSE_CV1,1,1*%
%TO.N,Net-(R8-Pad1)*%
X185500000Y-43775000D03*
D14*
%TO.P,THONKY_COURSE_CV1,2,2*%
%TO.N,Net-(R20-Pad1)*%
X188000000Y-43775000D03*
%TO.P,THONKY_COURSE_CV1,3,3*%
%TO.N,Net-(R2-Pad2)*%
X190500000Y-43775000D03*
D15*
%TO.P,THONKY_COURSE_CV1,MP*%
%TO.N,N/C*%
X183600000Y-36775000D03*
X192400000Y-36775000D03*
%TD*%
D13*
%TO.P,THONKY_PWM1,1,1*%
%TO.N,Net-(R5-Pad1)*%
X185505000Y-73040000D03*
D14*
%TO.P,THONKY_PWM1,2,2*%
%TO.N,Net-(J5-PadR)*%
X188005000Y-73040000D03*
%TO.P,THONKY_PWM1,3,3*%
%TO.N,GND*%
X190505000Y-73040000D03*
D15*
%TO.P,THONKY_PWM1,MP*%
%TO.N,N/C*%
X183605000Y-66040000D03*
X192405000Y-66040000D03*
%TD*%
D10*
%TO.P,J14,S*%
%TO.N,GND*%
X193040000Y-125476000D03*
D11*
%TO.P,J14,T*%
%TO.N,Net-(J14-PadR)*%
X193040000Y-114076000D03*
%TO.P,J14,TN*%
%TO.N,N/C*%
X193040000Y-122376000D03*
%TD*%
D16*
%TO.P,NOT_THOONKY_SineBiasTrim1,1,1*%
%TO.N,-15V*%
X181610000Y-75986000D03*
%TO.P,NOT_THOONKY_SineBiasTrim1,2,2*%
%TO.N,Net-(NOT_THOONKY_SineBiasTrim1-Pad2)*%
X179110000Y-78486000D03*
%TO.P,NOT_THOONKY_SineBiasTrim1,3,3*%
%TO.N,+15V*%
X181610000Y-80986000D03*
%TD*%
%TO.P,NOT_THONKY_HF_TRACK1,1,1*%
%TO.N,Net-(U2-VHFT)*%
X181665000Y-42712000D03*
%TO.P,NOT_THONKY_HF_TRACK1,2,2*%
%TO.N,Net-(NOT_THONKY_HF_TRACK1-Pad2)*%
X179165000Y-45212000D03*
%TO.P,NOT_THONKY_HF_TRACK1,3,3*%
%TO.N,GND*%
X181665000Y-47712000D03*
%TD*%
D17*
%TO.P,U4,1*%
%TO.N,Net-(U4A--)*%
X189230000Y-128270000D03*
D18*
%TO.P,U4,2,-*%
X189230000Y-125730000D03*
%TO.P,U4,3,+*%
%TO.N,Net-(U4A-+)*%
X189230000Y-123190000D03*
%TO.P,U4,4,V+*%
%TO.N,+15V*%
X189230000Y-120650000D03*
%TO.P,U4,5,+*%
%TO.N,Net-(U2-VTO)*%
X189230000Y-118110000D03*
%TO.P,U4,6,-*%
%TO.N,Net-(U4B--)*%
X189230000Y-115570000D03*
%TO.P,U4,7*%
%TO.N,Net-(NOT_THONKY_SineShapeTrim1-Pad1)*%
X189230000Y-113030000D03*
%TO.P,U4,8*%
%TO.N,Net-(U4C--)*%
X196850000Y-113030000D03*
%TO.P,U4,9,-*%
X196850000Y-115570000D03*
%TO.P,U4,10,+*%
%TO.N,Net-(D1-A)*%
X196850000Y-118110000D03*
%TO.P,U4,11,V-*%
%TO.N,-15V*%
X196850000Y-120650000D03*
%TO.P,U4,12,+*%
%TO.N,Net-(U2-VSO)*%
X196850000Y-123190000D03*
%TO.P,U4,13,-*%
%TO.N,Net-(U4D--)*%
X196850000Y-125730000D03*
%TO.P,U4,14*%
X196850000Y-128270000D03*
%TD*%
D16*
%TO.P,NOT_THINK_SineLevelTrim1,1,1*%
%TO.N,Net-(NOT_THINK_SineLevelTrim1-Pad1)*%
X196905000Y-75986000D03*
%TO.P,NOT_THINK_SineLevelTrim1,2,2*%
X194405000Y-78486000D03*
%TO.P,NOT_THINK_SineLevelTrim1,3,3*%
%TO.N,+15V*%
X196905000Y-80986000D03*
%TD*%
%TO.P,SW1,1,A*%
%TO.N,Net-(SW1-A)*%
X196962400Y-68721600D03*
%TO.P,SW1,2,B*%
%TO.N,Net-(SW1-B)*%
X194462400Y-71221600D03*
%TO.P,SW1,3,C*%
%TO.N,Net-(SW1-C)*%
X196962400Y-73721600D03*
%TD*%
%TO.P,NOT_THONKY_SineShapeTrim1,1,1*%
%TO.N,Net-(NOT_THONKY_SineShapeTrim1-Pad1)*%
X181610000Y-56428000D03*
%TO.P,NOT_THONKY_SineShapeTrim1,2,2*%
%TO.N,Net-(NOT_THONKY_SineShapeTrim1-Pad2)*%
X179110000Y-58928000D03*
%TO.P,NOT_THONKY_SineShapeTrim1,3,3*%
X181610000Y-61428000D03*
%TD*%
D19*
%TO.P,J11,1,Pin_1*%
%TO.N,-15V*%
X193035000Y-146685000D03*
D20*
%TO.P,J11,2,Pin_2*%
X193035000Y-144145000D03*
%TO.P,J11,3,Pin_3*%
%TO.N,GND*%
X190495000Y-146685000D03*
%TO.P,J11,4,Pin_4*%
X190495000Y-144145000D03*
%TO.P,J11,5,Pin_5*%
X187955000Y-146685000D03*
%TO.P,J11,6,Pin_6*%
X187955000Y-144145000D03*
%TO.P,J11,7,Pin_7*%
X185415000Y-146685000D03*
%TO.P,J11,8,Pin_8*%
X185415000Y-144145000D03*
%TO.P,J11,9,Pin_9*%
%TO.N,+15V*%
X182875000Y-146685000D03*
%TO.P,J11,10,Pin_10*%
X182875000Y-144145000D03*
%TD*%
D17*
%TO.P,U2,1,SCALE1*%
%TO.N,Net-(U2-SCALE1)*%
X179324000Y-130810000D03*
D18*
%TO.P,U2,2,SCALE2*%
%TO.N,Net-(U2-SCALE2)*%
X179324000Y-128270000D03*
%TO.P,U2,3,VEE*%
%TO.N,Net-(U2-VEE)*%
X179324000Y-125730000D03*
%TO.P,U2,4,VP*%
%TO.N,Net-(U2-VP)*%
X179324000Y-123190000D03*
%TO.P,U2,5,VPWM*%
%TO.N,Net-(U2-VPWM)*%
X179324000Y-120650000D03*
%TO.P,U2,6,VHSI*%
%TO.N,Net-(U2-VHSI)*%
X179324000Y-118110000D03*
%TO.P,U2,7,VHFT*%
%TO.N,Net-(U2-VHFT)*%
X179324000Y-115570000D03*
%TO.P,U2,8,VSO*%
%TO.N,Net-(U2-VSO)*%
X179324000Y-113030000D03*
%TO.P,U2,9,VSSI*%
%TO.N,Net-(U2-VSSI)*%
X186944000Y-113030000D03*
%TO.P,U2,10,VTO*%
%TO.N,Net-(U2-VTO)*%
X186944000Y-115570000D03*
%TO.P,U2,11,CAP*%
%TO.N,Net-(U2-CAP)*%
X186944000Y-118110000D03*
%TO.P,U2,12,GND*%
%TO.N,GND*%
X186944000Y-120650000D03*
%TO.P,U2,13,VLFI*%
%TO.N,Net-(U2-VLFI)*%
X186944000Y-123190000D03*
%TO.P,U2,14,VS*%
%TO.N,Net-(U2-VS)*%
X186944000Y-125730000D03*
%TO.P,U2,15,VFCI*%
%TO.N,Net-(U2-VFCI)*%
X186944000Y-128270000D03*
%TO.P,U2,16,VCC*%
%TO.N,+15V*%
X186944000Y-130810000D03*
%TD*%
D16*
%TO.P,NOT+THINKY_CV1,1,1*%
%TO.N,Net-(NOT+THINKY_CV1-Pad1)*%
X196905000Y-42966000D03*
%TO.P,NOT+THINKY_CV1,2,2*%
X194405000Y-45466000D03*
%TO.P,NOT+THINKY_CV1,3,3*%
%TO.N,+15V*%
X196905000Y-47966000D03*
%TD*%
%TO.P,NOT_THINKY_TEMKO1,1,1*%
%TO.N,Net-(NOT_THINKY_TEMKO1-Pad1)*%
X196850000Y-57698000D03*
%TO.P,NOT_THINKY_TEMKO1,2,2*%
%TO.N,Net-(U2-VEE)*%
X194350000Y-60198000D03*
%TO.P,NOT_THINKY_TEMKO1,3,3*%
X196850000Y-62698000D03*
%TD*%
D21*
%TO.P,PolyStirene!C11,1*%
%TO.N,GND*%
X189611000Y-139700000D03*
%TO.P,PolyStirene!C11,2*%
%TO.N,Net-(U2-CAP)*%
X187611000Y-139700000D03*
%TD*%
D22*
%TO.N,GND*%
X179150000Y-71928400D03*
X179847100Y-64230900D03*
%TO.N,Net-(D1-A)*%
X179120800Y-108591900D03*
X180313300Y-145778000D03*
X195022400Y-130935200D03*
X195388000Y-138112800D03*
%TO.N,-15V*%
X194211800Y-75799600D03*
%TO.N,+15V*%
X190357400Y-79420100D03*
%TO.N,Net-(J12-PadR)*%
X191656300Y-104831700D03*
%TO.N,Net-(J14-PadR)*%
X196403200Y-131858600D03*
%TO.N,Net-(R3-Pad1)*%
X192233000Y-72075400D03*
X193132400Y-80716900D03*
%TO.N,Net-(U4A-+)*%
X189947900Y-85358200D03*
%TO.N,Net-(SW1-C)*%
X195317100Y-102550100D03*
X194594900Y-80294000D03*
%TO.N,Net-(U2-VLFI)*%
X192546900Y-89121000D03*
X194934000Y-86288000D03*
X186177000Y-104471700D03*
X188200300Y-92456000D03*
%TO.N,Net-(U2-VFCI)*%
X185782300Y-92768300D03*
X185812800Y-134898300D03*
%TO.N,Net-(SW1-A)*%
X186149200Y-98585000D03*
X187559200Y-83065700D03*
%TO.N,Net-(SW1-B)*%
X187548600Y-68520100D03*
%TO.N,Net-(U2-VEE)*%
X189425200Y-63344700D03*
%TO.N,Net-(NOT+THINKY_CV1-Pad1)*%
X196730100Y-141296600D03*
X194545500Y-54354300D03*
X191154400Y-59950800D03*
%TO.N,Net-(NOT_THINKY_TEMKO1-Pad1)*%
X192616200Y-57727800D03*
X185017700Y-82811000D03*
X179655900Y-134720800D03*
X186199300Y-101412800D03*
X187429900Y-87205800D03*
X183937200Y-117752100D03*
%TO.N,Net-(NOT_THINK_SineLevelTrim1-Pad1)*%
X192889600Y-74336100D03*
%TO.N,Net-(U4A--)*%
X192308600Y-103493000D03*
X191088800Y-123925800D03*
%TO.N,Net-(NOT_THONKY_HF_TRACK1-Pad2)*%
X190820600Y-48256900D03*
X195155500Y-114835200D03*
%TO.N,Net-(NOT_THONKY_SineShapeTrim1-Pad1)*%
X189303000Y-66122900D03*
%TO.N,Net-(NOT_THONKY_SineShapeTrim1-Pad2)*%
X179110000Y-67474600D03*
%TO.N,Net-(R5-Pad1)*%
X188242600Y-59960400D03*
%TO.N,Net-(R19-Pad1)*%
X181077700Y-131542300D03*
%TO.N,Net-(R20-Pad1)*%
X183613400Y-77799800D03*
%TO.N,Net-(U2-VSO)*%
X180802100Y-119195600D03*
X192926400Y-118691000D03*
X180644700Y-114294900D03*
%TD*%
D23*
%TO.N,GND*%
X182880000Y-96398300D02*
X182704700Y-96398300D01*
X191476700Y-138731400D02*
X192059000Y-139313700D01*
X193040000Y-96398300D02*
X193285200Y-96398300D01*
X190495000Y-144145000D02*
X190495000Y-146685000D01*
X193040000Y-140716000D02*
X193040000Y-139313700D01*
X193916400Y-108833700D02*
X193040000Y-108833700D01*
X194607800Y-97720900D02*
X194607800Y-108142300D01*
X179847100Y-71231300D02*
X179150000Y-71928400D01*
X193040000Y-125476000D02*
X193040000Y-126878300D01*
X187955000Y-144145000D02*
X187955000Y-146685000D01*
X181308000Y-97795000D02*
X181308000Y-108242700D01*
X193040000Y-126878300D02*
X192864700Y-126878300D01*
X182880000Y-110236000D02*
X182880000Y-108833700D01*
X182880000Y-94996000D02*
X182880000Y-96398300D01*
X192864700Y-126878300D02*
X191476700Y-128266300D01*
X191476700Y-128266300D02*
X191476700Y-138731400D01*
X193285200Y-96398300D02*
X194607800Y-97720900D01*
X187955000Y-146685000D02*
X186517300Y-146685000D01*
X194607800Y-108142300D02*
X193916400Y-108833700D01*
X193040000Y-110236000D02*
X193040000Y-108833700D01*
X193040000Y-94996000D02*
X193040000Y-96398300D01*
X181899000Y-108833700D02*
X182880000Y-108833700D01*
X181308000Y-108242700D02*
X181899000Y-108833700D01*
X182704700Y-96398300D02*
X181308000Y-97795000D01*
X185415000Y-146685000D02*
X186517300Y-146685000D01*
X192059000Y-139313700D02*
X193040000Y-139313700D01*
X179847100Y-64230900D02*
X179847100Y-71231300D01*
%TO.N,Net-(U2-CAP)*%
X186944000Y-118110000D02*
X186944000Y-119162300D01*
X187611000Y-139700000D02*
X188013500Y-139297500D01*
X188013500Y-139297500D02*
X188013500Y-120144900D01*
X188013500Y-120144900D02*
X187030900Y-119162300D01*
X187030900Y-119162300D02*
X186944000Y-119162300D01*
%TO.N,Net-(D1-A)*%
X179940800Y-113936500D02*
X179940800Y-114513300D01*
X180313300Y-145778000D02*
X180313300Y-145281300D01*
X180383000Y-114955500D02*
X180383000Y-118584800D01*
X179120800Y-108591900D02*
X179120800Y-110735200D01*
X178271600Y-120202500D02*
X178271600Y-143239600D01*
X180313300Y-145281300D02*
X179070000Y-144038000D01*
X179587800Y-119380000D02*
X179094100Y-119380000D01*
X179120800Y-110735200D02*
X180383000Y-111997400D01*
X195388000Y-138112800D02*
X195388000Y-131300800D01*
X180383000Y-111997400D02*
X180383000Y-113494300D01*
X179940800Y-114513300D02*
X180383000Y-114955500D01*
X178271600Y-143239600D02*
X179070000Y-144038000D01*
X180383000Y-118584800D02*
X179587800Y-119380000D01*
X179094100Y-119380000D02*
X178271600Y-120202500D01*
X195388000Y-131300800D02*
X195022400Y-130935200D01*
X180383000Y-113494300D02*
X179940800Y-113936500D01*
%TO.N,-15V*%
X196363600Y-83355600D02*
X195826800Y-82818800D01*
X195797600Y-119597700D02*
X195797600Y-115115600D01*
X195797600Y-111374600D02*
X196363600Y-110808600D01*
X193172800Y-143042700D02*
X197061100Y-139154400D01*
X195885800Y-77473600D02*
X194211800Y-75799600D01*
X197061100Y-130935000D02*
X195420400Y-129294300D01*
X197061100Y-139154400D02*
X197061100Y-130935000D01*
X193035000Y-146685000D02*
X193035000Y-144145000D01*
X195420400Y-129294300D02*
X195420400Y-119974900D01*
X195797600Y-115115600D02*
X195807800Y-115105400D01*
X196363600Y-110808600D02*
X196363600Y-83355600D01*
X195797600Y-114554800D02*
X195797600Y-111374600D01*
X195807800Y-114565000D02*
X195797600Y-114554800D01*
X195420400Y-119974900D02*
X195797600Y-119597700D01*
X196850000Y-119597700D02*
X195797600Y-119597700D01*
X195885800Y-79813200D02*
X195885800Y-77473600D01*
X195807800Y-115105400D02*
X195807800Y-114565000D01*
X193035000Y-143042700D02*
X193172800Y-143042700D01*
X195826800Y-79872200D02*
X195885800Y-79813200D01*
X196850000Y-120650000D02*
X196850000Y-119597700D01*
X195826800Y-82818800D02*
X195826800Y-79872200D01*
X193035000Y-144145000D02*
X193035000Y-143042700D01*
%TO.N,+15V*%
X194865000Y-44357800D02*
X193733900Y-44357800D01*
X182875000Y-144145000D02*
X182875000Y-146685000D01*
X190288200Y-118671000D02*
X190288200Y-112383000D01*
X182875000Y-144145000D02*
X182875000Y-143042700D01*
X183946200Y-62554400D02*
X185410800Y-64019000D01*
X183161300Y-76311300D02*
X184265800Y-77415800D01*
X196905000Y-80986000D02*
X196905000Y-77502100D01*
X195787600Y-76384700D02*
X195787600Y-48524700D01*
X196346300Y-47966000D02*
X196905000Y-47966000D01*
X193733900Y-44357800D02*
X189139300Y-48952400D01*
X186944000Y-130810000D02*
X186944000Y-131862300D01*
X189230000Y-119597700D02*
X189361500Y-119597700D01*
X189139300Y-51590100D02*
X183946200Y-56783200D01*
X189295500Y-80482000D02*
X190357400Y-79420100D01*
X183161300Y-70962800D02*
X183161300Y-76311300D01*
X196346300Y-47966000D02*
X196346300Y-45839100D01*
X189295500Y-111390300D02*
X189295500Y-80482000D01*
X195787600Y-48524700D02*
X196346300Y-47966000D01*
X196905000Y-77502100D02*
X195787600Y-76384700D01*
X185410800Y-68713300D02*
X183161300Y-70962800D01*
X189139300Y-48952400D02*
X189139300Y-51590100D01*
X196346300Y-45839100D02*
X194865000Y-44357800D01*
X190288200Y-112383000D02*
X189295500Y-111390300D01*
X185410800Y-64019000D02*
X185410800Y-68713300D01*
X182875000Y-143042700D02*
X182966600Y-143042700D01*
X186944000Y-139065300D02*
X186944000Y-131862300D01*
X182966600Y-143042700D02*
X186944000Y-139065300D01*
X189361500Y-119597700D02*
X190288200Y-118671000D01*
X184265800Y-78330200D02*
X181610000Y-80986000D01*
X183946200Y-56783200D02*
X183946200Y-62554400D01*
X189230000Y-120650000D02*
X189230000Y-119597700D01*
X184265800Y-77415800D02*
X184265800Y-78330200D01*
%TO.N,Net-(J12-PadR)*%
X191192400Y-85443600D02*
X191192400Y-104367800D01*
X191192400Y-104367800D02*
X191656300Y-104831700D01*
X193040000Y-83596000D02*
X191192400Y-85443600D01*
%TO.N,Net-(J14-PadR)*%
X196403200Y-131393500D02*
X195019400Y-130009700D01*
X195019400Y-130009700D02*
X195019400Y-116055400D01*
X196403200Y-131858600D02*
X196403200Y-131393500D01*
X195019400Y-116055400D02*
X193040000Y-114076000D01*
%TO.N,Net-(R3-Pad1)*%
X192233000Y-79817500D02*
X193132400Y-80716900D01*
X192233000Y-72075400D02*
X192233000Y-79817500D01*
%TO.N,Net-(U4A-+)*%
X190665600Y-112009900D02*
X189947900Y-111292200D01*
X189947900Y-111292200D02*
X189947900Y-85358200D01*
X189361500Y-122137700D02*
X190665600Y-120833600D01*
X189230000Y-122137700D02*
X189361500Y-122137700D01*
X189230000Y-123190000D02*
X189230000Y-122137700D01*
X190665600Y-120833600D02*
X190665600Y-112009900D01*
%TO.N,Net-(SW1-C)*%
X195609000Y-102258200D02*
X195317100Y-102550100D01*
X194594900Y-80294000D02*
X194594900Y-84483000D01*
X195609000Y-85497100D02*
X195609000Y-102258200D01*
X194594900Y-84483000D02*
X195609000Y-85497100D01*
%TO.N,Net-(U2-VLFI)*%
X185891600Y-104757100D02*
X186177000Y-104471700D01*
X192546900Y-89121000D02*
X194934000Y-86733900D01*
X185891600Y-121192400D02*
X185891600Y-104757100D01*
X186836900Y-122137700D02*
X185891600Y-121192400D01*
X188200300Y-102448400D02*
X188200300Y-92456000D01*
X186944000Y-122137700D02*
X186836900Y-122137700D01*
X186177000Y-104471700D02*
X188200300Y-102448400D01*
X194934000Y-86733900D02*
X194934000Y-86288000D01*
X186944000Y-123190000D02*
X186944000Y-122137700D01*
%TO.N,Net-(U2-VFCI)*%
X186944000Y-128270000D02*
X186944000Y-128469100D01*
X186944000Y-128796100D02*
X186944000Y-128469100D01*
X186944000Y-129322300D02*
X186812500Y-129322300D01*
X185473900Y-93076700D02*
X185782300Y-92768300D01*
X185473900Y-126999000D02*
X185473900Y-93076700D01*
X186944000Y-128469100D02*
X185473900Y-126999000D01*
X185812800Y-130322000D02*
X185812800Y-134898300D01*
X186944000Y-128796100D02*
X186944000Y-129322300D01*
X186812500Y-129322300D02*
X185812800Y-130322000D01*
%TO.N,Net-(SW1-A)*%
X187559200Y-85630700D02*
X186774800Y-86415100D01*
X187559200Y-83065700D02*
X187559200Y-85630700D01*
X186774800Y-97959400D02*
X186149200Y-98585000D01*
X186774800Y-86415100D02*
X186774800Y-97959400D01*
%TO.N,Net-(SW1-B)*%
X182880000Y-114076000D02*
X182880000Y-112905800D01*
X180897000Y-90654700D02*
X186047300Y-85504400D01*
X184352600Y-74098000D02*
X184352600Y-72023900D01*
X182880000Y-112905800D02*
X180897000Y-110922800D01*
X180897000Y-110922800D02*
X180897000Y-90654700D01*
X186047300Y-75792700D02*
X184352600Y-74098000D01*
X184352600Y-72023900D02*
X187548600Y-68827900D01*
X187548600Y-68827900D02*
X187548600Y-68520100D01*
X186047300Y-85504400D02*
X186047300Y-75792700D01*
%TO.N,Net-(J5-PadR)*%
X188005000Y-81697500D02*
X186906900Y-82795600D01*
X188005000Y-73040000D02*
X188005000Y-81697500D01*
X186906900Y-82795600D02*
X186906900Y-85749400D01*
X185096500Y-87559800D02*
X185096500Y-127099500D01*
X186906900Y-85749400D02*
X185096500Y-87559800D01*
X185096500Y-127099500D02*
X182880000Y-129316000D01*
%TO.N,Net-(U2-VEE)*%
X187491300Y-57254300D02*
X188476200Y-57254300D01*
X188476200Y-57254300D02*
X189313100Y-58091200D01*
X180519600Y-88702300D02*
X185670000Y-83551900D01*
X185670000Y-75949100D02*
X183937100Y-74216200D01*
X181454400Y-118822400D02*
X181297000Y-118665000D01*
X183937100Y-74216200D02*
X183937100Y-71684600D01*
X189313100Y-58091200D02*
X189313100Y-63232600D01*
X179455700Y-124677700D02*
X180417400Y-123716000D01*
X180519600Y-111374600D02*
X180519600Y-88702300D01*
X180417400Y-123716000D02*
X180417400Y-120502800D01*
X186652400Y-68969300D02*
X186652400Y-58093200D01*
X179324000Y-124677700D02*
X179455700Y-124677700D01*
X181297000Y-118665000D02*
X181297000Y-112152000D01*
X181454400Y-119465800D02*
X181454400Y-118822400D01*
X179324000Y-125203800D02*
X179324000Y-124677700D01*
X181297000Y-112152000D02*
X180519600Y-111374600D01*
X185670000Y-83551900D02*
X185670000Y-75949100D01*
X186652400Y-58093200D02*
X187491300Y-57254300D01*
X180417400Y-120502800D02*
X181454400Y-119465800D01*
X183937100Y-71684600D02*
X186652400Y-68969300D01*
X179324000Y-125203800D02*
X179324000Y-125730000D01*
X189313100Y-63232600D02*
X189425200Y-63344700D01*
%TO.N,Net-(NOT+THINKY_CV1-Pad1)*%
X191042900Y-111853600D02*
X191042900Y-123049300D01*
X189377200Y-147127800D02*
X190414100Y-148164700D01*
X190433600Y-124313800D02*
X190491200Y-124371400D01*
X190634200Y-71447900D02*
X191691300Y-72505000D01*
X191691300Y-81265500D02*
X190771400Y-82185400D01*
X190491200Y-141387400D02*
X189377200Y-142501400D01*
X190491200Y-124371400D02*
X190491200Y-141387400D01*
X190433600Y-123658600D02*
X190433600Y-124313800D01*
X194405000Y-45466000D02*
X194545500Y-45606500D01*
X191042900Y-123049300D02*
X190433600Y-123658600D01*
X190771400Y-82185400D02*
X190771400Y-111582100D01*
X190634200Y-60471000D02*
X190634200Y-71447900D01*
X196730100Y-145642100D02*
X196730100Y-141296600D01*
X189377200Y-142501400D02*
X189377200Y-147127800D01*
X191691300Y-72505000D02*
X191691300Y-81265500D01*
X190414100Y-148164700D02*
X194207500Y-148164700D01*
X190771400Y-111582100D02*
X191042900Y-111853600D01*
X191154400Y-59950800D02*
X190634200Y-60471000D01*
X194545500Y-45606500D02*
X194545500Y-54354300D01*
X194207500Y-148164700D02*
X196730100Y-145642100D01*
%TO.N,Net-(NOT_THINKY_TEMKO1-Pad1)*%
X187429900Y-87205800D02*
X187429900Y-100182200D01*
X185788200Y-68895900D02*
X183538700Y-71145400D01*
X184347600Y-57414600D02*
X184347600Y-60918300D01*
X181325100Y-130867100D02*
X181783600Y-131325600D01*
X184932800Y-56829400D02*
X184347600Y-57414600D01*
X183538700Y-74351500D02*
X185017700Y-75830500D01*
X185017700Y-75830500D02*
X185017700Y-82811000D01*
X181325100Y-128243600D02*
X181325100Y-130867100D01*
X183937200Y-117752100D02*
X184719100Y-118534000D01*
X183478800Y-127301400D02*
X182267300Y-127301400D01*
X184719100Y-118534000D02*
X184719100Y-126061100D01*
X181783600Y-132593100D02*
X179655900Y-134720800D01*
X187429900Y-100182200D02*
X186199300Y-101412800D01*
X184347600Y-60918300D02*
X185788200Y-62358900D01*
X191717800Y-56829400D02*
X184932800Y-56829400D01*
X185788200Y-62358900D02*
X185788200Y-68895900D01*
X184719100Y-126061100D02*
X183478800Y-127301400D01*
X182267300Y-127301400D02*
X181325100Y-128243600D01*
X181783600Y-131325600D02*
X181783600Y-132593100D01*
X183538700Y-71145400D02*
X183538700Y-74351500D01*
X192616200Y-57727800D02*
X191717800Y-56829400D01*
%TO.N,Net-(NOT_THINK_SineLevelTrim1-Pad1)*%
X192889600Y-76970600D02*
X192889600Y-74336100D01*
X194405000Y-78486000D02*
X192889600Y-76970600D01*
%TO.N,Net-(U4C--)*%
X196850000Y-115570000D02*
X196850000Y-113030000D01*
%TO.N,Net-(U4D--)*%
X196850000Y-128270000D02*
X196850000Y-125730000D01*
%TO.N,Net-(U4A--)*%
X191420300Y-123594300D02*
X191420300Y-111537200D01*
X189230000Y-128270000D02*
X189230000Y-125730000D01*
X191088800Y-123925800D02*
X191420300Y-123594300D01*
X191205400Y-111322300D02*
X191205400Y-106350500D01*
X191420300Y-111537200D02*
X191205400Y-111322300D01*
X192308600Y-105247300D02*
X192308600Y-103493000D01*
X191205400Y-106350500D02*
X192308600Y-105247300D01*
%TO.N,Net-(U2-VHFT)*%
X180547500Y-43829500D02*
X181665000Y-42712000D01*
X179324000Y-114517700D02*
X179192500Y-114517700D01*
X178240800Y-113566000D02*
X178240800Y-82080100D01*
X178240800Y-82080100D02*
X180547500Y-79773400D01*
X180547500Y-79773400D02*
X180547500Y-43829500D01*
X179324000Y-115570000D02*
X179324000Y-114517700D01*
X179192500Y-114517700D02*
X178240800Y-113566000D01*
%TO.N,Net-(NOT_THONKY_HF_TRACK1-Pad2)*%
X195449400Y-79135300D02*
X195508400Y-79076300D01*
X193391800Y-73915800D02*
X193391800Y-69478400D01*
X193391800Y-69478400D02*
X194179700Y-68690500D01*
X195986300Y-102803300D02*
X195986300Y-83512000D01*
X193268500Y-60864300D02*
X193268500Y-57457700D01*
X190644700Y-54833900D02*
X190644700Y-48432800D01*
X195155500Y-103634100D02*
X195986300Y-102803300D01*
X194179700Y-61775500D02*
X193268500Y-60864300D01*
X193268500Y-57457700D02*
X190644700Y-54833900D01*
X190644700Y-48432800D02*
X190820600Y-48256900D01*
X195508400Y-78018900D02*
X193541900Y-76052400D01*
X193541900Y-76052400D02*
X193541900Y-74065900D01*
X194179700Y-68690500D02*
X194179700Y-61775500D01*
X193541900Y-74065900D02*
X193391800Y-73915800D01*
X195986300Y-83512000D02*
X195449400Y-82975100D01*
X195508400Y-79076300D02*
X195508400Y-78018900D01*
X195449400Y-82975100D02*
X195449400Y-79135300D01*
X195155500Y-114835200D02*
X195155500Y-103634100D01*
%TO.N,Net-(NOT_THONKY_SineShapeTrim1-Pad1)*%
X189303000Y-78468700D02*
X189303000Y-66122900D01*
X189230000Y-113030000D02*
X189230000Y-111977700D01*
X188898200Y-111645900D02*
X188898200Y-78873500D01*
X189230000Y-111977700D02*
X188898200Y-111645900D01*
X188898200Y-78873500D02*
X189303000Y-78468700D01*
%TO.N,Net-(NOT_THONKY_SineShapeTrim1-Pad2)*%
X179110000Y-58928000D02*
X179110000Y-67474600D01*
%TO.N,Net-(R5-Pad1)*%
X188242600Y-59960400D02*
X188242600Y-68789700D01*
X188242600Y-68789700D02*
X185505000Y-71527300D01*
X185505000Y-71527300D02*
X185505000Y-73040000D01*
%TO.N,Net-(R19-Pad1)*%
X184697000Y-115406400D02*
X184697000Y-87425700D01*
X184697000Y-87425700D02*
X186529600Y-85593100D01*
X183209400Y-116894000D02*
X184697000Y-115406400D01*
X186529600Y-82639300D02*
X186830100Y-82338800D01*
X188647300Y-69418600D02*
X188647300Y-60478200D01*
X188894900Y-60230600D02*
X188894900Y-59314900D01*
X186529600Y-85593100D02*
X186529600Y-82639300D01*
X181077700Y-131542300D02*
X180889000Y-131353600D01*
X180889000Y-120736000D02*
X183209400Y-118415600D01*
X180889000Y-131353600D02*
X180889000Y-120736000D01*
X186830100Y-82338800D02*
X186830100Y-71235800D01*
X188894900Y-59314900D02*
X188000000Y-58420000D01*
X188647300Y-60478200D02*
X188894900Y-60230600D01*
X183209400Y-118415600D02*
X183209400Y-116894000D01*
X186830100Y-71235800D02*
X188647300Y-69418600D01*
%TO.N,Net-(R20-Pad1)*%
X181849800Y-64380800D02*
X181849800Y-67699000D01*
X183568900Y-56509200D02*
X183568900Y-62661700D01*
X188000000Y-52078100D02*
X183568900Y-56509200D01*
X182784000Y-76970400D02*
X183613400Y-77799800D01*
X181849800Y-67699000D02*
X182784000Y-68633200D01*
X183568900Y-62661700D02*
X181849800Y-64380800D01*
X182784000Y-68633200D02*
X182784000Y-76970400D01*
X188000000Y-43775000D02*
X188000000Y-52078100D01*
%TO.N,Net-(U2-VSO)*%
X194382300Y-142666400D02*
X197470800Y-139577900D01*
X194618400Y-120383000D02*
X194618400Y-123413000D01*
X191697700Y-147419700D02*
X192065400Y-147787400D01*
X194618400Y-123413000D02*
X194010800Y-124020600D01*
X195797700Y-129105800D02*
X195797700Y-125174800D01*
X196850000Y-123190000D02*
X196850000Y-124242300D01*
X195797700Y-125174800D02*
X196730200Y-124242300D01*
X194382300Y-147456300D02*
X194382300Y-142666400D01*
X180802100Y-114452300D02*
X180802100Y-119195600D01*
X192065400Y-147787400D02*
X194051200Y-147787400D01*
X192926400Y-118691000D02*
X194618400Y-120383000D01*
X197470800Y-130778900D02*
X195797700Y-129105800D01*
X197470800Y-139577900D02*
X197470800Y-130778900D01*
X180644700Y-114294900D02*
X180802100Y-114452300D01*
X191048900Y-141935200D02*
X191697700Y-142584000D01*
X192104200Y-124020600D02*
X191048900Y-125075900D01*
X194010800Y-124020600D02*
X192104200Y-124020600D01*
X196730200Y-124242300D02*
X196850000Y-124242300D01*
X194051200Y-147787400D02*
X194382300Y-147456300D01*
X191048900Y-125075900D02*
X191048900Y-141935200D01*
X191697700Y-142584000D02*
X191697700Y-147419700D01*
%TD*%
%TA.AperFunction,Conductor*%
%TO.N,GND*%
G36*
X185378783Y-127815633D02*
G01*
X185423130Y-127844134D01*
X185607192Y-128028196D01*
X185640677Y-128089519D01*
X185643039Y-128126684D01*
X185630501Y-128269999D01*
X185650456Y-128498084D01*
X185709717Y-128719246D01*
X185806474Y-128926744D01*
X185806476Y-128926746D01*
X185806477Y-128926749D01*
X185937802Y-129114300D01*
X185943516Y-129120014D01*
X185977001Y-129181332D01*
X185972019Y-129251024D01*
X185943517Y-129295376D01*
X185423980Y-129814913D01*
X185407696Y-129827961D01*
X185359139Y-129879668D01*
X185356434Y-129882460D01*
X185336665Y-129902230D01*
X185334287Y-129905293D01*
X185334270Y-129905314D01*
X185334111Y-129905521D01*
X185326553Y-129914368D01*
X185296214Y-129946677D01*
X185286382Y-129964563D01*
X185275701Y-129980823D01*
X185263185Y-129996959D01*
X185245586Y-130037628D01*
X185240448Y-130048117D01*
X185219103Y-130086943D01*
X185214026Y-130106718D01*
X185207726Y-130125119D01*
X185207025Y-130126740D01*
X185199618Y-130143856D01*
X185192688Y-130187610D01*
X185190320Y-130199046D01*
X185179300Y-130241969D01*
X185179300Y-130262384D01*
X185177772Y-130281783D01*
X185174580Y-130301943D01*
X185177775Y-130335739D01*
X185178750Y-130346057D01*
X185179300Y-130357726D01*
X185179300Y-134196542D01*
X185159615Y-134263581D01*
X185147450Y-134279514D01*
X185073759Y-134361355D01*
X184978272Y-134526743D01*
X184919258Y-134708370D01*
X184899296Y-134898300D01*
X184919258Y-135088229D01*
X184978272Y-135269856D01*
X185073757Y-135435241D01*
X185073760Y-135435244D01*
X185201547Y-135577166D01*
X185356048Y-135689418D01*
X185530514Y-135767095D01*
X185717311Y-135806800D01*
X185717313Y-135806800D01*
X185908289Y-135806800D01*
X186095085Y-135767095D01*
X186095086Y-135767094D01*
X186095088Y-135767094D01*
X186136064Y-135748850D01*
X186205315Y-135739566D01*
X186268591Y-135769194D01*
X186305804Y-135828329D01*
X186310500Y-135862130D01*
X186310500Y-138751532D01*
X186290815Y-138818571D01*
X186274181Y-138839213D01*
X182691329Y-142422064D01*
X182641969Y-142452313D01*
X182603124Y-142464935D01*
X182596002Y-142469455D01*
X182575221Y-142480043D01*
X182567385Y-142483145D01*
X182521905Y-142516188D01*
X182515467Y-142520563D01*
X182467980Y-142550700D01*
X182462205Y-142556850D01*
X182444710Y-142572274D01*
X182437893Y-142577227D01*
X182402051Y-142620551D01*
X182396903Y-142626390D01*
X182358413Y-142667379D01*
X182354354Y-142674763D01*
X182341241Y-142694058D01*
X182335867Y-142700553D01*
X182311925Y-142751431D01*
X182308392Y-142758365D01*
X182281303Y-142807642D01*
X182279206Y-142815809D01*
X182271307Y-142837749D01*
X182267716Y-142845380D01*
X182260962Y-142880786D01*
X182229064Y-142942949D01*
X182198177Y-142966603D01*
X182129426Y-143003809D01*
X181951760Y-143142094D01*
X181799279Y-143307730D01*
X181676138Y-143496211D01*
X181585705Y-143702381D01*
X181585704Y-143702384D01*
X181530436Y-143920632D01*
X181530435Y-143920636D01*
X181511843Y-144144999D01*
X181530435Y-144369363D01*
X181530435Y-144369366D01*
X181530436Y-144369368D01*
X181538144Y-144399807D01*
X181585705Y-144587618D01*
X181676138Y-144793788D01*
X181676140Y-144793791D01*
X181799278Y-144982268D01*
X181951760Y-145147906D01*
X182129424Y-145286189D01*
X182165929Y-145305944D01*
X182215520Y-145355162D01*
X182230630Y-145423379D01*
X182206459Y-145488935D01*
X182165933Y-145524052D01*
X182129427Y-145543809D01*
X181951760Y-145682094D01*
X181799279Y-145847730D01*
X181676138Y-146036211D01*
X181585705Y-146242381D01*
X181530435Y-146460636D01*
X181511843Y-146685000D01*
X181530435Y-146909363D01*
X181530435Y-146909366D01*
X181530436Y-146909368D01*
X181570533Y-147067709D01*
X181585705Y-147127618D01*
X181676138Y-147333788D01*
X181676140Y-147333791D01*
X181799278Y-147522268D01*
X181951760Y-147687906D01*
X182129424Y-147826189D01*
X182327426Y-147933342D01*
X182540365Y-148006444D01*
X182762431Y-148043500D01*
X182987569Y-148043500D01*
X183209635Y-148006444D01*
X183422574Y-147933342D01*
X183620576Y-147826189D01*
X183798240Y-147687906D01*
X183950722Y-147522268D01*
X184073860Y-147333791D01*
X184164296Y-147127616D01*
X184219564Y-146909368D01*
X184238156Y-146685000D01*
X184219564Y-146460632D01*
X184164296Y-146242384D01*
X184073860Y-146036209D01*
X183950722Y-145847732D01*
X183798240Y-145682094D01*
X183620576Y-145543811D01*
X183620575Y-145543810D01*
X183584067Y-145524053D01*
X183534477Y-145474833D01*
X183519370Y-145406616D01*
X183543541Y-145341061D01*
X183584066Y-145305946D01*
X183620576Y-145286189D01*
X183798240Y-145147906D01*
X183950722Y-144982268D01*
X184073860Y-144793791D01*
X184164296Y-144587616D01*
X184219564Y-144369368D01*
X184238156Y-144145000D01*
X184219564Y-143920632D01*
X184164296Y-143702384D01*
X184087616Y-143527571D01*
X184073861Y-143496211D01*
X184071889Y-143493193D01*
X183950722Y-143307732D01*
X183950721Y-143307731D01*
X183950718Y-143307726D01*
X183861983Y-143211335D01*
X183831060Y-143148681D01*
X183838920Y-143079255D01*
X183865528Y-143039674D01*
X186544228Y-140360975D01*
X186605549Y-140327492D01*
X186675241Y-140332476D01*
X186730861Y-140373931D01*
X186788299Y-140449992D01*
X186940115Y-140588390D01*
X186940117Y-140588391D01*
X186940118Y-140588392D01*
X187114782Y-140696540D01*
X187306345Y-140770751D01*
X187508282Y-140808500D01*
X187508284Y-140808500D01*
X187713716Y-140808500D01*
X187713718Y-140808500D01*
X187915655Y-140770751D01*
X188107218Y-140696540D01*
X188281882Y-140588392D01*
X188433701Y-140449991D01*
X188557503Y-140286050D01*
X188649074Y-140102152D01*
X188658251Y-140069900D01*
X188670207Y-140027874D01*
X188705294Y-139904559D01*
X188724249Y-139700000D01*
X188705294Y-139495441D01*
X188653356Y-139312901D01*
X188649175Y-139290639D01*
X188647550Y-139273436D01*
X188647000Y-139261775D01*
X188647000Y-129702500D01*
X188666685Y-129635461D01*
X188719489Y-129589706D01*
X188771000Y-129578500D01*
X189733700Y-129578500D01*
X189800739Y-129598185D01*
X189846494Y-129650989D01*
X189857700Y-129702500D01*
X189857700Y-141073632D01*
X189838015Y-141140671D01*
X189821381Y-141161313D01*
X188988380Y-141994313D01*
X188972095Y-142007361D01*
X188923538Y-142059069D01*
X188920833Y-142061861D01*
X188901065Y-142081630D01*
X188898687Y-142084693D01*
X188898670Y-142084714D01*
X188898511Y-142084921D01*
X188890953Y-142093768D01*
X188860614Y-142126077D01*
X188850782Y-142143963D01*
X188840101Y-142160223D01*
X188827585Y-142176359D01*
X188809986Y-142217028D01*
X188804848Y-142227517D01*
X188783503Y-142266343D01*
X188778426Y-142286118D01*
X188772125Y-142304523D01*
X188764018Y-142323256D01*
X188757088Y-142367010D01*
X188754720Y-142378446D01*
X188743700Y-142421369D01*
X188743700Y-142441784D01*
X188742173Y-142461183D01*
X188739869Y-142475732D01*
X188738980Y-142481343D01*
X188739151Y-142483148D01*
X188743150Y-142525457D01*
X188743700Y-142537126D01*
X188743700Y-147044167D01*
X188741410Y-147064908D01*
X188743639Y-147135816D01*
X188743700Y-147139712D01*
X188743700Y-147167656D01*
X188744187Y-147171516D01*
X188744188Y-147171522D01*
X188744219Y-147171765D01*
X188745134Y-147183396D01*
X188746526Y-147227688D01*
X188752222Y-147247292D01*
X188756167Y-147266344D01*
X188758725Y-147286598D01*
X188775038Y-147327801D01*
X188778821Y-147338849D01*
X188791182Y-147381393D01*
X188801574Y-147398966D01*
X188810131Y-147416433D01*
X188817648Y-147435418D01*
X188843691Y-147471263D01*
X188850105Y-147481027D01*
X188872658Y-147519162D01*
X188887090Y-147533594D01*
X188899726Y-147548389D01*
X188911726Y-147564905D01*
X188945867Y-147593149D01*
X188954508Y-147601012D01*
X189731315Y-148377819D01*
X189764800Y-148439142D01*
X189759816Y-148508834D01*
X189717944Y-148564767D01*
X189652480Y-148589184D01*
X189643634Y-148589500D01*
X177924500Y-148589500D01*
X177857461Y-148569815D01*
X177811706Y-148517011D01*
X177800500Y-148465500D01*
X177800500Y-144899543D01*
X177820185Y-144832504D01*
X177872989Y-144786749D01*
X177942147Y-144776805D01*
X178005703Y-144805830D01*
X178026070Y-144828414D01*
X178063802Y-144882300D01*
X178225700Y-145044198D01*
X178413251Y-145175523D01*
X178620757Y-145272284D01*
X178841913Y-145331543D01*
X178993970Y-145344846D01*
X179069999Y-145351498D01*
X179069999Y-145351497D01*
X179070000Y-145351498D01*
X179298087Y-145331543D01*
X179302057Y-145330479D01*
X179308504Y-145330632D01*
X179308895Y-145330598D01*
X179308898Y-145330641D01*
X179371907Y-145332138D01*
X179429772Y-145371298D01*
X179457279Y-145435525D01*
X179452088Y-145488570D01*
X179419758Y-145588070D01*
X179399796Y-145778000D01*
X179419758Y-145967929D01*
X179478772Y-146149556D01*
X179574257Y-146314941D01*
X179574260Y-146314944D01*
X179702047Y-146456866D01*
X179856547Y-146569117D01*
X179856548Y-146569118D01*
X180031014Y-146646795D01*
X180217811Y-146686500D01*
X180217813Y-146686500D01*
X180408789Y-146686500D01*
X180595585Y-146646795D01*
X180595586Y-146646794D01*
X180595588Y-146646794D01*
X180770052Y-146569118D01*
X180924553Y-146456866D01*
X181052340Y-146314944D01*
X181094235Y-146242381D01*
X181147827Y-146149556D01*
X181168987Y-146084433D01*
X181206842Y-145967928D01*
X181226804Y-145778000D01*
X181206842Y-145588072D01*
X181147827Y-145406444D01*
X181147827Y-145406443D01*
X181052340Y-145241056D01*
X180968467Y-145147906D01*
X180936935Y-145112886D01*
X180910010Y-145064511D01*
X180899318Y-145027707D01*
X180888922Y-145010129D01*
X180880369Y-144992671D01*
X180872852Y-144973683D01*
X180846803Y-144937830D01*
X180840399Y-144928080D01*
X180817842Y-144889938D01*
X180803407Y-144875503D01*
X180790769Y-144860706D01*
X180778772Y-144844193D01*
X180744624Y-144815943D01*
X180735985Y-144808081D01*
X180378335Y-144450430D01*
X180344850Y-144389107D01*
X180346242Y-144330654D01*
X180363543Y-144266087D01*
X180383498Y-144037999D01*
X180363543Y-143809915D01*
X180363543Y-143809913D01*
X180304284Y-143588757D01*
X180207523Y-143381251D01*
X180076198Y-143193700D01*
X179914300Y-143031802D01*
X179726749Y-142900477D01*
X179726746Y-142900476D01*
X179726744Y-142900474D01*
X179519246Y-142803717D01*
X179519243Y-142803716D01*
X179408664Y-142774086D01*
X179298084Y-142744456D01*
X179069999Y-142724501D01*
X179039906Y-142727134D01*
X178971407Y-142713367D01*
X178921224Y-142664751D01*
X178905100Y-142603606D01*
X178905100Y-138337502D01*
X181071500Y-138337502D01*
X181071647Y-138339624D01*
X181071648Y-138339644D01*
X181077693Y-138426739D01*
X181126849Y-138635737D01*
X181133034Y-138649744D01*
X181213573Y-138832146D01*
X181334908Y-139009275D01*
X181486725Y-139161092D01*
X181663854Y-139282427D01*
X181860261Y-139369150D01*
X182069260Y-139418306D01*
X182158498Y-139424500D01*
X182160638Y-139424500D01*
X183599362Y-139424500D01*
X183601502Y-139424500D01*
X183690740Y-139418306D01*
X183899739Y-139369150D01*
X184096146Y-139282427D01*
X184273275Y-139161092D01*
X184425092Y-139009275D01*
X184546427Y-138832146D01*
X184633150Y-138635739D01*
X184682306Y-138426740D01*
X184688500Y-138337502D01*
X184688500Y-136894498D01*
X184682306Y-136805260D01*
X184633150Y-136596261D01*
X184546427Y-136399854D01*
X184425092Y-136222725D01*
X184273275Y-136070908D01*
X184096146Y-135949573D01*
X183899739Y-135862850D01*
X183899737Y-135862849D01*
X183690739Y-135813693D01*
X183603644Y-135807648D01*
X183603624Y-135807647D01*
X183601502Y-135807500D01*
X182158498Y-135807500D01*
X182156376Y-135807647D01*
X182156355Y-135807648D01*
X182069260Y-135813693D01*
X181860262Y-135862849D01*
X181663853Y-135949573D01*
X181486724Y-136070908D01*
X181334908Y-136222724D01*
X181213573Y-136399853D01*
X181126849Y-136596262D01*
X181077693Y-136805260D01*
X181071648Y-136892355D01*
X181071647Y-136892376D01*
X181071500Y-136894498D01*
X181071500Y-138337502D01*
X178905100Y-138337502D01*
X178905100Y-135541642D01*
X178924785Y-135474603D01*
X178977589Y-135428848D01*
X179046747Y-135418904D01*
X179101983Y-135441323D01*
X179147789Y-135474603D01*
X179199147Y-135511918D01*
X179373614Y-135589595D01*
X179560411Y-135629300D01*
X179560413Y-135629300D01*
X179751389Y-135629300D01*
X179938185Y-135589595D01*
X179938186Y-135589594D01*
X179938188Y-135589594D01*
X180112652Y-135511918D01*
X180267153Y-135399666D01*
X180394940Y-135257744D01*
X180490427Y-135092356D01*
X180549442Y-134910728D01*
X180566881Y-134744798D01*
X180593466Y-134680186D01*
X180602512Y-134670090D01*
X182172416Y-133100186D01*
X182188697Y-133087144D01*
X182190614Y-133085102D01*
X182190618Y-133085100D01*
X182237306Y-133035379D01*
X182239924Y-133032678D01*
X182259734Y-133012870D01*
X182262264Y-133009608D01*
X182269843Y-133000732D01*
X182300186Y-132968421D01*
X182310022Y-132950527D01*
X182320702Y-132934268D01*
X182333213Y-132918141D01*
X182350811Y-132877472D01*
X182355941Y-132867000D01*
X182377295Y-132828160D01*
X182382372Y-132808382D01*
X182388672Y-132789982D01*
X182396781Y-132771245D01*
X182403712Y-132727476D01*
X182406078Y-132716053D01*
X182417100Y-132673130D01*
X182417100Y-132652714D01*
X182418627Y-132633314D01*
X182421820Y-132613157D01*
X182417650Y-132569042D01*
X182417100Y-132557373D01*
X182417100Y-131409232D01*
X182419389Y-131388487D01*
X182419301Y-131385694D01*
X182419302Y-131385691D01*
X182417161Y-131317568D01*
X182417100Y-131313673D01*
X182417100Y-131289643D01*
X182417100Y-131289642D01*
X182417100Y-131285744D01*
X182416583Y-131281658D01*
X182415665Y-131269999D01*
X182415112Y-131252393D01*
X182432682Y-131184768D01*
X182484024Y-131137378D01*
X182539051Y-131124500D01*
X183599362Y-131124500D01*
X183601502Y-131124500D01*
X183690740Y-131118306D01*
X183899739Y-131069150D01*
X184096146Y-130982427D01*
X184273275Y-130861092D01*
X184425092Y-130709275D01*
X184546427Y-130532146D01*
X184633150Y-130335739D01*
X184682306Y-130126740D01*
X184688500Y-130037502D01*
X184688500Y-128594498D01*
X184686880Y-128571164D01*
X184682307Y-128505263D01*
X184679904Y-128495049D01*
X184683714Y-128425284D01*
X184712924Y-128378978D01*
X185247768Y-127844133D01*
X185309091Y-127810649D01*
X185378783Y-127815633D01*
G37*
%TD.AperFunction*%
%TA.AperFunction,Conductor*%
G36*
X196380251Y-138494462D02*
G01*
X196420780Y-138551376D01*
X196427600Y-138591933D01*
X196427600Y-138840633D01*
X196407915Y-138907672D01*
X196391281Y-138928314D01*
X192926089Y-142393505D01*
X192884053Y-142421117D01*
X192823938Y-142444917D01*
X192816614Y-142447554D01*
X192763124Y-142464935D01*
X192756002Y-142469455D01*
X192735221Y-142480043D01*
X192727385Y-142483145D01*
X192681905Y-142516188D01*
X192675467Y-142520563D01*
X192627980Y-142550700D01*
X192622205Y-142556850D01*
X192604710Y-142572274D01*
X192597893Y-142577227D01*
X192562051Y-142620551D01*
X192556905Y-142626388D01*
X192545596Y-142638432D01*
X192485357Y-142673829D01*
X192415543Y-142671039D01*
X192358320Y-142630948D01*
X192331855Y-142566285D01*
X192331200Y-142553552D01*
X192331200Y-142548043D01*
X192331200Y-142548042D01*
X192331200Y-142544144D01*
X192330683Y-142540058D01*
X192329765Y-142528399D01*
X192329519Y-142520563D01*
X192328374Y-142484111D01*
X192322674Y-142464494D01*
X192318733Y-142445464D01*
X192316174Y-142425203D01*
X192299863Y-142384007D01*
X192296081Y-142372960D01*
X192286940Y-142341499D01*
X192283718Y-142330407D01*
X192273322Y-142312829D01*
X192264769Y-142295371D01*
X192257252Y-142276383D01*
X192231203Y-142240530D01*
X192224799Y-142230780D01*
X192202242Y-142192638D01*
X192187807Y-142178203D01*
X192175169Y-142163406D01*
X192172856Y-142160223D01*
X192163172Y-142146893D01*
X192129024Y-142118643D01*
X192120385Y-142110781D01*
X191718719Y-141709114D01*
X191685234Y-141647791D01*
X191682400Y-141621433D01*
X191682400Y-139410270D01*
X191702085Y-139343231D01*
X191754889Y-139297476D01*
X191824047Y-139287532D01*
X191856486Y-139296835D01*
X192020261Y-139369150D01*
X192229260Y-139418306D01*
X192318498Y-139424500D01*
X192320638Y-139424500D01*
X193759362Y-139424500D01*
X193761502Y-139424500D01*
X193850740Y-139418306D01*
X194059739Y-139369150D01*
X194256146Y-139282427D01*
X194433275Y-139161092D01*
X194585092Y-139009275D01*
X194676263Y-138876179D01*
X194730388Y-138831998D01*
X194799809Y-138824092D01*
X194851448Y-138845940D01*
X194931247Y-138903918D01*
X195105714Y-138981595D01*
X195292511Y-139021300D01*
X195292513Y-139021300D01*
X195483489Y-139021300D01*
X195670285Y-138981595D01*
X195670286Y-138981594D01*
X195670288Y-138981594D01*
X195844752Y-138903918D01*
X195999253Y-138791666D01*
X196127040Y-138649744D01*
X196196213Y-138529932D01*
X196246780Y-138481718D01*
X196315387Y-138468494D01*
X196380251Y-138494462D01*
G37*
%TD.AperFunction*%
%TA.AperFunction,Conductor*%
G36*
X190535516Y-142341499D02*
G01*
X190568288Y-142366032D01*
X190571358Y-142362322D01*
X190617567Y-142400549D01*
X190626208Y-142408412D01*
X191027881Y-142810085D01*
X191061366Y-142871408D01*
X191064200Y-142897766D01*
X191064200Y-147336067D01*
X191061910Y-147356808D01*
X191061998Y-147359608D01*
X191061998Y-147359609D01*
X191063235Y-147398966D01*
X191063372Y-147403303D01*
X191045804Y-147470928D01*
X190994463Y-147518320D01*
X190939433Y-147531200D01*
X190727866Y-147531200D01*
X190660827Y-147511515D01*
X190640185Y-147494881D01*
X190047019Y-146901714D01*
X190013534Y-146840391D01*
X190010700Y-146814033D01*
X190010700Y-142815165D01*
X190030385Y-142748126D01*
X190047015Y-142727488D01*
X190404504Y-142369998D01*
X190465825Y-142336515D01*
X190535516Y-142341499D01*
G37*
%TD.AperFunction*%
%TA.AperFunction,Conductor*%
G36*
X181696579Y-124056876D02*
G01*
X181801658Y-124103274D01*
X181860262Y-124129151D01*
X182069259Y-124178305D01*
X182069260Y-124178306D01*
X182158498Y-124184500D01*
X182160638Y-124184500D01*
X183599362Y-124184500D01*
X183601502Y-124184500D01*
X183690740Y-124178306D01*
X183783554Y-124156476D01*
X183899736Y-124129151D01*
X183899737Y-124129150D01*
X183899739Y-124129150D01*
X183911511Y-124123951D01*
X183980789Y-124114879D01*
X184043974Y-124144700D01*
X184081007Y-124203949D01*
X184085600Y-124237385D01*
X184085600Y-125747333D01*
X184065915Y-125814372D01*
X184049281Y-125835014D01*
X183252714Y-126631581D01*
X183191391Y-126665066D01*
X183165033Y-126667900D01*
X182350933Y-126667900D01*
X182330191Y-126665610D01*
X182327391Y-126665698D01*
X182259283Y-126667839D01*
X182255387Y-126667900D01*
X182227444Y-126667900D01*
X182223577Y-126668388D01*
X182223568Y-126668389D01*
X182223332Y-126668419D01*
X182211705Y-126669334D01*
X182167411Y-126670726D01*
X182147808Y-126676422D01*
X182128756Y-126680367D01*
X182108504Y-126682925D01*
X182067300Y-126699238D01*
X182056255Y-126703019D01*
X182013710Y-126715380D01*
X182013706Y-126715382D01*
X182013707Y-126715382D01*
X181996127Y-126725777D01*
X181978670Y-126734330D01*
X181959678Y-126741849D01*
X181923834Y-126767891D01*
X181914077Y-126774301D01*
X181875938Y-126796857D01*
X181861500Y-126811295D01*
X181846711Y-126823925D01*
X181830194Y-126835925D01*
X181801944Y-126870073D01*
X181794083Y-126878711D01*
X181734181Y-126938613D01*
X181672858Y-126972098D01*
X181603166Y-126967114D01*
X181547233Y-126925242D01*
X181522816Y-126859778D01*
X181522500Y-126850932D01*
X181522500Y-124170313D01*
X181542185Y-124103274D01*
X181594989Y-124057519D01*
X181664147Y-124047575D01*
X181696579Y-124056876D01*
G37*
%TD.AperFunction*%
%TA.AperFunction,Conductor*%
G36*
X194297168Y-124617589D02*
G01*
X194355840Y-124655528D01*
X194384687Y-124719165D01*
X194385900Y-124736468D01*
X194385900Y-127516564D01*
X194366215Y-127583603D01*
X194313411Y-127629358D01*
X194244253Y-127639302D01*
X194211813Y-127629998D01*
X194059737Y-127562849D01*
X193850739Y-127513693D01*
X193763644Y-127507648D01*
X193763624Y-127507647D01*
X193761502Y-127507500D01*
X192318498Y-127507500D01*
X192316376Y-127507647D01*
X192316355Y-127507648D01*
X192229260Y-127513693D01*
X192020262Y-127562849D01*
X191856487Y-127635164D01*
X191787209Y-127644236D01*
X191724024Y-127614413D01*
X191686992Y-127555164D01*
X191682400Y-127521730D01*
X191682400Y-125389666D01*
X191702085Y-125322627D01*
X191718719Y-125301985D01*
X192330285Y-124690419D01*
X192391608Y-124656934D01*
X192417966Y-124654100D01*
X193927167Y-124654100D01*
X193947908Y-124656389D01*
X193950705Y-124656301D01*
X193950709Y-124656302D01*
X194018817Y-124654160D01*
X194022713Y-124654100D01*
X194046758Y-124654100D01*
X194050656Y-124654100D01*
X194054524Y-124653611D01*
X194054747Y-124653583D01*
X194066408Y-124652664D01*
X194110689Y-124651273D01*
X194130298Y-124645575D01*
X194149331Y-124641633D01*
X194169597Y-124639074D01*
X194210806Y-124622757D01*
X194221823Y-124618985D01*
X194227303Y-124617393D01*
X194297168Y-124617589D01*
G37*
%TD.AperFunction*%
%TA.AperFunction,Conductor*%
G36*
X186708839Y-119755939D02*
G01*
X186708940Y-119755995D01*
X186708942Y-119755995D01*
X186722673Y-119763545D01*
X186721729Y-119765261D01*
X186759501Y-119786805D01*
X187343681Y-120370985D01*
X187377166Y-120432308D01*
X187380000Y-120458666D01*
X187380000Y-121444799D01*
X187360315Y-121511838D01*
X187307511Y-121557593D01*
X187238353Y-121567537D01*
X187196265Y-121553462D01*
X187179061Y-121544004D01*
X187170896Y-121541908D01*
X187148948Y-121534007D01*
X187131069Y-121525595D01*
X187096178Y-121501074D01*
X186561419Y-120966314D01*
X186527934Y-120904991D01*
X186525100Y-120878633D01*
X186525100Y-119864600D01*
X186544785Y-119797561D01*
X186597589Y-119751806D01*
X186666747Y-119741862D01*
X186708839Y-119755939D01*
G37*
%TD.AperFunction*%
%TA.AperFunction,Conductor*%
G36*
X194461944Y-108749317D02*
G01*
X194509232Y-108800753D01*
X194522000Y-108855558D01*
X194522000Y-112356441D01*
X194502315Y-112423480D01*
X194449511Y-112469235D01*
X194380353Y-112479179D01*
X194327924Y-112458741D01*
X194256146Y-112409573D01*
X194059737Y-112322849D01*
X193850739Y-112273693D01*
X193763644Y-112267648D01*
X193763624Y-112267647D01*
X193761502Y-112267500D01*
X192318498Y-112267500D01*
X192316376Y-112267647D01*
X192316355Y-112267648D01*
X192229263Y-112273693D01*
X192206188Y-112279120D01*
X192136423Y-112275306D01*
X192079794Y-112234379D01*
X192054282Y-112169334D01*
X192053800Y-112158413D01*
X192053800Y-111620827D01*
X192056089Y-111600094D01*
X192055330Y-111575958D01*
X192053861Y-111529199D01*
X192053800Y-111525304D01*
X192053800Y-111501235D01*
X192053800Y-111497344D01*
X192053282Y-111493243D01*
X192052364Y-111481587D01*
X192050973Y-111437310D01*
X192045278Y-111417711D01*
X192041333Y-111398662D01*
X192038774Y-111378403D01*
X192022463Y-111337207D01*
X192018680Y-111326158D01*
X192015639Y-111315690D01*
X192006318Y-111283606D01*
X191995922Y-111266028D01*
X191987367Y-111248566D01*
X191979852Y-111229583D01*
X191953812Y-111193742D01*
X191947398Y-111183978D01*
X191946020Y-111181649D01*
X191924842Y-111145837D01*
X191910406Y-111131402D01*
X191897770Y-111116607D01*
X191885772Y-111100093D01*
X191883858Y-111098510D01*
X191844752Y-111040610D01*
X191838900Y-111002967D01*
X191838900Y-108999372D01*
X191858585Y-108932333D01*
X191911389Y-108886578D01*
X191980547Y-108876634D01*
X192012986Y-108885938D01*
X192020261Y-108889150D01*
X192229260Y-108938306D01*
X192318498Y-108944500D01*
X192320638Y-108944500D01*
X193759362Y-108944500D01*
X193761502Y-108944500D01*
X193850740Y-108938306D01*
X194059739Y-108889150D01*
X194256146Y-108802427D01*
X194327926Y-108753257D01*
X194394355Y-108731612D01*
X194461944Y-108749317D01*
G37*
%TD.AperFunction*%
%TA.AperFunction,Conductor*%
G36*
X181704583Y-108820410D02*
G01*
X181860261Y-108889150D01*
X182069260Y-108938306D01*
X182158498Y-108944500D01*
X182160638Y-108944500D01*
X183599362Y-108944500D01*
X183601502Y-108944500D01*
X183690740Y-108938306D01*
X183747215Y-108925023D01*
X183910924Y-108886520D01*
X183911932Y-108890807D01*
X183958212Y-108884563D01*
X184021513Y-108914138D01*
X184058776Y-108973242D01*
X184063500Y-109007143D01*
X184063500Y-112204856D01*
X184043815Y-112271895D01*
X183991011Y-112317650D01*
X183921853Y-112327594D01*
X183911148Y-112324527D01*
X183910924Y-112325480D01*
X183690739Y-112273693D01*
X183603644Y-112267648D01*
X183603624Y-112267647D01*
X183601502Y-112267500D01*
X183599362Y-112267500D01*
X183188967Y-112267500D01*
X183121928Y-112247815D01*
X183101286Y-112231181D01*
X181566819Y-110696713D01*
X181533334Y-110635390D01*
X181530500Y-110609032D01*
X181530500Y-108933846D01*
X181550185Y-108866807D01*
X181602989Y-108821052D01*
X181672147Y-108811108D01*
X181704583Y-108820410D01*
G37*
%TD.AperFunction*%
%TA.AperFunction,Conductor*%
G36*
X178005703Y-59656138D02*
G01*
X178026073Y-59678725D01*
X178096113Y-59778753D01*
X178259247Y-59941887D01*
X178423624Y-60056985D01*
X178467248Y-60111561D01*
X178476500Y-60158559D01*
X178476500Y-66772842D01*
X178456815Y-66839881D01*
X178444650Y-66855814D01*
X178370959Y-66937655D01*
X178275472Y-67103043D01*
X178216458Y-67284670D01*
X178204540Y-67398063D01*
X178196496Y-67474600D01*
X178199404Y-67502267D01*
X178216458Y-67664529D01*
X178275472Y-67846156D01*
X178370957Y-68011541D01*
X178370960Y-68011544D01*
X178498747Y-68153466D01*
X178524549Y-68172212D01*
X178653248Y-68265718D01*
X178827714Y-68343395D01*
X179014511Y-68383100D01*
X179014513Y-68383100D01*
X179205489Y-68383100D01*
X179392285Y-68343395D01*
X179392286Y-68343394D01*
X179392288Y-68343394D01*
X179566752Y-68265718D01*
X179717117Y-68156470D01*
X179782920Y-68132992D01*
X179850974Y-68148817D01*
X179899669Y-68198922D01*
X179914000Y-68256790D01*
X179914000Y-77211467D01*
X179894315Y-77278506D01*
X179841511Y-77324261D01*
X179772353Y-77334205D01*
X179737595Y-77323849D01*
X179562677Y-77242283D01*
X179339827Y-77182570D01*
X179109999Y-77162463D01*
X178880172Y-77182570D01*
X178657322Y-77242283D01*
X178481521Y-77324261D01*
X178448232Y-77339784D01*
X178259247Y-77472113D01*
X178259243Y-77472116D01*
X178096115Y-77635244D01*
X178026075Y-77735272D01*
X177971497Y-77778897D01*
X177901999Y-77786089D01*
X177839644Y-77754567D01*
X177804231Y-77694337D01*
X177800500Y-77664148D01*
X177800500Y-59749851D01*
X177820185Y-59682812D01*
X177872989Y-59637057D01*
X177942147Y-59627113D01*
X178005703Y-59656138D01*
G37*
%TD.AperFunction*%
%TA.AperFunction,Conductor*%
G36*
X194917220Y-99925427D02*
G01*
X194963637Y-99977650D01*
X194975500Y-100030578D01*
X194975500Y-101627186D01*
X194955815Y-101694225D01*
X194903011Y-101739980D01*
X194901935Y-101740466D01*
X194860348Y-101758981D01*
X194705848Y-101871233D01*
X194578057Y-102013158D01*
X194482572Y-102178543D01*
X194423558Y-102360170D01*
X194403596Y-102550100D01*
X194423558Y-102740029D01*
X194482572Y-102921656D01*
X194578059Y-103087043D01*
X194615498Y-103128623D01*
X194645728Y-103191614D01*
X194637104Y-103260950D01*
X194632017Y-103271323D01*
X194629088Y-103276652D01*
X194618401Y-103292923D01*
X194605885Y-103309059D01*
X194588286Y-103349728D01*
X194583148Y-103360217D01*
X194561803Y-103399043D01*
X194556726Y-103418818D01*
X194550425Y-103437223D01*
X194542318Y-103455956D01*
X194535388Y-103499710D01*
X194533020Y-103511146D01*
X194522000Y-103554069D01*
X194522000Y-103574484D01*
X194520473Y-103593883D01*
X194517280Y-103614041D01*
X194521450Y-103658157D01*
X194522000Y-103669826D01*
X194522000Y-105416441D01*
X194502315Y-105483480D01*
X194449511Y-105529235D01*
X194380353Y-105539179D01*
X194327924Y-105518741D01*
X194256146Y-105469573D01*
X194059737Y-105382849D01*
X193850739Y-105333693D01*
X193763644Y-105327648D01*
X193763624Y-105327647D01*
X193761502Y-105327500D01*
X193759362Y-105327500D01*
X193066100Y-105327500D01*
X192999061Y-105307815D01*
X192953306Y-105255011D01*
X192942100Y-105203500D01*
X192942100Y-104194757D01*
X192961785Y-104127718D01*
X192973944Y-104111790D01*
X193047640Y-104029944D01*
X193143127Y-103864556D01*
X193202142Y-103682928D01*
X193222104Y-103493000D01*
X193202142Y-103303072D01*
X193143127Y-103121444D01*
X193143127Y-103121443D01*
X193047642Y-102956058D01*
X193016666Y-102921656D01*
X192919853Y-102814134D01*
X192817855Y-102740028D01*
X192765351Y-102701881D01*
X192590885Y-102624204D01*
X192404089Y-102584500D01*
X192404087Y-102584500D01*
X192213113Y-102584500D01*
X192213111Y-102584500D01*
X192026311Y-102624205D01*
X192000334Y-102635771D01*
X191931084Y-102645055D01*
X191867808Y-102615426D01*
X191830595Y-102556290D01*
X191825900Y-102522491D01*
X191825900Y-100693632D01*
X191845585Y-100626593D01*
X191898389Y-100580838D01*
X191967547Y-100570894D01*
X191999984Y-100580197D01*
X192020261Y-100589150D01*
X192229260Y-100638306D01*
X192318498Y-100644500D01*
X192320638Y-100644500D01*
X193759362Y-100644500D01*
X193761502Y-100644500D01*
X193850740Y-100638306D01*
X194059739Y-100589150D01*
X194256146Y-100502427D01*
X194433275Y-100381092D01*
X194585092Y-100229275D01*
X194706427Y-100052146D01*
X194738066Y-99980490D01*
X194783152Y-99927115D01*
X194849938Y-99906588D01*
X194917220Y-99925427D01*
G37*
%TD.AperFunction*%
%TA.AperFunction,Conductor*%
G36*
X194917220Y-92985427D02*
G01*
X194963637Y-93037650D01*
X194975500Y-93090578D01*
X194975500Y-97641421D01*
X194955815Y-97708460D01*
X194903011Y-97754215D01*
X194833853Y-97764159D01*
X194770297Y-97735134D01*
X194738066Y-97691508D01*
X194715950Y-97641421D01*
X194706427Y-97619854D01*
X194585092Y-97442725D01*
X194433275Y-97290908D01*
X194256146Y-97169573D01*
X194070483Y-97087594D01*
X194059737Y-97082849D01*
X193850739Y-97033693D01*
X193763644Y-97027648D01*
X193763624Y-97027647D01*
X193761502Y-97027500D01*
X192318498Y-97027500D01*
X192316376Y-97027647D01*
X192316355Y-97027648D01*
X192229260Y-97033693D01*
X192020261Y-97082849D01*
X191999985Y-97091802D01*
X191930707Y-97100873D01*
X191867522Y-97071049D01*
X191830492Y-97011799D01*
X191825900Y-96978367D01*
X191825900Y-93753632D01*
X191845585Y-93686593D01*
X191898389Y-93640838D01*
X191967547Y-93630894D01*
X191999984Y-93640197D01*
X192020261Y-93649150D01*
X192229260Y-93698306D01*
X192318498Y-93704500D01*
X192320638Y-93704500D01*
X193759362Y-93704500D01*
X193761502Y-93704500D01*
X193850740Y-93698306D01*
X194059739Y-93649150D01*
X194256146Y-93562427D01*
X194433275Y-93441092D01*
X194585092Y-93289275D01*
X194706427Y-93112146D01*
X194738066Y-93040490D01*
X194783152Y-92987115D01*
X194849938Y-92966588D01*
X194917220Y-92985427D01*
G37*
%TD.AperFunction*%
%TA.AperFunction,Conductor*%
G36*
X181704583Y-93580410D02*
G01*
X181860261Y-93649150D01*
X182069260Y-93698306D01*
X182158498Y-93704500D01*
X182160638Y-93704500D01*
X183599362Y-93704500D01*
X183601502Y-93704500D01*
X183690740Y-93698306D01*
X183747215Y-93685023D01*
X183910924Y-93646520D01*
X183911932Y-93650807D01*
X183958212Y-93644563D01*
X184021513Y-93674138D01*
X184058776Y-93733242D01*
X184063500Y-93767143D01*
X184063500Y-96964856D01*
X184043815Y-97031895D01*
X183991011Y-97077650D01*
X183921853Y-97087594D01*
X183911148Y-97084527D01*
X183910924Y-97085480D01*
X183690739Y-97033693D01*
X183603644Y-97027648D01*
X183603624Y-97027647D01*
X183601502Y-97027500D01*
X182158498Y-97027500D01*
X182156376Y-97027647D01*
X182156355Y-97027648D01*
X182069260Y-97033693D01*
X181860262Y-97082849D01*
X181704587Y-97151587D01*
X181635308Y-97160659D01*
X181572123Y-97130836D01*
X181535092Y-97071586D01*
X181530500Y-97038153D01*
X181530500Y-93693846D01*
X181550185Y-93626807D01*
X181602989Y-93581052D01*
X181672147Y-93571108D01*
X181704583Y-93580410D01*
G37*
%TD.AperFunction*%
%TA.AperFunction,Conductor*%
G36*
X190141703Y-71853292D02*
G01*
X190160818Y-71874120D01*
X190168727Y-71885006D01*
X190202867Y-71913249D01*
X190211508Y-71921112D01*
X191021482Y-72731086D01*
X191054966Y-72792407D01*
X191057800Y-72818765D01*
X191057800Y-78562638D01*
X191038115Y-78629677D01*
X190985311Y-78675432D01*
X190916153Y-78685376D01*
X190860915Y-78662956D01*
X190814154Y-78628982D01*
X190639685Y-78551304D01*
X190452889Y-78511600D01*
X190452887Y-78511600D01*
X190261913Y-78511600D01*
X190261911Y-78511600D01*
X190086281Y-78548931D01*
X190016614Y-78543615D01*
X189960880Y-78501478D01*
X189936775Y-78435898D01*
X189936500Y-78427641D01*
X189936500Y-71947005D01*
X189956185Y-71879966D01*
X190008989Y-71834211D01*
X190078147Y-71824267D01*
X190141703Y-71853292D01*
G37*
%TD.AperFunction*%
%TA.AperFunction,Conductor*%
G36*
X198062539Y-30500185D02*
G01*
X198108294Y-30552989D01*
X198119500Y-30604500D01*
X198119500Y-42016498D01*
X198099815Y-42083537D01*
X198047011Y-42129292D01*
X197977853Y-42139236D01*
X197914297Y-42110211D01*
X197907819Y-42104179D01*
X197755756Y-41952116D01*
X197755755Y-41952115D01*
X197755753Y-41952113D01*
X197566768Y-41819784D01*
X197470363Y-41774829D01*
X197357677Y-41722283D01*
X197134827Y-41662570D01*
X196904999Y-41642463D01*
X196675172Y-41662570D01*
X196452322Y-41722283D01*
X196243234Y-41819783D01*
X196243232Y-41819784D01*
X196184023Y-41861243D01*
X196054243Y-41952116D01*
X195891116Y-42115243D01*
X195891113Y-42115246D01*
X195891113Y-42115247D01*
X195790231Y-42259322D01*
X195758783Y-42304234D01*
X195661283Y-42513322D01*
X195601570Y-42736172D01*
X195581463Y-42966000D01*
X195601570Y-43195827D01*
X195661283Y-43418677D01*
X195690500Y-43481332D01*
X195758784Y-43627768D01*
X195891113Y-43816753D01*
X196054247Y-43979887D01*
X196243232Y-44112216D01*
X196452324Y-44209717D01*
X196675170Y-44269429D01*
X196905000Y-44289536D01*
X197134830Y-44269429D01*
X197357676Y-44209717D01*
X197566768Y-44112216D01*
X197755753Y-43979887D01*
X197907819Y-43827821D01*
X197969142Y-43794336D01*
X198038834Y-43799320D01*
X198094767Y-43841192D01*
X198119184Y-43906656D01*
X198119500Y-43915502D01*
X198119500Y-47016498D01*
X198099815Y-47083537D01*
X198047011Y-47129292D01*
X197977853Y-47139236D01*
X197914297Y-47110211D01*
X197907819Y-47104179D01*
X197755756Y-46952116D01*
X197755753Y-46952113D01*
X197566768Y-46819784D01*
X197470363Y-46774829D01*
X197357677Y-46722283D01*
X197134827Y-46662570D01*
X197092992Y-46658910D01*
X197027924Y-46633457D01*
X196986945Y-46576866D01*
X196979800Y-46535382D01*
X196979800Y-45922733D01*
X196982089Y-45901988D01*
X196982001Y-45899195D01*
X196982002Y-45899192D01*
X196979861Y-45831068D01*
X196979800Y-45827173D01*
X196979800Y-45803143D01*
X196979800Y-45803142D01*
X196979800Y-45799244D01*
X196979283Y-45795158D01*
X196978365Y-45783499D01*
X196976974Y-45739211D01*
X196971277Y-45719601D01*
X196967333Y-45700560D01*
X196964774Y-45680303D01*
X196948461Y-45639102D01*
X196944686Y-45628075D01*
X196932319Y-45585507D01*
X196921922Y-45567928D01*
X196913364Y-45550457D01*
X196905852Y-45531484D01*
X196905852Y-45531483D01*
X196879805Y-45495632D01*
X196873398Y-45485878D01*
X196850843Y-45447739D01*
X196844934Y-45441830D01*
X196836401Y-45433297D01*
X196823772Y-45418510D01*
X196811772Y-45401993D01*
X196777624Y-45373743D01*
X196768985Y-45365881D01*
X195372088Y-43968983D01*
X195359044Y-43952701D01*
X195307331Y-43904140D01*
X195304534Y-43901429D01*
X195287527Y-43884422D01*
X195284770Y-43881665D01*
X195281486Y-43879117D01*
X195272623Y-43871546D01*
X195240321Y-43841214D01*
X195222433Y-43831380D01*
X195206169Y-43820696D01*
X195190040Y-43808185D01*
X195149377Y-43790589D01*
X195138883Y-43785448D01*
X195100062Y-43764105D01*
X195088386Y-43761107D01*
X195080284Y-43759027D01*
X195061879Y-43752726D01*
X195054355Y-43749470D01*
X195043145Y-43744619D01*
X195043143Y-43744618D01*
X195043142Y-43744618D01*
X194999383Y-43737687D01*
X194987943Y-43735318D01*
X194945031Y-43724300D01*
X194945030Y-43724300D01*
X194924616Y-43724300D01*
X194905217Y-43722773D01*
X194885058Y-43719580D01*
X194885057Y-43719580D01*
X194858420Y-43722098D01*
X194840943Y-43723750D01*
X194829274Y-43724300D01*
X193817534Y-43724300D01*
X193796791Y-43722010D01*
X193725870Y-43724239D01*
X193721975Y-43724300D01*
X193694044Y-43724300D01*
X193690189Y-43724786D01*
X193690155Y-43724789D01*
X193689924Y-43724819D01*
X193678304Y-43725733D01*
X193634010Y-43727125D01*
X193614396Y-43732823D01*
X193595360Y-43736765D01*
X193575106Y-43739325D01*
X193533916Y-43755632D01*
X193522870Y-43759413D01*
X193480307Y-43771779D01*
X193462728Y-43782176D01*
X193445264Y-43790732D01*
X193436520Y-43794194D01*
X193426282Y-43798248D01*
X193390439Y-43824289D01*
X193380682Y-43830698D01*
X193342538Y-43853257D01*
X193328100Y-43867695D01*
X193313311Y-43880325D01*
X193296794Y-43892325D01*
X193268544Y-43926473D01*
X193260683Y-43935111D01*
X188845181Y-48350613D01*
X188783858Y-48384098D01*
X188714166Y-48379114D01*
X188658233Y-48337242D01*
X188633816Y-48271778D01*
X188633500Y-48262932D01*
X188633500Y-45107580D01*
X188653185Y-45040541D01*
X188698482Y-44998525D01*
X188773017Y-44958190D01*
X188957220Y-44814818D01*
X189115314Y-44643083D01*
X189146191Y-44595821D01*
X189199338Y-44550465D01*
X189268569Y-44541041D01*
X189331905Y-44570543D01*
X189353809Y-44595822D01*
X189384684Y-44643081D01*
X189384686Y-44643083D01*
X189542780Y-44814818D01*
X189726983Y-44958190D01*
X189932273Y-45069287D01*
X189987467Y-45088235D01*
X190153046Y-45145080D01*
X190383288Y-45183500D01*
X190616712Y-45183500D01*
X190846953Y-45145080D01*
X190957339Y-45107183D01*
X191067727Y-45069287D01*
X191273017Y-44958190D01*
X191457220Y-44814818D01*
X191615314Y-44643083D01*
X191742984Y-44447669D01*
X191836749Y-44233907D01*
X191894051Y-44007626D01*
X191913327Y-43775000D01*
X191894051Y-43542374D01*
X191836749Y-43316093D01*
X191742984Y-43102331D01*
X191615314Y-42906917D01*
X191457220Y-42735182D01*
X191273017Y-42591810D01*
X191067727Y-42480713D01*
X191067726Y-42480712D01*
X191067725Y-42480712D01*
X190846953Y-42404919D01*
X190616712Y-42366500D01*
X190383288Y-42366500D01*
X190153046Y-42404919D01*
X189932274Y-42480712D01*
X189726983Y-42591810D01*
X189542780Y-42735181D01*
X189384683Y-42906920D01*
X189353808Y-42954178D01*
X189300662Y-42999535D01*
X189231430Y-43008958D01*
X189168095Y-42979455D01*
X189146192Y-42954178D01*
X189115316Y-42906920D01*
X189115315Y-42906919D01*
X189115314Y-42906917D01*
X188957220Y-42735182D01*
X188773017Y-42591810D01*
X188567727Y-42480713D01*
X188567726Y-42480712D01*
X188567725Y-42480712D01*
X188346953Y-42404919D01*
X188116712Y-42366500D01*
X187883288Y-42366500D01*
X187653046Y-42404919D01*
X187432274Y-42480712D01*
X187372013Y-42513324D01*
X187226983Y-42591810D01*
X187226981Y-42591811D01*
X187226980Y-42591812D01*
X187058123Y-42723239D01*
X186993129Y-42748882D01*
X186924589Y-42735316D01*
X186874265Y-42686847D01*
X186865782Y-42668725D01*
X186850889Y-42628796D01*
X186850888Y-42628794D01*
X186763261Y-42511738D01*
X186646203Y-42424110D01*
X186509205Y-42373011D01*
X186451924Y-42366853D01*
X186451918Y-42366852D01*
X186448638Y-42366500D01*
X184551362Y-42366500D01*
X184548082Y-42366852D01*
X184548075Y-42366853D01*
X184490794Y-42373011D01*
X184353796Y-42424110D01*
X184236738Y-42511738D01*
X184149110Y-42628796D01*
X184098011Y-42765794D01*
X184091853Y-42823075D01*
X184091500Y-42826362D01*
X184091500Y-44723638D01*
X184091852Y-44726918D01*
X184091853Y-44726924D01*
X184098011Y-44784205D01*
X184149110Y-44921203D01*
X184236738Y-45038261D01*
X184353796Y-45125889D01*
X184490794Y-45176988D01*
X184490797Y-45176988D01*
X184490799Y-45176989D01*
X184551362Y-45183500D01*
X184554672Y-45183500D01*
X186445328Y-45183500D01*
X186448638Y-45183500D01*
X186509201Y-45176989D01*
X186509203Y-45176988D01*
X186509205Y-45176988D01*
X186594751Y-45145080D01*
X186646204Y-45125889D01*
X186763261Y-45038261D01*
X186850889Y-44921204D01*
X186865781Y-44881277D01*
X186907650Y-44825346D01*
X186973114Y-44800929D01*
X187041387Y-44815780D01*
X187058117Y-44826755D01*
X187226983Y-44958190D01*
X187301517Y-44998525D01*
X187351108Y-45047744D01*
X187366500Y-45107580D01*
X187366499Y-51764332D01*
X187346814Y-51831371D01*
X187330180Y-51852013D01*
X183180080Y-56002113D01*
X183163796Y-56015161D01*
X183115239Y-56066868D01*
X183112534Y-56069660D01*
X183092765Y-56089430D01*
X183090376Y-56092508D01*
X183087806Y-56095424D01*
X183090582Y-56092070D01*
X183034227Y-56132733D01*
X182964459Y-56136494D01*
X182903733Y-56101938D01*
X182873164Y-56047902D01*
X182872532Y-56045542D01*
X182853717Y-55975324D01*
X182756216Y-55766232D01*
X182623887Y-55577247D01*
X182460753Y-55414113D01*
X182271768Y-55281784D01*
X182145907Y-55223094D01*
X182062677Y-55184283D01*
X181839827Y-55124570D01*
X181610000Y-55104463D01*
X181380171Y-55124570D01*
X181337093Y-55136113D01*
X181267243Y-55134450D01*
X181209381Y-55095287D01*
X181181877Y-55031059D01*
X181181000Y-55016338D01*
X181181000Y-52734636D01*
X181591500Y-52734636D01*
X181591690Y-52737055D01*
X181591691Y-52737070D01*
X181599718Y-52839066D01*
X181601970Y-52867669D01*
X181657321Y-53087336D01*
X181657322Y-53087339D01*
X181751005Y-53293590D01*
X181880013Y-53479802D01*
X182040197Y-53639986D01*
X182087999Y-53673103D01*
X182226409Y-53768994D01*
X182432664Y-53862679D01*
X182652331Y-53918030D01*
X182785364Y-53928500D01*
X182787809Y-53928500D01*
X184412191Y-53928500D01*
X184414636Y-53928500D01*
X184547669Y-53918030D01*
X184767336Y-53862679D01*
X184973591Y-53768994D01*
X185159802Y-53639986D01*
X185319986Y-53479802D01*
X185448994Y-53293591D01*
X185542679Y-53087336D01*
X185598030Y-52867669D01*
X185608500Y-52734636D01*
X185608500Y-50105364D01*
X185598030Y-49972331D01*
X185542679Y-49752664D01*
X185448994Y-49546409D01*
X185319986Y-49360197D01*
X185159802Y-49200013D01*
X184973590Y-49071005D01*
X184767339Y-48977322D01*
X184767337Y-48977321D01*
X184767336Y-48977321D01*
X184547669Y-48921970D01*
X184519066Y-48919718D01*
X184417070Y-48911691D01*
X184417055Y-48911690D01*
X184414636Y-48911500D01*
X182785364Y-48911500D01*
X182782945Y-48911690D01*
X182782929Y-48911691D01*
X182666632Y-48920844D01*
X182652331Y-48921970D01*
X182439343Y-48975637D01*
X182432660Y-48977322D01*
X182226409Y-49071005D01*
X182040197Y-49200013D01*
X181880013Y-49360197D01*
X181751005Y-49546409D01*
X181657322Y-49752660D01*
X181601970Y-49972332D01*
X181591691Y-50102929D01*
X181591690Y-50102945D01*
X181591500Y-50105364D01*
X181591500Y-52734636D01*
X181181000Y-52734636D01*
X181181000Y-44143265D01*
X181200685Y-44076226D01*
X181217312Y-44055590D01*
X181244404Y-44028498D01*
X181305723Y-43995015D01*
X181364176Y-43996405D01*
X181435170Y-44015429D01*
X181665000Y-44035536D01*
X181894830Y-44015429D01*
X182117676Y-43955717D01*
X182326768Y-43858216D01*
X182515753Y-43725887D01*
X182678887Y-43562753D01*
X182811216Y-43373768D01*
X182908717Y-43164676D01*
X182968429Y-42941830D01*
X182988536Y-42712000D01*
X182968429Y-42482170D01*
X182908717Y-42259324D01*
X182811216Y-42050232D01*
X182678887Y-41861247D01*
X182515753Y-41698113D01*
X182326768Y-41565784D01*
X182230363Y-41520829D01*
X182117677Y-41468283D01*
X181894827Y-41408570D01*
X181664999Y-41388463D01*
X181435172Y-41408570D01*
X181212322Y-41468283D01*
X181003234Y-41565783D01*
X181003232Y-41565784D01*
X180893722Y-41642464D01*
X180814243Y-41698116D01*
X180651116Y-41861243D01*
X180518783Y-42050234D01*
X180421283Y-42259322D01*
X180361570Y-42482172D01*
X180341463Y-42711999D01*
X180361570Y-42941829D01*
X180380592Y-43012821D01*
X180378929Y-43082671D01*
X180348498Y-43132595D01*
X180158680Y-43322413D01*
X180142395Y-43335461D01*
X180093838Y-43387169D01*
X180091133Y-43389961D01*
X180071365Y-43409730D01*
X180068987Y-43412793D01*
X180068970Y-43412814D01*
X180068811Y-43413021D01*
X180061253Y-43421868D01*
X180030914Y-43454177D01*
X180021082Y-43472063D01*
X180010401Y-43488323D01*
X179997885Y-43504459D01*
X179980286Y-43545128D01*
X179975148Y-43555617D01*
X179953803Y-43594443D01*
X179948726Y-43614218D01*
X179942425Y-43632623D01*
X179934318Y-43651356D01*
X179927388Y-43695110D01*
X179925020Y-43706546D01*
X179914000Y-43749469D01*
X179914000Y-43769884D01*
X179912473Y-43789283D01*
X179909280Y-43809441D01*
X179913450Y-43853557D01*
X179914000Y-43865226D01*
X179914000Y-43911820D01*
X179894315Y-43978859D01*
X179841511Y-44024614D01*
X179772353Y-44034558D01*
X179737595Y-44024202D01*
X179617677Y-43968283D01*
X179394827Y-43908570D01*
X179165000Y-43888463D01*
X178935172Y-43908570D01*
X178712322Y-43968283D01*
X178525104Y-44055585D01*
X178503232Y-44065784D01*
X178416001Y-44126864D01*
X178314243Y-44198116D01*
X178151116Y-44361243D01*
X178151113Y-44361246D01*
X178151113Y-44361247D01*
X178075877Y-44468696D01*
X178026075Y-44539820D01*
X177971498Y-44583445D01*
X177901999Y-44590637D01*
X177839645Y-44559115D01*
X177804231Y-44498885D01*
X177800500Y-44468696D01*
X177800500Y-38089636D01*
X181591500Y-38089636D01*
X181591690Y-38092055D01*
X181591691Y-38092070D01*
X181599718Y-38194066D01*
X181601970Y-38222669D01*
X181657321Y-38442336D01*
X181657322Y-38442339D01*
X181751005Y-38648590D01*
X181880013Y-38834802D01*
X182040197Y-38994986D01*
X182226409Y-39123993D01*
X182226409Y-39123994D01*
X182432664Y-39217679D01*
X182652331Y-39273030D01*
X182785364Y-39283500D01*
X182787809Y-39283500D01*
X184412191Y-39283500D01*
X184414636Y-39283500D01*
X184547669Y-39273030D01*
X184767336Y-39217679D01*
X184973591Y-39123994D01*
X185159802Y-38994986D01*
X185319986Y-38834802D01*
X185448994Y-38648591D01*
X185542679Y-38442336D01*
X185598030Y-38222669D01*
X185608500Y-38089636D01*
X190391500Y-38089636D01*
X190391690Y-38092055D01*
X190391691Y-38092070D01*
X190399718Y-38194066D01*
X190401970Y-38222669D01*
X190457321Y-38442336D01*
X190457322Y-38442339D01*
X190551005Y-38648590D01*
X190680013Y-38834802D01*
X190840197Y-38994986D01*
X191026409Y-39123993D01*
X191026409Y-39123994D01*
X191232664Y-39217679D01*
X191452331Y-39273030D01*
X191585364Y-39283500D01*
X191587809Y-39283500D01*
X193212191Y-39283500D01*
X193214636Y-39283500D01*
X193347669Y-39273030D01*
X193567336Y-39217679D01*
X193773591Y-39123994D01*
X193959802Y-38994986D01*
X194119986Y-38834802D01*
X194248994Y-38648591D01*
X194342679Y-38442336D01*
X194398030Y-38222669D01*
X194408500Y-38089636D01*
X194408500Y-35460364D01*
X194398030Y-35327331D01*
X194342679Y-35107664D01*
X194248994Y-34901409D01*
X194248994Y-34901408D01*
X194119986Y-34715197D01*
X193959802Y-34555013D01*
X193773590Y-34426005D01*
X193567339Y-34332322D01*
X193567337Y-34332321D01*
X193567336Y-34332321D01*
X193347669Y-34276970D01*
X193319066Y-34274718D01*
X193217070Y-34266691D01*
X193217055Y-34266690D01*
X193214636Y-34266500D01*
X191585364Y-34266500D01*
X191582945Y-34266690D01*
X191582929Y-34266691D01*
X191466632Y-34275844D01*
X191452331Y-34276970D01*
X191239343Y-34330637D01*
X191232660Y-34332322D01*
X191026409Y-34426005D01*
X190840197Y-34555013D01*
X190680013Y-34715197D01*
X190551005Y-34901409D01*
X190457322Y-35107660D01*
X190401970Y-35327332D01*
X190391691Y-35457929D01*
X190391690Y-35457945D01*
X190391500Y-35460364D01*
X190391500Y-38089636D01*
X185608500Y-38089636D01*
X185608500Y-35460364D01*
X185598030Y-35327331D01*
X185542679Y-35107664D01*
X185448994Y-34901409D01*
X185448994Y-34901408D01*
X185319986Y-34715197D01*
X185159802Y-34555013D01*
X184973590Y-34426005D01*
X184767339Y-34332322D01*
X184767337Y-34332321D01*
X184767336Y-34332321D01*
X184547669Y-34276970D01*
X184519066Y-34274718D01*
X184417070Y-34266691D01*
X184417055Y-34266690D01*
X184414636Y-34266500D01*
X182785364Y-34266500D01*
X182782945Y-34266690D01*
X182782929Y-34266691D01*
X182666632Y-34275844D01*
X182652331Y-34276970D01*
X182439343Y-34330637D01*
X182432660Y-34332322D01*
X182226409Y-34426005D01*
X182040197Y-34555013D01*
X181880013Y-34715197D01*
X181751005Y-34901409D01*
X181657322Y-35107660D01*
X181601970Y-35327332D01*
X181591691Y-35457929D01*
X181591690Y-35457945D01*
X181591500Y-35460364D01*
X181591500Y-38089636D01*
X177800500Y-38089636D01*
X177800500Y-30604500D01*
X177820185Y-30537461D01*
X177872989Y-30491706D01*
X177924500Y-30480500D01*
X197995500Y-30480500D01*
X198062539Y-30500185D01*
G37*
%TD.AperFunction*%
%TD*%
M02*
