%TF.GenerationSoftware,KiCad,Pcbnew,(6.0.5)*%
%TF.CreationDate,2023-04-26T04:57:18-04:00*%
%TF.ProjectId,as3340,61733333-3430-42e6-9b69-6361645f7063,rev?*%
%TF.SameCoordinates,Original*%
%TF.FileFunction,Paste,Top*%
%TF.FilePolarity,Positive*%
%FSLAX46Y46*%
G04 Gerber Fmt 4.6, Leading zero omitted, Abs format (unit mm)*
G04 Created by KiCad (PCBNEW (6.0.5)) date 2023-04-26 04:57:18*
%MOMM*%
%LPD*%
G01*
G04 APERTURE LIST*
G04 Aperture macros list*
%AMRoundRect*
0 Rectangle with rounded corners*
0 $1 Rounding radius*
0 $2 $3 $4 $5 $6 $7 $8 $9 X,Y pos of 4 corners*
0 Add a 4 corners polygon primitive as box body*
4,1,4,$2,$3,$4,$5,$6,$7,$8,$9,$2,$3,0*
0 Add four circle primitives for the rounded corners*
1,1,$1+$1,$2,$3*
1,1,$1+$1,$4,$5*
1,1,$1+$1,$6,$7*
1,1,$1+$1,$8,$9*
0 Add four rect primitives between the rounded corners*
20,1,$1+$1,$2,$3,$4,$5,0*
20,1,$1+$1,$4,$5,$6,$7,0*
20,1,$1+$1,$6,$7,$8,$9,0*
20,1,$1+$1,$8,$9,$2,$3,0*%
G04 Aperture macros list end*
%ADD10RoundRect,0.250000X-0.400000X-0.625000X0.400000X-0.625000X0.400000X0.625000X-0.400000X0.625000X0*%
%ADD11RoundRect,0.250000X0.400000X0.625000X-0.400000X0.625000X-0.400000X-0.625000X0.400000X-0.625000X0*%
%ADD12RoundRect,0.250000X-0.412500X-0.650000X0.412500X-0.650000X0.412500X0.650000X-0.412500X0.650000X0*%
%ADD13RoundRect,0.218750X0.218750X0.256250X-0.218750X0.256250X-0.218750X-0.256250X0.218750X-0.256250X0*%
%ADD14RoundRect,0.250000X-0.625000X0.400000X-0.625000X-0.400000X0.625000X-0.400000X0.625000X0.400000X0*%
%ADD15R,1.500000X0.600000*%
%ADD16RoundRect,0.250000X0.412500X0.650000X-0.412500X0.650000X-0.412500X-0.650000X0.412500X-0.650000X0*%
%ADD17RoundRect,0.250000X0.625000X-0.400000X0.625000X0.400000X-0.625000X0.400000X-0.625000X-0.400000X0*%
G04 APERTURE END LIST*
D10*
%TO.C,R62*%
X135610000Y-113665000D03*
X138710000Y-113665000D03*
%TD*%
D11*
%TO.C,R74*%
X46560000Y-156500000D03*
X43460000Y-156500000D03*
%TD*%
%TO.C,R73*%
X45925000Y-136815000D03*
X42825000Y-136815000D03*
%TD*%
%TO.C,R98*%
X263805000Y-150495000D03*
X260705000Y-150495000D03*
%TD*%
D12*
%TO.C,C6*%
X289267500Y-103505000D03*
X292392500Y-103505000D03*
%TD*%
D13*
%TO.C,D15*%
X262407500Y-137160000D03*
X260832500Y-137160000D03*
%TD*%
D11*
%TO.C,R40*%
X200940000Y-100965000D03*
X197840000Y-100965000D03*
%TD*%
D10*
%TO.C,R5*%
X284200000Y-93345000D03*
X287300000Y-93345000D03*
%TD*%
D13*
%TO.C,D12*%
X234467500Y-153035000D03*
X232892500Y-153035000D03*
%TD*%
D10*
%TO.C,R101*%
X260070000Y-139700000D03*
X263170000Y-139700000D03*
%TD*%
D11*
%TO.C,R97*%
X263170000Y-134620000D03*
X260070000Y-134620000D03*
%TD*%
D10*
%TO.C,R6*%
X284200000Y-95885000D03*
X287300000Y-95885000D03*
%TD*%
%TO.C,R48*%
X91160000Y-111760000D03*
X94260000Y-111760000D03*
%TD*%
D13*
%TO.C,D11*%
X234467500Y-137160000D03*
X232892500Y-137160000D03*
%TD*%
D11*
%TO.C,R35*%
X94260000Y-106680000D03*
X91160000Y-106680000D03*
%TD*%
D10*
%TO.C,R94*%
X232130000Y-155575000D03*
X235230000Y-155575000D03*
%TD*%
D14*
%TO.C,R64*%
X140970000Y-113385000D03*
X140970000Y-116485000D03*
%TD*%
D10*
%TO.C,R43*%
X182600000Y-100965000D03*
X185700000Y-100965000D03*
%TD*%
D12*
%TO.C,C3*%
X268322500Y-113665000D03*
X271447500Y-113665000D03*
%TD*%
%TO.C,C10*%
X75272500Y-119380000D03*
X78397500Y-119380000D03*
%TD*%
D14*
%TO.C,R55*%
X203200000Y-105765000D03*
X203200000Y-108865000D03*
%TD*%
D10*
%TO.C,R61*%
X225155000Y-116200000D03*
X228255000Y-116200000D03*
%TD*%
%TO.C,R72*%
X138150000Y-100965000D03*
X141250000Y-100965000D03*
%TD*%
D11*
%TO.C,R52*%
X79020000Y-111760000D03*
X75920000Y-111760000D03*
%TD*%
%TO.C,R75*%
X47195000Y-178725000D03*
X44095000Y-178725000D03*
%TD*%
D10*
%TO.C,R87*%
X98070000Y-184440000D03*
X101170000Y-184440000D03*
%TD*%
D11*
%TO.C,R92*%
X233960000Y-200660000D03*
X230860000Y-200660000D03*
%TD*%
D10*
%TO.C,R9*%
X284200000Y-98425000D03*
X287300000Y-98425000D03*
%TD*%
%TO.C,R93*%
X232130000Y-139700000D03*
X235230000Y-139700000D03*
%TD*%
D15*
%TO.C,U15*%
X248545000Y-162560000D03*
X248545000Y-163830000D03*
X248545000Y-165100000D03*
X248545000Y-166370000D03*
X248545000Y-167640000D03*
X248545000Y-168910000D03*
X248545000Y-170180000D03*
X248545000Y-171450000D03*
X255645000Y-171450000D03*
X255645000Y-170180000D03*
X255645000Y-168910000D03*
X255645000Y-167640000D03*
X255645000Y-166370000D03*
X255645000Y-165100000D03*
X255645000Y-163830000D03*
X255645000Y-162560000D03*
%TD*%
D11*
%TO.C,R99*%
X264440000Y-179070000D03*
X261340000Y-179070000D03*
%TD*%
D10*
%TO.C,R103*%
X261340000Y-184150000D03*
X264440000Y-184150000D03*
%TD*%
%TO.C,R86*%
X98070000Y-161580000D03*
X101170000Y-161580000D03*
%TD*%
D11*
%TO.C,R84*%
X101805000Y-194600000D03*
X98705000Y-194600000D03*
%TD*%
D16*
%TO.C,C4*%
X287322500Y-118745000D03*
X284197500Y-118745000D03*
%TD*%
D13*
%TO.C,D17*%
X263677500Y-181610000D03*
X262102500Y-181610000D03*
%TD*%
D10*
%TO.C,R80*%
X43460000Y-199045000D03*
X46560000Y-199045000D03*
%TD*%
%TO.C,R33*%
X91160000Y-99060000D03*
X94260000Y-99060000D03*
%TD*%
D14*
%TO.C,R63*%
X230515000Y-115920000D03*
X230515000Y-119020000D03*
%TD*%
D13*
%TO.C,D9*%
X100407500Y-181900000D03*
X98832500Y-181900000D03*
%TD*%
D10*
%TO.C,R95*%
X230860000Y-184150000D03*
X233960000Y-184150000D03*
%TD*%
D16*
%TO.C,C8*%
X105067500Y-119380000D03*
X101942500Y-119380000D03*
%TD*%
D10*
%TO.C,R37*%
X91160000Y-104140000D03*
X94260000Y-104140000D03*
%TD*%
D13*
%TO.C,D10*%
X100890000Y-197140000D03*
X99315000Y-197140000D03*
%TD*%
D10*
%TO.C,R45*%
X75920000Y-106680000D03*
X79020000Y-106680000D03*
%TD*%
%TO.C,R70*%
X153390000Y-100965000D03*
X156490000Y-100965000D03*
%TD*%
D17*
%TO.C,R51*%
X198120000Y-108865000D03*
X198120000Y-105765000D03*
%TD*%
D11*
%TO.C,R67*%
X228255000Y-118740000D03*
X225155000Y-118740000D03*
%TD*%
D15*
%TO.C,U14*%
X80830000Y-167930000D03*
X80830000Y-169200000D03*
X80830000Y-170470000D03*
X80830000Y-171740000D03*
X80830000Y-173010000D03*
X80830000Y-174280000D03*
X80830000Y-175550000D03*
X80830000Y-176820000D03*
X87930000Y-176820000D03*
X87930000Y-175550000D03*
X87930000Y-174280000D03*
X87930000Y-173010000D03*
X87930000Y-171740000D03*
X87930000Y-170470000D03*
X87930000Y-169200000D03*
X87930000Y-167930000D03*
%TD*%
D13*
%TO.C,D4*%
X45797500Y-159015000D03*
X44222500Y-159015000D03*
%TD*%
D11*
%TO.C,R10*%
X287030000Y-103505000D03*
X283930000Y-103505000D03*
%TD*%
%TO.C,R83*%
X101170000Y-179360000D03*
X98070000Y-179360000D03*
%TD*%
D10*
%TO.C,R11*%
X284200000Y-106045000D03*
X287300000Y-106045000D03*
%TD*%
D11*
%TO.C,R34*%
X94260000Y-109220000D03*
X91160000Y-109220000D03*
%TD*%
D13*
%TO.C,D14*%
X233197500Y-203200000D03*
X231622500Y-203200000D03*
%TD*%
%TO.C,D8*%
X98832500Y-159040000D03*
X100407500Y-159040000D03*
%TD*%
D11*
%TO.C,R76*%
X46560000Y-193965000D03*
X43460000Y-193965000D03*
%TD*%
%TO.C,R7*%
X94260000Y-96520000D03*
X91160000Y-96520000D03*
%TD*%
D14*
%TO.C,R57*%
X180340000Y-105410000D03*
X180340000Y-108510000D03*
%TD*%
D10*
%TO.C,R77*%
X42825000Y-141895000D03*
X45925000Y-141895000D03*
%TD*%
%TO.C,R88*%
X98705000Y-199680000D03*
X101805000Y-199680000D03*
%TD*%
D11*
%TO.C,R20*%
X287300000Y-90805000D03*
X284200000Y-90805000D03*
%TD*%
D10*
%TO.C,R102*%
X260705000Y-155575000D03*
X263805000Y-155575000D03*
%TD*%
D14*
%TO.C,R56*%
X182880000Y-105410000D03*
X182880000Y-108510000D03*
%TD*%
D11*
%TO.C,R38*%
X201295000Y-118745000D03*
X198195000Y-118745000D03*
%TD*%
D10*
%TO.C,R36*%
X91160000Y-101600000D03*
X94260000Y-101600000D03*
%TD*%
%TO.C,R69*%
X153390000Y-116205000D03*
X156490000Y-116205000D03*
%TD*%
D13*
%TO.C,D3*%
X45162500Y-139355000D03*
X43587500Y-139355000D03*
%TD*%
%TO.C,D18*%
X263677500Y-203200000D03*
X262102500Y-203200000D03*
%TD*%
D11*
%TO.C,R32*%
X287300000Y-100965000D03*
X284200000Y-100965000D03*
%TD*%
D10*
%TO.C,R85*%
X97080000Y-142530000D03*
X100180000Y-142530000D03*
%TD*%
D12*
%TO.C,C11*%
X96227500Y-109220000D03*
X99352500Y-109220000D03*
%TD*%
D10*
%TO.C,R96*%
X230860000Y-205740000D03*
X233960000Y-205740000D03*
%TD*%
D11*
%TO.C,R91*%
X233960000Y-179070000D03*
X230860000Y-179070000D03*
%TD*%
D10*
%TO.C,R8*%
X268970000Y-100965000D03*
X272070000Y-100965000D03*
%TD*%
%TO.C,R104*%
X261340000Y-205740000D03*
X264440000Y-205740000D03*
%TD*%
D11*
%TO.C,R81*%
X100180000Y-137450000D03*
X97080000Y-137450000D03*
%TD*%
%TO.C,R71*%
X138710000Y-116205000D03*
X135610000Y-116205000D03*
%TD*%
D13*
%TO.C,D13*%
X233197500Y-181610000D03*
X231622500Y-181610000D03*
%TD*%
D10*
%TO.C,R78*%
X43460000Y-161580000D03*
X46560000Y-161580000D03*
%TD*%
D11*
%TO.C,R90*%
X235230000Y-150495000D03*
X232130000Y-150495000D03*
%TD*%
%TO.C,R12*%
X271425000Y-106045000D03*
X268325000Y-106045000D03*
%TD*%
D10*
%TO.C,R3*%
X289280000Y-113665000D03*
X292380000Y-113665000D03*
%TD*%
%TO.C,R66*%
X242935000Y-103500000D03*
X246035000Y-103500000D03*
%TD*%
D17*
%TO.C,R53*%
X185420000Y-108510000D03*
X185420000Y-105410000D03*
%TD*%
D11*
%TO.C,R82*%
X101170000Y-156500000D03*
X98070000Y-156500000D03*
%TD*%
D13*
%TO.C,D16*%
X262890000Y-153035000D03*
X261315000Y-153035000D03*
%TD*%
D16*
%TO.C,C5*%
X287312500Y-113665000D03*
X284187500Y-113665000D03*
%TD*%
%TO.C,C9*%
X94615000Y-124460000D03*
X91490000Y-124460000D03*
%TD*%
D14*
%TO.C,R54*%
X200660000Y-105765000D03*
X200660000Y-108865000D03*
%TD*%
D13*
%TO.C,D7*%
X99137500Y-139990000D03*
X97562500Y-139990000D03*
%TD*%
D10*
%TO.C,R28*%
X96875000Y-119380000D03*
X99975000Y-119380000D03*
%TD*%
D16*
%TO.C,C2*%
X297472500Y-113665000D03*
X294347500Y-113665000D03*
%TD*%
D13*
%TO.C,D5*%
X46280000Y-181265000D03*
X44705000Y-181265000D03*
%TD*%
D11*
%TO.C,R100*%
X264440000Y-200660000D03*
X261340000Y-200660000D03*
%TD*%
%TO.C,R89*%
X235230000Y-134620000D03*
X232130000Y-134620000D03*
%TD*%
D13*
%TO.C,D6*%
X45797500Y-196505000D03*
X44222500Y-196505000D03*
%TD*%
D10*
%TO.C,R79*%
X44095000Y-183805000D03*
X47195000Y-183805000D03*
%TD*%
D16*
%TO.C,C12*%
X94272500Y-119380000D03*
X91147500Y-119380000D03*
%TD*%
D10*
%TO.C,R68*%
X227695000Y-103500000D03*
X230795000Y-103500000D03*
%TD*%
%TO.C,R65*%
X242935000Y-116200000D03*
X246035000Y-116200000D03*
%TD*%
%TO.C,R39*%
X182600000Y-118745000D03*
X185700000Y-118745000D03*
%TD*%
M02*
