%TF.GenerationSoftware,KiCad,Pcbnew,7.0.2*%
%TF.CreationDate,2023-06-26T14:18:18-04:00*%
%TF.ProjectId,as3340_no_mux,61733333-3430-45f6-9e6f-5f6d75782e6b,rev?*%
%TF.SameCoordinates,Original*%
%TF.FileFunction,Copper,L2,Bot*%
%TF.FilePolarity,Positive*%
%FSLAX46Y46*%
G04 Gerber Fmt 4.6, Leading zero omitted, Abs format (unit mm)*
G04 Created by KiCad (PCBNEW 7.0.2) date 2023-06-26 14:18:18*
%MOMM*%
%LPD*%
G01*
G04 APERTURE LIST*
G04 Aperture macros list*
%AMRoundRect*
0 Rectangle with rounded corners*
0 $1 Rounding radius*
0 $2 $3 $4 $5 $6 $7 $8 $9 X,Y pos of 4 corners*
0 Add a 4 corners polygon primitive as box body*
4,1,4,$2,$3,$4,$5,$6,$7,$8,$9,$2,$3,0*
0 Add four circle primitives for the rounded corners*
1,1,$1+$1,$2,$3*
1,1,$1+$1,$4,$5*
1,1,$1+$1,$6,$7*
1,1,$1+$1,$8,$9*
0 Add four rect primitives between the rounded corners*
20,1,$1+$1,$2,$3,$4,$5,0*
20,1,$1+$1,$4,$5,$6,$7,0*
20,1,$1+$1,$6,$7,$8,$9,0*
20,1,$1+$1,$8,$9,$2,$3,0*%
G04 Aperture macros list end*
%TA.AperFunction,SMDPad,CuDef*%
%ADD10RoundRect,0.250000X0.450000X-0.262500X0.450000X0.262500X-0.450000X0.262500X-0.450000X-0.262500X0*%
%TD*%
%TA.AperFunction,SMDPad,CuDef*%
%ADD11RoundRect,0.250000X-0.450000X0.262500X-0.450000X-0.262500X0.450000X-0.262500X0.450000X0.262500X0*%
%TD*%
%TA.AperFunction,SMDPad,CuDef*%
%ADD12RoundRect,0.250000X-0.262500X-0.450000X0.262500X-0.450000X0.262500X0.450000X-0.262500X0.450000X0*%
%TD*%
%TA.AperFunction,SMDPad,CuDef*%
%ADD13RoundRect,0.250000X0.262500X0.450000X-0.262500X0.450000X-0.262500X-0.450000X0.262500X-0.450000X0*%
%TD*%
%TA.AperFunction,SMDPad,CuDef*%
%ADD14RoundRect,0.200000X-0.275000X0.200000X-0.275000X-0.200000X0.275000X-0.200000X0.275000X0.200000X0*%
%TD*%
%TA.AperFunction,SMDPad,CuDef*%
%ADD15RoundRect,0.200000X0.275000X-0.200000X0.275000X0.200000X-0.275000X0.200000X-0.275000X-0.200000X0*%
%TD*%
%TA.AperFunction,ComponentPad*%
%ADD16O,3.100000X2.300000*%
%TD*%
%TA.AperFunction,ComponentPad*%
%ADD17RoundRect,0.650000X-0.650000X-0.650000X0.650000X-0.650000X0.650000X0.650000X-0.650000X0.650000X0*%
%TD*%
%TA.AperFunction,ComponentPad*%
%ADD18C,1.600000*%
%TD*%
%TA.AperFunction,ComponentPad*%
%ADD19R,1.800000X1.800000*%
%TD*%
%TA.AperFunction,ComponentPad*%
%ADD20C,1.800000*%
%TD*%
%TA.AperFunction,ComponentPad*%
%ADD21RoundRect,0.750000X0.750000X-1.250000X0.750000X1.250000X-0.750000X1.250000X-0.750000X-1.250000X0*%
%TD*%
%TA.AperFunction,ComponentPad*%
%ADD22C,1.700000*%
%TD*%
%TA.AperFunction,SMDPad,CuDef*%
%ADD23RoundRect,0.250000X0.325000X0.650000X-0.325000X0.650000X-0.325000X-0.650000X0.325000X-0.650000X0*%
%TD*%
%TA.AperFunction,ComponentPad*%
%ADD24C,1.620000*%
%TD*%
%TA.AperFunction,SMDPad,CuDef*%
%ADD25RoundRect,0.250000X0.625000X-0.312500X0.625000X0.312500X-0.625000X0.312500X-0.625000X-0.312500X0*%
%TD*%
%TA.AperFunction,SMDPad,CuDef*%
%ADD26RoundRect,0.250000X-0.312500X-0.625000X0.312500X-0.625000X0.312500X0.625000X-0.312500X0.625000X0*%
%TD*%
%TA.AperFunction,SMDPad,CuDef*%
%ADD27RoundRect,0.250000X-0.625000X0.312500X-0.625000X-0.312500X0.625000X-0.312500X0.625000X0.312500X0*%
%TD*%
%TA.AperFunction,SMDPad,CuDef*%
%ADD28RoundRect,0.250000X0.312500X0.625000X-0.312500X0.625000X-0.312500X-0.625000X0.312500X-0.625000X0*%
%TD*%
%TA.AperFunction,ComponentPad*%
%ADD29R,1.600000X1.600000*%
%TD*%
%TA.AperFunction,ComponentPad*%
%ADD30O,1.600000X1.600000*%
%TD*%
%TA.AperFunction,SMDPad,CuDef*%
%ADD31RoundRect,0.150000X-0.150000X0.825000X-0.150000X-0.825000X0.150000X-0.825000X0.150000X0.825000X0*%
%TD*%
%TA.AperFunction,SMDPad,CuDef*%
%ADD32RoundRect,0.250000X0.650000X-0.325000X0.650000X0.325000X-0.650000X0.325000X-0.650000X-0.325000X0*%
%TD*%
%TA.AperFunction,ComponentPad*%
%ADD33R,1.700000X1.700000*%
%TD*%
%TA.AperFunction,ComponentPad*%
%ADD34O,1.700000X1.700000*%
%TD*%
%TA.AperFunction,SMDPad,CuDef*%
%ADD35RoundRect,0.250000X-0.650000X0.325000X-0.650000X-0.325000X0.650000X-0.325000X0.650000X0.325000X0*%
%TD*%
%TA.AperFunction,ComponentPad*%
%ADD36C,1.200000*%
%TD*%
%TA.AperFunction,ViaPad*%
%ADD37C,0.800000*%
%TD*%
%TA.AperFunction,Conductor*%
%ADD38C,0.200000*%
%TD*%
G04 APERTURE END LIST*
D10*
%TO.P,R60,1*%
%TO.N,Net-(D1-A)*%
X179120800Y-105103300D03*
%TO.P,R60,2*%
%TO.N,GND*%
X179120800Y-103278300D03*
%TD*%
D11*
%TO.P,R55,1*%
%TO.N,Net-(U1A-+)*%
X179222400Y-83567900D03*
%TO.P,R55,2*%
%TO.N,Net-(NOT_THOONKY_SineBiasTrim1-Pad2)*%
X179222400Y-85392900D03*
%TD*%
%TO.P,R54,1*%
%TO.N,Net-(U1A-+)*%
X179070000Y-66560600D03*
%TO.P,R54,2*%
%TO.N,Net-(NOT_THONKY_SineShapeTrim1-Pad2)*%
X179070000Y-68385600D03*
%TD*%
D12*
%TO.P,R46,1*%
%TO.N,Net-(U2-VS)*%
X190095500Y-134493000D03*
%TO.P,R46,2*%
%TO.N,GND*%
X191920500Y-134493000D03*
%TD*%
%TO.P,R40,1*%
%TO.N,Net-(J5-PadR)*%
X190095500Y-132080000D03*
%TO.P,R40,2*%
%TO.N,Net-(U2-VPWM)*%
X191920500Y-132080000D03*
%TD*%
D13*
%TO.P,R39,1*%
%TO.N,Net-(U2-VEE)*%
X183741700Y-133654800D03*
%TO.P,R39,2*%
%TO.N,Net-(U2-SCALE2)*%
X181916700Y-133654800D03*
%TD*%
D11*
%TO.P,R38,1*%
%TO.N,Net-(NOT_THINKY_TEMKO1-Pad1)*%
X179324000Y-133910700D03*
%TO.P,R38,2*%
%TO.N,Net-(U2-SCALE1)*%
X179324000Y-135735700D03*
%TD*%
D14*
%TO.P,R10,1*%
%TO.N,+15V*%
X196850000Y-83757000D03*
%TO.P,R10,2*%
%TO.N,Net-(U2-VLFI)*%
X196850000Y-85407000D03*
%TD*%
D11*
%TO.P,R9,1*%
%TO.N,Net-(U2-VPWM)*%
X186385200Y-133961500D03*
%TO.P,R9,2*%
%TO.N,GND*%
X186385200Y-135786500D03*
%TD*%
D12*
%TO.P,R8,1*%
%TO.N,Net-(R8-Pad1)*%
X186082300Y-46634400D03*
%TO.P,R8,2*%
%TO.N,+15V*%
X187907300Y-46634400D03*
%TD*%
D13*
%TO.P,R7,1*%
%TO.N,Net-(C9-Pad1)*%
X189888500Y-88747600D03*
%TO.P,R7,2*%
%TO.N,Net-(U2-VFCI)*%
X188063500Y-88747600D03*
%TD*%
D10*
%TO.P,R5,1*%
%TO.N,Net-(R5-Pad1)*%
X196900800Y-52372900D03*
%TO.P,R5,2*%
%TO.N,+15V*%
X196900800Y-50547900D03*
%TD*%
D15*
%TO.P,R1,1*%
%TO.N,GND*%
X196900800Y-94957400D03*
%TO.P,R1,2*%
%TO.N,Net-(R1-Pad2)*%
X196900800Y-93307400D03*
%TD*%
D16*
%TO.P,J15,S*%
%TO.N,GND*%
X193040000Y-126290000D03*
D17*
%TO.P,J15,T*%
%TO.N,Net-(J15-PadR)*%
X193040000Y-114890000D03*
%TO.P,J15,TN*%
%TO.N,N/C*%
X193040000Y-123190000D03*
%TD*%
D16*
%TO.P,J1,S*%
%TO.N,GND*%
X182880000Y-95810000D03*
D17*
%TO.P,J1,T*%
%TO.N,Net-(SW1-B)*%
X182880000Y-84410000D03*
%TO.P,J1,TN*%
%TO.N,N/C*%
X182880000Y-92710000D03*
%TD*%
D16*
%TO.P,J5,S*%
%TO.N,GND*%
X182880000Y-126290000D03*
D17*
%TO.P,J5,T*%
%TO.N,Net-(J5-PadR)*%
X182880000Y-114890000D03*
%TO.P,J5,TN*%
%TO.N,N/C*%
X182880000Y-123190000D03*
%TD*%
D18*
%TO.P,D1,1,K*%
%TO.N,GND*%
X179070000Y-146538000D03*
%TO.P,D1,2,A*%
%TO.N,Net-(D1-A)*%
X179070000Y-144038000D03*
%TD*%
D16*
%TO.P,J2,S*%
%TO.N,GND*%
X182880000Y-140940000D03*
D17*
%TO.P,J2,T*%
%TO.N,Net-(J2-PadR)*%
X182880000Y-129540000D03*
%TO.P,J2,TN*%
%TO.N,N/C*%
X182880000Y-137840000D03*
%TD*%
D16*
%TO.P,J12,S*%
%TO.N,GND*%
X193040000Y-95810000D03*
D17*
%TO.P,J12,T*%
%TO.N,Net-(J12-PadR)*%
X193040000Y-84410000D03*
%TO.P,J12,TN*%
%TO.N,N/C*%
X193040000Y-92710000D03*
%TD*%
D19*
%TO.P,THONKY_FINE_CV1,1,1*%
%TO.N,Net-(R16-Pad1)*%
X185500000Y-58420000D03*
D20*
%TO.P,THONKY_FINE_CV1,2,2*%
%TO.N,Net-(R19-Pad1)*%
X188000000Y-58420000D03*
%TO.P,THONKY_FINE_CV1,3,3*%
%TO.N,Net-(R6-Pad2)*%
X190500000Y-58420000D03*
D21*
%TO.P,THONKY_FINE_CV1,MP*%
%TO.N,N/C*%
X183600000Y-51420000D03*
X192400000Y-51420000D03*
%TD*%
D22*
%TO.P,SW1,1,A*%
%TO.N,Net-(SW1-A)*%
X179450000Y-78486000D03*
%TO.P,SW1,2,B*%
%TO.N,Net-(SW1-B)*%
X184150000Y-78486000D03*
%TO.P,SW1,3,C*%
%TO.N,Net-(SW1-C)*%
X188850000Y-78486000D03*
%TD*%
D16*
%TO.P,J13,S*%
%TO.N,GND*%
X193040000Y-111050000D03*
D17*
%TO.P,J13,T*%
%TO.N,Net-(J13-PadR)*%
X193040000Y-99650000D03*
%TO.P,J13,TN*%
%TO.N,N/C*%
X193040000Y-107950000D03*
%TD*%
D16*
%TO.P,J4,S*%
%TO.N,GND*%
X182880000Y-111050000D03*
D17*
%TO.P,J4,T*%
%TO.N,Net-(C1-Pad2)*%
X182880000Y-99650000D03*
%TO.P,J4,TN*%
%TO.N,N/C*%
X182880000Y-107950000D03*
%TD*%
D19*
%TO.P,THONKY_COURSE_CV1,1,1*%
%TO.N,Net-(R8-Pad1)*%
X185500000Y-43775000D03*
D20*
%TO.P,THONKY_COURSE_CV1,2,2*%
%TO.N,Net-(R20-Pad1)*%
X188000000Y-43775000D03*
%TO.P,THONKY_COURSE_CV1,3,3*%
%TO.N,Net-(R2-Pad2)*%
X190500000Y-43775000D03*
D21*
%TO.P,THONKY_COURSE_CV1,MP*%
%TO.N,N/C*%
X183600000Y-36775000D03*
X192400000Y-36775000D03*
%TD*%
D19*
%TO.P,THONKY_PWM1,1,1*%
%TO.N,Net-(R5-Pad1)*%
X185505000Y-73040000D03*
D20*
%TO.P,THONKY_PWM1,2,2*%
%TO.N,Net-(J5-PadR)*%
X188005000Y-73040000D03*
%TO.P,THONKY_PWM1,3,3*%
%TO.N,GND*%
X190505000Y-73040000D03*
D21*
%TO.P,THONKY_PWM1,MP*%
%TO.N,N/C*%
X183605000Y-66040000D03*
X192405000Y-66040000D03*
%TD*%
D16*
%TO.P,J14,S*%
%TO.N,GND*%
X193040000Y-140940000D03*
D17*
%TO.P,J14,T*%
%TO.N,Net-(J14-PadR)*%
X193040000Y-129540000D03*
%TO.P,J14,TN*%
%TO.N,N/C*%
X193040000Y-137840000D03*
%TD*%
D23*
%TO.P,C1,1*%
%TO.N,Net-(C1-Pad1)*%
X190247800Y-98145600D03*
%TO.P,C1,2*%
%TO.N,Net-(C1-Pad2)*%
X187297800Y-98145600D03*
%TD*%
D24*
%TO.P,NOT_THOONKY_SineBiasTrim1,1,1*%
%TO.N,-15V*%
X178943000Y-80986000D03*
%TO.P,NOT_THOONKY_SineBiasTrim1,2,2*%
%TO.N,Net-(NOT_THOONKY_SineBiasTrim1-Pad2)*%
X181443000Y-78486000D03*
%TO.P,NOT_THOONKY_SineBiasTrim1,3,3*%
%TO.N,+15V*%
X178943000Y-75986000D03*
%TD*%
%TO.P,NOT_THONKY_HF_TRACK1,1,1*%
%TO.N,Net-(U2-VHFT)*%
X181665000Y-42712000D03*
%TO.P,NOT_THONKY_HF_TRACK1,2,2*%
%TO.N,Net-(NOT_THONKY_HF_TRACK1-Pad2)*%
X179165000Y-45212000D03*
%TO.P,NOT_THONKY_HF_TRACK1,3,3*%
%TO.N,GND*%
X181665000Y-47712000D03*
%TD*%
D25*
%TO.P,R69,1*%
%TO.N,Net-(U4A--)*%
X196900800Y-101284500D03*
%TO.P,R69,2*%
%TO.N,Net-(J13-PadR)*%
X196900800Y-98359500D03*
%TD*%
D26*
%TO.P,R6,1*%
%TO.N,-15V*%
X187665900Y-61366400D03*
%TO.P,R6,2*%
%TO.N,Net-(R6-Pad2)*%
X190590900Y-61366400D03*
%TD*%
%TO.P,R34,1*%
%TO.N,-15V*%
X189139100Y-70307200D03*
%TO.P,R34,2*%
%TO.N,Net-(R3-Pad1)*%
X192064100Y-70307200D03*
%TD*%
D27*
%TO.P,R4,1*%
%TO.N,Net-(NOT+THINKY_CV1-Pad1)*%
X196900800Y-140117100D03*
%TO.P,R4,2*%
%TO.N,Net-(R26-Pad1)*%
X196900800Y-143042100D03*
%TD*%
D25*
%TO.P,R58,1*%
%TO.N,Net-(U2-VP)*%
X179120800Y-110377700D03*
%TO.P,R58,2*%
%TO.N,Net-(D1-A)*%
X179120800Y-107452700D03*
%TD*%
D28*
%TO.P,R11,1*%
%TO.N,Net-(C1-Pad1)*%
X190286100Y-103022400D03*
%TO.P,R11,2*%
%TO.N,Net-(U2-VLFI)*%
X187361100Y-103022400D03*
%TD*%
D27*
%TO.P,R37,1*%
%TO.N,+15V*%
X196951600Y-87996300D03*
%TO.P,R37,2*%
%TO.N,Net-(R1-Pad2)*%
X196951600Y-90921300D03*
%TD*%
D26*
%TO.P,R16,1*%
%TO.N,Net-(R16-Pad1)*%
X185278300Y-55981600D03*
%TO.P,R16,2*%
%TO.N,+15V*%
X188203300Y-55981600D03*
%TD*%
D29*
%TO.P,U4,1*%
%TO.N,Net-(U4A--)*%
X189230000Y-128270000D03*
D30*
%TO.P,U4,2,-*%
X189230000Y-125730000D03*
%TO.P,U4,3,+*%
%TO.N,Net-(U4A-+)*%
X189230000Y-123190000D03*
%TO.P,U4,4,V+*%
%TO.N,+15V*%
X189230000Y-120650000D03*
%TO.P,U4,5,+*%
%TO.N,Net-(U2-VTO)*%
X189230000Y-118110000D03*
%TO.P,U4,6,-*%
%TO.N,Net-(U4B--)*%
X189230000Y-115570000D03*
%TO.P,U4,7*%
%TO.N,Net-(NOT_THONKY_SineShapeTrim1-Pad1)*%
X189230000Y-113030000D03*
%TO.P,U4,8*%
%TO.N,Net-(U4C--)*%
X196850000Y-113030000D03*
%TO.P,U4,9,-*%
X196850000Y-115570000D03*
%TO.P,U4,10,+*%
%TO.N,Net-(D1-A)*%
X196850000Y-118110000D03*
%TO.P,U4,11,V-*%
%TO.N,-15V*%
X196850000Y-120650000D03*
%TO.P,U4,12,+*%
%TO.N,Net-(U2-VSO)*%
X196850000Y-123190000D03*
%TO.P,U4,13,-*%
%TO.N,Net-(U4D--)*%
X196850000Y-125730000D03*
%TO.P,U4,14*%
X196850000Y-128270000D03*
%TD*%
D27*
%TO.P,R20,1*%
%TO.N,Net-(R20-Pad1)*%
X186055000Y-83820000D03*
%TO.P,R20,2*%
%TO.N,Net-(U2-VFCI)*%
X186055000Y-86745000D03*
%TD*%
D25*
%TO.P,R67,1*%
%TO.N,Net-(U4D--)*%
X196850000Y-133644100D03*
%TO.P,R67,2*%
%TO.N,Net-(J14-PadR)*%
X196850000Y-130719100D03*
%TD*%
D31*
%TO.P,U1,1*%
%TO.N,unconnected-(U1-Pad1)*%
X183515000Y-75822000D03*
%TO.P,U1,2,DIODE_BIAS*%
%TO.N,GND*%
X184785000Y-75822000D03*
%TO.P,U1,3,+*%
X186055000Y-75822000D03*
%TO.P,U1,4,-*%
X187325000Y-75822000D03*
%TO.P,U1,5*%
%TO.N,unconnected-(U1-Pad5)*%
X188595000Y-75822000D03*
%TO.P,U1,6,V-*%
%TO.N,-15V*%
X189865000Y-75822000D03*
%TO.P,U1,7*%
%TO.N,GND*%
X191135000Y-75822000D03*
%TO.P,U1,8*%
X192405000Y-75822000D03*
%TO.P,U1,9*%
%TO.N,Net-(R3-Pad1)*%
X192405000Y-80772000D03*
%TO.P,U1,10*%
%TO.N,Net-(R1-Pad2)*%
X191135000Y-80772000D03*
%TO.P,U1,11,V+*%
%TO.N,+15V*%
X189865000Y-80772000D03*
%TO.P,U1,12*%
%TO.N,Net-(R1-Pad2)*%
X188595000Y-80772000D03*
%TO.P,U1,13,-*%
%TO.N,GND*%
X187325000Y-80772000D03*
%TO.P,U1,14,+*%
%TO.N,Net-(U1A-+)*%
X186055000Y-80772000D03*
%TO.P,U1,15,DIODE_BIAS*%
%TO.N,unconnected-(U1A-DIODE_BIAS-Pad15)*%
X184785000Y-80772000D03*
%TO.P,U1,16*%
%TO.N,Net-(R36-Pad2)*%
X183515000Y-80772000D03*
%TD*%
D25*
%TO.P,R26,1*%
%TO.N,Net-(R26-Pad1)*%
X196951600Y-138368500D03*
%TO.P,R26,2*%
%TO.N,Net-(U2-VFCI)*%
X196951600Y-135443500D03*
%TD*%
D26*
%TO.P,R64,1*%
%TO.N,Net-(U4B--)*%
X187411900Y-105460800D03*
%TO.P,R64,2*%
%TO.N,Net-(NOT_THONKY_SineShapeTrim1-Pad1)*%
X190336900Y-105460800D03*
%TD*%
D27*
%TO.P,R19,1*%
%TO.N,Net-(R19-Pad1)*%
X179222400Y-138237500D03*
%TO.P,R19,2*%
%TO.N,Net-(U2-VFCI)*%
X179222400Y-141162500D03*
%TD*%
%TO.P,R3,1*%
%TO.N,Net-(R3-Pad1)*%
X190296800Y-83525900D03*
%TO.P,R3,2*%
%TO.N,Net-(U4A-+)*%
X190296800Y-86450900D03*
%TD*%
D24*
%TO.P,NOT_THINK_SineLevelTrim1,1,1*%
%TO.N,Net-(NOT_THINK_SineLevelTrim1-Pad1)*%
X194310000Y-81026000D03*
%TO.P,NOT_THINK_SineLevelTrim1,2,2*%
X196810000Y-78526000D03*
%TO.P,NOT_THINK_SineLevelTrim1,3,3*%
%TO.N,+15V*%
X194310000Y-76026000D03*
%TD*%
D27*
%TO.P,R2,1*%
%TO.N,-15V*%
X189280800Y-38567900D03*
%TO.P,R2,2*%
%TO.N,Net-(R2-Pad2)*%
X189280800Y-41492900D03*
%TD*%
D24*
%TO.P,NOT_THONKY_SineShapeTrim1,1,1*%
%TO.N,Net-(NOT_THONKY_SineShapeTrim1-Pad1)*%
X181610000Y-56428000D03*
%TO.P,NOT_THONKY_SineShapeTrim1,2,2*%
%TO.N,Net-(NOT_THONKY_SineShapeTrim1-Pad2)*%
X179110000Y-58928000D03*
%TO.P,NOT_THONKY_SineShapeTrim1,3,3*%
X181610000Y-61428000D03*
%TD*%
D27*
%TO.P,R24,1*%
%TO.N,Net-(J2-PadR)*%
X182245000Y-87245000D03*
%TO.P,R24,2*%
%TO.N,Net-(U2-VFCI)*%
X182245000Y-90170000D03*
%TD*%
D32*
%TO.P,C2,1*%
%TO.N,GND*%
X179324000Y-95861400D03*
%TO.P,C2,2*%
%TO.N,Net-(C2-Pad2)*%
X179324000Y-92911400D03*
%TD*%
D25*
%TO.P,R17,1*%
%TO.N,Net-(U2-VFCI)*%
X194564000Y-135193500D03*
%TO.P,R17,2*%
%TO.N,Net-(NOT_THONKY_HF_TRACK1-Pad2)*%
X194564000Y-132268500D03*
%TD*%
D26*
%TO.P,R12,1*%
%TO.N,Net-(U2-VLFI)*%
X187310300Y-100584000D03*
%TO.P,R12,2*%
%TO.N,Net-(C2-Pad2)*%
X190235300Y-100584000D03*
%TD*%
D33*
%TO.P,J11,1,Pin_1*%
%TO.N,-15V*%
X193035000Y-146685000D03*
D34*
%TO.P,J11,2,Pin_2*%
X193035000Y-144145000D03*
%TO.P,J11,3,Pin_3*%
%TO.N,GND*%
X190495000Y-146685000D03*
%TO.P,J11,4,Pin_4*%
X190495000Y-144145000D03*
%TO.P,J11,5,Pin_5*%
X187955000Y-146685000D03*
%TO.P,J11,6,Pin_6*%
X187955000Y-144145000D03*
%TO.P,J11,7,Pin_7*%
X185415000Y-146685000D03*
%TO.P,J11,8,Pin_8*%
X185415000Y-144145000D03*
%TO.P,J11,9,Pin_9*%
%TO.N,+15V*%
X182875000Y-146685000D03*
%TO.P,J11,10,Pin_10*%
X182875000Y-144145000D03*
%TD*%
D35*
%TO.P,C7,1*%
%TO.N,Net-(SW1-A)*%
X182880000Y-102438200D03*
%TO.P,C7,2*%
%TO.N,Net-(U2-VHSI)*%
X182880000Y-105388200D03*
%TD*%
D27*
%TO.P,R51,1*%
%TO.N,GND*%
X178917600Y-70825900D03*
%TO.P,R51,2*%
%TO.N,Net-(U1A-+)*%
X178917600Y-73750900D03*
%TD*%
D28*
%TO.P,R36,1*%
%TO.N,Net-(NOT_THINK_SineLevelTrim1-Pad1)*%
X187187300Y-70307200D03*
%TO.P,R36,2*%
%TO.N,Net-(R36-Pad2)*%
X184262300Y-70307200D03*
%TD*%
D29*
%TO.P,U2,1,SCALE1*%
%TO.N,Net-(U2-SCALE1)*%
X179324000Y-130810000D03*
D30*
%TO.P,U2,2,SCALE2*%
%TO.N,Net-(U2-SCALE2)*%
X179324000Y-128270000D03*
%TO.P,U2,3,VEE*%
%TO.N,Net-(U2-VEE)*%
X179324000Y-125730000D03*
%TO.P,U2,4,VP*%
%TO.N,Net-(U2-VP)*%
X179324000Y-123190000D03*
%TO.P,U2,5,VPWM*%
%TO.N,Net-(U2-VPWM)*%
X179324000Y-120650000D03*
%TO.P,U2,6,VHSI*%
%TO.N,Net-(U2-VHSI)*%
X179324000Y-118110000D03*
%TO.P,U2,7,VHFT*%
%TO.N,Net-(U2-VHFT)*%
X179324000Y-115570000D03*
%TO.P,U2,8,VSO*%
%TO.N,Net-(U2-VSO)*%
X179324000Y-113030000D03*
%TO.P,U2,9,VSSI*%
%TO.N,Net-(U2-VSSI)*%
X186944000Y-113030000D03*
%TO.P,U2,10,VTO*%
%TO.N,Net-(U2-VTO)*%
X186944000Y-115570000D03*
%TO.P,U2,11,CAP*%
%TO.N,Net-(U2-CAP)*%
X186944000Y-118110000D03*
%TO.P,U2,12,GND*%
%TO.N,GND*%
X186944000Y-120650000D03*
%TO.P,U2,13,VLFI*%
%TO.N,Net-(U2-VLFI)*%
X186944000Y-123190000D03*
%TO.P,U2,14,VS*%
%TO.N,Net-(U2-VS)*%
X186944000Y-125730000D03*
%TO.P,U2,15,VFCI*%
%TO.N,Net-(U2-VFCI)*%
X186944000Y-128270000D03*
%TO.P,U2,16,VCC*%
%TO.N,+15V*%
X186944000Y-130810000D03*
%TD*%
D24*
%TO.P,NOT+THINKY_CV1,1,1*%
%TO.N,Net-(NOT+THINKY_CV1-Pad1)*%
X196905000Y-42966000D03*
%TO.P,NOT+THINKY_CV1,2,2*%
X194405000Y-45466000D03*
%TO.P,NOT+THINKY_CV1,3,3*%
%TO.N,+15V*%
X196905000Y-47966000D03*
%TD*%
D27*
%TO.P,R68,1*%
%TO.N,Net-(NOT_THONKY_SineShapeTrim1-Pad1)*%
X190093600Y-107503500D03*
%TO.P,R68,2*%
%TO.N,Net-(J12-PadR)*%
X190093600Y-110428500D03*
%TD*%
D35*
%TO.P,C9,1*%
%TO.N,Net-(C9-Pad1)*%
X188620400Y-90981000D03*
%TO.P,C9,2*%
%TO.N,GND*%
X188620400Y-93931000D03*
%TD*%
D27*
%TO.P,R62,1*%
%TO.N,GND*%
X187706000Y-107503500D03*
%TO.P,R62,2*%
%TO.N,Net-(U4B--)*%
X187706000Y-110428500D03*
%TD*%
D24*
%TO.P,NOT_THINKY_TEMKO1,1,1*%
%TO.N,Net-(NOT_THINKY_TEMKO1-Pad1)*%
X196850000Y-57698000D03*
%TO.P,NOT_THINKY_TEMKO1,2,2*%
%TO.N,Net-(U2-VEE)*%
X194350000Y-60198000D03*
%TO.P,NOT_THINKY_TEMKO1,3,3*%
X196850000Y-62698000D03*
%TD*%
D35*
%TO.P,C3,1*%
%TO.N,Net-(SW1-C)*%
X197002400Y-103020600D03*
%TO.P,C3,2*%
%TO.N,Net-(U2-VSSI)*%
X197002400Y-105970600D03*
%TD*%
D25*
%TO.P,R66,1*%
%TO.N,Net-(U4C--)*%
X196900800Y-110784100D03*
%TO.P,R66,2*%
%TO.N,Net-(J15-PadR)*%
X196900800Y-107859100D03*
%TD*%
D27*
%TO.P,R50,1*%
%TO.N,Net-(U2-VEE)*%
X187756800Y-63917100D03*
%TO.P,R50,2*%
%TO.N,-15V*%
X187756800Y-66842100D03*
%TD*%
D36*
%TO.P,PolyStirene!C11,1*%
%TO.N,GND*%
X189611000Y-139700000D03*
%TO.P,PolyStirene!C11,2*%
%TO.N,Net-(U2-CAP)*%
X187611000Y-139700000D03*
%TD*%
D37*
%TO.N,Net-(R20-Pad1)*%
X185727800Y-82709100D03*
%TO.N,Net-(R19-Pad1)*%
X180743400Y-135976800D03*
%TO.N,Net-(NOT_THONKY_SineShapeTrim1-Pad2)*%
X181199200Y-69392400D03*
%TO.N,Net-(NOT_THONKY_HF_TRACK1-Pad2)*%
X194969900Y-131148000D03*
%TO.N,Net-(U4A--)*%
X193435300Y-101948700D03*
%TO.N,Net-(NOT_THINKY_TEMKO1-Pad1)*%
X196786600Y-136756700D03*
%TO.N,Net-(NOT+THINKY_CV1-Pad1)*%
X195619300Y-139161600D03*
%TO.N,Net-(U2-VEE)*%
X186696900Y-68343900D03*
%TO.N,Net-(SW1-A)*%
X180866600Y-100424800D03*
%TO.N,Net-(U2-VFCI)*%
X185797200Y-138551700D03*
X187378500Y-91835600D03*
%TO.N,Net-(U2-VLFI)*%
X188468800Y-102891500D03*
X189514300Y-85355100D03*
%TO.N,Net-(U4A-+)*%
X191530100Y-87262100D03*
%TO.N,Net-(J12-PadR)*%
X190337700Y-108931200D03*
%TO.N,Net-(J2-PadR)*%
X186091300Y-88421500D03*
%TO.N,Net-(D1-A)*%
X179199500Y-111701400D03*
%TO.N,Net-(U2-VHSI)*%
X180713700Y-107554500D03*
%TO.N,GND*%
X180659400Y-72568100D03*
%TD*%
D38*
%TO.N,Net-(U2-VSO)*%
X196850000Y-123190000D02*
X195822700Y-123190000D01*
X179324000Y-113030000D02*
X180351300Y-113030000D01*
X191770100Y-119137400D02*
X195822700Y-123190000D01*
X186518700Y-119137400D02*
X191770100Y-119137400D01*
X184843000Y-117461700D02*
X186518700Y-119137400D01*
X184843000Y-113807200D02*
X184843000Y-117461700D01*
X183992000Y-112956200D02*
X184843000Y-113807200D01*
X180425100Y-112956200D02*
X183992000Y-112956200D01*
X180351300Y-113030000D02*
X180425100Y-112956200D01*
%TO.N,Net-(U2-VP)*%
X178271200Y-111227300D02*
X179120800Y-110377700D01*
X178271200Y-121109900D02*
X178271200Y-111227300D01*
X179324000Y-122162700D02*
X178271200Y-121109900D01*
X179324000Y-123190000D02*
X179324000Y-122162700D01*
%TO.N,Net-(R20-Pad1)*%
X185727800Y-83492800D02*
X185727800Y-82709100D01*
X186055000Y-83820000D02*
X185727800Y-83492800D01*
%TO.N,Net-(R19-Pad1)*%
X180743400Y-136716500D02*
X180743400Y-135976800D01*
X179222400Y-138237500D02*
X180743400Y-136716500D01*
%TO.N,Net-(R16-Pad1)*%
X185500000Y-56203300D02*
X185500000Y-58420000D01*
X185278300Y-55981600D02*
X185500000Y-56203300D01*
%TO.N,Net-(R8-Pad1)*%
X186082300Y-45484600D02*
X186082300Y-46634400D01*
X185500000Y-44902300D02*
X186082300Y-45484600D01*
X185500000Y-43775000D02*
X185500000Y-44902300D01*
%TO.N,Net-(R6-Pad2)*%
X190500000Y-61275500D02*
X190500000Y-58420000D01*
X190590900Y-61366400D02*
X190500000Y-61275500D01*
%TO.N,Net-(R5-Pad1)*%
X195401900Y-53871800D02*
X196900800Y-52372900D01*
X195401900Y-60620300D02*
X195401900Y-53871800D01*
X193776700Y-62245500D02*
X195401900Y-60620300D01*
X192820400Y-62245500D02*
X193776700Y-62245500D01*
X190499200Y-64566700D02*
X192820400Y-62245500D01*
X190499200Y-66178000D02*
X190499200Y-64566700D01*
X187630900Y-69046300D02*
X190499200Y-66178000D01*
X186831800Y-69046300D02*
X187630900Y-69046300D01*
X185505000Y-70373100D02*
X186831800Y-69046300D01*
X185505000Y-73040000D02*
X185505000Y-70373100D01*
%TO.N,Net-(R2-Pad2)*%
X190500000Y-42712100D02*
X190500000Y-43775000D01*
X189280800Y-41492900D02*
X190500000Y-42712100D01*
%TO.N,Net-(NOT_THOONKY_SineBiasTrim1-Pad2)*%
X181443000Y-83172300D02*
X181443000Y-78486000D01*
X179222400Y-85392900D02*
X181443000Y-83172300D01*
%TO.N,Net-(NOT_THONKY_SineShapeTrim1-Pad2)*%
X179110000Y-58928000D02*
X181610000Y-61428000D01*
X180076800Y-69392400D02*
X179070000Y-68385600D01*
X181199200Y-69392400D02*
X180076800Y-69392400D01*
%TO.N,Net-(NOT_THONKY_SineShapeTrim1-Pad1)*%
X189230000Y-113030000D02*
X189230000Y-112002700D01*
X188972700Y-108624400D02*
X190093600Y-107503500D01*
X188972700Y-111745400D02*
X188972700Y-108624400D01*
X189230000Y-112002700D02*
X188972700Y-111745400D01*
X190336900Y-107260200D02*
X190336900Y-105460800D01*
X190093600Y-107503500D02*
X190336900Y-107260200D01*
%TO.N,Net-(NOT_THONKY_HF_TRACK1-Pad2)*%
X194969900Y-131862600D02*
X194969900Y-131148000D01*
X194564000Y-132268500D02*
X194969900Y-131862600D01*
%TO.N,Net-(U4A--)*%
X196236600Y-101948700D02*
X196900800Y-101284500D01*
X193435300Y-101948700D02*
X196236600Y-101948700D01*
%TO.N,Net-(U4D--)*%
X195741300Y-132535400D02*
X196850000Y-133644100D01*
X195741300Y-130149200D02*
X195741300Y-132535400D01*
X196593200Y-129297300D02*
X195741300Y-130149200D01*
X196850000Y-129297300D02*
X196593200Y-129297300D01*
X196850000Y-128270000D02*
X196850000Y-129297300D01*
%TO.N,Net-(U4C--)*%
X196900800Y-111951900D02*
X196900800Y-110784100D01*
X196850000Y-112002700D02*
X196900800Y-111951900D01*
X196850000Y-113030000D02*
X196850000Y-112002700D01*
%TO.N,Net-(NOT_THINK_SineLevelTrim1-Pad1)*%
X196810000Y-78526000D02*
X194310000Y-81026000D01*
X196810000Y-73357900D02*
X196810000Y-78526000D01*
X192652900Y-69200800D02*
X196810000Y-73357900D01*
X188293700Y-69200800D02*
X192652900Y-69200800D01*
X187187300Y-70307200D02*
X188293700Y-69200800D01*
%TO.N,Net-(U4B--)*%
X189230000Y-115570000D02*
X188202700Y-115570000D01*
X186558200Y-106314500D02*
X187411900Y-105460800D01*
X186558200Y-110428500D02*
X186558200Y-106314500D01*
X185882800Y-111103900D02*
X186558200Y-110428500D01*
X185882800Y-113421700D02*
X185882800Y-111103900D01*
X187003800Y-114542700D02*
X185882800Y-113421700D01*
X187432300Y-114542700D02*
X187003800Y-114542700D01*
X188202700Y-115313100D02*
X187432300Y-114542700D01*
X188202700Y-115570000D02*
X188202700Y-115313100D01*
X186558200Y-110428500D02*
X187706000Y-110428500D01*
%TO.N,Net-(NOT_THINKY_TEMKO1-Pad1)*%
X180408100Y-134994800D02*
X179324000Y-133910700D01*
X184072400Y-134994800D02*
X180408100Y-134994800D01*
X185636200Y-136558600D02*
X184072400Y-134994800D01*
X187683400Y-136558600D02*
X185636200Y-136558600D01*
X187931900Y-136310100D02*
X187683400Y-136558600D01*
X196340000Y-136310100D02*
X187931900Y-136310100D01*
X196786600Y-136756700D02*
X196340000Y-136310100D01*
%TO.N,Net-(NOT+THINKY_CV1-Pad1)*%
X194405000Y-45466000D02*
X196905000Y-42966000D01*
X196574800Y-140117100D02*
X195619300Y-139161600D01*
X196900800Y-140117100D02*
X196574800Y-140117100D01*
%TO.N,Net-(U1A-+)*%
X178917600Y-73750900D02*
X180030700Y-73750900D01*
X179254500Y-66560600D02*
X179070000Y-66560600D01*
X181826500Y-69132600D02*
X179254500Y-66560600D01*
X181826500Y-72288900D02*
X181826500Y-69132600D01*
X180364500Y-73750900D02*
X181826500Y-72288900D01*
X180030700Y-73750900D02*
X180364500Y-73750900D01*
X186055000Y-81018200D02*
X186055000Y-80772000D01*
X185066800Y-82006400D02*
X186055000Y-81018200D01*
X183234900Y-82006400D02*
X185066800Y-82006400D01*
X182493700Y-81265200D02*
X183234900Y-82006400D01*
X182493700Y-78066800D02*
X182493700Y-81265200D01*
X180826800Y-76399900D02*
X182493700Y-78066800D01*
X180030700Y-76399900D02*
X180826800Y-76399900D01*
X180030700Y-73750900D02*
X180030700Y-76399900D01*
X180024700Y-82765600D02*
X179222400Y-83567900D01*
X180024700Y-80600500D02*
X180024700Y-82765600D01*
X178369900Y-78945700D02*
X180024700Y-80600500D01*
X178369900Y-77964600D02*
X178369900Y-78945700D01*
X179044400Y-77290100D02*
X178369900Y-77964600D01*
X179140500Y-77290100D02*
X179044400Y-77290100D01*
X180030700Y-76399900D02*
X179140500Y-77290100D01*
%TO.N,Net-(U2-VS)*%
X187971300Y-132368800D02*
X190095500Y-134493000D01*
X187971300Y-127784600D02*
X187971300Y-132368800D01*
X186944000Y-126757300D02*
X187971300Y-127784600D01*
X186944000Y-125730000D02*
X186944000Y-126757300D01*
%TO.N,Net-(U2-VPWM)*%
X179324000Y-120650000D02*
X180351300Y-120650000D01*
X187848200Y-135424500D02*
X186385200Y-133961500D01*
X190563100Y-135424500D02*
X187848200Y-135424500D01*
X191008000Y-134979600D02*
X190563100Y-135424500D01*
X191008000Y-132992500D02*
X191008000Y-134979600D01*
X191920500Y-132080000D02*
X191008000Y-132992500D01*
X185582200Y-133158500D02*
X186385200Y-133961500D01*
X185582200Y-123355200D02*
X185582200Y-133158500D01*
X182877000Y-120650000D02*
X185582200Y-123355200D01*
X180351300Y-120650000D02*
X182877000Y-120650000D01*
%TO.N,Net-(U2-SCALE2)*%
X179324000Y-128270000D02*
X179324000Y-129297300D01*
X180685800Y-132423900D02*
X181916700Y-133654800D01*
X180685700Y-132423900D02*
X180685800Y-132423900D01*
X180685700Y-130176000D02*
X180685700Y-132423900D01*
X179807000Y-129297300D02*
X180685700Y-130176000D01*
X179324000Y-129297300D02*
X179807000Y-129297300D01*
%TO.N,Net-(U2-VEE)*%
X181052600Y-130965700D02*
X183741700Y-133654800D01*
X181052600Y-128485900D02*
X181052600Y-130965700D01*
X179324000Y-126757300D02*
X181052600Y-128485900D01*
X179324000Y-125730000D02*
X179324000Y-126757300D01*
X188860200Y-67354000D02*
X188860200Y-64634700D01*
X187870300Y-68343900D02*
X188860200Y-67354000D01*
X186696900Y-68343900D02*
X187870300Y-68343900D01*
X188474400Y-64634700D02*
X188860200Y-64634700D01*
X187756800Y-63917100D02*
X188474400Y-64634700D01*
X189913300Y-64634700D02*
X194350000Y-60198000D01*
X188860200Y-64634700D02*
X189913300Y-64634700D01*
%TO.N,Net-(U2-SCALE1)*%
X179324000Y-130810000D02*
X179324000Y-131837300D01*
X178392500Y-134804200D02*
X179324000Y-135735700D01*
X178392500Y-132768800D02*
X178392500Y-134804200D01*
X179324000Y-131837300D02*
X178392500Y-132768800D01*
%TO.N,Net-(J5-PadR)*%
X190284000Y-131891500D02*
X190095500Y-132080000D01*
X190284000Y-125264400D02*
X190284000Y-131891500D01*
X189479600Y-124460000D02*
X190284000Y-125264400D01*
X189012800Y-124460000D02*
X189479600Y-124460000D01*
X188134900Y-123582100D02*
X189012800Y-124460000D01*
X188134900Y-122915500D02*
X188134900Y-123582100D01*
X187224100Y-122004700D02*
X188134900Y-122915500D01*
X186821000Y-122004700D02*
X187224100Y-122004700D01*
X182880000Y-118063700D02*
X186821000Y-122004700D01*
X182880000Y-114890000D02*
X182880000Y-118063700D01*
%TO.N,Net-(R36-Pad2)*%
X182987000Y-71582500D02*
X184262300Y-70307200D01*
X182987000Y-80244000D02*
X182987000Y-71582500D01*
X183515000Y-80772000D02*
X182987000Y-80244000D01*
%TO.N,Net-(SW1-A)*%
X182880000Y-102438200D02*
X180866600Y-100424800D01*
%TO.N,Net-(U2-VFCI)*%
X184864300Y-139484600D02*
X185797200Y-138551700D01*
X180900300Y-139484600D02*
X184864300Y-139484600D01*
X179222400Y-141162500D02*
X180900300Y-139484600D01*
X196701600Y-135193500D02*
X196951600Y-135443500D01*
X194564000Y-135193500D02*
X196701600Y-135193500D01*
X190342000Y-138551700D02*
X185797200Y-138551700D01*
X191196900Y-139406600D02*
X190342000Y-138551700D01*
X194024600Y-139406600D02*
X191196900Y-139406600D01*
X196047200Y-137384000D02*
X194024600Y-139406600D01*
X197046400Y-137384000D02*
X196047200Y-137384000D01*
X197417300Y-137013100D02*
X197046400Y-137384000D01*
X197417300Y-135909200D02*
X197417300Y-137013100D01*
X196951600Y-135443500D02*
X197417300Y-135909200D01*
X186055000Y-86745000D02*
X188057600Y-88747600D01*
X188057600Y-88747600D02*
X188063500Y-88747600D01*
X182245000Y-90170000D02*
X187378500Y-90170000D01*
X187378500Y-91835600D02*
X187378500Y-90170000D01*
X187378500Y-89426700D02*
X188057600Y-88747600D01*
X187378500Y-90170000D02*
X187378500Y-89426700D01*
%TO.N,Net-(U2-VLFI)*%
X187310300Y-102709800D02*
X187310300Y-100584000D01*
X187492000Y-102891500D02*
X187310300Y-102709800D01*
X187361100Y-103022400D02*
X187492000Y-102891500D01*
X187492000Y-102891500D02*
X188468800Y-102891500D01*
X191102900Y-85355100D02*
X189514300Y-85355100D01*
X191708900Y-85961100D02*
X191102900Y-85355100D01*
X196295900Y-85961100D02*
X191708900Y-85961100D01*
X196850000Y-85407000D02*
X196295900Y-85961100D01*
%TO.N,Net-(R26-Pad1)*%
X194970200Y-141111500D02*
X196900800Y-143042100D01*
X194970200Y-138923700D02*
X194970200Y-141111500D01*
X195525400Y-138368500D02*
X194970200Y-138923700D01*
X196951600Y-138368500D02*
X195525400Y-138368500D01*
%TO.N,Net-(SW1-C)*%
X193589100Y-103020600D02*
X197002400Y-103020600D01*
X191463700Y-100895200D02*
X193589100Y-103020600D01*
X191463700Y-98626700D02*
X191463700Y-100895200D01*
X192521800Y-97568600D02*
X191463700Y-98626700D01*
X195375300Y-97568600D02*
X192521800Y-97568600D01*
X197653800Y-95290100D02*
X195375300Y-97568600D01*
X197653800Y-94557900D02*
X197653800Y-95290100D01*
X197425100Y-94329200D02*
X197653800Y-94557900D01*
X196836900Y-94329200D02*
X197425100Y-94329200D01*
X195848200Y-93340500D02*
X196836900Y-94329200D01*
X195848200Y-92975000D02*
X195848200Y-93340500D01*
X190576200Y-87703000D02*
X195848200Y-92975000D01*
X189431500Y-87703000D02*
X190576200Y-87703000D01*
X188056400Y-86327900D02*
X189431500Y-87703000D01*
X188056400Y-79279600D02*
X188056400Y-86327900D01*
X188850000Y-78486000D02*
X188056400Y-79279600D01*
%TO.N,Net-(U4A-+)*%
X190718900Y-86450900D02*
X191530100Y-87262100D01*
X190296800Y-86450900D02*
X190718900Y-86450900D01*
%TO.N,Net-(R3-Pad1)*%
X192405000Y-81417700D02*
X192405000Y-80772000D01*
X190296800Y-83525900D02*
X192405000Y-81417700D01*
X192405000Y-80501000D02*
X192405000Y-80772000D01*
X192987000Y-79919000D02*
X192405000Y-80501000D01*
X192987000Y-71230100D02*
X192987000Y-79919000D01*
X192064100Y-70307200D02*
X192987000Y-71230100D01*
%TO.N,Net-(R1-Pad2)*%
X196900800Y-90972100D02*
X196900800Y-93307400D01*
X196951600Y-90921300D02*
X196900800Y-90972100D01*
X188595000Y-80474800D02*
X188595000Y-80772000D01*
X189559400Y-79510400D02*
X188595000Y-80474800D01*
X190137800Y-79510400D02*
X189559400Y-79510400D01*
X191135000Y-80507600D02*
X190137800Y-79510400D01*
X191135000Y-80772000D02*
X191135000Y-80507600D01*
X194257500Y-90921300D02*
X196951600Y-90921300D01*
X190578000Y-87241800D02*
X194257500Y-90921300D01*
X189433300Y-87241800D02*
X190578000Y-87241800D01*
X188595000Y-86403500D02*
X189433300Y-87241800D01*
X188595000Y-80772000D02*
X188595000Y-86403500D01*
%TO.N,Net-(J15-PadR)*%
X195766800Y-108993100D02*
X196900800Y-107859100D01*
X195766800Y-112163200D02*
X195766800Y-108993100D01*
X193040000Y-114890000D02*
X195766800Y-112163200D01*
%TO.N,Net-(J14-PadR)*%
X195350600Y-127229400D02*
X193040000Y-129540000D01*
X197310000Y-127229400D02*
X195350600Y-127229400D01*
X197882600Y-127802000D02*
X197310000Y-127229400D01*
X197882600Y-129686500D02*
X197882600Y-127802000D01*
X196850000Y-130719100D02*
X197882600Y-129686500D01*
%TO.N,Net-(J13-PadR)*%
X194330500Y-98359500D02*
X193040000Y-99650000D01*
X196900800Y-98359500D02*
X194330500Y-98359500D01*
%TO.N,Net-(J12-PadR)*%
X190337700Y-110184400D02*
X190337700Y-108931200D01*
X190093600Y-110428500D02*
X190337700Y-110184400D01*
%TO.N,+15V*%
X197558000Y-84465000D02*
X196850000Y-83757000D01*
X197558000Y-87389900D02*
X197558000Y-84465000D01*
X196951600Y-87996300D02*
X197558000Y-87389900D01*
X197882600Y-51529700D02*
X196900800Y-50547900D01*
X197882600Y-54270800D02*
X197882600Y-51529700D01*
X195812700Y-56340700D02*
X197882600Y-54270800D01*
X195812700Y-63780800D02*
X195812700Y-56340700D01*
X197882600Y-65850700D02*
X195812700Y-63780800D01*
X197882600Y-82724400D02*
X197882600Y-65850700D01*
X196850000Y-83757000D02*
X197882600Y-82724400D01*
X186944000Y-130810000D02*
X186944000Y-129782700D01*
X188057000Y-119477000D02*
X189230000Y-120650000D01*
X186395500Y-119477000D02*
X188057000Y-119477000D01*
X184515600Y-117597100D02*
X186395500Y-119477000D01*
X184515600Y-113942600D02*
X184515600Y-117597100D01*
X183921500Y-113348500D02*
X184515600Y-113942600D01*
X181866500Y-113348500D02*
X183921500Y-113348500D01*
X181350000Y-113865000D02*
X181866500Y-113348500D01*
X181350000Y-117996100D02*
X181350000Y-113865000D01*
X185916700Y-122562800D02*
X181350000Y-117996100D01*
X185916700Y-128755400D02*
X185916700Y-122562800D01*
X186944000Y-129782700D02*
X185916700Y-128755400D01*
X191400200Y-83502800D02*
X193096800Y-81806200D01*
X191400200Y-84041500D02*
X191400200Y-83502800D01*
X191123700Y-84318000D02*
X191400200Y-84041500D01*
X189465500Y-84318000D02*
X191123700Y-84318000D01*
X189193400Y-84045900D02*
X189465500Y-84318000D01*
X189193400Y-81443600D02*
X189193400Y-84045900D01*
X189865000Y-80772000D02*
X189193400Y-81443600D01*
X193096800Y-80272200D02*
X193096800Y-81806200D01*
X194310000Y-79059000D02*
X193096800Y-80272200D01*
X194310000Y-76026000D02*
X194310000Y-79059000D01*
X195047600Y-83757000D02*
X196850000Y-83757000D01*
X193096800Y-81806200D02*
X195047600Y-83757000D01*
X196905000Y-47966000D02*
X196900800Y-47970200D01*
X196900800Y-47970200D02*
X196900800Y-50547900D01*
X189243100Y-54941800D02*
X189243100Y-47970200D01*
X188203300Y-55981600D02*
X189243100Y-54941800D01*
X196900800Y-47970200D02*
X189243100Y-47970200D01*
X189243100Y-47970200D02*
X187907300Y-46634400D01*
%TO.N,-15V*%
X186872600Y-60573100D02*
X187665900Y-61366400D01*
X186872600Y-40976100D02*
X186872600Y-60573100D01*
X189280800Y-38567900D02*
X186872600Y-40976100D01*
X196850000Y-120650000D02*
X196850000Y-119622700D01*
X186627400Y-62404900D02*
X187665900Y-61366400D01*
X186627400Y-65712700D02*
X186627400Y-62404900D01*
X187756800Y-66842100D02*
X186627400Y-65712700D01*
X189139100Y-75096100D02*
X189139100Y-74558700D01*
X189865000Y-75822000D02*
X189139100Y-75096100D01*
X189139100Y-74558700D02*
X189139100Y-70307200D01*
X189139100Y-74558700D02*
X184496800Y-74558700D01*
X187218500Y-66842100D02*
X187756800Y-66842100D01*
X185075500Y-68985100D02*
X187218500Y-66842100D01*
X185075500Y-71342700D02*
X185075500Y-68985100D01*
X184377600Y-72040600D02*
X185075500Y-71342700D01*
X184377600Y-74439500D02*
X184377600Y-72040600D01*
X184496800Y-74558700D02*
X184377600Y-74439500D01*
X197882600Y-118590100D02*
X196850000Y-119622700D01*
X197882600Y-117621500D02*
X197882600Y-118590100D01*
X197016400Y-116755300D02*
X197882600Y-117621500D01*
X186615000Y-116755300D02*
X197016400Y-116755300D01*
X185555400Y-115695700D02*
X186615000Y-116755300D01*
X185555400Y-106399500D02*
X185555400Y-115695700D01*
X183507800Y-104351900D02*
X185555400Y-106399500D01*
X178800400Y-104351900D02*
X183507800Y-104351900D01*
X178159900Y-103711400D02*
X178800400Y-104351900D01*
X178159900Y-86362900D02*
X178159900Y-103711400D01*
X178305200Y-86217600D02*
X178159900Y-86362900D01*
X178221200Y-86133600D02*
X178305200Y-86217600D01*
X178221200Y-81707800D02*
X178221200Y-86133600D01*
X178943000Y-80986000D02*
X178221200Y-81707800D01*
X184221600Y-74833900D02*
X184496800Y-74558700D01*
X184221600Y-76988900D02*
X184221600Y-74833900D01*
X186595200Y-79362500D02*
X184221600Y-76988900D01*
X186595200Y-81775500D02*
X186595200Y-79362500D01*
X186310700Y-82060000D02*
X186595200Y-81775500D01*
X185476200Y-82060000D02*
X186310700Y-82060000D01*
X184482300Y-83053900D02*
X185476200Y-82060000D01*
X184482300Y-85397200D02*
X184482300Y-83053900D01*
X183661900Y-86217600D02*
X184482300Y-85397200D01*
X178305200Y-86217600D02*
X183661900Y-86217600D01*
%TO.N,Net-(J2-PadR)*%
X183421500Y-88421500D02*
X186091300Y-88421500D01*
X182245000Y-87245000D02*
X183421500Y-88421500D01*
%TO.N,Net-(D1-A)*%
X181398800Y-112558200D02*
X180236300Y-111395700D01*
X184172700Y-112558200D02*
X181398800Y-112558200D01*
X185170400Y-113555900D02*
X184172700Y-112558200D01*
X185170400Y-115773700D02*
X185170400Y-113555900D01*
X186479400Y-117082700D02*
X185170400Y-115773700D01*
X194795400Y-117082700D02*
X186479400Y-117082700D01*
X195822700Y-118110000D02*
X194795400Y-117082700D01*
X179505200Y-111395700D02*
X180236300Y-111395700D01*
X179199500Y-111701400D02*
X179505200Y-111395700D01*
X196850000Y-118110000D02*
X195822700Y-118110000D01*
X180236300Y-108568200D02*
X179120800Y-107452700D01*
X180236300Y-111395700D02*
X180236300Y-108568200D01*
X179120800Y-107452700D02*
X179120800Y-105103300D01*
%TO.N,Net-(C9-Pad1)*%
X188620400Y-90015700D02*
X189888500Y-88747600D01*
X188620400Y-90981000D02*
X188620400Y-90015700D01*
%TO.N,Net-(U2-VHSI)*%
X180713700Y-107554500D02*
X182880000Y-105388200D01*
%TO.N,Net-(U2-VSSI)*%
X195275900Y-107697100D02*
X197002400Y-105970600D01*
X195275900Y-111165700D02*
X195275900Y-107697100D01*
X193566200Y-112875400D02*
X195275900Y-111165700D01*
X191972100Y-112875400D02*
X193566200Y-112875400D01*
X190789900Y-114057600D02*
X191972100Y-112875400D01*
X188742100Y-114057600D02*
X190789900Y-114057600D01*
X187971300Y-113286800D02*
X188742100Y-114057600D01*
X187971300Y-113030000D02*
X187971300Y-113286800D01*
X186944000Y-113030000D02*
X187971300Y-113030000D01*
%TO.N,Net-(C2-Pad2)*%
X180767200Y-94354600D02*
X179324000Y-92911400D01*
X185174200Y-94354600D02*
X180767200Y-94354600D01*
X188445500Y-97625900D02*
X185174200Y-94354600D01*
X188445500Y-98794200D02*
X188445500Y-97625900D01*
X190235300Y-100584000D02*
X188445500Y-98794200D01*
%TO.N,GND*%
X187955000Y-144145000D02*
X189032300Y-144145000D01*
X193040000Y-140940000D02*
X191262700Y-140940000D01*
X190495000Y-144145000D02*
X189032300Y-144145000D01*
X190495000Y-141707700D02*
X191262700Y-140940000D01*
X190495000Y-144145000D02*
X190495000Y-141707700D01*
X191135000Y-73670000D02*
X190505000Y-73040000D01*
X191135000Y-75822000D02*
X191135000Y-73670000D01*
X182880000Y-126290000D02*
X182880000Y-127667300D01*
X185151900Y-134553200D02*
X186385200Y-135786500D01*
X185151900Y-129250600D02*
X185151900Y-134553200D01*
X183568600Y-127667300D02*
X185151900Y-129250600D01*
X182880000Y-127667300D02*
X183568600Y-127667300D01*
X179070000Y-146127300D02*
X179070000Y-146538000D01*
X182880000Y-142317300D02*
X179070000Y-146127300D01*
X182880000Y-140940000D02*
X182880000Y-142317300D01*
X185415000Y-144145000D02*
X187955000Y-144145000D01*
X184337700Y-143775000D02*
X182880000Y-142317300D01*
X184337700Y-144145000D02*
X184337700Y-143775000D01*
X185415000Y-144145000D02*
X184337700Y-144145000D01*
X190022700Y-139700000D02*
X191262700Y-140940000D01*
X189611000Y-139700000D02*
X190022700Y-139700000D01*
X182880000Y-95810000D02*
X181102700Y-95810000D01*
X190718600Y-135786500D02*
X186385200Y-135786500D01*
X191920500Y-134584600D02*
X190718600Y-135786500D01*
X191920500Y-134493000D02*
X191920500Y-134584600D01*
X192691300Y-133722200D02*
X191920500Y-134493000D01*
X192691300Y-131414000D02*
X192691300Y-133722200D01*
X192347200Y-131069900D02*
X192691300Y-131414000D01*
X192033000Y-131069900D02*
X192347200Y-131069900D01*
X191475200Y-130512100D02*
X192033000Y-131069900D01*
X191475200Y-128543500D02*
X191475200Y-130512100D01*
X192351400Y-127667300D02*
X191475200Y-128543500D01*
X193040000Y-127667300D02*
X192351400Y-127667300D01*
X193040000Y-126290000D02*
X193040000Y-127667300D01*
X192172400Y-124912700D02*
X193040000Y-124912700D01*
X191469900Y-124210200D02*
X192172400Y-124912700D01*
X191469900Y-123900800D02*
X191469900Y-124210200D01*
X189246400Y-121677300D02*
X191469900Y-123900800D01*
X188741700Y-121677300D02*
X189246400Y-121677300D01*
X187971300Y-120906900D02*
X188741700Y-121677300D01*
X187971300Y-120650000D02*
X187971300Y-120906900D01*
X186944000Y-120650000D02*
X187971300Y-120650000D01*
X193040000Y-126290000D02*
X193040000Y-124912700D01*
X178037400Y-51339600D02*
X181665000Y-47712000D01*
X178037400Y-69945700D02*
X178037400Y-51339600D01*
X178917600Y-70825900D02*
X178037400Y-69945700D01*
X187325000Y-75822000D02*
X186055000Y-75822000D01*
X193040000Y-111050000D02*
X193040000Y-109672700D01*
X186055000Y-75822000D02*
X184785000Y-75822000D01*
X178917600Y-70826300D02*
X178917600Y-70825900D01*
X180659400Y-72568100D02*
X178917600Y-70826300D01*
X181051300Y-95861400D02*
X181102700Y-95810000D01*
X179324000Y-95861400D02*
X181051300Y-95861400D01*
X179324000Y-95861400D02*
X179324000Y-103075100D01*
X179324000Y-103075100D02*
X179120800Y-103278300D01*
X188389800Y-106819700D02*
X187706000Y-107503500D01*
X188389800Y-104764500D02*
X188389800Y-106819700D01*
X188810700Y-104343600D02*
X188389800Y-104764500D01*
X190899400Y-104343600D02*
X188810700Y-104343600D01*
X191487200Y-104931400D02*
X190899400Y-104343600D01*
X191487200Y-108980700D02*
X191487200Y-104931400D01*
X192179200Y-109672700D02*
X191487200Y-108980700D01*
X193040000Y-109672700D02*
X192179200Y-109672700D01*
X196048200Y-95810000D02*
X193040000Y-95810000D01*
X196900800Y-94957400D02*
X196048200Y-95810000D01*
X180107000Y-103858100D02*
X179324000Y-103075100D01*
X184055700Y-103858100D02*
X180107000Y-103858100D01*
X184549500Y-104351900D02*
X184055700Y-103858100D01*
X187977200Y-104351900D02*
X184549500Y-104351900D01*
X188389800Y-104764500D02*
X187977200Y-104351900D01*
X190499400Y-95810000D02*
X188620400Y-93931000D01*
X193040000Y-95810000D02*
X190499400Y-95810000D01*
X187325000Y-84244400D02*
X187325000Y-80772000D01*
X185796000Y-85773400D02*
X187325000Y-84244400D01*
X185401200Y-85773400D02*
X185796000Y-85773400D01*
X184890500Y-86284100D02*
X185401200Y-85773400D01*
X184890500Y-87243200D02*
X184890500Y-86284100D01*
X185415000Y-87767700D02*
X184890500Y-87243200D01*
X186324800Y-87767700D02*
X185415000Y-87767700D01*
X186718800Y-88161700D02*
X186324800Y-87767700D01*
X186718800Y-88746200D02*
X186718800Y-88161700D01*
X186368000Y-89097000D02*
X186718800Y-88746200D01*
X181635500Y-89097000D02*
X186368000Y-89097000D01*
X181097400Y-89635100D02*
X181635500Y-89097000D01*
X181097400Y-90659000D02*
X181097400Y-89635100D01*
X181560900Y-91122500D02*
X181097400Y-90659000D01*
X184159400Y-91122500D02*
X181560900Y-91122500D01*
X186967900Y-93931000D02*
X184159400Y-91122500D01*
X188620400Y-93931000D02*
X186967900Y-93931000D01*
X187325000Y-80772000D02*
X187325000Y-77030300D01*
X187325000Y-77030300D02*
X187325000Y-75822000D01*
X192405000Y-75822000D02*
X191135000Y-75822000D01*
X190169200Y-77030300D02*
X187325000Y-77030300D01*
X191135000Y-76064500D02*
X190169200Y-77030300D01*
X191135000Y-75822000D02*
X191135000Y-76064500D01*
%TO.N,Net-(C1-Pad2)*%
X184384400Y-98145600D02*
X182880000Y-99650000D01*
X187297800Y-98145600D02*
X184384400Y-98145600D01*
%TO.N,Net-(C1-Pad1)*%
X191030000Y-98927800D02*
X190247800Y-98145600D01*
X191030000Y-102278500D02*
X191030000Y-98927800D01*
X190286100Y-103022400D02*
X191030000Y-102278500D01*
%TD*%
%TA.AperFunction,Conductor*%
%TO.N,GND*%
G36*
X190105628Y-139179885D02*
G01*
X190126270Y-139196519D01*
X190732677Y-139802926D01*
X190743372Y-139815121D01*
X190762913Y-139840588D01*
X190794825Y-139865075D01*
X190794827Y-139865077D01*
X190846283Y-139904560D01*
X190890024Y-139938124D01*
X190901975Y-139943074D01*
X190925259Y-139952719D01*
X190981653Y-139976077D01*
X191038050Y-139999438D01*
X191157015Y-140015100D01*
X191157022Y-140015100D01*
X191196900Y-140020350D01*
X191228720Y-140016160D01*
X191244905Y-140015100D01*
X193976595Y-140015100D01*
X193992779Y-140016160D01*
X194024600Y-140020350D01*
X194064480Y-140015100D01*
X194064485Y-140015100D01*
X194164056Y-140001991D01*
X194183451Y-139999438D01*
X194190247Y-139996622D01*
X194259717Y-139989154D01*
X194322196Y-140020429D01*
X194357848Y-140080518D01*
X194361700Y-140111184D01*
X194361700Y-141063495D01*
X194360639Y-141079680D01*
X194356449Y-141111499D01*
X194361700Y-141151379D01*
X194361700Y-141151385D01*
X194366534Y-141188100D01*
X194377362Y-141270351D01*
X194438675Y-141418375D01*
X194511696Y-141513538D01*
X194511713Y-141513560D01*
X194511723Y-141513572D01*
X194511725Y-141513574D01*
X194520910Y-141525544D01*
X194536214Y-141545488D01*
X194561678Y-141565027D01*
X194573873Y-141575722D01*
X195490456Y-142492305D01*
X195523941Y-142553628D01*
X195526133Y-142592588D01*
X195517619Y-142675922D01*
X195517617Y-142675943D01*
X195517300Y-142679055D01*
X195517300Y-142682201D01*
X195517300Y-142682202D01*
X195517300Y-143401995D01*
X195517300Y-143402014D01*
X195517301Y-143405144D01*
X195517620Y-143408275D01*
X195517621Y-143408278D01*
X195527912Y-143509025D01*
X195583684Y-143677336D01*
X195676771Y-143828254D01*
X195802145Y-143953628D01*
X195802147Y-143953629D01*
X195802148Y-143953630D01*
X195953062Y-144046715D01*
X195970047Y-144052343D01*
X196121373Y-144102487D01*
X196167402Y-144107189D01*
X196225255Y-144113100D01*
X197576344Y-144113099D01*
X197680226Y-144102487D01*
X197848538Y-144046715D01*
X197930404Y-143996219D01*
X197997794Y-143977779D01*
X198064457Y-143998701D01*
X198109227Y-144052343D01*
X198119499Y-144101758D01*
X198119500Y-148465500D01*
X198099815Y-148532539D01*
X198047011Y-148578294D01*
X197995500Y-148589500D01*
X177924500Y-148589500D01*
X177857461Y-148569815D01*
X177811706Y-148517011D01*
X177800500Y-148465500D01*
X177800500Y-146685000D01*
X181511843Y-146685000D01*
X181530435Y-146909363D01*
X181585705Y-147127618D01*
X181676138Y-147333788D01*
X181676140Y-147333791D01*
X181799278Y-147522268D01*
X181951760Y-147687906D01*
X182129424Y-147826189D01*
X182327426Y-147933342D01*
X182540365Y-148006444D01*
X182762431Y-148043500D01*
X182987569Y-148043500D01*
X183209635Y-148006444D01*
X183422574Y-147933342D01*
X183620576Y-147826189D01*
X183798240Y-147687906D01*
X183950722Y-147522268D01*
X184073860Y-147333791D01*
X184164296Y-147127616D01*
X184219564Y-146909368D01*
X184238156Y-146685000D01*
X184219564Y-146460632D01*
X184164296Y-146242384D01*
X184073860Y-146036209D01*
X183950722Y-145847732D01*
X183798240Y-145682094D01*
X183620576Y-145543811D01*
X183620575Y-145543810D01*
X183584067Y-145524053D01*
X183534477Y-145474833D01*
X183519370Y-145406616D01*
X183543541Y-145341061D01*
X183584066Y-145305946D01*
X183620576Y-145286189D01*
X183798240Y-145147906D01*
X183950722Y-144982268D01*
X184073860Y-144793791D01*
X184164296Y-144587616D01*
X184219564Y-144369368D01*
X184238156Y-144145000D01*
X184238156Y-144144999D01*
X191671843Y-144144999D01*
X191690435Y-144369363D01*
X191745705Y-144587618D01*
X191836138Y-144793788D01*
X191959281Y-144982273D01*
X192104489Y-145140009D01*
X192135412Y-145202663D01*
X192127552Y-145272089D01*
X192083405Y-145326245D01*
X192056595Y-145340173D01*
X191938795Y-145384111D01*
X191821738Y-145471738D01*
X191734110Y-145588796D01*
X191683011Y-145725794D01*
X191676853Y-145783075D01*
X191676500Y-145786362D01*
X191676500Y-147583638D01*
X191676852Y-147586918D01*
X191676853Y-147586924D01*
X191683011Y-147644205D01*
X191734110Y-147781203D01*
X191821738Y-147898261D01*
X191938796Y-147985889D01*
X192075794Y-148036988D01*
X192075797Y-148036988D01*
X192075799Y-148036989D01*
X192136362Y-148043500D01*
X192139672Y-148043500D01*
X193930328Y-148043500D01*
X193933638Y-148043500D01*
X193994201Y-148036989D01*
X193994203Y-148036988D01*
X193994205Y-148036988D01*
X194076097Y-148006443D01*
X194131204Y-147985889D01*
X194248261Y-147898261D01*
X194335889Y-147781204D01*
X194386989Y-147644201D01*
X194393500Y-147583638D01*
X194393500Y-145786362D01*
X194386989Y-145725799D01*
X194386988Y-145725797D01*
X194386988Y-145725794D01*
X194335889Y-145588796D01*
X194248261Y-145471738D01*
X194131203Y-145384110D01*
X194013405Y-145340173D01*
X193957471Y-145298302D01*
X193933055Y-145232837D01*
X193947907Y-145164564D01*
X193965507Y-145140011D01*
X194110722Y-144982268D01*
X194233860Y-144793791D01*
X194324296Y-144587616D01*
X194379564Y-144369368D01*
X194398156Y-144145000D01*
X194379564Y-143920632D01*
X194324296Y-143702384D01*
X194233860Y-143496209D01*
X194110722Y-143307732D01*
X193958240Y-143142094D01*
X193780576Y-143003811D01*
X193582574Y-142896658D01*
X193582573Y-142896657D01*
X193582572Y-142896657D01*
X193369636Y-142823556D01*
X193147569Y-142786500D01*
X192922431Y-142786500D01*
X192700363Y-142823556D01*
X192487427Y-142896657D01*
X192289424Y-143003811D01*
X192111760Y-143142094D01*
X191959279Y-143307730D01*
X191836138Y-143496211D01*
X191756691Y-143677336D01*
X191745704Y-143702384D01*
X191713830Y-143828252D01*
X191690435Y-143920636D01*
X191671843Y-144144999D01*
X184238156Y-144144999D01*
X184219564Y-143920632D01*
X184164296Y-143702384D01*
X184073860Y-143496209D01*
X183950722Y-143307732D01*
X183798240Y-143142094D01*
X183620576Y-143003811D01*
X183422574Y-142896658D01*
X183422573Y-142896657D01*
X183422572Y-142896657D01*
X183209636Y-142823556D01*
X182987569Y-142786500D01*
X182762431Y-142786500D01*
X182540363Y-142823556D01*
X182327427Y-142896657D01*
X182129424Y-143003811D01*
X181951760Y-143142094D01*
X181799279Y-143307730D01*
X181676138Y-143496211D01*
X181596691Y-143677336D01*
X181585704Y-143702384D01*
X181553830Y-143828252D01*
X181530435Y-143920636D01*
X181511843Y-144144999D01*
X181530435Y-144369363D01*
X181585705Y-144587618D01*
X181676138Y-144793788D01*
X181676140Y-144793791D01*
X181799278Y-144982268D01*
X181951760Y-145147906D01*
X182129424Y-145286189D01*
X182129426Y-145286190D01*
X182165931Y-145305946D01*
X182215521Y-145355165D01*
X182230629Y-145423382D01*
X182206458Y-145488937D01*
X182165931Y-145524054D01*
X182129426Y-145543809D01*
X181951760Y-145682094D01*
X181799279Y-145847730D01*
X181676138Y-146036211D01*
X181585705Y-146242381D01*
X181530435Y-146460636D01*
X181511843Y-146685000D01*
X177800500Y-146685000D01*
X177800500Y-144899543D01*
X177820185Y-144832504D01*
X177872989Y-144786749D01*
X177942147Y-144776805D01*
X178005703Y-144805830D01*
X178026070Y-144828414D01*
X178063802Y-144882300D01*
X178225700Y-145044198D01*
X178413251Y-145175523D01*
X178620757Y-145272284D01*
X178841913Y-145331543D01*
X178993970Y-145344846D01*
X179069999Y-145351498D01*
X179069999Y-145351497D01*
X179070000Y-145351498D01*
X179298087Y-145331543D01*
X179519243Y-145272284D01*
X179726749Y-145175523D01*
X179914300Y-145044198D01*
X180076198Y-144882300D01*
X180207523Y-144694749D01*
X180304284Y-144487243D01*
X180363543Y-144266087D01*
X180383498Y-144038000D01*
X180363543Y-143809913D01*
X180304284Y-143588757D01*
X180218665Y-143405145D01*
X180207525Y-143381255D01*
X180207524Y-143381254D01*
X180207523Y-143381251D01*
X180076198Y-143193700D01*
X179914300Y-143031802D01*
X179726749Y-142900477D01*
X179726746Y-142900476D01*
X179726744Y-142900474D01*
X179519246Y-142803717D01*
X179519243Y-142803716D01*
X179408664Y-142774086D01*
X179298084Y-142744456D01*
X179070000Y-142724501D01*
X178841915Y-142744456D01*
X178620753Y-142803717D01*
X178413255Y-142900474D01*
X178225696Y-143031805D01*
X178063801Y-143193700D01*
X178026074Y-143247580D01*
X177971497Y-143291205D01*
X177901999Y-143298397D01*
X177839644Y-143266874D01*
X177804231Y-143206644D01*
X177800500Y-143176456D01*
X177800500Y-142050145D01*
X177820185Y-141983106D01*
X177872989Y-141937351D01*
X177942147Y-141927407D01*
X178005703Y-141956432D01*
X178012181Y-141962464D01*
X178123745Y-142074028D01*
X178123747Y-142074029D01*
X178123748Y-142074030D01*
X178274662Y-142167115D01*
X178358818Y-142195001D01*
X178442973Y-142222887D01*
X178489002Y-142227589D01*
X178546855Y-142233500D01*
X179897944Y-142233499D01*
X180001826Y-142222887D01*
X180170138Y-142167115D01*
X180321052Y-142074030D01*
X180446430Y-141948652D01*
X180539515Y-141797738D01*
X180595287Y-141629426D01*
X180605900Y-141525545D01*
X180605899Y-140799456D01*
X180597065Y-140712985D01*
X180609834Y-140644296D01*
X180632739Y-140612708D01*
X181116028Y-140129419D01*
X181177352Y-140095934D01*
X181203710Y-140093100D01*
X184816295Y-140093100D01*
X184832479Y-140094160D01*
X184864300Y-140098350D01*
X184904180Y-140093100D01*
X184904185Y-140093100D01*
X185003756Y-140079991D01*
X185023151Y-140077438D01*
X185171176Y-140016124D01*
X185266372Y-139943077D01*
X185266372Y-139943075D01*
X185282664Y-139930575D01*
X185282665Y-139930573D01*
X185298287Y-139918587D01*
X185317836Y-139893109D01*
X185328516Y-139880931D01*
X185712929Y-139496519D01*
X185774253Y-139463034D01*
X185800611Y-139460200D01*
X185892689Y-139460200D01*
X186079485Y-139420495D01*
X186079486Y-139420494D01*
X186079488Y-139420494D01*
X186253952Y-139342818D01*
X186287927Y-139318134D01*
X186349540Y-139273369D01*
X186415346Y-139249888D01*
X186483400Y-139265713D01*
X186532095Y-139315818D01*
X186545971Y-139384296D01*
X186541693Y-139407619D01*
X186516705Y-139495442D01*
X186497751Y-139699999D01*
X186516706Y-139904560D01*
X186572924Y-140102150D01*
X186664496Y-140286049D01*
X186788299Y-140449992D01*
X186940115Y-140588390D01*
X186940117Y-140588391D01*
X186940118Y-140588392D01*
X187114782Y-140696540D01*
X187306345Y-140770751D01*
X187508282Y-140808500D01*
X187508284Y-140808500D01*
X187713716Y-140808500D01*
X187713718Y-140808500D01*
X187915655Y-140770751D01*
X188107218Y-140696540D01*
X188281882Y-140588392D01*
X188433701Y-140449991D01*
X188557503Y-140286050D01*
X188649074Y-140102152D01*
X188649086Y-140102113D01*
X188672349Y-140020349D01*
X188705294Y-139904559D01*
X188724249Y-139700000D01*
X188705294Y-139495441D01*
X188705294Y-139495439D01*
X188654846Y-139318134D01*
X188655432Y-139248267D01*
X188693699Y-139189808D01*
X188757496Y-139161318D01*
X188774112Y-139160200D01*
X190038589Y-139160200D01*
X190105628Y-139179885D01*
G37*
%TD.AperFunction*%
%TA.AperFunction,Conductor*%
G36*
X184967902Y-133299816D02*
G01*
X185001260Y-133346076D01*
X185050675Y-133465376D01*
X185123704Y-133560548D01*
X185123718Y-133560565D01*
X185123723Y-133560572D01*
X185123725Y-133560574D01*
X185148213Y-133592487D01*
X185148215Y-133592488D01*
X185151074Y-133596214D01*
X185176270Y-133661383D01*
X185176700Y-133671703D01*
X185176700Y-134271395D01*
X185176700Y-134271414D01*
X185176701Y-134274544D01*
X185177020Y-134277675D01*
X185177021Y-134277678D01*
X185187312Y-134378425D01*
X185238191Y-134531970D01*
X185243085Y-134546738D01*
X185276689Y-134601218D01*
X185336171Y-134697654D01*
X185461545Y-134823028D01*
X185461547Y-134823029D01*
X185461548Y-134823030D01*
X185612462Y-134916115D01*
X185696617Y-134944000D01*
X185780773Y-134971887D01*
X185826651Y-134976574D01*
X185884655Y-134982500D01*
X186494288Y-134982499D01*
X186561327Y-135002183D01*
X186581969Y-135018818D01*
X187301570Y-135738419D01*
X187335055Y-135799742D01*
X187330071Y-135869434D01*
X187288199Y-135925367D01*
X187222735Y-135949784D01*
X187213889Y-135950100D01*
X185939611Y-135950100D01*
X185872572Y-135930415D01*
X185851930Y-135913781D01*
X184639510Y-134701361D01*
X184606025Y-134640038D01*
X184611009Y-134570346D01*
X184621653Y-134548583D01*
X184622793Y-134546736D01*
X184696315Y-134427538D01*
X184752087Y-134259226D01*
X184762700Y-134155345D01*
X184762699Y-133393528D01*
X184782383Y-133326490D01*
X184835187Y-133280735D01*
X184904346Y-133270791D01*
X184967902Y-133299816D01*
G37*
%TD.AperFunction*%
%TA.AperFunction,Conductor*%
G36*
X181743402Y-121278185D02*
G01*
X181789157Y-121330989D01*
X181799101Y-121400147D01*
X181770076Y-121463703D01*
X181726450Y-121495934D01*
X181663853Y-121523573D01*
X181486724Y-121644908D01*
X181334908Y-121796724D01*
X181213573Y-121973853D01*
X181126849Y-122170262D01*
X181077693Y-122379260D01*
X181071648Y-122466355D01*
X181071647Y-122466376D01*
X181071500Y-122468498D01*
X181071500Y-123911502D01*
X181071647Y-123913624D01*
X181071648Y-123913644D01*
X181077693Y-124000739D01*
X181126849Y-124209737D01*
X181126850Y-124209739D01*
X181213573Y-124406146D01*
X181334908Y-124583275D01*
X181486725Y-124735092D01*
X181663854Y-124856427D01*
X181860261Y-124943150D01*
X182069260Y-124992306D01*
X182158498Y-124998500D01*
X182160638Y-124998500D01*
X183599362Y-124998500D01*
X183601502Y-124998500D01*
X183690740Y-124992306D01*
X183899739Y-124943150D01*
X184096146Y-124856427D01*
X184273275Y-124735092D01*
X184425092Y-124583275D01*
X184546427Y-124406146D01*
X184633150Y-124209739D01*
X184682306Y-124000740D01*
X184688500Y-123911502D01*
X184688500Y-123621409D01*
X184708185Y-123554371D01*
X184760989Y-123508616D01*
X184830147Y-123498672D01*
X184893703Y-123527697D01*
X184900167Y-123533716D01*
X184920822Y-123554371D01*
X184937382Y-123570931D01*
X184970867Y-123632255D01*
X184973700Y-123658611D01*
X184973700Y-132950732D01*
X184954015Y-133017771D01*
X184901211Y-133063526D01*
X184832053Y-133073470D01*
X184768497Y-133044445D01*
X184731994Y-132989736D01*
X184719195Y-132951112D01*
X184696315Y-132882062D01*
X184603230Y-132731148D01*
X184603229Y-132731147D01*
X184603228Y-132731145D01*
X184477854Y-132605771D01*
X184369536Y-132538960D01*
X184326938Y-132512685D01*
X184326937Y-132512684D01*
X184326936Y-132512684D01*
X184158626Y-132456912D01*
X184057875Y-132446619D01*
X184057859Y-132446618D01*
X184054745Y-132446300D01*
X184051598Y-132446300D01*
X183445111Y-132446300D01*
X183378072Y-132426615D01*
X183357430Y-132409981D01*
X182507630Y-131560181D01*
X182474145Y-131498858D01*
X182479129Y-131429166D01*
X182521001Y-131373233D01*
X182586465Y-131348816D01*
X182595311Y-131348500D01*
X183599362Y-131348500D01*
X183601502Y-131348500D01*
X183690740Y-131342306D01*
X183899739Y-131293150D01*
X184096146Y-131206427D01*
X184273275Y-131085092D01*
X184425092Y-130933275D01*
X184546427Y-130756146D01*
X184633150Y-130559739D01*
X184682306Y-130350740D01*
X184688500Y-130261502D01*
X184688500Y-128818498D01*
X184682306Y-128729260D01*
X184633150Y-128520261D01*
X184546427Y-128323854D01*
X184425092Y-128146725D01*
X184273275Y-127994908D01*
X184096146Y-127873573D01*
X183899739Y-127786850D01*
X183899737Y-127786849D01*
X183690739Y-127737693D01*
X183603644Y-127731648D01*
X183603624Y-127731647D01*
X183601502Y-127731500D01*
X182158498Y-127731500D01*
X182156376Y-127731647D01*
X182156355Y-127731648D01*
X182069260Y-127737693D01*
X181860262Y-127786849D01*
X181663857Y-127873571D01*
X181533353Y-127962967D01*
X181466921Y-127984612D01*
X181399332Y-127966906D01*
X181375596Y-127948347D01*
X180253554Y-126826305D01*
X180220069Y-126764982D01*
X180225053Y-126695290D01*
X180253550Y-126650947D01*
X180330198Y-126574300D01*
X180461523Y-126386749D01*
X180558284Y-126179243D01*
X180617543Y-125958087D01*
X180637498Y-125730000D01*
X180617543Y-125501913D01*
X180558284Y-125280757D01*
X180461523Y-125073251D01*
X180330198Y-124885700D01*
X180168300Y-124723802D01*
X179980749Y-124592477D01*
X179937653Y-124572381D01*
X179885214Y-124526208D01*
X179866063Y-124459014D01*
X179886279Y-124392133D01*
X179937654Y-124347618D01*
X179980749Y-124327523D01*
X180168300Y-124196198D01*
X180330198Y-124034300D01*
X180461523Y-123846749D01*
X180558284Y-123639243D01*
X180617543Y-123418087D01*
X180637498Y-123190000D01*
X180617543Y-122961913D01*
X180558284Y-122740757D01*
X180461523Y-122533251D01*
X180330198Y-122345700D01*
X180168300Y-122183802D01*
X179980749Y-122052477D01*
X179980745Y-122052475D01*
X179970203Y-122047559D01*
X179917765Y-122001386D01*
X179908048Y-121982627D01*
X179904414Y-121973853D01*
X179902249Y-121968628D01*
X179897510Y-121957188D01*
X179890041Y-121887721D01*
X179921314Y-121825241D01*
X179959668Y-121797352D01*
X179980749Y-121787523D01*
X180168300Y-121656198D01*
X180330198Y-121494300D01*
X180458284Y-121311373D01*
X180512859Y-121267752D01*
X180559857Y-121258500D01*
X181676363Y-121258500D01*
X181743402Y-121278185D01*
G37*
%TD.AperFunction*%
%TA.AperFunction,Conductor*%
G36*
X193148701Y-132571429D02*
G01*
X193180306Y-132633742D01*
X193181753Y-132643803D01*
X193191112Y-132735425D01*
X193245750Y-132900313D01*
X193246885Y-132903738D01*
X193264111Y-132931666D01*
X193339971Y-133054654D01*
X193465345Y-133180028D01*
X193465347Y-133180029D01*
X193465348Y-133180030D01*
X193616262Y-133273115D01*
X193661500Y-133288105D01*
X193784573Y-133328887D01*
X193830602Y-133333589D01*
X193888455Y-133339500D01*
X195239544Y-133339499D01*
X195316212Y-133331666D01*
X195329899Y-133330269D01*
X195398591Y-133343039D01*
X195449476Y-133390920D01*
X195466500Y-133453627D01*
X195466501Y-134007144D01*
X195466378Y-134002279D01*
X195450109Y-134070104D01*
X195399665Y-134118449D01*
X195331092Y-134131847D01*
X195329960Y-134131737D01*
X195242675Y-134122819D01*
X195242659Y-134122818D01*
X195239545Y-134122500D01*
X195236397Y-134122500D01*
X193891604Y-134122500D01*
X193891584Y-134122500D01*
X193888456Y-134122501D01*
X193885325Y-134122820D01*
X193885321Y-134122821D01*
X193784574Y-134133112D01*
X193616263Y-134188884D01*
X193465345Y-134281971D01*
X193339971Y-134407345D01*
X193246884Y-134558263D01*
X193191112Y-134726573D01*
X193180819Y-134827324D01*
X193180818Y-134827341D01*
X193180500Y-134830455D01*
X193180500Y-134833601D01*
X193180500Y-134833602D01*
X193180500Y-135553395D01*
X193180500Y-135553414D01*
X193180501Y-135556544D01*
X193180820Y-135559670D01*
X193180821Y-135559683D01*
X193181364Y-135564993D01*
X193168598Y-135633686D01*
X193120719Y-135684573D01*
X193058007Y-135701600D01*
X191445910Y-135701600D01*
X191378871Y-135681915D01*
X191333116Y-135629111D01*
X191323172Y-135559953D01*
X191352197Y-135496397D01*
X191358228Y-135489920D01*
X191404331Y-135443816D01*
X191416510Y-135433135D01*
X191441987Y-135413587D01*
X191456113Y-135395176D01*
X191456117Y-135395173D01*
X191466476Y-135381672D01*
X191466478Y-135381671D01*
X191539524Y-135286476D01*
X191600838Y-135138451D01*
X191621751Y-134979600D01*
X191617558Y-134947753D01*
X191616500Y-134931602D01*
X191616500Y-133412498D01*
X191636185Y-133345459D01*
X191688989Y-133299705D01*
X191740500Y-133288499D01*
X192230395Y-133288499D01*
X192233544Y-133288499D01*
X192337426Y-133277887D01*
X192505738Y-133222115D01*
X192656652Y-133129030D01*
X192782030Y-133003652D01*
X192875115Y-132852738D01*
X192930887Y-132684426D01*
X192935037Y-132643802D01*
X192961433Y-132579112D01*
X193018613Y-132538960D01*
X193088424Y-132536096D01*
X193148701Y-132571429D01*
G37*
%TD.AperFunction*%
%TA.AperFunction,Conductor*%
G36*
X183824474Y-116681072D02*
G01*
X183881104Y-116721997D01*
X183906618Y-116787042D01*
X183907100Y-116797966D01*
X183907100Y-117549095D01*
X183906039Y-117565280D01*
X183901849Y-117597099D01*
X183907100Y-117636979D01*
X183907100Y-117636985D01*
X183914238Y-117691200D01*
X183922761Y-117755949D01*
X183984075Y-117903976D01*
X184057096Y-117999138D01*
X184057113Y-117999160D01*
X184057123Y-117999172D01*
X184057125Y-117999174D01*
X184076037Y-118023820D01*
X184081614Y-118031088D01*
X184107078Y-118050627D01*
X184119273Y-118061322D01*
X185931277Y-119873326D01*
X185941972Y-119885521D01*
X185961513Y-119910988D01*
X185993425Y-119935475D01*
X185993427Y-119935477D01*
X186088623Y-120008524D01*
X186236646Y-120069837D01*
X186236649Y-120069838D01*
X186256043Y-120072391D01*
X186355615Y-120085500D01*
X186355620Y-120085500D01*
X186395500Y-120090750D01*
X186427320Y-120086560D01*
X186443505Y-120085500D01*
X187753589Y-120085500D01*
X187820628Y-120105185D01*
X187841270Y-120121819D01*
X187929135Y-120209684D01*
X187962620Y-120271007D01*
X187961229Y-120329458D01*
X187936456Y-120421913D01*
X187916501Y-120649999D01*
X187936456Y-120878084D01*
X187995717Y-121099246D01*
X188092474Y-121306744D01*
X188092476Y-121306746D01*
X188092477Y-121306749D01*
X188223802Y-121494300D01*
X188385700Y-121656198D01*
X188573251Y-121787523D01*
X188598102Y-121799111D01*
X188616345Y-121807618D01*
X188668784Y-121853791D01*
X188687936Y-121920984D01*
X188667720Y-121987865D01*
X188616345Y-122032382D01*
X188573250Y-122052477D01*
X188399204Y-122174345D01*
X188332998Y-122196672D01*
X188265231Y-122179662D01*
X188240400Y-122160451D01*
X187688325Y-121608376D01*
X187677631Y-121596182D01*
X187658089Y-121570715D01*
X187658087Y-121570714D01*
X187658087Y-121570713D01*
X187626174Y-121546225D01*
X187626172Y-121546223D01*
X187626160Y-121546213D01*
X187626138Y-121546196D01*
X187530976Y-121473176D01*
X187382951Y-121411862D01*
X187363556Y-121409308D01*
X187264002Y-121396202D01*
X187263992Y-121396200D01*
X187263985Y-121396200D01*
X187263983Y-121396200D01*
X187263974Y-121396199D01*
X187224100Y-121390949D01*
X187192280Y-121395139D01*
X187176095Y-121396200D01*
X187124411Y-121396200D01*
X187057372Y-121376515D01*
X187036730Y-121359881D01*
X183524819Y-117847970D01*
X183491334Y-117786647D01*
X183488500Y-117760289D01*
X183488500Y-116822034D01*
X183508185Y-116754995D01*
X183560989Y-116709240D01*
X183603912Y-116698332D01*
X183690740Y-116692306D01*
X183754711Y-116677260D01*
X183824474Y-116681072D01*
G37*
%TD.AperFunction*%
%TA.AperFunction,Conductor*%
G36*
X191533728Y-119765585D02*
G01*
X191554370Y-119782219D01*
X192941970Y-121169819D01*
X192975455Y-121231142D01*
X192970471Y-121300834D01*
X192928599Y-121356767D01*
X192863135Y-121381184D01*
X192854289Y-121381500D01*
X192318498Y-121381500D01*
X192316376Y-121381647D01*
X192316355Y-121381648D01*
X192229260Y-121387693D01*
X192020262Y-121436849D01*
X191823853Y-121523573D01*
X191646724Y-121644908D01*
X191494908Y-121796724D01*
X191373573Y-121973853D01*
X191286849Y-122170262D01*
X191237693Y-122379260D01*
X191231648Y-122466355D01*
X191231647Y-122466376D01*
X191231500Y-122468498D01*
X191231500Y-123911502D01*
X191231647Y-123913624D01*
X191231648Y-123913644D01*
X191237693Y-124000739D01*
X191286849Y-124209737D01*
X191286850Y-124209739D01*
X191373573Y-124406146D01*
X191494908Y-124583275D01*
X191646725Y-124735092D01*
X191823854Y-124856427D01*
X192020261Y-124943150D01*
X192229260Y-124992306D01*
X192318498Y-124998500D01*
X192320638Y-124998500D01*
X193759362Y-124998500D01*
X193761502Y-124998500D01*
X193850740Y-124992306D01*
X194059739Y-124943150D01*
X194256146Y-124856427D01*
X194433275Y-124735092D01*
X194585092Y-124583275D01*
X194706427Y-124406146D01*
X194793150Y-124209739D01*
X194842306Y-124000740D01*
X194848500Y-123911502D01*
X194848500Y-123375710D01*
X194868185Y-123308672D01*
X194920989Y-123262917D01*
X194990147Y-123252973D01*
X195053703Y-123281998D01*
X195060181Y-123288030D01*
X195358477Y-123586326D01*
X195369172Y-123598521D01*
X195386735Y-123621410D01*
X195388713Y-123623987D01*
X195420625Y-123648474D01*
X195420629Y-123648478D01*
X195420635Y-123648482D01*
X195420651Y-123648496D01*
X195499437Y-123708950D01*
X195515824Y-123721524D01*
X195593176Y-123753564D01*
X195642632Y-123774050D01*
X195697035Y-123817891D01*
X195707559Y-123836203D01*
X195712477Y-123846749D01*
X195843802Y-124034300D01*
X196005700Y-124196198D01*
X196193251Y-124327523D01*
X196233334Y-124346214D01*
X196236345Y-124347618D01*
X196288784Y-124393791D01*
X196307936Y-124460984D01*
X196287720Y-124527865D01*
X196236344Y-124572382D01*
X196193251Y-124592477D01*
X196005700Y-124723802D01*
X196005696Y-124723805D01*
X195843805Y-124885696D01*
X195843802Y-124885699D01*
X195843802Y-124885700D01*
X195806075Y-124939580D01*
X195712474Y-125073255D01*
X195615717Y-125280753D01*
X195556456Y-125501915D01*
X195536501Y-125730000D01*
X195556456Y-125958084D01*
X195615717Y-126179246D01*
X195712474Y-126386744D01*
X195712476Y-126386746D01*
X195712477Y-126386749D01*
X195739805Y-126425778D01*
X195762132Y-126491982D01*
X195745122Y-126559750D01*
X195694174Y-126607563D01*
X195638230Y-126620900D01*
X195398605Y-126620900D01*
X195382420Y-126619839D01*
X195350598Y-126615649D01*
X195310724Y-126620899D01*
X195310705Y-126620901D01*
X195211143Y-126634008D01*
X195191746Y-126636562D01*
X195043724Y-126697875D01*
X194949642Y-126770067D01*
X194949638Y-126770070D01*
X194948529Y-126770922D01*
X194948525Y-126770925D01*
X194916613Y-126795413D01*
X194916608Y-126795419D01*
X194916606Y-126795421D01*
X194897066Y-126820884D01*
X194886375Y-126833074D01*
X194005647Y-127713802D01*
X193944324Y-127747287D01*
X193889578Y-127746828D01*
X193850736Y-127737693D01*
X193763644Y-127731648D01*
X193763624Y-127731647D01*
X193761502Y-127731500D01*
X192318498Y-127731500D01*
X192316376Y-127731647D01*
X192316355Y-127731648D01*
X192229260Y-127737693D01*
X192020262Y-127786849D01*
X191823853Y-127873573D01*
X191646724Y-127994908D01*
X191494908Y-128146724D01*
X191373573Y-128323853D01*
X191286849Y-128520262D01*
X191237693Y-128729260D01*
X191231648Y-128816355D01*
X191231647Y-128816376D01*
X191231500Y-128818498D01*
X191231500Y-130261502D01*
X191231647Y-130263624D01*
X191231648Y-130263644D01*
X191237693Y-130350739D01*
X191286849Y-130559737D01*
X191373573Y-130756146D01*
X191376194Y-130759972D01*
X191397839Y-130826405D01*
X191380133Y-130893994D01*
X191338990Y-130935586D01*
X191335263Y-130937884D01*
X191335262Y-130937885D01*
X191284616Y-130969123D01*
X191184345Y-131030971D01*
X191104181Y-131111136D01*
X191042858Y-131144621D01*
X190973166Y-131139637D01*
X190917233Y-131097765D01*
X190892816Y-131032301D01*
X190892500Y-131023455D01*
X190892500Y-125312404D01*
X190893561Y-125296218D01*
X190897750Y-125264400D01*
X190892500Y-125224522D01*
X190892500Y-125224515D01*
X190876838Y-125105550D01*
X190815524Y-124957525D01*
X190767910Y-124895473D01*
X190742477Y-124862328D01*
X190742474Y-124862325D01*
X190735399Y-124853105D01*
X190735399Y-124853104D01*
X190728208Y-124843733D01*
X190717987Y-124830413D01*
X190692512Y-124810865D01*
X190680326Y-124800177D01*
X190163004Y-124282855D01*
X190129519Y-124221532D01*
X190134503Y-124151840D01*
X190163001Y-124107496D01*
X190236198Y-124034300D01*
X190367523Y-123846749D01*
X190464284Y-123639243D01*
X190523543Y-123418087D01*
X190543498Y-123190000D01*
X190523543Y-122961913D01*
X190464284Y-122740757D01*
X190367523Y-122533251D01*
X190236198Y-122345700D01*
X190074300Y-122183802D01*
X189886749Y-122052477D01*
X189876202Y-122047559D01*
X189843655Y-122032382D01*
X189791215Y-121986210D01*
X189772063Y-121919017D01*
X189792278Y-121852136D01*
X189843655Y-121807618D01*
X189861898Y-121799111D01*
X189886749Y-121787523D01*
X190074300Y-121656198D01*
X190236198Y-121494300D01*
X190367523Y-121306749D01*
X190464284Y-121099243D01*
X190523543Y-120878087D01*
X190543498Y-120650000D01*
X190523543Y-120421913D01*
X190464284Y-120200757D01*
X190410538Y-120085498D01*
X190367523Y-119993250D01*
X190330953Y-119941024D01*
X190308625Y-119874818D01*
X190325635Y-119807051D01*
X190376582Y-119759237D01*
X190432527Y-119745900D01*
X191466689Y-119745900D01*
X191533728Y-119765585D01*
G37*
%TD.AperFunction*%
%TA.AperFunction,Conductor*%
G36*
X179562627Y-94014584D02*
G01*
X179583269Y-94031218D01*
X180302977Y-94750926D01*
X180313672Y-94763121D01*
X180333213Y-94788588D01*
X180365125Y-94813075D01*
X180365127Y-94813077D01*
X180460323Y-94886124D01*
X180608346Y-94947437D01*
X180608349Y-94947438D01*
X180627743Y-94949991D01*
X180727315Y-94963100D01*
X180727320Y-94963100D01*
X180767200Y-94968350D01*
X180799020Y-94964160D01*
X180815205Y-94963100D01*
X184870789Y-94963100D01*
X184937828Y-94982785D01*
X184958470Y-94999419D01*
X186608736Y-96649685D01*
X186642221Y-96711008D01*
X186637237Y-96780700D01*
X186595365Y-96836633D01*
X186586152Y-96842904D01*
X186499147Y-96896569D01*
X186373771Y-97021945D01*
X186280684Y-97172863D01*
X186224912Y-97341173D01*
X186216277Y-97425703D01*
X186189881Y-97490394D01*
X186132700Y-97530546D01*
X186092919Y-97537100D01*
X184432405Y-97537100D01*
X184416220Y-97536039D01*
X184384398Y-97531849D01*
X184344524Y-97537099D01*
X184344505Y-97537101D01*
X184244943Y-97550208D01*
X184225546Y-97552762D01*
X184077524Y-97614075D01*
X183983442Y-97686267D01*
X183983438Y-97686270D01*
X183982329Y-97687122D01*
X183982325Y-97687125D01*
X183950413Y-97711613D01*
X183950408Y-97711619D01*
X183950406Y-97711621D01*
X183930866Y-97737084D01*
X183920175Y-97749274D01*
X183845647Y-97823802D01*
X183784324Y-97857287D01*
X183729578Y-97856828D01*
X183690736Y-97847693D01*
X183603644Y-97841648D01*
X183603624Y-97841647D01*
X183601502Y-97841500D01*
X182158498Y-97841500D01*
X182156376Y-97841647D01*
X182156355Y-97841648D01*
X182069260Y-97847693D01*
X181860262Y-97896849D01*
X181663853Y-97983573D01*
X181486724Y-98104908D01*
X181334908Y-98256724D01*
X181213573Y-98433853D01*
X181126849Y-98630262D01*
X181077693Y-98839260D01*
X181071648Y-98926355D01*
X181071647Y-98926376D01*
X181071500Y-98928498D01*
X181071500Y-98930638D01*
X181071500Y-99392300D01*
X181051815Y-99459339D01*
X180999011Y-99505094D01*
X180947500Y-99516300D01*
X180771111Y-99516300D01*
X180584314Y-99556004D01*
X180409848Y-99633681D01*
X180255348Y-99745933D01*
X180127557Y-99887858D01*
X180032072Y-100053243D01*
X179973058Y-100234870D01*
X179953096Y-100424800D01*
X179973058Y-100614729D01*
X180032072Y-100796356D01*
X180127557Y-100961741D01*
X180127560Y-100961744D01*
X180255347Y-101103666D01*
X180381182Y-101195091D01*
X180409848Y-101215918D01*
X180584314Y-101293595D01*
X180771111Y-101333300D01*
X180771113Y-101333300D01*
X180863189Y-101333300D01*
X180930228Y-101352985D01*
X180950870Y-101369619D01*
X181445815Y-101864564D01*
X181479300Y-101925887D01*
X181481492Y-101964847D01*
X181471819Y-102059522D01*
X181471817Y-102059543D01*
X181471500Y-102062655D01*
X181471500Y-102065801D01*
X181471500Y-102065802D01*
X181471500Y-102810595D01*
X181471500Y-102810614D01*
X181471501Y-102813744D01*
X181471820Y-102816875D01*
X181471821Y-102816878D01*
X181482112Y-102917625D01*
X181537884Y-103085936D01*
X181630971Y-103236854D01*
X181756345Y-103362228D01*
X181756347Y-103362229D01*
X181756348Y-103362230D01*
X181907262Y-103455315D01*
X181979030Y-103479096D01*
X182047227Y-103501694D01*
X182104672Y-103541466D01*
X182131495Y-103605982D01*
X182119180Y-103674758D01*
X182071637Y-103725958D01*
X182008223Y-103743400D01*
X179103811Y-103743400D01*
X179036772Y-103723715D01*
X179016130Y-103707081D01*
X178804719Y-103495670D01*
X178771234Y-103434347D01*
X178768400Y-103407989D01*
X178768400Y-94118899D01*
X178788085Y-94051860D01*
X178840889Y-94006105D01*
X178892400Y-93994899D01*
X179495588Y-93994899D01*
X179562627Y-94014584D01*
G37*
%TD.AperFunction*%
%TA.AperFunction,Conductor*%
G36*
X186159959Y-98773785D02*
G01*
X186205714Y-98826589D01*
X186216278Y-98865498D01*
X186224912Y-98950025D01*
X186280684Y-99118336D01*
X186373771Y-99269254D01*
X186406635Y-99302117D01*
X186440121Y-99363439D01*
X186435137Y-99433131D01*
X186406639Y-99477478D01*
X186398771Y-99485346D01*
X186305684Y-99636263D01*
X186249912Y-99804573D01*
X186239619Y-99905324D01*
X186239618Y-99905341D01*
X186239300Y-99908455D01*
X186239300Y-99911601D01*
X186239300Y-99911602D01*
X186239300Y-101256395D01*
X186239300Y-101256414D01*
X186239301Y-101259544D01*
X186239620Y-101262675D01*
X186239621Y-101262678D01*
X186249912Y-101363425D01*
X186305684Y-101531736D01*
X186398771Y-101682654D01*
X186457036Y-101740919D01*
X186490521Y-101802242D01*
X186485537Y-101871934D01*
X186457039Y-101916278D01*
X186449570Y-101923748D01*
X186448251Y-101925887D01*
X186356484Y-102074663D01*
X186300712Y-102242973D01*
X186290419Y-102343724D01*
X186290418Y-102343741D01*
X186290100Y-102346855D01*
X186290100Y-102350001D01*
X186290100Y-102350002D01*
X186290100Y-103694795D01*
X186290100Y-103694814D01*
X186290101Y-103697944D01*
X186290420Y-103701075D01*
X186290421Y-103701078D01*
X186300712Y-103801825D01*
X186356484Y-103970136D01*
X186449571Y-104121054D01*
X186507836Y-104179319D01*
X186541321Y-104240642D01*
X186536337Y-104310334D01*
X186507839Y-104354679D01*
X186500371Y-104362147D01*
X186407284Y-104513063D01*
X186351512Y-104681373D01*
X186341219Y-104782124D01*
X186341218Y-104782141D01*
X186340900Y-104785255D01*
X186340900Y-104788382D01*
X186340899Y-104788402D01*
X186340900Y-105619888D01*
X186321215Y-105686927D01*
X186304585Y-105707564D01*
X186175259Y-105836891D01*
X186161871Y-105850279D01*
X186149678Y-105860971D01*
X186124213Y-105880511D01*
X186111621Y-105896922D01*
X186055193Y-105938124D01*
X185985447Y-105942279D01*
X185925565Y-105909116D01*
X183972025Y-103955576D01*
X183961331Y-103943382D01*
X183941789Y-103917915D01*
X183941787Y-103917914D01*
X183941787Y-103917913D01*
X183909874Y-103893425D01*
X183909872Y-103893423D01*
X183909860Y-103893413D01*
X183909838Y-103893396D01*
X183814676Y-103820376D01*
X183666651Y-103759062D01*
X183665672Y-103758933D01*
X183655866Y-103754594D01*
X183651570Y-103752815D01*
X183651612Y-103752712D01*
X183601776Y-103730663D01*
X183563308Y-103672337D01*
X183562479Y-103602473D01*
X183599554Y-103543251D01*
X183662761Y-103513474D01*
X183669259Y-103512636D01*
X183684426Y-103511087D01*
X183852738Y-103455315D01*
X184003652Y-103362230D01*
X184129030Y-103236852D01*
X184222115Y-103085938D01*
X184277887Y-102917626D01*
X184288500Y-102813745D01*
X184288499Y-102062656D01*
X184277887Y-101958774D01*
X184222115Y-101790462D01*
X184129030Y-101639548D01*
X184129029Y-101639547D01*
X184129028Y-101639545D01*
X184022807Y-101533324D01*
X183989322Y-101472001D01*
X183994306Y-101402309D01*
X184036178Y-101346376D01*
X184060394Y-101332213D01*
X184096146Y-101316427D01*
X184273275Y-101195092D01*
X184425092Y-101043275D01*
X184546427Y-100866146D01*
X184633150Y-100669739D01*
X184682306Y-100460740D01*
X184688500Y-100371502D01*
X184688500Y-98928498D01*
X184685597Y-98886686D01*
X184700593Y-98818444D01*
X184750102Y-98769143D01*
X184809300Y-98754100D01*
X186092920Y-98754100D01*
X186159959Y-98773785D01*
G37*
%TD.AperFunction*%
%TA.AperFunction,Conductor*%
G36*
X189153154Y-103606854D02*
G01*
X189201849Y-103656959D01*
X189215538Y-103702225D01*
X189225712Y-103801825D01*
X189281484Y-103970136D01*
X189374571Y-104121054D01*
X189432836Y-104179319D01*
X189466321Y-104240642D01*
X189461337Y-104310334D01*
X189432839Y-104354679D01*
X189425371Y-104362147D01*
X189332284Y-104513063D01*
X189276512Y-104681373D01*
X189266219Y-104782124D01*
X189266218Y-104782141D01*
X189265900Y-104785255D01*
X189265900Y-104788401D01*
X189265900Y-104788402D01*
X189265900Y-106133195D01*
X189265900Y-106133214D01*
X189265901Y-106136344D01*
X189266220Y-106139475D01*
X189266221Y-106139478D01*
X189276513Y-106240228D01*
X189301812Y-106316579D01*
X189304213Y-106386407D01*
X189268481Y-106446448D01*
X189223111Y-106473287D01*
X189173819Y-106489621D01*
X189145862Y-106498885D01*
X189082828Y-106537765D01*
X188994945Y-106591971D01*
X188869571Y-106717345D01*
X188776484Y-106868263D01*
X188720712Y-107036573D01*
X188710419Y-107137324D01*
X188710418Y-107137341D01*
X188710100Y-107140455D01*
X188710100Y-107143601D01*
X188710100Y-107143602D01*
X188710100Y-107863395D01*
X188710100Y-107863414D01*
X188710101Y-107866544D01*
X188710420Y-107869673D01*
X188710421Y-107869680D01*
X188718933Y-107953012D01*
X188706163Y-108021704D01*
X188683256Y-108053293D01*
X188576371Y-108160178D01*
X188564178Y-108170871D01*
X188538716Y-108190409D01*
X188538712Y-108190413D01*
X188538713Y-108190413D01*
X188514225Y-108222325D01*
X188514223Y-108222328D01*
X188511874Y-108225388D01*
X188511870Y-108225392D01*
X188441175Y-108317524D01*
X188383020Y-108457927D01*
X188379861Y-108465551D01*
X188364200Y-108584515D01*
X188364200Y-108584521D01*
X188358949Y-108624399D01*
X188363139Y-108656218D01*
X188364200Y-108672404D01*
X188364200Y-109233500D01*
X188344515Y-109300539D01*
X188291711Y-109346294D01*
X188240200Y-109357500D01*
X187290700Y-109357500D01*
X187223661Y-109337815D01*
X187177906Y-109285011D01*
X187166700Y-109233500D01*
X187166700Y-106968299D01*
X187186385Y-106901260D01*
X187239189Y-106855505D01*
X187290700Y-106844299D01*
X187771795Y-106844299D01*
X187774944Y-106844299D01*
X187878826Y-106833687D01*
X188047138Y-106777915D01*
X188198052Y-106684830D01*
X188323430Y-106559452D01*
X188416515Y-106408538D01*
X188472287Y-106240226D01*
X188482900Y-106136345D01*
X188482899Y-104785256D01*
X188472287Y-104681374D01*
X188416515Y-104513062D01*
X188323430Y-104362148D01*
X188265161Y-104303879D01*
X188231678Y-104242559D01*
X188236662Y-104172867D01*
X188265163Y-104128518D01*
X188272630Y-104121052D01*
X188365715Y-103970138D01*
X188391135Y-103893425D01*
X188393928Y-103884996D01*
X188433701Y-103827551D01*
X188498216Y-103800728D01*
X188511634Y-103800000D01*
X188564289Y-103800000D01*
X188751085Y-103760295D01*
X188751086Y-103760294D01*
X188751088Y-103760294D01*
X188925552Y-103682618D01*
X188936371Y-103674758D01*
X188972962Y-103648172D01*
X189019294Y-103614509D01*
X189085100Y-103591029D01*
X189153154Y-103606854D01*
G37*
%TD.AperFunction*%
%TA.AperFunction,Conductor*%
G36*
X191361899Y-109177376D02*
G01*
X191409488Y-109218576D01*
X191494908Y-109343275D01*
X191646725Y-109495092D01*
X191823854Y-109616427D01*
X192020261Y-109703150D01*
X192229260Y-109752306D01*
X192318498Y-109758500D01*
X192320638Y-109758500D01*
X193759362Y-109758500D01*
X193761502Y-109758500D01*
X193850740Y-109752306D01*
X194059739Y-109703150D01*
X194256146Y-109616427D01*
X194433275Y-109495092D01*
X194455719Y-109472647D01*
X194517042Y-109439163D01*
X194586734Y-109444147D01*
X194642667Y-109486019D01*
X194667084Y-109551483D01*
X194667400Y-109560329D01*
X194667400Y-110862288D01*
X194647715Y-110929327D01*
X194631081Y-110949969D01*
X193350470Y-112230581D01*
X193289147Y-112264066D01*
X193262789Y-112266900D01*
X192020104Y-112266900D01*
X192003919Y-112265839D01*
X192000300Y-112265362D01*
X191972099Y-112261649D01*
X191932228Y-112266899D01*
X191932202Y-112266901D01*
X191835483Y-112279635D01*
X191813250Y-112282562D01*
X191665225Y-112343876D01*
X191665223Y-112343877D01*
X191652066Y-112353973D01*
X191574779Y-112413276D01*
X191574771Y-112413283D01*
X191570028Y-112416923D01*
X191570025Y-112416925D01*
X191568395Y-112418176D01*
X191538110Y-112441415D01*
X191518566Y-112466884D01*
X191507875Y-112479074D01*
X190744759Y-113242190D01*
X190683436Y-113275675D01*
X190613744Y-113270691D01*
X190557811Y-113228819D01*
X190533394Y-113163355D01*
X190533550Y-113143701D01*
X190543498Y-113029999D01*
X190523543Y-112801915D01*
X190523543Y-112801913D01*
X190464284Y-112580757D01*
X190413501Y-112471851D01*
X190367525Y-112373255D01*
X190367524Y-112373254D01*
X190367523Y-112373251D01*
X190236198Y-112185700D01*
X190074300Y-112023802D01*
X189886749Y-111892477D01*
X189876205Y-111887560D01*
X189823767Y-111841389D01*
X189814050Y-111822632D01*
X189755277Y-111680742D01*
X189756673Y-111680163D01*
X189738756Y-111633815D01*
X189752795Y-111565370D01*
X189801609Y-111515381D01*
X189862326Y-111499499D01*
X190765995Y-111499499D01*
X190769144Y-111499499D01*
X190873026Y-111488887D01*
X191041338Y-111433115D01*
X191192252Y-111340030D01*
X191317630Y-111214652D01*
X191410715Y-111063738D01*
X191466487Y-110895426D01*
X191477100Y-110791545D01*
X191477099Y-110065456D01*
X191466487Y-109961574D01*
X191410715Y-109793262D01*
X191317630Y-109642348D01*
X191317629Y-109642347D01*
X191317628Y-109642345D01*
X191192253Y-109516970D01*
X191188795Y-109514837D01*
X191142072Y-109462887D01*
X191130852Y-109393925D01*
X191146507Y-109347302D01*
X191172227Y-109302756D01*
X191189260Y-109250333D01*
X191228695Y-109192661D01*
X191293053Y-109165462D01*
X191361899Y-109177376D01*
G37*
%TD.AperFunction*%
%TA.AperFunction,Conductor*%
G36*
X184366428Y-106071785D02*
G01*
X184374655Y-106079304D01*
X184910581Y-106615230D01*
X184944066Y-106676553D01*
X184946900Y-106702911D01*
X184946900Y-112172489D01*
X184927215Y-112239528D01*
X184874411Y-112285283D01*
X184805253Y-112295227D01*
X184741697Y-112266202D01*
X184735219Y-112260170D01*
X184636925Y-112161876D01*
X184626231Y-112149682D01*
X184606689Y-112124215D01*
X184606687Y-112124214D01*
X184606687Y-112124213D01*
X184574774Y-112099725D01*
X184574772Y-112099723D01*
X184574760Y-112099713D01*
X184574738Y-112099696D01*
X184479576Y-112026676D01*
X184331551Y-111965362D01*
X184312156Y-111962808D01*
X184212602Y-111949702D01*
X184212592Y-111949700D01*
X184212585Y-111949700D01*
X184212583Y-111949700D01*
X184212574Y-111949699D01*
X184172700Y-111944449D01*
X184140880Y-111948639D01*
X184124695Y-111949700D01*
X181702211Y-111949700D01*
X181635172Y-111930015D01*
X181614530Y-111913381D01*
X180881118Y-111179969D01*
X180847633Y-111118646D01*
X180844799Y-111092288D01*
X180844799Y-109910774D01*
X180844799Y-108839349D01*
X180864484Y-108772314D01*
X180917288Y-108726559D01*
X180986446Y-108716615D01*
X181050002Y-108745640D01*
X181087776Y-108804418D01*
X181089505Y-108810963D01*
X181126848Y-108969737D01*
X181193695Y-109121128D01*
X181213573Y-109166146D01*
X181334908Y-109343275D01*
X181486725Y-109495092D01*
X181663854Y-109616427D01*
X181860261Y-109703150D01*
X182069260Y-109752306D01*
X182158498Y-109758500D01*
X182160638Y-109758500D01*
X183599362Y-109758500D01*
X183601502Y-109758500D01*
X183690740Y-109752306D01*
X183899739Y-109703150D01*
X184096146Y-109616427D01*
X184273275Y-109495092D01*
X184425092Y-109343275D01*
X184546427Y-109166146D01*
X184633150Y-108969739D01*
X184682306Y-108760740D01*
X184688500Y-108671502D01*
X184688500Y-107228498D01*
X184682306Y-107139260D01*
X184633150Y-106930261D01*
X184546427Y-106733854D01*
X184425092Y-106556725D01*
X184273275Y-106404908D01*
X184174834Y-106337475D01*
X184130653Y-106283351D01*
X184122747Y-106213930D01*
X184139372Y-106170084D01*
X184181438Y-106101884D01*
X184233383Y-106055164D01*
X184302346Y-106043941D01*
X184366428Y-106071785D01*
G37*
%TD.AperFunction*%
%TA.AperFunction,Conductor*%
G36*
X191843703Y-102136198D02*
G01*
X191850181Y-102142230D01*
X193124877Y-103416926D01*
X193135572Y-103429121D01*
X193155113Y-103454587D01*
X193187025Y-103479074D01*
X193187029Y-103479078D01*
X193187035Y-103479082D01*
X193187051Y-103479096D01*
X193282224Y-103552124D01*
X193430250Y-103613438D01*
X193589100Y-103634351D01*
X193620928Y-103630161D01*
X193637113Y-103629100D01*
X195566876Y-103629100D01*
X195633915Y-103648785D01*
X195672413Y-103688001D01*
X195714669Y-103756508D01*
X195753371Y-103819254D01*
X195878745Y-103944628D01*
X195878747Y-103944629D01*
X195878748Y-103944630D01*
X196029662Y-104037715D01*
X196113818Y-104065601D01*
X196197973Y-104093487D01*
X196244002Y-104098189D01*
X196301855Y-104104100D01*
X197702944Y-104104099D01*
X197806826Y-104093487D01*
X197956500Y-104043890D01*
X198026324Y-104041489D01*
X198086366Y-104077221D01*
X198117559Y-104139741D01*
X198119500Y-104161597D01*
X198119500Y-104829602D01*
X198099815Y-104896641D01*
X198047011Y-104942396D01*
X197977853Y-104952340D01*
X197956498Y-104947308D01*
X197928692Y-104938094D01*
X197806826Y-104897712D01*
X197706075Y-104887419D01*
X197706059Y-104887418D01*
X197702945Y-104887100D01*
X197699797Y-104887100D01*
X196305004Y-104887100D01*
X196304984Y-104887100D01*
X196301856Y-104887101D01*
X196298725Y-104887420D01*
X196298721Y-104887421D01*
X196197974Y-104897712D01*
X196029663Y-104953484D01*
X195878745Y-105046571D01*
X195753371Y-105171945D01*
X195660284Y-105322863D01*
X195604512Y-105491173D01*
X195594219Y-105591924D01*
X195594218Y-105591941D01*
X195593900Y-105595055D01*
X195593900Y-105598201D01*
X195593900Y-105598202D01*
X195593900Y-106342995D01*
X195593900Y-106343014D01*
X195593901Y-106346144D01*
X195594220Y-106349275D01*
X195594221Y-106349278D01*
X195603892Y-106443952D01*
X195591122Y-106512645D01*
X195568215Y-106544234D01*
X195024646Y-107087803D01*
X194963323Y-107121288D01*
X194893631Y-107116304D01*
X194837698Y-107074432D01*
X194816259Y-107028512D01*
X194793150Y-106930262D01*
X194793150Y-106930261D01*
X194706427Y-106733854D01*
X194585092Y-106556725D01*
X194433275Y-106404908D01*
X194256146Y-106283573D01*
X194059739Y-106196850D01*
X194059737Y-106196849D01*
X193850739Y-106147693D01*
X193763644Y-106141648D01*
X193763624Y-106141647D01*
X193761502Y-106141500D01*
X192318498Y-106141500D01*
X192316376Y-106141647D01*
X192316355Y-106141648D01*
X192229260Y-106147693D01*
X192020262Y-106196849D01*
X191823853Y-106283573D01*
X191646727Y-106404906D01*
X191562012Y-106489621D01*
X191500688Y-106523105D01*
X191430997Y-106518121D01*
X191375063Y-106476249D01*
X191350647Y-106410784D01*
X191356624Y-106362940D01*
X191397287Y-106240226D01*
X191407900Y-106136345D01*
X191407899Y-104785256D01*
X191397287Y-104681374D01*
X191341515Y-104513062D01*
X191248430Y-104362148D01*
X191190161Y-104303879D01*
X191156678Y-104242559D01*
X191161662Y-104172867D01*
X191190163Y-104128518D01*
X191197630Y-104121052D01*
X191290715Y-103970138D01*
X191346487Y-103801826D01*
X191357100Y-103697945D01*
X191357099Y-102863309D01*
X191376783Y-102796271D01*
X191393413Y-102775634D01*
X191426332Y-102742715D01*
X191438510Y-102732035D01*
X191463987Y-102712487D01*
X191475970Y-102696870D01*
X191475973Y-102696867D01*
X191488475Y-102680572D01*
X191488477Y-102680572D01*
X191557929Y-102590059D01*
X191565562Y-102581039D01*
X191567996Y-102578425D01*
X191571462Y-102572422D01*
X191574614Y-102568313D01*
X191574375Y-102566937D01*
X191583021Y-102533476D01*
X191622838Y-102437350D01*
X191638500Y-102318385D01*
X191638500Y-102318377D01*
X191643750Y-102278500D01*
X191639560Y-102246679D01*
X191638500Y-102230495D01*
X191638500Y-102229911D01*
X191658185Y-102162872D01*
X191710989Y-102117117D01*
X191780147Y-102107173D01*
X191843703Y-102136198D01*
G37*
%TD.AperFunction*%
%TA.AperFunction,Conductor*%
G36*
X180804539Y-86845785D02*
G01*
X180850294Y-86898589D01*
X180861500Y-86950100D01*
X180861500Y-87604895D01*
X180861500Y-87604914D01*
X180861501Y-87608044D01*
X180861820Y-87611175D01*
X180861821Y-87611178D01*
X180872112Y-87711925D01*
X180927884Y-87880236D01*
X181020971Y-88031154D01*
X181146345Y-88156528D01*
X181146347Y-88156529D01*
X181146348Y-88156530D01*
X181297262Y-88249615D01*
X181381417Y-88277501D01*
X181465573Y-88305387D01*
X181511602Y-88310089D01*
X181569455Y-88316000D01*
X182404088Y-88315999D01*
X182471127Y-88335683D01*
X182491769Y-88352318D01*
X182957277Y-88817826D01*
X182967972Y-88830021D01*
X182987512Y-88855487D01*
X183017010Y-88878121D01*
X183058213Y-88934549D01*
X183062368Y-89004295D01*
X183028156Y-89065215D01*
X182966439Y-89097968D01*
X182928932Y-89099856D01*
X182923682Y-89099320D01*
X182923672Y-89099319D01*
X182920545Y-89099000D01*
X182917397Y-89099000D01*
X181572604Y-89099000D01*
X181572584Y-89099000D01*
X181569456Y-89099001D01*
X181566325Y-89099320D01*
X181566321Y-89099321D01*
X181465574Y-89109612D01*
X181297263Y-89165384D01*
X181146345Y-89258471D01*
X181020971Y-89383845D01*
X180927884Y-89534763D01*
X180872112Y-89703073D01*
X180861819Y-89803824D01*
X180861818Y-89803841D01*
X180861500Y-89806955D01*
X180861500Y-89810101D01*
X180861500Y-89810102D01*
X180861500Y-90529895D01*
X180861500Y-90529914D01*
X180861501Y-90533044D01*
X180861820Y-90536175D01*
X180861821Y-90536178D01*
X180872112Y-90636925D01*
X180919025Y-90778500D01*
X180927885Y-90805238D01*
X180956105Y-90850989D01*
X181020971Y-90956154D01*
X181146346Y-91081529D01*
X181146348Y-91081530D01*
X181281439Y-91164855D01*
X181328163Y-91216802D01*
X181339386Y-91285764D01*
X181318642Y-91340469D01*
X181213573Y-91493853D01*
X181126849Y-91690262D01*
X181077693Y-91899260D01*
X181071648Y-91986355D01*
X181071647Y-91986376D01*
X181071500Y-91988498D01*
X181071500Y-93431502D01*
X181071647Y-93433618D01*
X181075915Y-93495117D01*
X181060918Y-93563359D01*
X181011408Y-93612659D01*
X180943103Y-93627366D01*
X180877691Y-93602810D01*
X180864531Y-93591382D01*
X180758184Y-93485035D01*
X180724699Y-93423712D01*
X180722507Y-93384754D01*
X180732500Y-93286945D01*
X180732499Y-92535856D01*
X180721887Y-92431974D01*
X180666115Y-92263662D01*
X180573030Y-92112748D01*
X180573029Y-92112747D01*
X180573028Y-92112745D01*
X180447654Y-91987371D01*
X180323294Y-91910665D01*
X180296738Y-91894285D01*
X180296737Y-91894284D01*
X180296736Y-91894284D01*
X180128426Y-91838512D01*
X180027675Y-91828219D01*
X180027659Y-91828218D01*
X180024545Y-91827900D01*
X180021398Y-91827900D01*
X178892400Y-91827900D01*
X178825361Y-91808215D01*
X178779606Y-91755411D01*
X178768400Y-91703900D01*
X178768400Y-86950100D01*
X178788085Y-86883061D01*
X178840889Y-86837306D01*
X178892400Y-86826100D01*
X180737500Y-86826100D01*
X180804539Y-86845785D01*
G37*
%TD.AperFunction*%
%TA.AperFunction,Conductor*%
G36*
X185428520Y-89049685D02*
G01*
X185453630Y-89071027D01*
X185480047Y-89100366D01*
X185597265Y-89185530D01*
X185634548Y-89212618D01*
X185809014Y-89290295D01*
X185930934Y-89316210D01*
X185992416Y-89349402D01*
X186026192Y-89410565D01*
X186021540Y-89480280D01*
X185979935Y-89536412D01*
X185914588Y-89561141D01*
X185905153Y-89561500D01*
X183647814Y-89561500D01*
X183580775Y-89541815D01*
X183542275Y-89502597D01*
X183505444Y-89442885D01*
X183469030Y-89383848D01*
X183469029Y-89383847D01*
X183469028Y-89383845D01*
X183333404Y-89248221D01*
X183336703Y-89244921D01*
X183308678Y-89213742D01*
X183297480Y-89144776D01*
X183325345Y-89080703D01*
X183383428Y-89041867D01*
X183405653Y-89039949D01*
X183405315Y-89037381D01*
X183453320Y-89031061D01*
X183469505Y-89030000D01*
X185361481Y-89030000D01*
X185428520Y-89049685D01*
G37*
%TD.AperFunction*%
%TA.AperFunction,Conductor*%
G36*
X191114700Y-89102495D02*
G01*
X191121180Y-89108529D01*
X192702470Y-90689819D01*
X192735955Y-90751142D01*
X192730971Y-90820834D01*
X192689099Y-90876767D01*
X192623635Y-90901184D01*
X192614789Y-90901500D01*
X192318498Y-90901500D01*
X192316376Y-90901647D01*
X192316355Y-90901648D01*
X192229260Y-90907693D01*
X192020262Y-90956849D01*
X191823853Y-91043573D01*
X191646724Y-91164908D01*
X191494908Y-91316724D01*
X191373573Y-91493853D01*
X191286849Y-91690262D01*
X191237693Y-91899260D01*
X191231648Y-91986355D01*
X191231647Y-91986376D01*
X191231500Y-91988498D01*
X191231500Y-93431502D01*
X191231647Y-93433618D01*
X191231648Y-93433644D01*
X191237693Y-93520739D01*
X191286849Y-93729737D01*
X191360316Y-93896123D01*
X191373573Y-93926146D01*
X191494908Y-94103275D01*
X191646725Y-94255092D01*
X191823854Y-94376427D01*
X192020261Y-94463150D01*
X192229260Y-94512306D01*
X192318498Y-94518500D01*
X192320638Y-94518500D01*
X193759362Y-94518500D01*
X193761502Y-94518500D01*
X193850740Y-94512306D01*
X194059739Y-94463150D01*
X194256146Y-94376427D01*
X194433275Y-94255092D01*
X194585092Y-94103275D01*
X194706427Y-93926146D01*
X194793150Y-93729739D01*
X194842306Y-93520740D01*
X194848500Y-93431502D01*
X194848499Y-93135208D01*
X194868183Y-93068171D01*
X194920987Y-93022416D01*
X194990146Y-93012472D01*
X195053701Y-93041497D01*
X195060180Y-93047529D01*
X195203381Y-93190730D01*
X195236866Y-93252053D01*
X195239700Y-93278411D01*
X195239700Y-93292495D01*
X195238639Y-93308680D01*
X195234450Y-93340500D01*
X195239698Y-93380369D01*
X195239700Y-93380385D01*
X195241075Y-93390826D01*
X195255362Y-93499351D01*
X195316675Y-93647375D01*
X195389696Y-93742538D01*
X195389713Y-93742560D01*
X195389723Y-93742572D01*
X195389725Y-93742574D01*
X195402489Y-93759208D01*
X195414214Y-93774488D01*
X195439678Y-93794027D01*
X195451873Y-93804722D01*
X196372674Y-94725522D01*
X196383369Y-94737717D01*
X196402912Y-94763187D01*
X196434829Y-94787677D01*
X196530024Y-94860724D01*
X196678046Y-94922037D01*
X196678049Y-94922038D01*
X196697443Y-94924591D01*
X196797015Y-94937700D01*
X196797020Y-94937700D01*
X196836900Y-94942950D01*
X196836900Y-94942949D01*
X196853087Y-94945081D01*
X196852566Y-94949032D01*
X196893256Y-94955368D01*
X196945523Y-95001735D01*
X196964425Y-95068999D01*
X196943960Y-95135805D01*
X196928114Y-95155235D01*
X195159570Y-96923781D01*
X195098247Y-96957266D01*
X195071889Y-96960100D01*
X192569804Y-96960100D01*
X192553619Y-96959039D01*
X192550000Y-96958562D01*
X192521799Y-96954849D01*
X192481928Y-96960099D01*
X192481902Y-96960101D01*
X192362949Y-96975762D01*
X192216975Y-97036226D01*
X192216954Y-97036235D01*
X192214925Y-97037076D01*
X192214923Y-97037077D01*
X192214924Y-97037077D01*
X192214650Y-97037286D01*
X192212945Y-97038065D01*
X192170883Y-97059096D01*
X192151861Y-97085463D01*
X192151304Y-97085893D01*
X192124479Y-97106477D01*
X192124476Y-97106479D01*
X192119728Y-97110123D01*
X192119725Y-97110125D01*
X192118095Y-97111376D01*
X192087810Y-97134615D01*
X192068266Y-97160084D01*
X192057575Y-97172274D01*
X191542980Y-97686870D01*
X191481657Y-97720355D01*
X191411966Y-97715371D01*
X191356032Y-97673500D01*
X191331615Y-97608035D01*
X191331299Y-97599189D01*
X191331299Y-97448204D01*
X191331299Y-97448203D01*
X191331299Y-97445056D01*
X191320687Y-97341174D01*
X191264915Y-97172862D01*
X191171830Y-97021948D01*
X191171829Y-97021947D01*
X191171828Y-97021945D01*
X191046454Y-96896571D01*
X190895536Y-96803484D01*
X190727226Y-96747712D01*
X190626475Y-96737419D01*
X190626459Y-96737418D01*
X190623345Y-96737100D01*
X190620197Y-96737100D01*
X189875404Y-96737100D01*
X189875384Y-96737100D01*
X189872256Y-96737101D01*
X189869125Y-96737420D01*
X189869121Y-96737421D01*
X189768374Y-96747712D01*
X189600063Y-96803484D01*
X189449145Y-96896571D01*
X189323771Y-97021945D01*
X189230685Y-97172862D01*
X189193968Y-97283666D01*
X189154195Y-97341110D01*
X189089679Y-97367933D01*
X189020903Y-97355618D01*
X188977886Y-97320147D01*
X188903986Y-97223839D01*
X188903975Y-97223826D01*
X188897978Y-97216011D01*
X188879487Y-97191913D01*
X188854012Y-97172365D01*
X188841826Y-97161677D01*
X185638425Y-93958276D01*
X185627731Y-93946082D01*
X185608189Y-93920615D01*
X185608187Y-93920614D01*
X185608187Y-93920613D01*
X185576274Y-93896125D01*
X185576272Y-93896123D01*
X185576260Y-93896113D01*
X185576238Y-93896096D01*
X185481076Y-93823076D01*
X185333051Y-93761762D01*
X185313656Y-93759208D01*
X185214102Y-93746102D01*
X185214092Y-93746100D01*
X185214085Y-93746100D01*
X185214083Y-93746100D01*
X185214074Y-93746099D01*
X185174200Y-93740849D01*
X185142380Y-93745039D01*
X185126195Y-93746100D01*
X184785850Y-93746100D01*
X184718811Y-93726415D01*
X184673056Y-93673611D01*
X184663112Y-93604453D01*
X184665144Y-93593710D01*
X184682306Y-93520738D01*
X184688500Y-93431502D01*
X184688500Y-91988498D01*
X184682306Y-91899260D01*
X184633150Y-91690261D01*
X184546427Y-91493854D01*
X184425092Y-91316725D01*
X184273275Y-91164908D01*
X184096146Y-91043573D01*
X184033549Y-91015933D01*
X183980174Y-90970848D01*
X183959647Y-90904062D01*
X183978486Y-90836780D01*
X184030709Y-90790363D01*
X184083637Y-90778500D01*
X186646000Y-90778500D01*
X186713039Y-90798185D01*
X186758794Y-90850989D01*
X186770000Y-90902500D01*
X186770000Y-91106077D01*
X186750315Y-91173116D01*
X186738150Y-91189049D01*
X186639459Y-91298655D01*
X186543972Y-91464043D01*
X186484958Y-91645670D01*
X186464996Y-91835599D01*
X186484958Y-92025529D01*
X186543972Y-92207156D01*
X186639457Y-92372541D01*
X186639460Y-92372544D01*
X186767247Y-92514466D01*
X186921747Y-92626717D01*
X186921748Y-92626718D01*
X187096214Y-92704395D01*
X187283011Y-92744100D01*
X187283013Y-92744100D01*
X187473989Y-92744100D01*
X187660785Y-92704395D01*
X187660786Y-92704394D01*
X187660788Y-92704394D01*
X187835252Y-92626718D01*
X187989753Y-92514466D01*
X188117540Y-92372544D01*
X188128881Y-92352902D01*
X188147809Y-92320116D01*
X188213027Y-92207156D01*
X188231538Y-92150182D01*
X188270976Y-92092506D01*
X188335334Y-92065307D01*
X188349470Y-92064499D01*
X189317795Y-92064499D01*
X189320944Y-92064499D01*
X189424826Y-92053887D01*
X189593138Y-91998115D01*
X189744052Y-91905030D01*
X189869430Y-91779652D01*
X189962515Y-91628738D01*
X190018287Y-91460426D01*
X190028900Y-91356545D01*
X190028899Y-90605456D01*
X190018287Y-90501574D01*
X189962515Y-90333262D01*
X189869430Y-90182348D01*
X189869429Y-90182347D01*
X189869428Y-90182345D01*
X189854863Y-90167780D01*
X189821378Y-90106457D01*
X189826362Y-90036765D01*
X189868234Y-89980832D01*
X189933698Y-89956415D01*
X189942532Y-89956099D01*
X190201544Y-89956099D01*
X190305426Y-89945487D01*
X190473738Y-89889715D01*
X190624652Y-89796630D01*
X190750030Y-89671252D01*
X190843115Y-89520338D01*
X190898887Y-89352026D01*
X190909500Y-89248145D01*
X190909499Y-89196209D01*
X190929182Y-89129173D01*
X190981985Y-89083417D01*
X191051144Y-89073472D01*
X191114700Y-89102495D01*
G37*
%TD.AperFunction*%
%TA.AperFunction,Conductor*%
G36*
X187367234Y-84620463D02*
G01*
X187423167Y-84662335D01*
X187447584Y-84727799D01*
X187447900Y-84736645D01*
X187447900Y-85828355D01*
X187428215Y-85895394D01*
X187375411Y-85941149D01*
X187306253Y-85951093D01*
X187242697Y-85922068D01*
X187236219Y-85916036D01*
X187153654Y-85833471D01*
X187002736Y-85740384D01*
X186834426Y-85684612D01*
X186733675Y-85674319D01*
X186733659Y-85674318D01*
X186730545Y-85674000D01*
X186727397Y-85674000D01*
X185382604Y-85674000D01*
X185382584Y-85674000D01*
X185379456Y-85674001D01*
X185376325Y-85674320D01*
X185376321Y-85674321D01*
X185275575Y-85684612D01*
X185236057Y-85697707D01*
X185166229Y-85700107D01*
X185106187Y-85664375D01*
X185074996Y-85601854D01*
X185074116Y-85563817D01*
X185080680Y-85513952D01*
X185090800Y-85437085D01*
X185090800Y-85437079D01*
X185096050Y-85397199D01*
X185091861Y-85365380D01*
X185090800Y-85349195D01*
X185090800Y-84990879D01*
X185110485Y-84923840D01*
X185163289Y-84878085D01*
X185232447Y-84868141D01*
X185253805Y-84873174D01*
X185268627Y-84878085D01*
X185275574Y-84880387D01*
X185379455Y-84891000D01*
X186730544Y-84890999D01*
X186834426Y-84880387D01*
X187002738Y-84824615D01*
X187153652Y-84731530D01*
X187190318Y-84694864D01*
X187236219Y-84648964D01*
X187297542Y-84615479D01*
X187367234Y-84620463D01*
G37*
%TD.AperFunction*%
%TA.AperFunction,Conductor*%
G36*
X187416641Y-81770063D02*
G01*
X187446419Y-81833269D01*
X187447900Y-81852374D01*
X187447900Y-82903355D01*
X187428215Y-82970394D01*
X187375411Y-83016149D01*
X187306253Y-83026093D01*
X187242697Y-82997068D01*
X187236219Y-82991036D01*
X187153654Y-82908471D01*
X187051831Y-82845666D01*
X187002738Y-82815385D01*
X187002737Y-82815384D01*
X187002736Y-82815384D01*
X186834426Y-82759612D01*
X186760246Y-82752034D01*
X186695554Y-82725638D01*
X186655403Y-82668457D01*
X186652540Y-82598646D01*
X186687875Y-82538369D01*
X186697351Y-82530309D01*
X186712772Y-82518477D01*
X186712772Y-82518475D01*
X186729069Y-82505972D01*
X186729071Y-82505969D01*
X186744687Y-82493987D01*
X186764236Y-82468509D01*
X186774916Y-82456331D01*
X186991532Y-82239715D01*
X187003710Y-82229035D01*
X187029187Y-82209487D01*
X187043313Y-82191076D01*
X187043317Y-82191073D01*
X187053676Y-82177572D01*
X187053678Y-82177571D01*
X187126724Y-82082376D01*
X187188038Y-81934351D01*
X187195620Y-81876756D01*
X187196330Y-81871364D01*
X187200961Y-81836187D01*
X187229228Y-81772291D01*
X187287553Y-81733821D01*
X187357418Y-81732990D01*
X187416641Y-81770063D01*
G37*
%TD.AperFunction*%
%TA.AperFunction,Conductor*%
G36*
X190936139Y-69828985D02*
G01*
X190981894Y-69881789D01*
X190993100Y-69933300D01*
X190993100Y-70979595D01*
X190993100Y-70979614D01*
X190993101Y-70982744D01*
X190993420Y-70985875D01*
X190993421Y-70985878D01*
X191003712Y-71086625D01*
X191059484Y-71254936D01*
X191152571Y-71405854D01*
X191277945Y-71531228D01*
X191277947Y-71531229D01*
X191277948Y-71531230D01*
X191428862Y-71624315D01*
X191513018Y-71652201D01*
X191597173Y-71680087D01*
X191633879Y-71683837D01*
X191701055Y-71690700D01*
X192254499Y-71690699D01*
X192321538Y-71710383D01*
X192367293Y-71763187D01*
X192378499Y-71814699D01*
X192378500Y-79164500D01*
X192358815Y-79231539D01*
X192306011Y-79277294D01*
X192254500Y-79288500D01*
X192188498Y-79288500D01*
X192186077Y-79288690D01*
X192186065Y-79288691D01*
X192151165Y-79291438D01*
X191991399Y-79337854D01*
X191834709Y-79430521D01*
X191832509Y-79426802D01*
X191796358Y-79446543D01*
X191726666Y-79441559D01*
X191706447Y-79428565D01*
X191705291Y-79430521D01*
X191548600Y-79337854D01*
X191388834Y-79291438D01*
X191353934Y-79288691D01*
X191353923Y-79288690D01*
X191351502Y-79288500D01*
X190918498Y-79288500D01*
X190916077Y-79288690D01*
X190916065Y-79288691D01*
X190881164Y-79291438D01*
X190872715Y-79293893D01*
X190802846Y-79293690D01*
X190750445Y-79262496D01*
X190602025Y-79114076D01*
X190591331Y-79101882D01*
X190571789Y-79076415D01*
X190571787Y-79076414D01*
X190571787Y-79076413D01*
X190539874Y-79051925D01*
X190539872Y-79051923D01*
X190539860Y-79051913D01*
X190539838Y-79051896D01*
X190444676Y-78978876D01*
X190296651Y-78917562D01*
X190285329Y-78916071D01*
X190221434Y-78887802D01*
X190182965Y-78829476D01*
X190181314Y-78762691D01*
X190194564Y-78710367D01*
X190213156Y-78485999D01*
X190194564Y-78261636D01*
X190194564Y-78261632D01*
X190139296Y-78043384D01*
X190048860Y-77837209D01*
X189925722Y-77648732D01*
X189801215Y-77513483D01*
X189770293Y-77450829D01*
X189778153Y-77381403D01*
X189822299Y-77327247D01*
X189888717Y-77305556D01*
X189892445Y-77305500D01*
X190079057Y-77305500D01*
X190081502Y-77305500D01*
X190118831Y-77302562D01*
X190278601Y-77256145D01*
X190421807Y-77171453D01*
X190539453Y-77053807D01*
X190624145Y-76910601D01*
X190670562Y-76750831D01*
X190673500Y-76713502D01*
X190673500Y-74930498D01*
X190670562Y-74893169D01*
X190624145Y-74733399D01*
X190571264Y-74643982D01*
X190539452Y-74590191D01*
X190421808Y-74472547D01*
X190278600Y-74387854D01*
X190118834Y-74341438D01*
X190083934Y-74338691D01*
X190083923Y-74338690D01*
X190081502Y-74338500D01*
X190079057Y-74338500D01*
X189871600Y-74338500D01*
X189804561Y-74318815D01*
X189758806Y-74266011D01*
X189747600Y-74214500D01*
X189747600Y-71710013D01*
X189767285Y-71642974D01*
X189806501Y-71604476D01*
X189925252Y-71531230D01*
X190050630Y-71405852D01*
X190143715Y-71254938D01*
X190199487Y-71086626D01*
X190210100Y-70982745D01*
X190210099Y-69933299D01*
X190229783Y-69866261D01*
X190282587Y-69820506D01*
X190334099Y-69809300D01*
X190869100Y-69809300D01*
X190936139Y-69828985D01*
G37*
%TD.AperFunction*%
%TA.AperFunction,Conductor*%
G36*
X178005703Y-69106932D02*
G01*
X178012181Y-69112964D01*
X178146345Y-69247128D01*
X178146347Y-69247129D01*
X178146348Y-69247130D01*
X178297262Y-69340215D01*
X178355347Y-69359462D01*
X178465573Y-69395987D01*
X178511602Y-69400689D01*
X178569455Y-69406600D01*
X179179088Y-69406599D01*
X179246127Y-69426283D01*
X179266769Y-69442918D01*
X179612577Y-69788726D01*
X179623272Y-69800921D01*
X179642813Y-69826388D01*
X179674725Y-69850875D01*
X179674727Y-69850877D01*
X179769922Y-69923923D01*
X179769923Y-69923923D01*
X179769924Y-69923924D01*
X179806594Y-69939113D01*
X179917950Y-69985238D01*
X180036915Y-70000900D01*
X180036922Y-70000900D01*
X180076800Y-70006150D01*
X180108620Y-70001960D01*
X180124805Y-70000900D01*
X180469381Y-70000900D01*
X180536420Y-70020585D01*
X180561531Y-70041928D01*
X180587946Y-70071265D01*
X180742448Y-70183518D01*
X180916914Y-70261195D01*
X181116461Y-70303610D01*
X181115683Y-70307267D01*
X181161039Y-70320585D01*
X181206794Y-70373389D01*
X181218000Y-70424900D01*
X181218000Y-71985488D01*
X181198315Y-72052527D01*
X181181681Y-72073169D01*
X180303547Y-72951302D01*
X180242224Y-72984787D01*
X180172532Y-72979803D01*
X180128185Y-72951302D01*
X180016254Y-72839371D01*
X179927824Y-72784827D01*
X179865338Y-72746285D01*
X179865337Y-72746284D01*
X179865336Y-72746284D01*
X179697026Y-72690512D01*
X179596275Y-72680219D01*
X179596259Y-72680218D01*
X179593145Y-72679900D01*
X179589997Y-72679900D01*
X178245204Y-72679900D01*
X178245184Y-72679900D01*
X178242056Y-72679901D01*
X178238925Y-72680220D01*
X178238921Y-72680221D01*
X178138173Y-72690512D01*
X177963503Y-72748392D01*
X177893675Y-72750794D01*
X177833633Y-72715062D01*
X177802441Y-72652541D01*
X177800500Y-72630686D01*
X177800500Y-69200645D01*
X177820185Y-69133606D01*
X177872989Y-69087851D01*
X177942147Y-69077907D01*
X178005703Y-69106932D01*
G37*
%TD.AperFunction*%
%TA.AperFunction,Conductor*%
G36*
X187729539Y-75186885D02*
G01*
X187775294Y-75239689D01*
X187786500Y-75291200D01*
X187786500Y-76713502D01*
X187786690Y-76715923D01*
X187786691Y-76715934D01*
X187789438Y-76750834D01*
X187835854Y-76910600D01*
X187920547Y-77053808D01*
X188038191Y-77171452D01*
X188045619Y-77175845D01*
X188093302Y-77226914D01*
X188105806Y-77295655D01*
X188079161Y-77360245D01*
X188058661Y-77380430D01*
X187926760Y-77483093D01*
X187774279Y-77648730D01*
X187651138Y-77837211D01*
X187560705Y-78043381D01*
X187505435Y-78261636D01*
X187486843Y-78485999D01*
X187505435Y-78710363D01*
X187545460Y-78868420D01*
X187542835Y-78938240D01*
X187526218Y-78969481D01*
X187465642Y-79115729D01*
X187463561Y-79120750D01*
X187447901Y-79239707D01*
X187447900Y-79239723D01*
X187443282Y-79274797D01*
X187415015Y-79338693D01*
X187356690Y-79377163D01*
X187286825Y-79377994D01*
X187227602Y-79340921D01*
X187197824Y-79277715D01*
X187197408Y-79274827D01*
X187188038Y-79203650D01*
X187126724Y-79055625D01*
X187080686Y-78995627D01*
X187053677Y-78960428D01*
X187053674Y-78960425D01*
X187046599Y-78951205D01*
X187046599Y-78951204D01*
X187036651Y-78938240D01*
X187029187Y-78928513D01*
X187003712Y-78908965D01*
X186991526Y-78898277D01*
X184866419Y-76773170D01*
X184832934Y-76711847D01*
X184830100Y-76685489D01*
X184830100Y-75291200D01*
X184849785Y-75224161D01*
X184902589Y-75178406D01*
X184954100Y-75167200D01*
X187662500Y-75167200D01*
X187729539Y-75186885D01*
G37*
%TD.AperFunction*%
%TA.AperFunction,Conductor*%
G36*
X198062539Y-30500185D02*
G01*
X198108294Y-30552989D01*
X198119500Y-30604500D01*
X198119500Y-42016498D01*
X198099815Y-42083537D01*
X198047011Y-42129292D01*
X197977853Y-42139236D01*
X197914297Y-42110211D01*
X197907819Y-42104179D01*
X197755756Y-41952116D01*
X197755755Y-41952115D01*
X197755753Y-41952113D01*
X197566768Y-41819784D01*
X197470363Y-41774829D01*
X197357677Y-41722283D01*
X197134827Y-41662570D01*
X196904999Y-41642463D01*
X196675172Y-41662570D01*
X196452322Y-41722283D01*
X196243234Y-41819783D01*
X196243232Y-41819784D01*
X196054247Y-41952113D01*
X196054243Y-41952116D01*
X195891116Y-42115243D01*
X195891113Y-42115246D01*
X195891113Y-42115247D01*
X195768556Y-42290277D01*
X195758783Y-42304234D01*
X195661283Y-42513322D01*
X195601570Y-42736172D01*
X195581463Y-42966000D01*
X195601570Y-43195829D01*
X195628064Y-43294706D01*
X195626401Y-43364556D01*
X195595970Y-43414480D01*
X194853480Y-44156970D01*
X194792157Y-44190455D01*
X194733706Y-44189064D01*
X194634829Y-44162570D01*
X194405000Y-44142463D01*
X194175172Y-44162570D01*
X193952322Y-44222283D01*
X193743234Y-44319783D01*
X193743232Y-44319784D01*
X193684023Y-44361243D01*
X193554243Y-44452116D01*
X193391116Y-44615243D01*
X193391113Y-44615246D01*
X193391113Y-44615247D01*
X193290231Y-44759322D01*
X193258783Y-44804234D01*
X193161283Y-45013322D01*
X193101570Y-45236172D01*
X193081463Y-45465999D01*
X193101570Y-45695827D01*
X193145986Y-45861590D01*
X193161283Y-45918676D01*
X193258784Y-46127768D01*
X193391113Y-46316753D01*
X193554247Y-46479887D01*
X193743232Y-46612216D01*
X193952324Y-46709717D01*
X194175170Y-46769429D01*
X194328389Y-46782833D01*
X194404999Y-46789536D01*
X194404999Y-46789535D01*
X194405000Y-46789536D01*
X194634830Y-46769429D01*
X194857676Y-46709717D01*
X195066768Y-46612216D01*
X195255753Y-46479887D01*
X195418887Y-46316753D01*
X195551216Y-46127768D01*
X195648717Y-45918676D01*
X195708429Y-45695830D01*
X195728536Y-45466000D01*
X195714393Y-45304338D01*
X195708429Y-45236168D01*
X195681935Y-45137294D01*
X195683597Y-45067444D01*
X195714026Y-45017520D01*
X196456520Y-44275026D01*
X196517841Y-44241543D01*
X196576294Y-44242935D01*
X196675168Y-44269429D01*
X196905000Y-44289536D01*
X197134830Y-44269429D01*
X197357676Y-44209717D01*
X197566768Y-44112216D01*
X197755753Y-43979887D01*
X197907819Y-43827821D01*
X197969142Y-43794336D01*
X198038834Y-43799320D01*
X198094767Y-43841192D01*
X198119184Y-43906656D01*
X198119500Y-43915502D01*
X198119500Y-47016498D01*
X198099815Y-47083537D01*
X198047011Y-47129292D01*
X197977853Y-47139236D01*
X197914297Y-47110211D01*
X197907819Y-47104179D01*
X197755756Y-46952116D01*
X197755753Y-46952113D01*
X197566768Y-46819784D01*
X197458781Y-46769429D01*
X197357677Y-46722283D01*
X197134827Y-46662570D01*
X196905000Y-46642463D01*
X196675172Y-46662570D01*
X196452322Y-46722283D01*
X196296703Y-46794850D01*
X196243232Y-46819784D01*
X196226973Y-46831169D01*
X196054243Y-46952116D01*
X195891116Y-47115243D01*
X195755569Y-47308824D01*
X195700992Y-47352449D01*
X195653994Y-47361700D01*
X189546511Y-47361700D01*
X189479472Y-47342015D01*
X189458830Y-47325381D01*
X188964618Y-46831169D01*
X188931133Y-46769846D01*
X188928299Y-46743488D01*
X188928299Y-46137004D01*
X188928299Y-46137002D01*
X188928299Y-46133856D01*
X188917687Y-46029974D01*
X188861915Y-45861662D01*
X188768830Y-45710748D01*
X188768829Y-45710747D01*
X188768828Y-45710745D01*
X188643454Y-45585371D01*
X188492536Y-45492284D01*
X188324226Y-45436512D01*
X188223475Y-45426219D01*
X188223459Y-45426218D01*
X188220345Y-45425900D01*
X188217198Y-45425900D01*
X188160545Y-45425900D01*
X188093506Y-45406215D01*
X188047751Y-45353411D01*
X188037807Y-45284253D01*
X188066832Y-45220697D01*
X188125610Y-45182923D01*
X188140132Y-45179591D01*
X188346951Y-45145080D01*
X188567727Y-45069287D01*
X188773017Y-44958190D01*
X188957220Y-44814818D01*
X189115314Y-44643083D01*
X189146191Y-44595821D01*
X189199338Y-44550465D01*
X189268569Y-44541041D01*
X189331905Y-44570543D01*
X189353809Y-44595822D01*
X189384684Y-44643081D01*
X189384686Y-44643083D01*
X189542780Y-44814818D01*
X189726983Y-44958190D01*
X189932273Y-45069287D01*
X189981099Y-45086049D01*
X190153046Y-45145080D01*
X190383288Y-45183500D01*
X190616712Y-45183500D01*
X190846953Y-45145080D01*
X190957339Y-45107183D01*
X191067727Y-45069287D01*
X191273017Y-44958190D01*
X191457220Y-44814818D01*
X191615314Y-44643083D01*
X191742984Y-44447669D01*
X191836749Y-44233907D01*
X191894051Y-44007626D01*
X191913327Y-43775000D01*
X191894051Y-43542374D01*
X191836749Y-43316093D01*
X191742984Y-43102331D01*
X191615314Y-42906917D01*
X191457220Y-42735182D01*
X191273017Y-42591810D01*
X191100068Y-42498215D01*
X191050478Y-42448997D01*
X191044524Y-42436611D01*
X191033080Y-42408981D01*
X191031802Y-42405586D01*
X190958477Y-42310028D01*
X190958475Y-42310026D01*
X190952777Y-42302600D01*
X190933987Y-42278113D01*
X190908512Y-42258565D01*
X190896326Y-42247877D01*
X190691143Y-42042694D01*
X190657658Y-41981371D01*
X190655466Y-41942410D01*
X190663758Y-41861247D01*
X190664300Y-41855945D01*
X190664299Y-41129856D01*
X190653687Y-41025974D01*
X190597915Y-40857662D01*
X190504830Y-40706748D01*
X190504829Y-40706747D01*
X190504828Y-40706745D01*
X190379454Y-40581371D01*
X190228536Y-40488284D01*
X190060226Y-40432512D01*
X189959475Y-40422219D01*
X189959459Y-40422218D01*
X189956345Y-40421900D01*
X189953197Y-40421900D01*
X188608404Y-40421900D01*
X188608384Y-40421900D01*
X188605256Y-40421901D01*
X188602125Y-40422220D01*
X188602121Y-40422221D01*
X188597910Y-40422651D01*
X188529218Y-40409876D01*
X188478337Y-40361992D01*
X188461422Y-40294201D01*
X188483842Y-40228026D01*
X188497628Y-40211619D01*
X189034030Y-39675217D01*
X189095353Y-39641733D01*
X189121711Y-39638899D01*
X189953195Y-39638899D01*
X189956344Y-39638899D01*
X190060226Y-39628287D01*
X190228538Y-39572515D01*
X190379452Y-39479430D01*
X190504830Y-39354052D01*
X190597915Y-39203138D01*
X190647127Y-39054620D01*
X190686899Y-38997177D01*
X190751414Y-38970353D01*
X190820190Y-38982668D01*
X190835449Y-38991697D01*
X190946936Y-39068935D01*
X191026409Y-39123994D01*
X191232664Y-39217679D01*
X191452331Y-39273030D01*
X191585364Y-39283500D01*
X191587809Y-39283500D01*
X193212191Y-39283500D01*
X193214636Y-39283500D01*
X193347669Y-39273030D01*
X193567336Y-39217679D01*
X193773591Y-39123994D01*
X193959802Y-38994986D01*
X194119986Y-38834802D01*
X194248994Y-38648591D01*
X194342679Y-38442336D01*
X194398030Y-38222669D01*
X194408500Y-38089636D01*
X194408500Y-35460364D01*
X194398030Y-35327331D01*
X194342679Y-35107664D01*
X194248994Y-34901409D01*
X194248994Y-34901408D01*
X194119986Y-34715197D01*
X193959802Y-34555013D01*
X193773590Y-34426005D01*
X193567339Y-34332322D01*
X193567337Y-34332321D01*
X193567336Y-34332321D01*
X193347669Y-34276970D01*
X193319066Y-34274718D01*
X193217070Y-34266691D01*
X193217055Y-34266690D01*
X193214636Y-34266500D01*
X191585364Y-34266500D01*
X191582945Y-34266690D01*
X191582929Y-34266691D01*
X191466632Y-34275844D01*
X191452331Y-34276970D01*
X191239343Y-34330637D01*
X191232660Y-34332322D01*
X191026409Y-34426005D01*
X190840197Y-34555013D01*
X190680013Y-34715197D01*
X190551005Y-34901409D01*
X190457322Y-35107660D01*
X190401970Y-35327332D01*
X190391691Y-35457929D01*
X190391690Y-35457945D01*
X190391500Y-35460364D01*
X190391500Y-35462809D01*
X190391500Y-37445565D01*
X190371815Y-37512604D01*
X190319011Y-37558359D01*
X190249853Y-37568303D01*
X190228497Y-37563271D01*
X190060228Y-37507513D01*
X189959475Y-37497219D01*
X189959459Y-37497218D01*
X189956345Y-37496900D01*
X189953197Y-37496900D01*
X188608404Y-37496900D01*
X188608384Y-37496900D01*
X188605256Y-37496901D01*
X188602125Y-37497220D01*
X188602121Y-37497221D01*
X188501374Y-37507512D01*
X188333063Y-37563284D01*
X188182145Y-37656371D01*
X188056771Y-37781745D01*
X187963684Y-37932663D01*
X187907912Y-38100973D01*
X187897619Y-38201724D01*
X187897618Y-38201741D01*
X187897300Y-38204855D01*
X187897300Y-38208001D01*
X187897300Y-38208002D01*
X187897300Y-38927795D01*
X187897300Y-38927814D01*
X187897301Y-38930944D01*
X187897620Y-38934073D01*
X187897621Y-38934080D01*
X187906133Y-39017412D01*
X187893363Y-39086104D01*
X187870456Y-39117693D01*
X186476271Y-40511878D01*
X186464078Y-40522571D01*
X186438616Y-40542109D01*
X186438612Y-40542113D01*
X186438613Y-40542113D01*
X186414125Y-40574025D01*
X186414123Y-40574028D01*
X186411773Y-40577089D01*
X186411772Y-40577091D01*
X186340794Y-40669590D01*
X186339518Y-40672983D01*
X186279762Y-40817249D01*
X186264100Y-40936215D01*
X186264100Y-40936221D01*
X186258849Y-40976099D01*
X186263039Y-41007918D01*
X186264100Y-41024104D01*
X186264100Y-42242500D01*
X186244415Y-42309539D01*
X186191611Y-42355294D01*
X186140100Y-42366500D01*
X184551362Y-42366500D01*
X184548082Y-42366852D01*
X184548075Y-42366853D01*
X184490794Y-42373011D01*
X184353796Y-42424110D01*
X184236738Y-42511738D01*
X184149110Y-42628796D01*
X184098011Y-42765794D01*
X184097357Y-42771882D01*
X184091500Y-42826362D01*
X184091500Y-44723638D01*
X184091852Y-44726918D01*
X184091853Y-44726924D01*
X184098011Y-44784205D01*
X184149110Y-44921203D01*
X184236738Y-45038261D01*
X184353796Y-45125889D01*
X184490794Y-45176988D01*
X184490797Y-45176988D01*
X184490799Y-45176989D01*
X184551362Y-45183500D01*
X184887624Y-45183500D01*
X184954663Y-45203185D01*
X184986000Y-45232014D01*
X185041496Y-45304338D01*
X185041513Y-45304360D01*
X185041523Y-45304372D01*
X185041525Y-45304374D01*
X185066013Y-45336287D01*
X185066014Y-45336288D01*
X185091478Y-45355827D01*
X185103673Y-45366522D01*
X185246652Y-45509501D01*
X185280137Y-45570824D01*
X185275153Y-45640516D01*
X185246655Y-45684861D01*
X185220771Y-45710746D01*
X185127684Y-45861663D01*
X185071912Y-46029973D01*
X185061619Y-46130724D01*
X185061618Y-46130741D01*
X185061300Y-46133855D01*
X185061300Y-46137001D01*
X185061300Y-46137002D01*
X185061300Y-47131795D01*
X185061300Y-47131814D01*
X185061301Y-47134944D01*
X185061620Y-47138075D01*
X185061621Y-47138078D01*
X185071912Y-47238825D01*
X185127684Y-47407136D01*
X185220771Y-47558054D01*
X185346145Y-47683428D01*
X185346147Y-47683429D01*
X185346148Y-47683430D01*
X185497062Y-47776515D01*
X185581218Y-47804401D01*
X185665373Y-47832287D01*
X185711402Y-47836989D01*
X185769255Y-47842900D01*
X186140100Y-47842899D01*
X186207139Y-47862583D01*
X186252894Y-47915387D01*
X186264100Y-47966899D01*
X186264100Y-54658539D01*
X186244415Y-54725578D01*
X186191611Y-54771333D01*
X186122453Y-54781277D01*
X186075003Y-54764078D01*
X186012585Y-54725578D01*
X185913538Y-54664485D01*
X185913537Y-54664484D01*
X185913536Y-54664484D01*
X185745226Y-54608712D01*
X185644475Y-54598419D01*
X185644459Y-54598418D01*
X185641345Y-54598100D01*
X185638197Y-54598100D01*
X184918404Y-54598100D01*
X184918384Y-54598100D01*
X184915256Y-54598101D01*
X184912125Y-54598420D01*
X184912121Y-54598421D01*
X184811374Y-54608712D01*
X184643063Y-54664484D01*
X184492145Y-54757571D01*
X184366771Y-54882945D01*
X184273684Y-55033863D01*
X184217912Y-55202173D01*
X184207619Y-55302924D01*
X184207618Y-55302941D01*
X184207300Y-55306055D01*
X184207300Y-55309201D01*
X184207300Y-55309202D01*
X184207300Y-56653995D01*
X184207300Y-56654014D01*
X184207301Y-56657144D01*
X184207620Y-56660275D01*
X184207621Y-56660278D01*
X184217912Y-56761025D01*
X184246483Y-56847247D01*
X184273685Y-56929338D01*
X184281347Y-56941760D01*
X184298479Y-56969536D01*
X184316918Y-57036928D01*
X184295995Y-57103592D01*
X184267251Y-57133897D01*
X184236738Y-57156739D01*
X184149110Y-57273796D01*
X184098011Y-57410794D01*
X184091853Y-57468075D01*
X184091500Y-57471362D01*
X184091500Y-59368638D01*
X184091852Y-59371918D01*
X184091853Y-59371924D01*
X184098011Y-59429205D01*
X184149110Y-59566203D01*
X184236738Y-59683261D01*
X184353796Y-59770889D01*
X184490794Y-59821988D01*
X184490797Y-59821988D01*
X184490799Y-59821989D01*
X184551362Y-59828500D01*
X186140100Y-59828500D01*
X186207139Y-59848185D01*
X186252894Y-59900989D01*
X186264100Y-59952500D01*
X186264100Y-60525095D01*
X186263039Y-60541280D01*
X186258849Y-60573099D01*
X186264100Y-60612979D01*
X186264100Y-60612985D01*
X186270314Y-60660185D01*
X186279762Y-60731951D01*
X186341075Y-60879975D01*
X186414096Y-60975138D01*
X186414113Y-60975160D01*
X186414123Y-60975172D01*
X186414125Y-60975174D01*
X186438613Y-61007087D01*
X186438614Y-61007088D01*
X186464078Y-61026627D01*
X186476273Y-61037322D01*
X186558581Y-61119630D01*
X186592066Y-61180953D01*
X186594900Y-61207311D01*
X186594900Y-61525487D01*
X186575215Y-61592526D01*
X186558581Y-61613168D01*
X186231071Y-61940678D01*
X186218878Y-61951371D01*
X186193416Y-61970909D01*
X186193412Y-61970913D01*
X186193413Y-61970913D01*
X186168925Y-62002825D01*
X186168923Y-62002828D01*
X186166574Y-62005888D01*
X186166570Y-62005892D01*
X186095875Y-62098024D01*
X186034790Y-62245500D01*
X186034561Y-62246050D01*
X186018900Y-62365015D01*
X186018900Y-62365021D01*
X186013649Y-62404899D01*
X186017839Y-62436718D01*
X186018900Y-62452904D01*
X186018900Y-65664695D01*
X186017839Y-65680880D01*
X186013649Y-65712701D01*
X186018898Y-65752571D01*
X186018900Y-65752585D01*
X186021338Y-65771100D01*
X186034562Y-65871551D01*
X186095875Y-66019575D01*
X186168896Y-66114738D01*
X186168913Y-66114760D01*
X186168923Y-66114772D01*
X186168925Y-66114774D01*
X186185420Y-66136270D01*
X186193414Y-66146688D01*
X186218878Y-66166227D01*
X186231073Y-66176922D01*
X186346456Y-66292305D01*
X186379941Y-66353628D01*
X186382133Y-66392588D01*
X186373619Y-66475922D01*
X186373617Y-66475943D01*
X186373300Y-66479055D01*
X186373300Y-66482201D01*
X186373300Y-66482202D01*
X186373300Y-66775387D01*
X186353615Y-66842426D01*
X186336981Y-66863068D01*
X185825181Y-67374869D01*
X185763858Y-67408354D01*
X185694167Y-67403370D01*
X185638233Y-67361499D01*
X185613816Y-67296034D01*
X185613500Y-67287188D01*
X185613500Y-64727809D01*
X185613500Y-64725364D01*
X185603030Y-64592331D01*
X185547679Y-64372664D01*
X185453994Y-64166409D01*
X185429650Y-64131270D01*
X185324986Y-63980197D01*
X185164802Y-63820013D01*
X184978590Y-63691005D01*
X184772339Y-63597322D01*
X184772337Y-63597321D01*
X184772336Y-63597321D01*
X184552669Y-63541970D01*
X184524066Y-63539718D01*
X184422070Y-63531691D01*
X184422055Y-63531690D01*
X184419636Y-63531500D01*
X182790364Y-63531500D01*
X182787945Y-63531690D01*
X182787929Y-63531691D01*
X182671632Y-63540844D01*
X182657331Y-63541970D01*
X182518402Y-63576977D01*
X182437660Y-63597322D01*
X182231409Y-63691005D01*
X182045197Y-63820013D01*
X181885013Y-63980197D01*
X181756005Y-64166409D01*
X181662322Y-64372660D01*
X181606970Y-64592332D01*
X181596691Y-64722929D01*
X181596690Y-64722945D01*
X181596500Y-64725364D01*
X181596500Y-67354636D01*
X181596690Y-67357055D01*
X181596691Y-67357070D01*
X181601812Y-67422130D01*
X181606970Y-67487669D01*
X181625393Y-67560782D01*
X181662322Y-67707340D01*
X181713081Y-67819090D01*
X181722884Y-67888269D01*
X181693729Y-67951765D01*
X181634874Y-67989419D01*
X181565004Y-67989277D01*
X181512501Y-67958052D01*
X180314818Y-66760368D01*
X180281333Y-66699045D01*
X180278499Y-66672687D01*
X180278499Y-66250704D01*
X180278499Y-66250703D01*
X180278499Y-66247556D01*
X180267887Y-66143674D01*
X180212115Y-65975362D01*
X180119030Y-65824448D01*
X180119029Y-65824447D01*
X180119028Y-65824445D01*
X179993654Y-65699071D01*
X179842736Y-65605984D01*
X179674426Y-65550212D01*
X179573675Y-65539919D01*
X179573659Y-65539918D01*
X179570545Y-65539600D01*
X179567397Y-65539600D01*
X178572604Y-65539600D01*
X178572584Y-65539600D01*
X178569456Y-65539601D01*
X178566325Y-65539920D01*
X178566321Y-65539921D01*
X178465574Y-65550212D01*
X178297263Y-65605984D01*
X178146345Y-65699071D01*
X178012181Y-65833236D01*
X177950858Y-65866721D01*
X177881166Y-65861737D01*
X177825233Y-65819865D01*
X177800816Y-65754401D01*
X177800500Y-65745555D01*
X177800500Y-59749851D01*
X177820185Y-59682812D01*
X177872989Y-59637057D01*
X177942147Y-59627113D01*
X178005703Y-59656138D01*
X178026073Y-59678725D01*
X178096113Y-59778753D01*
X178259247Y-59941887D01*
X178448232Y-60074216D01*
X178657324Y-60171717D01*
X178880170Y-60231429D01*
X179110000Y-60251536D01*
X179339830Y-60231429D01*
X179438704Y-60204935D01*
X179508554Y-60206596D01*
X179558480Y-60237028D01*
X180300970Y-60979518D01*
X180334455Y-61040841D01*
X180333064Y-61099292D01*
X180306570Y-61198170D01*
X180286463Y-61427999D01*
X180306570Y-61657827D01*
X180366283Y-61880677D01*
X180407499Y-61969064D01*
X180463784Y-62089768D01*
X180596113Y-62278753D01*
X180759247Y-62441887D01*
X180948232Y-62574216D01*
X181157324Y-62671717D01*
X181380170Y-62731429D01*
X181469990Y-62739287D01*
X181609999Y-62751536D01*
X181609999Y-62751535D01*
X181610000Y-62751536D01*
X181839830Y-62731429D01*
X182062676Y-62671717D01*
X182271768Y-62574216D01*
X182460753Y-62441887D01*
X182623887Y-62278753D01*
X182756216Y-62089768D01*
X182853717Y-61880676D01*
X182913429Y-61657830D01*
X182933536Y-61428000D01*
X182913429Y-61198170D01*
X182853717Y-60975324D01*
X182756216Y-60766232D01*
X182623887Y-60577247D01*
X182460753Y-60414113D01*
X182271768Y-60281784D01*
X182163781Y-60231429D01*
X182062677Y-60184283D01*
X181839827Y-60124570D01*
X181609999Y-60104463D01*
X181380170Y-60124570D01*
X181281292Y-60151064D01*
X181211442Y-60149401D01*
X181161518Y-60118970D01*
X180419028Y-59376480D01*
X180385543Y-59315157D01*
X180386935Y-59256704D01*
X180413429Y-59157830D01*
X180433536Y-58927999D01*
X180413429Y-58698172D01*
X180413429Y-58698170D01*
X180353717Y-58475324D01*
X180256216Y-58266232D01*
X180123887Y-58077247D01*
X179960753Y-57914113D01*
X179771768Y-57781784D01*
X179663781Y-57731429D01*
X179562677Y-57684283D01*
X179339827Y-57624570D01*
X179109999Y-57604463D01*
X178880172Y-57624570D01*
X178657322Y-57684283D01*
X178448234Y-57781783D01*
X178448232Y-57781784D01*
X178259247Y-57914113D01*
X178259243Y-57914116D01*
X178096115Y-58077244D01*
X178096112Y-58077247D01*
X178096113Y-58077247D01*
X178044698Y-58150676D01*
X178026075Y-58177272D01*
X177971497Y-58220897D01*
X177901999Y-58228089D01*
X177839644Y-58196567D01*
X177804231Y-58136337D01*
X177800500Y-58106148D01*
X177800500Y-56428000D01*
X180286463Y-56428000D01*
X180306570Y-56657827D01*
X180366283Y-56880677D01*
X180381232Y-56912735D01*
X180463784Y-57089768D01*
X180596113Y-57278753D01*
X180759247Y-57441887D01*
X180948232Y-57574216D01*
X181157324Y-57671717D01*
X181380170Y-57731429D01*
X181533390Y-57744833D01*
X181609999Y-57751536D01*
X181609999Y-57751535D01*
X181610000Y-57751536D01*
X181839830Y-57731429D01*
X182062676Y-57671717D01*
X182271768Y-57574216D01*
X182460753Y-57441887D01*
X182623887Y-57278753D01*
X182756216Y-57089768D01*
X182853717Y-56880676D01*
X182913429Y-56657830D01*
X182933536Y-56428000D01*
X182913429Y-56198170D01*
X182853717Y-55975324D01*
X182756216Y-55766232D01*
X182623887Y-55577247D01*
X182460753Y-55414113D01*
X182271768Y-55281784D01*
X182161225Y-55230237D01*
X182062677Y-55184283D01*
X181839827Y-55124570D01*
X181609999Y-55104463D01*
X181380172Y-55124570D01*
X181157322Y-55184283D01*
X180948234Y-55281783D01*
X180948232Y-55281784D01*
X180836290Y-55360167D01*
X180759243Y-55414116D01*
X180596116Y-55577243D01*
X180463783Y-55766234D01*
X180366283Y-55975322D01*
X180306570Y-56198172D01*
X180286463Y-56428000D01*
X177800500Y-56428000D01*
X177800500Y-52734636D01*
X181591500Y-52734636D01*
X181591690Y-52737055D01*
X181591691Y-52737070D01*
X181593273Y-52757168D01*
X181601970Y-52867669D01*
X181657321Y-53087336D01*
X181657322Y-53087339D01*
X181751005Y-53293590D01*
X181880013Y-53479802D01*
X182040197Y-53639986D01*
X182226408Y-53768993D01*
X182226409Y-53768994D01*
X182432664Y-53862679D01*
X182652331Y-53918030D01*
X182785364Y-53928500D01*
X182787809Y-53928500D01*
X184412191Y-53928500D01*
X184414636Y-53928500D01*
X184547669Y-53918030D01*
X184767336Y-53862679D01*
X184973591Y-53768994D01*
X185159802Y-53639986D01*
X185319986Y-53479802D01*
X185448994Y-53293591D01*
X185542679Y-53087336D01*
X185598030Y-52867669D01*
X185608500Y-52734636D01*
X185608500Y-50105364D01*
X185598030Y-49972331D01*
X185542679Y-49752664D01*
X185448994Y-49546409D01*
X185391026Y-49462737D01*
X185319986Y-49360197D01*
X185159802Y-49200013D01*
X184973590Y-49071005D01*
X184767339Y-48977322D01*
X184767337Y-48977321D01*
X184767336Y-48977321D01*
X184547669Y-48921970D01*
X184519066Y-48919718D01*
X184417070Y-48911691D01*
X184417055Y-48911690D01*
X184414636Y-48911500D01*
X182785364Y-48911500D01*
X182782945Y-48911690D01*
X182782929Y-48911691D01*
X182666632Y-48920844D01*
X182652331Y-48921970D01*
X182439343Y-48975637D01*
X182432660Y-48977322D01*
X182226409Y-49071005D01*
X182040197Y-49200013D01*
X181880013Y-49360197D01*
X181751005Y-49546409D01*
X181657322Y-49752660D01*
X181657320Y-49752664D01*
X181657321Y-49752664D01*
X181604407Y-49962662D01*
X181601970Y-49972332D01*
X181591691Y-50102929D01*
X181591690Y-50102945D01*
X181591500Y-50105364D01*
X181591500Y-52734636D01*
X177800500Y-52734636D01*
X177800500Y-45955303D01*
X177820185Y-45888264D01*
X177872989Y-45842509D01*
X177942147Y-45832565D01*
X178005703Y-45861590D01*
X178026069Y-45884173D01*
X178151113Y-46062753D01*
X178314247Y-46225887D01*
X178503232Y-46358216D01*
X178712324Y-46455717D01*
X178935170Y-46515429D01*
X179165000Y-46535536D01*
X179394830Y-46515429D01*
X179617676Y-46455717D01*
X179826768Y-46358216D01*
X180015753Y-46225887D01*
X180178887Y-46062753D01*
X180311216Y-45873768D01*
X180408717Y-45664676D01*
X180468429Y-45441830D01*
X180488536Y-45212000D01*
X180468429Y-44982170D01*
X180408717Y-44759324D01*
X180311216Y-44550232D01*
X180178887Y-44361247D01*
X180015753Y-44198113D01*
X179826768Y-44065784D01*
X179702037Y-44007621D01*
X179617677Y-43968283D01*
X179394827Y-43908570D01*
X179165000Y-43888463D01*
X178935172Y-43908570D01*
X178712322Y-43968283D01*
X178503234Y-44065783D01*
X178503232Y-44065784D01*
X178325184Y-44190455D01*
X178314243Y-44198116D01*
X178151116Y-44361243D01*
X178151113Y-44361246D01*
X178151113Y-44361247D01*
X178075877Y-44468696D01*
X178026075Y-44539820D01*
X177971498Y-44583445D01*
X177901999Y-44590637D01*
X177839645Y-44559115D01*
X177804231Y-44498885D01*
X177800500Y-44468696D01*
X177800500Y-42711999D01*
X180341463Y-42711999D01*
X180361570Y-42941827D01*
X180404577Y-43102331D01*
X180421283Y-43164676D01*
X180518784Y-43373768D01*
X180651113Y-43562753D01*
X180814247Y-43725887D01*
X181003232Y-43858216D01*
X181212324Y-43955717D01*
X181435170Y-44015429D01*
X181665000Y-44035536D01*
X181894830Y-44015429D01*
X182117676Y-43955717D01*
X182326768Y-43858216D01*
X182515753Y-43725887D01*
X182678887Y-43562753D01*
X182811216Y-43373768D01*
X182908717Y-43164676D01*
X182968429Y-42941830D01*
X182988536Y-42712000D01*
X182968429Y-42482170D01*
X182908717Y-42259324D01*
X182811216Y-42050232D01*
X182678887Y-41861247D01*
X182515753Y-41698113D01*
X182326768Y-41565784D01*
X182230363Y-41520829D01*
X182117677Y-41468283D01*
X181894827Y-41408570D01*
X181664999Y-41388463D01*
X181435172Y-41408570D01*
X181212322Y-41468283D01*
X181003234Y-41565783D01*
X181003232Y-41565784D01*
X180893722Y-41642464D01*
X180814243Y-41698116D01*
X180651116Y-41861243D01*
X180651113Y-41861246D01*
X180651113Y-41861247D01*
X180524063Y-42042694D01*
X180518783Y-42050234D01*
X180421283Y-42259322D01*
X180361570Y-42482172D01*
X180341463Y-42711999D01*
X177800500Y-42711999D01*
X177800500Y-38089636D01*
X181591500Y-38089636D01*
X181591690Y-38092055D01*
X181591691Y-38092070D01*
X181592392Y-38100973D01*
X181601970Y-38222669D01*
X181657321Y-38442336D01*
X181657322Y-38442339D01*
X181751005Y-38648590D01*
X181880013Y-38834802D01*
X182040197Y-38994986D01*
X182146936Y-39068935D01*
X182226409Y-39123994D01*
X182432664Y-39217679D01*
X182652331Y-39273030D01*
X182785364Y-39283500D01*
X182787809Y-39283500D01*
X184412191Y-39283500D01*
X184414636Y-39283500D01*
X184547669Y-39273030D01*
X184767336Y-39217679D01*
X184973591Y-39123994D01*
X185159802Y-38994986D01*
X185319986Y-38834802D01*
X185448994Y-38648591D01*
X185542679Y-38442336D01*
X185598030Y-38222669D01*
X185608500Y-38089636D01*
X185608500Y-35460364D01*
X185598030Y-35327331D01*
X185542679Y-35107664D01*
X185448994Y-34901409D01*
X185448994Y-34901408D01*
X185319986Y-34715197D01*
X185159802Y-34555013D01*
X184973590Y-34426005D01*
X184767339Y-34332322D01*
X184767337Y-34332321D01*
X184767336Y-34332321D01*
X184547669Y-34276970D01*
X184519066Y-34274718D01*
X184417070Y-34266691D01*
X184417055Y-34266690D01*
X184414636Y-34266500D01*
X182785364Y-34266500D01*
X182782945Y-34266690D01*
X182782929Y-34266691D01*
X182666632Y-34275844D01*
X182652331Y-34276970D01*
X182439343Y-34330637D01*
X182432660Y-34332322D01*
X182226409Y-34426005D01*
X182040197Y-34555013D01*
X181880013Y-34715197D01*
X181751005Y-34901409D01*
X181657322Y-35107660D01*
X181601970Y-35327332D01*
X181591691Y-35457929D01*
X181591690Y-35457945D01*
X181591500Y-35460364D01*
X181591500Y-38089636D01*
X177800500Y-38089636D01*
X177800500Y-30604500D01*
X177820185Y-30537461D01*
X177872989Y-30491706D01*
X177924500Y-30480500D01*
X197995500Y-30480500D01*
X198062539Y-30500185D01*
G37*
%TD.AperFunction*%
%TA.AperFunction,Conductor*%
G36*
X178005703Y-67281932D02*
G01*
X178012181Y-67287964D01*
X178109636Y-67385419D01*
X178143121Y-67446742D01*
X178138137Y-67516434D01*
X178109636Y-67560782D01*
X178012181Y-67658236D01*
X177950857Y-67691720D01*
X177881166Y-67686736D01*
X177825233Y-67644864D01*
X177800816Y-67579399D01*
X177800500Y-67570554D01*
X177800500Y-67375645D01*
X177820185Y-67308606D01*
X177872989Y-67262851D01*
X177942147Y-67252907D01*
X178005703Y-67281932D01*
G37*
%TD.AperFunction*%
%TD*%
M02*
