M48
; DRILL file {KiCad (6.0.5)} date Wed Apr 26 04:57:21 2023
; FORMAT={-:-/ absolute / inch / decimal}
; #@! TF.CreationDate,2023-04-26T04:57:21-04:00
; #@! TF.GenerationSoftware,Kicad,Pcbnew,(6.0.5)
; #@! TF.FileFunction,NonPlated,1,2,NPTH
FMAT,2
INCH
; #@! TA.AperFunction,NonPlated,NPTH,ComponentDrill
T1C0.0472
%
G90
G05
T1
X1.0408Y-2.4376
X1.0408Y-2.7132
X1.4908Y-2.4376
X1.4908Y-2.7132
X1.9908Y-2.4376
X1.9908Y-2.7132
X2.4658Y-2.4376
X2.4658Y-2.7132
X2.8658Y-2.4376
X2.8658Y-2.7132
X6.9658Y-2.1876
X6.9658Y-2.4632
X6.9906Y-3.0581
X6.9906Y-3.3337
X7.3158Y-2.1876
X7.3158Y-2.4632
X7.3406Y-3.0581
X7.3406Y-3.3337
X7.6658Y-2.1876
X7.6658Y-2.4632
X7.6906Y-3.0581
X7.6906Y-3.3337
X8.0158Y-2.1876
X8.0158Y-2.4632
X8.0406Y-3.0581
X8.0406Y-3.3337
X10.249Y-2.4262
X10.249Y-2.7018
X10.6408Y-2.4376
X10.6408Y-2.7132
X11.0408Y-2.4626
X11.0408Y-2.7382
X11.4158Y-2.4126
X11.4158Y-2.6882
X11.8406Y-2.4256
X11.8406Y-2.7012
T0
M30
