%TF.GenerationSoftware,KiCad,Pcbnew,(6.0.5)*%
%TF.CreationDate,2023-04-26T04:57:18-04:00*%
%TF.ProjectId,as3340,61733333-3430-42e6-9b69-6361645f7063,rev?*%
%TF.SameCoordinates,Original*%
%TF.FileFunction,Copper,L2,Bot*%
%TF.FilePolarity,Positive*%
%FSLAX46Y46*%
G04 Gerber Fmt 4.6, Leading zero omitted, Abs format (unit mm)*
G04 Created by KiCad (PCBNEW (6.0.5)) date 2023-04-26 04:57:18*
%MOMM*%
%LPD*%
G01*
G04 APERTURE LIST*
%TA.AperFunction,ComponentPad*%
%ADD10C,1.400000*%
%TD*%
%TA.AperFunction,ComponentPad*%
%ADD11O,1.400000X1.400000*%
%TD*%
%TA.AperFunction,ComponentPad*%
%ADD12R,1.700000X1.700000*%
%TD*%
%TA.AperFunction,ComponentPad*%
%ADD13R,1.800000X1.800000*%
%TD*%
%TA.AperFunction,ComponentPad*%
%ADD14O,1.800000X1.800000*%
%TD*%
%TA.AperFunction,ComponentPad*%
%ADD15O,1.400000X2.000000*%
%TD*%
%TA.AperFunction,ComponentPad*%
%ADD16R,1.400000X2.000000*%
%TD*%
%TA.AperFunction,ComponentPad*%
%ADD17C,1.620000*%
%TD*%
%TA.AperFunction,ComponentPad*%
%ADD18C,1.700000*%
%TD*%
%TA.AperFunction,ComponentPad*%
%ADD19R,1.200000X1.200000*%
%TD*%
%TA.AperFunction,ComponentPad*%
%ADD20C,1.200000*%
%TD*%
%TA.AperFunction,ComponentPad*%
%ADD21C,1.800000*%
%TD*%
%TA.AperFunction,ComponentPad*%
%ADD22R,1.600000X1.600000*%
%TD*%
%TA.AperFunction,ComponentPad*%
%ADD23O,1.600000X1.600000*%
%TD*%
%TA.AperFunction,ComponentPad*%
%ADD24O,1.700000X1.700000*%
%TD*%
G04 APERTURE END LIST*
D10*
%TO.P,R106,1*%
%TO.N,Net-(R33-Pad1)*%
X91440000Y-93980000D03*
D11*
%TO.P,R106,2*%
%TO.N,Net-(RV7-Pad2)*%
X96520000Y-93980000D03*
%TD*%
D10*
%TO.P,R105,1*%
%TO.N,Net-(R10-Pad2)*%
X284480000Y-88265000D03*
D11*
%TO.P,R105,2*%
%TO.N,Net-(RV2-Pad2)*%
X289560000Y-88265000D03*
%TD*%
D12*
%TO.P,J30,1,Pin_1*%
%TO.N,Net-(J30-Pad1)*%
X77395000Y-176185000D03*
%TD*%
D13*
%TO.P,D1,1,K*%
%TO.N,GND*%
X250835000Y-113660000D03*
D14*
%TO.P,D1,2,A*%
%TO.N,Net-(D1-Pad2)*%
X243215000Y-113660000D03*
%TD*%
D15*
%TO.P,J3,*%
%TO.N,*%
X273477500Y-60615000D03*
%TO.P,J3,R1*%
%TO.N,N/C*%
X267977500Y-63615000D03*
%TO.P,J3,R2*%
X267977500Y-60615000D03*
%TO.P,J3,S*%
%TO.N,GND*%
X272477500Y-69115000D03*
D16*
%TO.P,J3,T*%
%TO.N,Net-(C3-Pad1)*%
X267977500Y-67615000D03*
%TD*%
D10*
%TO.P,R21,1*%
%TO.N,-15V*%
X94615000Y-69215000D03*
D11*
%TO.P,R21,2*%
%TO.N,Net-(R21-Pad2)*%
X99695000Y-69215000D03*
%TD*%
D17*
%TO.P,SineLevelTrim1,1,1*%
%TO.N,Net-(R40-Pad1)*%
X206320000Y-101005000D03*
%TO.P,SineLevelTrim1,2,2*%
X208820000Y-103505000D03*
%TO.P,SineLevelTrim1,3,3*%
%TO.N,+15V*%
X206320000Y-106005000D03*
%TD*%
D12*
%TO.P,J31,1,Pin_1*%
%TO.N,Net-(J31-Pad1)*%
X242570000Y-60325000D03*
%TD*%
%TO.P,SW3,1*%
%TO.N,Net-(D5-Pad1)*%
X49380000Y-179015000D03*
D18*
X55880000Y-179015000D03*
%TO.P,SW3,2*%
%TO.N,Net-(J25-Pad1)*%
X55880000Y-183515000D03*
X49380000Y-183515000D03*
%TD*%
D19*
%TO.P,C7,1*%
%TO.N,Net-(C7-Pad1)*%
X106450000Y-115570000D03*
D20*
%TO.P,C7,2*%
%TO.N,Net-(C7-Pad2)*%
X107950000Y-115570000D03*
%TD*%
D10*
%TO.P,R47,1*%
%TO.N,Net-(J12-PadT)*%
X73660000Y-116840000D03*
D11*
%TO.P,R47,2*%
%TO.N,Net-(R47-Pad2)*%
X78740000Y-116840000D03*
%TD*%
D12*
%TO.P,J24,1,Pin_1*%
%TO.N,Net-(J24-Pad1)*%
X140335000Y-78740000D03*
%TD*%
D15*
%TO.P,J12,*%
%TO.N,*%
X41067500Y-60615000D03*
%TO.P,J12,R1*%
%TO.N,N/C*%
X35567500Y-63615000D03*
%TO.P,J12,R2*%
X35567500Y-60615000D03*
%TO.P,J12,S*%
%TO.N,GND*%
X40067500Y-69115000D03*
D16*
%TO.P,J12,T*%
%TO.N,Net-(J12-PadT)*%
X35567500Y-67615000D03*
%TD*%
D17*
%TO.P,RV10,1,1*%
%TO.N,Net-(R45-Pad1)*%
X67945000Y-106680000D03*
%TO.P,RV10,2,2*%
%TO.N,Net-(R46-Pad1)*%
X70445000Y-109180000D03*
%TO.P,RV10,3,3*%
X67945000Y-111680000D03*
%TD*%
D18*
%TO.P,SW6,1*%
%TO.N,Net-(D8-Pad1)*%
X110565000Y-156500000D03*
D12*
X104065000Y-156500000D03*
D18*
%TO.P,SW6,2*%
%TO.N,Net-(J25-Pad1)*%
X110565000Y-161000000D03*
X104065000Y-161000000D03*
%TD*%
D17*
%TO.P,SineShapeTrim1,1,1*%
%TO.N,Net-(R63-Pad2)*%
X203200000Y-116205000D03*
%TO.P,SineShapeTrim1,2,2*%
%TO.N,Net-(R54-Pad2)*%
X200700000Y-113705000D03*
%TO.P,SineShapeTrim1,3,3*%
X203200000Y-111205000D03*
%TD*%
D21*
%TO.P,RV3,1,1*%
%TO.N,Net-(R16-Pad1)*%
X325755000Y-59055000D03*
%TO.P,RV3,2,2*%
%TO.N,Net-(R19-Pad1)*%
X325755000Y-56515000D03*
%TO.P,RV3,3,3*%
%TO.N,Net-(R14-Pad2)*%
X325755000Y-53975000D03*
%TD*%
%TO.P,RV5,1,1*%
%TO.N,Net-(R25-Pad1)*%
X102780000Y-74280000D03*
%TO.P,RV5,2,2*%
%TO.N,Net-(R31-Pad1)*%
X102780000Y-71740000D03*
%TO.P,RV5,3,3*%
%TO.N,Net-(R21-Pad2)*%
X102780000Y-69200000D03*
%TD*%
D22*
%TO.P,U12,1,A0*%
%TO.N,GND*%
X143510000Y-51435000D03*
D23*
%TO.P,U12,2,~{CS}*%
X143510000Y-53975000D03*
%TO.P,U12,3,~{WE}*%
%TO.N,Net-(J22-Pad1)*%
X143510000Y-56515000D03*
%TO.P,U12,4,D1*%
%TO.N,Net-(J22-Pad10)*%
X143510000Y-59055000D03*
%TO.P,U12,5,~{Y1}*%
%TO.N,Net-(U11-Pad11)*%
X143510000Y-61595000D03*
%TO.P,U12,6,D2*%
%TO.N,Net-(J22-Pad8)*%
X143510000Y-64135000D03*
%TO.P,U12,7,~{Y2}*%
%TO.N,Net-(U11-Pad10)*%
X143510000Y-66675000D03*
%TO.P,U12,8,GND*%
%TO.N,GND*%
X143510000Y-69215000D03*
%TO.P,U12,9,~{Y3}*%
%TO.N,Net-(U11-Pad9)*%
X151130000Y-69215000D03*
%TO.P,U12,10,D3*%
%TO.N,Net-(J22-Pad6)*%
X151130000Y-66675000D03*
%TO.P,U12,11,~{Y4}*%
%TO.N,Net-(U11-Pad6)*%
X151130000Y-64135000D03*
%TO.P,U12,12,D4*%
%TO.N,Net-(J22-Pad4)*%
X151130000Y-61595000D03*
%TO.P,U12,13,A3*%
%TO.N,GND*%
X151130000Y-59055000D03*
%TO.P,U12,14,A2*%
X151130000Y-56515000D03*
%TO.P,U12,15,A1*%
X151130000Y-53975000D03*
%TO.P,U12,16,VCC*%
%TO.N,+5V*%
X151130000Y-51435000D03*
%TD*%
D12*
%TO.P,J26,1,Pin_1*%
%TO.N,Net-(J26-Pad1)*%
X236855000Y-213995000D03*
%TD*%
D17*
%TO.P,SineBiasTrim1,1,1*%
%TO.N,-15V*%
X208970000Y-113625000D03*
%TO.P,SineBiasTrim1,2,2*%
%TO.N,Net-(R55-Pad2)*%
X206470000Y-111125000D03*
%TO.P,SineBiasTrim1,3,3*%
%TO.N,+15V*%
X208970000Y-108625000D03*
%TD*%
D10*
%TO.P,R14,1*%
%TO.N,-15V*%
X316865000Y-53975000D03*
D11*
%TO.P,R14,2*%
%TO.N,Net-(R14-Pad2)*%
X321945000Y-53975000D03*
%TD*%
D10*
%TO.P,R19,1*%
%TO.N,Net-(R19-Pad1)*%
X295910000Y-98425000D03*
D11*
%TO.P,R19,2*%
%TO.N,Net-(R19-Pad2)*%
X290830000Y-98425000D03*
%TD*%
D22*
%TO.P,U3,1*%
%TO.N,Net-(R68-Pad1)*%
X233055000Y-103500000D03*
D23*
%TO.P,U3,2,-*%
X233055000Y-106040000D03*
%TO.P,U3,3,+*%
%TO.N,Net-(U3-Pad3)*%
X233055000Y-108580000D03*
%TO.P,U3,4,V+*%
%TO.N,+15V*%
X233055000Y-111120000D03*
%TO.P,U3,5,+*%
%TO.N,Net-(U1-Pad10)*%
X233055000Y-113660000D03*
%TO.P,U3,6,-*%
%TO.N,Net-(R61-Pad2)*%
X233055000Y-116200000D03*
%TO.P,U3,7*%
%TO.N,Net-(R63-Pad2)*%
X233055000Y-118740000D03*
%TO.P,U3,8*%
%TO.N,Net-(R65-Pad1)*%
X240675000Y-118740000D03*
%TO.P,U3,9,-*%
X240675000Y-116200000D03*
%TO.P,U3,10,+*%
%TO.N,Net-(D1-Pad2)*%
X240675000Y-113660000D03*
%TO.P,U3,11,V-*%
%TO.N,-15V*%
X240675000Y-111120000D03*
%TO.P,U3,12,+*%
%TO.N,Net-(U1-Pad8)*%
X240675000Y-108580000D03*
%TO.P,U3,13,-*%
%TO.N,Net-(R66-Pad1)*%
X240675000Y-106040000D03*
%TO.P,U3,14*%
X240675000Y-103500000D03*
%TD*%
D12*
%TO.P,J23,1,Pin_1*%
%TO.N,Net-(J23-Pad1)*%
X229235000Y-78740000D03*
%TD*%
D10*
%TO.P,R42,1*%
%TO.N,Net-(J7-PadT)*%
X266710000Y-111125000D03*
D11*
%TO.P,R42,2*%
%TO.N,Net-(R42-Pad2)*%
X271790000Y-111125000D03*
%TD*%
D10*
%TO.P,R16,1*%
%TO.N,Net-(R16-Pad1)*%
X316865000Y-59055000D03*
D11*
%TO.P,R16,2*%
%TO.N,+15V*%
X321945000Y-59055000D03*
%TD*%
D18*
%TO.P,SW10,1*%
%TO.N,Net-(D12-Pad1)*%
X244550000Y-150785000D03*
D12*
X238050000Y-150785000D03*
D18*
%TO.P,SW10,2*%
%TO.N,Net-(J26-Pad1)*%
X244550000Y-155285000D03*
X238050000Y-155285000D03*
%TD*%
D10*
%TO.P,R13,1*%
%TO.N,Net-(R13-Pad1)*%
X271780000Y-108585000D03*
D11*
%TO.P,R13,2*%
%TO.N,Net-(D1-Pad2)*%
X266700000Y-108585000D03*
%TD*%
D10*
%TO.P,R29,1*%
%TO.N,Net-(R29-Pad1)*%
X99060000Y-59690000D03*
D11*
%TO.P,R29,2*%
%TO.N,+15V*%
X93980000Y-59690000D03*
%TD*%
D12*
%TO.P,J6,1,Pin_1*%
%TO.N,Net-(J6-Pad1)*%
X42545000Y-111125000D03*
%TD*%
D15*
%TO.P,J13,*%
%TO.N,*%
X29637500Y-60615000D03*
%TO.P,J13,R1*%
%TO.N,N/C*%
X24137500Y-63615000D03*
%TO.P,J13,R2*%
X24137500Y-60615000D03*
%TO.P,J13,S*%
%TO.N,GND*%
X28637500Y-69115000D03*
D16*
%TO.P,J13,T*%
%TO.N,Net-(C10-Pad1)*%
X24137500Y-67615000D03*
%TD*%
D18*
%TO.P,SW13,1*%
%TO.N,Net-(D15-Pad1)*%
X272490000Y-134910000D03*
D12*
X265990000Y-134910000D03*
D18*
%TO.P,SW13,2*%
%TO.N,Net-(J26-Pad1)*%
X272490000Y-139410000D03*
X265990000Y-139410000D03*
%TD*%
%TO.P,SW14,1*%
%TO.N,Net-(D16-Pad1)*%
X273125000Y-150785000D03*
D12*
X266625000Y-150785000D03*
D18*
%TO.P,SW14,2*%
%TO.N,Net-(J26-Pad1)*%
X273125000Y-155285000D03*
X266625000Y-155285000D03*
%TD*%
D17*
%TO.P,RV7,1,1*%
%TO.N,Net-(RV7-Pad1)*%
X72390000Y-121920000D03*
%TO.P,RV7,2,2*%
%TO.N,Net-(RV7-Pad2)*%
X69890000Y-124420000D03*
%TO.P,RV7,3,3*%
%TO.N,GND*%
X67390000Y-121920000D03*
%TD*%
D21*
%TO.P,RV4,1,1*%
%TO.N,Net-(R17-Pad1)*%
X325665000Y-73645000D03*
%TO.P,RV4,2,2*%
%TO.N,Net-(R18-Pad1)*%
X325665000Y-71105000D03*
%TO.P,RV4,3,3*%
%TO.N,Net-(R15-Pad2)*%
X325665000Y-68565000D03*
%TD*%
D22*
%TO.P,U8,1,A4*%
%TO.N,Net-(J12-PadT)*%
X45085000Y-106045000D03*
D23*
%TO.P,U8,2,A6*%
%TO.N,Net-(C7-Pad2)*%
X45085000Y-108585000D03*
%TO.P,U8,3,A*%
%TO.N,Net-(J6-Pad1)*%
X45085000Y-111125000D03*
%TO.P,U8,4,A7*%
%TO.N,Net-(R7-Pad1)*%
X45085000Y-113665000D03*
%TO.P,U8,5,A5*%
%TO.N,Net-(C10-Pad1)*%
X45085000Y-116205000D03*
%TO.P,U8,6,~{E}*%
%TO.N,Net-(J28-Pad1)*%
X45085000Y-118745000D03*
%TO.P,U8,7,VEE*%
%TO.N,GND*%
X45085000Y-121285000D03*
%TO.P,U8,8,GND*%
X45085000Y-123825000D03*
%TO.P,U8,9,S2*%
%TO.N,Net-(J27-Pad1)*%
X52705000Y-123825000D03*
%TO.P,U8,10,S1*%
%TO.N,Net-(J27-Pad2)*%
X52705000Y-121285000D03*
%TO.P,U8,11,S0*%
%TO.N,Net-(J27-Pad3)*%
X52705000Y-118745000D03*
%TO.P,U8,12,A3*%
%TO.N,Net-(R20-Pad1)*%
X52705000Y-116205000D03*
%TO.P,U8,13,A0*%
%TO.N,Net-(J7-PadT)*%
X52705000Y-113665000D03*
%TO.P,U8,14,A1*%
%TO.N,Net-(C3-Pad1)*%
X52705000Y-111125000D03*
%TO.P,U8,15,A2*%
%TO.N,Net-(C1-Pad2)*%
X52705000Y-108585000D03*
%TO.P,U8,16,VCC*%
%TO.N,+5V*%
X52705000Y-106045000D03*
%TD*%
D15*
%TO.P,J4,*%
%TO.N,*%
X293162500Y-59980000D03*
%TO.P,J4,R1*%
%TO.N,N/C*%
X287662500Y-62980000D03*
%TO.P,J4,R2*%
X287662500Y-59980000D03*
%TO.P,J4,S*%
%TO.N,GND*%
X292162500Y-68480000D03*
D16*
%TO.P,J4,T*%
%TO.N,Net-(C4-Pad1)*%
X287662500Y-66980000D03*
%TD*%
D22*
%TO.P,U13,1,A0*%
%TO.N,GND*%
X232410000Y-47625000D03*
D23*
%TO.P,U13,2,~{CS}*%
X232410000Y-50165000D03*
%TO.P,U13,3,~{WE}*%
%TO.N,Net-(J22-Pad5)*%
X232410000Y-52705000D03*
%TO.P,U13,4,D1*%
%TO.N,Net-(J22-Pad10)*%
X232410000Y-55245000D03*
%TO.P,U13,5,~{Y1}*%
%TO.N,Net-(J32-Pad3)*%
X232410000Y-57785000D03*
%TO.P,U13,6,D2*%
%TO.N,Net-(J22-Pad8)*%
X232410000Y-60325000D03*
%TO.P,U13,7,~{Y2}*%
%TO.N,Net-(J32-Pad2)*%
X232410000Y-62865000D03*
%TO.P,U13,8,GND*%
%TO.N,GND*%
X232410000Y-65405000D03*
%TO.P,U13,9,~{Y3}*%
%TO.N,Net-(J32-Pad1)*%
X240030000Y-65405000D03*
%TO.P,U13,10,D3*%
%TO.N,Net-(J22-Pad6)*%
X240030000Y-62865000D03*
%TO.P,U13,11,~{Y4}*%
%TO.N,Net-(J31-Pad1)*%
X240030000Y-60325000D03*
%TO.P,U13,12,D4*%
%TO.N,Net-(J22-Pad4)*%
X240030000Y-57785000D03*
%TO.P,U13,13,A3*%
%TO.N,GND*%
X240030000Y-55245000D03*
%TO.P,U13,14,A2*%
X240030000Y-52705000D03*
%TO.P,U13,15,A1*%
X240030000Y-50165000D03*
%TO.P,U13,16,VCC*%
%TO.N,+5V*%
X240030000Y-47625000D03*
%TD*%
D10*
%TO.P,R2,1*%
%TO.N,+15V*%
X294005000Y-108585000D03*
D11*
%TO.P,R2,2*%
%TO.N,Net-(R1-Pad2)*%
X288925000Y-108585000D03*
%TD*%
D17*
%TO.P,RV2,1,1*%
%TO.N,Net-(RV2-Pad1)*%
X267970000Y-116840000D03*
%TO.P,RV2,2,2*%
%TO.N,Net-(RV2-Pad2)*%
X265470000Y-119340000D03*
%TO.P,RV2,3,3*%
%TO.N,GND*%
X262970000Y-116840000D03*
%TD*%
D12*
%TO.P,J2,1,Pin_1*%
%TO.N,Net-(J2-Pad1)*%
X326390000Y-106045000D03*
%TD*%
D21*
%TO.P,RV6,1,1*%
%TO.N,Net-(R29-Pad1)*%
X102780000Y-59675000D03*
%TO.P,RV6,2,2*%
%TO.N,Net-(R30-Pad1)*%
X102780000Y-57135000D03*
%TO.P,RV6,3,3*%
%TO.N,Net-(R24-Pad2)*%
X102780000Y-54595000D03*
%TD*%
D15*
%TO.P,J14,*%
%TO.N,*%
X53767500Y-60615000D03*
%TO.P,J14,R1*%
%TO.N,N/C*%
X48267500Y-63615000D03*
%TO.P,J14,R2*%
X48267500Y-60615000D03*
%TO.P,J14,S*%
%TO.N,GND*%
X52767500Y-69115000D03*
D16*
%TO.P,J14,T*%
%TO.N,Net-(C9-Pad1)*%
X48267500Y-67615000D03*
%TD*%
D10*
%TO.P,R1,1*%
%TO.N,Net-(C1-Pad1)*%
X294005000Y-111125000D03*
D11*
%TO.P,R1,2*%
%TO.N,Net-(R1-Pad2)*%
X288925000Y-111125000D03*
%TD*%
D10*
%TO.P,R4,1*%
%TO.N,Net-(R12-Pad1)*%
X271790000Y-103505000D03*
D11*
%TO.P,R4,2*%
%TO.N,Net-(R4-Pad2)*%
X266710000Y-103505000D03*
%TD*%
D12*
%TO.P,SW11,1*%
%TO.N,Net-(D13-Pad1)*%
X236780000Y-179360000D03*
D18*
X243280000Y-179360000D03*
%TO.P,SW11,2*%
%TO.N,Net-(J26-Pad1)*%
X243280000Y-183860000D03*
X236780000Y-183860000D03*
%TD*%
D10*
%TO.P,R31,1*%
%TO.N,Net-(R31-Pad1)*%
X101600000Y-104140000D03*
D11*
%TO.P,R31,2*%
%TO.N,Net-(R31-Pad2)*%
X96520000Y-104140000D03*
%TD*%
D22*
%TO.P,U6,1,A0*%
%TO.N,GND*%
X27305000Y-106045000D03*
D23*
%TO.P,U6,2,~{CS}*%
X27305000Y-108585000D03*
%TO.P,U6,3,~{WE}*%
%TO.N,Net-(J22-Pad3)*%
X27305000Y-111125000D03*
%TO.P,U6,4,D1*%
%TO.N,Net-(J22-Pad10)*%
X27305000Y-113665000D03*
%TO.P,U6,5,~{Y1}*%
%TO.N,Net-(J27-Pad3)*%
X27305000Y-116205000D03*
%TO.P,U6,6,D2*%
%TO.N,Net-(J22-Pad8)*%
X27305000Y-118745000D03*
%TO.P,U6,7,~{Y2}*%
%TO.N,Net-(J27-Pad2)*%
X27305000Y-121285000D03*
%TO.P,U6,8,GND*%
%TO.N,GND*%
X27305000Y-123825000D03*
%TO.P,U6,9,~{Y3}*%
%TO.N,Net-(J27-Pad1)*%
X34925000Y-123825000D03*
%TO.P,U6,10,D3*%
%TO.N,Net-(J22-Pad6)*%
X34925000Y-121285000D03*
%TO.P,U6,11,~{Y4}*%
%TO.N,Net-(J28-Pad1)*%
X34925000Y-118745000D03*
%TO.P,U6,12,D4*%
%TO.N,Net-(J22-Pad4)*%
X34925000Y-116205000D03*
%TO.P,U6,13,A3*%
%TO.N,GND*%
X34925000Y-113665000D03*
%TO.P,U6,14,A2*%
X34925000Y-111125000D03*
%TO.P,U6,15,A1*%
X34925000Y-108585000D03*
%TO.P,U6,16,VCC*%
%TO.N,+5V*%
X34925000Y-106045000D03*
%TD*%
D12*
%TO.P,J29,1,Pin_1*%
%TO.N,Net-(J29-Pad1)*%
X77395000Y-167945000D03*
D24*
%TO.P,J29,2,Pin_2*%
%TO.N,Net-(J29-Pad2)*%
X77395000Y-170485000D03*
%TO.P,J29,3,Pin_3*%
%TO.N,Net-(J29-Pad3)*%
X77395000Y-173025000D03*
%TD*%
D10*
%TO.P,R49,1*%
%TO.N,Net-(R42-Pad2)*%
X259080000Y-111125000D03*
D11*
%TO.P,R49,2*%
%TO.N,GND*%
X264160000Y-111125000D03*
%TD*%
D15*
%TO.P,J10,*%
%TO.N,*%
X198540000Y-76375000D03*
%TO.P,J10,R1*%
%TO.N,N/C*%
X193040000Y-79375000D03*
%TO.P,J10,R2*%
X193040000Y-76375000D03*
%TO.P,J10,S*%
%TO.N,GND*%
X197540000Y-84875000D03*
D16*
%TO.P,J10,T*%
%TO.N,Net-(J10-PadT)*%
X193040000Y-83375000D03*
%TD*%
D15*
%TO.P,J20,*%
%TO.N,*%
X197912500Y-54265000D03*
%TO.P,J20,R1*%
%TO.N,N/C*%
X192412500Y-57265000D03*
%TO.P,J20,R2*%
X192412500Y-54265000D03*
%TO.P,J20,S*%
%TO.N,GND*%
X196912500Y-62765000D03*
D16*
%TO.P,J20,T*%
%TO.N,Net-(J20-PadT)*%
X192412500Y-61265000D03*
%TD*%
D22*
%TO.P,U7,1,A4*%
%TO.N,Net-(J12-PadT)*%
X330210000Y-100980000D03*
D23*
%TO.P,U7,2,A6*%
%TO.N,Net-(C7-Pad2)*%
X330210000Y-103520000D03*
%TO.P,U7,3,A*%
%TO.N,Net-(J2-Pad1)*%
X330210000Y-106060000D03*
%TO.P,U7,4,A7*%
%TO.N,Net-(R7-Pad1)*%
X330210000Y-108600000D03*
%TO.P,U7,5,A5*%
%TO.N,Net-(C10-Pad1)*%
X330210000Y-111140000D03*
%TO.P,U7,6,~{E}*%
%TO.N,Net-(U5-Pad11)*%
X330210000Y-113680000D03*
%TO.P,U7,7,VEE*%
%TO.N,GND*%
X330210000Y-116220000D03*
%TO.P,U7,8,GND*%
X330210000Y-118760000D03*
%TO.P,U7,9,S2*%
%TO.N,Net-(U5-Pad9)*%
X337830000Y-118760000D03*
%TO.P,U7,10,S1*%
%TO.N,Net-(U5-Pad7)*%
X337830000Y-116220000D03*
%TO.P,U7,11,S0*%
%TO.N,Net-(U5-Pad5)*%
X337830000Y-113680000D03*
%TO.P,U7,12,A3*%
%TO.N,Net-(R20-Pad1)*%
X337830000Y-111140000D03*
%TO.P,U7,13,A0*%
%TO.N,Net-(J7-PadT)*%
X337830000Y-108600000D03*
%TO.P,U7,14,A1*%
%TO.N,Net-(C3-Pad1)*%
X337830000Y-106060000D03*
%TO.P,U7,15,A2*%
%TO.N,Net-(C1-Pad2)*%
X337830000Y-103520000D03*
%TO.P,U7,16,VCC*%
%TO.N,+5V*%
X337830000Y-100980000D03*
%TD*%
D18*
%TO.P,SW1,1*%
%TO.N,Net-(D3-Pad1)*%
X55880000Y-137105000D03*
D12*
X49380000Y-137105000D03*
D18*
%TO.P,SW1,2*%
%TO.N,Net-(J25-Pad1)*%
X49380000Y-141605000D03*
X55880000Y-141605000D03*
%TD*%
D22*
%TO.P,U1,1,SCALE1*%
%TO.N,Net-(R8-Pad2)*%
X274330000Y-100965000D03*
D23*
%TO.P,U1,2,SCALE2*%
%TO.N,Net-(R4-Pad2)*%
X274330000Y-103505000D03*
%TO.P,U1,3,VEE*%
%TO.N,Net-(R12-Pad1)*%
X274330000Y-106045000D03*
%TO.P,U1,4,VP*%
%TO.N,Net-(R13-Pad1)*%
X274330000Y-108585000D03*
%TO.P,U1,5,VPWM*%
%TO.N,Net-(R42-Pad2)*%
X274330000Y-111125000D03*
%TO.P,U1,6,VHSI*%
%TO.N,Net-(C3-Pad2)*%
X274330000Y-113665000D03*
%TO.P,U1,7,VHFT*%
%TO.N,Net-(RV2-Pad1)*%
X274330000Y-116205000D03*
%TO.P,U1,8,VSO*%
%TO.N,Net-(U1-Pad8)*%
X274330000Y-118745000D03*
%TO.P,U1,9,VSSI*%
%TO.N,Net-(C4-Pad2)*%
X281950000Y-118745000D03*
%TO.P,U1,10,VTO*%
%TO.N,Net-(U1-Pad10)*%
X281950000Y-116205000D03*
%TO.P,U1,11,CAP*%
%TO.N,Net-(C5-Pad2)*%
X281950000Y-113665000D03*
%TO.P,U1,12,GND*%
%TO.N,GND*%
X281950000Y-111125000D03*
%TO.P,U1,13,VLFI*%
%TO.N,Net-(R1-Pad2)*%
X281950000Y-108585000D03*
%TO.P,U1,14,VS*%
%TO.N,Net-(R11-Pad1)*%
X281950000Y-106045000D03*
%TO.P,U1,15,VFCI*%
%TO.N,Net-(R10-Pad2)*%
X281950000Y-103505000D03*
%TO.P,U1,16,VCC*%
%TO.N,+15V*%
X281950000Y-100965000D03*
%TD*%
D22*
%TO.P,U10,1,A4*%
%TO.N,Net-(J17-PadT)*%
X232420000Y-73675000D03*
D23*
%TO.P,U10,2,A6*%
%TO.N,Net-(J9-PadT)*%
X232420000Y-76215000D03*
%TO.P,U10,3,A*%
%TO.N,Net-(J23-Pad1)*%
X232420000Y-78755000D03*
%TO.P,U10,4,A7*%
%TO.N,Net-(J8-PadT)*%
X232420000Y-81295000D03*
%TO.P,U10,5,A5*%
%TO.N,Net-(J10-PadT)*%
X232420000Y-83835000D03*
%TO.P,U10,6,~{E}*%
%TO.N,Net-(J31-Pad1)*%
X232420000Y-86375000D03*
%TO.P,U10,7,VEE*%
%TO.N,GND*%
X232420000Y-88915000D03*
%TO.P,U10,8,GND*%
X232420000Y-91455000D03*
%TO.P,U10,9,S2*%
%TO.N,Net-(J32-Pad1)*%
X240040000Y-91455000D03*
%TO.P,U10,10,S1*%
%TO.N,Net-(J32-Pad2)*%
X240040000Y-88915000D03*
%TO.P,U10,11,S0*%
%TO.N,Net-(J32-Pad3)*%
X240040000Y-86375000D03*
%TO.P,U10,12,A3*%
%TO.N,Net-(J18-PadT)*%
X240040000Y-83835000D03*
%TO.P,U10,13,A0*%
%TO.N,Net-(J21-PadT)*%
X240040000Y-81295000D03*
%TO.P,U10,14,A1*%
%TO.N,Net-(J20-PadT)*%
X240040000Y-78755000D03*
%TO.P,U10,15,A2*%
%TO.N,Net-(J19-PadT)*%
X240040000Y-76215000D03*
%TO.P,U10,16,VCC*%
%TO.N,+5V*%
X240040000Y-73675000D03*
%TD*%
D19*
%TO.P,C1,1*%
%TO.N,Net-(C1-Pad1)*%
X300355000Y-111125000D03*
D20*
%TO.P,C1,2*%
%TO.N,Net-(C1-Pad2)*%
X301855000Y-111125000D03*
%TD*%
D15*
%TO.P,J15,*%
%TO.N,*%
X75992500Y-60615000D03*
%TO.P,J15,R1*%
%TO.N,N/C*%
X70492500Y-63615000D03*
%TO.P,J15,R2*%
X70492500Y-60615000D03*
%TO.P,J15,S*%
%TO.N,GND*%
X74992500Y-69115000D03*
D16*
%TO.P,J15,T*%
%TO.N,Net-(C7-Pad2)*%
X70492500Y-67615000D03*
%TD*%
D12*
%TO.P,J27,1,Pin_1*%
%TO.N,Net-(J27-Pad1)*%
X55880000Y-123810000D03*
D24*
%TO.P,J27,2,Pin_2*%
%TO.N,Net-(J27-Pad2)*%
X55880000Y-121270000D03*
%TO.P,J27,3,Pin_3*%
%TO.N,Net-(J27-Pad3)*%
X55880000Y-118730000D03*
%TD*%
D17*
%TO.P,RV1,1,1*%
%TO.N,Net-(R8-Pad1)*%
X260985000Y-100965000D03*
%TO.P,RV1,2,2*%
%TO.N,Net-(R12-Pad1)*%
X263485000Y-103465000D03*
%TO.P,RV1,3,3*%
X260985000Y-105965000D03*
%TD*%
D15*
%TO.P,J7,*%
%TO.N,*%
X263525000Y-60325000D03*
%TO.P,J7,R1*%
%TO.N,N/C*%
X258025000Y-63325000D03*
%TO.P,J7,R2*%
X258025000Y-60325000D03*
%TO.P,J7,S*%
%TO.N,GND*%
X262525000Y-68825000D03*
D16*
%TO.P,J7,T*%
%TO.N,Net-(J7-PadT)*%
X258025000Y-67325000D03*
%TD*%
D17*
%TO.P,SineLevelTrim2,1,1*%
%TO.N,Net-(R43-Pad1)*%
X174570000Y-101005000D03*
%TO.P,SineLevelTrim2,2,2*%
X177070000Y-103505000D03*
%TO.P,SineLevelTrim2,3,3*%
%TO.N,+15V*%
X174570000Y-106005000D03*
%TD*%
D15*
%TO.P,J1,*%
%TO.N,*%
X303950000Y-60310000D03*
%TO.P,J1,R1*%
%TO.N,N/C*%
X298450000Y-63310000D03*
%TO.P,J1,R2*%
X298450000Y-60310000D03*
%TO.P,J1,S*%
%TO.N,GND*%
X302950000Y-68810000D03*
D16*
%TO.P,J1,T*%
%TO.N,Net-(C1-Pad2)*%
X298450000Y-67310000D03*
%TD*%
D12*
%TO.P,J32,1,Pin_1*%
%TO.N,Net-(J32-Pad1)*%
X243205000Y-90790000D03*
D24*
%TO.P,J32,2,Pin_2*%
%TO.N,Net-(J32-Pad2)*%
X243205000Y-88250000D03*
%TO.P,J32,3,Pin_3*%
%TO.N,Net-(J32-Pad3)*%
X243205000Y-85710000D03*
%TD*%
D12*
%TO.P,SW8,1*%
%TO.N,Net-(D10-Pad1)*%
X104625000Y-194890000D03*
D18*
X111125000Y-194890000D03*
%TO.P,SW8,2*%
%TO.N,Net-(J25-Pad1)*%
X111125000Y-199390000D03*
X104625000Y-199390000D03*
%TD*%
D12*
%TO.P,J22,1,Pin_1*%
%TO.N,Net-(J22-Pad1)*%
X186690000Y-171450000D03*
D24*
%TO.P,J22,2,Pin_2*%
%TO.N,GND*%
X189230000Y-171450000D03*
%TO.P,J22,3,Pin_3*%
%TO.N,Net-(J22-Pad3)*%
X186690000Y-173990000D03*
%TO.P,J22,4,Pin_4*%
%TO.N,Net-(J22-Pad4)*%
X189230000Y-173990000D03*
%TO.P,J22,5,Pin_5*%
%TO.N,Net-(J22-Pad5)*%
X186690000Y-176530000D03*
%TO.P,J22,6,Pin_6*%
%TO.N,Net-(J22-Pad6)*%
X189230000Y-176530000D03*
%TO.P,J22,7,Pin_7*%
%TO.N,Net-(J22-Pad7)*%
X186690000Y-179070000D03*
%TO.P,J22,8,Pin_8*%
%TO.N,Net-(J22-Pad8)*%
X189230000Y-179070000D03*
%TO.P,J22,9,Pin_9*%
%TO.N,+5V*%
X186690000Y-181610000D03*
%TO.P,J22,10,Pin_10*%
%TO.N,Net-(J22-Pad10)*%
X189230000Y-181610000D03*
%TD*%
D18*
%TO.P,SW12,1*%
%TO.N,Net-(D14-Pad1)*%
X243280000Y-200950000D03*
D12*
X236780000Y-200950000D03*
D18*
%TO.P,SW12,2*%
%TO.N,Net-(J26-Pad1)*%
X236780000Y-205450000D03*
X243280000Y-205450000D03*
%TD*%
D10*
%TO.P,R60,1*%
%TO.N,Net-(D2-Pad2)*%
X71120000Y-114300000D03*
D11*
%TO.P,R60,2*%
%TO.N,GND*%
X66040000Y-114300000D03*
%TD*%
D12*
%TO.P,SW7,1*%
%TO.N,Net-(D9-Pad1)*%
X103990000Y-179650000D03*
D18*
X110490000Y-179650000D03*
%TO.P,SW7,2*%
%TO.N,Net-(J25-Pad1)*%
X103990000Y-184150000D03*
X110490000Y-184150000D03*
%TD*%
D10*
%TO.P,R25,1*%
%TO.N,Net-(R25-Pad1)*%
X99695000Y-74295000D03*
D11*
%TO.P,R25,2*%
%TO.N,+15V*%
X94615000Y-74295000D03*
%TD*%
D10*
%TO.P,R46,1*%
%TO.N,Net-(R46-Pad1)*%
X78740000Y-109220000D03*
D11*
%TO.P,R46,2*%
%TO.N,Net-(R46-Pad2)*%
X73660000Y-109220000D03*
%TD*%
D22*
%TO.P,U2,1,SCALE1*%
%TO.N,Net-(R45-Pad2)*%
X81290000Y-106695000D03*
D23*
%TO.P,U2,2,SCALE2*%
%TO.N,Net-(R46-Pad2)*%
X81290000Y-109235000D03*
%TO.P,U2,3,VEE*%
%TO.N,Net-(R46-Pad1)*%
X81290000Y-111775000D03*
%TO.P,U2,4,VP*%
%TO.N,Net-(R58-Pad1)*%
X81290000Y-114315000D03*
%TO.P,U2,5,VPWM*%
%TO.N,Net-(R47-Pad2)*%
X81290000Y-116855000D03*
%TO.P,U2,6,VHSI*%
%TO.N,Net-(C10-Pad2)*%
X81290000Y-119395000D03*
%TO.P,U2,7,VHFT*%
%TO.N,Net-(RV7-Pad1)*%
X81290000Y-121935000D03*
%TO.P,U2,8,VSO*%
%TO.N,Net-(U2-Pad8)*%
X81290000Y-124475000D03*
%TO.P,U2,9,VSSI*%
%TO.N,Net-(C9-Pad2)*%
X88910000Y-124475000D03*
%TO.P,U2,10,VTO*%
%TO.N,Net-(U2-Pad10)*%
X88910000Y-121935000D03*
%TO.P,U2,11,CAP*%
%TO.N,Net-(C12-Pad2)*%
X88910000Y-119395000D03*
%TO.P,U2,12,GND*%
%TO.N,GND*%
X88910000Y-116855000D03*
%TO.P,U2,13,VLFI*%
%TO.N,Net-(R26-Pad2)*%
X88910000Y-114315000D03*
%TO.P,U2,14,VS*%
%TO.N,Net-(R48-Pad1)*%
X88910000Y-111775000D03*
%TO.P,U2,15,VFCI*%
%TO.N,Net-(R33-Pad1)*%
X88910000Y-109235000D03*
%TO.P,U2,16,VCC*%
%TO.N,+15V*%
X88910000Y-106695000D03*
%TD*%
D15*
%TO.P,J9,*%
%TO.N,*%
X189650000Y-76375000D03*
%TO.P,J9,R1*%
%TO.N,N/C*%
X184150000Y-79375000D03*
%TO.P,J9,R2*%
X184150000Y-76375000D03*
%TO.P,J9,S*%
%TO.N,GND*%
X188650000Y-84875000D03*
D16*
%TO.P,J9,T*%
%TO.N,Net-(J9-PadT)*%
X184150000Y-83375000D03*
%TD*%
D10*
%TO.P,R30,1*%
%TO.N,Net-(R30-Pad1)*%
X101600000Y-101600000D03*
D11*
%TO.P,R30,2*%
%TO.N,Net-(R30-Pad2)*%
X96520000Y-101600000D03*
%TD*%
D15*
%TO.P,J17,*%
%TO.N,*%
X207430000Y-76375000D03*
%TO.P,J17,R1*%
%TO.N,N/C*%
X201930000Y-79375000D03*
%TO.P,J17,R2*%
X201930000Y-76375000D03*
%TO.P,J17,S*%
%TO.N,GND*%
X206430000Y-84875000D03*
D16*
%TO.P,J17,T*%
%TO.N,Net-(J17-PadT)*%
X201930000Y-83375000D03*
%TD*%
D10*
%TO.P,R26,1*%
%TO.N,+15V*%
X101600000Y-114300000D03*
D11*
%TO.P,R26,2*%
%TO.N,Net-(R26-Pad2)*%
X96520000Y-114300000D03*
%TD*%
D17*
%TO.P,RV8,1,1*%
%TO.N,Net-(R32-Pad1)*%
X295315000Y-103560000D03*
%TO.P,RV8,2,2*%
X297815000Y-101060000D03*
%TO.P,RV8,3,3*%
%TO.N,+15V*%
X300315000Y-103560000D03*
%TD*%
D22*
%TO.P,U11,1,A4*%
%TO.N,Net-(J17-PadT)*%
X143510000Y-73660000D03*
D23*
%TO.P,U11,2,A6*%
%TO.N,Net-(J9-PadT)*%
X143510000Y-76200000D03*
%TO.P,U11,3,A*%
%TO.N,Net-(J24-Pad1)*%
X143510000Y-78740000D03*
%TO.P,U11,4,A7*%
%TO.N,Net-(J8-PadT)*%
X143510000Y-81280000D03*
%TO.P,U11,5,A5*%
%TO.N,Net-(J10-PadT)*%
X143510000Y-83820000D03*
%TO.P,U11,6,~{E}*%
%TO.N,Net-(U11-Pad6)*%
X143510000Y-86360000D03*
%TO.P,U11,7,VEE*%
%TO.N,GND*%
X143510000Y-88900000D03*
%TO.P,U11,8,GND*%
X143510000Y-91440000D03*
%TO.P,U11,9,S2*%
%TO.N,Net-(U11-Pad9)*%
X151130000Y-91440000D03*
%TO.P,U11,10,S1*%
%TO.N,Net-(U11-Pad10)*%
X151130000Y-88900000D03*
%TO.P,U11,11,S0*%
%TO.N,Net-(U11-Pad11)*%
X151130000Y-86360000D03*
%TO.P,U11,12,A3*%
%TO.N,Net-(J18-PadT)*%
X151130000Y-83820000D03*
%TO.P,U11,13,A0*%
%TO.N,Net-(J21-PadT)*%
X151130000Y-81280000D03*
%TO.P,U11,14,A1*%
%TO.N,Net-(J20-PadT)*%
X151130000Y-78740000D03*
%TO.P,U11,15,A2*%
%TO.N,Net-(J19-PadT)*%
X151130000Y-76200000D03*
%TO.P,U11,16,VCC*%
%TO.N,+5V*%
X151130000Y-73660000D03*
%TD*%
D15*
%TO.P,J16,*%
%TO.N,*%
X65832500Y-60615000D03*
%TO.P,J16,R1*%
%TO.N,N/C*%
X60332500Y-63615000D03*
%TO.P,J16,R2*%
X60332500Y-60615000D03*
%TO.P,J16,S*%
%TO.N,GND*%
X64832500Y-69115000D03*
D16*
%TO.P,J16,T*%
%TO.N,Net-(J16-PadT)*%
X60332500Y-67615000D03*
%TD*%
D15*
%TO.P,J19,*%
%TO.N,*%
X189022500Y-54265000D03*
%TO.P,J19,R1*%
%TO.N,N/C*%
X183522500Y-57265000D03*
%TO.P,J19,R2*%
X183522500Y-54265000D03*
%TO.P,J19,S*%
%TO.N,GND*%
X188022500Y-62765000D03*
D16*
%TO.P,J19,T*%
%TO.N,Net-(J19-PadT)*%
X183522500Y-61265000D03*
%TD*%
D12*
%TO.P,J33,1,Pin_1*%
%TO.N,Net-(J33-Pad1)*%
X243840000Y-161925000D03*
D24*
%TO.P,J33,2,Pin_2*%
%TO.N,Net-(J33-Pad2)*%
X243840000Y-164465000D03*
%TO.P,J33,3,Pin_3*%
%TO.N,Net-(J33-Pad3)*%
X243840000Y-167005000D03*
%TD*%
D12*
%TO.P,SW9,1*%
%TO.N,Net-(D11-Pad1)*%
X238050000Y-134910000D03*
D18*
X244550000Y-134910000D03*
%TO.P,SW9,2*%
%TO.N,Net-(J26-Pad1)*%
X238050000Y-139410000D03*
X244550000Y-139410000D03*
%TD*%
%TO.P,SW15,1*%
%TO.N,Net-(D17-Pad1)*%
X273760000Y-179360000D03*
D12*
X267260000Y-179360000D03*
D18*
%TO.P,SW15,2*%
%TO.N,Net-(J26-Pad1)*%
X267260000Y-183860000D03*
X273760000Y-183860000D03*
%TD*%
D10*
%TO.P,R44,1*%
%TO.N,+15V*%
X185420000Y-116205000D03*
D11*
%TO.P,R44,2*%
%TO.N,Net-(R44-Pad2)*%
X185420000Y-111125000D03*
%TD*%
D12*
%TO.P,J25,1,Pin_1*%
%TO.N,Net-(J25-Pad1)*%
X49455000Y-204125000D03*
%TD*%
D18*
%TO.P,SW5,1*%
%TO.N,Net-(D7-Pad1)*%
X109930000Y-137450000D03*
D12*
X103430000Y-137450000D03*
D18*
%TO.P,SW5,2*%
%TO.N,Net-(J25-Pad1)*%
X103430000Y-141950000D03*
X109930000Y-141950000D03*
%TD*%
D10*
%TO.P,R18,1*%
%TO.N,Net-(R18-Pad1)*%
X295910000Y-95885000D03*
D11*
%TO.P,R18,2*%
%TO.N,Net-(R18-Pad2)*%
X290830000Y-95885000D03*
%TD*%
D22*
%TO.P,U5,1,A0*%
%TO.N,GND*%
X342275000Y-100980000D03*
D23*
%TO.P,U5,2,~{CS}*%
X342275000Y-103520000D03*
%TO.P,U5,3,~{WE}*%
%TO.N,Net-(J22-Pad7)*%
X342275000Y-106060000D03*
%TO.P,U5,4,D1*%
%TO.N,Net-(J22-Pad10)*%
X342275000Y-108600000D03*
%TO.P,U5,5,~{Y1}*%
%TO.N,Net-(U5-Pad5)*%
X342275000Y-111140000D03*
%TO.P,U5,6,D2*%
%TO.N,Net-(J22-Pad8)*%
X342275000Y-113680000D03*
%TO.P,U5,7,~{Y2}*%
%TO.N,Net-(U5-Pad7)*%
X342275000Y-116220000D03*
%TO.P,U5,8,GND*%
%TO.N,GND*%
X342275000Y-118760000D03*
%TO.P,U5,9,~{Y3}*%
%TO.N,Net-(U5-Pad9)*%
X349895000Y-118760000D03*
%TO.P,U5,10,D3*%
%TO.N,Net-(J22-Pad6)*%
X349895000Y-116220000D03*
%TO.P,U5,11,~{Y4}*%
%TO.N,Net-(U5-Pad11)*%
X349895000Y-113680000D03*
%TO.P,U5,12,D4*%
%TO.N,Net-(J22-Pad4)*%
X349895000Y-111140000D03*
%TO.P,U5,13,A3*%
%TO.N,GND*%
X349895000Y-108600000D03*
%TO.P,U5,14,A2*%
X349895000Y-106060000D03*
%TO.P,U5,15,A1*%
X349895000Y-103520000D03*
%TO.P,U5,16,VCC*%
%TO.N,+5V*%
X349895000Y-100980000D03*
%TD*%
D12*
%TO.P,SW4,1*%
%TO.N,Net-(D6-Pad1)*%
X49380000Y-194255000D03*
D18*
X55880000Y-194255000D03*
%TO.P,SW4,2*%
%TO.N,Net-(J25-Pad1)*%
X49380000Y-198755000D03*
X55880000Y-198755000D03*
%TD*%
%TO.P,SW16,1*%
%TO.N,Net-(D18-Pad1)*%
X273760000Y-200950000D03*
D12*
X267260000Y-200950000D03*
D18*
%TO.P,SW16,2*%
%TO.N,Net-(J26-Pad1)*%
X267260000Y-205450000D03*
X273760000Y-205450000D03*
%TD*%
%TO.P,SW2,1*%
%TO.N,Net-(D4-Pad1)*%
X55955000Y-156500000D03*
D12*
X49455000Y-156500000D03*
D18*
%TO.P,SW2,2*%
%TO.N,Net-(J25-Pad1)*%
X49455000Y-161000000D03*
X55955000Y-161000000D03*
%TD*%
D10*
%TO.P,R58,1*%
%TO.N,Net-(R58-Pad1)*%
X78740000Y-114300000D03*
D11*
%TO.P,R58,2*%
%TO.N,Net-(D2-Pad2)*%
X73660000Y-114300000D03*
%TD*%
D15*
%TO.P,J8,*%
%TO.N,*%
X180760000Y-76375000D03*
%TO.P,J8,R1*%
%TO.N,N/C*%
X175260000Y-79375000D03*
%TO.P,J8,R2*%
X175260000Y-76375000D03*
%TO.P,J8,S*%
%TO.N,GND*%
X179760000Y-84875000D03*
D16*
%TO.P,J8,T*%
%TO.N,Net-(J8-PadT)*%
X175260000Y-83375000D03*
%TD*%
D13*
%TO.P,D2,1,K*%
%TO.N,GND*%
X161290000Y-111125000D03*
D14*
%TO.P,D2,2,A*%
%TO.N,Net-(D2-Pad2)*%
X153670000Y-111125000D03*
%TD*%
D10*
%TO.P,R41,1*%
%TO.N,+15V*%
X198120000Y-116205000D03*
D11*
%TO.P,R41,2*%
%TO.N,Net-(R41-Pad2)*%
X198120000Y-111125000D03*
%TD*%
D12*
%TO.P,J28,1,Pin_1*%
%TO.N,Net-(J28-Pad1)*%
X42545000Y-118745000D03*
%TD*%
D10*
%TO.P,R27,1*%
%TO.N,Net-(C7-Pad1)*%
X101600000Y-116840000D03*
D11*
%TO.P,R27,2*%
%TO.N,Net-(R26-Pad2)*%
X96520000Y-116840000D03*
%TD*%
D10*
%TO.P,R59,1*%
%TO.N,Net-(D1-Pad2)*%
X264160000Y-108585000D03*
D11*
%TO.P,R59,2*%
%TO.N,GND*%
X259080000Y-108585000D03*
%TD*%
D17*
%TO.P,SineShapeTrim2,1,1*%
%TO.N,Net-(R64-Pad2)*%
X182880000Y-116205000D03*
%TO.P,SineShapeTrim2,2,2*%
%TO.N,Net-(R56-Pad2)*%
X180380000Y-113705000D03*
%TO.P,SineShapeTrim2,3,3*%
X182880000Y-111205000D03*
%TD*%
%TO.P,SineBiasTrim2,1,1*%
%TO.N,-15V*%
X174570000Y-108585000D03*
%TO.P,SineBiasTrim2,2,2*%
%TO.N,Net-(R57-Pad2)*%
X177070000Y-111085000D03*
%TO.P,SineBiasTrim2,3,3*%
%TO.N,+15V*%
X174570000Y-113585000D03*
%TD*%
D10*
%TO.P,R17,1*%
%TO.N,Net-(R17-Pad1)*%
X316865000Y-73660000D03*
D11*
%TO.P,R17,2*%
%TO.N,+15V*%
X321945000Y-73660000D03*
%TD*%
D15*
%TO.P,J21,*%
%TO.N,*%
X206802500Y-54265000D03*
%TO.P,J21,R1*%
%TO.N,N/C*%
X201302500Y-57265000D03*
%TO.P,J21,R2*%
X201302500Y-54265000D03*
%TO.P,J21,S*%
%TO.N,GND*%
X205802500Y-62765000D03*
D16*
%TO.P,J21,T*%
%TO.N,Net-(J21-PadT)*%
X201302500Y-61265000D03*
%TD*%
D15*
%TO.P,J18,*%
%TO.N,*%
X180132500Y-54265000D03*
%TO.P,J18,R1*%
%TO.N,N/C*%
X174632500Y-57265000D03*
%TO.P,J18,R2*%
X174632500Y-54265000D03*
%TO.P,J18,S*%
%TO.N,GND*%
X179132500Y-62765000D03*
D16*
%TO.P,J18,T*%
%TO.N,Net-(J18-PadT)*%
X174632500Y-61265000D03*
%TD*%
D10*
%TO.P,R24,1*%
%TO.N,-15V*%
X93980000Y-54610000D03*
D11*
%TO.P,R24,2*%
%TO.N,Net-(R24-Pad2)*%
X99060000Y-54610000D03*
%TD*%
D17*
%TO.P,RV9,1,1*%
%TO.N,Net-(R35-Pad1)*%
X102180000Y-106720000D03*
%TO.P,RV9,2,2*%
X104680000Y-109220000D03*
%TO.P,RV9,3,3*%
%TO.N,+15V*%
X102180000Y-111720000D03*
%TD*%
D10*
%TO.P,R15,1*%
%TO.N,-15V*%
X316865000Y-68580000D03*
D11*
%TO.P,R15,2*%
%TO.N,Net-(R15-Pad2)*%
X321945000Y-68580000D03*
%TD*%
D22*
%TO.P,U4,1*%
%TO.N,Net-(R72-Pad1)*%
X143520000Y-100960000D03*
D23*
%TO.P,U4,2,-*%
X143520000Y-103500000D03*
%TO.P,U4,3,+*%
%TO.N,Net-(R39-Pad2)*%
X143520000Y-106040000D03*
%TO.P,U4,4,V+*%
%TO.N,+15V*%
X143520000Y-108580000D03*
%TO.P,U4,5,+*%
%TO.N,Net-(U2-Pad10)*%
X143520000Y-111120000D03*
%TO.P,U4,6,-*%
%TO.N,Net-(R62-Pad2)*%
X143520000Y-113660000D03*
%TO.P,U4,7*%
%TO.N,Net-(R64-Pad2)*%
X143520000Y-116200000D03*
%TO.P,U4,8*%
%TO.N,Net-(R69-Pad1)*%
X151140000Y-116200000D03*
%TO.P,U4,9,-*%
X151140000Y-113660000D03*
%TO.P,U4,10,+*%
%TO.N,Net-(D2-Pad2)*%
X151140000Y-111120000D03*
%TO.P,U4,11,V-*%
%TO.N,-15V*%
X151140000Y-108580000D03*
%TO.P,U4,12,+*%
%TO.N,Net-(U2-Pad8)*%
X151140000Y-106040000D03*
%TO.P,U4,13,-*%
%TO.N,Net-(R70-Pad1)*%
X151140000Y-103500000D03*
%TO.P,U4,14*%
X151140000Y-100960000D03*
%TD*%
D12*
%TO.P,J11,1,Pin_1*%
%TO.N,-15V*%
X309245000Y-165735000D03*
D24*
%TO.P,J11,2,Pin_2*%
X311785000Y-165735000D03*
%TO.P,J11,3,Pin_3*%
%TO.N,GND*%
X309245000Y-168275000D03*
%TO.P,J11,4,Pin_4*%
X311785000Y-168275000D03*
%TO.P,J11,5,Pin_5*%
X309245000Y-170815000D03*
%TO.P,J11,6,Pin_6*%
X311785000Y-170815000D03*
%TO.P,J11,7,Pin_7*%
X309245000Y-173355000D03*
%TO.P,J11,8,Pin_8*%
X311785000Y-173355000D03*
%TO.P,J11,9,Pin_9*%
%TO.N,+15V*%
X309245000Y-175895000D03*
%TO.P,J11,10,Pin_10*%
X311785000Y-175895000D03*
%TD*%
D22*
%TO.P,U0,1*%
%TO.N,Net-(R43-Pad2)*%
X187970000Y-100980000D03*
D23*
%TO.P,U0,2,DIODE_BIAS*%
%TO.N,unconnected-(U0-Pad2)*%
X187970000Y-103520000D03*
%TO.P,U0,3,+*%
%TO.N,Net-(R53-Pad2)*%
X187970000Y-106060000D03*
%TO.P,U0,4,-*%
%TO.N,Net-(R53-Pad1)*%
X187970000Y-108600000D03*
%TO.P,U0,5*%
%TO.N,Net-(R44-Pad2)*%
X187970000Y-111140000D03*
%TO.P,U0,6,V-*%
%TO.N,-15V*%
X187970000Y-113680000D03*
%TO.P,U0,7*%
%TO.N,+15V*%
X187970000Y-116220000D03*
%TO.P,U0,8*%
%TO.N,Net-(R39-Pad2)*%
X187970000Y-118760000D03*
%TO.P,U0,9*%
%TO.N,Net-(U3-Pad3)*%
X195590000Y-118760000D03*
%TO.P,U0,10*%
%TO.N,+15V*%
X195590000Y-116220000D03*
%TO.P,U0,11,V+*%
X195590000Y-113680000D03*
%TO.P,U0,12*%
%TO.N,Net-(R41-Pad2)*%
X195590000Y-111140000D03*
%TO.P,U0,13,-*%
%TO.N,Net-(R51-Pad1)*%
X195590000Y-108600000D03*
%TO.P,U0,14,+*%
%TO.N,Net-(R51-Pad2)*%
X195590000Y-106060000D03*
%TO.P,U0,15,DIODE_BIAS*%
%TO.N,unconnected-(U0-Pad15)*%
X195590000Y-103520000D03*
%TO.P,U0,16*%
%TO.N,Net-(R40-Pad2)*%
X195590000Y-100980000D03*
%TD*%
D10*
%TO.P,R50,1*%
%TO.N,Net-(R47-Pad2)*%
X66040000Y-116840000D03*
D11*
%TO.P,R50,2*%
%TO.N,GND*%
X71120000Y-116840000D03*
%TD*%
D12*
%TO.P,J34,1,Pin_1*%
%TO.N,Net-(J34-Pad1)*%
X243840000Y-170815000D03*
%TD*%
D15*
%TO.P,J5,*%
%TO.N,*%
X283637500Y-61250000D03*
%TO.P,J5,R1*%
%TO.N,N/C*%
X278137500Y-64250000D03*
%TO.P,J5,R2*%
X278137500Y-61250000D03*
%TO.P,J5,S*%
%TO.N,GND*%
X282637500Y-69750000D03*
D16*
%TO.P,J5,T*%
%TO.N,Net-(J5-PadT)*%
X278137500Y-68250000D03*
%TD*%
M02*
