M48
; DRILL file {KiCad 7.0.1} date Sun Jun 11 21:55:09 2023
; FORMAT={-:-/ absolute / inch / decimal}
; #@! TF.CreationDate,2023-06-11T21:55:09-04:00
; #@! TF.GenerationSoftware,Kicad,Pcbnew,7.0.1
; #@! TF.FileFunction,Plated,1,4,PTH
FMAT,2
INCH
; #@! TA.AperFunction,Plated,PTH,ViaDrill
T1C0.0157
; #@! TA.AperFunction,Plated,PTH,ComponentDrill
T2C0.0236
; #@! TA.AperFunction,Plated,PTH,ComponentDrill
T3C0.0315
; #@! TA.AperFunction,Plated,PTH,ComponentDrill
T4C0.0354
; #@! TA.AperFunction,Plated,PTH,ComponentDrill
T5C0.0394
; #@! TA.AperFunction,Plated,PTH,ComponentDrill
T6C0.0709
%
G90
G05
T1
X7.0462Y-4.0729
X7.0542Y-2.5484
X7.0656Y-1.89
X7.0674Y-2.768
X7.0936Y-1.4874
X7.0937Y-1.4017
X7.1067Y-2.851
X7.1085Y-2.1494
X7.1168Y-4.017
X7.1506Y-2.7993
X7.1919Y-3.1271
X7.2061Y-2.2464
X7.2101Y-3.4119
X7.2227Y-2.4958
X7.2712Y-2.1251
X7.3207Y-1.9736
X7.3535Y-1.5902
X7.3785Y-3.5327
X7.3785Y-3.6624
X7.3796Y-3.2664
X7.3812Y-2.6179
X7.3832Y-2.4356
X7.3867Y-3.3079
X7.3895Y-1.2865
X7.395Y-3.3903
X7.4016Y-2.5608
X7.4187Y-2.1487
X7.42Y-3.1099
X7.4222Y-3.9016
X7.4236Y-2.7384
X7.4615Y-3.329
X7.473Y-1.879
X7.4836Y-3.9792
X7.4845Y-3.0666
X7.5012Y-1.3156
X7.5073Y-2.404
X7.5249Y-1.8041
X7.5356Y-1.8803
X7.5482Y-1.6149
X7.5569Y-3.0527
X7.5578Y-2.7632
X7.5644Y-2.3651
X7.57Y-3.1175
X7.5856Y-1.7838
X7.6286Y-2.933
X7.6366Y-2.1506
X7.6432Y-1.5718
X7.6476Y-1.3091
X7.664Y-2.4159
X7.6687Y-3.5516
X7.681Y-2.4787
X7.6854Y-3.2288
X7.6901Y-2.83
X7.6933Y-1.6757
X7.6953Y-2.2965
X7.7445Y-1.3109
X7.7712Y-2.3904
X7.7732Y-2.1891
T3
X7.05Y-5.6708
X7.05Y-5.7692
X7.06Y-4.45
X7.06Y-4.55
X7.06Y-4.65
X7.06Y-4.75
X7.06Y-4.85
X7.06Y-4.95
X7.06Y-5.05
X7.06Y-5.15
X7.36Y-4.45
X7.36Y-4.55
X7.36Y-4.65
X7.36Y-4.75
X7.36Y-4.85
X7.36Y-4.95
X7.36Y-5.05
X7.36Y-5.15
X7.45Y-4.45
X7.45Y-4.55
X7.45Y-4.65
X7.45Y-4.75
X7.45Y-4.85
X7.45Y-4.95
X7.45Y-5.05
X7.75Y-4.45
X7.75Y-4.55
X7.75Y-4.65
X7.75Y-4.75
X7.75Y-4.85
X7.75Y-4.95
X7.75Y-5.05
T4
X7.0437Y-3.08
X7.0537Y-2.32
X7.1422Y-2.9816
X7.1422Y-3.1784
X7.1522Y-2.2216
X7.1522Y-2.4184
X7.6537Y-3.09
X7.7522Y-2.9916
X7.7522Y-3.1884
T5
X7.1998Y-5.6702
X7.1998Y-5.7702
X7.2998Y-5.6702
X7.2998Y-5.7702
X7.3016Y-1.72
X7.3016Y-2.2982
X7.3016Y-2.8782
X7.3998Y-5.6702
X7.3998Y-5.7702
X7.4Y-1.72
X7.4Y-2.2982
X7.4Y-2.8782
X7.4984Y-1.72
X7.4984Y-2.2982
X7.4984Y-2.8782
X7.4998Y-5.6702
X7.4998Y-5.7702
X7.5998Y-5.6702
X7.5998Y-5.7702
T2
G00X7.1803Y-3.2912
M15
G01X7.2197Y-3.2912
M16
G05
G00X7.1803Y-3.618
M15
G01X7.2197Y-3.618
M16
G05
G00X7.1803Y-3.74
M15
G01X7.2197Y-3.74
M16
G05
G00X7.1803Y-3.8912
M15
G01X7.2197Y-3.8912
M16
G05
G00X7.1803Y-4.218
M15
G01X7.2197Y-4.218
M16
G05
G00X7.1803Y-4.34
M15
G01X7.2197Y-4.34
M16
G05
G00X7.1803Y-4.4912
M15
G01X7.2197Y-4.4912
M16
G05
G00X7.1803Y-4.818
M15
G01X7.2197Y-4.818
M16
G05
G00X7.1803Y-4.94
M15
G01X7.2197Y-4.94
M16
G05
G00X7.1803Y-5.0912
M15
G01X7.2197Y-5.0912
M16
G05
G00X7.1803Y-5.418
M15
G01X7.2197Y-5.418
M16
G05
G00X7.1803Y-5.54
M15
G01X7.2197Y-5.54
M16
G05
G00X7.5803Y-3.2912
M15
G01X7.6197Y-3.2912
M16
G05
G00X7.5803Y-3.618
M15
G01X7.6197Y-3.618
M16
G05
G00X7.5803Y-3.74
M15
G01X7.6197Y-3.74
M16
G05
G00X7.5803Y-3.8912
M15
G01X7.6197Y-3.8912
M16
G05
G00X7.5803Y-4.218
M15
G01X7.6197Y-4.218
M16
G05
G00X7.5803Y-4.34
M15
G01X7.6197Y-4.34
M16
G05
G00X7.5803Y-4.4912
M15
G01X7.6197Y-4.4912
M16
G05
G00X7.5803Y-4.818
M15
G01X7.6197Y-4.818
M16
G05
G00X7.5803Y-4.94
M15
G01X7.6197Y-4.94
M16
G05
G00X7.5803Y-5.0912
M15
G01X7.6197Y-5.0912
M16
G05
G00X7.5803Y-5.418
M15
G01X7.6197Y-5.418
M16
G05
G00X7.5803Y-5.54
M15
G01X7.6197Y-5.54
M16
G05
T6
G00X7.2268Y-1.4503
M15
G01X7.2268Y-1.4385
M16
G05
G00X7.2268Y-2.0285
M15
G01X7.2268Y-2.0167
M16
G05
G00X7.2268Y-2.6085
M15
G01X7.2268Y-2.5967
M16
G05
G00X7.5732Y-1.4503
M15
G01X7.5732Y-1.4385
M16
G05
G00X7.5732Y-2.0285
M15
G01X7.5732Y-2.0167
M16
G05
G00X7.5732Y-2.6085
M15
G01X7.5732Y-2.5967
M16
G05
T0
M30
