%TF.GenerationSoftware,KiCad,Pcbnew,7.0.1*%
%TF.CreationDate,2023-06-11T21:55:06-04:00*%
%TF.ProjectId,as3340_no_mux,61733333-3430-45f6-9e6f-5f6d75782e6b,rev?*%
%TF.SameCoordinates,Original*%
%TF.FileFunction,Copper,L3,Inr*%
%TF.FilePolarity,Positive*%
%FSLAX46Y46*%
G04 Gerber Fmt 4.6, Leading zero omitted, Abs format (unit mm)*
G04 Created by KiCad (PCBNEW 7.0.1) date 2023-06-11 21:55:06*
%MOMM*%
%LPD*%
G01*
G04 APERTURE LIST*
G04 Aperture macros list*
%AMRoundRect*
0 Rectangle with rounded corners*
0 $1 Rounding radius*
0 $2 $3 $4 $5 $6 $7 $8 $9 X,Y pos of 4 corners*
0 Add a 4 corners polygon primitive as box body*
4,1,4,$2,$3,$4,$5,$6,$7,$8,$9,$2,$3,0*
0 Add four circle primitives for the rounded corners*
1,1,$1+$1,$2,$3*
1,1,$1+$1,$4,$5*
1,1,$1+$1,$6,$7*
1,1,$1+$1,$8,$9*
0 Add four rect primitives between the rounded corners*
20,1,$1+$1,$2,$3,$4,$5,0*
20,1,$1+$1,$4,$5,$6,$7,0*
20,1,$1+$1,$6,$7,$8,$9,0*
20,1,$1+$1,$8,$9,$2,$3,0*%
G04 Aperture macros list end*
%TA.AperFunction,ComponentPad*%
%ADD10R,1.800000X1.800000*%
%TD*%
%TA.AperFunction,ComponentPad*%
%ADD11C,1.800000*%
%TD*%
%TA.AperFunction,ComponentPad*%
%ADD12RoundRect,0.750000X0.750000X-1.250000X0.750000X1.250000X-0.750000X1.250000X-0.750000X-1.250000X0*%
%TD*%
%TA.AperFunction,ComponentPad*%
%ADD13C,1.620000*%
%TD*%
%TA.AperFunction,ComponentPad*%
%ADD14O,3.100000X2.300000*%
%TD*%
%TA.AperFunction,ComponentPad*%
%ADD15RoundRect,0.650000X-0.650000X-0.650000X0.650000X-0.650000X0.650000X0.650000X-0.650000X0.650000X0*%
%TD*%
%TA.AperFunction,ComponentPad*%
%ADD16C,1.600000*%
%TD*%
%TA.AperFunction,ComponentPad*%
%ADD17R,1.600000X1.600000*%
%TD*%
%TA.AperFunction,ComponentPad*%
%ADD18O,1.600000X1.600000*%
%TD*%
%TA.AperFunction,ComponentPad*%
%ADD19R,1.700000X1.700000*%
%TD*%
%TA.AperFunction,ComponentPad*%
%ADD20O,1.700000X1.700000*%
%TD*%
%TA.AperFunction,ViaPad*%
%ADD21C,0.800000*%
%TD*%
%TA.AperFunction,Conductor*%
%ADD22C,0.250000*%
%TD*%
G04 APERTURE END LIST*
D10*
%TO.N,Net-(R38-Pad1)*%
%TO.C,RV9*%
X185460000Y-73106000D03*
D11*
%TO.N,Net-(U2-VEE)*%
X187960000Y-73106000D03*
X190460000Y-73106000D03*
D12*
%TO.N,N/C*%
X183560000Y-66106000D03*
X192360000Y-66106000D03*
%TD*%
D10*
%TO.N,Net-(R4-Pad1)*%
%TO.C,RV7*%
X185460000Y-58374000D03*
D11*
X187960000Y-58374000D03*
%TO.N,+15V*%
X190460000Y-58374000D03*
D12*
%TO.N,N/C*%
X183560000Y-51374000D03*
X192360000Y-51374000D03*
%TD*%
D10*
%TO.N,Net-(U2-VHFT)*%
%TO.C,RV5*%
X185460000Y-43688000D03*
D11*
%TO.N,Net-(R17-Pad2)*%
X187960000Y-43688000D03*
%TO.N,GND*%
X190460000Y-43688000D03*
D12*
%TO.N,N/C*%
X183560000Y-36688000D03*
X192360000Y-36688000D03*
%TD*%
D13*
%TO.N,-15V*%
%TO.C,SineBiasTrim1*%
X181411000Y-75732000D03*
%TO.N,Net-(R55-Pad2)*%
X178911000Y-78232000D03*
%TO.N,+15V*%
X181411000Y-80732000D03*
%TD*%
D14*
%TO.N,GND*%
%TO.C,J15*%
X193040000Y-140716000D03*
D15*
%TO.N,Net-(J15-PadR)*%
X193040000Y-129316000D03*
%TO.N,N/C*%
X193040000Y-137616000D03*
%TD*%
%TO.N,N/C*%
%TO.C,J1*%
X182880000Y-122376000D03*
%TO.N,Net-(J25-Pin_1)*%
X182880000Y-114076000D03*
D14*
%TO.N,GND*%
X182880000Y-125476000D03*
%TD*%
%TO.N,GND*%
%TO.C,J5*%
X182880000Y-140716000D03*
D15*
%TO.N,Net-(J29-Pin_1)*%
X182880000Y-129316000D03*
%TO.N,N/C*%
X182880000Y-137616000D03*
%TD*%
D16*
%TO.N,GND*%
%TO.C,D1*%
X179070000Y-146538000D03*
%TO.N,Net-(D1-A)*%
X179070000Y-144038000D03*
%TD*%
D14*
%TO.N,GND*%
%TO.C,J2*%
X182880000Y-94996000D03*
D15*
%TO.N,Net-(J2-PadR)*%
X182880000Y-83596000D03*
%TO.N,N/C*%
X182880000Y-91896000D03*
%TD*%
D13*
%TO.N,Net-(R36-Pad1)*%
%TO.C,SineLevelTrim1*%
X196905000Y-75986000D03*
X194405000Y-78486000D03*
%TO.N,+15V*%
X196905000Y-80986000D03*
%TD*%
D14*
%TO.N,GND*%
%TO.C,J12*%
X193040000Y-94996000D03*
D15*
%TO.N,Net-(J12-PadR)*%
X193040000Y-83596000D03*
%TO.N,N/C*%
X193040000Y-91896000D03*
%TD*%
D13*
%TO.N,Net-(R64-Pad2)*%
%TO.C,SineShapeTrim1*%
X181665000Y-56428000D03*
%TO.N,Net-(R54-Pad2)*%
X179165000Y-58928000D03*
X181665000Y-61428000D03*
%TD*%
D14*
%TO.N,GND*%
%TO.C,J13*%
X193040000Y-110236000D03*
D15*
%TO.N,Net-(J13-PadR)*%
X193040000Y-98836000D03*
%TO.N,N/C*%
X193040000Y-107136000D03*
%TD*%
D14*
%TO.N,GND*%
%TO.C,J4*%
X182880000Y-110236000D03*
D15*
%TO.N,Net-(C1-Pad2)*%
X182880000Y-98836000D03*
%TO.N,N/C*%
X182880000Y-107136000D03*
%TD*%
D14*
%TO.N,GND*%
%TO.C,J14*%
X193040000Y-125476000D03*
D15*
%TO.N,Net-(J14-PadR)*%
X193040000Y-114076000D03*
%TO.N,N/C*%
X193040000Y-122376000D03*
%TD*%
D17*
%TO.N,Net-(U4A--)*%
%TO.C,U4*%
X189230000Y-128270000D03*
D18*
X189230000Y-125730000D03*
%TO.N,Net-(U4A-+)*%
X189230000Y-123190000D03*
%TO.N,+15V*%
X189230000Y-120650000D03*
%TO.N,Net-(J23-Pin_1)*%
X189230000Y-118110000D03*
%TO.N,Net-(U4B--)*%
X189230000Y-115570000D03*
%TO.N,Net-(R64-Pad2)*%
X189230000Y-113030000D03*
%TO.N,Net-(U4C--)*%
X196850000Y-113030000D03*
X196850000Y-115570000D03*
%TO.N,Net-(D1-A)*%
X196850000Y-118110000D03*
%TO.N,-15V*%
X196850000Y-120650000D03*
%TO.N,Net-(J23-Pin_5)*%
X196850000Y-123190000D03*
%TO.N,Net-(U4D--)*%
X196850000Y-125730000D03*
X196850000Y-128270000D03*
%TD*%
D19*
%TO.N,-15V*%
%TO.C,J11*%
X193035000Y-146563000D03*
D20*
X193035000Y-144023000D03*
%TO.N,GND*%
X190495000Y-146563000D03*
X190495000Y-144023000D03*
X187955000Y-146563000D03*
X187955000Y-144023000D03*
X185415000Y-146563000D03*
X185415000Y-144023000D03*
%TO.N,+15V*%
X182875000Y-146563000D03*
X182875000Y-144023000D03*
%TD*%
D17*
%TO.N,Net-(U2-SCALE1)*%
%TO.C,U2*%
X179324000Y-130810000D03*
D18*
%TO.N,Net-(U2-SCALE2)*%
X179324000Y-128270000D03*
%TO.N,Net-(U2-VEE)*%
X179324000Y-125730000D03*
%TO.N,Net-(J22-Pin_4)*%
X179324000Y-123190000D03*
%TO.N,Net-(U2-VPWM)*%
X179324000Y-120650000D03*
%TO.N,Net-(U2-VHSI)*%
X179324000Y-118110000D03*
%TO.N,Net-(U2-VHFT)*%
X179324000Y-115570000D03*
%TO.N,Net-(J22-Pin_5)*%
X179324000Y-113030000D03*
%TO.N,Net-(U2-VSSI)*%
X186944000Y-113030000D03*
%TO.N,Net-(J22-Pin_1)*%
X186944000Y-115570000D03*
%TO.N,Net-(U2-CAP)*%
X186944000Y-118110000D03*
%TO.N,GND*%
X186944000Y-120650000D03*
%TO.N,Net-(U2-VLFI)*%
X186944000Y-123190000D03*
%TO.N,Net-(U2-VS)*%
X186944000Y-125730000D03*
%TO.N,Net-(U2-VFCI)*%
X186944000Y-128270000D03*
%TO.N,+15V*%
X186944000Y-130810000D03*
%TD*%
D21*
%TO.N,Net-(U4A--)*%
X197387700Y-60715000D03*
%TO.N,Net-(U4D--)*%
X193765800Y-74497400D03*
%TO.N,Net-(U4C--)*%
X195209700Y-82011000D03*
X189814900Y-47725600D03*
%TO.N,Net-(R64-Pad2)*%
X191967400Y-70186100D03*
%TO.N,Net-(U4B--)*%
X180765900Y-102030800D03*
X179177000Y-64728400D03*
%TO.N,Net-(R55-Pad2)*%
X183034900Y-57057800D03*
%TO.N,Net-(U1A-+)*%
X183457200Y-63392400D03*
X188435600Y-54575800D03*
%TO.N,Net-(U2-VS)*%
X187441500Y-82965300D03*
%TO.N,Net-(U2-VPWM)*%
X187413200Y-93023900D03*
X180511100Y-72415300D03*
%TO.N,Net-(U2-SCALE2)*%
X184688500Y-53977500D03*
%TO.N,Net-(U2-VEE)*%
X192135000Y-60073000D03*
%TO.N,Net-(U2-SCALE1)*%
X194783900Y-90210100D03*
%TO.N,Net-(R38-Pad1)*%
X189522000Y-84555500D03*
%TO.N,Net-(R36-Pad2)*%
X182673000Y-79428300D03*
X185946900Y-50130000D03*
%TO.N,Net-(R36-Pad1)*%
X191131300Y-45824200D03*
%TO.N,Net-(R17-Pad2)*%
X196710400Y-33296800D03*
%TO.N,Net-(U2-VFCI)*%
X187621000Y-84021900D03*
X190686200Y-61060900D03*
X194137100Y-39924100D03*
%TO.N,Net-(U2-VLFI)*%
X190084300Y-101072000D03*
X193969400Y-54624900D03*
X190531700Y-33417400D03*
X187694500Y-32677600D03*
%TO.N,Net-(R4-Pad1)*%
X181625400Y-71103400D03*
%TO.N,Net-(U4A-+)*%
X195410000Y-42562600D03*
%TO.N,Net-(R3-Pad1)*%
X192278000Y-79183900D03*
X191405300Y-47759300D03*
%TO.N,Net-(R1-Pad2)*%
X188468000Y-78991900D03*
X186779100Y-40390700D03*
%TO.N,Net-(J15-PadR)*%
X187413200Y-89731300D03*
X180556300Y-54593600D03*
%TO.N,Net-(J14-PadR)*%
X195328300Y-71882000D03*
%TO.N,Net-(J13-PadR)*%
X195098500Y-62959900D03*
%TO.N,+15V*%
X191723400Y-41019600D03*
%TO.N,-15V*%
X188524900Y-99100900D03*
X179465000Y-48006000D03*
%TO.N,Net-(J29-Pin_1)*%
X179511800Y-70308300D03*
%TO.N,Net-(J2-PadR)*%
X187833500Y-86114100D03*
%TO.N,Net-(C9-Pad1)*%
X180176600Y-37780600D03*
X187482000Y-66494800D03*
%TO.N,Net-(U2-VHSI)*%
X178973000Y-103451600D03*
X180178900Y-35603900D03*
%TO.N,Net-(U2-VSSI)*%
X190105700Y-77891700D03*
X194666800Y-61363600D03*
%TO.N,Net-(C2-Pad2)*%
X192675000Y-45308200D03*
X183137600Y-86661800D03*
%TO.N,GND*%
X187532900Y-61864400D03*
X188000800Y-65044100D03*
X191945800Y-77539200D03*
%TO.N,Net-(C1-Pad2)*%
X188559400Y-69554500D03*
X195460000Y-58331300D03*
%TO.N,Net-(C1-Pad1)*%
X197440200Y-55603500D03*
X194248500Y-33251400D03*
%TD*%
D22*
%TO.N,Net-(U2-VHFT)*%
X179324000Y-115570000D02*
X179324000Y-114444700D01*
X185460000Y-43688000D02*
X185460000Y-44913300D01*
X179605300Y-114444700D02*
X179324000Y-114444700D01*
X180450400Y-113599600D02*
X179605300Y-114444700D01*
X180450400Y-102741000D02*
X180450400Y-113599600D01*
X180040600Y-102331200D02*
X180450400Y-102741000D01*
X180040600Y-83759600D02*
X180040600Y-102331200D01*
X184204900Y-79595300D02*
X180040600Y-83759600D01*
X184204900Y-70916700D02*
X184204900Y-79595300D01*
X186756700Y-68364900D02*
X184204900Y-70916700D01*
X186756700Y-63693500D02*
X186756700Y-68364900D01*
X186685400Y-63622200D02*
X186756700Y-63693500D01*
X186685400Y-46138700D02*
X186685400Y-63622200D01*
X185460000Y-44913300D02*
X186685400Y-46138700D01*
%TO.N,Net-(U4A--)*%
X189230000Y-125730000D02*
X189230000Y-128270000D01*
%TO.N,Net-(U4D--)*%
X196850000Y-128270000D02*
X196850000Y-125730000D01*
X196850000Y-125730000D02*
X196850000Y-124604700D01*
X193227300Y-75035900D02*
X193765800Y-74497400D01*
X193227300Y-81103300D02*
X193227300Y-75035900D01*
X195533900Y-83409900D02*
X193227300Y-81103300D01*
X195533900Y-123469400D02*
X195533900Y-83409900D01*
X196669200Y-124604700D02*
X195533900Y-123469400D01*
X196850000Y-124604700D02*
X196669200Y-124604700D01*
%TO.N,Net-(U4C--)*%
X196850000Y-115570000D02*
X196850000Y-113030000D01*
X196850000Y-83651300D02*
X195209700Y-82011000D01*
X196850000Y-111904700D02*
X196850000Y-83651300D01*
X196850000Y-113030000D02*
X196850000Y-111904700D01*
%TO.N,Net-(U2-VS)*%
X186944000Y-125730000D02*
X186944000Y-124604700D01*
X186665400Y-83741400D02*
X187441500Y-82965300D01*
X186665400Y-110989200D02*
X186665400Y-83741400D01*
X188104600Y-112428400D02*
X186665400Y-110989200D01*
X188104600Y-113487300D02*
X188104600Y-112428400D01*
X187291900Y-114300000D02*
X188104600Y-113487300D01*
X186592800Y-114300000D02*
X187291900Y-114300000D01*
X185787100Y-115105700D02*
X186592800Y-114300000D01*
X185787100Y-123729100D02*
X185787100Y-115105700D01*
X186662700Y-124604700D02*
X185787100Y-123729100D01*
X186944000Y-124604700D02*
X186662700Y-124604700D01*
%TO.N,Net-(U2-SCALE2)*%
X179324000Y-128270000D02*
X179324000Y-127144700D01*
X179042600Y-127144700D02*
X179324000Y-127144700D01*
X178198700Y-126300800D02*
X179042600Y-127144700D01*
X178198700Y-112516900D02*
X178198700Y-126300800D01*
X179702900Y-111012700D02*
X178198700Y-112516900D01*
X179702900Y-102630400D02*
X179702900Y-111012700D01*
X179590300Y-102517800D02*
X179702900Y-102630400D01*
X179590300Y-80611000D02*
X179590300Y-102517800D01*
X183304300Y-76897000D02*
X179590300Y-80611000D01*
X183304300Y-70543500D02*
X183304300Y-76897000D01*
X185856100Y-67991700D02*
X183304300Y-70543500D01*
X185856100Y-64201200D02*
X185856100Y-67991700D01*
X184680800Y-63025900D02*
X185856100Y-64201200D01*
X184680800Y-62566100D02*
X184680800Y-63025900D01*
X183784400Y-61669700D02*
X184680800Y-62566100D01*
X183784400Y-54881600D02*
X183784400Y-61669700D01*
X184688500Y-53977500D02*
X183784400Y-54881600D01*
%TO.N,Net-(U2-VEE)*%
X187960000Y-76867900D02*
X187960000Y-73106000D01*
X185252500Y-79575400D02*
X187960000Y-76867900D01*
X185252500Y-116491300D02*
X185252500Y-79575400D01*
X180449300Y-121294500D02*
X185252500Y-116491300D01*
X180449300Y-123760800D02*
X180449300Y-121294500D01*
X179605400Y-124604700D02*
X180449300Y-123760800D01*
X179324000Y-124604700D02*
X179605400Y-124604700D01*
X179324000Y-125730000D02*
X179324000Y-124604700D01*
%TO.N,Net-(R36-Pad2)*%
X183754600Y-78346700D02*
X182673000Y-79428300D01*
X183754600Y-70730100D02*
X183754600Y-78346700D01*
X186306400Y-68178300D02*
X183754600Y-70730100D01*
X186306400Y-64014600D02*
X186306400Y-68178300D01*
X185131100Y-62839300D02*
X186306400Y-64014600D01*
X185131100Y-62379500D02*
X185131100Y-62839300D01*
X184234700Y-61483100D02*
X185131100Y-62379500D01*
X184234700Y-57339200D02*
X184234700Y-61483100D01*
X185946900Y-55627000D02*
X184234700Y-57339200D01*
X185946900Y-50130000D02*
X185946900Y-55627000D01*
%TO.N,Net-(R36-Pad1)*%
X193411800Y-43543700D02*
X191131300Y-45824200D01*
X193411800Y-39548200D02*
X193411800Y-43543700D01*
X193796000Y-39164000D02*
X193411800Y-39548200D01*
X194428800Y-39164000D02*
X193796000Y-39164000D01*
X194880700Y-39615900D02*
X194428800Y-39164000D01*
X194880700Y-41634800D02*
X194880700Y-39615900D01*
X194653300Y-41862200D02*
X194880700Y-41634800D01*
X194653300Y-45312200D02*
X194653300Y-41862200D01*
X196308500Y-46967400D02*
X194653300Y-45312200D01*
X196308500Y-75389500D02*
X196308500Y-46967400D01*
X196905000Y-75986000D02*
X196308500Y-75389500D01*
%TO.N,Net-(U2-VLFI)*%
X190381900Y-101369600D02*
X190084300Y-101072000D01*
X190381900Y-116056300D02*
X190381900Y-101369600D01*
X189453600Y-116984600D02*
X190381900Y-116056300D01*
X188752100Y-116984600D02*
X189453600Y-116984600D01*
X188069300Y-117667400D02*
X188752100Y-116984600D01*
X188069300Y-121220800D02*
X188069300Y-117667400D01*
X187225400Y-122064700D02*
X188069300Y-121220800D01*
X186944000Y-122064700D02*
X187225400Y-122064700D01*
X186944000Y-123190000D02*
X186944000Y-122064700D01*
%TO.N,Net-(R1-Pad2)*%
X189185400Y-42797000D02*
X186779100Y-40390700D01*
X189185400Y-44195600D02*
X189185400Y-42797000D01*
X189064100Y-44316900D02*
X189185400Y-44195600D01*
X189064100Y-48030400D02*
X189064100Y-44316900D01*
X189210000Y-48176300D02*
X189064100Y-48030400D01*
X189210000Y-69179300D02*
X189210000Y-48176300D01*
X189284700Y-69254000D02*
X189210000Y-69179300D01*
X189284700Y-70281300D02*
X189284700Y-69254000D01*
X189210000Y-70356000D02*
X189284700Y-70281300D01*
X189210000Y-78249900D02*
X189210000Y-70356000D01*
X188468000Y-78991900D02*
X189210000Y-78249900D01*
%TO.N,Net-(J15-PadR)*%
X190931500Y-93249600D02*
X187413200Y-89731300D01*
X190931500Y-127207500D02*
X190931500Y-93249600D01*
X193040000Y-129316000D02*
X190931500Y-127207500D01*
%TO.N,+15V*%
X182875000Y-144023000D02*
X182875000Y-146563000D01*
X191723400Y-44157700D02*
X191723400Y-41019600D01*
X190395100Y-45486000D02*
X191723400Y-44157700D01*
X190395100Y-47280000D02*
X190395100Y-45486000D01*
X190540200Y-47425100D02*
X190395100Y-47280000D01*
X190540200Y-48026100D02*
X190540200Y-47425100D01*
X190460000Y-48106300D02*
X190540200Y-48026100D01*
X190460000Y-58374000D02*
X190460000Y-48106300D01*
X189019500Y-121775300D02*
X189230000Y-121775300D01*
X188069300Y-122725500D02*
X189019500Y-121775300D01*
X188069300Y-128840800D02*
X188069300Y-122725500D01*
X187225400Y-129684700D02*
X188069300Y-128840800D01*
X186944000Y-129684700D02*
X187225400Y-129684700D01*
X186944000Y-130810000D02*
X186944000Y-129684700D01*
X189230000Y-120650000D02*
X189230000Y-121775300D01*
X195540400Y-79621400D02*
X196905000Y-80986000D01*
X195540400Y-74650400D02*
X195540400Y-79621400D01*
X194203100Y-73313100D02*
X195540400Y-74650400D01*
X194203100Y-63166800D02*
X194203100Y-73313100D01*
X190460000Y-59423700D02*
X194203100Y-63166800D01*
X190460000Y-58374000D02*
X190460000Y-59423700D01*
%TO.N,-15V*%
X193035000Y-146563000D02*
X193035000Y-144023000D01*
X179465000Y-57622200D02*
X179465000Y-48006000D01*
X180300400Y-58457600D02*
X179465000Y-57622200D01*
X180300400Y-70991600D02*
X180300400Y-58457600D01*
X181411000Y-72102200D02*
X180300400Y-70991600D01*
X181411000Y-75732000D02*
X181411000Y-72102200D01*
%TO.N,Net-(U2-VHSI)*%
X181306500Y-36731500D02*
X180178900Y-35603900D01*
X181306500Y-55151600D02*
X181306500Y-36731500D01*
X180513200Y-55944900D02*
X181306500Y-55151600D01*
X180513200Y-57776200D02*
X180513200Y-55944900D01*
X183334000Y-60597000D02*
X180513200Y-57776200D01*
X183334000Y-61856300D02*
X183334000Y-60597000D01*
X184230500Y-62752800D02*
X183334000Y-61856300D01*
X184230500Y-63258900D02*
X184230500Y-62752800D01*
X185405800Y-64434200D02*
X184230500Y-63258900D01*
X185405800Y-67805100D02*
X185405800Y-64434200D01*
X182546300Y-70664600D02*
X185405800Y-67805100D01*
X182546300Y-76835600D02*
X182546300Y-70664600D01*
X178973000Y-80408900D02*
X182546300Y-76835600D01*
X178973000Y-103451600D02*
X178973000Y-80408900D01*
%TO.N,Net-(U2-VSSI)*%
X186944000Y-113030000D02*
X186944000Y-111904700D01*
X190105700Y-78813500D02*
X190105700Y-77891700D01*
X186148700Y-82770500D02*
X190105700Y-78813500D01*
X186148700Y-111109400D02*
X186148700Y-82770500D01*
X186944000Y-111904700D02*
X186148700Y-111109400D01*
%TO.N,GND*%
X192671200Y-111711300D02*
X193040000Y-111711300D01*
X191381900Y-113000600D02*
X192671200Y-111711300D01*
X191381900Y-123817900D02*
X191381900Y-113000600D01*
X193040000Y-125476000D02*
X191381900Y-123817900D01*
X193040000Y-110236000D02*
X193040000Y-111711300D01*
X182880000Y-94996000D02*
X182880000Y-96471300D01*
X179070000Y-146001300D02*
X179070000Y-146538000D01*
X182880000Y-142191300D02*
X179070000Y-146001300D01*
X182880000Y-140716000D02*
X182880000Y-142191300D01*
X184239700Y-143551000D02*
X182880000Y-142191300D01*
X184239700Y-144023000D02*
X184239700Y-143551000D01*
X185415000Y-144023000D02*
X184239700Y-144023000D01*
X182535900Y-96471300D02*
X182880000Y-96471300D01*
X181229900Y-97777300D02*
X182535900Y-96471300D01*
X181229900Y-101443200D02*
X181229900Y-97777300D01*
X181534000Y-101747300D02*
X181229900Y-101443200D01*
X181534000Y-102713100D02*
X181534000Y-101747300D01*
X181229800Y-103017300D02*
X181534000Y-102713100D01*
X181229800Y-108585800D02*
X181229800Y-103017300D01*
X182880000Y-110236000D02*
X181229800Y-108585800D01*
X191670300Y-143561000D02*
X191670300Y-144023000D01*
X193040000Y-142191300D02*
X191670300Y-143561000D01*
X193040000Y-140716000D02*
X193040000Y-142191300D01*
X190495000Y-144023000D02*
X191670300Y-144023000D01*
X181252100Y-139088100D02*
X182880000Y-140716000D01*
X181252100Y-128210400D02*
X181252100Y-139088100D01*
X182511200Y-126951300D02*
X181252100Y-128210400D01*
X182880000Y-126951300D02*
X182511200Y-126951300D01*
X182880000Y-125476000D02*
X182880000Y-126951300D01*
X191397700Y-78087300D02*
X191945800Y-77539200D01*
X191397700Y-93353700D02*
X191397700Y-78087300D01*
X193040000Y-94996000D02*
X191397700Y-93353700D01*
%TO.N,Net-(C1-Pad2)*%
X186685400Y-71428500D02*
X188559400Y-69554500D01*
X186685400Y-76077800D02*
X186685400Y-71428500D01*
X184755300Y-78007900D02*
X186685400Y-76077800D01*
X184755300Y-96960700D02*
X184755300Y-78007900D01*
X182880000Y-98836000D02*
X184755300Y-96960700D01*
%TO.N,Net-(C1-Pad1)*%
X197440200Y-36443100D02*
X194248500Y-33251400D01*
X197440200Y-55603500D02*
X197440200Y-36443100D01*
%TD*%
M02*
