%TF.GenerationSoftware,KiCad,Pcbnew,7.0.1*%
%TF.CreationDate,2023-06-11T21:55:06-04:00*%
%TF.ProjectId,as3340_no_mux,61733333-3430-45f6-9e6f-5f6d75782e6b,rev?*%
%TF.SameCoordinates,Original*%
%TF.FileFunction,Legend,Top*%
%TF.FilePolarity,Positive*%
%FSLAX46Y46*%
G04 Gerber Fmt 4.6, Leading zero omitted, Abs format (unit mm)*
G04 Created by KiCad (PCBNEW 7.0.1) date 2023-06-11 21:55:06*
%MOMM*%
%LPD*%
G01*
G04 APERTURE LIST*
%ADD10C,0.150000*%
%ADD11C,0.120000*%
%ADD12C,0.200000*%
G04 APERTURE END LIST*
D10*
%TO.C,RV9*%
X180772619Y-67651238D02*
X180296428Y-67984571D01*
X180772619Y-68222666D02*
X179772619Y-68222666D01*
X179772619Y-68222666D02*
X179772619Y-67841714D01*
X179772619Y-67841714D02*
X179820238Y-67746476D01*
X179820238Y-67746476D02*
X179867857Y-67698857D01*
X179867857Y-67698857D02*
X179963095Y-67651238D01*
X179963095Y-67651238D02*
X180105952Y-67651238D01*
X180105952Y-67651238D02*
X180201190Y-67698857D01*
X180201190Y-67698857D02*
X180248809Y-67746476D01*
X180248809Y-67746476D02*
X180296428Y-67841714D01*
X180296428Y-67841714D02*
X180296428Y-68222666D01*
X179772619Y-67365523D02*
X180772619Y-67032190D01*
X180772619Y-67032190D02*
X179772619Y-66698857D01*
X180772619Y-66317904D02*
X180772619Y-66127428D01*
X180772619Y-66127428D02*
X180725000Y-66032190D01*
X180725000Y-66032190D02*
X180677380Y-65984571D01*
X180677380Y-65984571D02*
X180534523Y-65889333D01*
X180534523Y-65889333D02*
X180344047Y-65841714D01*
X180344047Y-65841714D02*
X179963095Y-65841714D01*
X179963095Y-65841714D02*
X179867857Y-65889333D01*
X179867857Y-65889333D02*
X179820238Y-65936952D01*
X179820238Y-65936952D02*
X179772619Y-66032190D01*
X179772619Y-66032190D02*
X179772619Y-66222666D01*
X179772619Y-66222666D02*
X179820238Y-66317904D01*
X179820238Y-66317904D02*
X179867857Y-66365523D01*
X179867857Y-66365523D02*
X179963095Y-66413142D01*
X179963095Y-66413142D02*
X180201190Y-66413142D01*
X180201190Y-66413142D02*
X180296428Y-66365523D01*
X180296428Y-66365523D02*
X180344047Y-66317904D01*
X180344047Y-66317904D02*
X180391666Y-66222666D01*
X180391666Y-66222666D02*
X180391666Y-66032190D01*
X180391666Y-66032190D02*
X180344047Y-65936952D01*
X180344047Y-65936952D02*
X180296428Y-65889333D01*
X180296428Y-65889333D02*
X180201190Y-65841714D01*
%TO.C,RV7*%
X180772619Y-52919238D02*
X180296428Y-53252571D01*
X180772619Y-53490666D02*
X179772619Y-53490666D01*
X179772619Y-53490666D02*
X179772619Y-53109714D01*
X179772619Y-53109714D02*
X179820238Y-53014476D01*
X179820238Y-53014476D02*
X179867857Y-52966857D01*
X179867857Y-52966857D02*
X179963095Y-52919238D01*
X179963095Y-52919238D02*
X180105952Y-52919238D01*
X180105952Y-52919238D02*
X180201190Y-52966857D01*
X180201190Y-52966857D02*
X180248809Y-53014476D01*
X180248809Y-53014476D02*
X180296428Y-53109714D01*
X180296428Y-53109714D02*
X180296428Y-53490666D01*
X179772619Y-52633523D02*
X180772619Y-52300190D01*
X180772619Y-52300190D02*
X179772619Y-51966857D01*
X179772619Y-51728761D02*
X179772619Y-51062095D01*
X179772619Y-51062095D02*
X180772619Y-51490666D01*
%TO.C,RV5*%
X180772619Y-38233238D02*
X180296428Y-38566571D01*
X180772619Y-38804666D02*
X179772619Y-38804666D01*
X179772619Y-38804666D02*
X179772619Y-38423714D01*
X179772619Y-38423714D02*
X179820238Y-38328476D01*
X179820238Y-38328476D02*
X179867857Y-38280857D01*
X179867857Y-38280857D02*
X179963095Y-38233238D01*
X179963095Y-38233238D02*
X180105952Y-38233238D01*
X180105952Y-38233238D02*
X180201190Y-38280857D01*
X180201190Y-38280857D02*
X180248809Y-38328476D01*
X180248809Y-38328476D02*
X180296428Y-38423714D01*
X180296428Y-38423714D02*
X180296428Y-38804666D01*
X179772619Y-37947523D02*
X180772619Y-37614190D01*
X180772619Y-37614190D02*
X179772619Y-37280857D01*
X179772619Y-36471333D02*
X179772619Y-36947523D01*
X179772619Y-36947523D02*
X180248809Y-36995142D01*
X180248809Y-36995142D02*
X180201190Y-36947523D01*
X180201190Y-36947523D02*
X180153571Y-36852285D01*
X180153571Y-36852285D02*
X180153571Y-36614190D01*
X180153571Y-36614190D02*
X180201190Y-36518952D01*
X180201190Y-36518952D02*
X180248809Y-36471333D01*
X180248809Y-36471333D02*
X180344047Y-36423714D01*
X180344047Y-36423714D02*
X180582142Y-36423714D01*
X180582142Y-36423714D02*
X180677380Y-36471333D01*
X180677380Y-36471333D02*
X180725000Y-36518952D01*
X180725000Y-36518952D02*
X180772619Y-36614190D01*
X180772619Y-36614190D02*
X180772619Y-36852285D01*
X180772619Y-36852285D02*
X180725000Y-36947523D01*
X180725000Y-36947523D02*
X180677380Y-36995142D01*
%TO.C,J15*%
X189730476Y-126898619D02*
X189730476Y-127612904D01*
X189730476Y-127612904D02*
X189682857Y-127755761D01*
X189682857Y-127755761D02*
X189587619Y-127851000D01*
X189587619Y-127851000D02*
X189444762Y-127898619D01*
X189444762Y-127898619D02*
X189349524Y-127898619D01*
X190730476Y-127898619D02*
X190159048Y-127898619D01*
X190444762Y-127898619D02*
X190444762Y-126898619D01*
X190444762Y-126898619D02*
X190349524Y-127041476D01*
X190349524Y-127041476D02*
X190254286Y-127136714D01*
X190254286Y-127136714D02*
X190159048Y-127184333D01*
X191635238Y-126898619D02*
X191159048Y-126898619D01*
X191159048Y-126898619D02*
X191111429Y-127374809D01*
X191111429Y-127374809D02*
X191159048Y-127327190D01*
X191159048Y-127327190D02*
X191254286Y-127279571D01*
X191254286Y-127279571D02*
X191492381Y-127279571D01*
X191492381Y-127279571D02*
X191587619Y-127327190D01*
X191587619Y-127327190D02*
X191635238Y-127374809D01*
X191635238Y-127374809D02*
X191682857Y-127470047D01*
X191682857Y-127470047D02*
X191682857Y-127708142D01*
X191682857Y-127708142D02*
X191635238Y-127803380D01*
X191635238Y-127803380D02*
X191587619Y-127851000D01*
X191587619Y-127851000D02*
X191492381Y-127898619D01*
X191492381Y-127898619D02*
X191254286Y-127898619D01*
X191254286Y-127898619D02*
X191159048Y-127851000D01*
X191159048Y-127851000D02*
X191111429Y-127803380D01*
%TO.C,J1*%
X180046666Y-111658619D02*
X180046666Y-112372904D01*
X180046666Y-112372904D02*
X179999047Y-112515761D01*
X179999047Y-112515761D02*
X179903809Y-112611000D01*
X179903809Y-112611000D02*
X179760952Y-112658619D01*
X179760952Y-112658619D02*
X179665714Y-112658619D01*
X181046666Y-112658619D02*
X180475238Y-112658619D01*
X180760952Y-112658619D02*
X180760952Y-111658619D01*
X180760952Y-111658619D02*
X180665714Y-111801476D01*
X180665714Y-111801476D02*
X180570476Y-111896714D01*
X180570476Y-111896714D02*
X180475238Y-111944333D01*
%TO.C,J5*%
X180046666Y-126898619D02*
X180046666Y-127612904D01*
X180046666Y-127612904D02*
X179999047Y-127755761D01*
X179999047Y-127755761D02*
X179903809Y-127851000D01*
X179903809Y-127851000D02*
X179760952Y-127898619D01*
X179760952Y-127898619D02*
X179665714Y-127898619D01*
X180999047Y-126898619D02*
X180522857Y-126898619D01*
X180522857Y-126898619D02*
X180475238Y-127374809D01*
X180475238Y-127374809D02*
X180522857Y-127327190D01*
X180522857Y-127327190D02*
X180618095Y-127279571D01*
X180618095Y-127279571D02*
X180856190Y-127279571D01*
X180856190Y-127279571D02*
X180951428Y-127327190D01*
X180951428Y-127327190D02*
X180999047Y-127374809D01*
X180999047Y-127374809D02*
X181046666Y-127470047D01*
X181046666Y-127470047D02*
X181046666Y-127708142D01*
X181046666Y-127708142D02*
X180999047Y-127803380D01*
X180999047Y-127803380D02*
X180951428Y-127851000D01*
X180951428Y-127851000D02*
X180856190Y-127898619D01*
X180856190Y-127898619D02*
X180618095Y-127898619D01*
X180618095Y-127898619D02*
X180522857Y-127851000D01*
X180522857Y-127851000D02*
X180475238Y-127803380D01*
%TO.C,D1*%
X177482619Y-146026094D02*
X176482619Y-146026094D01*
X176482619Y-146026094D02*
X176482619Y-145787999D01*
X176482619Y-145787999D02*
X176530238Y-145645142D01*
X176530238Y-145645142D02*
X176625476Y-145549904D01*
X176625476Y-145549904D02*
X176720714Y-145502285D01*
X176720714Y-145502285D02*
X176911190Y-145454666D01*
X176911190Y-145454666D02*
X177054047Y-145454666D01*
X177054047Y-145454666D02*
X177244523Y-145502285D01*
X177244523Y-145502285D02*
X177339761Y-145549904D01*
X177339761Y-145549904D02*
X177435000Y-145645142D01*
X177435000Y-145645142D02*
X177482619Y-145787999D01*
X177482619Y-145787999D02*
X177482619Y-146026094D01*
X177482619Y-144502285D02*
X177482619Y-145073713D01*
X177482619Y-144787999D02*
X176482619Y-144787999D01*
X176482619Y-144787999D02*
X176625476Y-144883237D01*
X176625476Y-144883237D02*
X176720714Y-144978475D01*
X176720714Y-144978475D02*
X176768333Y-145073713D01*
%TO.C,J2*%
X180046666Y-81178619D02*
X180046666Y-81892904D01*
X180046666Y-81892904D02*
X179999047Y-82035761D01*
X179999047Y-82035761D02*
X179903809Y-82131000D01*
X179903809Y-82131000D02*
X179760952Y-82178619D01*
X179760952Y-82178619D02*
X179665714Y-82178619D01*
X180475238Y-81273857D02*
X180522857Y-81226238D01*
X180522857Y-81226238D02*
X180618095Y-81178619D01*
X180618095Y-81178619D02*
X180856190Y-81178619D01*
X180856190Y-81178619D02*
X180951428Y-81226238D01*
X180951428Y-81226238D02*
X180999047Y-81273857D01*
X180999047Y-81273857D02*
X181046666Y-81369095D01*
X181046666Y-81369095D02*
X181046666Y-81464333D01*
X181046666Y-81464333D02*
X180999047Y-81607190D01*
X180999047Y-81607190D02*
X180427619Y-82178619D01*
X180427619Y-82178619D02*
X181046666Y-82178619D01*
%TO.C,J12*%
X189730476Y-81178619D02*
X189730476Y-81892904D01*
X189730476Y-81892904D02*
X189682857Y-82035761D01*
X189682857Y-82035761D02*
X189587619Y-82131000D01*
X189587619Y-82131000D02*
X189444762Y-82178619D01*
X189444762Y-82178619D02*
X189349524Y-82178619D01*
X190730476Y-82178619D02*
X190159048Y-82178619D01*
X190444762Y-82178619D02*
X190444762Y-81178619D01*
X190444762Y-81178619D02*
X190349524Y-81321476D01*
X190349524Y-81321476D02*
X190254286Y-81416714D01*
X190254286Y-81416714D02*
X190159048Y-81464333D01*
X191111429Y-81273857D02*
X191159048Y-81226238D01*
X191159048Y-81226238D02*
X191254286Y-81178619D01*
X191254286Y-81178619D02*
X191492381Y-81178619D01*
X191492381Y-81178619D02*
X191587619Y-81226238D01*
X191587619Y-81226238D02*
X191635238Y-81273857D01*
X191635238Y-81273857D02*
X191682857Y-81369095D01*
X191682857Y-81369095D02*
X191682857Y-81464333D01*
X191682857Y-81464333D02*
X191635238Y-81607190D01*
X191635238Y-81607190D02*
X191063810Y-82178619D01*
X191063810Y-82178619D02*
X191682857Y-82178619D01*
%TO.C,J13*%
X189730476Y-96418619D02*
X189730476Y-97132904D01*
X189730476Y-97132904D02*
X189682857Y-97275761D01*
X189682857Y-97275761D02*
X189587619Y-97371000D01*
X189587619Y-97371000D02*
X189444762Y-97418619D01*
X189444762Y-97418619D02*
X189349524Y-97418619D01*
X190730476Y-97418619D02*
X190159048Y-97418619D01*
X190444762Y-97418619D02*
X190444762Y-96418619D01*
X190444762Y-96418619D02*
X190349524Y-96561476D01*
X190349524Y-96561476D02*
X190254286Y-96656714D01*
X190254286Y-96656714D02*
X190159048Y-96704333D01*
X191063810Y-96418619D02*
X191682857Y-96418619D01*
X191682857Y-96418619D02*
X191349524Y-96799571D01*
X191349524Y-96799571D02*
X191492381Y-96799571D01*
X191492381Y-96799571D02*
X191587619Y-96847190D01*
X191587619Y-96847190D02*
X191635238Y-96894809D01*
X191635238Y-96894809D02*
X191682857Y-96990047D01*
X191682857Y-96990047D02*
X191682857Y-97228142D01*
X191682857Y-97228142D02*
X191635238Y-97323380D01*
X191635238Y-97323380D02*
X191587619Y-97371000D01*
X191587619Y-97371000D02*
X191492381Y-97418619D01*
X191492381Y-97418619D02*
X191206667Y-97418619D01*
X191206667Y-97418619D02*
X191111429Y-97371000D01*
X191111429Y-97371000D02*
X191063810Y-97323380D01*
%TO.C,J4*%
X180046666Y-96418619D02*
X180046666Y-97132904D01*
X180046666Y-97132904D02*
X179999047Y-97275761D01*
X179999047Y-97275761D02*
X179903809Y-97371000D01*
X179903809Y-97371000D02*
X179760952Y-97418619D01*
X179760952Y-97418619D02*
X179665714Y-97418619D01*
X180951428Y-96751952D02*
X180951428Y-97418619D01*
X180713333Y-96371000D02*
X180475238Y-97085285D01*
X180475238Y-97085285D02*
X181094285Y-97085285D01*
%TO.C,J14*%
X189730476Y-111658619D02*
X189730476Y-112372904D01*
X189730476Y-112372904D02*
X189682857Y-112515761D01*
X189682857Y-112515761D02*
X189587619Y-112611000D01*
X189587619Y-112611000D02*
X189444762Y-112658619D01*
X189444762Y-112658619D02*
X189349524Y-112658619D01*
X190730476Y-112658619D02*
X190159048Y-112658619D01*
X190444762Y-112658619D02*
X190444762Y-111658619D01*
X190444762Y-111658619D02*
X190349524Y-111801476D01*
X190349524Y-111801476D02*
X190254286Y-111896714D01*
X190254286Y-111896714D02*
X190159048Y-111944333D01*
X191587619Y-111991952D02*
X191587619Y-112658619D01*
X191349524Y-111611000D02*
X191111429Y-112325285D01*
X191111429Y-112325285D02*
X191730476Y-112325285D01*
D11*
%TO.C,RV9*%
X182939000Y-72226000D02*
X184260000Y-72226000D01*
X182939000Y-72226000D02*
X182939000Y-68289000D01*
X186710000Y-72226000D02*
X187090000Y-72226000D01*
X188831000Y-72226000D02*
X189590000Y-72226000D01*
X191330000Y-72226000D02*
X192980000Y-72226000D01*
X192980000Y-72226000D02*
X192980000Y-68289000D01*
X182939000Y-63922000D02*
X182939000Y-59986000D01*
X192980000Y-63922000D02*
X192980000Y-59986000D01*
X182939000Y-59986000D02*
X192980000Y-59986000D01*
%TO.C,RV7*%
X182939000Y-57494000D02*
X184260000Y-57494000D01*
X182939000Y-57494000D02*
X182939000Y-53557000D01*
X186710000Y-57494000D02*
X187090000Y-57494000D01*
X188831000Y-57494000D02*
X189590000Y-57494000D01*
X191330000Y-57494000D02*
X192980000Y-57494000D01*
X192980000Y-57494000D02*
X192980000Y-53557000D01*
X182939000Y-49190000D02*
X182939000Y-45254000D01*
X192980000Y-49190000D02*
X192980000Y-45254000D01*
X182939000Y-45254000D02*
X192980000Y-45254000D01*
%TO.C,RV5*%
X182939000Y-42808000D02*
X184260000Y-42808000D01*
X182939000Y-42808000D02*
X182939000Y-38871000D01*
X186710000Y-42808000D02*
X187090000Y-42808000D01*
X188831000Y-42808000D02*
X189590000Y-42808000D01*
X191330000Y-42808000D02*
X192980000Y-42808000D01*
X192980000Y-42808000D02*
X192980000Y-38871000D01*
X182939000Y-34504000D02*
X182939000Y-30568000D01*
X192980000Y-34504000D02*
X192980000Y-30568000D01*
X182939000Y-30568000D02*
X192980000Y-30568000D01*
D12*
%TO.C,J15*%
X188540000Y-128236000D02*
X191440000Y-128236000D01*
X188540000Y-138736000D02*
X188540000Y-128236000D01*
X188540000Y-138736000D02*
X191540000Y-138736000D01*
X194540000Y-138736000D02*
X197540000Y-138736000D01*
X194640000Y-128236000D02*
X197540000Y-128236000D01*
X197540000Y-138736000D02*
X197540000Y-128236000D01*
D11*
X193040000Y-131341000D02*
G75*
G03*
X191743737Y-136824576I0J-2895000D01*
G01*
X194336263Y-136824576D02*
G75*
G03*
X193040000Y-131341000I-1296263J2588576D01*
G01*
X194840000Y-134236000D02*
G75*
G03*
X194840000Y-134236000I-1800000J0D01*
G01*
%TO.C,J1*%
X184680000Y-118996000D02*
G75*
G03*
X184680000Y-118996000I-1800000J0D01*
G01*
X184176263Y-121584576D02*
G75*
G03*
X182880000Y-116101000I-1296263J2588576D01*
G01*
X182880000Y-116101000D02*
G75*
G03*
X181583737Y-121584576I0J-2895000D01*
G01*
D12*
X187380000Y-123496000D02*
X187380000Y-112996000D01*
X184480000Y-112996000D02*
X187380000Y-112996000D01*
X184380000Y-123496000D02*
X187380000Y-123496000D01*
X178380000Y-123496000D02*
X181380000Y-123496000D01*
X178380000Y-123496000D02*
X178380000Y-112996000D01*
X178380000Y-112996000D02*
X181280000Y-112996000D01*
%TO.C,J5*%
X178380000Y-128236000D02*
X181280000Y-128236000D01*
X178380000Y-138736000D02*
X178380000Y-128236000D01*
X178380000Y-138736000D02*
X181380000Y-138736000D01*
X184380000Y-138736000D02*
X187380000Y-138736000D01*
X184480000Y-128236000D02*
X187380000Y-128236000D01*
X187380000Y-138736000D02*
X187380000Y-128236000D01*
D11*
X182880000Y-131341000D02*
G75*
G03*
X181583737Y-136824576I0J-2895000D01*
G01*
X184176263Y-136824576D02*
G75*
G03*
X182880000Y-131341000I-1296263J2588576D01*
G01*
X184680000Y-134236000D02*
G75*
G03*
X184680000Y-134236000I-1800000J0D01*
G01*
%TO.C,D1*%
X178150000Y-145917000D02*
X178150000Y-144659000D01*
X179990000Y-145917000D02*
X179990000Y-144659000D01*
D12*
%TO.C,J2*%
X178380000Y-82516000D02*
X181280000Y-82516000D01*
X178380000Y-93016000D02*
X178380000Y-82516000D01*
X178380000Y-93016000D02*
X181380000Y-93016000D01*
X184380000Y-93016000D02*
X187380000Y-93016000D01*
X184480000Y-82516000D02*
X187380000Y-82516000D01*
X187380000Y-93016000D02*
X187380000Y-82516000D01*
D11*
X182880000Y-85621000D02*
G75*
G03*
X181583737Y-91104576I0J-2895000D01*
G01*
X184176263Y-91104576D02*
G75*
G03*
X182880000Y-85621000I-1296263J2588576D01*
G01*
X184680000Y-88516000D02*
G75*
G03*
X184680000Y-88516000I-1800000J0D01*
G01*
D12*
%TO.C,J12*%
X188540000Y-82516000D02*
X191440000Y-82516000D01*
X188540000Y-93016000D02*
X188540000Y-82516000D01*
X188540000Y-93016000D02*
X191540000Y-93016000D01*
X194540000Y-93016000D02*
X197540000Y-93016000D01*
X194640000Y-82516000D02*
X197540000Y-82516000D01*
X197540000Y-93016000D02*
X197540000Y-82516000D01*
D11*
X193040000Y-85621000D02*
G75*
G03*
X191743737Y-91104576I0J-2895000D01*
G01*
X194336263Y-91104576D02*
G75*
G03*
X193040000Y-85621000I-1296263J2588576D01*
G01*
X194840000Y-88516000D02*
G75*
G03*
X194840000Y-88516000I-1800000J0D01*
G01*
D12*
%TO.C,J13*%
X188540000Y-97756000D02*
X191440000Y-97756000D01*
X188540000Y-108256000D02*
X188540000Y-97756000D01*
X188540000Y-108256000D02*
X191540000Y-108256000D01*
X194540000Y-108256000D02*
X197540000Y-108256000D01*
X194640000Y-97756000D02*
X197540000Y-97756000D01*
X197540000Y-108256000D02*
X197540000Y-97756000D01*
D11*
X193040000Y-100861000D02*
G75*
G03*
X191743737Y-106344576I0J-2895000D01*
G01*
X194336263Y-106344576D02*
G75*
G03*
X193040000Y-100861000I-1296263J2588576D01*
G01*
X194840000Y-103756000D02*
G75*
G03*
X194840000Y-103756000I-1800000J0D01*
G01*
D12*
%TO.C,J4*%
X178380000Y-97756000D02*
X181280000Y-97756000D01*
X178380000Y-108256000D02*
X178380000Y-97756000D01*
X178380000Y-108256000D02*
X181380000Y-108256000D01*
X184380000Y-108256000D02*
X187380000Y-108256000D01*
X184480000Y-97756000D02*
X187380000Y-97756000D01*
X187380000Y-108256000D02*
X187380000Y-97756000D01*
D11*
X182880000Y-100861000D02*
G75*
G03*
X181583737Y-106344576I0J-2895000D01*
G01*
X184176263Y-106344576D02*
G75*
G03*
X182880000Y-100861000I-1296263J2588576D01*
G01*
X184680000Y-103756000D02*
G75*
G03*
X184680000Y-103756000I-1800000J0D01*
G01*
D12*
%TO.C,J14*%
X188540000Y-112996000D02*
X191440000Y-112996000D01*
X188540000Y-123496000D02*
X188540000Y-112996000D01*
X188540000Y-123496000D02*
X191540000Y-123496000D01*
X194540000Y-123496000D02*
X197540000Y-123496000D01*
X194640000Y-112996000D02*
X197540000Y-112996000D01*
X197540000Y-123496000D02*
X197540000Y-112996000D01*
D11*
X193040000Y-116101000D02*
G75*
G03*
X191743737Y-121584576I0J-2895000D01*
G01*
X194336263Y-121584576D02*
G75*
G03*
X193040000Y-116101000I-1296263J2588576D01*
G01*
X194840000Y-118996000D02*
G75*
G03*
X194840000Y-118996000I-1800000J0D01*
G01*
%TD*%
M02*
