%TF.GenerationSoftware,KiCad,Pcbnew,7.0.1*%
%TF.CreationDate,2023-06-11T21:55:06-04:00*%
%TF.ProjectId,as3340_no_mux,61733333-3430-45f6-9e6f-5f6d75782e6b,rev?*%
%TF.SameCoordinates,Original*%
%TF.FileFunction,Soldermask,Top*%
%TF.FilePolarity,Negative*%
%FSLAX46Y46*%
G04 Gerber Fmt 4.6, Leading zero omitted, Abs format (unit mm)*
G04 Created by KiCad (PCBNEW 7.0.1) date 2023-06-11 21:55:06*
%MOMM*%
%LPD*%
G01*
G04 APERTURE LIST*
G04 Aperture macros list*
%AMRoundRect*
0 Rectangle with rounded corners*
0 $1 Rounding radius*
0 $2 $3 $4 $5 $6 $7 $8 $9 X,Y pos of 4 corners*
0 Add a 4 corners polygon primitive as box body*
4,1,4,$2,$3,$4,$5,$6,$7,$8,$9,$2,$3,0*
0 Add four circle primitives for the rounded corners*
1,1,$1+$1,$2,$3*
1,1,$1+$1,$4,$5*
1,1,$1+$1,$6,$7*
1,1,$1+$1,$8,$9*
0 Add four rect primitives between the rounded corners*
20,1,$1+$1,$2,$3,$4,$5,0*
20,1,$1+$1,$4,$5,$6,$7,0*
20,1,$1+$1,$6,$7,$8,$9,0*
20,1,$1+$1,$8,$9,$2,$3,0*%
G04 Aperture macros list end*
%ADD10R,1.800000X1.800000*%
%ADD11C,1.800000*%
%ADD12RoundRect,0.750000X0.750000X-1.250000X0.750000X1.250000X-0.750000X1.250000X-0.750000X-1.250000X0*%
%ADD13C,1.620000*%
%ADD14O,3.100000X2.300000*%
%ADD15RoundRect,0.650000X-0.650000X-0.650000X0.650000X-0.650000X0.650000X0.650000X-0.650000X0.650000X0*%
%ADD16C,1.600000*%
%ADD17R,1.600000X1.600000*%
%ADD18O,1.600000X1.600000*%
%ADD19R,1.700000X1.700000*%
%ADD20O,1.700000X1.700000*%
G04 APERTURE END LIST*
D10*
%TO.C,RV9*%
X185460000Y-73106000D03*
D11*
X187960000Y-73106000D03*
X190460000Y-73106000D03*
D12*
X183560000Y-66106000D03*
X192360000Y-66106000D03*
%TD*%
D10*
%TO.C,RV7*%
X185460000Y-58374000D03*
D11*
X187960000Y-58374000D03*
X190460000Y-58374000D03*
D12*
X183560000Y-51374000D03*
X192360000Y-51374000D03*
%TD*%
D10*
%TO.C,RV5*%
X185460000Y-43688000D03*
D11*
X187960000Y-43688000D03*
X190460000Y-43688000D03*
D12*
X183560000Y-36688000D03*
X192360000Y-36688000D03*
%TD*%
D13*
%TO.C,SineBiasTrim1*%
X181411000Y-75732000D03*
X178911000Y-78232000D03*
X181411000Y-80732000D03*
%TD*%
D14*
%TO.C,J15*%
X193040000Y-140716000D03*
D15*
X193040000Y-129316000D03*
X193040000Y-137616000D03*
%TD*%
%TO.C,J1*%
X182880000Y-122376000D03*
X182880000Y-114076000D03*
D14*
X182880000Y-125476000D03*
%TD*%
%TO.C,J5*%
X182880000Y-140716000D03*
D15*
X182880000Y-129316000D03*
X182880000Y-137616000D03*
%TD*%
D16*
%TO.C,D1*%
X179070000Y-146538000D03*
X179070000Y-144038000D03*
%TD*%
D14*
%TO.C,J2*%
X182880000Y-94996000D03*
D15*
X182880000Y-83596000D03*
X182880000Y-91896000D03*
%TD*%
D13*
%TO.C,SineLevelTrim1*%
X196905000Y-75986000D03*
X194405000Y-78486000D03*
X196905000Y-80986000D03*
%TD*%
D14*
%TO.C,J12*%
X193040000Y-94996000D03*
D15*
X193040000Y-83596000D03*
X193040000Y-91896000D03*
%TD*%
D13*
%TO.C,SineShapeTrim1*%
X181665000Y-56428000D03*
X179165000Y-58928000D03*
X181665000Y-61428000D03*
%TD*%
D14*
%TO.C,J13*%
X193040000Y-110236000D03*
D15*
X193040000Y-98836000D03*
X193040000Y-107136000D03*
%TD*%
D14*
%TO.C,J4*%
X182880000Y-110236000D03*
D15*
X182880000Y-98836000D03*
X182880000Y-107136000D03*
%TD*%
D14*
%TO.C,J14*%
X193040000Y-125476000D03*
D15*
X193040000Y-114076000D03*
X193040000Y-122376000D03*
%TD*%
D17*
%TO.C,U4*%
X189230000Y-128270000D03*
D18*
X189230000Y-125730000D03*
X189230000Y-123190000D03*
X189230000Y-120650000D03*
X189230000Y-118110000D03*
X189230000Y-115570000D03*
X189230000Y-113030000D03*
X196850000Y-113030000D03*
X196850000Y-115570000D03*
X196850000Y-118110000D03*
X196850000Y-120650000D03*
X196850000Y-123190000D03*
X196850000Y-125730000D03*
X196850000Y-128270000D03*
%TD*%
D19*
%TO.C,J11*%
X193035000Y-146563000D03*
D20*
X193035000Y-144023000D03*
X190495000Y-146563000D03*
X190495000Y-144023000D03*
X187955000Y-146563000D03*
X187955000Y-144023000D03*
X185415000Y-146563000D03*
X185415000Y-144023000D03*
X182875000Y-146563000D03*
X182875000Y-144023000D03*
%TD*%
D17*
%TO.C,U2*%
X179324000Y-130810000D03*
D18*
X179324000Y-128270000D03*
X179324000Y-125730000D03*
X179324000Y-123190000D03*
X179324000Y-120650000D03*
X179324000Y-118110000D03*
X179324000Y-115570000D03*
X179324000Y-113030000D03*
X186944000Y-113030000D03*
X186944000Y-115570000D03*
X186944000Y-118110000D03*
X186944000Y-120650000D03*
X186944000Y-123190000D03*
X186944000Y-125730000D03*
X186944000Y-128270000D03*
X186944000Y-130810000D03*
%TD*%
M02*
