M48
; DRILL file {KiCad 7.0.2} date Tue Jun 13 14:31:59 2023
; FORMAT={-:-/ absolute / inch / decimal}
; #@! TF.CreationDate,2023-06-13T14:31:59-04:00
; #@! TF.GenerationSoftware,Kicad,Pcbnew,7.0.2
; #@! TF.FileFunction,Plated,1,2,PTH
FMAT,2
INCH
; #@! TA.AperFunction,Plated,PTH,ViaDrill
T1C0.0157
; #@! TA.AperFunction,Plated,PTH,ComponentDrill
T2C0.0236
; #@! TA.AperFunction,Plated,PTH,ComponentDrill
T3C0.0315
; #@! TA.AperFunction,Plated,PTH,ComponentDrill
T4C0.0354
; #@! TA.AperFunction,Plated,PTH,ComponentDrill
T5C0.0394
; #@! TA.AperFunction,Plated,PTH,ComponentDrill
T6C0.0709
%
G90
G05
T1
X7.0218Y-3.916
X7.0472Y-4.2734
X7.0936Y-5.2049
X7.1057Y-4.2587
X7.1084Y-5.5022
X7.1742Y-2.9214
X7.1922Y-3.18
X7.23Y-2.8247
X7.279Y-4.051
X7.306Y-3.5046
X7.3316Y-4.1112
X7.3466Y-3.7676
X7.3542Y-2.5822
X7.3953Y-4.4029
X7.4388Y-3.7506
X7.4414Y-5.4401
X7.446Y-3.858
X7.4637Y-2.5
X7.5011Y-3.6477
X7.5137Y-3.3314
X7.5164Y-4.3032
X7.6615Y-4.0312
X7.6804Y-5.1157
X7.7472Y-3.3442
X7.7472Y-4.0995
X7.7637Y-5.5601
T2
X7.3863Y-5.5
X7.465Y-5.5
T3
X7.05Y-5.6708
X7.05Y-5.7692
X7.06Y-4.45
X7.06Y-4.55
X7.06Y-4.65
X7.06Y-4.75
X7.06Y-4.85
X7.06Y-4.95
X7.06Y-5.05
X7.06Y-5.15
X7.36Y-4.45
X7.36Y-4.55
X7.36Y-4.65
X7.36Y-4.75
X7.36Y-4.85
X7.36Y-4.95
X7.36Y-5.05
X7.36Y-5.15
X7.45Y-4.45
X7.45Y-4.55
X7.45Y-4.65
X7.45Y-4.75
X7.45Y-4.85
X7.45Y-4.95
X7.45Y-5.05
X7.75Y-4.45
X7.75Y-4.55
X7.75Y-4.65
X7.75Y-4.75
X7.75Y-4.85
X7.75Y-4.95
X7.75Y-5.05
T4
X7.045Y-2.9916
X7.045Y-3.1884
X7.0516Y-2.32
X7.0537Y-1.78
X7.065Y-3.09
X7.1434Y-3.09
X7.15Y-2.2216
X7.15Y-2.4184
X7.1522Y-1.6816
X7.1522Y-1.8784
X7.25Y-3.09
X7.435Y-3.09
X7.65Y-2.9931
X7.65Y-3.19
X7.6516Y-2.37
X7.6537Y-1.79
X7.7484Y-3.0916
X7.75Y-2.2716
X7.75Y-2.4684
X7.7522Y-1.6916
X7.7522Y-1.8884
T5
X7.1998Y-5.675
X7.1998Y-5.775
X7.2998Y-5.675
X7.2998Y-5.775
X7.3031Y-1.7234
X7.3031Y-2.3
X7.3033Y-2.8756
X7.3998Y-5.675
X7.3998Y-5.775
X7.4016Y-1.7234
X7.4016Y-2.3
X7.4018Y-2.8756
X7.4998Y-5.675
X7.4998Y-5.775
X7.5Y-1.7234
X7.5Y-2.3
X7.5002Y-2.8756
X7.5998Y-5.675
X7.5998Y-5.775
T2
G00X7.1803Y-3.3232
M15
G01X7.2197Y-3.3232
M16
G05
G00X7.1803Y-3.65
M15
G01X7.2197Y-3.65
M16
G05
G00X7.1803Y-3.772
M15
G01X7.2197Y-3.772
M16
G05
G00X7.1803Y-3.9232
M15
G01X7.2197Y-3.9232
M16
G05
G00X7.1803Y-4.25
M15
G01X7.2197Y-4.25
M16
G05
G00X7.1803Y-4.372
M15
G01X7.2197Y-4.372
M16
G05
G00X7.1803Y-4.5232
M15
G01X7.2197Y-4.5232
M16
G05
G00X7.1803Y-4.85
M15
G01X7.2197Y-4.85
M16
G05
G00X7.1803Y-4.972
M15
G01X7.2197Y-4.972
M16
G05
G00X7.1803Y-5.1
M15
G01X7.2197Y-5.1
M16
G05
G00X7.1803Y-5.4268
M15
G01X7.2197Y-5.4268
M16
G05
G00X7.1803Y-5.5488
M15
G01X7.2197Y-5.5488
M16
G05
G00X7.5803Y-3.3232
M15
G01X7.6197Y-3.3232
M16
G05
G00X7.5803Y-3.65
M15
G01X7.6197Y-3.65
M16
G05
G00X7.5803Y-3.772
M15
G01X7.6197Y-3.772
M16
G05
G00X7.5803Y-3.9232
M15
G01X7.6197Y-3.9232
M16
G05
G00X7.5803Y-4.25
M15
G01X7.6197Y-4.25
M16
G05
G00X7.5803Y-4.372
M15
G01X7.6197Y-4.372
M16
G05
G00X7.5803Y-4.5232
M15
G01X7.6197Y-4.5232
M16
G05
G00X7.5803Y-4.85
M15
G01X7.6197Y-4.85
M16
G05
G00X7.5803Y-4.972
M15
G01X7.6197Y-4.972
M16
G05
G00X7.5803Y-5.1
M15
G01X7.6197Y-5.1
M16
G05
G00X7.5803Y-5.4268
M15
G01X7.6197Y-5.4268
M16
G05
G00X7.5803Y-5.5488
M15
G01X7.6197Y-5.5488
M16
G05
T6
G00X7.2283Y-1.4537
M15
G01X7.2283Y-1.4419
M16
G05
G00X7.2283Y-2.0303
M15
G01X7.2283Y-2.0185
M16
G05
G00X7.2285Y-2.6059
M15
G01X7.2285Y-2.5941
M16
G05
G00X7.5748Y-1.4537
M15
G01X7.5748Y-1.4419
M16
G05
G00X7.5748Y-2.0303
M15
G01X7.5748Y-2.0185
M16
G05
G00X7.575Y-2.6059
M15
G01X7.575Y-2.5941
M16
G05
T0
M30
