%TF.GenerationSoftware,KiCad,Pcbnew,7.0.1*%
%TF.CreationDate,2023-06-11T21:55:06-04:00*%
%TF.ProjectId,as3340_no_mux,61733333-3430-45f6-9e6f-5f6d75782e6b,rev?*%
%TF.SameCoordinates,Original*%
%TF.FileFunction,Copper,L4,Bot*%
%TF.FilePolarity,Positive*%
%FSLAX46Y46*%
G04 Gerber Fmt 4.6, Leading zero omitted, Abs format (unit mm)*
G04 Created by KiCad (PCBNEW 7.0.1) date 2023-06-11 21:55:06*
%MOMM*%
%LPD*%
G01*
G04 APERTURE LIST*
G04 Aperture macros list*
%AMRoundRect*
0 Rectangle with rounded corners*
0 $1 Rounding radius*
0 $2 $3 $4 $5 $6 $7 $8 $9 X,Y pos of 4 corners*
0 Add a 4 corners polygon primitive as box body*
4,1,4,$2,$3,$4,$5,$6,$7,$8,$9,$2,$3,0*
0 Add four circle primitives for the rounded corners*
1,1,$1+$1,$2,$3*
1,1,$1+$1,$4,$5*
1,1,$1+$1,$6,$7*
1,1,$1+$1,$8,$9*
0 Add four rect primitives between the rounded corners*
20,1,$1+$1,$2,$3,$4,$5,0*
20,1,$1+$1,$4,$5,$6,$7,0*
20,1,$1+$1,$6,$7,$8,$9,0*
20,1,$1+$1,$8,$9,$2,$3,0*%
G04 Aperture macros list end*
%TA.AperFunction,SMDPad,CuDef*%
%ADD10RoundRect,0.250000X-0.625000X0.312500X-0.625000X-0.312500X0.625000X-0.312500X0.625000X0.312500X0*%
%TD*%
%TA.AperFunction,SMDPad,CuDef*%
%ADD11RoundRect,0.250000X0.312500X0.625000X-0.312500X0.625000X-0.312500X-0.625000X0.312500X-0.625000X0*%
%TD*%
%TA.AperFunction,SMDPad,CuDef*%
%ADD12RoundRect,0.250000X-0.650000X0.325000X-0.650000X-0.325000X0.650000X-0.325000X0.650000X0.325000X0*%
%TD*%
%TA.AperFunction,SMDPad,CuDef*%
%ADD13RoundRect,0.250000X0.650000X-0.325000X0.650000X0.325000X-0.650000X0.325000X-0.650000X-0.325000X0*%
%TD*%
%TA.AperFunction,ComponentPad*%
%ADD14R,1.800000X1.800000*%
%TD*%
%TA.AperFunction,ComponentPad*%
%ADD15C,1.800000*%
%TD*%
%TA.AperFunction,ComponentPad*%
%ADD16RoundRect,0.750000X0.750000X-1.250000X0.750000X1.250000X-0.750000X1.250000X-0.750000X-1.250000X0*%
%TD*%
%TA.AperFunction,ComponentPad*%
%ADD17C,1.620000*%
%TD*%
%TA.AperFunction,ComponentPad*%
%ADD18O,3.100000X2.300000*%
%TD*%
%TA.AperFunction,ComponentPad*%
%ADD19RoundRect,0.650000X-0.650000X-0.650000X0.650000X-0.650000X0.650000X0.650000X-0.650000X0.650000X0*%
%TD*%
%TA.AperFunction,ComponentPad*%
%ADD20C,1.600000*%
%TD*%
%TA.AperFunction,SMDPad,CuDef*%
%ADD21RoundRect,0.150000X-0.150000X0.825000X-0.150000X-0.825000X0.150000X-0.825000X0.150000X0.825000X0*%
%TD*%
%TA.AperFunction,ComponentPad*%
%ADD22R,1.600000X1.600000*%
%TD*%
%TA.AperFunction,ComponentPad*%
%ADD23O,1.600000X1.600000*%
%TD*%
%TA.AperFunction,ComponentPad*%
%ADD24R,1.700000X1.700000*%
%TD*%
%TA.AperFunction,ComponentPad*%
%ADD25O,1.700000X1.700000*%
%TD*%
%TA.AperFunction,ViaPad*%
%ADD26C,0.800000*%
%TD*%
%TA.AperFunction,Conductor*%
%ADD27C,0.250000*%
%TD*%
G04 APERTURE END LIST*
D10*
%TO.P,R69,1*%
%TO.N,Net-(U4A--)*%
X196850000Y-59305000D03*
%TO.P,R69,2*%
%TO.N,Net-(J13-PadR)*%
X196850000Y-62230000D03*
%TD*%
%TO.P,R68,1*%
%TO.N,Net-(R64-Pad2)*%
X196850000Y-64131000D03*
%TO.P,R68,2*%
%TO.N,Net-(J12-PadR)*%
X196850000Y-67056000D03*
%TD*%
%TO.P,R67,1*%
%TO.N,Net-(U4D--)*%
X196850000Y-68957000D03*
%TO.P,R67,2*%
%TO.N,Net-(J14-PadR)*%
X196850000Y-71882000D03*
%TD*%
%TO.P,R66,1*%
%TO.N,Net-(U4C--)*%
X179070000Y-51369500D03*
%TO.P,R66,2*%
%TO.N,Net-(J15-PadR)*%
X179070000Y-54294500D03*
%TD*%
%TO.P,R64,1*%
%TO.N,Net-(U4B--)*%
X179070000Y-63561500D03*
%TO.P,R64,2*%
%TO.N,Net-(R64-Pad2)*%
X179070000Y-66486500D03*
%TD*%
%TO.P,R62,1*%
%TO.N,GND*%
X179070000Y-98105500D03*
%TO.P,R62,2*%
%TO.N,Net-(U4B--)*%
X179070000Y-101030500D03*
%TD*%
%TO.P,R60,1*%
%TO.N,Net-(D1-A)*%
X186690000Y-94549500D03*
%TO.P,R60,2*%
%TO.N,GND*%
X186690000Y-97474500D03*
%TD*%
%TO.P,R58,1*%
%TO.N,Net-(J23-Pin_4)*%
X196850000Y-92771500D03*
%TO.P,R58,2*%
%TO.N,Net-(D1-A)*%
X196850000Y-95696500D03*
%TD*%
%TO.P,R55,1*%
%TO.N,Net-(U1A-+)*%
X186944000Y-53147500D03*
%TO.P,R55,2*%
%TO.N,Net-(R55-Pad2)*%
X186944000Y-56072500D03*
%TD*%
%TO.P,R54,1*%
%TO.N,Net-(U1A-+)*%
X189484000Y-53401500D03*
%TO.P,R54,2*%
%TO.N,Net-(R54-Pad2)*%
X189484000Y-56326500D03*
%TD*%
%TO.P,R51,1*%
%TO.N,GND*%
X186436000Y-60767500D03*
%TO.P,R51,2*%
%TO.N,Net-(U1A-+)*%
X186436000Y-63692500D03*
%TD*%
%TO.P,R50,1*%
%TO.N,Net-(U2-VEE)*%
X189230000Y-68387500D03*
%TO.P,R50,2*%
%TO.N,-15V*%
X189230000Y-71312500D03*
%TD*%
%TO.P,R48,1*%
%TO.N,Net-(U2-VPWM)*%
X189484000Y-88707500D03*
%TO.P,R48,2*%
%TO.N,GND*%
X189484000Y-91632500D03*
%TD*%
%TO.P,R46,1*%
%TO.N,Net-(U2-VS)*%
X185928000Y-83373500D03*
%TO.P,R46,2*%
%TO.N,GND*%
X185928000Y-86298500D03*
%TD*%
%TO.P,R40,2*%
%TO.N,Net-(U2-VPWM)*%
X179070000Y-71566500D03*
%TO.P,R40,1*%
%TO.N,Net-(J29-Pin_1)*%
X179070000Y-68641500D03*
%TD*%
D11*
%TO.P,R39,2*%
%TO.N,Net-(U2-SCALE2)*%
X194117500Y-46990000D03*
%TO.P,R39,1*%
%TO.N,Net-(U2-VEE)*%
X197042500Y-46990000D03*
%TD*%
D10*
%TO.P,R38,1*%
%TO.N,Net-(R38-Pad1)*%
X196850000Y-88199500D03*
%TO.P,R38,2*%
%TO.N,Net-(U2-SCALE1)*%
X196850000Y-91124500D03*
%TD*%
%TO.P,R37,1*%
%TO.N,+15V*%
X189230000Y-38669500D03*
%TO.P,R37,2*%
%TO.N,Net-(R1-Pad2)*%
X189230000Y-41594500D03*
%TD*%
%TO.P,R36,1*%
%TO.N,Net-(R36-Pad1)*%
X186436000Y-46035500D03*
%TO.P,R36,2*%
%TO.N,Net-(R36-Pad2)*%
X186436000Y-48960500D03*
%TD*%
%TO.P,R34,1*%
%TO.N,-15V*%
X189230000Y-46035500D03*
%TO.P,R34,2*%
%TO.N,Net-(R3-Pad1)*%
X189230000Y-48960500D03*
%TD*%
%TO.P,R26,1*%
%TO.N,Net-(R26-Pad1)*%
X188976000Y-60767500D03*
%TO.P,R26,2*%
%TO.N,Net-(U2-VFCI)*%
X188976000Y-63692500D03*
%TD*%
%TO.P,R25,1*%
%TO.N,Net-(C9-Pad1)*%
X186690000Y-68387500D03*
%TO.P,R25,2*%
%TO.N,Net-(U2-VFCI)*%
X186690000Y-71312500D03*
%TD*%
%TO.P,R24,1*%
%TO.N,Net-(U2-VFCI)*%
X189776000Y-83373500D03*
%TO.P,R24,2*%
%TO.N,Net-(J2-PadR)*%
X189776000Y-86298500D03*
%TD*%
%TO.P,R20,1*%
%TO.N,Net-(J6-Pin_1)*%
X186182000Y-88646000D03*
%TO.P,R20,2*%
%TO.N,Net-(U2-VFCI)*%
X186182000Y-91571000D03*
%TD*%
%TO.P,R19,1*%
%TO.N,Net-(J20-Pin_1)*%
X196596000Y-36637500D03*
%TO.P,R19,2*%
%TO.N,Net-(U2-VFCI)*%
X196596000Y-39562500D03*
%TD*%
%TO.P,R17,2*%
%TO.N,Net-(R17-Pad2)*%
X196596000Y-34482500D03*
%TO.P,R17,1*%
%TO.N,Net-(U2-VFCI)*%
X196596000Y-31557500D03*
%TD*%
%TO.P,R16,1*%
%TO.N,Net-(J21-Pin_1)*%
X196850000Y-83119500D03*
%TO.P,R16,2*%
%TO.N,+15V*%
X196850000Y-86044500D03*
%TD*%
D11*
%TO.P,R12,1*%
%TO.N,Net-(U2-VLFI)*%
X196788500Y-44450000D03*
%TO.P,R12,2*%
%TO.N,Net-(C2-Pad2)*%
X193863500Y-44450000D03*
%TD*%
%TO.P,R11,2*%
%TO.N,Net-(U2-VLFI)*%
X191323500Y-31750000D03*
%TO.P,R11,1*%
%TO.N,Net-(C1-Pad1)*%
X194248500Y-31750000D03*
%TD*%
%TO.P,R10,1*%
%TO.N,+15V*%
X189422500Y-31750000D03*
%TO.P,R10,2*%
%TO.N,Net-(U2-VLFI)*%
X186497500Y-31750000D03*
%TD*%
%TO.P,R8,1*%
%TO.N,Net-(J17-Pin_1)*%
X184404000Y-31750000D03*
%TO.P,R8,2*%
%TO.N,+15V*%
X181479000Y-31750000D03*
%TD*%
D10*
%TO.P,R6,1*%
%TO.N,-15V*%
X179070000Y-46543500D03*
%TO.P,R6,2*%
%TO.N,Net-(J19-Pin_1)*%
X179070000Y-49468500D03*
%TD*%
%TO.P,R4,1*%
%TO.N,Net-(R4-Pad1)*%
X179070000Y-83119500D03*
%TO.P,R4,2*%
%TO.N,Net-(R26-Pad1)*%
X179070000Y-86044500D03*
%TD*%
D11*
%TO.P,R3,1*%
%TO.N,Net-(R3-Pad1)*%
X196788500Y-41910000D03*
%TO.P,R3,2*%
%TO.N,Net-(U4A-+)*%
X193863500Y-41910000D03*
%TD*%
D10*
%TO.P,R2,1*%
%TO.N,-15V*%
X179070000Y-41463500D03*
%TO.P,R2,2*%
%TO.N,Net-(J16-Pin_1)*%
X179070000Y-44388500D03*
%TD*%
%TO.P,R1,1*%
%TO.N,GND*%
X186690000Y-38669500D03*
%TO.P,R1,2*%
%TO.N,Net-(R1-Pad2)*%
X186690000Y-41594500D03*
%TD*%
D12*
%TO.P,C11,1*%
%TO.N,GND*%
X179070000Y-93013000D03*
%TO.P,C11,2*%
%TO.N,Net-(U2-CAP)*%
X179070000Y-95963000D03*
%TD*%
%TO.P,C9,1*%
%TO.N,Net-(C9-Pad1)*%
X179070000Y-36674000D03*
%TO.P,C9,2*%
%TO.N,GND*%
X179070000Y-39624000D03*
%TD*%
%TO.P,C7,1*%
%TO.N,Net-(J9-Pin_1)*%
X179070000Y-31545000D03*
%TO.P,C7,2*%
%TO.N,Net-(U2-VHSI)*%
X179070000Y-34495000D03*
%TD*%
%TO.P,C3,1*%
%TO.N,Net-(J10-Pin_1)*%
X196850000Y-49325000D03*
%TO.P,C3,2*%
%TO.N,Net-(U2-VSSI)*%
X196850000Y-52275000D03*
%TD*%
D13*
%TO.P,C2,1*%
%TO.N,GND*%
X179070000Y-90883000D03*
%TO.P,C2,2*%
%TO.N,Net-(C2-Pad2)*%
X179070000Y-87933000D03*
%TD*%
D12*
%TO.P,C1,1*%
%TO.N,Net-(C1-Pad1)*%
X196850000Y-54405000D03*
%TO.P,C1,2*%
%TO.N,Net-(C1-Pad2)*%
X196850000Y-57355000D03*
%TD*%
D14*
%TO.P,RV9,1,1*%
%TO.N,Net-(R38-Pad1)*%
X185460000Y-73106000D03*
D15*
%TO.P,RV9,2,2*%
%TO.N,Net-(U2-VEE)*%
X187960000Y-73106000D03*
%TO.P,RV9,3,3*%
X190460000Y-73106000D03*
D16*
%TO.P,RV9,MP*%
%TO.N,N/C*%
X183560000Y-66106000D03*
X192360000Y-66106000D03*
%TD*%
D14*
%TO.P,RV7,1,1*%
%TO.N,Net-(R4-Pad1)*%
X185460000Y-58374000D03*
D15*
%TO.P,RV7,2,2*%
X187960000Y-58374000D03*
%TO.P,RV7,3,3*%
%TO.N,+15V*%
X190460000Y-58374000D03*
D16*
%TO.P,RV7,MP*%
%TO.N,N/C*%
X183560000Y-51374000D03*
X192360000Y-51374000D03*
%TD*%
D14*
%TO.P,RV5,1,1*%
%TO.N,Net-(U2-VHFT)*%
X185460000Y-43688000D03*
D15*
%TO.P,RV5,2,2*%
%TO.N,Net-(R17-Pad2)*%
X187960000Y-43688000D03*
%TO.P,RV5,3,3*%
%TO.N,GND*%
X190460000Y-43688000D03*
D16*
%TO.P,RV5,MP*%
%TO.N,N/C*%
X183560000Y-36688000D03*
X192360000Y-36688000D03*
%TD*%
D17*
%TO.P,SineBiasTrim1,1,1*%
%TO.N,-15V*%
X181411000Y-75732000D03*
%TO.P,SineBiasTrim1,2,2*%
%TO.N,Net-(R55-Pad2)*%
X178911000Y-78232000D03*
%TO.P,SineBiasTrim1,3,3*%
%TO.N,+15V*%
X181411000Y-80732000D03*
%TD*%
D18*
%TO.P,J15,S*%
%TO.N,GND*%
X193040000Y-140716000D03*
D19*
%TO.P,J15,T*%
%TO.N,Net-(J15-PadR)*%
X193040000Y-129316000D03*
%TO.P,J15,TN*%
%TO.N,N/C*%
X193040000Y-137616000D03*
%TD*%
%TO.P,J1,TN*%
%TO.N,N/C*%
X182880000Y-122376000D03*
%TO.P,J1,T*%
%TO.N,Net-(J25-Pin_1)*%
X182880000Y-114076000D03*
D18*
%TO.P,J1,S*%
%TO.N,GND*%
X182880000Y-125476000D03*
%TD*%
%TO.P,J5,S*%
%TO.N,GND*%
X182880000Y-140716000D03*
D19*
%TO.P,J5,T*%
%TO.N,Net-(J29-Pin_1)*%
X182880000Y-129316000D03*
%TO.P,J5,TN*%
%TO.N,N/C*%
X182880000Y-137616000D03*
%TD*%
D20*
%TO.P,D1,1,K*%
%TO.N,GND*%
X179070000Y-146538000D03*
%TO.P,D1,2,A*%
%TO.N,Net-(D1-A)*%
X179070000Y-144038000D03*
%TD*%
D21*
%TO.P,U1,16*%
%TO.N,Net-(R36-Pad2)*%
X183388000Y-80772000D03*
%TO.P,U1,15,DIODE_BIAS*%
%TO.N,unconnected-(U1A-DIODE_BIAS-Pad15)*%
X184658000Y-80772000D03*
%TO.P,U1,14,+*%
%TO.N,Net-(U1A-+)*%
X185928000Y-80772000D03*
%TO.P,U1,13,-*%
%TO.N,GND*%
X187198000Y-80772000D03*
%TO.P,U1,12*%
%TO.N,Net-(R1-Pad2)*%
X188468000Y-80772000D03*
%TO.P,U1,11,V+*%
%TO.N,+15V*%
X189738000Y-80772000D03*
%TO.P,U1,10*%
%TO.N,Net-(R1-Pad2)*%
X191008000Y-80772000D03*
%TO.P,U1,9*%
%TO.N,Net-(R3-Pad1)*%
X192278000Y-80772000D03*
%TO.P,U1,8*%
%TO.N,GND*%
X192278000Y-75822000D03*
%TO.P,U1,7*%
X191008000Y-75822000D03*
%TO.P,U1,6,V-*%
%TO.N,-15V*%
X189738000Y-75822000D03*
%TO.P,U1,5*%
%TO.N,unconnected-(U1-Pad5)*%
X188468000Y-75822000D03*
%TO.P,U1,4,-*%
%TO.N,GND*%
X187198000Y-75822000D03*
%TO.P,U1,3,+*%
X185928000Y-75822000D03*
%TO.P,U1,2,DIODE_BIAS*%
X184658000Y-75822000D03*
%TO.P,U1,1*%
%TO.N,unconnected-(U1-Pad1)*%
X183388000Y-75822000D03*
%TD*%
D18*
%TO.P,J2,S*%
%TO.N,GND*%
X182880000Y-94996000D03*
D19*
%TO.P,J2,T*%
%TO.N,Net-(J2-PadR)*%
X182880000Y-83596000D03*
%TO.P,J2,TN*%
%TO.N,N/C*%
X182880000Y-91896000D03*
%TD*%
D17*
%TO.P,SineLevelTrim1,1,1*%
%TO.N,Net-(R36-Pad1)*%
X196905000Y-75986000D03*
%TO.P,SineLevelTrim1,2,2*%
X194405000Y-78486000D03*
%TO.P,SineLevelTrim1,3,3*%
%TO.N,+15V*%
X196905000Y-80986000D03*
%TD*%
D18*
%TO.P,J12,S*%
%TO.N,GND*%
X193040000Y-94996000D03*
D19*
%TO.P,J12,T*%
%TO.N,Net-(J12-PadR)*%
X193040000Y-83596000D03*
%TO.P,J12,TN*%
%TO.N,N/C*%
X193040000Y-91896000D03*
%TD*%
D17*
%TO.P,SineShapeTrim1,1,1*%
%TO.N,Net-(R64-Pad2)*%
X181665000Y-56428000D03*
%TO.P,SineShapeTrim1,2,2*%
%TO.N,Net-(R54-Pad2)*%
X179165000Y-58928000D03*
%TO.P,SineShapeTrim1,3,3*%
X181665000Y-61428000D03*
%TD*%
D18*
%TO.P,J13,S*%
%TO.N,GND*%
X193040000Y-110236000D03*
D19*
%TO.P,J13,T*%
%TO.N,Net-(J13-PadR)*%
X193040000Y-98836000D03*
%TO.P,J13,TN*%
%TO.N,N/C*%
X193040000Y-107136000D03*
%TD*%
D18*
%TO.P,J4,S*%
%TO.N,GND*%
X182880000Y-110236000D03*
D19*
%TO.P,J4,T*%
%TO.N,Net-(C1-Pad2)*%
X182880000Y-98836000D03*
%TO.P,J4,TN*%
%TO.N,N/C*%
X182880000Y-107136000D03*
%TD*%
D18*
%TO.P,J14,S*%
%TO.N,GND*%
X193040000Y-125476000D03*
D19*
%TO.P,J14,T*%
%TO.N,Net-(J14-PadR)*%
X193040000Y-114076000D03*
%TO.P,J14,TN*%
%TO.N,N/C*%
X193040000Y-122376000D03*
%TD*%
D22*
%TO.P,U4,1*%
%TO.N,Net-(U4A--)*%
X189230000Y-128270000D03*
D23*
%TO.P,U4,2,-*%
X189230000Y-125730000D03*
%TO.P,U4,3,+*%
%TO.N,Net-(U4A-+)*%
X189230000Y-123190000D03*
%TO.P,U4,4,V+*%
%TO.N,+15V*%
X189230000Y-120650000D03*
%TO.P,U4,5,+*%
%TO.N,Net-(J23-Pin_1)*%
X189230000Y-118110000D03*
%TO.P,U4,6,-*%
%TO.N,Net-(U4B--)*%
X189230000Y-115570000D03*
%TO.P,U4,7*%
%TO.N,Net-(R64-Pad2)*%
X189230000Y-113030000D03*
%TO.P,U4,8*%
%TO.N,Net-(U4C--)*%
X196850000Y-113030000D03*
%TO.P,U4,9,-*%
X196850000Y-115570000D03*
%TO.P,U4,10,+*%
%TO.N,Net-(D1-A)*%
X196850000Y-118110000D03*
%TO.P,U4,11,V-*%
%TO.N,-15V*%
X196850000Y-120650000D03*
%TO.P,U4,12,+*%
%TO.N,Net-(J23-Pin_5)*%
X196850000Y-123190000D03*
%TO.P,U4,13,-*%
%TO.N,Net-(U4D--)*%
X196850000Y-125730000D03*
%TO.P,U4,14*%
X196850000Y-128270000D03*
%TD*%
D24*
%TO.P,J11,1,Pin_1*%
%TO.N,-15V*%
X193035000Y-146563000D03*
D25*
%TO.P,J11,2,Pin_2*%
X193035000Y-144023000D03*
%TO.P,J11,3,Pin_3*%
%TO.N,GND*%
X190495000Y-146563000D03*
%TO.P,J11,4,Pin_4*%
X190495000Y-144023000D03*
%TO.P,J11,5,Pin_5*%
X187955000Y-146563000D03*
%TO.P,J11,6,Pin_6*%
X187955000Y-144023000D03*
%TO.P,J11,7,Pin_7*%
X185415000Y-146563000D03*
%TO.P,J11,8,Pin_8*%
X185415000Y-144023000D03*
%TO.P,J11,9,Pin_9*%
%TO.N,+15V*%
X182875000Y-146563000D03*
%TO.P,J11,10,Pin_10*%
X182875000Y-144023000D03*
%TD*%
D22*
%TO.P,U2,1,SCALE1*%
%TO.N,Net-(U2-SCALE1)*%
X179324000Y-130810000D03*
D23*
%TO.P,U2,2,SCALE2*%
%TO.N,Net-(U2-SCALE2)*%
X179324000Y-128270000D03*
%TO.P,U2,3,VEE*%
%TO.N,Net-(U2-VEE)*%
X179324000Y-125730000D03*
%TO.P,U2,4,VP*%
%TO.N,Net-(J22-Pin_4)*%
X179324000Y-123190000D03*
%TO.P,U2,5,VPWM*%
%TO.N,Net-(U2-VPWM)*%
X179324000Y-120650000D03*
%TO.P,U2,6,VHSI*%
%TO.N,Net-(U2-VHSI)*%
X179324000Y-118110000D03*
%TO.P,U2,7,VHFT*%
%TO.N,Net-(U2-VHFT)*%
X179324000Y-115570000D03*
%TO.P,U2,8,VSO*%
%TO.N,Net-(J22-Pin_5)*%
X179324000Y-113030000D03*
%TO.P,U2,9,VSSI*%
%TO.N,Net-(U2-VSSI)*%
X186944000Y-113030000D03*
%TO.P,U2,10,VTO*%
%TO.N,Net-(J22-Pin_1)*%
X186944000Y-115570000D03*
%TO.P,U2,11,CAP*%
%TO.N,Net-(U2-CAP)*%
X186944000Y-118110000D03*
%TO.P,U2,12,GND*%
%TO.N,GND*%
X186944000Y-120650000D03*
%TO.P,U2,13,VLFI*%
%TO.N,Net-(U2-VLFI)*%
X186944000Y-123190000D03*
%TO.P,U2,14,VS*%
%TO.N,Net-(U2-VS)*%
X186944000Y-125730000D03*
%TO.P,U2,15,VFCI*%
%TO.N,Net-(U2-VFCI)*%
X186944000Y-128270000D03*
%TO.P,U2,16,VCC*%
%TO.N,+15V*%
X186944000Y-130810000D03*
%TD*%
D26*
%TO.N,Net-(U4A--)*%
X197387700Y-60715000D03*
%TO.N,Net-(U4D--)*%
X193765800Y-74497400D03*
%TO.N,Net-(U4C--)*%
X195209700Y-82011000D03*
X189814900Y-47725600D03*
%TO.N,Net-(R64-Pad2)*%
X191967400Y-70186100D03*
%TO.N,Net-(U4B--)*%
X180765900Y-102030800D03*
X179177000Y-64728400D03*
%TO.N,Net-(R55-Pad2)*%
X183034900Y-57057800D03*
%TO.N,Net-(U1A-+)*%
X183457200Y-63392400D03*
X188435600Y-54575800D03*
%TO.N,Net-(U2-VS)*%
X187441500Y-82965300D03*
%TO.N,Net-(U2-VPWM)*%
X187413200Y-93023900D03*
X180511100Y-72415300D03*
%TO.N,Net-(U2-SCALE2)*%
X184688500Y-53977500D03*
%TO.N,Net-(U2-VEE)*%
X192135000Y-60073000D03*
%TO.N,Net-(U2-SCALE1)*%
X194783900Y-90210100D03*
%TO.N,Net-(R38-Pad1)*%
X189522000Y-84555500D03*
%TO.N,Net-(R36-Pad2)*%
X182673000Y-79428300D03*
X185946900Y-50130000D03*
%TO.N,Net-(R36-Pad1)*%
X191131300Y-45824200D03*
%TO.N,Net-(R17-Pad2)*%
X196710400Y-33296800D03*
%TO.N,Net-(U2-VFCI)*%
X187621000Y-84021900D03*
X190686200Y-61060900D03*
X194137100Y-39924100D03*
%TO.N,Net-(U2-VLFI)*%
X190084300Y-101072000D03*
X193969400Y-54624900D03*
X190531700Y-33417400D03*
X187694500Y-32677600D03*
%TO.N,Net-(R4-Pad1)*%
X181625400Y-71103400D03*
%TO.N,Net-(U4A-+)*%
X195410000Y-42562600D03*
%TO.N,Net-(R3-Pad1)*%
X192278000Y-79183900D03*
X191405300Y-47759300D03*
%TO.N,Net-(R1-Pad2)*%
X188468000Y-78991900D03*
X186779100Y-40390700D03*
%TO.N,Net-(J15-PadR)*%
X187413200Y-89731300D03*
X180556300Y-54593600D03*
%TO.N,Net-(J14-PadR)*%
X195328300Y-71882000D03*
%TO.N,Net-(J13-PadR)*%
X195098500Y-62959900D03*
%TO.N,+15V*%
X191723400Y-41019600D03*
%TO.N,-15V*%
X188524900Y-99100900D03*
X179465000Y-48006000D03*
%TO.N,Net-(J29-Pin_1)*%
X179511800Y-70308300D03*
%TO.N,Net-(J2-PadR)*%
X187833500Y-86114100D03*
%TO.N,Net-(C9-Pad1)*%
X180176600Y-37780600D03*
X187482000Y-66494800D03*
%TO.N,Net-(U2-VHSI)*%
X178973000Y-103451600D03*
X180178900Y-35603900D03*
%TO.N,Net-(U2-VSSI)*%
X190105700Y-77891700D03*
X194666800Y-61363600D03*
%TO.N,Net-(C2-Pad2)*%
X192675000Y-45308200D03*
X183137600Y-86661800D03*
%TO.N,GND*%
X187532900Y-61864400D03*
X188000800Y-65044100D03*
X191945800Y-77539200D03*
%TO.N,Net-(C1-Pad2)*%
X188559400Y-69554500D03*
X195460000Y-58331300D03*
%TO.N,Net-(C1-Pad1)*%
X197440200Y-55603500D03*
X194248500Y-33251400D03*
%TD*%
D27*
%TO.N,Net-(U4A--)*%
X196850000Y-60177300D02*
X196850000Y-59305000D01*
X197387700Y-60715000D02*
X196850000Y-60177300D01*
%TO.N,Net-(U4D--)*%
X193765800Y-72041200D02*
X193765800Y-74497400D01*
X196850000Y-68957000D02*
X193765800Y-72041200D01*
%TO.N,Net-(U4C--)*%
X182713900Y-47725600D02*
X179070000Y-51369500D01*
X189814900Y-47725600D02*
X182713900Y-47725600D01*
%TO.N,Net-(R64-Pad2)*%
X196850000Y-65303500D02*
X191967400Y-70186100D01*
X196850000Y-64131000D02*
X196850000Y-65303500D01*
X181665000Y-57135400D02*
X184406900Y-59877300D01*
X181665000Y-56428000D02*
X181665000Y-57135400D01*
X180101500Y-65455000D02*
X179070000Y-66486500D01*
X180101500Y-64645800D02*
X180101500Y-65455000D01*
X184406900Y-60340400D02*
X180101500Y-64645800D01*
X184406900Y-59877300D02*
X184406900Y-60340400D01*
X195167300Y-64131000D02*
X196850000Y-64131000D01*
X190913600Y-59877300D02*
X195167300Y-64131000D01*
X184406900Y-59877300D02*
X190913600Y-59877300D01*
%TO.N,Net-(U4B--)*%
X180070300Y-102030800D02*
X179070000Y-101030500D01*
X180765900Y-102030800D02*
X180070300Y-102030800D01*
X179070000Y-64621400D02*
X179070000Y-63561500D01*
X179177000Y-64728400D02*
X179070000Y-64621400D01*
%TO.N,Net-(R55-Pad2)*%
X184020200Y-56072500D02*
X186944000Y-56072500D01*
X183034900Y-57057800D02*
X184020200Y-56072500D01*
%TO.N,Net-(R54-Pad2)*%
X180415000Y-58928000D02*
X179165000Y-58928000D01*
X180415000Y-60178000D02*
X180415000Y-58928000D01*
X181665000Y-61428000D02*
X180415000Y-60178000D01*
X189160600Y-56326500D02*
X189484000Y-56326500D01*
X188014700Y-55180600D02*
X189160600Y-56326500D01*
X181295900Y-55180600D02*
X188014700Y-55180600D01*
X180415000Y-56061500D02*
X181295900Y-55180600D01*
X180415000Y-58928000D02*
X180415000Y-56061500D01*
%TO.N,Net-(U1A-+)*%
X188435600Y-54575800D02*
X188435600Y-53401500D01*
X189484000Y-53401500D02*
X188435600Y-53401500D01*
X187198000Y-53401500D02*
X186944000Y-53147500D01*
X188435600Y-53401500D02*
X187198000Y-53401500D01*
X186436000Y-63692500D02*
X185913400Y-64215100D01*
X185913400Y-67411600D02*
X185913400Y-64215100D01*
X184423800Y-68901200D02*
X185913400Y-67411600D01*
X184423800Y-71042200D02*
X184423800Y-68901200D01*
X180234900Y-75231100D02*
X184423800Y-71042200D01*
X180234900Y-76173500D02*
X180234900Y-75231100D01*
X181601300Y-77539900D02*
X180234900Y-76173500D01*
X183076800Y-77539900D02*
X181601300Y-77539900D01*
X185928000Y-80391100D02*
X183076800Y-77539900D01*
X185928000Y-80772000D02*
X185928000Y-80391100D01*
X185090700Y-63392400D02*
X183457200Y-63392400D01*
X185913400Y-64215100D02*
X185090700Y-63392400D01*
%TO.N,Net-(U2-VS)*%
X186336200Y-82965300D02*
X185928000Y-83373500D01*
X187441500Y-82965300D02*
X186336200Y-82965300D01*
%TO.N,Net-(U2-VPWM)*%
X179662300Y-71566500D02*
X180511100Y-72415300D01*
X179070000Y-71566500D02*
X179662300Y-71566500D01*
X189845100Y-93023900D02*
X187413200Y-93023900D01*
X190700800Y-92168200D02*
X189845100Y-93023900D01*
X190700800Y-89924300D02*
X190700800Y-92168200D01*
X189484000Y-88707500D02*
X190700800Y-89924300D01*
%TO.N,Net-(U2-SCALE2)*%
X185733600Y-52932400D02*
X184688500Y-53977500D01*
X185733600Y-52539900D02*
X185733600Y-52932400D01*
X187108500Y-51165000D02*
X185733600Y-52539900D01*
X189025400Y-51165000D02*
X187108500Y-51165000D01*
X193200400Y-46990000D02*
X189025400Y-51165000D01*
X194117500Y-46990000D02*
X193200400Y-46990000D01*
%TO.N,Net-(U2-VEE)*%
X190460000Y-69617500D02*
X189230000Y-68387500D01*
X190460000Y-73106000D02*
X190460000Y-69617500D01*
X192135000Y-57496500D02*
X192135000Y-60073000D01*
X194726100Y-54905400D02*
X192135000Y-57496500D01*
X194726100Y-49306400D02*
X194726100Y-54905400D01*
X197042500Y-46990000D02*
X194726100Y-49306400D01*
%TO.N,Net-(U2-SCALE1)*%
X195935600Y-90210100D02*
X196850000Y-91124500D01*
X194783900Y-90210100D02*
X195935600Y-90210100D01*
%TO.N,Net-(R38-Pad1)*%
X189897600Y-84555500D02*
X189522000Y-84555500D01*
X193541600Y-88199500D02*
X189897600Y-84555500D01*
X196850000Y-88199500D02*
X193541600Y-88199500D01*
%TO.N,Net-(R36-Pad2)*%
X185946900Y-49449600D02*
X185946900Y-50130000D01*
X186436000Y-48960500D02*
X185946900Y-49449600D01*
X182673000Y-80057000D02*
X182673000Y-79428300D01*
X183388000Y-80772000D02*
X182673000Y-80057000D01*
%TO.N,Net-(R36-Pad1)*%
X194405000Y-78486000D02*
X196905000Y-75986000D01*
X191131300Y-45936800D02*
X191131300Y-45824200D01*
X190138900Y-46929200D02*
X191131300Y-45936800D01*
X187329700Y-46929200D02*
X190138900Y-46929200D01*
X186436000Y-46035500D02*
X187329700Y-46929200D01*
%TO.N,Net-(R17-Pad2)*%
X196596000Y-33411200D02*
X196596000Y-34482500D01*
X196710400Y-33296800D02*
X196596000Y-33411200D01*
%TO.N,Net-(U2-VFCI)*%
X188976000Y-62771100D02*
X188976000Y-63692500D01*
X190686200Y-61060900D02*
X188976000Y-62771100D01*
X195394600Y-32758900D02*
X196596000Y-31557500D01*
X195394600Y-39176700D02*
X195394600Y-32758900D01*
X196210200Y-39176700D02*
X195394600Y-39176700D01*
X196596000Y-39562500D02*
X196210200Y-39176700D01*
X194884500Y-39176700D02*
X194137100Y-39924100D01*
X195394600Y-39176700D02*
X194884500Y-39176700D01*
X186690000Y-70398200D02*
X186690000Y-71312500D01*
X187908700Y-69179500D02*
X186690000Y-70398200D01*
X187908700Y-67119100D02*
X187908700Y-69179500D01*
X188232500Y-66795300D02*
X187908700Y-67119100D01*
X188232500Y-66194300D02*
X188232500Y-66795300D01*
X187807700Y-65769500D02*
X188232500Y-66194300D01*
X187689500Y-65769500D02*
X187807700Y-65769500D01*
X187267700Y-65347700D02*
X187689500Y-65769500D01*
X187267700Y-64751500D02*
X187267700Y-65347700D01*
X188326700Y-63692500D02*
X187267700Y-64751500D01*
X188976000Y-63692500D02*
X188326700Y-63692500D01*
X185428400Y-92324600D02*
X186182000Y-91571000D01*
X185428400Y-95110300D02*
X185428400Y-92324600D01*
X186330100Y-96012000D02*
X185428400Y-95110300D01*
X186986900Y-96012000D02*
X186330100Y-96012000D01*
X187911200Y-96936300D02*
X186986900Y-96012000D01*
X187911200Y-98630700D02*
X187911200Y-96936300D01*
X187775700Y-98766200D02*
X187911200Y-98630700D01*
X187775700Y-100592700D02*
X187775700Y-98766200D01*
X188069400Y-100886400D02*
X187775700Y-100592700D01*
X188069400Y-126300600D02*
X188069400Y-100886400D01*
X187225300Y-127144700D02*
X188069400Y-126300600D01*
X186944000Y-127144700D02*
X187225300Y-127144700D01*
X186944000Y-128270000D02*
X186944000Y-127144700D01*
X188269400Y-83373500D02*
X187621000Y-84021900D01*
X189776000Y-83373500D02*
X188269400Y-83373500D01*
X184713500Y-90102500D02*
X186182000Y-91571000D01*
X184713500Y-85743400D02*
X184713500Y-90102500D01*
X185934100Y-84522800D02*
X184713500Y-85743400D01*
X187120100Y-84522800D02*
X185934100Y-84522800D01*
X187621000Y-84021900D02*
X187120100Y-84522800D01*
%TO.N,Net-(U2-VLFI)*%
X190531700Y-38417700D02*
X190531700Y-33417400D01*
X192822600Y-40708600D02*
X190531700Y-38417700D01*
X197386900Y-40708600D02*
X192822600Y-40708600D01*
X197680600Y-41002300D02*
X197386900Y-40708600D01*
X197680600Y-43557900D02*
X197680600Y-41002300D01*
X196788500Y-44450000D02*
X197680600Y-43557900D01*
X190531700Y-32541800D02*
X191323500Y-31750000D01*
X190531700Y-33417400D02*
X190531700Y-32541800D01*
X187425100Y-32677600D02*
X186497500Y-31750000D01*
X187694500Y-32677600D02*
X187425100Y-32677600D01*
X194275700Y-54318600D02*
X193969400Y-54624900D01*
X194275700Y-48584300D02*
X194275700Y-54318600D01*
X195024500Y-47835500D02*
X194275700Y-48584300D01*
X195024500Y-46214000D02*
X195024500Y-47835500D01*
X196788500Y-44450000D02*
X195024500Y-46214000D01*
%TO.N,Net-(R26-Pad1)*%
X188976000Y-61480600D02*
X188976000Y-60767500D01*
X187789500Y-62667100D02*
X188976000Y-61480600D01*
X183156800Y-62667100D02*
X187789500Y-62667100D01*
X181710200Y-64113700D02*
X183156800Y-62667100D01*
X181710200Y-67822500D02*
X181710200Y-64113700D01*
X182350700Y-68463000D02*
X181710200Y-67822500D01*
X182350700Y-72478300D02*
X182350700Y-68463000D01*
X179784500Y-75044500D02*
X182350700Y-72478300D01*
X179784500Y-76360000D02*
X179784500Y-75044500D01*
X181768700Y-78344200D02*
X179784500Y-76360000D01*
X182632800Y-78344200D02*
X181768700Y-78344200D01*
X184029100Y-79740500D02*
X182632800Y-78344200D01*
X184029100Y-81858100D02*
X184029100Y-79740500D01*
X184554600Y-82383600D02*
X184029100Y-81858100D01*
X184554600Y-84656300D02*
X184554600Y-82383600D01*
X183972500Y-85238400D02*
X184554600Y-84656300D01*
X179876100Y-85238400D02*
X183972500Y-85238400D01*
X179070000Y-86044500D02*
X179876100Y-85238400D01*
%TO.N,Net-(R4-Pad1)*%
X180086100Y-82103400D02*
X179070000Y-83119500D01*
X180086100Y-77324500D02*
X180086100Y-82103400D01*
X179296000Y-76534400D02*
X180086100Y-77324500D01*
X179296000Y-74709500D02*
X179296000Y-76534400D01*
X181625400Y-72380100D02*
X179296000Y-74709500D01*
X181625400Y-71103400D02*
X181625400Y-72380100D01*
%TO.N,Net-(U4A-+)*%
X194516100Y-42562600D02*
X193863500Y-41910000D01*
X195410000Y-42562600D02*
X194516100Y-42562600D01*
%TO.N,Net-(R3-Pad1)*%
X190204100Y-48960500D02*
X191405300Y-47759300D01*
X189230000Y-48960500D02*
X190204100Y-48960500D01*
X196788500Y-42209900D02*
X196788500Y-41910000D01*
X195710500Y-43287900D02*
X196788500Y-42209900D01*
X195109600Y-43287900D02*
X195710500Y-43287900D01*
X195070400Y-43248700D02*
X195109600Y-43287900D01*
X193243500Y-43248700D02*
X195070400Y-43248700D01*
X191873000Y-44619200D02*
X193243500Y-43248700D01*
X191873000Y-47291600D02*
X191873000Y-44619200D01*
X191405300Y-47759300D02*
X191873000Y-47291600D01*
X192278000Y-80772000D02*
X192278000Y-79183900D01*
%TO.N,Net-(R1-Pad2)*%
X189230000Y-41594500D02*
X186690000Y-41594500D01*
X186690000Y-40479800D02*
X186690000Y-41594500D01*
X186779100Y-40390700D02*
X186690000Y-40479800D01*
X188468000Y-80772000D02*
X188468000Y-78991900D01*
X188468000Y-81184000D02*
X188468000Y-80772000D01*
X189362900Y-82078900D02*
X188468000Y-81184000D01*
X190132800Y-82078900D02*
X189362900Y-82078900D01*
X191008000Y-81203700D02*
X190132800Y-82078900D01*
X191008000Y-80772000D02*
X191008000Y-81203700D01*
%TO.N,Net-(J15-PadR)*%
X179369100Y-54593600D02*
X180556300Y-54593600D01*
X179070000Y-54294500D02*
X179369100Y-54593600D01*
%TO.N,Net-(J14-PadR)*%
X196850000Y-71882000D02*
X195328300Y-71882000D01*
%TO.N,Net-(J13-PadR)*%
X196120100Y-62959900D02*
X196850000Y-62230000D01*
X195098500Y-62959900D02*
X196120100Y-62959900D01*
%TO.N,Net-(J12-PadR)*%
X193040000Y-70866000D02*
X196850000Y-67056000D01*
X193040000Y-83596000D02*
X193040000Y-70866000D01*
%TO.N,+15V*%
X183690500Y-33961500D02*
X188397300Y-33961500D01*
X181479000Y-31750000D02*
X183690500Y-33961500D01*
X188397300Y-37836800D02*
X188397300Y-33961500D01*
X189230000Y-38669500D02*
X188397300Y-37836800D01*
X189422500Y-32936300D02*
X189422500Y-31750000D01*
X188397300Y-33961500D02*
X189422500Y-32936300D01*
X189373300Y-38669500D02*
X191723400Y-41019600D01*
X189230000Y-38669500D02*
X189373300Y-38669500D01*
X194117100Y-85228500D02*
X195075600Y-84270000D01*
X191926600Y-85228500D02*
X194117100Y-85228500D01*
X191399800Y-84701700D02*
X191926600Y-85228500D01*
X191399800Y-82209900D02*
X191399800Y-84701700D01*
X191652000Y-81957700D02*
X191399800Y-82209900D01*
X191652000Y-79690600D02*
X191652000Y-81957700D01*
X191393800Y-79432400D02*
X191652000Y-79690600D01*
X190645900Y-79432400D02*
X191393800Y-79432400D01*
X189738000Y-80340300D02*
X190645900Y-79432400D01*
X189738000Y-80772000D02*
X189738000Y-80340300D01*
X194813900Y-84008400D02*
X195075600Y-84270000D01*
X194813900Y-82641100D02*
X194813900Y-84008400D01*
X194457300Y-82284500D02*
X194813900Y-82641100D01*
X194457300Y-81723300D02*
X194457300Y-82284500D01*
X195194600Y-80986000D02*
X194457300Y-81723300D01*
X196905000Y-80986000D02*
X195194600Y-80986000D01*
X195075600Y-84270000D02*
X196850000Y-86044500D01*
%TO.N,-15V*%
X189738000Y-75342600D02*
X188726700Y-74331300D01*
X189738000Y-75822000D02*
X189738000Y-75342600D01*
X189230000Y-73828000D02*
X188726700Y-74331300D01*
X189230000Y-71312500D02*
X189230000Y-73828000D01*
X182811700Y-74331300D02*
X181411000Y-75732000D01*
X188726700Y-74331300D02*
X182811700Y-74331300D01*
X180336100Y-42729600D02*
X180336100Y-45130000D01*
X179070000Y-41463500D02*
X180336100Y-42729600D01*
X180336100Y-45277400D02*
X179070000Y-46543500D01*
X180336100Y-45130000D02*
X180336100Y-45277400D01*
X188324500Y-45130000D02*
X189230000Y-46035500D01*
X180336100Y-45130000D02*
X188324500Y-45130000D01*
X196850000Y-120650000D02*
X196850000Y-119524700D01*
X193035000Y-144023000D02*
X193035000Y-142847700D01*
X189139000Y-99100900D02*
X188524900Y-99100900D01*
X194963200Y-104925100D02*
X189139000Y-99100900D01*
X194963200Y-118211500D02*
X194963200Y-104925100D01*
X194501600Y-118211500D02*
X194963200Y-118211500D01*
X191124100Y-121589000D02*
X194501600Y-118211500D01*
X191124100Y-141304100D02*
X191124100Y-121589000D01*
X192667700Y-142847700D02*
X191124100Y-141304100D01*
X193035000Y-142847700D02*
X192667700Y-142847700D01*
X196276400Y-119524700D02*
X196850000Y-119524700D01*
X194963200Y-118211500D02*
X196276400Y-119524700D01*
X179070000Y-47611000D02*
X179070000Y-46543500D01*
X179465000Y-48006000D02*
X179070000Y-47611000D01*
%TO.N,Net-(J29-Pin_1)*%
X179070000Y-69866500D02*
X179070000Y-68641500D01*
X179511800Y-70308300D02*
X179070000Y-69866500D01*
%TO.N,Net-(J2-PadR)*%
X188017900Y-86298500D02*
X187833500Y-86114100D01*
X189776000Y-86298500D02*
X188017900Y-86298500D01*
%TO.N,Net-(D1-A)*%
X196850000Y-118110000D02*
X196850000Y-116984700D01*
X188980900Y-96840400D02*
X186690000Y-94549500D01*
X195706100Y-96840400D02*
X188980900Y-96840400D01*
X195706100Y-116100200D02*
X195706100Y-96840400D01*
X196590600Y-116984700D02*
X195706100Y-116100200D01*
X196850000Y-116984700D02*
X196590600Y-116984700D01*
X195706100Y-96840400D02*
X196850000Y-95696500D01*
%TO.N,Net-(U2-CAP)*%
X181058300Y-97951300D02*
X179070000Y-95963000D01*
X181058300Y-99775500D02*
X181058300Y-97951300D01*
X185818700Y-104535900D02*
X181058300Y-99775500D01*
X185818700Y-116140800D02*
X185818700Y-104535900D01*
X186662600Y-116984700D02*
X185818700Y-116140800D01*
X186944000Y-116984700D02*
X186662600Y-116984700D01*
X186944000Y-118110000D02*
X186944000Y-116984700D01*
%TO.N,Net-(C9-Pad1)*%
X186690000Y-67286800D02*
X186690000Y-68387500D01*
X187482000Y-66494800D02*
X186690000Y-67286800D01*
X179070000Y-36674000D02*
X180176600Y-37780600D01*
%TO.N,Net-(U2-VHSI)*%
X180178900Y-35603900D02*
X179070000Y-34495000D01*
%TO.N,Net-(U2-VSSI)*%
X195176400Y-53948600D02*
X196850000Y-52275000D01*
X195176400Y-55109600D02*
X195176400Y-53948600D01*
X194666800Y-55619200D02*
X195176400Y-55109600D01*
X194666800Y-61363600D02*
X194666800Y-55619200D01*
%TO.N,Net-(C2-Pad2)*%
X193005300Y-45308200D02*
X192675000Y-45308200D01*
X193863500Y-44450000D02*
X193005300Y-45308200D01*
X181866400Y-87933000D02*
X183137600Y-86661800D01*
X179070000Y-87933000D02*
X181866400Y-87933000D01*
%TO.N,GND*%
X185928000Y-75822000D02*
X187198000Y-75822000D01*
X181004700Y-94947700D02*
X179070000Y-93013000D01*
X181004700Y-94996000D02*
X181004700Y-94947700D01*
X179070000Y-90883000D02*
X179070000Y-93013000D01*
X182880000Y-94996000D02*
X182178700Y-94996000D01*
X182178700Y-94996000D02*
X181004700Y-94996000D01*
X184657200Y-97474500D02*
X186690000Y-97474500D01*
X182178700Y-94996000D02*
X184657200Y-97474500D01*
X186436000Y-60767500D02*
X187532900Y-61864400D01*
X191008000Y-75822000D02*
X191705200Y-75822000D01*
X184658000Y-75822000D02*
X185928000Y-75822000D01*
X187198000Y-78058100D02*
X187198000Y-80772000D01*
X188127000Y-77129100D02*
X187198000Y-78058100D01*
X190117200Y-77129100D02*
X188127000Y-77129100D01*
X191008000Y-76238300D02*
X190117200Y-77129100D01*
X191008000Y-75822000D02*
X191008000Y-76238300D01*
X187198000Y-76200100D02*
X187198000Y-75822000D01*
X188127000Y-77129100D02*
X187198000Y-76200100D01*
X190368500Y-87808200D02*
X188245700Y-87808200D01*
X191151200Y-88590900D02*
X190368500Y-87808200D01*
X191151200Y-93107200D02*
X191151200Y-88590900D01*
X193040000Y-94996000D02*
X191151200Y-93107200D01*
X187437700Y-87808200D02*
X188245700Y-87808200D01*
X185928000Y-86298500D02*
X187437700Y-87808200D01*
X188245700Y-90394200D02*
X189484000Y-91632500D01*
X188245700Y-87808200D02*
X188245700Y-90394200D01*
X188000800Y-65325700D02*
X188000800Y-65044100D01*
X191213600Y-68538500D02*
X188000800Y-65325700D01*
X191213600Y-71088900D02*
X191213600Y-68538500D01*
X191705200Y-71580500D02*
X191213600Y-71088900D01*
X191705200Y-75822000D02*
X191705200Y-71580500D01*
X179070000Y-98742400D02*
X179070000Y-98105500D01*
X181537800Y-101210200D02*
X179070000Y-98742400D01*
X181537800Y-102709300D02*
X181537800Y-101210200D01*
X181240100Y-103007000D02*
X181537800Y-102709300D01*
X181240100Y-108596100D02*
X181240100Y-103007000D01*
X182880000Y-110236000D02*
X181240100Y-108596100D01*
X191945800Y-75822000D02*
X191945800Y-77539200D01*
X191705200Y-75822000D02*
X191945800Y-75822000D01*
X191945800Y-75822000D02*
X192278000Y-75822000D01*
X187723500Y-39703000D02*
X186690000Y-38669500D01*
X189094400Y-39703000D02*
X187723500Y-39703000D01*
X190460000Y-41068600D02*
X189094400Y-39703000D01*
X190460000Y-43688000D02*
X190460000Y-41068600D01*
X185735500Y-39624000D02*
X186690000Y-38669500D01*
X179070000Y-39624000D02*
X185735500Y-39624000D01*
%TO.N,Net-(C1-Pad2)*%
X196436300Y-57355000D02*
X196850000Y-57355000D01*
X195460000Y-58331300D02*
X196436300Y-57355000D01*
%TO.N,Net-(C1-Pad1)*%
X194248500Y-33251400D02*
X194248500Y-31750000D01*
X197440200Y-54995200D02*
X197440200Y-55603500D01*
X196850000Y-54405000D02*
X197440200Y-54995200D01*
%TD*%
M02*
