%TF.GenerationSoftware,KiCad,Pcbnew,7.0.1*%
%TF.CreationDate,2023-06-11T21:55:06-04:00*%
%TF.ProjectId,as3340_no_mux,61733333-3430-45f6-9e6f-5f6d75782e6b,rev?*%
%TF.SameCoordinates,Original*%
%TF.FileFunction,Copper,L2,Inr*%
%TF.FilePolarity,Positive*%
%FSLAX46Y46*%
G04 Gerber Fmt 4.6, Leading zero omitted, Abs format (unit mm)*
G04 Created by KiCad (PCBNEW 7.0.1) date 2023-06-11 21:55:06*
%MOMM*%
%LPD*%
G01*
G04 APERTURE LIST*
G04 Aperture macros list*
%AMRoundRect*
0 Rectangle with rounded corners*
0 $1 Rounding radius*
0 $2 $3 $4 $5 $6 $7 $8 $9 X,Y pos of 4 corners*
0 Add a 4 corners polygon primitive as box body*
4,1,4,$2,$3,$4,$5,$6,$7,$8,$9,$2,$3,0*
0 Add four circle primitives for the rounded corners*
1,1,$1+$1,$2,$3*
1,1,$1+$1,$4,$5*
1,1,$1+$1,$6,$7*
1,1,$1+$1,$8,$9*
0 Add four rect primitives between the rounded corners*
20,1,$1+$1,$2,$3,$4,$5,0*
20,1,$1+$1,$4,$5,$6,$7,0*
20,1,$1+$1,$6,$7,$8,$9,0*
20,1,$1+$1,$8,$9,$2,$3,0*%
G04 Aperture macros list end*
%TA.AperFunction,ComponentPad*%
%ADD10R,1.800000X1.800000*%
%TD*%
%TA.AperFunction,ComponentPad*%
%ADD11C,1.800000*%
%TD*%
%TA.AperFunction,ComponentPad*%
%ADD12RoundRect,0.750000X0.750000X-1.250000X0.750000X1.250000X-0.750000X1.250000X-0.750000X-1.250000X0*%
%TD*%
%TA.AperFunction,ComponentPad*%
%ADD13C,1.620000*%
%TD*%
%TA.AperFunction,ComponentPad*%
%ADD14O,3.100000X2.300000*%
%TD*%
%TA.AperFunction,ComponentPad*%
%ADD15RoundRect,0.650000X-0.650000X-0.650000X0.650000X-0.650000X0.650000X0.650000X-0.650000X0.650000X0*%
%TD*%
%TA.AperFunction,ComponentPad*%
%ADD16C,1.600000*%
%TD*%
%TA.AperFunction,ComponentPad*%
%ADD17R,1.600000X1.600000*%
%TD*%
%TA.AperFunction,ComponentPad*%
%ADD18O,1.600000X1.600000*%
%TD*%
%TA.AperFunction,ComponentPad*%
%ADD19R,1.700000X1.700000*%
%TD*%
%TA.AperFunction,ComponentPad*%
%ADD20O,1.700000X1.700000*%
%TD*%
%TA.AperFunction,ViaPad*%
%ADD21C,0.800000*%
%TD*%
%TA.AperFunction,Conductor*%
%ADD22C,0.250000*%
%TD*%
G04 APERTURE END LIST*
D10*
%TO.N,Net-(R38-Pad1)*%
%TO.C,RV9*%
X185460000Y-73106000D03*
D11*
%TO.N,Net-(U2-VEE)*%
X187960000Y-73106000D03*
X190460000Y-73106000D03*
D12*
%TO.N,N/C*%
X183560000Y-66106000D03*
X192360000Y-66106000D03*
%TD*%
D10*
%TO.N,Net-(R4-Pad1)*%
%TO.C,RV7*%
X185460000Y-58374000D03*
D11*
X187960000Y-58374000D03*
%TO.N,+15V*%
X190460000Y-58374000D03*
D12*
%TO.N,N/C*%
X183560000Y-51374000D03*
X192360000Y-51374000D03*
%TD*%
D10*
%TO.N,Net-(U2-VHFT)*%
%TO.C,RV5*%
X185460000Y-43688000D03*
D11*
%TO.N,Net-(R17-Pad2)*%
X187960000Y-43688000D03*
%TO.N,GND*%
X190460000Y-43688000D03*
D12*
%TO.N,N/C*%
X183560000Y-36688000D03*
X192360000Y-36688000D03*
%TD*%
D13*
%TO.N,-15V*%
%TO.C,SineBiasTrim1*%
X181411000Y-75732000D03*
%TO.N,Net-(R55-Pad2)*%
X178911000Y-78232000D03*
%TO.N,+15V*%
X181411000Y-80732000D03*
%TD*%
D14*
%TO.N,GND*%
%TO.C,J15*%
X193040000Y-140716000D03*
D15*
%TO.N,Net-(J15-PadR)*%
X193040000Y-129316000D03*
%TO.N,N/C*%
X193040000Y-137616000D03*
%TD*%
%TO.N,N/C*%
%TO.C,J1*%
X182880000Y-122376000D03*
%TO.N,Net-(J25-Pin_1)*%
X182880000Y-114076000D03*
D14*
%TO.N,GND*%
X182880000Y-125476000D03*
%TD*%
%TO.N,GND*%
%TO.C,J5*%
X182880000Y-140716000D03*
D15*
%TO.N,Net-(J29-Pin_1)*%
X182880000Y-129316000D03*
%TO.N,N/C*%
X182880000Y-137616000D03*
%TD*%
D16*
%TO.N,GND*%
%TO.C,D1*%
X179070000Y-146538000D03*
%TO.N,Net-(D1-A)*%
X179070000Y-144038000D03*
%TD*%
D14*
%TO.N,GND*%
%TO.C,J2*%
X182880000Y-94996000D03*
D15*
%TO.N,Net-(J2-PadR)*%
X182880000Y-83596000D03*
%TO.N,N/C*%
X182880000Y-91896000D03*
%TD*%
D13*
%TO.N,Net-(R36-Pad1)*%
%TO.C,SineLevelTrim1*%
X196905000Y-75986000D03*
X194405000Y-78486000D03*
%TO.N,+15V*%
X196905000Y-80986000D03*
%TD*%
D14*
%TO.N,GND*%
%TO.C,J12*%
X193040000Y-94996000D03*
D15*
%TO.N,Net-(J12-PadR)*%
X193040000Y-83596000D03*
%TO.N,N/C*%
X193040000Y-91896000D03*
%TD*%
D13*
%TO.N,Net-(R64-Pad2)*%
%TO.C,SineShapeTrim1*%
X181665000Y-56428000D03*
%TO.N,Net-(R54-Pad2)*%
X179165000Y-58928000D03*
X181665000Y-61428000D03*
%TD*%
D14*
%TO.N,GND*%
%TO.C,J13*%
X193040000Y-110236000D03*
D15*
%TO.N,Net-(J13-PadR)*%
X193040000Y-98836000D03*
%TO.N,N/C*%
X193040000Y-107136000D03*
%TD*%
D14*
%TO.N,GND*%
%TO.C,J4*%
X182880000Y-110236000D03*
D15*
%TO.N,Net-(C1-Pad2)*%
X182880000Y-98836000D03*
%TO.N,N/C*%
X182880000Y-107136000D03*
%TD*%
D14*
%TO.N,GND*%
%TO.C,J14*%
X193040000Y-125476000D03*
D15*
%TO.N,Net-(J14-PadR)*%
X193040000Y-114076000D03*
%TO.N,N/C*%
X193040000Y-122376000D03*
%TD*%
D17*
%TO.N,Net-(U4A--)*%
%TO.C,U4*%
X189230000Y-128270000D03*
D18*
X189230000Y-125730000D03*
%TO.N,Net-(U4A-+)*%
X189230000Y-123190000D03*
%TO.N,+15V*%
X189230000Y-120650000D03*
%TO.N,Net-(J23-Pin_1)*%
X189230000Y-118110000D03*
%TO.N,Net-(U4B--)*%
X189230000Y-115570000D03*
%TO.N,Net-(R64-Pad2)*%
X189230000Y-113030000D03*
%TO.N,Net-(U4C--)*%
X196850000Y-113030000D03*
X196850000Y-115570000D03*
%TO.N,Net-(D1-A)*%
X196850000Y-118110000D03*
%TO.N,-15V*%
X196850000Y-120650000D03*
%TO.N,Net-(J23-Pin_5)*%
X196850000Y-123190000D03*
%TO.N,Net-(U4D--)*%
X196850000Y-125730000D03*
X196850000Y-128270000D03*
%TD*%
D19*
%TO.N,-15V*%
%TO.C,J11*%
X193035000Y-146563000D03*
D20*
X193035000Y-144023000D03*
%TO.N,GND*%
X190495000Y-146563000D03*
X190495000Y-144023000D03*
X187955000Y-146563000D03*
X187955000Y-144023000D03*
X185415000Y-146563000D03*
X185415000Y-144023000D03*
%TO.N,+15V*%
X182875000Y-146563000D03*
X182875000Y-144023000D03*
%TD*%
D17*
%TO.N,Net-(U2-SCALE1)*%
%TO.C,U2*%
X179324000Y-130810000D03*
D18*
%TO.N,Net-(U2-SCALE2)*%
X179324000Y-128270000D03*
%TO.N,Net-(U2-VEE)*%
X179324000Y-125730000D03*
%TO.N,Net-(J22-Pin_4)*%
X179324000Y-123190000D03*
%TO.N,Net-(U2-VPWM)*%
X179324000Y-120650000D03*
%TO.N,Net-(U2-VHSI)*%
X179324000Y-118110000D03*
%TO.N,Net-(U2-VHFT)*%
X179324000Y-115570000D03*
%TO.N,Net-(J22-Pin_5)*%
X179324000Y-113030000D03*
%TO.N,Net-(U2-VSSI)*%
X186944000Y-113030000D03*
%TO.N,Net-(J22-Pin_1)*%
X186944000Y-115570000D03*
%TO.N,Net-(U2-CAP)*%
X186944000Y-118110000D03*
%TO.N,GND*%
X186944000Y-120650000D03*
%TO.N,Net-(U2-VLFI)*%
X186944000Y-123190000D03*
%TO.N,Net-(U2-VS)*%
X186944000Y-125730000D03*
%TO.N,Net-(U2-VFCI)*%
X186944000Y-128270000D03*
%TO.N,+15V*%
X186944000Y-130810000D03*
%TD*%
D21*
%TO.N,Net-(U4A--)*%
X197387700Y-60715000D03*
%TO.N,Net-(U4D--)*%
X193765800Y-74497400D03*
%TO.N,Net-(U4C--)*%
X195209700Y-82011000D03*
X189814900Y-47725600D03*
%TO.N,Net-(R64-Pad2)*%
X191967400Y-70186100D03*
%TO.N,Net-(U4B--)*%
X180765900Y-102030800D03*
X179177000Y-64728400D03*
%TO.N,Net-(R55-Pad2)*%
X183034900Y-57057800D03*
%TO.N,Net-(U1A-+)*%
X183457200Y-63392400D03*
X188435600Y-54575800D03*
%TO.N,Net-(U2-VS)*%
X187441500Y-82965300D03*
%TO.N,Net-(U2-VPWM)*%
X187413200Y-93023900D03*
X180511100Y-72415300D03*
%TO.N,Net-(U2-SCALE2)*%
X184688500Y-53977500D03*
%TO.N,Net-(U2-VEE)*%
X192135000Y-60073000D03*
%TO.N,Net-(U2-SCALE1)*%
X194783900Y-90210100D03*
%TO.N,Net-(R38-Pad1)*%
X189522000Y-84555500D03*
%TO.N,Net-(R36-Pad2)*%
X182673000Y-79428300D03*
X185946900Y-50130000D03*
%TO.N,Net-(R36-Pad1)*%
X191131300Y-45824200D03*
%TO.N,Net-(R17-Pad2)*%
X196710400Y-33296800D03*
%TO.N,Net-(U2-VFCI)*%
X187621000Y-84021900D03*
X190686200Y-61060900D03*
X194137100Y-39924100D03*
%TO.N,Net-(U2-VLFI)*%
X190084300Y-101072000D03*
X193969400Y-54624900D03*
X190531700Y-33417400D03*
X187694500Y-32677600D03*
%TO.N,Net-(R4-Pad1)*%
X181625400Y-71103400D03*
%TO.N,Net-(U4A-+)*%
X195410000Y-42562600D03*
%TO.N,Net-(R3-Pad1)*%
X192278000Y-79183900D03*
X191405300Y-47759300D03*
%TO.N,Net-(R1-Pad2)*%
X188468000Y-78991900D03*
X186779100Y-40390700D03*
%TO.N,Net-(J15-PadR)*%
X187413200Y-89731300D03*
X180556300Y-54593600D03*
%TO.N,Net-(J14-PadR)*%
X195328300Y-71882000D03*
%TO.N,Net-(J13-PadR)*%
X195098500Y-62959900D03*
%TO.N,+15V*%
X191723400Y-41019600D03*
%TO.N,-15V*%
X188524900Y-99100900D03*
X179465000Y-48006000D03*
%TO.N,Net-(J29-Pin_1)*%
X179511800Y-70308300D03*
%TO.N,Net-(J2-PadR)*%
X187833500Y-86114100D03*
%TO.N,Net-(C9-Pad1)*%
X180176600Y-37780600D03*
X187482000Y-66494800D03*
%TO.N,Net-(U2-VHSI)*%
X178973000Y-103451600D03*
X180178900Y-35603900D03*
%TO.N,Net-(U2-VSSI)*%
X190105700Y-77891700D03*
X194666800Y-61363600D03*
%TO.N,Net-(C2-Pad2)*%
X192675000Y-45308200D03*
X183137600Y-86661800D03*
%TO.N,GND*%
X187532900Y-61864400D03*
X188000800Y-65044100D03*
X191945800Y-77539200D03*
%TO.N,Net-(C1-Pad2)*%
X188559400Y-69554500D03*
X195460000Y-58331300D03*
%TO.N,Net-(C1-Pad1)*%
X197440200Y-55603500D03*
X194248500Y-33251400D03*
%TD*%
D22*
%TO.N,Net-(U4A--)*%
X197387700Y-73578200D02*
X197387700Y-60715000D01*
X195769600Y-75196300D02*
X197387700Y-73578200D01*
X195769600Y-81500700D02*
X195769600Y-75196300D01*
X195950200Y-81681300D02*
X195769600Y-81500700D01*
X195950200Y-82477900D02*
X195950200Y-81681300D01*
X195593000Y-82835100D02*
X195950200Y-82477900D01*
X195593000Y-115624900D02*
X195593000Y-82835100D01*
X190805700Y-120412200D02*
X195593000Y-115624900D01*
X190805700Y-123310300D02*
X190805700Y-120412200D01*
X189511300Y-124604700D02*
X190805700Y-123310300D01*
X189230000Y-124604700D02*
X189511300Y-124604700D01*
X189230000Y-125730000D02*
X189230000Y-124604700D01*
%TO.N,Net-(U4C--)*%
X193236000Y-80037300D02*
X195209700Y-82011000D01*
X193236000Y-76774700D02*
X193236000Y-80037300D01*
X196645400Y-73365300D02*
X193236000Y-76774700D01*
X196645400Y-48198200D02*
X196645400Y-73365300D01*
X193018100Y-44570900D02*
X196645400Y-48198200D01*
X191358800Y-44570900D02*
X193018100Y-44570900D01*
X189814900Y-46114800D02*
X191358800Y-44570900D01*
X189814900Y-47725600D02*
X189814900Y-46114800D01*
%TO.N,Net-(U4B--)*%
X178780400Y-65125000D02*
X179177000Y-64728400D01*
X178780400Y-73786500D02*
X178780400Y-65125000D01*
X180275600Y-75281700D02*
X178780400Y-73786500D01*
X180275600Y-101540500D02*
X180275600Y-75281700D01*
X180765900Y-102030800D02*
X180275600Y-101540500D01*
%TO.N,Net-(R55-Pad2)*%
X178329300Y-61763400D02*
X183034900Y-57057800D01*
X178329300Y-77650300D02*
X178329300Y-61763400D01*
X178911000Y-78232000D02*
X178329300Y-77650300D01*
%TO.N,Net-(U2-VPWM)*%
X179324000Y-120650000D02*
X179324000Y-119524700D01*
X186962800Y-93474300D02*
X187413200Y-93023900D01*
X186962800Y-97428800D02*
X186962800Y-93474300D01*
X180973000Y-103418600D02*
X186962800Y-97428800D01*
X180973000Y-118055900D02*
X180973000Y-103418600D01*
X179504200Y-119524700D02*
X180973000Y-118055900D01*
X179324000Y-119524700D02*
X179504200Y-119524700D01*
%TO.N,Net-(U2-VEE)*%
X190460000Y-73106000D02*
X187960000Y-73106000D01*
%TO.N,Net-(U2-SCALE1)*%
X179324000Y-130810000D02*
X179324000Y-129684700D01*
X179825300Y-129684700D02*
X179324000Y-129684700D01*
X182208600Y-127301400D02*
X179825300Y-129684700D01*
X183589400Y-127301400D02*
X182208600Y-127301400D01*
X186575400Y-124315400D02*
X183589400Y-127301400D01*
X187488400Y-124315400D02*
X186575400Y-124315400D01*
X188069400Y-123734400D02*
X187488400Y-124315400D01*
X188069400Y-122690800D02*
X188069400Y-123734400D01*
X188840200Y-121920000D02*
X188069400Y-122690800D01*
X189568200Y-121920000D02*
X188840200Y-121920000D01*
X190355300Y-121132900D02*
X189568200Y-121920000D01*
X190355300Y-119806400D02*
X190355300Y-121132900D01*
X195142600Y-115019100D02*
X190355300Y-119806400D01*
X195142600Y-90568800D02*
X195142600Y-115019100D01*
X194783900Y-90210100D02*
X195142600Y-90568800D01*
%TO.N,Net-(R38-Pad1)*%
X185460000Y-73106000D02*
X185460000Y-74331300D01*
X189522000Y-78393300D02*
X189522000Y-84555500D01*
X185460000Y-74331300D02*
X189522000Y-78393300D01*
%TO.N,Net-(R17-Pad2)*%
X196710400Y-35855200D02*
X196710400Y-33296800D01*
X192751100Y-39814500D02*
X196710400Y-35855200D01*
X191833500Y-39814500D02*
X192751100Y-39814500D01*
X187960000Y-43688000D02*
X191833500Y-39814500D01*
%TO.N,Net-(U2-VLFI)*%
X188434300Y-33417400D02*
X190531700Y-33417400D01*
X187694500Y-32677600D02*
X188434300Y-33417400D01*
X190084300Y-86143500D02*
X190084300Y-101072000D01*
X188796700Y-84855900D02*
X190084300Y-86143500D01*
X188796700Y-80357200D02*
X188796700Y-84855900D01*
X184234700Y-75795200D02*
X188796700Y-80357200D01*
X184234700Y-72031600D02*
X184234700Y-75795200D01*
X187579800Y-68686500D02*
X184234700Y-72031600D01*
X187729400Y-68686500D02*
X187579800Y-68686500D01*
X189631200Y-66784700D02*
X187729400Y-68686500D01*
X189631200Y-64680100D02*
X189631200Y-66784700D01*
X193969400Y-60341900D02*
X189631200Y-64680100D01*
X193969400Y-54624900D02*
X193969400Y-60341900D01*
%TO.N,Net-(R4-Pad1)*%
X187960000Y-58374000D02*
X185460000Y-58374000D01*
%TO.N,Net-(R3-Pad1)*%
X192785600Y-78676300D02*
X192278000Y-79183900D01*
X192785600Y-76588200D02*
X192785600Y-78676300D01*
X196195100Y-73178700D02*
X192785600Y-76588200D01*
X196195100Y-51617300D02*
X196195100Y-73178700D01*
X192337100Y-47759300D02*
X196195100Y-51617300D01*
X191405300Y-47759300D02*
X192337100Y-47759300D01*
%TO.N,Net-(J14-PadR)*%
X191154000Y-76056300D02*
X195328300Y-71882000D01*
X191154000Y-112190000D02*
X191154000Y-76056300D01*
X193040000Y-114076000D02*
X191154000Y-112190000D01*
%TO.N,+15V*%
X182875000Y-144023000D02*
X182875000Y-142847700D01*
X183242300Y-142847700D02*
X182875000Y-142847700D01*
X186944000Y-139146000D02*
X183242300Y-142847700D01*
X186944000Y-130810000D02*
X186944000Y-139146000D01*
X189230000Y-120650000D02*
X189230000Y-119524700D01*
X181247500Y-80895500D02*
X181411000Y-80732000D01*
X181247500Y-85797800D02*
X181247500Y-80895500D01*
X188157500Y-92707800D02*
X181247500Y-85797800D01*
X188157500Y-93505100D02*
X188157500Y-92707800D01*
X187776100Y-93886500D02*
X188157500Y-93505100D01*
X187776100Y-101554300D02*
X187776100Y-93886500D01*
X188104700Y-101882900D02*
X187776100Y-101554300D01*
X188104700Y-118680800D02*
X188104700Y-101882900D01*
X188948600Y-119524700D02*
X188104700Y-118680800D01*
X189230000Y-119524700D02*
X188948600Y-119524700D01*
X181411000Y-78474600D02*
X181411000Y-80732000D01*
X182569700Y-77315900D02*
X181411000Y-78474600D01*
X182569700Y-72283200D02*
X182569700Y-77315900D01*
X187359700Y-67493200D02*
X182569700Y-72283200D01*
X187532500Y-67493200D02*
X187359700Y-67493200D01*
X188730600Y-66295100D02*
X187532500Y-67493200D01*
X188730600Y-61536100D02*
X188730600Y-66295100D01*
X190460000Y-59806700D02*
X188730600Y-61536100D01*
X190460000Y-58374000D02*
X190460000Y-59806700D01*
%TO.N,Net-(J2-PadR)*%
X185398100Y-86114100D02*
X182880000Y-83596000D01*
X187833500Y-86114100D02*
X185398100Y-86114100D01*
%TO.N,Net-(D1-A)*%
X194614700Y-118110000D02*
X196850000Y-118110000D01*
X191412100Y-121312600D02*
X194614700Y-118110000D01*
X191412100Y-124221200D02*
X191412100Y-121312600D01*
X190542000Y-125091300D02*
X191412100Y-124221200D01*
X190542000Y-126084900D02*
X190542000Y-125091300D01*
X189482300Y-127144600D02*
X190542000Y-126084900D01*
X188259300Y-127144600D02*
X189482300Y-127144600D01*
X188104600Y-127299300D02*
X188259300Y-127144600D01*
X188104600Y-128747200D02*
X188104600Y-127299300D01*
X187311800Y-129540000D02*
X188104600Y-128747200D01*
X186616200Y-129540000D02*
X187311800Y-129540000D01*
X179070000Y-137086200D02*
X186616200Y-129540000D01*
X179070000Y-144038000D02*
X179070000Y-137086200D01*
%TO.N,Net-(C9-Pad1)*%
X181513400Y-39117400D02*
X180176600Y-37780600D01*
X181513400Y-53008300D02*
X181513400Y-39117400D01*
X184028700Y-55523600D02*
X181513400Y-53008300D01*
X184028700Y-62550900D02*
X184028700Y-55523600D01*
X187482000Y-66004200D02*
X184028700Y-62550900D01*
X187482000Y-66494800D02*
X187482000Y-66004200D01*
%TO.N,Net-(U2-VHSI)*%
X180449400Y-104928000D02*
X178973000Y-103451600D01*
X180449400Y-116140600D02*
X180449400Y-104928000D01*
X179605300Y-116984700D02*
X180449400Y-116140600D01*
X179324000Y-116984700D02*
X179605300Y-116984700D01*
X179324000Y-118110000D02*
X179324000Y-116984700D01*
%TO.N,Net-(U2-VSSI)*%
X194373200Y-61657200D02*
X194666800Y-61363600D01*
X194373200Y-72011100D02*
X194373200Y-61657200D01*
X190105700Y-76278600D02*
X194373200Y-72011100D01*
X190105700Y-77891700D02*
X190105700Y-76278600D01*
%TO.N,Net-(C2-Pad2)*%
X183343400Y-86867600D02*
X183137600Y-86661800D01*
X188162400Y-86867600D02*
X183343400Y-86867600D01*
X188587900Y-86442100D02*
X188162400Y-86867600D01*
X188587900Y-85284000D02*
X188587900Y-86442100D01*
X188346400Y-85042500D02*
X188587900Y-85284000D01*
X188346400Y-82185700D02*
X188346400Y-85042500D01*
X183768100Y-77607400D02*
X188346400Y-82185700D01*
X183768100Y-71781000D02*
X183768100Y-77607400D01*
X187362700Y-68186400D02*
X183768100Y-71781000D01*
X187548300Y-68186400D02*
X187362700Y-68186400D01*
X189180900Y-66553800D02*
X187548300Y-68186400D01*
X189180900Y-64493500D02*
X189180900Y-66553800D01*
X191489600Y-62184800D02*
X189180900Y-64493500D01*
X191489600Y-60453300D02*
X191489600Y-62184800D01*
X191409700Y-60373400D02*
X191489600Y-60453300D01*
X191409700Y-59772600D02*
X191409700Y-60373400D01*
X191729200Y-59453100D02*
X191409700Y-59772600D01*
X191729200Y-55643900D02*
X191729200Y-59453100D01*
X190529500Y-54444200D02*
X191729200Y-55643900D01*
X190529500Y-48036800D02*
X190529500Y-54444200D01*
X190540200Y-48026100D02*
X190529500Y-48036800D01*
X190540200Y-47443000D02*
X190540200Y-48026100D01*
X192675000Y-45308200D02*
X190540200Y-47443000D01*
%TO.N,GND*%
X185415000Y-144023000D02*
X187955000Y-144023000D01*
X185415000Y-146563000D02*
X187955000Y-146563000D01*
X193408800Y-96471300D02*
X193040000Y-96471300D01*
X194673300Y-97735800D02*
X193408800Y-96471300D01*
X194673300Y-108602700D02*
X194673300Y-97735800D01*
X193040000Y-110236000D02*
X194673300Y-108602700D01*
X193040000Y-94996000D02*
X193040000Y-96471300D01*
X188000800Y-62332300D02*
X188000800Y-65044100D01*
X187532900Y-61864400D02*
X188000800Y-62332300D01*
X189089600Y-45058400D02*
X190460000Y-43688000D01*
X189089600Y-48026000D02*
X189089600Y-45058400D01*
X189234600Y-48171000D02*
X189089600Y-48026000D01*
X189234600Y-60162700D02*
X189234600Y-48171000D01*
X187532900Y-61864400D02*
X189234600Y-60162700D01*
X189225000Y-144023000D02*
X189225000Y-146563000D01*
X187955000Y-144023000D02*
X189225000Y-144023000D01*
X189225000Y-144023000D02*
X190495000Y-144023000D01*
X187955000Y-146563000D02*
X189225000Y-146563000D01*
X189225000Y-146563000D02*
X190495000Y-146563000D01*
X182880000Y-110236000D02*
X182880000Y-111711300D01*
X186944000Y-120650000D02*
X185818700Y-120650000D01*
X185818700Y-120650000D02*
X185568000Y-120650000D01*
X185568000Y-114030500D02*
X185568000Y-120650000D01*
X183248800Y-111711300D02*
X185568000Y-114030500D01*
X182880000Y-111711300D02*
X183248800Y-111711300D01*
X185568000Y-122788000D02*
X182880000Y-125476000D01*
X185568000Y-120650000D02*
X185568000Y-122788000D01*
%TO.N,Net-(C1-Pad2)*%
X195460000Y-59488200D02*
X195460000Y-58331300D01*
X190306600Y-64641600D02*
X195460000Y-59488200D01*
X190306600Y-67807300D02*
X190306600Y-64641600D01*
X188559400Y-69554500D02*
X190306600Y-67807300D01*
%TD*%
M02*
