%TF.GenerationSoftware,KiCad,Pcbnew,7.0.2*%
%TF.CreationDate,2023-06-26T10:26:31-04:00*%
%TF.ProjectId,as3340_no_mux,61733333-3430-45f6-9e6f-5f6d75782e6b,rev?*%
%TF.SameCoordinates,Original*%
%TF.FileFunction,Soldermask,Top*%
%TF.FilePolarity,Negative*%
%FSLAX46Y46*%
G04 Gerber Fmt 4.6, Leading zero omitted, Abs format (unit mm)*
G04 Created by KiCad (PCBNEW 7.0.2) date 2023-06-26 10:26:31*
%MOMM*%
%LPD*%
G01*
G04 APERTURE LIST*
G04 Aperture macros list*
%AMRoundRect*
0 Rectangle with rounded corners*
0 $1 Rounding radius*
0 $2 $3 $4 $5 $6 $7 $8 $9 X,Y pos of 4 corners*
0 Add a 4 corners polygon primitive as box body*
4,1,4,$2,$3,$4,$5,$6,$7,$8,$9,$2,$3,0*
0 Add four circle primitives for the rounded corners*
1,1,$1+$1,$2,$3*
1,1,$1+$1,$4,$5*
1,1,$1+$1,$6,$7*
1,1,$1+$1,$8,$9*
0 Add four rect primitives between the rounded corners*
20,1,$1+$1,$2,$3,$4,$5,0*
20,1,$1+$1,$4,$5,$6,$7,0*
20,1,$1+$1,$6,$7,$8,$9,0*
20,1,$1+$1,$8,$9,$2,$3,0*%
G04 Aperture macros list end*
%ADD10O,3.100000X2.300000*%
%ADD11RoundRect,0.650000X-0.650000X-0.650000X0.650000X-0.650000X0.650000X0.650000X-0.650000X0.650000X0*%
%ADD12C,1.600000*%
%ADD13R,1.800000X1.800000*%
%ADD14C,1.800000*%
%ADD15RoundRect,0.750000X0.750000X-1.250000X0.750000X1.250000X-0.750000X1.250000X-0.750000X-1.250000X0*%
%ADD16C,1.700000*%
%ADD17C,1.620000*%
%ADD18R,1.600000X1.600000*%
%ADD19O,1.600000X1.600000*%
%ADD20R,1.700000X1.700000*%
%ADD21O,1.700000X1.700000*%
%ADD22C,1.200000*%
G04 APERTURE END LIST*
D10*
%TO.C,J15*%
X193040000Y-126290000D03*
D11*
X193040000Y-114890000D03*
X193040000Y-123190000D03*
%TD*%
D10*
%TO.C,J1*%
X182880000Y-95810000D03*
D11*
X182880000Y-84410000D03*
X182880000Y-92710000D03*
%TD*%
D10*
%TO.C,J5*%
X182880000Y-126290000D03*
D11*
X182880000Y-114890000D03*
X182880000Y-123190000D03*
%TD*%
D12*
%TO.C,D1*%
X179070000Y-146538000D03*
X179070000Y-144038000D03*
%TD*%
D10*
%TO.C,J2*%
X182880000Y-140940000D03*
D11*
X182880000Y-129540000D03*
X182880000Y-137840000D03*
%TD*%
D10*
%TO.C,J12*%
X193040000Y-95810000D03*
D11*
X193040000Y-84410000D03*
X193040000Y-92710000D03*
%TD*%
D13*
%TO.C,THONKY_FINE_CV1*%
X185500000Y-58420000D03*
D14*
X188000000Y-58420000D03*
X190500000Y-58420000D03*
D15*
X183600000Y-51420000D03*
X192400000Y-51420000D03*
%TD*%
D16*
%TO.C,SW1*%
X179450000Y-78486000D03*
X184150000Y-78486000D03*
X188850000Y-78486000D03*
%TD*%
D10*
%TO.C,J13*%
X193040000Y-111050000D03*
D11*
X193040000Y-99650000D03*
X193040000Y-107950000D03*
%TD*%
D10*
%TO.C,J4*%
X182880000Y-111050000D03*
D11*
X182880000Y-99650000D03*
X182880000Y-107950000D03*
%TD*%
D13*
%TO.C,THONKY_COURSE_CV1*%
X185500000Y-43775000D03*
D14*
X188000000Y-43775000D03*
X190500000Y-43775000D03*
D15*
X183600000Y-36775000D03*
X192400000Y-36775000D03*
%TD*%
D13*
%TO.C,THONKY_PWM1*%
X185505000Y-73040000D03*
D14*
X188005000Y-73040000D03*
X190505000Y-73040000D03*
D15*
X183605000Y-66040000D03*
X192405000Y-66040000D03*
%TD*%
D10*
%TO.C,J14*%
X193040000Y-140940000D03*
D11*
X193040000Y-129540000D03*
X193040000Y-137840000D03*
%TD*%
D17*
%TO.C,NOT_THOONKY_SineBiasTrim1*%
X178943000Y-80986000D03*
X181443000Y-78486000D03*
X178943000Y-75986000D03*
%TD*%
%TO.C,NOT_THONKY_HF_TRACK1*%
X181665000Y-42712000D03*
X179165000Y-45212000D03*
X181665000Y-47712000D03*
%TD*%
D18*
%TO.C,U4*%
X189230000Y-128270000D03*
D19*
X189230000Y-125730000D03*
X189230000Y-123190000D03*
X189230000Y-120650000D03*
X189230000Y-118110000D03*
X189230000Y-115570000D03*
X189230000Y-113030000D03*
X196850000Y-113030000D03*
X196850000Y-115570000D03*
X196850000Y-118110000D03*
X196850000Y-120650000D03*
X196850000Y-123190000D03*
X196850000Y-125730000D03*
X196850000Y-128270000D03*
%TD*%
D17*
%TO.C,NOT_THINK_SineLevelTrim1*%
X194310000Y-81026000D03*
X196810000Y-78526000D03*
X194310000Y-76026000D03*
%TD*%
%TO.C,NOT_THONKY_SineShapeTrim1*%
X181610000Y-56428000D03*
X179110000Y-58928000D03*
X181610000Y-61428000D03*
%TD*%
D20*
%TO.C,J11*%
X193035000Y-146685000D03*
D21*
X193035000Y-144145000D03*
X190495000Y-146685000D03*
X190495000Y-144145000D03*
X187955000Y-146685000D03*
X187955000Y-144145000D03*
X185415000Y-146685000D03*
X185415000Y-144145000D03*
X182875000Y-146685000D03*
X182875000Y-144145000D03*
%TD*%
D18*
%TO.C,U2*%
X179324000Y-130810000D03*
D19*
X179324000Y-128270000D03*
X179324000Y-125730000D03*
X179324000Y-123190000D03*
X179324000Y-120650000D03*
X179324000Y-118110000D03*
X179324000Y-115570000D03*
X179324000Y-113030000D03*
X186944000Y-113030000D03*
X186944000Y-115570000D03*
X186944000Y-118110000D03*
X186944000Y-120650000D03*
X186944000Y-123190000D03*
X186944000Y-125730000D03*
X186944000Y-128270000D03*
X186944000Y-130810000D03*
%TD*%
D17*
%TO.C,NOT+THINKY_CV1*%
X196905000Y-42966000D03*
X194405000Y-45466000D03*
X196905000Y-47966000D03*
%TD*%
%TO.C,NOT_THINKY_TEMKO1*%
X196850000Y-57698000D03*
X194350000Y-60198000D03*
X196850000Y-62698000D03*
%TD*%
D22*
%TO.C,PolyStirene!C11*%
X189611000Y-139700000D03*
X187611000Y-139700000D03*
%TD*%
M02*
