%TF.GenerationSoftware,KiCad,Pcbnew,7.0.1*%
%TF.CreationDate,2023-06-11T21:55:06-04:00*%
%TF.ProjectId,as3340_no_mux,61733333-3430-45f6-9e6f-5f6d75782e6b,rev?*%
%TF.SameCoordinates,Original*%
%TF.FileFunction,Soldermask,Bot*%
%TF.FilePolarity,Negative*%
%FSLAX46Y46*%
G04 Gerber Fmt 4.6, Leading zero omitted, Abs format (unit mm)*
G04 Created by KiCad (PCBNEW 7.0.1) date 2023-06-11 21:55:06*
%MOMM*%
%LPD*%
G01*
G04 APERTURE LIST*
G04 Aperture macros list*
%AMRoundRect*
0 Rectangle with rounded corners*
0 $1 Rounding radius*
0 $2 $3 $4 $5 $6 $7 $8 $9 X,Y pos of 4 corners*
0 Add a 4 corners polygon primitive as box body*
4,1,4,$2,$3,$4,$5,$6,$7,$8,$9,$2,$3,0*
0 Add four circle primitives for the rounded corners*
1,1,$1+$1,$2,$3*
1,1,$1+$1,$4,$5*
1,1,$1+$1,$6,$7*
1,1,$1+$1,$8,$9*
0 Add four rect primitives between the rounded corners*
20,1,$1+$1,$2,$3,$4,$5,0*
20,1,$1+$1,$4,$5,$6,$7,0*
20,1,$1+$1,$6,$7,$8,$9,0*
20,1,$1+$1,$8,$9,$2,$3,0*%
G04 Aperture macros list end*
%ADD10RoundRect,0.250000X-0.625000X0.312500X-0.625000X-0.312500X0.625000X-0.312500X0.625000X0.312500X0*%
%ADD11RoundRect,0.250000X0.312500X0.625000X-0.312500X0.625000X-0.312500X-0.625000X0.312500X-0.625000X0*%
%ADD12RoundRect,0.250000X-0.650000X0.325000X-0.650000X-0.325000X0.650000X-0.325000X0.650000X0.325000X0*%
%ADD13RoundRect,0.250000X0.650000X-0.325000X0.650000X0.325000X-0.650000X0.325000X-0.650000X-0.325000X0*%
%ADD14R,1.800000X1.800000*%
%ADD15C,1.800000*%
%ADD16RoundRect,0.750000X0.750000X-1.250000X0.750000X1.250000X-0.750000X1.250000X-0.750000X-1.250000X0*%
%ADD17C,1.620000*%
%ADD18O,3.100000X2.300000*%
%ADD19RoundRect,0.650000X-0.650000X-0.650000X0.650000X-0.650000X0.650000X0.650000X-0.650000X0.650000X0*%
%ADD20C,1.600000*%
%ADD21RoundRect,0.150000X-0.150000X0.825000X-0.150000X-0.825000X0.150000X-0.825000X0.150000X0.825000X0*%
%ADD22R,1.600000X1.600000*%
%ADD23O,1.600000X1.600000*%
%ADD24R,1.700000X1.700000*%
%ADD25O,1.700000X1.700000*%
G04 APERTURE END LIST*
D10*
%TO.C,R69*%
X196850000Y-59305000D03*
X196850000Y-62230000D03*
%TD*%
%TO.C,R68*%
X196850000Y-64131000D03*
X196850000Y-67056000D03*
%TD*%
%TO.C,R67*%
X196850000Y-68957000D03*
X196850000Y-71882000D03*
%TD*%
%TO.C,R66*%
X179070000Y-51369500D03*
X179070000Y-54294500D03*
%TD*%
%TO.C,R64*%
X179070000Y-63561500D03*
X179070000Y-66486500D03*
%TD*%
%TO.C,R62*%
X179070000Y-98105500D03*
X179070000Y-101030500D03*
%TD*%
%TO.C,R60*%
X186690000Y-94549500D03*
X186690000Y-97474500D03*
%TD*%
%TO.C,R58*%
X196850000Y-92771500D03*
X196850000Y-95696500D03*
%TD*%
%TO.C,R55*%
X186944000Y-53147500D03*
X186944000Y-56072500D03*
%TD*%
%TO.C,R54*%
X189484000Y-53401500D03*
X189484000Y-56326500D03*
%TD*%
%TO.C,R51*%
X186436000Y-60767500D03*
X186436000Y-63692500D03*
%TD*%
%TO.C,R50*%
X189230000Y-68387500D03*
X189230000Y-71312500D03*
%TD*%
%TO.C,R48*%
X189484000Y-88707500D03*
X189484000Y-91632500D03*
%TD*%
%TO.C,R46*%
X185928000Y-83373500D03*
X185928000Y-86298500D03*
%TD*%
%TO.C,R40*%
X179070000Y-71566500D03*
X179070000Y-68641500D03*
%TD*%
D11*
%TO.C,R39*%
X194117500Y-46990000D03*
X197042500Y-46990000D03*
%TD*%
D10*
%TO.C,R38*%
X196850000Y-88199500D03*
X196850000Y-91124500D03*
%TD*%
%TO.C,R37*%
X189230000Y-38669500D03*
X189230000Y-41594500D03*
%TD*%
%TO.C,R36*%
X186436000Y-46035500D03*
X186436000Y-48960500D03*
%TD*%
%TO.C,R34*%
X189230000Y-46035500D03*
X189230000Y-48960500D03*
%TD*%
%TO.C,R26*%
X188976000Y-60767500D03*
X188976000Y-63692500D03*
%TD*%
%TO.C,R25*%
X186690000Y-68387500D03*
X186690000Y-71312500D03*
%TD*%
%TO.C,R24*%
X189776000Y-83373500D03*
X189776000Y-86298500D03*
%TD*%
%TO.C,R20*%
X186182000Y-88646000D03*
X186182000Y-91571000D03*
%TD*%
%TO.C,R19*%
X196596000Y-36637500D03*
X196596000Y-39562500D03*
%TD*%
%TO.C,R17*%
X196596000Y-34482500D03*
X196596000Y-31557500D03*
%TD*%
%TO.C,R16*%
X196850000Y-83119500D03*
X196850000Y-86044500D03*
%TD*%
D11*
%TO.C,R12*%
X196788500Y-44450000D03*
X193863500Y-44450000D03*
%TD*%
%TO.C,R11*%
X191323500Y-31750000D03*
X194248500Y-31750000D03*
%TD*%
%TO.C,R10*%
X189422500Y-31750000D03*
X186497500Y-31750000D03*
%TD*%
%TO.C,R8*%
X184404000Y-31750000D03*
X181479000Y-31750000D03*
%TD*%
D10*
%TO.C,R6*%
X179070000Y-46543500D03*
X179070000Y-49468500D03*
%TD*%
%TO.C,R4*%
X179070000Y-83119500D03*
X179070000Y-86044500D03*
%TD*%
D11*
%TO.C,R3*%
X196788500Y-41910000D03*
X193863500Y-41910000D03*
%TD*%
D10*
%TO.C,R2*%
X179070000Y-41463500D03*
X179070000Y-44388500D03*
%TD*%
%TO.C,R1*%
X186690000Y-38669500D03*
X186690000Y-41594500D03*
%TD*%
D12*
%TO.C,C11*%
X179070000Y-93013000D03*
X179070000Y-95963000D03*
%TD*%
%TO.C,C9*%
X179070000Y-36674000D03*
X179070000Y-39624000D03*
%TD*%
%TO.C,C7*%
X179070000Y-31545000D03*
X179070000Y-34495000D03*
%TD*%
%TO.C,C3*%
X196850000Y-49325000D03*
X196850000Y-52275000D03*
%TD*%
D13*
%TO.C,C2*%
X179070000Y-90883000D03*
X179070000Y-87933000D03*
%TD*%
D12*
%TO.C,C1*%
X196850000Y-54405000D03*
X196850000Y-57355000D03*
%TD*%
D14*
%TO.C,RV9*%
X185460000Y-73106000D03*
D15*
X187960000Y-73106000D03*
X190460000Y-73106000D03*
D16*
X183560000Y-66106000D03*
X192360000Y-66106000D03*
%TD*%
D14*
%TO.C,RV7*%
X185460000Y-58374000D03*
D15*
X187960000Y-58374000D03*
X190460000Y-58374000D03*
D16*
X183560000Y-51374000D03*
X192360000Y-51374000D03*
%TD*%
D14*
%TO.C,RV5*%
X185460000Y-43688000D03*
D15*
X187960000Y-43688000D03*
X190460000Y-43688000D03*
D16*
X183560000Y-36688000D03*
X192360000Y-36688000D03*
%TD*%
D17*
%TO.C,SineBiasTrim1*%
X181411000Y-75732000D03*
X178911000Y-78232000D03*
X181411000Y-80732000D03*
%TD*%
D18*
%TO.C,J15*%
X193040000Y-140716000D03*
D19*
X193040000Y-129316000D03*
X193040000Y-137616000D03*
%TD*%
%TO.C,J1*%
X182880000Y-122376000D03*
X182880000Y-114076000D03*
D18*
X182880000Y-125476000D03*
%TD*%
%TO.C,J5*%
X182880000Y-140716000D03*
D19*
X182880000Y-129316000D03*
X182880000Y-137616000D03*
%TD*%
D20*
%TO.C,D1*%
X179070000Y-146538000D03*
X179070000Y-144038000D03*
%TD*%
D21*
%TO.C,U1*%
X183388000Y-80772000D03*
X184658000Y-80772000D03*
X185928000Y-80772000D03*
X187198000Y-80772000D03*
X188468000Y-80772000D03*
X189738000Y-80772000D03*
X191008000Y-80772000D03*
X192278000Y-80772000D03*
X192278000Y-75822000D03*
X191008000Y-75822000D03*
X189738000Y-75822000D03*
X188468000Y-75822000D03*
X187198000Y-75822000D03*
X185928000Y-75822000D03*
X184658000Y-75822000D03*
X183388000Y-75822000D03*
%TD*%
D18*
%TO.C,J2*%
X182880000Y-94996000D03*
D19*
X182880000Y-83596000D03*
X182880000Y-91896000D03*
%TD*%
D17*
%TO.C,SineLevelTrim1*%
X196905000Y-75986000D03*
X194405000Y-78486000D03*
X196905000Y-80986000D03*
%TD*%
D18*
%TO.C,J12*%
X193040000Y-94996000D03*
D19*
X193040000Y-83596000D03*
X193040000Y-91896000D03*
%TD*%
D17*
%TO.C,SineShapeTrim1*%
X181665000Y-56428000D03*
X179165000Y-58928000D03*
X181665000Y-61428000D03*
%TD*%
D18*
%TO.C,J13*%
X193040000Y-110236000D03*
D19*
X193040000Y-98836000D03*
X193040000Y-107136000D03*
%TD*%
D18*
%TO.C,J4*%
X182880000Y-110236000D03*
D19*
X182880000Y-98836000D03*
X182880000Y-107136000D03*
%TD*%
D18*
%TO.C,J14*%
X193040000Y-125476000D03*
D19*
X193040000Y-114076000D03*
X193040000Y-122376000D03*
%TD*%
D22*
%TO.C,U4*%
X189230000Y-128270000D03*
D23*
X189230000Y-125730000D03*
X189230000Y-123190000D03*
X189230000Y-120650000D03*
X189230000Y-118110000D03*
X189230000Y-115570000D03*
X189230000Y-113030000D03*
X196850000Y-113030000D03*
X196850000Y-115570000D03*
X196850000Y-118110000D03*
X196850000Y-120650000D03*
X196850000Y-123190000D03*
X196850000Y-125730000D03*
X196850000Y-128270000D03*
%TD*%
D24*
%TO.C,J11*%
X193035000Y-146563000D03*
D25*
X193035000Y-144023000D03*
X190495000Y-146563000D03*
X190495000Y-144023000D03*
X187955000Y-146563000D03*
X187955000Y-144023000D03*
X185415000Y-146563000D03*
X185415000Y-144023000D03*
X182875000Y-146563000D03*
X182875000Y-144023000D03*
%TD*%
D22*
%TO.C,U2*%
X179324000Y-130810000D03*
D23*
X179324000Y-128270000D03*
X179324000Y-125730000D03*
X179324000Y-123190000D03*
X179324000Y-120650000D03*
X179324000Y-118110000D03*
X179324000Y-115570000D03*
X179324000Y-113030000D03*
X186944000Y-113030000D03*
X186944000Y-115570000D03*
X186944000Y-118110000D03*
X186944000Y-120650000D03*
X186944000Y-123190000D03*
X186944000Y-125730000D03*
X186944000Y-128270000D03*
X186944000Y-130810000D03*
%TD*%
M02*
