%FSLAX45Y45*%
G04 Gerber Fmt 4.5, Leading zero omitted, Abs format (unit mm)*
G04 Created by KiCad (PCBNEW (6.0.5)) date 2023-05-17 00:43:46*
%MOMM*%
%LPD*%
G01*
G04 APERTURE LIST*
%TA.AperFunction,Profile*%
%ADD10C,0.100000*%
%TD*%
%ADD11C,0.200000*%
G04 APERTURE END LIST*
D10*
X5715000Y-3048000D02*
X8763000Y-3048000D01*
X8763000Y-3048000D02*
X8763000Y-15898000D01*
X8763000Y-15898000D02*
X5715000Y-15898000D01*
X5715000Y-15898000D02*
X5715000Y-3048000D01*
D11*
X5967619Y-16213476D02*
X5967619Y-16013476D01*
X6015238Y-16013476D01*
X6043809Y-16023000D01*
X6062857Y-16042048D01*
X6072381Y-16061095D01*
X6081905Y-16099190D01*
X6081905Y-16127762D01*
X6072381Y-16165857D01*
X6062857Y-16184905D01*
X6043809Y-16203952D01*
X6015238Y-16213476D01*
X5967619Y-16213476D01*
X6167619Y-16213476D02*
X6167619Y-16080143D01*
X6167619Y-16118238D02*
X6177143Y-16099190D01*
X6186667Y-16089667D01*
X6205714Y-16080143D01*
X6224762Y-16080143D01*
X6291428Y-16213476D02*
X6291428Y-16080143D01*
X6291428Y-16013476D02*
X6281905Y-16023000D01*
X6291428Y-16032524D01*
X6300952Y-16023000D01*
X6291428Y-16013476D01*
X6291428Y-16032524D01*
X6415238Y-16213476D02*
X6396190Y-16203952D01*
X6386667Y-16184905D01*
X6386667Y-16013476D01*
X6520000Y-16213476D02*
X6500952Y-16203952D01*
X6491428Y-16184905D01*
X6491428Y-16013476D01*
X6748571Y-16213476D02*
X6748571Y-16013476D01*
X6815238Y-16156333D01*
X6881905Y-16013476D01*
X6881905Y-16213476D01*
X7062857Y-16213476D02*
X7062857Y-16108714D01*
X7053333Y-16089667D01*
X7034286Y-16080143D01*
X6996190Y-16080143D01*
X6977143Y-16089667D01*
X7062857Y-16203952D02*
X7043809Y-16213476D01*
X6996190Y-16213476D01*
X6977143Y-16203952D01*
X6967619Y-16184905D01*
X6967619Y-16165857D01*
X6977143Y-16146809D01*
X6996190Y-16137286D01*
X7043809Y-16137286D01*
X7062857Y-16127762D01*
X7158095Y-16080143D02*
X7158095Y-16280143D01*
X7158095Y-16089667D02*
X7177143Y-16080143D01*
X7215238Y-16080143D01*
X7234286Y-16089667D01*
X7243809Y-16099190D01*
X7253333Y-16118238D01*
X7253333Y-16175381D01*
X7243809Y-16194428D01*
X7234286Y-16203952D01*
X7215238Y-16213476D01*
X7177143Y-16213476D01*
X7158095Y-16203952D01*
X7339048Y-16194428D02*
X7348571Y-16203952D01*
X7339048Y-16213476D01*
X7329524Y-16203952D01*
X7339048Y-16194428D01*
X7339048Y-16213476D01*
X7339048Y-16089667D02*
X7348571Y-16099190D01*
X7339048Y-16108714D01*
X7329524Y-16099190D01*
X7339048Y-16089667D01*
X7339048Y-16108714D01*
M02*
