%FSLAX45Y45*%
G04 Gerber Fmt 4.5, Leading zero omitted, Abs format (unit mm)*
G04 Created by KiCad (PCBNEW (6.0.5)) date 2023-05-17 00:43:46*
%MOMM*%
%LPD*%
G01*
G04 APERTURE LIST*
%TA.AperFunction,Profile*%
%ADD10C,0.100000*%
%TD*%
%ADD11C,0.200000*%
%ADD12C,0.320000*%
%ADD13C,0.550000*%
G04 APERTURE END LIST*
D10*
X5715000Y-3048000D02*
X8763000Y-3048000D01*
X8763000Y-3048000D02*
X8763000Y-15898000D01*
X8763000Y-15898000D02*
X5715000Y-15898000D01*
X5715000Y-15898000D02*
X5715000Y-3048000D01*
D11*
D12*
X6063000Y-3142000D02*
X6383000Y-3462000D01*
X6383000Y-3142000D02*
X6063000Y-3462000D01*
X6063000Y-15461000D02*
X6383000Y-15781000D01*
X6383000Y-15461000D02*
X6063000Y-15781000D01*
X8095000Y-3142000D02*
X8415000Y-3462000D01*
X8415000Y-3142000D02*
X8095000Y-3462000D01*
X8095000Y-15461000D02*
X8415000Y-15781000D01*
X8415000Y-15461000D02*
X8095000Y-15781000D01*
D13*
X6879000Y-9525000D02*
G75*
G03*
X6879000Y-9525000I-275000J0D01*
G01*
X6879000Y-10922000D02*
G75*
G03*
X6879000Y-10922000I-275000J0D01*
G01*
X6879000Y-12319000D02*
G75*
G03*
X6879000Y-12319000I-275000J0D01*
G01*
X6879000Y-13716000D02*
G75*
G03*
X6879000Y-13716000I-275000J0D01*
G01*
X7514000Y-5715000D02*
G75*
G03*
X7514000Y-5715000I-275000J0D01*
G01*
X7514000Y-7620000D02*
G75*
G03*
X7514000Y-7620000I-275000J0D01*
G01*
X8149000Y-9525000D02*
G75*
G03*
X8149000Y-9525000I-275000J0D01*
G01*
X8149000Y-10922000D02*
G75*
G03*
X8149000Y-10922000I-275000J0D01*
G01*
X8149000Y-12319000D02*
G75*
G03*
X8149000Y-12319000I-275000J0D01*
G01*
X8149000Y-13716000D02*
G75*
G03*
X8149000Y-13716000I-275000J0D01*
G01*
D11*
X5967619Y-16213476D02*
X5967619Y-16013476D01*
X6015238Y-16013476D01*
X6043809Y-16023000D01*
X6062857Y-16042048D01*
X6072381Y-16061095D01*
X6081905Y-16099190D01*
X6081905Y-16127762D01*
X6072381Y-16165857D01*
X6062857Y-16184905D01*
X6043809Y-16203952D01*
X6015238Y-16213476D01*
X5967619Y-16213476D01*
X6167619Y-16213476D02*
X6167619Y-16080143D01*
X6167619Y-16118238D02*
X6177143Y-16099190D01*
X6186667Y-16089667D01*
X6205714Y-16080143D01*
X6224762Y-16080143D01*
X6291428Y-16213476D02*
X6291428Y-16080143D01*
X6291428Y-16013476D02*
X6281905Y-16023000D01*
X6291428Y-16032524D01*
X6300952Y-16023000D01*
X6291428Y-16013476D01*
X6291428Y-16032524D01*
X6415238Y-16213476D02*
X6396190Y-16203952D01*
X6386667Y-16184905D01*
X6386667Y-16013476D01*
X6520000Y-16213476D02*
X6500952Y-16203952D01*
X6491428Y-16184905D01*
X6491428Y-16013476D01*
X6748571Y-16213476D02*
X6748571Y-16013476D01*
X6815238Y-16156333D01*
X6881905Y-16013476D01*
X6881905Y-16213476D01*
X7062857Y-16213476D02*
X7062857Y-16108714D01*
X7053333Y-16089667D01*
X7034286Y-16080143D01*
X6996190Y-16080143D01*
X6977143Y-16089667D01*
X7062857Y-16203952D02*
X7043809Y-16213476D01*
X6996190Y-16213476D01*
X6977143Y-16203952D01*
X6967619Y-16184905D01*
X6967619Y-16165857D01*
X6977143Y-16146809D01*
X6996190Y-16137286D01*
X7043809Y-16137286D01*
X7062857Y-16127762D01*
X7158095Y-16080143D02*
X7158095Y-16280143D01*
X7158095Y-16089667D02*
X7177143Y-16080143D01*
X7215238Y-16080143D01*
X7234286Y-16089667D01*
X7243809Y-16099190D01*
X7253333Y-16118238D01*
X7253333Y-16175381D01*
X7243809Y-16194428D01*
X7234286Y-16203952D01*
X7215238Y-16213476D01*
X7177143Y-16213476D01*
X7158095Y-16203952D01*
X7339048Y-16194428D02*
X7348571Y-16203952D01*
X7339048Y-16213476D01*
X7329524Y-16203952D01*
X7339048Y-16194428D01*
X7339048Y-16213476D01*
X7339048Y-16089667D02*
X7348571Y-16099190D01*
X7339048Y-16108714D01*
X7329524Y-16099190D01*
X7339048Y-16089667D01*
X7339048Y-16108714D01*
X5510000Y-16443000D02*
X5710000Y-16643000D01*
X5710000Y-16443000D02*
X5510000Y-16643000D01*
X5948571Y-16433476D02*
X6072381Y-16433476D01*
X6005714Y-16509667D01*
X6034286Y-16509667D01*
X6053333Y-16519190D01*
X6062857Y-16528714D01*
X6072381Y-16547762D01*
X6072381Y-16595381D01*
X6062857Y-16614428D01*
X6053333Y-16623952D01*
X6034286Y-16633476D01*
X5977143Y-16633476D01*
X5958095Y-16623952D01*
X5948571Y-16614428D01*
X6158095Y-16614428D02*
X6167619Y-16623952D01*
X6158095Y-16633476D01*
X6148571Y-16623952D01*
X6158095Y-16614428D01*
X6158095Y-16633476D01*
X6243809Y-16452524D02*
X6253333Y-16443000D01*
X6272381Y-16433476D01*
X6320000Y-16433476D01*
X6339048Y-16443000D01*
X6348571Y-16452524D01*
X6358095Y-16471571D01*
X6358095Y-16490619D01*
X6348571Y-16519190D01*
X6234286Y-16633476D01*
X6358095Y-16633476D01*
X6481905Y-16433476D02*
X6500952Y-16433476D01*
X6520000Y-16443000D01*
X6529524Y-16452524D01*
X6539048Y-16471571D01*
X6548571Y-16509667D01*
X6548571Y-16557286D01*
X6539048Y-16595381D01*
X6529524Y-16614428D01*
X6520000Y-16623952D01*
X6500952Y-16633476D01*
X6481905Y-16633476D01*
X6462857Y-16623952D01*
X6453333Y-16614428D01*
X6443809Y-16595381D01*
X6434286Y-16557286D01*
X6434286Y-16509667D01*
X6443809Y-16471571D01*
X6453333Y-16452524D01*
X6462857Y-16443000D01*
X6481905Y-16433476D01*
X6672381Y-16433476D02*
X6691428Y-16433476D01*
X6710476Y-16443000D01*
X6720000Y-16452524D01*
X6729524Y-16471571D01*
X6739048Y-16509667D01*
X6739048Y-16557286D01*
X6729524Y-16595381D01*
X6720000Y-16614428D01*
X6710476Y-16623952D01*
X6691428Y-16633476D01*
X6672381Y-16633476D01*
X6653333Y-16623952D01*
X6643809Y-16614428D01*
X6634286Y-16595381D01*
X6624762Y-16557286D01*
X6624762Y-16509667D01*
X6634286Y-16471571D01*
X6643809Y-16452524D01*
X6653333Y-16443000D01*
X6672381Y-16433476D01*
X6824762Y-16633476D02*
X6824762Y-16500143D01*
X6824762Y-16519190D02*
X6834286Y-16509667D01*
X6853333Y-16500143D01*
X6881905Y-16500143D01*
X6900952Y-16509667D01*
X6910476Y-16528714D01*
X6910476Y-16633476D01*
X6910476Y-16528714D02*
X6920000Y-16509667D01*
X6939048Y-16500143D01*
X6967619Y-16500143D01*
X6986667Y-16509667D01*
X6996190Y-16528714D01*
X6996190Y-16633476D01*
X7091428Y-16633476D02*
X7091428Y-16500143D01*
X7091428Y-16519190D02*
X7100952Y-16509667D01*
X7120000Y-16500143D01*
X7148571Y-16500143D01*
X7167619Y-16509667D01*
X7177143Y-16528714D01*
X7177143Y-16633476D01*
X7177143Y-16528714D02*
X7186667Y-16509667D01*
X7205714Y-16500143D01*
X7234286Y-16500143D01*
X7253333Y-16509667D01*
X7262857Y-16528714D01*
X7262857Y-16633476D01*
X7653333Y-16423952D02*
X7481905Y-16681095D01*
X7910476Y-16433476D02*
X7929524Y-16433476D01*
X7948571Y-16443000D01*
X7958095Y-16452524D01*
X7967619Y-16471571D01*
X7977143Y-16509667D01*
X7977143Y-16557286D01*
X7967619Y-16595381D01*
X7958095Y-16614428D01*
X7948571Y-16623952D01*
X7929524Y-16633476D01*
X7910476Y-16633476D01*
X7891428Y-16623952D01*
X7881905Y-16614428D01*
X7872381Y-16595381D01*
X7862857Y-16557286D01*
X7862857Y-16509667D01*
X7872381Y-16471571D01*
X7881905Y-16452524D01*
X7891428Y-16443000D01*
X7910476Y-16433476D01*
X8062857Y-16614428D02*
X8072381Y-16623952D01*
X8062857Y-16633476D01*
X8053333Y-16623952D01*
X8062857Y-16614428D01*
X8062857Y-16633476D01*
X8262857Y-16633476D02*
X8148571Y-16633476D01*
X8205714Y-16633476D02*
X8205714Y-16433476D01*
X8186667Y-16462048D01*
X8167619Y-16481095D01*
X8148571Y-16490619D01*
X8339048Y-16452524D02*
X8348571Y-16443000D01*
X8367619Y-16433476D01*
X8415238Y-16433476D01*
X8434286Y-16443000D01*
X8443810Y-16452524D01*
X8453333Y-16471571D01*
X8453333Y-16490619D01*
X8443810Y-16519190D01*
X8329524Y-16633476D01*
X8453333Y-16633476D01*
X8624762Y-16433476D02*
X8586667Y-16433476D01*
X8567619Y-16443000D01*
X8558095Y-16452524D01*
X8539048Y-16481095D01*
X8529524Y-16519190D01*
X8529524Y-16595381D01*
X8539048Y-16614428D01*
X8548571Y-16623952D01*
X8567619Y-16633476D01*
X8605714Y-16633476D01*
X8624762Y-16623952D01*
X8634286Y-16614428D01*
X8643810Y-16595381D01*
X8643810Y-16547762D01*
X8634286Y-16528714D01*
X8624762Y-16519190D01*
X8605714Y-16509667D01*
X8567619Y-16509667D01*
X8548571Y-16519190D01*
X8539048Y-16528714D01*
X8529524Y-16547762D01*
X8767619Y-16433476D02*
X8786667Y-16433476D01*
X8805714Y-16443000D01*
X8815238Y-16452524D01*
X8824762Y-16471571D01*
X8834286Y-16509667D01*
X8834286Y-16557286D01*
X8824762Y-16595381D01*
X8815238Y-16614428D01*
X8805714Y-16623952D01*
X8786667Y-16633476D01*
X8767619Y-16633476D01*
X8748571Y-16623952D01*
X8739048Y-16614428D01*
X8729524Y-16595381D01*
X8720000Y-16557286D01*
X8720000Y-16509667D01*
X8729524Y-16471571D01*
X8739048Y-16452524D01*
X8748571Y-16443000D01*
X8767619Y-16433476D01*
X8910476Y-16433476D02*
X8910476Y-16471571D01*
X8986667Y-16433476D02*
X8986667Y-16471571D01*
X9281905Y-16709667D02*
X9272381Y-16700143D01*
X9253333Y-16671571D01*
X9243810Y-16652524D01*
X9234286Y-16623952D01*
X9224762Y-16576333D01*
X9224762Y-16538238D01*
X9234286Y-16490619D01*
X9243810Y-16462048D01*
X9253333Y-16443000D01*
X9272381Y-16414428D01*
X9281905Y-16404905D01*
X9443810Y-16500143D02*
X9443810Y-16633476D01*
X9396190Y-16423952D02*
X9348571Y-16566809D01*
X9472381Y-16566809D01*
X9700952Y-16633476D02*
X9700952Y-16433476D01*
X9786667Y-16633476D02*
X9786667Y-16528714D01*
X9777143Y-16509667D01*
X9758095Y-16500143D01*
X9729524Y-16500143D01*
X9710476Y-16509667D01*
X9700952Y-16519190D01*
X9910476Y-16633476D02*
X9891429Y-16623952D01*
X9881905Y-16614428D01*
X9872381Y-16595381D01*
X9872381Y-16538238D01*
X9881905Y-16519190D01*
X9891429Y-16509667D01*
X9910476Y-16500143D01*
X9939048Y-16500143D01*
X9958095Y-16509667D01*
X9967619Y-16519190D01*
X9977143Y-16538238D01*
X9977143Y-16595381D01*
X9967619Y-16614428D01*
X9958095Y-16623952D01*
X9939048Y-16633476D01*
X9910476Y-16633476D01*
X10091429Y-16633476D02*
X10072381Y-16623952D01*
X10062857Y-16604905D01*
X10062857Y-16433476D01*
X10243810Y-16623952D02*
X10224762Y-16633476D01*
X10186667Y-16633476D01*
X10167619Y-16623952D01*
X10158095Y-16604905D01*
X10158095Y-16528714D01*
X10167619Y-16509667D01*
X10186667Y-16500143D01*
X10224762Y-16500143D01*
X10243810Y-16509667D01*
X10253333Y-16528714D01*
X10253333Y-16547762D01*
X10158095Y-16566809D01*
X10329524Y-16623952D02*
X10348571Y-16633476D01*
X10386667Y-16633476D01*
X10405714Y-16623952D01*
X10415238Y-16604905D01*
X10415238Y-16595381D01*
X10405714Y-16576333D01*
X10386667Y-16566809D01*
X10358095Y-16566809D01*
X10339048Y-16557286D01*
X10329524Y-16538238D01*
X10329524Y-16528714D01*
X10339048Y-16509667D01*
X10358095Y-16500143D01*
X10386667Y-16500143D01*
X10405714Y-16509667D01*
X10481905Y-16709667D02*
X10491429Y-16700143D01*
X10510476Y-16671571D01*
X10520000Y-16652524D01*
X10529524Y-16623952D01*
X10539048Y-16576333D01*
X10539048Y-16538238D01*
X10529524Y-16490619D01*
X10520000Y-16462048D01*
X10510476Y-16443000D01*
X10491429Y-16414428D01*
X10481905Y-16404905D01*
X5710000Y-16863000D02*
G75*
G03*
X5710000Y-16863000I-100000J0D01*
G01*
X6062857Y-16753476D02*
X5967619Y-16753476D01*
X5958095Y-16848714D01*
X5967619Y-16839190D01*
X5986667Y-16829667D01*
X6034286Y-16829667D01*
X6053333Y-16839190D01*
X6062857Y-16848714D01*
X6072381Y-16867762D01*
X6072381Y-16915381D01*
X6062857Y-16934429D01*
X6053333Y-16943952D01*
X6034286Y-16953476D01*
X5986667Y-16953476D01*
X5967619Y-16943952D01*
X5958095Y-16934429D01*
X6158095Y-16934429D02*
X6167619Y-16943952D01*
X6158095Y-16953476D01*
X6148571Y-16943952D01*
X6158095Y-16934429D01*
X6158095Y-16953476D01*
X6348571Y-16753476D02*
X6253333Y-16753476D01*
X6243809Y-16848714D01*
X6253333Y-16839190D01*
X6272381Y-16829667D01*
X6320000Y-16829667D01*
X6339048Y-16839190D01*
X6348571Y-16848714D01*
X6358095Y-16867762D01*
X6358095Y-16915381D01*
X6348571Y-16934429D01*
X6339048Y-16943952D01*
X6320000Y-16953476D01*
X6272381Y-16953476D01*
X6253333Y-16943952D01*
X6243809Y-16934429D01*
X6481905Y-16753476D02*
X6500952Y-16753476D01*
X6520000Y-16763000D01*
X6529524Y-16772524D01*
X6539048Y-16791571D01*
X6548571Y-16829667D01*
X6548571Y-16877286D01*
X6539048Y-16915381D01*
X6529524Y-16934429D01*
X6520000Y-16943952D01*
X6500952Y-16953476D01*
X6481905Y-16953476D01*
X6462857Y-16943952D01*
X6453333Y-16934429D01*
X6443809Y-16915381D01*
X6434286Y-16877286D01*
X6434286Y-16829667D01*
X6443809Y-16791571D01*
X6453333Y-16772524D01*
X6462857Y-16763000D01*
X6481905Y-16753476D01*
X6672381Y-16753476D02*
X6691428Y-16753476D01*
X6710476Y-16763000D01*
X6720000Y-16772524D01*
X6729524Y-16791571D01*
X6739048Y-16829667D01*
X6739048Y-16877286D01*
X6729524Y-16915381D01*
X6720000Y-16934429D01*
X6710476Y-16943952D01*
X6691428Y-16953476D01*
X6672381Y-16953476D01*
X6653333Y-16943952D01*
X6643809Y-16934429D01*
X6634286Y-16915381D01*
X6624762Y-16877286D01*
X6624762Y-16829667D01*
X6634286Y-16791571D01*
X6643809Y-16772524D01*
X6653333Y-16763000D01*
X6672381Y-16753476D01*
X6824762Y-16953476D02*
X6824762Y-16820143D01*
X6824762Y-16839190D02*
X6834286Y-16829667D01*
X6853333Y-16820143D01*
X6881905Y-16820143D01*
X6900952Y-16829667D01*
X6910476Y-16848714D01*
X6910476Y-16953476D01*
X6910476Y-16848714D02*
X6920000Y-16829667D01*
X6939048Y-16820143D01*
X6967619Y-16820143D01*
X6986667Y-16829667D01*
X6996190Y-16848714D01*
X6996190Y-16953476D01*
X7091428Y-16953476D02*
X7091428Y-16820143D01*
X7091428Y-16839190D02*
X7100952Y-16829667D01*
X7120000Y-16820143D01*
X7148571Y-16820143D01*
X7167619Y-16829667D01*
X7177143Y-16848714D01*
X7177143Y-16953476D01*
X7177143Y-16848714D02*
X7186667Y-16829667D01*
X7205714Y-16820143D01*
X7234286Y-16820143D01*
X7253333Y-16829667D01*
X7262857Y-16848714D01*
X7262857Y-16953476D01*
X7653333Y-16743952D02*
X7481905Y-17001095D01*
X7910476Y-16753476D02*
X7929524Y-16753476D01*
X7948571Y-16763000D01*
X7958095Y-16772524D01*
X7967619Y-16791571D01*
X7977143Y-16829667D01*
X7977143Y-16877286D01*
X7967619Y-16915381D01*
X7958095Y-16934429D01*
X7948571Y-16943952D01*
X7929524Y-16953476D01*
X7910476Y-16953476D01*
X7891428Y-16943952D01*
X7881905Y-16934429D01*
X7872381Y-16915381D01*
X7862857Y-16877286D01*
X7862857Y-16829667D01*
X7872381Y-16791571D01*
X7881905Y-16772524D01*
X7891428Y-16763000D01*
X7910476Y-16753476D01*
X8062857Y-16934429D02*
X8072381Y-16943952D01*
X8062857Y-16953476D01*
X8053333Y-16943952D01*
X8062857Y-16934429D01*
X8062857Y-16953476D01*
X8148571Y-16772524D02*
X8158095Y-16763000D01*
X8177143Y-16753476D01*
X8224762Y-16753476D01*
X8243809Y-16763000D01*
X8253333Y-16772524D01*
X8262857Y-16791571D01*
X8262857Y-16810619D01*
X8253333Y-16839190D01*
X8139048Y-16953476D01*
X8262857Y-16953476D01*
X8453333Y-16953476D02*
X8339048Y-16953476D01*
X8396190Y-16953476D02*
X8396190Y-16753476D01*
X8377143Y-16782048D01*
X8358095Y-16801095D01*
X8339048Y-16810619D01*
X8624762Y-16753476D02*
X8586667Y-16753476D01*
X8567619Y-16763000D01*
X8558095Y-16772524D01*
X8539048Y-16801095D01*
X8529524Y-16839190D01*
X8529524Y-16915381D01*
X8539048Y-16934429D01*
X8548571Y-16943952D01*
X8567619Y-16953476D01*
X8605714Y-16953476D01*
X8624762Y-16943952D01*
X8634286Y-16934429D01*
X8643810Y-16915381D01*
X8643810Y-16867762D01*
X8634286Y-16848714D01*
X8624762Y-16839190D01*
X8605714Y-16829667D01*
X8567619Y-16829667D01*
X8548571Y-16839190D01*
X8539048Y-16848714D01*
X8529524Y-16867762D01*
X8824762Y-16753476D02*
X8729524Y-16753476D01*
X8720000Y-16848714D01*
X8729524Y-16839190D01*
X8748571Y-16829667D01*
X8796190Y-16829667D01*
X8815238Y-16839190D01*
X8824762Y-16848714D01*
X8834286Y-16867762D01*
X8834286Y-16915381D01*
X8824762Y-16934429D01*
X8815238Y-16943952D01*
X8796190Y-16953476D01*
X8748571Y-16953476D01*
X8729524Y-16943952D01*
X8720000Y-16934429D01*
X8910476Y-16753476D02*
X8910476Y-16791571D01*
X8986667Y-16753476D02*
X8986667Y-16791571D01*
X9281905Y-17029667D02*
X9272381Y-17020143D01*
X9253333Y-16991571D01*
X9243810Y-16972524D01*
X9234286Y-16943952D01*
X9224762Y-16896333D01*
X9224762Y-16858238D01*
X9234286Y-16810619D01*
X9243810Y-16782048D01*
X9253333Y-16763000D01*
X9272381Y-16734428D01*
X9281905Y-16724905D01*
X9462857Y-16953476D02*
X9348571Y-16953476D01*
X9405714Y-16953476D02*
X9405714Y-16753476D01*
X9386667Y-16782048D01*
X9367619Y-16801095D01*
X9348571Y-16810619D01*
X9586667Y-16753476D02*
X9605714Y-16753476D01*
X9624762Y-16763000D01*
X9634286Y-16772524D01*
X9643810Y-16791571D01*
X9653333Y-16829667D01*
X9653333Y-16877286D01*
X9643810Y-16915381D01*
X9634286Y-16934429D01*
X9624762Y-16943952D01*
X9605714Y-16953476D01*
X9586667Y-16953476D01*
X9567619Y-16943952D01*
X9558095Y-16934429D01*
X9548571Y-16915381D01*
X9539048Y-16877286D01*
X9539048Y-16829667D01*
X9548571Y-16791571D01*
X9558095Y-16772524D01*
X9567619Y-16763000D01*
X9586667Y-16753476D01*
X9891429Y-16953476D02*
X9891429Y-16753476D01*
X9977143Y-16953476D02*
X9977143Y-16848714D01*
X9967619Y-16829667D01*
X9948571Y-16820143D01*
X9920000Y-16820143D01*
X9900952Y-16829667D01*
X9891429Y-16839190D01*
X10100952Y-16953476D02*
X10081905Y-16943952D01*
X10072381Y-16934429D01*
X10062857Y-16915381D01*
X10062857Y-16858238D01*
X10072381Y-16839190D01*
X10081905Y-16829667D01*
X10100952Y-16820143D01*
X10129524Y-16820143D01*
X10148571Y-16829667D01*
X10158095Y-16839190D01*
X10167619Y-16858238D01*
X10167619Y-16915381D01*
X10158095Y-16934429D01*
X10148571Y-16943952D01*
X10129524Y-16953476D01*
X10100952Y-16953476D01*
X10281905Y-16953476D02*
X10262857Y-16943952D01*
X10253333Y-16924905D01*
X10253333Y-16753476D01*
X10434286Y-16943952D02*
X10415238Y-16953476D01*
X10377143Y-16953476D01*
X10358095Y-16943952D01*
X10348571Y-16924905D01*
X10348571Y-16848714D01*
X10358095Y-16829667D01*
X10377143Y-16820143D01*
X10415238Y-16820143D01*
X10434286Y-16829667D01*
X10443810Y-16848714D01*
X10443810Y-16867762D01*
X10348571Y-16886810D01*
X10520000Y-16943952D02*
X10539048Y-16953476D01*
X10577143Y-16953476D01*
X10596190Y-16943952D01*
X10605714Y-16924905D01*
X10605714Y-16915381D01*
X10596190Y-16896333D01*
X10577143Y-16886810D01*
X10548571Y-16886810D01*
X10529524Y-16877286D01*
X10520000Y-16858238D01*
X10520000Y-16848714D01*
X10529524Y-16829667D01*
X10548571Y-16820143D01*
X10577143Y-16820143D01*
X10596190Y-16829667D01*
X10672381Y-17029667D02*
X10681905Y-17020143D01*
X10700952Y-16991571D01*
X10710476Y-16972524D01*
X10720000Y-16943952D01*
X10729524Y-16896333D01*
X10729524Y-16858238D01*
X10720000Y-16810619D01*
X10710476Y-16782048D01*
X10700952Y-16763000D01*
X10681905Y-16734428D01*
X10672381Y-16724905D01*
M02*
