%TF.GenerationSoftware,KiCad,Pcbnew,(6.0.5)*%
%TF.CreationDate,2023-02-14T12:10:34-05:00*%
%TF.ProjectId,vco2,76636f32-2e6b-4696-9361-645f70636258,rev?*%
%TF.SameCoordinates,Original*%
%TF.FileFunction,Legend,Bot*%
%TF.FilePolarity,Positive*%
%FSLAX46Y46*%
G04 Gerber Fmt 4.6, Leading zero omitted, Abs format (unit mm)*
G04 Created by KiCad (PCBNEW (6.0.5)) date 2023-02-14 12:10:34*
%MOMM*%
%LPD*%
G01*
G04 APERTURE LIST*
%ADD10R,1.700000X1.700000*%
%ADD11C,1.620000*%
%ADD12R,1.500000X1.050000*%
%ADD13O,1.500000X1.050000*%
%ADD14R,1.600000X1.600000*%
%ADD15O,1.600000X1.600000*%
%ADD16O,1.700000X1.700000*%
%ADD17C,1.400000*%
%ADD18O,1.400000X1.400000*%
%ADD19R,1.050000X1.500000*%
%ADD20O,1.050000X1.500000*%
G04 APERTURE END LIST*
%LPC*%
D10*
%TO.C,J44*%
X130810000Y-105420000D03*
%TD*%
D11*
%TO.C,ROTrim1*%
X109220000Y-116840000D03*
X111720000Y-119340000D03*
X109220000Y-121840000D03*
%TD*%
D10*
%TO.C,J45*%
X130810000Y-107950000D03*
%TD*%
D11*
%TO.C,1v/Oct1*%
X126357500Y-75215000D03*
X123857500Y-77715000D03*
X121357500Y-75215000D03*
%TD*%
D12*
%TO.C,Q2*%
X107347500Y-85430000D03*
D13*
X107347500Y-84160000D03*
X107347500Y-82890000D03*
%TD*%
D10*
%TO.C,J40*%
X126397500Y-80350000D03*
%TD*%
%TO.C,J33*%
X116237500Y-57490000D03*
%TD*%
D14*
%TO.C,U2*%
X111760000Y-107950000D03*
D15*
X114300000Y-107950000D03*
X116840000Y-107950000D03*
X119380000Y-107950000D03*
X119380000Y-100330000D03*
X116840000Y-100330000D03*
X114300000Y-100330000D03*
X111760000Y-100330000D03*
%TD*%
D10*
%TO.C,J21*%
X131477500Y-71460000D03*
%TD*%
%TO.C,J43*%
X106077500Y-91780000D03*
%TD*%
%TO.C,J50*%
X106077500Y-57490000D03*
%TD*%
%TO.C,J0*%
X131467500Y-57490000D03*
D16*
X128927500Y-57490000D03*
X126387500Y-57490000D03*
X123847500Y-57490000D03*
%TD*%
D10*
%TO.C,J61*%
X103537500Y-57490000D03*
%TD*%
%TO.C,J42*%
X106077500Y-89240000D03*
%TD*%
D17*
%TO.C,R24*%
X109887500Y-86700000D03*
D18*
X109887500Y-81620000D03*
%TD*%
D10*
%TO.C,J71*%
X123190000Y-113030000D03*
%TD*%
%TO.C,J41*%
X126397500Y-82890000D03*
%TD*%
%TO.C,J46*%
X129540000Y-121920000D03*
%TD*%
%TO.C,J30*%
X108617500Y-57490000D03*
%TD*%
%TO.C,J23*%
X131477500Y-66380000D03*
%TD*%
%TO.C,J12*%
X118777500Y-57490000D03*
%TD*%
%TO.C,J60*%
X130810000Y-102880000D03*
%TD*%
D14*
%TO.C,U1*%
X116227500Y-68930000D03*
D15*
X113687500Y-68930000D03*
X111147500Y-68930000D03*
X108607500Y-68930000D03*
X108607500Y-76550000D03*
X111147500Y-76550000D03*
X113687500Y-76550000D03*
X116227500Y-76550000D03*
%TD*%
D14*
%TO.C,U3*%
X123180000Y-121930000D03*
D15*
X120640000Y-121930000D03*
X118100000Y-121930000D03*
X115560000Y-121930000D03*
X115560000Y-129550000D03*
X118100000Y-129550000D03*
X120640000Y-129550000D03*
X123180000Y-129550000D03*
%TD*%
D10*
%TO.C,J31*%
X111157500Y-57490000D03*
%TD*%
%TO.C,J70*%
X123190000Y-96520000D03*
%TD*%
%TO.C,J13*%
X131477500Y-63840000D03*
%TD*%
%TO.C,J32*%
X113697500Y-57490000D03*
%TD*%
D19*
%TO.C,Q3*%
X106077500Y-107020000D03*
D20*
X107347500Y-107020000D03*
X108617500Y-107020000D03*
%TD*%
D11*
%TO.C,HFTrim1*%
X120047500Y-80350000D03*
X122547500Y-82850000D03*
X120047500Y-85350000D03*
%TD*%
D10*
%TO.C,J11*%
X131477500Y-68920000D03*
%TD*%
%TO.C,J22*%
X121317500Y-57490000D03*
%TD*%
D12*
%TO.C,Q1*%
X113697500Y-85430000D03*
D13*
X113697500Y-84160000D03*
X113697500Y-82890000D03*
%TD*%
M02*
