%TF.GenerationSoftware,KiCad,Pcbnew,(6.0.5)*%
%TF.CreationDate,2023-02-14T12:10:34-05:00*%
%TF.ProjectId,vco2,76636f32-2e6b-4696-9361-645f70636258,rev?*%
%TF.SameCoordinates,Original*%
%TF.FileFunction,Copper,L2,Bot*%
%TF.FilePolarity,Positive*%
%FSLAX46Y46*%
G04 Gerber Fmt 4.6, Leading zero omitted, Abs format (unit mm)*
G04 Created by KiCad (PCBNEW (6.0.5)) date 2023-02-14 12:10:34*
%MOMM*%
%LPD*%
G01*
G04 APERTURE LIST*
%TA.AperFunction,ComponentPad*%
%ADD10R,1.700000X1.700000*%
%TD*%
%TA.AperFunction,ComponentPad*%
%ADD11C,1.620000*%
%TD*%
%TA.AperFunction,ComponentPad*%
%ADD12R,1.500000X1.050000*%
%TD*%
%TA.AperFunction,ComponentPad*%
%ADD13O,1.500000X1.050000*%
%TD*%
%TA.AperFunction,ComponentPad*%
%ADD14R,1.600000X1.600000*%
%TD*%
%TA.AperFunction,ComponentPad*%
%ADD15O,1.600000X1.600000*%
%TD*%
%TA.AperFunction,ComponentPad*%
%ADD16O,1.700000X1.700000*%
%TD*%
%TA.AperFunction,ComponentPad*%
%ADD17C,1.400000*%
%TD*%
%TA.AperFunction,ComponentPad*%
%ADD18O,1.400000X1.400000*%
%TD*%
%TA.AperFunction,ComponentPad*%
%ADD19R,1.050000X1.500000*%
%TD*%
%TA.AperFunction,ComponentPad*%
%ADD20O,1.050000X1.500000*%
%TD*%
%TA.AperFunction,Conductor*%
%ADD21C,1.000000*%
%TD*%
%TA.AperFunction,Conductor*%
%ADD22C,0.250000*%
%TD*%
G04 APERTURE END LIST*
D10*
%TO.P,J44,1,Pin_1*%
%TO.N,Net-(U2-Pad1)*%
X130810000Y-105420000D03*
%TD*%
D11*
%TO.P,ROTrim1,1,1*%
%TO.N,GND*%
X109220000Y-116840000D03*
%TO.P,ROTrim1,2,2*%
%TO.N,Net-(U3-Pad3)*%
X111720000Y-119340000D03*
%TO.P,ROTrim1,3,3*%
%TO.N,Net-(ROTrim1-Pad3)*%
X109220000Y-121840000D03*
%TD*%
D10*
%TO.P,J45,1,Pin_1*%
%TO.N,Net-(R12-Pad2)*%
X130810000Y-107950000D03*
%TD*%
D11*
%TO.P,1v/Oct1,1,1*%
%TO.N,Net-(C19-Pad2)*%
X126357500Y-75215000D03*
%TO.P,1v/Oct1,2,2*%
%TO.N,Net-(J40-Pad1)*%
X123857500Y-77715000D03*
%TO.P,1v/Oct1,3,3*%
%TO.N,Net-(R19-Pad1)*%
X121357500Y-75215000D03*
%TD*%
D12*
%TO.P,Q2,1,E*%
%TO.N,Net-(Q2-Pad1)*%
X107347500Y-85430000D03*
D13*
%TO.P,Q2,2,B*%
%TO.N,GND*%
X107347500Y-84160000D03*
%TO.P,Q2,3,C*%
%TO.N,+12V*%
X107347500Y-82890000D03*
%TD*%
D10*
%TO.P,J40,1,Pin_1*%
%TO.N,Net-(J40-Pad1)*%
X126397500Y-80350000D03*
%TD*%
%TO.P,J33,1,Pin_1*%
%TO.N,Net-(J33-Pad1)*%
X116237500Y-57490000D03*
%TD*%
D14*
%TO.P,U2,1*%
%TO.N,Net-(U2-Pad1)*%
X111760000Y-107950000D03*
D15*
%TO.P,U2,2,-*%
%TO.N,+12V*%
X114300000Y-107950000D03*
%TO.P,U2,3,+*%
%TO.N,GND*%
X116840000Y-107950000D03*
%TO.P,U2,4,V-*%
%TO.N,-12V*%
X119380000Y-107950000D03*
%TO.P,U2,5,+*%
%TO.N,Net-(R42-Pad2)*%
X119380000Y-100330000D03*
%TO.P,U2,6,-*%
%TO.N,Net-(U2-Pad6)*%
X116840000Y-100330000D03*
%TO.P,U2,7*%
%TO.N,Net-(C18-Pad2)*%
X114300000Y-100330000D03*
%TO.P,U2,8,V+*%
%TO.N,+12V*%
X111760000Y-100330000D03*
%TD*%
D10*
%TO.P,J21,1,Pin_1*%
%TO.N,Net-(R71-Pad2)*%
X131477500Y-71460000D03*
%TD*%
%TO.P,J43,1,Pin_1*%
%TO.N,+12V*%
X106077500Y-91780000D03*
%TD*%
%TO.P,J50,1,Pin_1*%
%TO.N,Net-(R30-Pad1)*%
X106077500Y-57490000D03*
%TD*%
%TO.P,J0,1,Pin_1*%
%TO.N,GND*%
X131467500Y-57490000D03*
D16*
%TO.P,J0,2,Pin_2*%
%TO.N,+12V*%
X128927500Y-57490000D03*
%TO.P,J0,3,Pin_3*%
%TO.N,-12V*%
X126387500Y-57490000D03*
%TO.P,J0,4,Pin_4*%
%TO.N,GND*%
X123847500Y-57490000D03*
%TD*%
D10*
%TO.P,J61,1,Pin_1*%
%TO.N,Net-(C5-Pad2)*%
X103537500Y-57490000D03*
%TD*%
%TO.P,J42,1,Pin_1*%
%TO.N,+12V*%
X106077500Y-89240000D03*
%TD*%
D17*
%TO.P,R24,1*%
%TO.N,Net-(C19-Pad2)*%
X109887500Y-86700000D03*
D18*
%TO.P,R24,2*%
%TO.N,Net-(R8-Pad1)*%
X109887500Y-81620000D03*
%TD*%
D10*
%TO.P,J71,1,Pin_1*%
%TO.N,Net-(R50-Pad1)*%
X123190000Y-113030000D03*
%TD*%
%TO.P,J41,1,Pin_1*%
%TO.N,Net-(D1-Pad1)*%
X126397500Y-82890000D03*
%TD*%
%TO.P,J46,1,Pin_1*%
%TO.N,+12V*%
X129540000Y-121920000D03*
%TD*%
%TO.P,J30,1,Pin_1*%
%TO.N,Net-(J30-Pad1)*%
X108617500Y-57490000D03*
%TD*%
%TO.P,J23,1,Pin_1*%
%TO.N,Net-(R65-Pad1)*%
X131477500Y-66380000D03*
%TD*%
%TO.P,J12,1,Pin_1*%
%TO.N,Net-(J12-Pad1)*%
X118777500Y-57490000D03*
%TD*%
%TO.P,J60,1,Pin_1*%
%TO.N,Net-(U2-Pad1)*%
X130810000Y-102880000D03*
%TD*%
D14*
%TO.P,U1,1*%
%TO.N,Net-(C19-Pad2)*%
X116227500Y-68930000D03*
D15*
%TO.P,U1,2,-*%
%TO.N,Net-(R8-Pad1)*%
X113687500Y-68930000D03*
%TO.P,U1,3,+*%
%TO.N,GND*%
X111147500Y-68930000D03*
%TO.P,U1,4,V-*%
%TO.N,-12V*%
X108607500Y-68930000D03*
%TO.P,U1,5,+*%
%TO.N,GND*%
X108607500Y-76550000D03*
%TO.P,U1,6,-*%
%TO.N,Net-(Q1-Pad3)*%
X111147500Y-76550000D03*
%TO.P,U1,7*%
%TO.N,Net-(HFTrim1-Pad1)*%
X113687500Y-76550000D03*
%TO.P,U1,8,V+*%
%TO.N,+12V*%
X116227500Y-76550000D03*
%TD*%
D14*
%TO.P,U3,1*%
%TO.N,+12V*%
X123180000Y-121930000D03*
D15*
%TO.P,U3,2,-*%
%TO.N,Net-(U3-Pad2)*%
X120640000Y-121930000D03*
%TO.P,U3,3,+*%
%TO.N,Net-(U3-Pad3)*%
X118100000Y-121930000D03*
%TO.P,U3,4,V-*%
%TO.N,-12V*%
X115560000Y-121930000D03*
%TO.P,U3,5*%
%TO.N,N/C*%
X115560000Y-129550000D03*
%TO.P,U3,6*%
X118100000Y-129550000D03*
%TO.P,U3,7*%
X120640000Y-129550000D03*
%TO.P,U3,8,V+*%
%TO.N,+12V*%
X123180000Y-129550000D03*
%TD*%
D10*
%TO.P,J31,1,Pin_1*%
%TO.N,Net-(J31-Pad1)*%
X111157500Y-57490000D03*
%TD*%
%TO.P,J70,1,Pin_1*%
%TO.N,Net-(C17-Pad1)*%
X123190000Y-96520000D03*
%TD*%
%TO.P,J13,1,Pin_1*%
%TO.N,Net-(R57-Pad1)*%
X131477500Y-63840000D03*
%TD*%
%TO.P,J32,1,Pin_1*%
%TO.N,Net-(J32-Pad1)*%
X113697500Y-57490000D03*
%TD*%
D19*
%TO.P,Q3,1,E*%
%TO.N,+12V*%
X106077500Y-107020000D03*
D20*
%TO.P,Q3,2,B*%
%TO.N,Net-(Q3-Pad2)*%
X107347500Y-107020000D03*
%TO.P,Q3,3,C*%
%TO.N,Net-(U2-Pad1)*%
X108617500Y-107020000D03*
%TD*%
D11*
%TO.P,HFTrim1,1,1*%
%TO.N,Net-(HFTrim1-Pad1)*%
X120047500Y-80350000D03*
%TO.P,HFTrim1,2,2*%
%TO.N,Net-(HFTrim1-Pad2)*%
X122547500Y-82850000D03*
%TO.P,HFTrim1,3,3*%
X120047500Y-85350000D03*
%TD*%
D10*
%TO.P,J11,1,Pin_1*%
%TO.N,Net-(R56-Pad2)*%
X131477500Y-68920000D03*
%TD*%
%TO.P,J22,1,Pin_1*%
%TO.N,Net-(J22-Pad1)*%
X121317500Y-57490000D03*
%TD*%
D12*
%TO.P,Q1,1,E*%
%TO.N,Net-(Q2-Pad1)*%
X113697500Y-85430000D03*
D13*
%TO.P,Q1,2,B*%
%TO.N,Net-(D1-Pad1)*%
X113697500Y-84160000D03*
%TO.P,Q1,3,C*%
%TO.N,Net-(Q1-Pad3)*%
X113697500Y-82890000D03*
%TD*%
D21*
%TO.N,+12V*%
X105410000Y-102870000D02*
X110490000Y-102870000D01*
X104902989Y-102362989D02*
X105410000Y-102870000D01*
X105410000Y-73660000D02*
X104902989Y-74167011D01*
X116840000Y-73660000D02*
X105410000Y-73660000D01*
X104902989Y-74167011D02*
X104902989Y-102362989D01*
X128927500Y-73002500D02*
X128270000Y-73660000D01*
X123180000Y-128280000D02*
X123180000Y-129550000D01*
X127000000Y-127000000D02*
X124460000Y-127000000D01*
D22*
X116840000Y-73660000D02*
X116227500Y-74272500D01*
D21*
X110490000Y-102870000D02*
X125730000Y-102870000D01*
X110490000Y-102870000D02*
X111760000Y-101600000D01*
X128927500Y-57490000D02*
X128927500Y-73002500D01*
X111760000Y-101600000D02*
X111760000Y-100330000D01*
X124460000Y-127000000D02*
X123180000Y-128280000D01*
X128270000Y-73660000D02*
X116840000Y-73660000D01*
X125730000Y-102870000D02*
X128270000Y-105410000D01*
X128270000Y-125730000D02*
X127000000Y-127000000D01*
X128270000Y-105410000D02*
X128270000Y-125730000D01*
X116227500Y-74272500D02*
X116227500Y-76550000D01*
%TO.N,-12V*%
X118110000Y-105410000D02*
X124460000Y-105410000D01*
X102870000Y-104140000D02*
X104140000Y-105410000D01*
X115560000Y-123180000D02*
X115560000Y-121930000D01*
X116840000Y-124460000D02*
X115560000Y-123180000D01*
X125730000Y-71120000D02*
X109220000Y-71120000D01*
X126387500Y-70462500D02*
X125730000Y-71120000D01*
X102870000Y-72390000D02*
X102870000Y-104140000D01*
X124460000Y-105410000D02*
X125730000Y-106680000D01*
X104140000Y-105410000D02*
X118110000Y-105410000D01*
X119380000Y-106680000D02*
X119380000Y-107950000D01*
X109220000Y-71120000D02*
X108607500Y-70507500D01*
X126387500Y-57490000D02*
X126387500Y-70462500D01*
X109220000Y-71120000D02*
X104140000Y-71120000D01*
X104140000Y-71120000D02*
X102870000Y-72390000D01*
X118110000Y-105410000D02*
X119380000Y-106680000D01*
X108607500Y-70507500D02*
X108607500Y-68930000D01*
X124460000Y-124460000D02*
X116840000Y-124460000D01*
X125730000Y-106680000D02*
X125730000Y-123190000D01*
X125730000Y-123190000D02*
X124460000Y-124460000D01*
%TD*%
%TA.AperFunction,Conductor*%
%TO.N,GND*%
G36*
X132783621Y-55138502D02*
G01*
X132830114Y-55192158D01*
X132841500Y-55244500D01*
X132841500Y-56145940D01*
X132821498Y-56214061D01*
X132767842Y-56260554D01*
X132697568Y-56270658D01*
X132639935Y-56246767D01*
X132571144Y-56195211D01*
X132555554Y-56186676D01*
X132435106Y-56141522D01*
X132419851Y-56137895D01*
X132368986Y-56132369D01*
X132362172Y-56132000D01*
X131739615Y-56132000D01*
X131724376Y-56136475D01*
X131723171Y-56137865D01*
X131721500Y-56145548D01*
X131721500Y-58829884D01*
X131725975Y-58845123D01*
X131727365Y-58846328D01*
X131735048Y-58847999D01*
X132362169Y-58847999D01*
X132368990Y-58847629D01*
X132419852Y-58842105D01*
X132435104Y-58838479D01*
X132555554Y-58793324D01*
X132571144Y-58784789D01*
X132639935Y-58733233D01*
X132706442Y-58708386D01*
X132775824Y-58723439D01*
X132826054Y-58773614D01*
X132841500Y-58834060D01*
X132841500Y-62487821D01*
X132821498Y-62555942D01*
X132767842Y-62602435D01*
X132697568Y-62612539D01*
X132639935Y-62588647D01*
X132596297Y-62555942D01*
X132574205Y-62539385D01*
X132437816Y-62488255D01*
X132375634Y-62481500D01*
X130579366Y-62481500D01*
X130517184Y-62488255D01*
X130380795Y-62539385D01*
X130264239Y-62626739D01*
X130176885Y-62743295D01*
X130173736Y-62751696D01*
X130172519Y-62753918D01*
X130122260Y-62804064D01*
X130052869Y-62819077D01*
X129986377Y-62794191D01*
X129943895Y-62737307D01*
X129936000Y-62693408D01*
X129936000Y-58653804D01*
X129956002Y-58585683D01*
X130009658Y-58539190D01*
X130079932Y-58529086D01*
X130144512Y-58558580D01*
X130167128Y-58586612D01*
X130167328Y-58586462D01*
X130171521Y-58592057D01*
X130172520Y-58593295D01*
X130172712Y-58593646D01*
X130249215Y-58695724D01*
X130261776Y-58708285D01*
X130363851Y-58784786D01*
X130379446Y-58793324D01*
X130499894Y-58838478D01*
X130515149Y-58842105D01*
X130566014Y-58847631D01*
X130572828Y-58848000D01*
X131195385Y-58848000D01*
X131210624Y-58843525D01*
X131211829Y-58842135D01*
X131213500Y-58834452D01*
X131213500Y-56150116D01*
X131209025Y-56134877D01*
X131207635Y-56133672D01*
X131199952Y-56132001D01*
X130572831Y-56132001D01*
X130566010Y-56132371D01*
X130515148Y-56137895D01*
X130499896Y-56141521D01*
X130379446Y-56186676D01*
X130363851Y-56195214D01*
X130261776Y-56271715D01*
X130249215Y-56284276D01*
X130172714Y-56386351D01*
X130164176Y-56401946D01*
X130122797Y-56512322D01*
X130080155Y-56569087D01*
X130013593Y-56593786D01*
X129944244Y-56578578D01*
X129911621Y-56552891D01*
X129860651Y-56496876D01*
X129860645Y-56496870D01*
X129857170Y-56493051D01*
X129853119Y-56489852D01*
X129853115Y-56489848D01*
X129685914Y-56357800D01*
X129685910Y-56357798D01*
X129681859Y-56354598D01*
X129645528Y-56334542D01*
X129629636Y-56325769D01*
X129486289Y-56246638D01*
X129481420Y-56244914D01*
X129481416Y-56244912D01*
X129280587Y-56173795D01*
X129280583Y-56173794D01*
X129275712Y-56172069D01*
X129270619Y-56171162D01*
X129270616Y-56171161D01*
X129060873Y-56133800D01*
X129060867Y-56133799D01*
X129055784Y-56132894D01*
X128981952Y-56131992D01*
X128837581Y-56130228D01*
X128837579Y-56130228D01*
X128832411Y-56130165D01*
X128611591Y-56163955D01*
X128399256Y-56233357D01*
X128201107Y-56336507D01*
X128196974Y-56339610D01*
X128196971Y-56339612D01*
X128113950Y-56401946D01*
X128022465Y-56470635D01*
X127997041Y-56497240D01*
X127914611Y-56583498D01*
X127868129Y-56632138D01*
X127760701Y-56789621D01*
X127705793Y-56834621D01*
X127635268Y-56842792D01*
X127571521Y-56811538D01*
X127550824Y-56787054D01*
X127470322Y-56662617D01*
X127470320Y-56662614D01*
X127467514Y-56658277D01*
X127317170Y-56493051D01*
X127313119Y-56489852D01*
X127313115Y-56489848D01*
X127145914Y-56357800D01*
X127145910Y-56357798D01*
X127141859Y-56354598D01*
X127105528Y-56334542D01*
X127089636Y-56325769D01*
X126946289Y-56246638D01*
X126941420Y-56244914D01*
X126941416Y-56244912D01*
X126740587Y-56173795D01*
X126740583Y-56173794D01*
X126735712Y-56172069D01*
X126730619Y-56171162D01*
X126730616Y-56171161D01*
X126520873Y-56133800D01*
X126520867Y-56133799D01*
X126515784Y-56132894D01*
X126441952Y-56131992D01*
X126297581Y-56130228D01*
X126297579Y-56130228D01*
X126292411Y-56130165D01*
X126071591Y-56163955D01*
X125859256Y-56233357D01*
X125661107Y-56336507D01*
X125656974Y-56339610D01*
X125656971Y-56339612D01*
X125573950Y-56401946D01*
X125482465Y-56470635D01*
X125457041Y-56497240D01*
X125374611Y-56583498D01*
X125328129Y-56632138D01*
X125220704Y-56789618D01*
X125220398Y-56790066D01*
X125165487Y-56835069D01*
X125094962Y-56843240D01*
X125031215Y-56811986D01*
X125010518Y-56787502D01*
X124929926Y-56662926D01*
X124923636Y-56654757D01*
X124780306Y-56497240D01*
X124772773Y-56490215D01*
X124605639Y-56358222D01*
X124597052Y-56352517D01*
X124410617Y-56249599D01*
X124401205Y-56245369D01*
X124200459Y-56174280D01*
X124190488Y-56171646D01*
X124119337Y-56158972D01*
X124106040Y-56160432D01*
X124101500Y-56174989D01*
X124101500Y-58808517D01*
X124105564Y-58822359D01*
X124118978Y-58824393D01*
X124125684Y-58823534D01*
X124135762Y-58821392D01*
X124339755Y-58760191D01*
X124349342Y-58756433D01*
X124540595Y-58662739D01*
X124549445Y-58657464D01*
X124722828Y-58533792D01*
X124730700Y-58527139D01*
X124881552Y-58376812D01*
X124888230Y-58368965D01*
X125015522Y-58191819D01*
X125016779Y-58192722D01*
X125063873Y-58149362D01*
X125133811Y-58137145D01*
X125199251Y-58164678D01*
X125227079Y-58196511D01*
X125287487Y-58295088D01*
X125290867Y-58298990D01*
X125348237Y-58365219D01*
X125377720Y-58429804D01*
X125379000Y-58447717D01*
X125379000Y-69985500D01*
X125358998Y-70053621D01*
X125305342Y-70100114D01*
X125253000Y-70111500D01*
X117609381Y-70111500D01*
X117541260Y-70091498D01*
X117494767Y-70037842D01*
X117484663Y-69967568D01*
X117491399Y-69941270D01*
X117526471Y-69847715D01*
X117529245Y-69840316D01*
X117536000Y-69778134D01*
X117536000Y-68081866D01*
X117529245Y-68019684D01*
X117478115Y-67883295D01*
X117390761Y-67766739D01*
X117274205Y-67679385D01*
X117137816Y-67628255D01*
X117075634Y-67621500D01*
X115379366Y-67621500D01*
X115317184Y-67628255D01*
X115180795Y-67679385D01*
X115064239Y-67766739D01*
X114976885Y-67883295D01*
X114925755Y-68019684D01*
X114924583Y-68030474D01*
X114923697Y-68032606D01*
X114923075Y-68035222D01*
X114922652Y-68035121D01*
X114897345Y-68096035D01*
X114838983Y-68136463D01*
X114768029Y-68138922D01*
X114707010Y-68102629D01*
X114700011Y-68093969D01*
X114696854Y-68090207D01*
X114693698Y-68085700D01*
X114531800Y-67923802D01*
X114527292Y-67920645D01*
X114527289Y-67920643D01*
X114449111Y-67865902D01*
X114344249Y-67792477D01*
X114339267Y-67790154D01*
X114339262Y-67790151D01*
X114141725Y-67698039D01*
X114141724Y-67698039D01*
X114136743Y-67695716D01*
X114131435Y-67694294D01*
X114131433Y-67694293D01*
X113920902Y-67637881D01*
X113920900Y-67637881D01*
X113915587Y-67636457D01*
X113687500Y-67616502D01*
X113459413Y-67636457D01*
X113454100Y-67637881D01*
X113454098Y-67637881D01*
X113243567Y-67694293D01*
X113243565Y-67694294D01*
X113238257Y-67695716D01*
X113233276Y-67698039D01*
X113233275Y-67698039D01*
X113035738Y-67790151D01*
X113035733Y-67790154D01*
X113030751Y-67792477D01*
X112925889Y-67865902D01*
X112847711Y-67920643D01*
X112847708Y-67920645D01*
X112843200Y-67923802D01*
X112681302Y-68085700D01*
X112549977Y-68273251D01*
X112547654Y-68278233D01*
X112547651Y-68278238D01*
X112531419Y-68313049D01*
X112484502Y-68366334D01*
X112416225Y-68385795D01*
X112348265Y-68365253D01*
X112303029Y-68313049D01*
X112286914Y-68278489D01*
X112281431Y-68268993D01*
X112156472Y-68090533D01*
X112149416Y-68082125D01*
X111995375Y-67928084D01*
X111986967Y-67921028D01*
X111808507Y-67796069D01*
X111799011Y-67790586D01*
X111601553Y-67698510D01*
X111591261Y-67694764D01*
X111418997Y-67648606D01*
X111404901Y-67648942D01*
X111401500Y-67656884D01*
X111401500Y-69058000D01*
X111381498Y-69126121D01*
X111327842Y-69172614D01*
X111275500Y-69184000D01*
X111019500Y-69184000D01*
X110951379Y-69163998D01*
X110904886Y-69110342D01*
X110893500Y-69058000D01*
X110893500Y-67662033D01*
X110889527Y-67648502D01*
X110880978Y-67647273D01*
X110703739Y-67694764D01*
X110693447Y-67698510D01*
X110495989Y-67790586D01*
X110486493Y-67796069D01*
X110308033Y-67921028D01*
X110299625Y-67928084D01*
X110145584Y-68082125D01*
X110138528Y-68090533D01*
X110013569Y-68268993D01*
X110008086Y-68278489D01*
X109991971Y-68313049D01*
X109945054Y-68366334D01*
X109876777Y-68385795D01*
X109808817Y-68365253D01*
X109763581Y-68313049D01*
X109747349Y-68278238D01*
X109747346Y-68278233D01*
X109745023Y-68273251D01*
X109613698Y-68085700D01*
X109451800Y-67923802D01*
X109447292Y-67920645D01*
X109447289Y-67920643D01*
X109369111Y-67865902D01*
X109264249Y-67792477D01*
X109259267Y-67790154D01*
X109259262Y-67790151D01*
X109061725Y-67698039D01*
X109061724Y-67698039D01*
X109056743Y-67695716D01*
X109051435Y-67694294D01*
X109051433Y-67694293D01*
X108840902Y-67637881D01*
X108840900Y-67637881D01*
X108835587Y-67636457D01*
X108607500Y-67616502D01*
X108379413Y-67636457D01*
X108374100Y-67637881D01*
X108374098Y-67637881D01*
X108163567Y-67694293D01*
X108163565Y-67694294D01*
X108158257Y-67695716D01*
X108153276Y-67698039D01*
X108153275Y-67698039D01*
X107955738Y-67790151D01*
X107955733Y-67790154D01*
X107950751Y-67792477D01*
X107845889Y-67865902D01*
X107767711Y-67920643D01*
X107767708Y-67920645D01*
X107763200Y-67923802D01*
X107601302Y-68085700D01*
X107469977Y-68273251D01*
X107467654Y-68278233D01*
X107467651Y-68278238D01*
X107467534Y-68278489D01*
X107373216Y-68480757D01*
X107313957Y-68701913D01*
X107294002Y-68930000D01*
X107313957Y-69158087D01*
X107315381Y-69163400D01*
X107315381Y-69163402D01*
X107317850Y-69172614D01*
X107373216Y-69379243D01*
X107375539Y-69384224D01*
X107375539Y-69384225D01*
X107467651Y-69581762D01*
X107467654Y-69581767D01*
X107469977Y-69586749D01*
X107473134Y-69591257D01*
X107576213Y-69738469D01*
X107599000Y-69810740D01*
X107599000Y-69985500D01*
X107578998Y-70053621D01*
X107525342Y-70100114D01*
X107473000Y-70111500D01*
X104201842Y-70111500D01*
X104188235Y-70110763D01*
X104156737Y-70107341D01*
X104156732Y-70107341D01*
X104150611Y-70106676D01*
X104132611Y-70108251D01*
X104100609Y-70111050D01*
X104095784Y-70111379D01*
X104093313Y-70111500D01*
X104090231Y-70111500D01*
X104067763Y-70113703D01*
X104047489Y-70115691D01*
X104046174Y-70115813D01*
X104013913Y-70118636D01*
X103953587Y-70123913D01*
X103948468Y-70125400D01*
X103943167Y-70125920D01*
X103854194Y-70152782D01*
X103853054Y-70153120D01*
X103763663Y-70179091D01*
X103758929Y-70181545D01*
X103753831Y-70183084D01*
X103748387Y-70185978D01*
X103748386Y-70185979D01*
X103671831Y-70226684D01*
X103670663Y-70227298D01*
X103633158Y-70246739D01*
X103588074Y-70270108D01*
X103583911Y-70273431D01*
X103579204Y-70275934D01*
X103507082Y-70334755D01*
X103506226Y-70335446D01*
X103467027Y-70366738D01*
X103464523Y-70369242D01*
X103463805Y-70369884D01*
X103459472Y-70373585D01*
X103425938Y-70400935D01*
X103422011Y-70405682D01*
X103422009Y-70405684D01*
X103396713Y-70436262D01*
X103388723Y-70445042D01*
X102200621Y-71633145D01*
X102190478Y-71642247D01*
X102160975Y-71665968D01*
X102157008Y-71670696D01*
X102128709Y-71704421D01*
X102125528Y-71708069D01*
X102123885Y-71709881D01*
X102121691Y-71712075D01*
X102094358Y-71745349D01*
X102093696Y-71746147D01*
X102033846Y-71817474D01*
X102031278Y-71822144D01*
X102027897Y-71826261D01*
X102002696Y-71873262D01*
X101984023Y-71908086D01*
X101983394Y-71909245D01*
X101941538Y-71985381D01*
X101941535Y-71985389D01*
X101938567Y-71990787D01*
X101936955Y-71995869D01*
X101934438Y-72000563D01*
X101907238Y-72089531D01*
X101906918Y-72090559D01*
X101878765Y-72179306D01*
X101878171Y-72184602D01*
X101876613Y-72189698D01*
X101875990Y-72195834D01*
X101867218Y-72282187D01*
X101867089Y-72283393D01*
X101861500Y-72333227D01*
X101861500Y-72336754D01*
X101861445Y-72337739D01*
X101860998Y-72343419D01*
X101856626Y-72386462D01*
X101857206Y-72392593D01*
X101860941Y-72432109D01*
X101861500Y-72443967D01*
X101861500Y-104078157D01*
X101860763Y-104091764D01*
X101860601Y-104093261D01*
X101856676Y-104129388D01*
X101857213Y-104135523D01*
X101861050Y-104179388D01*
X101861379Y-104184214D01*
X101861500Y-104186686D01*
X101861500Y-104189769D01*
X101861801Y-104192837D01*
X101865690Y-104232506D01*
X101865812Y-104233819D01*
X101873913Y-104326413D01*
X101875400Y-104331532D01*
X101875920Y-104336833D01*
X101902791Y-104425834D01*
X101903126Y-104426967D01*
X101918118Y-104478567D01*
X101929091Y-104516336D01*
X101931544Y-104521068D01*
X101933084Y-104526169D01*
X101935978Y-104531612D01*
X101976731Y-104608260D01*
X101977343Y-104609426D01*
X102006354Y-104665392D01*
X102020108Y-104691926D01*
X102023431Y-104696089D01*
X102025934Y-104700796D01*
X102029830Y-104705573D01*
X102034393Y-104711168D01*
X102084755Y-104772918D01*
X102085446Y-104773774D01*
X102116738Y-104812973D01*
X102119242Y-104815477D01*
X102119884Y-104816195D01*
X102123585Y-104820528D01*
X102150935Y-104854062D01*
X102155682Y-104857989D01*
X102155684Y-104857991D01*
X102186262Y-104883287D01*
X102195042Y-104891277D01*
X103383145Y-106079379D01*
X103392247Y-106089522D01*
X103415968Y-106119025D01*
X103454456Y-106151320D01*
X103458075Y-106154478D01*
X103459890Y-106156124D01*
X103462075Y-106158309D01*
X103464455Y-106160264D01*
X103464465Y-106160273D01*
X103495236Y-106185549D01*
X103496251Y-106186391D01*
X103531182Y-106215702D01*
X103567474Y-106246154D01*
X103572148Y-106248723D01*
X103576261Y-106252102D01*
X103654086Y-106293831D01*
X103658047Y-106295955D01*
X103659177Y-106296568D01*
X103740787Y-106341433D01*
X103745869Y-106343045D01*
X103750563Y-106345562D01*
X103839531Y-106372762D01*
X103840559Y-106373082D01*
X103929306Y-106401235D01*
X103934602Y-106401829D01*
X103939698Y-106403387D01*
X104032257Y-106412790D01*
X104033393Y-106412911D01*
X104067008Y-106416681D01*
X104079730Y-106418108D01*
X104079734Y-106418108D01*
X104083227Y-106418500D01*
X104086754Y-106418500D01*
X104087739Y-106418555D01*
X104093419Y-106419002D01*
X104122825Y-106421989D01*
X104130337Y-106422752D01*
X104130339Y-106422752D01*
X104136462Y-106423374D01*
X104182108Y-106419059D01*
X104193967Y-106418500D01*
X104918000Y-106418500D01*
X104986121Y-106438502D01*
X105032614Y-106492158D01*
X105044000Y-106544500D01*
X105044000Y-107818134D01*
X105050755Y-107880316D01*
X105101885Y-108016705D01*
X105189239Y-108133261D01*
X105305795Y-108220615D01*
X105442184Y-108271745D01*
X105504366Y-108278500D01*
X106650634Y-108278500D01*
X106712816Y-108271745D01*
X106754123Y-108256260D01*
X106840796Y-108223768D01*
X106840799Y-108223766D01*
X106849205Y-108220615D01*
X106856394Y-108215227D01*
X106856637Y-108215094D01*
X106925994Y-108199924D01*
X106954407Y-108205248D01*
X107138680Y-108262290D01*
X107144805Y-108262934D01*
X107144806Y-108262934D01*
X107334122Y-108282832D01*
X107334123Y-108282832D01*
X107340250Y-108283476D01*
X107423514Y-108275898D01*
X107535957Y-108265665D01*
X107535960Y-108265664D01*
X107542096Y-108265106D01*
X107548002Y-108263368D01*
X107548006Y-108263367D01*
X107730620Y-108209620D01*
X107730619Y-108209620D01*
X107736529Y-108207881D01*
X107741986Y-108205028D01*
X107741989Y-108205027D01*
X107879265Y-108133261D01*
X107915960Y-108114077D01*
X107915962Y-108114077D01*
X107916145Y-108113981D01*
X107916163Y-108114016D01*
X107981941Y-108094111D01*
X108042909Y-108109271D01*
X108215065Y-108202356D01*
X108284233Y-108223767D01*
X108402793Y-108260468D01*
X108402796Y-108260469D01*
X108408680Y-108262290D01*
X108414805Y-108262934D01*
X108414806Y-108262934D01*
X108604122Y-108282832D01*
X108604123Y-108282832D01*
X108610250Y-108283476D01*
X108693514Y-108275898D01*
X108805957Y-108265665D01*
X108805960Y-108265664D01*
X108812096Y-108265106D01*
X108818002Y-108263368D01*
X108818006Y-108263367D01*
X109000620Y-108209620D01*
X109000619Y-108209620D01*
X109006529Y-108207881D01*
X109011986Y-108205028D01*
X109011989Y-108205027D01*
X109149265Y-108133261D01*
X109186145Y-108113981D01*
X109344101Y-107986981D01*
X109474381Y-107831719D01*
X109477345Y-107826327D01*
X109477348Y-107826323D01*
X109569056Y-107659506D01*
X109572023Y-107654109D01*
X109633307Y-107460916D01*
X109651000Y-107303183D01*
X109651000Y-106743996D01*
X109636223Y-106593287D01*
X109634277Y-106586840D01*
X109632488Y-106580914D01*
X109631949Y-106509920D01*
X109669879Y-106449904D01*
X109734234Y-106419922D01*
X109753111Y-106418500D01*
X110767504Y-106418500D01*
X110835625Y-106438502D01*
X110882118Y-106492158D01*
X110892222Y-106562432D01*
X110862728Y-106627012D01*
X110811733Y-106662482D01*
X110721705Y-106696232D01*
X110721704Y-106696233D01*
X110713295Y-106699385D01*
X110596739Y-106786739D01*
X110509385Y-106903295D01*
X110458255Y-107039684D01*
X110451500Y-107101866D01*
X110451500Y-108798134D01*
X110458255Y-108860316D01*
X110509385Y-108996705D01*
X110596739Y-109113261D01*
X110713295Y-109200615D01*
X110849684Y-109251745D01*
X110911866Y-109258500D01*
X112608134Y-109258500D01*
X112670316Y-109251745D01*
X112806705Y-109200615D01*
X112923261Y-109113261D01*
X113010615Y-108996705D01*
X113061745Y-108860316D01*
X113062917Y-108849526D01*
X113063803Y-108847394D01*
X113064425Y-108844778D01*
X113064848Y-108844879D01*
X113090155Y-108783965D01*
X113148517Y-108743537D01*
X113219471Y-108741078D01*
X113280490Y-108777371D01*
X113287489Y-108786031D01*
X113290643Y-108789789D01*
X113293802Y-108794300D01*
X113455700Y-108956198D01*
X113460208Y-108959355D01*
X113460211Y-108959357D01*
X113501542Y-108988297D01*
X113643251Y-109087523D01*
X113648233Y-109089846D01*
X113648238Y-109089849D01*
X113817212Y-109168642D01*
X113850757Y-109184284D01*
X113856065Y-109185706D01*
X113856067Y-109185707D01*
X114066598Y-109242119D01*
X114066600Y-109242119D01*
X114071913Y-109243543D01*
X114300000Y-109263498D01*
X114528087Y-109243543D01*
X114533400Y-109242119D01*
X114533402Y-109242119D01*
X114743933Y-109185707D01*
X114743935Y-109185706D01*
X114749243Y-109184284D01*
X114782788Y-109168642D01*
X114951762Y-109089849D01*
X114951767Y-109089846D01*
X114956749Y-109087523D01*
X115098458Y-108988297D01*
X115139789Y-108959357D01*
X115139792Y-108959355D01*
X115144300Y-108956198D01*
X115306198Y-108794300D01*
X115437523Y-108606749D01*
X115439846Y-108601767D01*
X115439849Y-108601762D01*
X115456081Y-108566951D01*
X115502998Y-108513666D01*
X115571275Y-108494205D01*
X115639235Y-108514747D01*
X115684471Y-108566951D01*
X115700586Y-108601511D01*
X115706069Y-108611007D01*
X115831028Y-108789467D01*
X115838084Y-108797875D01*
X115992125Y-108951916D01*
X116000533Y-108958972D01*
X116178993Y-109083931D01*
X116188489Y-109089414D01*
X116385947Y-109181490D01*
X116396239Y-109185236D01*
X116568503Y-109231394D01*
X116582599Y-109231058D01*
X116586000Y-109223116D01*
X116586000Y-107822000D01*
X116606002Y-107753879D01*
X116659658Y-107707386D01*
X116712000Y-107696000D01*
X116968000Y-107696000D01*
X117036121Y-107716002D01*
X117082614Y-107769658D01*
X117094000Y-107822000D01*
X117094000Y-109217967D01*
X117097973Y-109231498D01*
X117106522Y-109232727D01*
X117283761Y-109185236D01*
X117294053Y-109181490D01*
X117491511Y-109089414D01*
X117501007Y-109083931D01*
X117679467Y-108958972D01*
X117687875Y-108951916D01*
X117841916Y-108797875D01*
X117848972Y-108789467D01*
X117973931Y-108611007D01*
X117979414Y-108601511D01*
X117995529Y-108566951D01*
X118042446Y-108513666D01*
X118110723Y-108494205D01*
X118178683Y-108514747D01*
X118223919Y-108566951D01*
X118240151Y-108601762D01*
X118240154Y-108601767D01*
X118242477Y-108606749D01*
X118373802Y-108794300D01*
X118535700Y-108956198D01*
X118540208Y-108959355D01*
X118540211Y-108959357D01*
X118581542Y-108988297D01*
X118723251Y-109087523D01*
X118728233Y-109089846D01*
X118728238Y-109089849D01*
X118897212Y-109168642D01*
X118930757Y-109184284D01*
X118936065Y-109185706D01*
X118936067Y-109185707D01*
X119146598Y-109242119D01*
X119146600Y-109242119D01*
X119151913Y-109243543D01*
X119380000Y-109263498D01*
X119608087Y-109243543D01*
X119613400Y-109242119D01*
X119613402Y-109242119D01*
X119823933Y-109185707D01*
X119823935Y-109185706D01*
X119829243Y-109184284D01*
X119862788Y-109168642D01*
X120031762Y-109089849D01*
X120031767Y-109089846D01*
X120036749Y-109087523D01*
X120178458Y-108988297D01*
X120219789Y-108959357D01*
X120219792Y-108959355D01*
X120224300Y-108956198D01*
X120386198Y-108794300D01*
X120517523Y-108606749D01*
X120519846Y-108601767D01*
X120519849Y-108601762D01*
X120611961Y-108404225D01*
X120611961Y-108404224D01*
X120614284Y-108399243D01*
X120645477Y-108282832D01*
X120672119Y-108183402D01*
X120672119Y-108183400D01*
X120673543Y-108178087D01*
X120693498Y-107950000D01*
X120673543Y-107721913D01*
X120671959Y-107716002D01*
X120615707Y-107506067D01*
X120615706Y-107506065D01*
X120614284Y-107500757D01*
X120536081Y-107333049D01*
X120519849Y-107298238D01*
X120519846Y-107298233D01*
X120517523Y-107293251D01*
X120411287Y-107141531D01*
X120388500Y-107069260D01*
X120388500Y-106741842D01*
X120389237Y-106728235D01*
X120392659Y-106696737D01*
X120392659Y-106696732D01*
X120393324Y-106690611D01*
X120390336Y-106656457D01*
X120388950Y-106640609D01*
X120388621Y-106635784D01*
X120388500Y-106633313D01*
X120388500Y-106630231D01*
X120384309Y-106587489D01*
X120384187Y-106586173D01*
X120381502Y-106555480D01*
X120395492Y-106485876D01*
X120444892Y-106434884D01*
X120507023Y-106418500D01*
X123990074Y-106418500D01*
X124058195Y-106438502D01*
X124079169Y-106455404D01*
X124684595Y-107060829D01*
X124718620Y-107123142D01*
X124721500Y-107149925D01*
X124721500Y-111865144D01*
X124701498Y-111933265D01*
X124647842Y-111979758D01*
X124577568Y-111989862D01*
X124512988Y-111960368D01*
X124490946Y-111933047D01*
X124490615Y-111933295D01*
X124408642Y-111823919D01*
X124403261Y-111816739D01*
X124286705Y-111729385D01*
X124150316Y-111678255D01*
X124088134Y-111671500D01*
X122291866Y-111671500D01*
X122229684Y-111678255D01*
X122093295Y-111729385D01*
X121976739Y-111816739D01*
X121889385Y-111933295D01*
X121838255Y-112069684D01*
X121831500Y-112131866D01*
X121831500Y-113928134D01*
X121838255Y-113990316D01*
X121889385Y-114126705D01*
X121976739Y-114243261D01*
X122093295Y-114330615D01*
X122229684Y-114381745D01*
X122291866Y-114388500D01*
X124088134Y-114388500D01*
X124150316Y-114381745D01*
X124286705Y-114330615D01*
X124403261Y-114243261D01*
X124490615Y-114126705D01*
X124491771Y-114127571D01*
X124535237Y-114084202D01*
X124604628Y-114069187D01*
X124671120Y-114094071D01*
X124713604Y-114150954D01*
X124721500Y-114194856D01*
X124721500Y-120964179D01*
X124701498Y-121032300D01*
X124647842Y-121078793D01*
X124577568Y-121088897D01*
X124512988Y-121059403D01*
X124477518Y-121008408D01*
X124433768Y-120891705D01*
X124433767Y-120891703D01*
X124430615Y-120883295D01*
X124343261Y-120766739D01*
X124226705Y-120679385D01*
X124090316Y-120628255D01*
X124028134Y-120621500D01*
X122331866Y-120621500D01*
X122269684Y-120628255D01*
X122133295Y-120679385D01*
X122016739Y-120766739D01*
X121929385Y-120883295D01*
X121878255Y-121019684D01*
X121877083Y-121030474D01*
X121876197Y-121032606D01*
X121875575Y-121035222D01*
X121875152Y-121035121D01*
X121849845Y-121096035D01*
X121791483Y-121136463D01*
X121720529Y-121138922D01*
X121659510Y-121102629D01*
X121652511Y-121093969D01*
X121649354Y-121090207D01*
X121646198Y-121085700D01*
X121484300Y-120923802D01*
X121479792Y-120920645D01*
X121479789Y-120920643D01*
X121352769Y-120831703D01*
X121296749Y-120792477D01*
X121291767Y-120790154D01*
X121291762Y-120790151D01*
X121094225Y-120698039D01*
X121094224Y-120698039D01*
X121089243Y-120695716D01*
X121083935Y-120694294D01*
X121083933Y-120694293D01*
X120873402Y-120637881D01*
X120873400Y-120637881D01*
X120868087Y-120636457D01*
X120640000Y-120616502D01*
X120411913Y-120636457D01*
X120406600Y-120637881D01*
X120406598Y-120637881D01*
X120196067Y-120694293D01*
X120196065Y-120694294D01*
X120190757Y-120695716D01*
X120185776Y-120698039D01*
X120185775Y-120698039D01*
X119988238Y-120790151D01*
X119988233Y-120790154D01*
X119983251Y-120792477D01*
X119927231Y-120831703D01*
X119800211Y-120920643D01*
X119800208Y-120920645D01*
X119795700Y-120923802D01*
X119633802Y-121085700D01*
X119502477Y-121273251D01*
X119500154Y-121278233D01*
X119500151Y-121278238D01*
X119484195Y-121312457D01*
X119437278Y-121365742D01*
X119369001Y-121385203D01*
X119301041Y-121364661D01*
X119255805Y-121312457D01*
X119239849Y-121278238D01*
X119239846Y-121278233D01*
X119237523Y-121273251D01*
X119106198Y-121085700D01*
X118944300Y-120923802D01*
X118939792Y-120920645D01*
X118939789Y-120920643D01*
X118812769Y-120831703D01*
X118756749Y-120792477D01*
X118751767Y-120790154D01*
X118751762Y-120790151D01*
X118554225Y-120698039D01*
X118554224Y-120698039D01*
X118549243Y-120695716D01*
X118543935Y-120694294D01*
X118543933Y-120694293D01*
X118333402Y-120637881D01*
X118333400Y-120637881D01*
X118328087Y-120636457D01*
X118100000Y-120616502D01*
X117871913Y-120636457D01*
X117866600Y-120637881D01*
X117866598Y-120637881D01*
X117656067Y-120694293D01*
X117656065Y-120694294D01*
X117650757Y-120695716D01*
X117645776Y-120698039D01*
X117645775Y-120698039D01*
X117448238Y-120790151D01*
X117448233Y-120790154D01*
X117443251Y-120792477D01*
X117387231Y-120831703D01*
X117260211Y-120920643D01*
X117260208Y-120920645D01*
X117255700Y-120923802D01*
X117093802Y-121085700D01*
X116962477Y-121273251D01*
X116960154Y-121278233D01*
X116960151Y-121278238D01*
X116944195Y-121312457D01*
X116897278Y-121365742D01*
X116829001Y-121385203D01*
X116761041Y-121364661D01*
X116715805Y-121312457D01*
X116699849Y-121278238D01*
X116699846Y-121278233D01*
X116697523Y-121273251D01*
X116566198Y-121085700D01*
X116404300Y-120923802D01*
X116399792Y-120920645D01*
X116399789Y-120920643D01*
X116272769Y-120831703D01*
X116216749Y-120792477D01*
X116211767Y-120790154D01*
X116211762Y-120790151D01*
X116014225Y-120698039D01*
X116014224Y-120698039D01*
X116009243Y-120695716D01*
X116003935Y-120694294D01*
X116003933Y-120694293D01*
X115793402Y-120637881D01*
X115793400Y-120637881D01*
X115788087Y-120636457D01*
X115560000Y-120616502D01*
X115331913Y-120636457D01*
X115326600Y-120637881D01*
X115326598Y-120637881D01*
X115116067Y-120694293D01*
X115116065Y-120694294D01*
X115110757Y-120695716D01*
X115105776Y-120698039D01*
X115105775Y-120698039D01*
X114908238Y-120790151D01*
X114908233Y-120790154D01*
X114903251Y-120792477D01*
X114847231Y-120831703D01*
X114720211Y-120920643D01*
X114720208Y-120920645D01*
X114715700Y-120923802D01*
X114553802Y-121085700D01*
X114422477Y-121273251D01*
X114420154Y-121278233D01*
X114420151Y-121278238D01*
X114328500Y-121474787D01*
X114325716Y-121480757D01*
X114324294Y-121486065D01*
X114324293Y-121486067D01*
X114290000Y-121614050D01*
X114266457Y-121701913D01*
X114246502Y-121930000D01*
X114266457Y-122158087D01*
X114325716Y-122379243D01*
X114328039Y-122384224D01*
X114328039Y-122384225D01*
X114420151Y-122581762D01*
X114420154Y-122581767D01*
X114422477Y-122586749D01*
X114507029Y-122707501D01*
X114528713Y-122738469D01*
X114551500Y-122810740D01*
X114551500Y-123118157D01*
X114550763Y-123131764D01*
X114547364Y-123163057D01*
X114546676Y-123169388D01*
X114548789Y-123193538D01*
X114551050Y-123219388D01*
X114551379Y-123224214D01*
X114551500Y-123226686D01*
X114551500Y-123229769D01*
X114551801Y-123232837D01*
X114555690Y-123272506D01*
X114555812Y-123273819D01*
X114558506Y-123304606D01*
X114563913Y-123366413D01*
X114565400Y-123371532D01*
X114565920Y-123376833D01*
X114592791Y-123465834D01*
X114593126Y-123466967D01*
X114599632Y-123489358D01*
X114619091Y-123556336D01*
X114621544Y-123561068D01*
X114623084Y-123566169D01*
X114625978Y-123571612D01*
X114666731Y-123648260D01*
X114667343Y-123649426D01*
X114707271Y-123726453D01*
X114710108Y-123731926D01*
X114713431Y-123736089D01*
X114715934Y-123740796D01*
X114774755Y-123812918D01*
X114775446Y-123813774D01*
X114806738Y-123852973D01*
X114809242Y-123855477D01*
X114809884Y-123856195D01*
X114813585Y-123860528D01*
X114840935Y-123894062D01*
X114845682Y-123897989D01*
X114845684Y-123897991D01*
X114876262Y-123923287D01*
X114885042Y-123931277D01*
X116083145Y-125129379D01*
X116092247Y-125139522D01*
X116115968Y-125169025D01*
X116154456Y-125201320D01*
X116158075Y-125204478D01*
X116159890Y-125206124D01*
X116162075Y-125208309D01*
X116164455Y-125210264D01*
X116164465Y-125210273D01*
X116195236Y-125235549D01*
X116196251Y-125236391D01*
X116206393Y-125244901D01*
X116267474Y-125296154D01*
X116272148Y-125298723D01*
X116276261Y-125302102D01*
X116281698Y-125305017D01*
X116281699Y-125305018D01*
X116358047Y-125345955D01*
X116359177Y-125346568D01*
X116440787Y-125391433D01*
X116445869Y-125393045D01*
X116450563Y-125395562D01*
X116539531Y-125422762D01*
X116540559Y-125423082D01*
X116629306Y-125451235D01*
X116634602Y-125451829D01*
X116639698Y-125453387D01*
X116732257Y-125462790D01*
X116733393Y-125462911D01*
X116767008Y-125466681D01*
X116779730Y-125468108D01*
X116779734Y-125468108D01*
X116783227Y-125468500D01*
X116786754Y-125468500D01*
X116787739Y-125468555D01*
X116793419Y-125469002D01*
X116822825Y-125471989D01*
X116830337Y-125472752D01*
X116830339Y-125472752D01*
X116836462Y-125473374D01*
X116882108Y-125469059D01*
X116893967Y-125468500D01*
X124398157Y-125468500D01*
X124411764Y-125469237D01*
X124443262Y-125472659D01*
X124443267Y-125472659D01*
X124449388Y-125473324D01*
X124475638Y-125471027D01*
X124499388Y-125468950D01*
X124504214Y-125468621D01*
X124506686Y-125468500D01*
X124509769Y-125468500D01*
X124521738Y-125467326D01*
X124552506Y-125464310D01*
X124553819Y-125464188D01*
X124598084Y-125460315D01*
X124646413Y-125456087D01*
X124651532Y-125454600D01*
X124656833Y-125454080D01*
X124745834Y-125427209D01*
X124746967Y-125426874D01*
X124830414Y-125402630D01*
X124830418Y-125402628D01*
X124836336Y-125400909D01*
X124841068Y-125398456D01*
X124846169Y-125396916D01*
X124853173Y-125393192D01*
X124928260Y-125353269D01*
X124929426Y-125352657D01*
X125006453Y-125312729D01*
X125011926Y-125309892D01*
X125016089Y-125306569D01*
X125020796Y-125304066D01*
X125092918Y-125245245D01*
X125093774Y-125244554D01*
X125132973Y-125213262D01*
X125135477Y-125210758D01*
X125136195Y-125210116D01*
X125140528Y-125206415D01*
X125174062Y-125179065D01*
X125203288Y-125143737D01*
X125211277Y-125134958D01*
X126399379Y-123946855D01*
X126409522Y-123937753D01*
X126434218Y-123917897D01*
X126439025Y-123914032D01*
X126471320Y-123875544D01*
X126474478Y-123871925D01*
X126476124Y-123870110D01*
X126478309Y-123867925D01*
X126480264Y-123865545D01*
X126480273Y-123865535D01*
X126505549Y-123834764D01*
X126506391Y-123833749D01*
X126562194Y-123767245D01*
X126566154Y-123762526D01*
X126568723Y-123757852D01*
X126572102Y-123753739D01*
X126615975Y-123671915D01*
X126616584Y-123670793D01*
X126658464Y-123594614D01*
X126658465Y-123594612D01*
X126661433Y-123589213D01*
X126663045Y-123584131D01*
X126665562Y-123579437D01*
X126692762Y-123490469D01*
X126693108Y-123489358D01*
X126700388Y-123466412D01*
X126721235Y-123400694D01*
X126721829Y-123395398D01*
X126723387Y-123390302D01*
X126732790Y-123297743D01*
X126732911Y-123296607D01*
X126738500Y-123246773D01*
X126738500Y-123243246D01*
X126738555Y-123242261D01*
X126739002Y-123236581D01*
X126743374Y-123193538D01*
X126739059Y-123147891D01*
X126738500Y-123136033D01*
X126738500Y-106741842D01*
X126739237Y-106728235D01*
X126742659Y-106696737D01*
X126742659Y-106696732D01*
X126743324Y-106690611D01*
X126740336Y-106656457D01*
X126738950Y-106640609D01*
X126738621Y-106635784D01*
X126738500Y-106633313D01*
X126738500Y-106630231D01*
X126734309Y-106587489D01*
X126734187Y-106586174D01*
X126728109Y-106516705D01*
X126726087Y-106493587D01*
X126724600Y-106488468D01*
X126724080Y-106483167D01*
X126697218Y-106394194D01*
X126696862Y-106392994D01*
X126670909Y-106303663D01*
X126668455Y-106298929D01*
X126666916Y-106293831D01*
X126641566Y-106246154D01*
X126623316Y-106211831D01*
X126622702Y-106210663D01*
X126582726Y-106133541D01*
X126582725Y-106133540D01*
X126579892Y-106128074D01*
X126576569Y-106123911D01*
X126574066Y-106119204D01*
X126570000Y-106114218D01*
X126541585Y-106079379D01*
X126515245Y-106047082D01*
X126514554Y-106046226D01*
X126483262Y-106007027D01*
X126480758Y-106004523D01*
X126480116Y-106003805D01*
X126476415Y-105999472D01*
X126449065Y-105965938D01*
X126413737Y-105936712D01*
X126404958Y-105928723D01*
X125216855Y-104740621D01*
X125207753Y-104730478D01*
X125187897Y-104705782D01*
X125184032Y-104700975D01*
X125145578Y-104668708D01*
X125141931Y-104665528D01*
X125140119Y-104663885D01*
X125137925Y-104661691D01*
X125104651Y-104634358D01*
X125103853Y-104633696D01*
X125032526Y-104573846D01*
X125027856Y-104571278D01*
X125023739Y-104567897D01*
X124956067Y-104531612D01*
X124941914Y-104524023D01*
X124940755Y-104523394D01*
X124864619Y-104481538D01*
X124864611Y-104481535D01*
X124859213Y-104478567D01*
X124854131Y-104476955D01*
X124849437Y-104474438D01*
X124760469Y-104447238D01*
X124759441Y-104446918D01*
X124670694Y-104418765D01*
X124665398Y-104418171D01*
X124660302Y-104416613D01*
X124567743Y-104407210D01*
X124566607Y-104407089D01*
X124532992Y-104403319D01*
X124520270Y-104401892D01*
X124520266Y-104401892D01*
X124516773Y-104401500D01*
X124513246Y-104401500D01*
X124512261Y-104401445D01*
X124506581Y-104400998D01*
X124477175Y-104398011D01*
X124469663Y-104397248D01*
X124469661Y-104397248D01*
X124463538Y-104396626D01*
X124421259Y-104400623D01*
X124417891Y-104400941D01*
X124406033Y-104401500D01*
X118167904Y-104401500D01*
X118155171Y-104400855D01*
X118119666Y-104397248D01*
X118119661Y-104397248D01*
X118113538Y-104396626D01*
X118071259Y-104400623D01*
X118067891Y-104400941D01*
X118056033Y-104401500D01*
X104609926Y-104401500D01*
X104541805Y-104381498D01*
X104520831Y-104364596D01*
X103915405Y-103759171D01*
X103881380Y-103696858D01*
X103878500Y-103670075D01*
X103878500Y-103056414D01*
X103898502Y-102988293D01*
X103952158Y-102941800D01*
X104022432Y-102931696D01*
X104087012Y-102961190D01*
X104102140Y-102976775D01*
X104117691Y-102995841D01*
X104118439Y-102996768D01*
X104149727Y-103035962D01*
X104152231Y-103038466D01*
X104152873Y-103039184D01*
X104156574Y-103043517D01*
X104183924Y-103077051D01*
X104219259Y-103106283D01*
X104228025Y-103114260D01*
X104653149Y-103539383D01*
X104662251Y-103549527D01*
X104685968Y-103579025D01*
X104690696Y-103582992D01*
X104724421Y-103611291D01*
X104728069Y-103614472D01*
X104729881Y-103616115D01*
X104732075Y-103618309D01*
X104765349Y-103645642D01*
X104766147Y-103646304D01*
X104837474Y-103706154D01*
X104842144Y-103708722D01*
X104846261Y-103712103D01*
X104904145Y-103743140D01*
X104928086Y-103755977D01*
X104929245Y-103756606D01*
X105005381Y-103798462D01*
X105005389Y-103798465D01*
X105010787Y-103801433D01*
X105015869Y-103803045D01*
X105020563Y-103805562D01*
X105026454Y-103807363D01*
X105109477Y-103832747D01*
X105110735Y-103833139D01*
X105199306Y-103861235D01*
X105204597Y-103861829D01*
X105209698Y-103863388D01*
X105302263Y-103872790D01*
X105303450Y-103872916D01*
X105332838Y-103876213D01*
X105349730Y-103878108D01*
X105349735Y-103878108D01*
X105353227Y-103878500D01*
X105356752Y-103878500D01*
X105357737Y-103878555D01*
X105363432Y-103879003D01*
X105375342Y-103880213D01*
X105400334Y-103882752D01*
X105400339Y-103882752D01*
X105406462Y-103883374D01*
X105452108Y-103879059D01*
X105463967Y-103878500D01*
X110428157Y-103878500D01*
X110441764Y-103879237D01*
X110473262Y-103882659D01*
X110473267Y-103882659D01*
X110479388Y-103883324D01*
X110527211Y-103879140D01*
X110529053Y-103878979D01*
X110540034Y-103878500D01*
X125260075Y-103878500D01*
X125328196Y-103898502D01*
X125349170Y-103915405D01*
X127224595Y-105790830D01*
X127258621Y-105853142D01*
X127261500Y-105879925D01*
X127261500Y-125260074D01*
X127241498Y-125328195D01*
X127224596Y-125349169D01*
X126619171Y-125954595D01*
X126556858Y-125988620D01*
X126530075Y-125991500D01*
X124521840Y-125991500D01*
X124508232Y-125990763D01*
X124476736Y-125987341D01*
X124476732Y-125987341D01*
X124470611Y-125986676D01*
X124452611Y-125988251D01*
X124420609Y-125991050D01*
X124415784Y-125991379D01*
X124413313Y-125991500D01*
X124410231Y-125991500D01*
X124387763Y-125993703D01*
X124367489Y-125995691D01*
X124366174Y-125995813D01*
X124333913Y-125998636D01*
X124273587Y-126003913D01*
X124268468Y-126005400D01*
X124263167Y-126005920D01*
X124174194Y-126032782D01*
X124173054Y-126033120D01*
X124083663Y-126059091D01*
X124078929Y-126061545D01*
X124073831Y-126063084D01*
X124068387Y-126065978D01*
X124068386Y-126065979D01*
X123991831Y-126106684D01*
X123990663Y-126107298D01*
X123946865Y-126130001D01*
X123908074Y-126150108D01*
X123903911Y-126153431D01*
X123899204Y-126155934D01*
X123827082Y-126214755D01*
X123826226Y-126215446D01*
X123787027Y-126246738D01*
X123784523Y-126249242D01*
X123783805Y-126249884D01*
X123779472Y-126253585D01*
X123745938Y-126280935D01*
X123742011Y-126285682D01*
X123742009Y-126285684D01*
X123716713Y-126316262D01*
X123708723Y-126325042D01*
X122510621Y-127523145D01*
X122500478Y-127532247D01*
X122470975Y-127555968D01*
X122467008Y-127560696D01*
X122438709Y-127594421D01*
X122435528Y-127598069D01*
X122433885Y-127599881D01*
X122431691Y-127602075D01*
X122404358Y-127635349D01*
X122403696Y-127636147D01*
X122343846Y-127707474D01*
X122341278Y-127712144D01*
X122337897Y-127716261D01*
X122316878Y-127755462D01*
X122294023Y-127798086D01*
X122293394Y-127799245D01*
X122251538Y-127875381D01*
X122251535Y-127875389D01*
X122248567Y-127880787D01*
X122246955Y-127885869D01*
X122244438Y-127890563D01*
X122217238Y-127979531D01*
X122216918Y-127980559D01*
X122188765Y-128069306D01*
X122188171Y-128074602D01*
X122186613Y-128079698D01*
X122185990Y-128085834D01*
X122177218Y-128172187D01*
X122177089Y-128173393D01*
X122171500Y-128223227D01*
X122171500Y-128226754D01*
X122171445Y-128227739D01*
X122170998Y-128233419D01*
X122166626Y-128276462D01*
X122167206Y-128282593D01*
X122170941Y-128322109D01*
X122171500Y-128333967D01*
X122171500Y-128669260D01*
X122148713Y-128741531D01*
X122042477Y-128893251D01*
X122040154Y-128898233D01*
X122040151Y-128898238D01*
X122024195Y-128932457D01*
X121977278Y-128985742D01*
X121909001Y-129005203D01*
X121841041Y-128984661D01*
X121795805Y-128932457D01*
X121779849Y-128898238D01*
X121779846Y-128898233D01*
X121777523Y-128893251D01*
X121646198Y-128705700D01*
X121484300Y-128543802D01*
X121479792Y-128540645D01*
X121479789Y-128540643D01*
X121401611Y-128485902D01*
X121296749Y-128412477D01*
X121291767Y-128410154D01*
X121291762Y-128410151D01*
X121094225Y-128318039D01*
X121094224Y-128318039D01*
X121089243Y-128315716D01*
X121083935Y-128314294D01*
X121083933Y-128314293D01*
X120873402Y-128257881D01*
X120873400Y-128257881D01*
X120868087Y-128256457D01*
X120640000Y-128236502D01*
X120411913Y-128256457D01*
X120406600Y-128257881D01*
X120406598Y-128257881D01*
X120196067Y-128314293D01*
X120196065Y-128314294D01*
X120190757Y-128315716D01*
X120185776Y-128318039D01*
X120185775Y-128318039D01*
X119988238Y-128410151D01*
X119988233Y-128410154D01*
X119983251Y-128412477D01*
X119878389Y-128485902D01*
X119800211Y-128540643D01*
X119800208Y-128540645D01*
X119795700Y-128543802D01*
X119633802Y-128705700D01*
X119502477Y-128893251D01*
X119500154Y-128898233D01*
X119500151Y-128898238D01*
X119484195Y-128932457D01*
X119437278Y-128985742D01*
X119369001Y-129005203D01*
X119301041Y-128984661D01*
X119255805Y-128932457D01*
X119239849Y-128898238D01*
X119239846Y-128898233D01*
X119237523Y-128893251D01*
X119106198Y-128705700D01*
X118944300Y-128543802D01*
X118939792Y-128540645D01*
X118939789Y-128540643D01*
X118861611Y-128485902D01*
X118756749Y-128412477D01*
X118751767Y-128410154D01*
X118751762Y-128410151D01*
X118554225Y-128318039D01*
X118554224Y-128318039D01*
X118549243Y-128315716D01*
X118543935Y-128314294D01*
X118543933Y-128314293D01*
X118333402Y-128257881D01*
X118333400Y-128257881D01*
X118328087Y-128256457D01*
X118100000Y-128236502D01*
X117871913Y-128256457D01*
X117866600Y-128257881D01*
X117866598Y-128257881D01*
X117656067Y-128314293D01*
X117656065Y-128314294D01*
X117650757Y-128315716D01*
X117645776Y-128318039D01*
X117645775Y-128318039D01*
X117448238Y-128410151D01*
X117448233Y-128410154D01*
X117443251Y-128412477D01*
X117338389Y-128485902D01*
X117260211Y-128540643D01*
X117260208Y-128540645D01*
X117255700Y-128543802D01*
X117093802Y-128705700D01*
X116962477Y-128893251D01*
X116960154Y-128898233D01*
X116960151Y-128898238D01*
X116944195Y-128932457D01*
X116897278Y-128985742D01*
X116829001Y-129005203D01*
X116761041Y-128984661D01*
X116715805Y-128932457D01*
X116699849Y-128898238D01*
X116699846Y-128898233D01*
X116697523Y-128893251D01*
X116566198Y-128705700D01*
X116404300Y-128543802D01*
X116399792Y-128540645D01*
X116399789Y-128540643D01*
X116321611Y-128485902D01*
X116216749Y-128412477D01*
X116211767Y-128410154D01*
X116211762Y-128410151D01*
X116014225Y-128318039D01*
X116014224Y-128318039D01*
X116009243Y-128315716D01*
X116003935Y-128314294D01*
X116003933Y-128314293D01*
X115793402Y-128257881D01*
X115793400Y-128257881D01*
X115788087Y-128256457D01*
X115560000Y-128236502D01*
X115331913Y-128256457D01*
X115326600Y-128257881D01*
X115326598Y-128257881D01*
X115116067Y-128314293D01*
X115116065Y-128314294D01*
X115110757Y-128315716D01*
X115105776Y-128318039D01*
X115105775Y-128318039D01*
X114908238Y-128410151D01*
X114908233Y-128410154D01*
X114903251Y-128412477D01*
X114798389Y-128485902D01*
X114720211Y-128540643D01*
X114720208Y-128540645D01*
X114715700Y-128543802D01*
X114553802Y-128705700D01*
X114422477Y-128893251D01*
X114420154Y-128898233D01*
X114420151Y-128898238D01*
X114404195Y-128932457D01*
X114325716Y-129100757D01*
X114266457Y-129321913D01*
X114246502Y-129550000D01*
X114266457Y-129778087D01*
X114325716Y-129999243D01*
X114328039Y-130004224D01*
X114328039Y-130004225D01*
X114420151Y-130201762D01*
X114420154Y-130201767D01*
X114422477Y-130206749D01*
X114553802Y-130394300D01*
X114715700Y-130556198D01*
X114720208Y-130559355D01*
X114720211Y-130559357D01*
X114798389Y-130614098D01*
X114903251Y-130687523D01*
X114908233Y-130689846D01*
X114908238Y-130689849D01*
X115105775Y-130781961D01*
X115110757Y-130784284D01*
X115116065Y-130785706D01*
X115116067Y-130785707D01*
X115326598Y-130842119D01*
X115326600Y-130842119D01*
X115331913Y-130843543D01*
X115560000Y-130863498D01*
X115788087Y-130843543D01*
X115793400Y-130842119D01*
X115793402Y-130842119D01*
X116003933Y-130785707D01*
X116003935Y-130785706D01*
X116009243Y-130784284D01*
X116014225Y-130781961D01*
X116211762Y-130689849D01*
X116211767Y-130689846D01*
X116216749Y-130687523D01*
X116321611Y-130614098D01*
X116399789Y-130559357D01*
X116399792Y-130559355D01*
X116404300Y-130556198D01*
X116566198Y-130394300D01*
X116697523Y-130206749D01*
X116699846Y-130201767D01*
X116699849Y-130201762D01*
X116715805Y-130167543D01*
X116762722Y-130114258D01*
X116830999Y-130094797D01*
X116898959Y-130115339D01*
X116944195Y-130167543D01*
X116960151Y-130201762D01*
X116960154Y-130201767D01*
X116962477Y-130206749D01*
X117093802Y-130394300D01*
X117255700Y-130556198D01*
X117260208Y-130559355D01*
X117260211Y-130559357D01*
X117338389Y-130614098D01*
X117443251Y-130687523D01*
X117448233Y-130689846D01*
X117448238Y-130689849D01*
X117645775Y-130781961D01*
X117650757Y-130784284D01*
X117656065Y-130785706D01*
X117656067Y-130785707D01*
X117866598Y-130842119D01*
X117866600Y-130842119D01*
X117871913Y-130843543D01*
X118100000Y-130863498D01*
X118328087Y-130843543D01*
X118333400Y-130842119D01*
X118333402Y-130842119D01*
X118543933Y-130785707D01*
X118543935Y-130785706D01*
X118549243Y-130784284D01*
X118554225Y-130781961D01*
X118751762Y-130689849D01*
X118751767Y-130689846D01*
X118756749Y-130687523D01*
X118861611Y-130614098D01*
X118939789Y-130559357D01*
X118939792Y-130559355D01*
X118944300Y-130556198D01*
X119106198Y-130394300D01*
X119237523Y-130206749D01*
X119239846Y-130201767D01*
X119239849Y-130201762D01*
X119255805Y-130167543D01*
X119302722Y-130114258D01*
X119370999Y-130094797D01*
X119438959Y-130115339D01*
X119484195Y-130167543D01*
X119500151Y-130201762D01*
X119500154Y-130201767D01*
X119502477Y-130206749D01*
X119633802Y-130394300D01*
X119795700Y-130556198D01*
X119800208Y-130559355D01*
X119800211Y-130559357D01*
X119878389Y-130614098D01*
X119983251Y-130687523D01*
X119988233Y-130689846D01*
X119988238Y-130689849D01*
X120185775Y-130781961D01*
X120190757Y-130784284D01*
X120196065Y-130785706D01*
X120196067Y-130785707D01*
X120406598Y-130842119D01*
X120406600Y-130842119D01*
X120411913Y-130843543D01*
X120640000Y-130863498D01*
X120868087Y-130843543D01*
X120873400Y-130842119D01*
X120873402Y-130842119D01*
X121083933Y-130785707D01*
X121083935Y-130785706D01*
X121089243Y-130784284D01*
X121094225Y-130781961D01*
X121291762Y-130689849D01*
X121291767Y-130689846D01*
X121296749Y-130687523D01*
X121401611Y-130614098D01*
X121479789Y-130559357D01*
X121479792Y-130559355D01*
X121484300Y-130556198D01*
X121646198Y-130394300D01*
X121777523Y-130206749D01*
X121779846Y-130201767D01*
X121779849Y-130201762D01*
X121795805Y-130167543D01*
X121842722Y-130114258D01*
X121910999Y-130094797D01*
X121978959Y-130115339D01*
X122024195Y-130167543D01*
X122040151Y-130201762D01*
X122040154Y-130201767D01*
X122042477Y-130206749D01*
X122173802Y-130394300D01*
X122335700Y-130556198D01*
X122340208Y-130559355D01*
X122340211Y-130559357D01*
X122418389Y-130614098D01*
X122523251Y-130687523D01*
X122528233Y-130689846D01*
X122528238Y-130689849D01*
X122725775Y-130781961D01*
X122730757Y-130784284D01*
X122736065Y-130785706D01*
X122736067Y-130785707D01*
X122946598Y-130842119D01*
X122946600Y-130842119D01*
X122951913Y-130843543D01*
X123180000Y-130863498D01*
X123408087Y-130843543D01*
X123413400Y-130842119D01*
X123413402Y-130842119D01*
X123623933Y-130785707D01*
X123623935Y-130785706D01*
X123629243Y-130784284D01*
X123634225Y-130781961D01*
X123831762Y-130689849D01*
X123831767Y-130689846D01*
X123836749Y-130687523D01*
X123941611Y-130614098D01*
X124019789Y-130559357D01*
X124019792Y-130559355D01*
X124024300Y-130556198D01*
X124186198Y-130394300D01*
X124317523Y-130206749D01*
X124319846Y-130201767D01*
X124319849Y-130201762D01*
X124411961Y-130004225D01*
X124411961Y-130004224D01*
X124414284Y-129999243D01*
X124473543Y-129778087D01*
X124493498Y-129550000D01*
X124473543Y-129321913D01*
X124414284Y-129100757D01*
X124335805Y-128932457D01*
X124319849Y-128898238D01*
X124319846Y-128898233D01*
X124317523Y-128893251D01*
X124244508Y-128788975D01*
X124221820Y-128721702D01*
X124239105Y-128652842D01*
X124258625Y-128627610D01*
X124840829Y-128045405D01*
X124903142Y-128011380D01*
X124929925Y-128008500D01*
X126938157Y-128008500D01*
X126951764Y-128009237D01*
X126983262Y-128012659D01*
X126983267Y-128012659D01*
X126989388Y-128013324D01*
X127015638Y-128011027D01*
X127039388Y-128008950D01*
X127044214Y-128008621D01*
X127046686Y-128008500D01*
X127049769Y-128008500D01*
X127061738Y-128007326D01*
X127092506Y-128004310D01*
X127093819Y-128004188D01*
X127138084Y-128000315D01*
X127186413Y-127996087D01*
X127191532Y-127994600D01*
X127196833Y-127994080D01*
X127285834Y-127967209D01*
X127286967Y-127966874D01*
X127370414Y-127942630D01*
X127370418Y-127942628D01*
X127376336Y-127940909D01*
X127381068Y-127938456D01*
X127386169Y-127936916D01*
X127391612Y-127934022D01*
X127468260Y-127893269D01*
X127469426Y-127892657D01*
X127546453Y-127852729D01*
X127551926Y-127849892D01*
X127556089Y-127846569D01*
X127560796Y-127844066D01*
X127632918Y-127785245D01*
X127633774Y-127784554D01*
X127672973Y-127753262D01*
X127675477Y-127750758D01*
X127676195Y-127750116D01*
X127680528Y-127746415D01*
X127714062Y-127719065D01*
X127719315Y-127712716D01*
X127743287Y-127683738D01*
X127751277Y-127674958D01*
X128939379Y-126486855D01*
X128949522Y-126477753D01*
X128974218Y-126457897D01*
X128979025Y-126454032D01*
X129011320Y-126415544D01*
X129014478Y-126411925D01*
X129016124Y-126410110D01*
X129018309Y-126407925D01*
X129020264Y-126405545D01*
X129020273Y-126405535D01*
X129045549Y-126374764D01*
X129046391Y-126373749D01*
X129102194Y-126307245D01*
X129106154Y-126302526D01*
X129108723Y-126297852D01*
X129112102Y-126293739D01*
X129118968Y-126280935D01*
X129138483Y-126244538D01*
X129155975Y-126211915D01*
X129156584Y-126210793D01*
X129198464Y-126134614D01*
X129198465Y-126134612D01*
X129201433Y-126129213D01*
X129203045Y-126124131D01*
X129205562Y-126119437D01*
X129232762Y-126030469D01*
X129233108Y-126029358D01*
X129240287Y-126006730D01*
X129261235Y-125940694D01*
X129261829Y-125935398D01*
X129263387Y-125930302D01*
X129272790Y-125837743D01*
X129272911Y-125836607D01*
X129278500Y-125786773D01*
X129278500Y-125783246D01*
X129278555Y-125782261D01*
X129279002Y-125776581D01*
X129283374Y-125733538D01*
X129279059Y-125687891D01*
X129278500Y-125676033D01*
X129278500Y-123404500D01*
X129298502Y-123336379D01*
X129352158Y-123289886D01*
X129404500Y-123278500D01*
X130438134Y-123278500D01*
X130500316Y-123271745D01*
X130636705Y-123220615D01*
X130753261Y-123133261D01*
X130840615Y-123016705D01*
X130891745Y-122880316D01*
X130898500Y-122818134D01*
X130898500Y-121021866D01*
X130891745Y-120959684D01*
X130840615Y-120823295D01*
X130753261Y-120706739D01*
X130636705Y-120619385D01*
X130500316Y-120568255D01*
X130438134Y-120561500D01*
X129404500Y-120561500D01*
X129336379Y-120541498D01*
X129289886Y-120487842D01*
X129278500Y-120435500D01*
X129278500Y-109114856D01*
X129298502Y-109046735D01*
X129352158Y-109000242D01*
X129422432Y-108990138D01*
X129487012Y-109019632D01*
X129509054Y-109046953D01*
X129509385Y-109046705D01*
X129596739Y-109163261D01*
X129713295Y-109250615D01*
X129849684Y-109301745D01*
X129911866Y-109308500D01*
X131708134Y-109308500D01*
X131770316Y-109301745D01*
X131906705Y-109250615D01*
X132023261Y-109163261D01*
X132110615Y-109046705D01*
X132161745Y-108910316D01*
X132168500Y-108848134D01*
X132168500Y-107051866D01*
X132161745Y-106989684D01*
X132110615Y-106853295D01*
X132105229Y-106846108D01*
X132041118Y-106760565D01*
X132016270Y-106694058D01*
X132031323Y-106624676D01*
X132041118Y-106609435D01*
X132105229Y-106523892D01*
X132105230Y-106523890D01*
X132110615Y-106516705D01*
X132161745Y-106380316D01*
X132168500Y-106318134D01*
X132168500Y-104521866D01*
X132161745Y-104459684D01*
X132110615Y-104323295D01*
X132037370Y-104225564D01*
X132012522Y-104159059D01*
X132027575Y-104089676D01*
X132037370Y-104074435D01*
X132105229Y-103983891D01*
X132110615Y-103976705D01*
X132161745Y-103840316D01*
X132168500Y-103778134D01*
X132168500Y-101981866D01*
X132161745Y-101919684D01*
X132110615Y-101783295D01*
X132023261Y-101666739D01*
X131906705Y-101579385D01*
X131770316Y-101528255D01*
X131708134Y-101521500D01*
X129911866Y-101521500D01*
X129849684Y-101528255D01*
X129713295Y-101579385D01*
X129596739Y-101666739D01*
X129509385Y-101783295D01*
X129458255Y-101919684D01*
X129451500Y-101981866D01*
X129451500Y-103778134D01*
X129458255Y-103840316D01*
X129509385Y-103976705D01*
X129514771Y-103983891D01*
X129582630Y-104074435D01*
X129607478Y-104140941D01*
X129592425Y-104210324D01*
X129582632Y-104225562D01*
X129509385Y-104323295D01*
X129458255Y-104459684D01*
X129451500Y-104521866D01*
X129451500Y-104982467D01*
X129431498Y-105050588D01*
X129377842Y-105097081D01*
X129307568Y-105107185D01*
X129242988Y-105077691D01*
X129211164Y-105033476D01*
X129210886Y-105033620D01*
X129210533Y-105032939D01*
X129210088Y-105031981D01*
X129209903Y-105031724D01*
X129208457Y-105028934D01*
X129206916Y-105023831D01*
X129163230Y-104941669D01*
X129162683Y-104940627D01*
X129122728Y-104863545D01*
X129122727Y-104863544D01*
X129119892Y-104858074D01*
X129116569Y-104853911D01*
X129114066Y-104849204D01*
X129084517Y-104812973D01*
X129055263Y-104777105D01*
X129054500Y-104776160D01*
X129023261Y-104737027D01*
X129020770Y-104734536D01*
X129020120Y-104733809D01*
X129016408Y-104729463D01*
X129001013Y-104710588D01*
X128989065Y-104695938D01*
X128984323Y-104692015D01*
X128984321Y-104692013D01*
X128953727Y-104666703D01*
X128944947Y-104658713D01*
X126486855Y-102200621D01*
X126477753Y-102190478D01*
X126457897Y-102165782D01*
X126454032Y-102160975D01*
X126415578Y-102128708D01*
X126411931Y-102125528D01*
X126410119Y-102123885D01*
X126407925Y-102121691D01*
X126374651Y-102094358D01*
X126373853Y-102093696D01*
X126302526Y-102033846D01*
X126297856Y-102031278D01*
X126293739Y-102027897D01*
X126235855Y-101996860D01*
X126211914Y-101984023D01*
X126210755Y-101983394D01*
X126134619Y-101941538D01*
X126134611Y-101941535D01*
X126129213Y-101938567D01*
X126124131Y-101936955D01*
X126119437Y-101934438D01*
X126030469Y-101907238D01*
X126029441Y-101906918D01*
X125940694Y-101878765D01*
X125935398Y-101878171D01*
X125930302Y-101876613D01*
X125837743Y-101867210D01*
X125836607Y-101867089D01*
X125802992Y-101863319D01*
X125790270Y-101861892D01*
X125790266Y-101861892D01*
X125786773Y-101861500D01*
X125783246Y-101861500D01*
X125782261Y-101861445D01*
X125776581Y-101860998D01*
X125747175Y-101858011D01*
X125739663Y-101857248D01*
X125739661Y-101857248D01*
X125733538Y-101856626D01*
X125691259Y-101860623D01*
X125687891Y-101860941D01*
X125676033Y-101861500D01*
X119677085Y-101861500D01*
X119608964Y-101841498D01*
X119562471Y-101787842D01*
X119552367Y-101717568D01*
X119581861Y-101652988D01*
X119644474Y-101613793D01*
X119823933Y-101565707D01*
X119823935Y-101565706D01*
X119829243Y-101564284D01*
X119842953Y-101557891D01*
X120031762Y-101469849D01*
X120031767Y-101469846D01*
X120036749Y-101467523D01*
X120141611Y-101394098D01*
X120219789Y-101339357D01*
X120219792Y-101339355D01*
X120224300Y-101336198D01*
X120386198Y-101174300D01*
X120517523Y-100986749D01*
X120519846Y-100981767D01*
X120519849Y-100981762D01*
X120611961Y-100784225D01*
X120611961Y-100784224D01*
X120614284Y-100779243D01*
X120673543Y-100558087D01*
X120693498Y-100330000D01*
X120673543Y-100101913D01*
X120614284Y-99880757D01*
X120535805Y-99712457D01*
X120519849Y-99678238D01*
X120519846Y-99678233D01*
X120517523Y-99673251D01*
X120386198Y-99485700D01*
X120224300Y-99323802D01*
X120219792Y-99320645D01*
X120219789Y-99320643D01*
X120141611Y-99265902D01*
X120036749Y-99192477D01*
X120031767Y-99190154D01*
X120031762Y-99190151D01*
X119834225Y-99098039D01*
X119834224Y-99098039D01*
X119829243Y-99095716D01*
X119823935Y-99094294D01*
X119823933Y-99094293D01*
X119613402Y-99037881D01*
X119613400Y-99037881D01*
X119608087Y-99036457D01*
X119380000Y-99016502D01*
X119151913Y-99036457D01*
X119146600Y-99037881D01*
X119146598Y-99037881D01*
X118936067Y-99094293D01*
X118936065Y-99094294D01*
X118930757Y-99095716D01*
X118925776Y-99098039D01*
X118925775Y-99098039D01*
X118728238Y-99190151D01*
X118728233Y-99190154D01*
X118723251Y-99192477D01*
X118618389Y-99265902D01*
X118540211Y-99320643D01*
X118540208Y-99320645D01*
X118535700Y-99323802D01*
X118373802Y-99485700D01*
X118242477Y-99673251D01*
X118240154Y-99678233D01*
X118240151Y-99678238D01*
X118224195Y-99712457D01*
X118177278Y-99765742D01*
X118109001Y-99785203D01*
X118041041Y-99764661D01*
X117995805Y-99712457D01*
X117979849Y-99678238D01*
X117979846Y-99678233D01*
X117977523Y-99673251D01*
X117846198Y-99485700D01*
X117684300Y-99323802D01*
X117679792Y-99320645D01*
X117679789Y-99320643D01*
X117601611Y-99265902D01*
X117496749Y-99192477D01*
X117491767Y-99190154D01*
X117491762Y-99190151D01*
X117294225Y-99098039D01*
X117294224Y-99098039D01*
X117289243Y-99095716D01*
X117283935Y-99094294D01*
X117283933Y-99094293D01*
X117073402Y-99037881D01*
X117073400Y-99037881D01*
X117068087Y-99036457D01*
X116840000Y-99016502D01*
X116611913Y-99036457D01*
X116606600Y-99037881D01*
X116606598Y-99037881D01*
X116396067Y-99094293D01*
X116396065Y-99094294D01*
X116390757Y-99095716D01*
X116385776Y-99098039D01*
X116385775Y-99098039D01*
X116188238Y-99190151D01*
X116188233Y-99190154D01*
X116183251Y-99192477D01*
X116078389Y-99265902D01*
X116000211Y-99320643D01*
X116000208Y-99320645D01*
X115995700Y-99323802D01*
X115833802Y-99485700D01*
X115702477Y-99673251D01*
X115700154Y-99678233D01*
X115700151Y-99678238D01*
X115684195Y-99712457D01*
X115637278Y-99765742D01*
X115569001Y-99785203D01*
X115501041Y-99764661D01*
X115455805Y-99712457D01*
X115439849Y-99678238D01*
X115439846Y-99678233D01*
X115437523Y-99673251D01*
X115306198Y-99485700D01*
X115144300Y-99323802D01*
X115139792Y-99320645D01*
X115139789Y-99320643D01*
X115061611Y-99265902D01*
X114956749Y-99192477D01*
X114951767Y-99190154D01*
X114951762Y-99190151D01*
X114754225Y-99098039D01*
X114754224Y-99098039D01*
X114749243Y-99095716D01*
X114743935Y-99094294D01*
X114743933Y-99094293D01*
X114533402Y-99037881D01*
X114533400Y-99037881D01*
X114528087Y-99036457D01*
X114300000Y-99016502D01*
X114071913Y-99036457D01*
X114066600Y-99037881D01*
X114066598Y-99037881D01*
X113856067Y-99094293D01*
X113856065Y-99094294D01*
X113850757Y-99095716D01*
X113845776Y-99098039D01*
X113845775Y-99098039D01*
X113648238Y-99190151D01*
X113648233Y-99190154D01*
X113643251Y-99192477D01*
X113538389Y-99265902D01*
X113460211Y-99320643D01*
X113460208Y-99320645D01*
X113455700Y-99323802D01*
X113293802Y-99485700D01*
X113162477Y-99673251D01*
X113160154Y-99678233D01*
X113160151Y-99678238D01*
X113144195Y-99712457D01*
X113097278Y-99765742D01*
X113029001Y-99785203D01*
X112961041Y-99764661D01*
X112915805Y-99712457D01*
X112899849Y-99678238D01*
X112899846Y-99678233D01*
X112897523Y-99673251D01*
X112766198Y-99485700D01*
X112604300Y-99323802D01*
X112599792Y-99320645D01*
X112599789Y-99320643D01*
X112521611Y-99265902D01*
X112416749Y-99192477D01*
X112411767Y-99190154D01*
X112411762Y-99190151D01*
X112214225Y-99098039D01*
X112214224Y-99098039D01*
X112209243Y-99095716D01*
X112203935Y-99094294D01*
X112203933Y-99094293D01*
X111993402Y-99037881D01*
X111993400Y-99037881D01*
X111988087Y-99036457D01*
X111760000Y-99016502D01*
X111531913Y-99036457D01*
X111526600Y-99037881D01*
X111526598Y-99037881D01*
X111316067Y-99094293D01*
X111316065Y-99094294D01*
X111310757Y-99095716D01*
X111305776Y-99098039D01*
X111305775Y-99098039D01*
X111108238Y-99190151D01*
X111108233Y-99190154D01*
X111103251Y-99192477D01*
X110998389Y-99265902D01*
X110920211Y-99320643D01*
X110920208Y-99320645D01*
X110915700Y-99323802D01*
X110753802Y-99485700D01*
X110622477Y-99673251D01*
X110620154Y-99678233D01*
X110620151Y-99678238D01*
X110604195Y-99712457D01*
X110525716Y-99880757D01*
X110466457Y-100101913D01*
X110446502Y-100330000D01*
X110466457Y-100558087D01*
X110525716Y-100779243D01*
X110528039Y-100784224D01*
X110528039Y-100784225D01*
X110620151Y-100981762D01*
X110620154Y-100981767D01*
X110622477Y-100986749D01*
X110625634Y-100991257D01*
X110695492Y-101091024D01*
X110718180Y-101158298D01*
X110700895Y-101227158D01*
X110681375Y-101252390D01*
X110109171Y-101824595D01*
X110046858Y-101858620D01*
X110020075Y-101861500D01*
X106037489Y-101861500D01*
X105969368Y-101841498D01*
X105922875Y-101787842D01*
X105911489Y-101735500D01*
X105911489Y-97418134D01*
X121831500Y-97418134D01*
X121838255Y-97480316D01*
X121889385Y-97616705D01*
X121976739Y-97733261D01*
X122093295Y-97820615D01*
X122229684Y-97871745D01*
X122291866Y-97878500D01*
X124088134Y-97878500D01*
X124150316Y-97871745D01*
X124286705Y-97820615D01*
X124403261Y-97733261D01*
X124490615Y-97616705D01*
X124541745Y-97480316D01*
X124548500Y-97418134D01*
X124548500Y-95621866D01*
X124541745Y-95559684D01*
X124490615Y-95423295D01*
X124403261Y-95306739D01*
X124286705Y-95219385D01*
X124150316Y-95168255D01*
X124088134Y-95161500D01*
X122291866Y-95161500D01*
X122229684Y-95168255D01*
X122093295Y-95219385D01*
X121976739Y-95306739D01*
X121889385Y-95423295D01*
X121838255Y-95559684D01*
X121831500Y-95621866D01*
X121831500Y-97418134D01*
X105911489Y-97418134D01*
X105911489Y-93264500D01*
X105931491Y-93196379D01*
X105985147Y-93149886D01*
X106037489Y-93138500D01*
X106975634Y-93138500D01*
X107037816Y-93131745D01*
X107174205Y-93080615D01*
X107290761Y-92993261D01*
X107378115Y-92876705D01*
X107429245Y-92740316D01*
X107436000Y-92678134D01*
X107436000Y-90881866D01*
X107429245Y-90819684D01*
X107378115Y-90683295D01*
X107304870Y-90585564D01*
X107280022Y-90519059D01*
X107295075Y-90449676D01*
X107304870Y-90434435D01*
X107372729Y-90343891D01*
X107378115Y-90336705D01*
X107429245Y-90200316D01*
X107436000Y-90138134D01*
X107436000Y-88341866D01*
X107429245Y-88279684D01*
X107378115Y-88143295D01*
X107290761Y-88026739D01*
X107174205Y-87939385D01*
X107037816Y-87888255D01*
X106975634Y-87881500D01*
X106037489Y-87881500D01*
X105969368Y-87861498D01*
X105922875Y-87807842D01*
X105911489Y-87755500D01*
X105911489Y-86261617D01*
X105931491Y-86193496D01*
X105985147Y-86147003D01*
X106055421Y-86136899D01*
X106120001Y-86166393D01*
X106145491Y-86197987D01*
X106146885Y-86201705D01*
X106152269Y-86208888D01*
X106152269Y-86208889D01*
X106157555Y-86215942D01*
X106234239Y-86318261D01*
X106350795Y-86405615D01*
X106487184Y-86456745D01*
X106549366Y-86463500D01*
X108145634Y-86463500D01*
X108207816Y-86456745D01*
X108344205Y-86405615D01*
X108460761Y-86318261D01*
X108501815Y-86263483D01*
X108558674Y-86220968D01*
X108629493Y-86215942D01*
X108691786Y-86250002D01*
X108725776Y-86312333D01*
X108724348Y-86371659D01*
X108701321Y-86457598D01*
X108692814Y-86489345D01*
X108674384Y-86700000D01*
X108692814Y-86910655D01*
X108747544Y-87114910D01*
X108836911Y-87306558D01*
X108958199Y-87479776D01*
X109107724Y-87629301D01*
X109280942Y-87750589D01*
X109285920Y-87752910D01*
X109285923Y-87752912D01*
X109403721Y-87807842D01*
X109472590Y-87839956D01*
X109477898Y-87841378D01*
X109477900Y-87841379D01*
X109671530Y-87893262D01*
X109671532Y-87893262D01*
X109676845Y-87894686D01*
X109887500Y-87913116D01*
X110098155Y-87894686D01*
X110103468Y-87893262D01*
X110103470Y-87893262D01*
X110297100Y-87841379D01*
X110297102Y-87841378D01*
X110302410Y-87839956D01*
X110371279Y-87807842D01*
X110489077Y-87752912D01*
X110489080Y-87752910D01*
X110494058Y-87750589D01*
X110667276Y-87629301D01*
X110816801Y-87479776D01*
X110938089Y-87306558D01*
X111027456Y-87114910D01*
X111082186Y-86910655D01*
X111100616Y-86700000D01*
X111082186Y-86489345D01*
X111075162Y-86463131D01*
X111028879Y-86290400D01*
X111028878Y-86290398D01*
X111027456Y-86285090D01*
X111025133Y-86280108D01*
X110940412Y-86098423D01*
X110940410Y-86098420D01*
X110938089Y-86093442D01*
X110816801Y-85920224D01*
X110667276Y-85770699D01*
X110494058Y-85649411D01*
X110489080Y-85647090D01*
X110489077Y-85647088D01*
X110307392Y-85562367D01*
X110307391Y-85562366D01*
X110302410Y-85560044D01*
X110297102Y-85558622D01*
X110297100Y-85558621D01*
X110103470Y-85506738D01*
X110103468Y-85506738D01*
X110098155Y-85505314D01*
X109887500Y-85486884D01*
X109676845Y-85505314D01*
X109671532Y-85506738D01*
X109671530Y-85506738D01*
X109477900Y-85558621D01*
X109477898Y-85558622D01*
X109472590Y-85560044D01*
X109467609Y-85562366D01*
X109467608Y-85562367D01*
X109285923Y-85647088D01*
X109285920Y-85647090D01*
X109280942Y-85649411D01*
X109107724Y-85770699D01*
X108958199Y-85920224D01*
X108836911Y-86093442D01*
X108836403Y-86093086D01*
X108787838Y-86139388D01*
X108718124Y-86152822D01*
X108652214Y-86126433D01*
X108611034Y-86068599D01*
X108604843Y-86013786D01*
X108605631Y-86006533D01*
X108605631Y-86006529D01*
X108606000Y-86003134D01*
X108606000Y-84856866D01*
X108599245Y-84794684D01*
X108581524Y-84747414D01*
X108551266Y-84666699D01*
X108551264Y-84666696D01*
X108548115Y-84658295D01*
X108542732Y-84651112D01*
X108542258Y-84650247D01*
X108527089Y-84580890D01*
X108532413Y-84552478D01*
X108569922Y-84431307D01*
X108570128Y-84417205D01*
X108563373Y-84414000D01*
X108259320Y-84414000D01*
X108223005Y-84407416D01*
X108222900Y-84407856D01*
X108215216Y-84406029D01*
X108207816Y-84403255D01*
X108145634Y-84396500D01*
X107219500Y-84396500D01*
X107151379Y-84376498D01*
X107104886Y-84322842D01*
X107093500Y-84270500D01*
X107093500Y-84152750D01*
X112434024Y-84152750D01*
X112435916Y-84173536D01*
X112451067Y-84340010D01*
X112452394Y-84354596D01*
X112454132Y-84360502D01*
X112454133Y-84360506D01*
X112493820Y-84495350D01*
X112508288Y-84544507D01*
X112509619Y-84549029D01*
X112508760Y-84549282D01*
X112515214Y-84614662D01*
X112502048Y-84651406D01*
X112496885Y-84658295D01*
X112493736Y-84666696D01*
X112493734Y-84666699D01*
X112463476Y-84747414D01*
X112445755Y-84794684D01*
X112439000Y-84856866D01*
X112439000Y-86003134D01*
X112445755Y-86065316D01*
X112496885Y-86201705D01*
X112584239Y-86318261D01*
X112700795Y-86405615D01*
X112837184Y-86456745D01*
X112899366Y-86463500D01*
X114495634Y-86463500D01*
X114557816Y-86456745D01*
X114694205Y-86405615D01*
X114810761Y-86318261D01*
X114898115Y-86201705D01*
X114949245Y-86065316D01*
X114956000Y-86003134D01*
X114956000Y-85350000D01*
X118723964Y-85350000D01*
X118744071Y-85579830D01*
X118803783Y-85802676D01*
X118806108Y-85807661D01*
X118898958Y-86006781D01*
X118898961Y-86006786D01*
X118901284Y-86011768D01*
X118956341Y-86090397D01*
X119028532Y-86193496D01*
X119033613Y-86200753D01*
X119196747Y-86363887D01*
X119201255Y-86367044D01*
X119201258Y-86367046D01*
X119260842Y-86408767D01*
X119385732Y-86496216D01*
X119390714Y-86498539D01*
X119390719Y-86498542D01*
X119497058Y-86548128D01*
X119594824Y-86593717D01*
X119817670Y-86653429D01*
X120047500Y-86673536D01*
X120277330Y-86653429D01*
X120500176Y-86593717D01*
X120597942Y-86548128D01*
X120704281Y-86498542D01*
X120704286Y-86498539D01*
X120709268Y-86496216D01*
X120834158Y-86408767D01*
X120893742Y-86367046D01*
X120893745Y-86367044D01*
X120898253Y-86363887D01*
X121061387Y-86200753D01*
X121066469Y-86193496D01*
X121138659Y-86090397D01*
X121193716Y-86011768D01*
X121196039Y-86006786D01*
X121196042Y-86006781D01*
X121288892Y-85807661D01*
X121291217Y-85802676D01*
X121350929Y-85579830D01*
X121371036Y-85350000D01*
X121350929Y-85120170D01*
X121291217Y-84897324D01*
X121239905Y-84787285D01*
X121196042Y-84693219D01*
X121196039Y-84693214D01*
X121193716Y-84688232D01*
X121096245Y-84549029D01*
X121064546Y-84503758D01*
X121064544Y-84503755D01*
X121061387Y-84499247D01*
X120898253Y-84336113D01*
X120893745Y-84332956D01*
X120893742Y-84332954D01*
X120764700Y-84242598D01*
X120709268Y-84203784D01*
X120704286Y-84201461D01*
X120704281Y-84201458D01*
X120586683Y-84146622D01*
X120500176Y-84106283D01*
X120277330Y-84046571D01*
X120047500Y-84026464D01*
X119817670Y-84046571D01*
X119594824Y-84106283D01*
X119508317Y-84146622D01*
X119390719Y-84201458D01*
X119390714Y-84201461D01*
X119385732Y-84203784D01*
X119330300Y-84242598D01*
X119201258Y-84332954D01*
X119201255Y-84332956D01*
X119196747Y-84336113D01*
X119033613Y-84499247D01*
X119030456Y-84503755D01*
X119030454Y-84503758D01*
X118998755Y-84549029D01*
X118901284Y-84688232D01*
X118898961Y-84693214D01*
X118898958Y-84693219D01*
X118855095Y-84787285D01*
X118803783Y-84897324D01*
X118744071Y-85120170D01*
X118723964Y-85350000D01*
X114956000Y-85350000D01*
X114956000Y-84856866D01*
X114949245Y-84794684D01*
X114933760Y-84753377D01*
X114901268Y-84666704D01*
X114901266Y-84666701D01*
X114898115Y-84658295D01*
X114892727Y-84651106D01*
X114892594Y-84650863D01*
X114877424Y-84581506D01*
X114882748Y-84553092D01*
X114883928Y-84549282D01*
X114939790Y-84368820D01*
X114960976Y-84167250D01*
X114949993Y-84046571D01*
X114943165Y-83971543D01*
X114943164Y-83971540D01*
X114942606Y-83965404D01*
X114930185Y-83923199D01*
X114887120Y-83776880D01*
X114885381Y-83770971D01*
X114881553Y-83763647D01*
X114804679Y-83616601D01*
X114791481Y-83591355D01*
X114791516Y-83591337D01*
X114771611Y-83525559D01*
X114786771Y-83464591D01*
X114792940Y-83453181D01*
X114879856Y-83292435D01*
X114909823Y-83195627D01*
X114937968Y-83104707D01*
X114937969Y-83104704D01*
X114939790Y-83098820D01*
X114960976Y-82897250D01*
X114956676Y-82850000D01*
X121223964Y-82850000D01*
X121244071Y-83079830D01*
X121303783Y-83302676D01*
X121306108Y-83307661D01*
X121398958Y-83506781D01*
X121398961Y-83506786D01*
X121401284Y-83511768D01*
X121533613Y-83700753D01*
X121696747Y-83863887D01*
X121701255Y-83867044D01*
X121701258Y-83867046D01*
X121706214Y-83870516D01*
X121885732Y-83996216D01*
X121890714Y-83998539D01*
X121890719Y-83998542D01*
X121950599Y-84026464D01*
X122094824Y-84093717D01*
X122317670Y-84153429D01*
X122547500Y-84173536D01*
X122777330Y-84153429D01*
X123000176Y-84093717D01*
X123144401Y-84026464D01*
X123204281Y-83998542D01*
X123204286Y-83998539D01*
X123209268Y-83996216D01*
X123388786Y-83870516D01*
X123393742Y-83867046D01*
X123393745Y-83867044D01*
X123398253Y-83863887D01*
X123474006Y-83788134D01*
X125039000Y-83788134D01*
X125045755Y-83850316D01*
X125096885Y-83986705D01*
X125184239Y-84103261D01*
X125300795Y-84190615D01*
X125437184Y-84241745D01*
X125499366Y-84248500D01*
X127295634Y-84248500D01*
X127357816Y-84241745D01*
X127494205Y-84190615D01*
X127610761Y-84103261D01*
X127698115Y-83986705D01*
X127749245Y-83850316D01*
X127756000Y-83788134D01*
X127756000Y-81991866D01*
X127749245Y-81929684D01*
X127698115Y-81793295D01*
X127624870Y-81695564D01*
X127600022Y-81629059D01*
X127615075Y-81559676D01*
X127624870Y-81544435D01*
X127659265Y-81498542D01*
X127698115Y-81446705D01*
X127749245Y-81310316D01*
X127756000Y-81248134D01*
X127756000Y-79451866D01*
X127749245Y-79389684D01*
X127698115Y-79253295D01*
X127610761Y-79136739D01*
X127494205Y-79049385D01*
X127357816Y-78998255D01*
X127295634Y-78991500D01*
X125499366Y-78991500D01*
X125437184Y-78998255D01*
X125300795Y-79049385D01*
X125184239Y-79136739D01*
X125096885Y-79253295D01*
X125045755Y-79389684D01*
X125039000Y-79451866D01*
X125039000Y-81248134D01*
X125045755Y-81310316D01*
X125096885Y-81446705D01*
X125135735Y-81498542D01*
X125170130Y-81544435D01*
X125194978Y-81610941D01*
X125179925Y-81680324D01*
X125170132Y-81695562D01*
X125096885Y-81793295D01*
X125045755Y-81929684D01*
X125039000Y-81991866D01*
X125039000Y-83788134D01*
X123474006Y-83788134D01*
X123561387Y-83700753D01*
X123693716Y-83511768D01*
X123696039Y-83506786D01*
X123696042Y-83506781D01*
X123788892Y-83307661D01*
X123791217Y-83302676D01*
X123850929Y-83079830D01*
X123871036Y-82850000D01*
X123850929Y-82620170D01*
X123791217Y-82397324D01*
X123745628Y-82299558D01*
X123696042Y-82193219D01*
X123696039Y-82193214D01*
X123693716Y-82188232D01*
X123586359Y-82034910D01*
X123564546Y-82003758D01*
X123564544Y-82003755D01*
X123561387Y-81999247D01*
X123398253Y-81836113D01*
X123393745Y-81832956D01*
X123393742Y-81832954D01*
X123314870Y-81777728D01*
X123209268Y-81703784D01*
X123204286Y-81701461D01*
X123204281Y-81701458D01*
X123029592Y-81620000D01*
X123000176Y-81606283D01*
X122777330Y-81546571D01*
X122547500Y-81526464D01*
X122317670Y-81546571D01*
X122094824Y-81606283D01*
X122065408Y-81620000D01*
X121890719Y-81701458D01*
X121890714Y-81701461D01*
X121885732Y-81703784D01*
X121780130Y-81777728D01*
X121701258Y-81832954D01*
X121701255Y-81832956D01*
X121696747Y-81836113D01*
X121533613Y-81999247D01*
X121530456Y-82003755D01*
X121530454Y-82003758D01*
X121508641Y-82034910D01*
X121401284Y-82188232D01*
X121398961Y-82193214D01*
X121398958Y-82193219D01*
X121349372Y-82299558D01*
X121303783Y-82397324D01*
X121244071Y-82620170D01*
X121223964Y-82850000D01*
X114956676Y-82850000D01*
X114953332Y-82813262D01*
X114943165Y-82701543D01*
X114943164Y-82701540D01*
X114942606Y-82695404D01*
X114935987Y-82672912D01*
X114896992Y-82540422D01*
X114885381Y-82500971D01*
X114881451Y-82493452D01*
X114794335Y-82326815D01*
X114791481Y-82321355D01*
X114786130Y-82314699D01*
X114684447Y-82188232D01*
X114664481Y-82163399D01*
X114509219Y-82033119D01*
X114503827Y-82030155D01*
X114503823Y-82030152D01*
X114337006Y-81938444D01*
X114331609Y-81935477D01*
X114138416Y-81874193D01*
X114132299Y-81873507D01*
X114132295Y-81873506D01*
X114058152Y-81865190D01*
X113980683Y-81856500D01*
X113421496Y-81856500D01*
X113270787Y-81871277D01*
X113076758Y-81929858D01*
X112897802Y-82025010D01*
X112740737Y-82153110D01*
X112736810Y-82157857D01*
X112736808Y-82157859D01*
X112615473Y-82304528D01*
X112615471Y-82304531D01*
X112611544Y-82309278D01*
X112515144Y-82487565D01*
X112495056Y-82552460D01*
X112475740Y-82614860D01*
X112455210Y-82681180D01*
X112454566Y-82687305D01*
X112454566Y-82687306D01*
X112439291Y-82832637D01*
X112434024Y-82882750D01*
X112452394Y-83084596D01*
X112454132Y-83090502D01*
X112454133Y-83090506D01*
X112485100Y-83195722D01*
X112509619Y-83279029D01*
X112512472Y-83284486D01*
X112512473Y-83284489D01*
X112556569Y-83368837D01*
X112603423Y-83458460D01*
X112603423Y-83458462D01*
X112603519Y-83458645D01*
X112603484Y-83458663D01*
X112623389Y-83524441D01*
X112608229Y-83585409D01*
X112515144Y-83757565D01*
X112504630Y-83791531D01*
X112463872Y-83923199D01*
X112455210Y-83951180D01*
X112454566Y-83957305D01*
X112454566Y-83957306D01*
X112438660Y-84108642D01*
X112434024Y-84152750D01*
X107093500Y-84152750D01*
X107093500Y-84049500D01*
X107113502Y-83981379D01*
X107167158Y-83934886D01*
X107219500Y-83923500D01*
X107623504Y-83923500D01*
X107774213Y-83908723D01*
X107776502Y-83908032D01*
X107797224Y-83906000D01*
X108556486Y-83906000D01*
X108570017Y-83902027D01*
X108571137Y-83894232D01*
X108536654Y-83777068D01*
X108532061Y-83765700D01*
X108443916Y-83597093D01*
X108441903Y-83594017D01*
X108441346Y-83592178D01*
X108441060Y-83591630D01*
X108441164Y-83591576D01*
X108421339Y-83526064D01*
X108436499Y-83465094D01*
X108442940Y-83453181D01*
X108529856Y-83292435D01*
X108559823Y-83195627D01*
X108587968Y-83104707D01*
X108587969Y-83104704D01*
X108589790Y-83098820D01*
X108610976Y-82897250D01*
X108603332Y-82813262D01*
X108593165Y-82701543D01*
X108593164Y-82701540D01*
X108592606Y-82695404D01*
X108585987Y-82672912D01*
X108546992Y-82540422D01*
X108535381Y-82500971D01*
X108531451Y-82493452D01*
X108444335Y-82326815D01*
X108441481Y-82321355D01*
X108436130Y-82314699D01*
X108334447Y-82188232D01*
X108314481Y-82163399D01*
X108159219Y-82033119D01*
X108153827Y-82030155D01*
X108153823Y-82030152D01*
X107987006Y-81938444D01*
X107981609Y-81935477D01*
X107788416Y-81874193D01*
X107782299Y-81873507D01*
X107782295Y-81873506D01*
X107708152Y-81865190D01*
X107630683Y-81856500D01*
X107071496Y-81856500D01*
X106920787Y-81871277D01*
X106726758Y-81929858D01*
X106547802Y-82025010D01*
X106390737Y-82153110D01*
X106386810Y-82157857D01*
X106386808Y-82157859D01*
X106265473Y-82304528D01*
X106265471Y-82304531D01*
X106261544Y-82309278D01*
X106165144Y-82487565D01*
X106160994Y-82500971D01*
X106157854Y-82511115D01*
X106118602Y-82570275D01*
X106053598Y-82598822D01*
X105983479Y-82587693D01*
X105930508Y-82540422D01*
X105911489Y-82473856D01*
X105911489Y-81620000D01*
X108674384Y-81620000D01*
X108692814Y-81830655D01*
X108694238Y-81835968D01*
X108694238Y-81835970D01*
X108703699Y-81871277D01*
X108747544Y-82034910D01*
X108749866Y-82039891D01*
X108749867Y-82039892D01*
X108821365Y-82193219D01*
X108836911Y-82226558D01*
X108958199Y-82399776D01*
X109107724Y-82549301D01*
X109280942Y-82670589D01*
X109285920Y-82672910D01*
X109285923Y-82672912D01*
X109467608Y-82757633D01*
X109472590Y-82759956D01*
X109477898Y-82761378D01*
X109477900Y-82761379D01*
X109671530Y-82813262D01*
X109671532Y-82813262D01*
X109676845Y-82814686D01*
X109887500Y-82833116D01*
X110098155Y-82814686D01*
X110103468Y-82813262D01*
X110103470Y-82813262D01*
X110297100Y-82761379D01*
X110297102Y-82761378D01*
X110302410Y-82759956D01*
X110307392Y-82757633D01*
X110489077Y-82672912D01*
X110489080Y-82672910D01*
X110494058Y-82670589D01*
X110667276Y-82549301D01*
X110816801Y-82399776D01*
X110938089Y-82226558D01*
X110953636Y-82193219D01*
X111025133Y-82039892D01*
X111025134Y-82039891D01*
X111027456Y-82034910D01*
X111071302Y-81871277D01*
X111080762Y-81835970D01*
X111080762Y-81835968D01*
X111082186Y-81830655D01*
X111100616Y-81620000D01*
X111082186Y-81409345D01*
X111070006Y-81363887D01*
X111028879Y-81210400D01*
X111028878Y-81210398D01*
X111027456Y-81205090D01*
X110938089Y-81013442D01*
X110816801Y-80840224D01*
X110667276Y-80690699D01*
X110494058Y-80569411D01*
X110489080Y-80567090D01*
X110489077Y-80567088D01*
X110307392Y-80482367D01*
X110307391Y-80482366D01*
X110302410Y-80480044D01*
X110297102Y-80478622D01*
X110297100Y-80478621D01*
X110103470Y-80426738D01*
X110103468Y-80426738D01*
X110098155Y-80425314D01*
X109887500Y-80406884D01*
X109676845Y-80425314D01*
X109671532Y-80426738D01*
X109671530Y-80426738D01*
X109477900Y-80478621D01*
X109477898Y-80478622D01*
X109472590Y-80480044D01*
X109467609Y-80482366D01*
X109467608Y-80482367D01*
X109285923Y-80567088D01*
X109285920Y-80567090D01*
X109280942Y-80569411D01*
X109107724Y-80690699D01*
X108958199Y-80840224D01*
X108836911Y-81013442D01*
X108747544Y-81205090D01*
X108746122Y-81210398D01*
X108746121Y-81210400D01*
X108704994Y-81363887D01*
X108692814Y-81409345D01*
X108674384Y-81620000D01*
X105911489Y-81620000D01*
X105911489Y-80350000D01*
X118723964Y-80350000D01*
X118744071Y-80579830D01*
X118803783Y-80802676D01*
X118806108Y-80807661D01*
X118898958Y-81006781D01*
X118898961Y-81006786D01*
X118901284Y-81011768D01*
X119033613Y-81200753D01*
X119196747Y-81363887D01*
X119201255Y-81367044D01*
X119201258Y-81367046D01*
X119269494Y-81414825D01*
X119385732Y-81496216D01*
X119390714Y-81498539D01*
X119390719Y-81498542D01*
X119450599Y-81526464D01*
X119594824Y-81593717D01*
X119817670Y-81653429D01*
X120047500Y-81673536D01*
X120277330Y-81653429D01*
X120500176Y-81593717D01*
X120644401Y-81526464D01*
X120704281Y-81498542D01*
X120704286Y-81498539D01*
X120709268Y-81496216D01*
X120825506Y-81414825D01*
X120893742Y-81367046D01*
X120893745Y-81367044D01*
X120898253Y-81363887D01*
X121061387Y-81200753D01*
X121193716Y-81011768D01*
X121196039Y-81006786D01*
X121196042Y-81006781D01*
X121288892Y-80807661D01*
X121291217Y-80802676D01*
X121350929Y-80579830D01*
X121371036Y-80350000D01*
X121350929Y-80120170D01*
X121291217Y-79897324D01*
X121245628Y-79799558D01*
X121196042Y-79693219D01*
X121196039Y-79693214D01*
X121193716Y-79688232D01*
X121061387Y-79499247D01*
X120898253Y-79336113D01*
X120893745Y-79332956D01*
X120893742Y-79332954D01*
X120769714Y-79246109D01*
X120709268Y-79203784D01*
X120704286Y-79201461D01*
X120704281Y-79201458D01*
X120565489Y-79136739D01*
X120500176Y-79106283D01*
X120277330Y-79046571D01*
X120047500Y-79026464D01*
X119817670Y-79046571D01*
X119594824Y-79106283D01*
X119529511Y-79136739D01*
X119390719Y-79201458D01*
X119390714Y-79201461D01*
X119385732Y-79203784D01*
X119325286Y-79246109D01*
X119201258Y-79332954D01*
X119201255Y-79332956D01*
X119196747Y-79336113D01*
X119033613Y-79499247D01*
X118901284Y-79688232D01*
X118898961Y-79693214D01*
X118898958Y-79693219D01*
X118849372Y-79799558D01*
X118803783Y-79897324D01*
X118744071Y-80120170D01*
X118723964Y-80350000D01*
X105911489Y-80350000D01*
X105911489Y-76816522D01*
X107324773Y-76816522D01*
X107372264Y-76993761D01*
X107376010Y-77004053D01*
X107468086Y-77201511D01*
X107473569Y-77211007D01*
X107598528Y-77389467D01*
X107605584Y-77397875D01*
X107759625Y-77551916D01*
X107768033Y-77558972D01*
X107946493Y-77683931D01*
X107955989Y-77689414D01*
X108153447Y-77781490D01*
X108163739Y-77785236D01*
X108336003Y-77831394D01*
X108350099Y-77831058D01*
X108353500Y-77823116D01*
X108353500Y-76822115D01*
X108349025Y-76806876D01*
X108347635Y-76805671D01*
X108339952Y-76804000D01*
X107339533Y-76804000D01*
X107326002Y-76807973D01*
X107324773Y-76816522D01*
X105911489Y-76816522D01*
X105911489Y-76278503D01*
X107326106Y-76278503D01*
X107326442Y-76292599D01*
X107334384Y-76296000D01*
X108335385Y-76296000D01*
X108350624Y-76291525D01*
X108351829Y-76290135D01*
X108353500Y-76282452D01*
X108353500Y-75282033D01*
X108349527Y-75268502D01*
X108340978Y-75267273D01*
X108163739Y-75314764D01*
X108153447Y-75318510D01*
X107955989Y-75410586D01*
X107946493Y-75416069D01*
X107768033Y-75541028D01*
X107759625Y-75548084D01*
X107605584Y-75702125D01*
X107598528Y-75710533D01*
X107473569Y-75888993D01*
X107468086Y-75898489D01*
X107376010Y-76095947D01*
X107372264Y-76106239D01*
X107326106Y-76278503D01*
X105911489Y-76278503D01*
X105911489Y-74794500D01*
X105931491Y-74726379D01*
X105985147Y-74679886D01*
X106037489Y-74668500D01*
X115093000Y-74668500D01*
X115161121Y-74688502D01*
X115207614Y-74742158D01*
X115219000Y-74794500D01*
X115219000Y-75669260D01*
X115196213Y-75741531D01*
X115089977Y-75893251D01*
X115087654Y-75898233D01*
X115087651Y-75898238D01*
X115071695Y-75932457D01*
X115024778Y-75985742D01*
X114956501Y-76005203D01*
X114888541Y-75984661D01*
X114843305Y-75932457D01*
X114827349Y-75898238D01*
X114827346Y-75898233D01*
X114825023Y-75893251D01*
X114693698Y-75705700D01*
X114531800Y-75543802D01*
X114527292Y-75540645D01*
X114527289Y-75540643D01*
X114398037Y-75450140D01*
X114344249Y-75412477D01*
X114339267Y-75410154D01*
X114339262Y-75410151D01*
X114141725Y-75318039D01*
X114141724Y-75318039D01*
X114136743Y-75315716D01*
X114131435Y-75314294D01*
X114131433Y-75314293D01*
X113920902Y-75257881D01*
X113920900Y-75257881D01*
X113915587Y-75256457D01*
X113687500Y-75236502D01*
X113459413Y-75256457D01*
X113454100Y-75257881D01*
X113454098Y-75257881D01*
X113243567Y-75314293D01*
X113243565Y-75314294D01*
X113238257Y-75315716D01*
X113233276Y-75318039D01*
X113233275Y-75318039D01*
X113035738Y-75410151D01*
X113035733Y-75410154D01*
X113030751Y-75412477D01*
X112976963Y-75450140D01*
X112847711Y-75540643D01*
X112847708Y-75540645D01*
X112843200Y-75543802D01*
X112681302Y-75705700D01*
X112549977Y-75893251D01*
X112547654Y-75898233D01*
X112547651Y-75898238D01*
X112531695Y-75932457D01*
X112484778Y-75985742D01*
X112416501Y-76005203D01*
X112348541Y-75984661D01*
X112303305Y-75932457D01*
X112287349Y-75898238D01*
X112287346Y-75898233D01*
X112285023Y-75893251D01*
X112153698Y-75705700D01*
X111991800Y-75543802D01*
X111987292Y-75540645D01*
X111987289Y-75540643D01*
X111858037Y-75450140D01*
X111804249Y-75412477D01*
X111799267Y-75410154D01*
X111799262Y-75410151D01*
X111601725Y-75318039D01*
X111601724Y-75318039D01*
X111596743Y-75315716D01*
X111591435Y-75314294D01*
X111591433Y-75314293D01*
X111380902Y-75257881D01*
X111380900Y-75257881D01*
X111375587Y-75256457D01*
X111147500Y-75236502D01*
X110919413Y-75256457D01*
X110914100Y-75257881D01*
X110914098Y-75257881D01*
X110703567Y-75314293D01*
X110703565Y-75314294D01*
X110698257Y-75315716D01*
X110693276Y-75318039D01*
X110693275Y-75318039D01*
X110495738Y-75410151D01*
X110495733Y-75410154D01*
X110490751Y-75412477D01*
X110436963Y-75450140D01*
X110307711Y-75540643D01*
X110307708Y-75540645D01*
X110303200Y-75543802D01*
X110141302Y-75705700D01*
X110009977Y-75893251D01*
X110007654Y-75898233D01*
X110007651Y-75898238D01*
X109991419Y-75933049D01*
X109944502Y-75986334D01*
X109876225Y-76005795D01*
X109808265Y-75985253D01*
X109763029Y-75933049D01*
X109746914Y-75898489D01*
X109741431Y-75888993D01*
X109616472Y-75710533D01*
X109609416Y-75702125D01*
X109455375Y-75548084D01*
X109446967Y-75541028D01*
X109268507Y-75416069D01*
X109259011Y-75410586D01*
X109061553Y-75318510D01*
X109051261Y-75314764D01*
X108878997Y-75268606D01*
X108864901Y-75268942D01*
X108861500Y-75276884D01*
X108861500Y-77817967D01*
X108865473Y-77831498D01*
X108874022Y-77832727D01*
X109051261Y-77785236D01*
X109061553Y-77781490D01*
X109259011Y-77689414D01*
X109268507Y-77683931D01*
X109446967Y-77558972D01*
X109455375Y-77551916D01*
X109609416Y-77397875D01*
X109616472Y-77389467D01*
X109741431Y-77211007D01*
X109746914Y-77201511D01*
X109763029Y-77166951D01*
X109809946Y-77113666D01*
X109878223Y-77094205D01*
X109946183Y-77114747D01*
X109991419Y-77166951D01*
X110007651Y-77201762D01*
X110007654Y-77201767D01*
X110009977Y-77206749D01*
X110141302Y-77394300D01*
X110303200Y-77556198D01*
X110307708Y-77559355D01*
X110307711Y-77559357D01*
X110385889Y-77614098D01*
X110490751Y-77687523D01*
X110495733Y-77689846D01*
X110495738Y-77689849D01*
X110692265Y-77781490D01*
X110698257Y-77784284D01*
X110703565Y-77785706D01*
X110703567Y-77785707D01*
X110914098Y-77842119D01*
X110914100Y-77842119D01*
X110919413Y-77843543D01*
X111147500Y-77863498D01*
X111375587Y-77843543D01*
X111380900Y-77842119D01*
X111380902Y-77842119D01*
X111591433Y-77785707D01*
X111591435Y-77785706D01*
X111596743Y-77784284D01*
X111602735Y-77781490D01*
X111799262Y-77689849D01*
X111799267Y-77689846D01*
X111804249Y-77687523D01*
X111909111Y-77614098D01*
X111987289Y-77559357D01*
X111987292Y-77559355D01*
X111991800Y-77556198D01*
X112153698Y-77394300D01*
X112285023Y-77206749D01*
X112287346Y-77201767D01*
X112287349Y-77201762D01*
X112303305Y-77167543D01*
X112350222Y-77114258D01*
X112418499Y-77094797D01*
X112486459Y-77115339D01*
X112531695Y-77167543D01*
X112547651Y-77201762D01*
X112547654Y-77201767D01*
X112549977Y-77206749D01*
X112681302Y-77394300D01*
X112843200Y-77556198D01*
X112847708Y-77559355D01*
X112847711Y-77559357D01*
X112925889Y-77614098D01*
X113030751Y-77687523D01*
X113035733Y-77689846D01*
X113035738Y-77689849D01*
X113232265Y-77781490D01*
X113238257Y-77784284D01*
X113243565Y-77785706D01*
X113243567Y-77785707D01*
X113454098Y-77842119D01*
X113454100Y-77842119D01*
X113459413Y-77843543D01*
X113687500Y-77863498D01*
X113915587Y-77843543D01*
X113920900Y-77842119D01*
X113920902Y-77842119D01*
X114131433Y-77785707D01*
X114131435Y-77785706D01*
X114136743Y-77784284D01*
X114142735Y-77781490D01*
X114339262Y-77689849D01*
X114339267Y-77689846D01*
X114344249Y-77687523D01*
X114449111Y-77614098D01*
X114527289Y-77559357D01*
X114527292Y-77559355D01*
X114531800Y-77556198D01*
X114693698Y-77394300D01*
X114825023Y-77206749D01*
X114827346Y-77201767D01*
X114827349Y-77201762D01*
X114843305Y-77167543D01*
X114890222Y-77114258D01*
X114958499Y-77094797D01*
X115026459Y-77115339D01*
X115071695Y-77167543D01*
X115087651Y-77201762D01*
X115087654Y-77201767D01*
X115089977Y-77206749D01*
X115221302Y-77394300D01*
X115383200Y-77556198D01*
X115387708Y-77559355D01*
X115387711Y-77559357D01*
X115465889Y-77614098D01*
X115570751Y-77687523D01*
X115575733Y-77689846D01*
X115575738Y-77689849D01*
X115772265Y-77781490D01*
X115778257Y-77784284D01*
X115783565Y-77785706D01*
X115783567Y-77785707D01*
X115994098Y-77842119D01*
X115994100Y-77842119D01*
X115999413Y-77843543D01*
X116227500Y-77863498D01*
X116455587Y-77843543D01*
X116460900Y-77842119D01*
X116460902Y-77842119D01*
X116671433Y-77785707D01*
X116671435Y-77785706D01*
X116676743Y-77784284D01*
X116682735Y-77781490D01*
X116825325Y-77715000D01*
X122533964Y-77715000D01*
X122554071Y-77944830D01*
X122613783Y-78167676D01*
X122616108Y-78172661D01*
X122708958Y-78371781D01*
X122708961Y-78371786D01*
X122711284Y-78376768D01*
X122843613Y-78565753D01*
X123006747Y-78728887D01*
X123011255Y-78732044D01*
X123011258Y-78732046D01*
X123090130Y-78787272D01*
X123195732Y-78861216D01*
X123200714Y-78863539D01*
X123200719Y-78863542D01*
X123307058Y-78913128D01*
X123404824Y-78958717D01*
X123627670Y-79018429D01*
X123857500Y-79038536D01*
X124087330Y-79018429D01*
X124310176Y-78958717D01*
X124407942Y-78913128D01*
X124514281Y-78863542D01*
X124514286Y-78863539D01*
X124519268Y-78861216D01*
X124624870Y-78787272D01*
X124703742Y-78732046D01*
X124703745Y-78732044D01*
X124708253Y-78728887D01*
X124871387Y-78565753D01*
X125003716Y-78376768D01*
X125006039Y-78371786D01*
X125006042Y-78371781D01*
X125098892Y-78172661D01*
X125101217Y-78167676D01*
X125160929Y-77944830D01*
X125181036Y-77715000D01*
X125160929Y-77485170D01*
X125101217Y-77262324D01*
X125022822Y-77094205D01*
X125006042Y-77058219D01*
X125006039Y-77058214D01*
X125003716Y-77053232D01*
X124871387Y-76864247D01*
X124708253Y-76701113D01*
X124703745Y-76697956D01*
X124703742Y-76697954D01*
X124624870Y-76642728D01*
X124519268Y-76568784D01*
X124514286Y-76566461D01*
X124514281Y-76566458D01*
X124407942Y-76516872D01*
X124310176Y-76471283D01*
X124087330Y-76411571D01*
X123857500Y-76391464D01*
X123627670Y-76411571D01*
X123404824Y-76471283D01*
X123307058Y-76516872D01*
X123200719Y-76566458D01*
X123200714Y-76566461D01*
X123195732Y-76568784D01*
X123090130Y-76642728D01*
X123011258Y-76697954D01*
X123011255Y-76697956D01*
X123006747Y-76701113D01*
X122843613Y-76864247D01*
X122711284Y-77053232D01*
X122708961Y-77058214D01*
X122708958Y-77058219D01*
X122692178Y-77094205D01*
X122613783Y-77262324D01*
X122554071Y-77485170D01*
X122533964Y-77715000D01*
X116825325Y-77715000D01*
X116879262Y-77689849D01*
X116879267Y-77689846D01*
X116884249Y-77687523D01*
X116989111Y-77614098D01*
X117067289Y-77559357D01*
X117067292Y-77559355D01*
X117071800Y-77556198D01*
X117233698Y-77394300D01*
X117365023Y-77206749D01*
X117367346Y-77201767D01*
X117367349Y-77201762D01*
X117459461Y-77004225D01*
X117459461Y-77004224D01*
X117461784Y-76999243D01*
X117521043Y-76778087D01*
X117540998Y-76550000D01*
X117521043Y-76321913D01*
X117512528Y-76290135D01*
X117463207Y-76106067D01*
X117463206Y-76106065D01*
X117461784Y-76100757D01*
X117447279Y-76069650D01*
X117367349Y-75898238D01*
X117367346Y-75898233D01*
X117365023Y-75893251D01*
X117258787Y-75741531D01*
X117236000Y-75669260D01*
X117236000Y-74794500D01*
X117256002Y-74726379D01*
X117309658Y-74679886D01*
X117362000Y-74668500D01*
X119974716Y-74668500D01*
X120042837Y-74688502D01*
X120089330Y-74742158D01*
X120099434Y-74812432D01*
X120096423Y-74827111D01*
X120054071Y-74985170D01*
X120033964Y-75215000D01*
X120054071Y-75444830D01*
X120113783Y-75667676D01*
X120133768Y-75710533D01*
X120208958Y-75871781D01*
X120208961Y-75871786D01*
X120211284Y-75876768D01*
X120343613Y-76065753D01*
X120506747Y-76228887D01*
X120511255Y-76232044D01*
X120511258Y-76232046D01*
X120577606Y-76278503D01*
X120695732Y-76361216D01*
X120700714Y-76363539D01*
X120700719Y-76363542D01*
X120760599Y-76391464D01*
X120904824Y-76458717D01*
X121127670Y-76518429D01*
X121357500Y-76538536D01*
X121587330Y-76518429D01*
X121810176Y-76458717D01*
X121954401Y-76391464D01*
X122014281Y-76363542D01*
X122014286Y-76363539D01*
X122019268Y-76361216D01*
X122137394Y-76278503D01*
X122203742Y-76232046D01*
X122203745Y-76232044D01*
X122208253Y-76228887D01*
X122371387Y-76065753D01*
X122503716Y-75876768D01*
X122506039Y-75871786D01*
X122506042Y-75871781D01*
X122581232Y-75710533D01*
X122601217Y-75667676D01*
X122660929Y-75444830D01*
X122681036Y-75215000D01*
X122660929Y-74985170D01*
X122618577Y-74827112D01*
X122620267Y-74756135D01*
X122660061Y-74697339D01*
X122725325Y-74669391D01*
X122740284Y-74668500D01*
X124974716Y-74668500D01*
X125042837Y-74688502D01*
X125089330Y-74742158D01*
X125099434Y-74812432D01*
X125096423Y-74827111D01*
X125054071Y-74985170D01*
X125033964Y-75215000D01*
X125054071Y-75444830D01*
X125113783Y-75667676D01*
X125133768Y-75710533D01*
X125208958Y-75871781D01*
X125208961Y-75871786D01*
X125211284Y-75876768D01*
X125343613Y-76065753D01*
X125506747Y-76228887D01*
X125511255Y-76232044D01*
X125511258Y-76232046D01*
X125577606Y-76278503D01*
X125695732Y-76361216D01*
X125700714Y-76363539D01*
X125700719Y-76363542D01*
X125760599Y-76391464D01*
X125904824Y-76458717D01*
X126127670Y-76518429D01*
X126357500Y-76538536D01*
X126587330Y-76518429D01*
X126810176Y-76458717D01*
X126954401Y-76391464D01*
X127014281Y-76363542D01*
X127014286Y-76363539D01*
X127019268Y-76361216D01*
X127137394Y-76278503D01*
X127203742Y-76232046D01*
X127203745Y-76232044D01*
X127208253Y-76228887D01*
X127371387Y-76065753D01*
X127503716Y-75876768D01*
X127506039Y-75871786D01*
X127506042Y-75871781D01*
X127581232Y-75710533D01*
X127601217Y-75667676D01*
X127660929Y-75444830D01*
X127681036Y-75215000D01*
X127660929Y-74985170D01*
X127618577Y-74827112D01*
X127620267Y-74756135D01*
X127660061Y-74697339D01*
X127725325Y-74669391D01*
X127740284Y-74668500D01*
X128208157Y-74668500D01*
X128221764Y-74669237D01*
X128253262Y-74672659D01*
X128253267Y-74672659D01*
X128259388Y-74673324D01*
X128285638Y-74671027D01*
X128309388Y-74668950D01*
X128314214Y-74668621D01*
X128316686Y-74668500D01*
X128319769Y-74668500D01*
X128331738Y-74667326D01*
X128362506Y-74664310D01*
X128363819Y-74664188D01*
X128408084Y-74660315D01*
X128456413Y-74656087D01*
X128461532Y-74654600D01*
X128466833Y-74654080D01*
X128555834Y-74627209D01*
X128556967Y-74626874D01*
X128640414Y-74602630D01*
X128640418Y-74602628D01*
X128646336Y-74600909D01*
X128651068Y-74598456D01*
X128656169Y-74596916D01*
X128661612Y-74594022D01*
X128738260Y-74553269D01*
X128739426Y-74552657D01*
X128816453Y-74512729D01*
X128821926Y-74509892D01*
X128826089Y-74506569D01*
X128830796Y-74504066D01*
X128902918Y-74445245D01*
X128903774Y-74444554D01*
X128942973Y-74413262D01*
X128945477Y-74410758D01*
X128946195Y-74410116D01*
X128950528Y-74406415D01*
X128984062Y-74379065D01*
X129013288Y-74343736D01*
X129021279Y-74334955D01*
X129596879Y-73759355D01*
X129607022Y-73750253D01*
X129631718Y-73730397D01*
X129636525Y-73726532D01*
X129668820Y-73688044D01*
X129671978Y-73684425D01*
X129673624Y-73682610D01*
X129675809Y-73680425D01*
X129677764Y-73678045D01*
X129677773Y-73678035D01*
X129703049Y-73647264D01*
X129703891Y-73646249D01*
X129759694Y-73579745D01*
X129763654Y-73575026D01*
X129766223Y-73570352D01*
X129769602Y-73566239D01*
X129813475Y-73484415D01*
X129814084Y-73483293D01*
X129855964Y-73407114D01*
X129855965Y-73407112D01*
X129858933Y-73401713D01*
X129860545Y-73396631D01*
X129863062Y-73391937D01*
X129890262Y-73302969D01*
X129890608Y-73301858D01*
X129916873Y-73219063D01*
X129918735Y-73213194D01*
X129919329Y-73207898D01*
X129920887Y-73202802D01*
X129930290Y-73110243D01*
X129930411Y-73109107D01*
X129936000Y-73059273D01*
X129936000Y-73055746D01*
X129936055Y-73054761D01*
X129936502Y-73049081D01*
X129940874Y-73006038D01*
X129936559Y-72960391D01*
X129936000Y-72948533D01*
X129936000Y-72606592D01*
X129956002Y-72538471D01*
X130009658Y-72491978D01*
X130079932Y-72481874D01*
X130144512Y-72511368D01*
X130172519Y-72546082D01*
X130173736Y-72548304D01*
X130176885Y-72556705D01*
X130264239Y-72673261D01*
X130380795Y-72760615D01*
X130517184Y-72811745D01*
X130579366Y-72818500D01*
X132375634Y-72818500D01*
X132437816Y-72811745D01*
X132574205Y-72760615D01*
X132639935Y-72711353D01*
X132706441Y-72686505D01*
X132775824Y-72701558D01*
X132826054Y-72751732D01*
X132841500Y-72812179D01*
X132841500Y-131445500D01*
X132821498Y-131513621D01*
X132767842Y-131560114D01*
X132715500Y-131571500D01*
X100964500Y-131571500D01*
X100896379Y-131551498D01*
X100849886Y-131497842D01*
X100838500Y-131445500D01*
X100838500Y-121840000D01*
X107896464Y-121840000D01*
X107916571Y-122069830D01*
X107976283Y-122292676D01*
X107978608Y-122297661D01*
X108071458Y-122496781D01*
X108071461Y-122496786D01*
X108073784Y-122501768D01*
X108136445Y-122591257D01*
X108198068Y-122679263D01*
X108206113Y-122690753D01*
X108369247Y-122853887D01*
X108373755Y-122857044D01*
X108373758Y-122857046D01*
X108395772Y-122872460D01*
X108558232Y-122986216D01*
X108563214Y-122988539D01*
X108563219Y-122988542D01*
X108623616Y-123016705D01*
X108767324Y-123083717D01*
X108990170Y-123143429D01*
X109220000Y-123163536D01*
X109449830Y-123143429D01*
X109672676Y-123083717D01*
X109816384Y-123016705D01*
X109876781Y-122988542D01*
X109876786Y-122988539D01*
X109881768Y-122986216D01*
X110044228Y-122872460D01*
X110066242Y-122857046D01*
X110066245Y-122857044D01*
X110070753Y-122853887D01*
X110233887Y-122690753D01*
X110241933Y-122679263D01*
X110303555Y-122591257D01*
X110366216Y-122501768D01*
X110368539Y-122496786D01*
X110368542Y-122496781D01*
X110461392Y-122297661D01*
X110463717Y-122292676D01*
X110523429Y-122069830D01*
X110543536Y-121840000D01*
X110523429Y-121610170D01*
X110463717Y-121387324D01*
X110418128Y-121289558D01*
X110368542Y-121183219D01*
X110368539Y-121183214D01*
X110366216Y-121178232D01*
X110266079Y-121035222D01*
X110237046Y-120993758D01*
X110237044Y-120993755D01*
X110233887Y-120989247D01*
X110070753Y-120826113D01*
X110066245Y-120822956D01*
X110066242Y-120822954D01*
X109978273Y-120761358D01*
X109881768Y-120693784D01*
X109876786Y-120691461D01*
X109876781Y-120691458D01*
X109761883Y-120637881D01*
X109672676Y-120596283D01*
X109449830Y-120536571D01*
X109220000Y-120516464D01*
X108990170Y-120536571D01*
X108767324Y-120596283D01*
X108678117Y-120637881D01*
X108563219Y-120691458D01*
X108563214Y-120691461D01*
X108558232Y-120693784D01*
X108461727Y-120761358D01*
X108373758Y-120822954D01*
X108373755Y-120822956D01*
X108369247Y-120826113D01*
X108206113Y-120989247D01*
X108202956Y-120993755D01*
X108202954Y-120993758D01*
X108173921Y-121035222D01*
X108073784Y-121178232D01*
X108071461Y-121183214D01*
X108071458Y-121183219D01*
X108021872Y-121289558D01*
X107976283Y-121387324D01*
X107916571Y-121610170D01*
X107896464Y-121840000D01*
X100838500Y-121840000D01*
X100838500Y-119340000D01*
X110396464Y-119340000D01*
X110416571Y-119569830D01*
X110476283Y-119792676D01*
X110478608Y-119797661D01*
X110571458Y-119996781D01*
X110571461Y-119996786D01*
X110573784Y-120001768D01*
X110706113Y-120190753D01*
X110869247Y-120353887D01*
X110873755Y-120357044D01*
X110873758Y-120357046D01*
X110952630Y-120412272D01*
X111058232Y-120486216D01*
X111063214Y-120488539D01*
X111063219Y-120488542D01*
X111123099Y-120516464D01*
X111267324Y-120583717D01*
X111490170Y-120643429D01*
X111720000Y-120663536D01*
X111949830Y-120643429D01*
X112172676Y-120583717D01*
X112316901Y-120516464D01*
X112376781Y-120488542D01*
X112376786Y-120488539D01*
X112381768Y-120486216D01*
X112487370Y-120412272D01*
X112566242Y-120357046D01*
X112566245Y-120357044D01*
X112570753Y-120353887D01*
X112733887Y-120190753D01*
X112866216Y-120001768D01*
X112868539Y-119996786D01*
X112868542Y-119996781D01*
X112961392Y-119797661D01*
X112963717Y-119792676D01*
X113023429Y-119569830D01*
X113043536Y-119340000D01*
X113023429Y-119110170D01*
X112963717Y-118887324D01*
X112918128Y-118789558D01*
X112868542Y-118683219D01*
X112868539Y-118683214D01*
X112866216Y-118678232D01*
X112733887Y-118489247D01*
X112570753Y-118326113D01*
X112566245Y-118322956D01*
X112566242Y-118322954D01*
X112487370Y-118267728D01*
X112381768Y-118193784D01*
X112376786Y-118191461D01*
X112376781Y-118191458D01*
X112269668Y-118141511D01*
X112172676Y-118096283D01*
X111949830Y-118036571D01*
X111720000Y-118016464D01*
X111490170Y-118036571D01*
X111267324Y-118096283D01*
X111170332Y-118141511D01*
X111063219Y-118191458D01*
X111063214Y-118191461D01*
X111058232Y-118193784D01*
X110952630Y-118267728D01*
X110873758Y-118322954D01*
X110873755Y-118322956D01*
X110869247Y-118326113D01*
X110706113Y-118489247D01*
X110573784Y-118678232D01*
X110571461Y-118683214D01*
X110571458Y-118683219D01*
X110521872Y-118789558D01*
X110476283Y-118887324D01*
X110416571Y-119110170D01*
X110396464Y-119340000D01*
X100838500Y-119340000D01*
X100838500Y-117933243D01*
X108491312Y-117933243D01*
X108500608Y-117945258D01*
X108553974Y-117982625D01*
X108563469Y-117988108D01*
X108762513Y-118080923D01*
X108772805Y-118084669D01*
X108984942Y-118141511D01*
X108995737Y-118143414D01*
X109214525Y-118162556D01*
X109225475Y-118162556D01*
X109444263Y-118143414D01*
X109455058Y-118141511D01*
X109667195Y-118084669D01*
X109677487Y-118080923D01*
X109876531Y-117988108D01*
X109886026Y-117982625D01*
X109940230Y-117944671D01*
X109948605Y-117934194D01*
X109941537Y-117920747D01*
X109232812Y-117212022D01*
X109218868Y-117204408D01*
X109217035Y-117204539D01*
X109210420Y-117208790D01*
X108497742Y-117921468D01*
X108491312Y-117933243D01*
X100838500Y-117933243D01*
X100838500Y-116845475D01*
X107897444Y-116845475D01*
X107916586Y-117064263D01*
X107918489Y-117075058D01*
X107975331Y-117287195D01*
X107979077Y-117297487D01*
X108071895Y-117496536D01*
X108077373Y-117506022D01*
X108115328Y-117560229D01*
X108125806Y-117568604D01*
X108139254Y-117561536D01*
X108847978Y-116852812D01*
X108854356Y-116841132D01*
X109584408Y-116841132D01*
X109584539Y-116842965D01*
X109588790Y-116849580D01*
X110301468Y-117562258D01*
X110313242Y-117568688D01*
X110325258Y-117559391D01*
X110362627Y-117506022D01*
X110368105Y-117496536D01*
X110460923Y-117297487D01*
X110464669Y-117287195D01*
X110521511Y-117075058D01*
X110523414Y-117064263D01*
X110542556Y-116845475D01*
X110542556Y-116834525D01*
X110523414Y-116615737D01*
X110521511Y-116604942D01*
X110464669Y-116392805D01*
X110460923Y-116382513D01*
X110368105Y-116183464D01*
X110362627Y-116173978D01*
X110324672Y-116119771D01*
X110314194Y-116111396D01*
X110300746Y-116118464D01*
X109592022Y-116827188D01*
X109584408Y-116841132D01*
X108854356Y-116841132D01*
X108855592Y-116838868D01*
X108855461Y-116837035D01*
X108851210Y-116830420D01*
X108138532Y-116117742D01*
X108126758Y-116111312D01*
X108114742Y-116120609D01*
X108077373Y-116173978D01*
X108071895Y-116183464D01*
X107979077Y-116382513D01*
X107975331Y-116392805D01*
X107918489Y-116604942D01*
X107916586Y-116615737D01*
X107897444Y-116834525D01*
X107897444Y-116845475D01*
X100838500Y-116845475D01*
X100838500Y-115745806D01*
X108491396Y-115745806D01*
X108498464Y-115759254D01*
X109207188Y-116467978D01*
X109221132Y-116475592D01*
X109222965Y-116475461D01*
X109229580Y-116471210D01*
X109942258Y-115758532D01*
X109948688Y-115746757D01*
X109939392Y-115734742D01*
X109886026Y-115697375D01*
X109876531Y-115691892D01*
X109677487Y-115599077D01*
X109667195Y-115595331D01*
X109455058Y-115538489D01*
X109444263Y-115536586D01*
X109225475Y-115517444D01*
X109214525Y-115517444D01*
X108995737Y-115536586D01*
X108984942Y-115538489D01*
X108772805Y-115595331D01*
X108762513Y-115599077D01*
X108563464Y-115691895D01*
X108553978Y-115697373D01*
X108499771Y-115735328D01*
X108491396Y-115745806D01*
X100838500Y-115745806D01*
X100838500Y-58388134D01*
X102179000Y-58388134D01*
X102185755Y-58450316D01*
X102236885Y-58586705D01*
X102324239Y-58703261D01*
X102440795Y-58790615D01*
X102577184Y-58841745D01*
X102639366Y-58848500D01*
X104435634Y-58848500D01*
X104497816Y-58841745D01*
X104634205Y-58790615D01*
X104731936Y-58717370D01*
X104798441Y-58692522D01*
X104867824Y-58707575D01*
X104883062Y-58717368D01*
X104980795Y-58790615D01*
X105117184Y-58841745D01*
X105179366Y-58848500D01*
X106975634Y-58848500D01*
X107037816Y-58841745D01*
X107174205Y-58790615D01*
X107271936Y-58717370D01*
X107338441Y-58692522D01*
X107407824Y-58707575D01*
X107423062Y-58717368D01*
X107520795Y-58790615D01*
X107657184Y-58841745D01*
X107719366Y-58848500D01*
X109515634Y-58848500D01*
X109577816Y-58841745D01*
X109714205Y-58790615D01*
X109811936Y-58717370D01*
X109878441Y-58692522D01*
X109947824Y-58707575D01*
X109963062Y-58717368D01*
X110060795Y-58790615D01*
X110197184Y-58841745D01*
X110259366Y-58848500D01*
X112055634Y-58848500D01*
X112117816Y-58841745D01*
X112254205Y-58790615D01*
X112351936Y-58717370D01*
X112418441Y-58692522D01*
X112487824Y-58707575D01*
X112503062Y-58717368D01*
X112600795Y-58790615D01*
X112737184Y-58841745D01*
X112799366Y-58848500D01*
X114595634Y-58848500D01*
X114657816Y-58841745D01*
X114794205Y-58790615D01*
X114891936Y-58717370D01*
X114958441Y-58692522D01*
X115027824Y-58707575D01*
X115043062Y-58717368D01*
X115140795Y-58790615D01*
X115277184Y-58841745D01*
X115339366Y-58848500D01*
X117135634Y-58848500D01*
X117197816Y-58841745D01*
X117334205Y-58790615D01*
X117431936Y-58717370D01*
X117498441Y-58692522D01*
X117567824Y-58707575D01*
X117583062Y-58717368D01*
X117680795Y-58790615D01*
X117817184Y-58841745D01*
X117879366Y-58848500D01*
X119675634Y-58848500D01*
X119737816Y-58841745D01*
X119874205Y-58790615D01*
X119971936Y-58717370D01*
X120038441Y-58692522D01*
X120107824Y-58707575D01*
X120123062Y-58717368D01*
X120220795Y-58790615D01*
X120357184Y-58841745D01*
X120419366Y-58848500D01*
X122215634Y-58848500D01*
X122277816Y-58841745D01*
X122414205Y-58790615D01*
X122530761Y-58703261D01*
X122618115Y-58586705D01*
X122639716Y-58529086D01*
X122659277Y-58476906D01*
X122701918Y-58420141D01*
X122768480Y-58395441D01*
X122837829Y-58410648D01*
X122872496Y-58438637D01*
X122890718Y-58459673D01*
X122898080Y-58466883D01*
X123061934Y-58602916D01*
X123070381Y-58608831D01*
X123254256Y-58716279D01*
X123263542Y-58720729D01*
X123462501Y-58796703D01*
X123472399Y-58799579D01*
X123575750Y-58820606D01*
X123589799Y-58819410D01*
X123593500Y-58809065D01*
X123593500Y-56173102D01*
X123589582Y-56159758D01*
X123575306Y-56157771D01*
X123536824Y-56163660D01*
X123526788Y-56166051D01*
X123324368Y-56232212D01*
X123314859Y-56236209D01*
X123125963Y-56334542D01*
X123117238Y-56340036D01*
X122946933Y-56467905D01*
X122939226Y-56474748D01*
X122869160Y-56548068D01*
X122807636Y-56583498D01*
X122736723Y-56580041D01*
X122678937Y-56538795D01*
X122660084Y-56505247D01*
X122621267Y-56401703D01*
X122618115Y-56393295D01*
X122530761Y-56276739D01*
X122414205Y-56189385D01*
X122277816Y-56138255D01*
X122215634Y-56131500D01*
X120419366Y-56131500D01*
X120357184Y-56138255D01*
X120220795Y-56189385D01*
X120140452Y-56249599D01*
X120123065Y-56262630D01*
X120056559Y-56287478D01*
X119987176Y-56272425D01*
X119971935Y-56262630D01*
X119954548Y-56249599D01*
X119874205Y-56189385D01*
X119737816Y-56138255D01*
X119675634Y-56131500D01*
X117879366Y-56131500D01*
X117817184Y-56138255D01*
X117680795Y-56189385D01*
X117600452Y-56249599D01*
X117583065Y-56262630D01*
X117516559Y-56287478D01*
X117447176Y-56272425D01*
X117431935Y-56262630D01*
X117414548Y-56249599D01*
X117334205Y-56189385D01*
X117197816Y-56138255D01*
X117135634Y-56131500D01*
X115339366Y-56131500D01*
X115277184Y-56138255D01*
X115140795Y-56189385D01*
X115060452Y-56249599D01*
X115043065Y-56262630D01*
X114976559Y-56287478D01*
X114907176Y-56272425D01*
X114891935Y-56262630D01*
X114874548Y-56249599D01*
X114794205Y-56189385D01*
X114657816Y-56138255D01*
X114595634Y-56131500D01*
X112799366Y-56131500D01*
X112737184Y-56138255D01*
X112600795Y-56189385D01*
X112520452Y-56249599D01*
X112503065Y-56262630D01*
X112436559Y-56287478D01*
X112367176Y-56272425D01*
X112351935Y-56262630D01*
X112334548Y-56249599D01*
X112254205Y-56189385D01*
X112117816Y-56138255D01*
X112055634Y-56131500D01*
X110259366Y-56131500D01*
X110197184Y-56138255D01*
X110060795Y-56189385D01*
X109980452Y-56249599D01*
X109963065Y-56262630D01*
X109896559Y-56287478D01*
X109827176Y-56272425D01*
X109811935Y-56262630D01*
X109794548Y-56249599D01*
X109714205Y-56189385D01*
X109577816Y-56138255D01*
X109515634Y-56131500D01*
X107719366Y-56131500D01*
X107657184Y-56138255D01*
X107520795Y-56189385D01*
X107440452Y-56249599D01*
X107423065Y-56262630D01*
X107356559Y-56287478D01*
X107287176Y-56272425D01*
X107271935Y-56262630D01*
X107254548Y-56249599D01*
X107174205Y-56189385D01*
X107037816Y-56138255D01*
X106975634Y-56131500D01*
X105179366Y-56131500D01*
X105117184Y-56138255D01*
X104980795Y-56189385D01*
X104900452Y-56249599D01*
X104883065Y-56262630D01*
X104816559Y-56287478D01*
X104747176Y-56272425D01*
X104731935Y-56262630D01*
X104714548Y-56249599D01*
X104634205Y-56189385D01*
X104497816Y-56138255D01*
X104435634Y-56131500D01*
X102639366Y-56131500D01*
X102577184Y-56138255D01*
X102440795Y-56189385D01*
X102324239Y-56276739D01*
X102236885Y-56393295D01*
X102185755Y-56529684D01*
X102179000Y-56591866D01*
X102179000Y-58388134D01*
X100838500Y-58388134D01*
X100838500Y-55244500D01*
X100858502Y-55176379D01*
X100912158Y-55129886D01*
X100964500Y-55118500D01*
X132715500Y-55118500D01*
X132783621Y-55138502D01*
G37*
%TD.AperFunction*%
%TD*%
M02*
