%FSLAX45Y45*%
G04 Gerber Fmt 4.5, Leading zero omitted, Abs format (unit mm)*
G04 Created by KiCad (PCBNEW (6.0.5)) date 2023-02-14 12:10:40*
%MOMM*%
%LPD*%
G01*
G04 APERTURE LIST*
%TA.AperFunction,Profile*%
%ADD10C,0.100000*%
%TD*%
%ADD11C,0.200000*%
%ADD12C,0.070000*%
%ADD13C,0.075000*%
%ADD14C,0.080000*%
%ADD15C,0.090000*%
%ADD16C,0.100000*%
G04 APERTURE END LIST*
D10*
X10033000Y-13208000D02*
X10033000Y-5461000D01*
X10033000Y-5461000D02*
X13335000Y-5461000D01*
X13335000Y-13208000D02*
X10033000Y-13208000D01*
X13335000Y-5461000D02*
X13335000Y-13208000D01*
D11*
D12*
X10953750Y-8127000D02*
X11023750Y-8197000D01*
X11023750Y-8127000D02*
X10953750Y-8197000D01*
X10953750Y-8635000D02*
X11023750Y-8705000D01*
X11023750Y-8635000D02*
X10953750Y-8705000D01*
D13*
X10645250Y-10702000D02*
G75*
G03*
X10645250Y-10702000I-37500J0D01*
G01*
X10772250Y-8289000D02*
G75*
G03*
X10772250Y-8289000I-37500J0D01*
G01*
X10772250Y-8416000D02*
G75*
G03*
X10772250Y-8416000I-37500J0D01*
G01*
X10772250Y-8543000D02*
G75*
G03*
X10772250Y-8543000I-37500J0D01*
G01*
X10772250Y-10702000D02*
G75*
G03*
X10772250Y-10702000I-37500J0D01*
G01*
X10899250Y-10702000D02*
G75*
G03*
X10899250Y-10702000I-37500J0D01*
G01*
X11407250Y-8289000D02*
G75*
G03*
X11407250Y-8289000I-37500J0D01*
G01*
X11407250Y-8416000D02*
G75*
G03*
X11407250Y-8416000I-37500J0D01*
G01*
X11407250Y-8543000D02*
G75*
G03*
X11407250Y-8543000I-37500J0D01*
G01*
D14*
X10860750Y-6853000D02*
X10860750Y-6933000D01*
X10820750Y-6893000D02*
X10900750Y-6893000D01*
X10860750Y-7615000D02*
X10860750Y-7695000D01*
X10820750Y-7655000D02*
X10900750Y-7655000D01*
X11114750Y-6853000D02*
X11114750Y-6933000D01*
X11074750Y-6893000D02*
X11154750Y-6893000D01*
X11114750Y-7615000D02*
X11114750Y-7695000D01*
X11074750Y-7655000D02*
X11154750Y-7655000D01*
X11176000Y-9993000D02*
X11176000Y-10073000D01*
X11136000Y-10033000D02*
X11216000Y-10033000D01*
X11176000Y-10755000D02*
X11176000Y-10835000D01*
X11136000Y-10795000D02*
X11216000Y-10795000D01*
X11368750Y-6853000D02*
X11368750Y-6933000D01*
X11328750Y-6893000D02*
X11408750Y-6893000D01*
X11368750Y-7615000D02*
X11368750Y-7695000D01*
X11328750Y-7655000D02*
X11408750Y-7655000D01*
X11430000Y-9993000D02*
X11430000Y-10073000D01*
X11390000Y-10033000D02*
X11470000Y-10033000D01*
X11430000Y-10755000D02*
X11430000Y-10835000D01*
X11390000Y-10795000D02*
X11470000Y-10795000D01*
X11556000Y-12153000D02*
X11556000Y-12233000D01*
X11516000Y-12193000D02*
X11596000Y-12193000D01*
X11556000Y-12915000D02*
X11556000Y-12995000D01*
X11516000Y-12955000D02*
X11596000Y-12955000D01*
X11622750Y-6853000D02*
X11622750Y-6933000D01*
X11582750Y-6893000D02*
X11662750Y-6893000D01*
X11622750Y-7615000D02*
X11622750Y-7695000D01*
X11582750Y-7655000D02*
X11662750Y-7655000D01*
X11684000Y-9993000D02*
X11684000Y-10073000D01*
X11644000Y-10033000D02*
X11724000Y-10033000D01*
X11684000Y-10755000D02*
X11684000Y-10835000D01*
X11644000Y-10795000D02*
X11724000Y-10795000D01*
X11810000Y-12153000D02*
X11810000Y-12233000D01*
X11770000Y-12193000D02*
X11850000Y-12193000D01*
X11810000Y-12915000D02*
X11810000Y-12995000D01*
X11770000Y-12955000D02*
X11850000Y-12955000D01*
X11938000Y-9993000D02*
X11938000Y-10073000D01*
X11898000Y-10033000D02*
X11978000Y-10033000D01*
X11938000Y-10755000D02*
X11938000Y-10835000D01*
X11898000Y-10795000D02*
X11978000Y-10795000D01*
X12064000Y-12153000D02*
X12064000Y-12233000D01*
X12024000Y-12193000D02*
X12104000Y-12193000D01*
X12064000Y-12915000D02*
X12064000Y-12995000D01*
X12024000Y-12955000D02*
X12104000Y-12955000D01*
X12318000Y-12153000D02*
X12318000Y-12233000D01*
X12278000Y-12193000D02*
X12358000Y-12193000D01*
X12318000Y-12915000D02*
X12318000Y-12995000D01*
X12278000Y-12955000D02*
X12358000Y-12955000D01*
D15*
X10953820Y-11715820D02*
X10953820Y-11652180D01*
X10890180Y-11652180D01*
X10890180Y-11715820D01*
X10953820Y-11715820D01*
X10953820Y-12215820D02*
X10953820Y-12152180D01*
X10890180Y-12152180D01*
X10890180Y-12215820D01*
X10953820Y-12215820D01*
X11203820Y-11965820D02*
X11203820Y-11902180D01*
X11140180Y-11902180D01*
X11140180Y-11965820D01*
X11203820Y-11965820D01*
X12036570Y-8066820D02*
X12036570Y-8003180D01*
X11972930Y-8003180D01*
X11972930Y-8066820D01*
X12036570Y-8066820D01*
X12036570Y-8566820D02*
X12036570Y-8503180D01*
X11972930Y-8503180D01*
X11972930Y-8566820D01*
X12036570Y-8566820D01*
X12167570Y-7553320D02*
X12167570Y-7489680D01*
X12103930Y-7489680D01*
X12103930Y-7553320D01*
X12167570Y-7553320D01*
X12286570Y-8316820D02*
X12286570Y-8253180D01*
X12222930Y-8253180D01*
X12222930Y-8316820D01*
X12286570Y-8316820D01*
X12417570Y-7803320D02*
X12417570Y-7739680D01*
X12353930Y-7739680D01*
X12353930Y-7803320D01*
X12417570Y-7803320D01*
X12667570Y-7553320D02*
X12667570Y-7489680D01*
X12603930Y-7489680D01*
X12603930Y-7553320D01*
X12667570Y-7553320D01*
D16*
X10353750Y-5799000D02*
X10403750Y-5749000D01*
X10353750Y-5699000D01*
X10303750Y-5749000D01*
X10353750Y-5799000D01*
X10607750Y-5799000D02*
X10657750Y-5749000D01*
X10607750Y-5699000D01*
X10557750Y-5749000D01*
X10607750Y-5799000D01*
X10607750Y-8974000D02*
X10657750Y-8924000D01*
X10607750Y-8874000D01*
X10557750Y-8924000D01*
X10607750Y-8974000D01*
X10607750Y-9228000D02*
X10657750Y-9178000D01*
X10607750Y-9128000D01*
X10557750Y-9178000D01*
X10607750Y-9228000D01*
X10861750Y-5799000D02*
X10911750Y-5749000D01*
X10861750Y-5699000D01*
X10811750Y-5749000D01*
X10861750Y-5799000D01*
X11115750Y-5799000D02*
X11165750Y-5749000D01*
X11115750Y-5699000D01*
X11065750Y-5749000D01*
X11115750Y-5799000D01*
X11369750Y-5799000D02*
X11419750Y-5749000D01*
X11369750Y-5699000D01*
X11319750Y-5749000D01*
X11369750Y-5799000D01*
X11623750Y-5799000D02*
X11673750Y-5749000D01*
X11623750Y-5699000D01*
X11573750Y-5749000D01*
X11623750Y-5799000D01*
X11877750Y-5799000D02*
X11927750Y-5749000D01*
X11877750Y-5699000D01*
X11827750Y-5749000D01*
X11877750Y-5799000D01*
X12131750Y-5799000D02*
X12181750Y-5749000D01*
X12131750Y-5699000D01*
X12081750Y-5749000D01*
X12131750Y-5799000D01*
X12319000Y-9702000D02*
X12369000Y-9652000D01*
X12319000Y-9602000D01*
X12269000Y-9652000D01*
X12319000Y-9702000D01*
X12319000Y-11353000D02*
X12369000Y-11303000D01*
X12319000Y-11253000D01*
X12269000Y-11303000D01*
X12319000Y-11353000D01*
X12384750Y-5799000D02*
X12434750Y-5749000D01*
X12384750Y-5699000D01*
X12334750Y-5749000D01*
X12384750Y-5799000D01*
X12638750Y-5799000D02*
X12688750Y-5749000D01*
X12638750Y-5699000D01*
X12588750Y-5749000D01*
X12638750Y-5799000D01*
X12639750Y-8085000D02*
X12689750Y-8035000D01*
X12639750Y-7985000D01*
X12589750Y-8035000D01*
X12639750Y-8085000D01*
X12639750Y-8339000D02*
X12689750Y-8289000D01*
X12639750Y-8239000D01*
X12589750Y-8289000D01*
X12639750Y-8339000D01*
X12892750Y-5799000D02*
X12942750Y-5749000D01*
X12892750Y-5699000D01*
X12842750Y-5749000D01*
X12892750Y-5799000D01*
X12954000Y-12242000D02*
X13004000Y-12192000D01*
X12954000Y-12142000D01*
X12904000Y-12192000D01*
X12954000Y-12242000D01*
X13081000Y-10338000D02*
X13131000Y-10288000D01*
X13081000Y-10238000D01*
X13031000Y-10288000D01*
X13081000Y-10338000D01*
X13081000Y-10592000D02*
X13131000Y-10542000D01*
X13081000Y-10492000D01*
X13031000Y-10542000D01*
X13081000Y-10592000D01*
X13081000Y-10845000D02*
X13131000Y-10795000D01*
X13081000Y-10745000D01*
X13031000Y-10795000D01*
X13081000Y-10845000D01*
X13146750Y-5799000D02*
X13196750Y-5749000D01*
X13146750Y-5699000D01*
X13096750Y-5749000D01*
X13146750Y-5799000D01*
X13147750Y-6434000D02*
X13197750Y-6384000D01*
X13147750Y-6334000D01*
X13097750Y-6384000D01*
X13147750Y-6434000D01*
X13147750Y-6688000D02*
X13197750Y-6638000D01*
X13147750Y-6588000D01*
X13097750Y-6638000D01*
X13147750Y-6688000D01*
X13147750Y-6942000D02*
X13197750Y-6892000D01*
X13147750Y-6842000D01*
X13097750Y-6892000D01*
X13147750Y-6942000D01*
X13147750Y-7196000D02*
X13197750Y-7146000D01*
X13147750Y-7096000D01*
X13097750Y-7146000D01*
X13147750Y-7196000D01*
D11*
X10285619Y-13523476D02*
X10285619Y-13323476D01*
X10333238Y-13323476D01*
X10361810Y-13333000D01*
X10380857Y-13352048D01*
X10390381Y-13371095D01*
X10399905Y-13409190D01*
X10399905Y-13437762D01*
X10390381Y-13475857D01*
X10380857Y-13494905D01*
X10361810Y-13513952D01*
X10333238Y-13523476D01*
X10285619Y-13523476D01*
X10485619Y-13523476D02*
X10485619Y-13390143D01*
X10485619Y-13428238D02*
X10495143Y-13409190D01*
X10504667Y-13399667D01*
X10523714Y-13390143D01*
X10542762Y-13390143D01*
X10609429Y-13523476D02*
X10609429Y-13390143D01*
X10609429Y-13323476D02*
X10599905Y-13333000D01*
X10609429Y-13342524D01*
X10618952Y-13333000D01*
X10609429Y-13323476D01*
X10609429Y-13342524D01*
X10733238Y-13523476D02*
X10714190Y-13513952D01*
X10704667Y-13494905D01*
X10704667Y-13323476D01*
X10838000Y-13523476D02*
X10818952Y-13513952D01*
X10809429Y-13494905D01*
X10809429Y-13323476D01*
X11066571Y-13523476D02*
X11066571Y-13323476D01*
X11133238Y-13466333D01*
X11199905Y-13323476D01*
X11199905Y-13523476D01*
X11380857Y-13523476D02*
X11380857Y-13418714D01*
X11371333Y-13399667D01*
X11352286Y-13390143D01*
X11314190Y-13390143D01*
X11295143Y-13399667D01*
X11380857Y-13513952D02*
X11361809Y-13523476D01*
X11314190Y-13523476D01*
X11295143Y-13513952D01*
X11285619Y-13494905D01*
X11285619Y-13475857D01*
X11295143Y-13456809D01*
X11314190Y-13447286D01*
X11361809Y-13447286D01*
X11380857Y-13437762D01*
X11476095Y-13390143D02*
X11476095Y-13590143D01*
X11476095Y-13399667D02*
X11495143Y-13390143D01*
X11533238Y-13390143D01*
X11552286Y-13399667D01*
X11561809Y-13409190D01*
X11571333Y-13428238D01*
X11571333Y-13485381D01*
X11561809Y-13504428D01*
X11552286Y-13513952D01*
X11533238Y-13523476D01*
X11495143Y-13523476D01*
X11476095Y-13513952D01*
X11657048Y-13504428D02*
X11666571Y-13513952D01*
X11657048Y-13523476D01*
X11647524Y-13513952D01*
X11657048Y-13504428D01*
X11657048Y-13523476D01*
X11657048Y-13399667D02*
X11666571Y-13409190D01*
X11657048Y-13418714D01*
X11647524Y-13409190D01*
X11657048Y-13399667D01*
X11657048Y-13418714D01*
D12*
X9958000Y-13818000D02*
X10028000Y-13888000D01*
X10028000Y-13818000D02*
X9958000Y-13888000D01*
D11*
X10323714Y-13743476D02*
X10342762Y-13743476D01*
X10361810Y-13753000D01*
X10371333Y-13762524D01*
X10380857Y-13781571D01*
X10390381Y-13819667D01*
X10390381Y-13867286D01*
X10380857Y-13905381D01*
X10371333Y-13924428D01*
X10361810Y-13933952D01*
X10342762Y-13943476D01*
X10323714Y-13943476D01*
X10304667Y-13933952D01*
X10295143Y-13924428D01*
X10285619Y-13905381D01*
X10276095Y-13867286D01*
X10276095Y-13819667D01*
X10285619Y-13781571D01*
X10295143Y-13762524D01*
X10304667Y-13753000D01*
X10323714Y-13743476D01*
X10476095Y-13924428D02*
X10485619Y-13933952D01*
X10476095Y-13943476D01*
X10466571Y-13933952D01*
X10476095Y-13924428D01*
X10476095Y-13943476D01*
X10552286Y-13743476D02*
X10685619Y-13743476D01*
X10599905Y-13943476D01*
X10799905Y-13743476D02*
X10818952Y-13743476D01*
X10838000Y-13753000D01*
X10847524Y-13762524D01*
X10857048Y-13781571D01*
X10866571Y-13819667D01*
X10866571Y-13867286D01*
X10857048Y-13905381D01*
X10847524Y-13924428D01*
X10838000Y-13933952D01*
X10818952Y-13943476D01*
X10799905Y-13943476D01*
X10780857Y-13933952D01*
X10771333Y-13924428D01*
X10761810Y-13905381D01*
X10752286Y-13867286D01*
X10752286Y-13819667D01*
X10761810Y-13781571D01*
X10771333Y-13762524D01*
X10780857Y-13753000D01*
X10799905Y-13743476D01*
X10990381Y-13743476D02*
X11009429Y-13743476D01*
X11028476Y-13753000D01*
X11038000Y-13762524D01*
X11047524Y-13781571D01*
X11057048Y-13819667D01*
X11057048Y-13867286D01*
X11047524Y-13905381D01*
X11038000Y-13924428D01*
X11028476Y-13933952D01*
X11009429Y-13943476D01*
X10990381Y-13943476D01*
X10971333Y-13933952D01*
X10961810Y-13924428D01*
X10952286Y-13905381D01*
X10942762Y-13867286D01*
X10942762Y-13819667D01*
X10952286Y-13781571D01*
X10961810Y-13762524D01*
X10971333Y-13753000D01*
X10990381Y-13743476D01*
X11142762Y-13943476D02*
X11142762Y-13810143D01*
X11142762Y-13829190D02*
X11152286Y-13819667D01*
X11171333Y-13810143D01*
X11199905Y-13810143D01*
X11218952Y-13819667D01*
X11228476Y-13838714D01*
X11228476Y-13943476D01*
X11228476Y-13838714D02*
X11238000Y-13819667D01*
X11257048Y-13810143D01*
X11285619Y-13810143D01*
X11304667Y-13819667D01*
X11314190Y-13838714D01*
X11314190Y-13943476D01*
X11409428Y-13943476D02*
X11409428Y-13810143D01*
X11409428Y-13829190D02*
X11418952Y-13819667D01*
X11438000Y-13810143D01*
X11466571Y-13810143D01*
X11485619Y-13819667D01*
X11495143Y-13838714D01*
X11495143Y-13943476D01*
X11495143Y-13838714D02*
X11504667Y-13819667D01*
X11523714Y-13810143D01*
X11552286Y-13810143D01*
X11571333Y-13819667D01*
X11580857Y-13838714D01*
X11580857Y-13943476D01*
X11971333Y-13733952D02*
X11799905Y-13991095D01*
X12228476Y-13743476D02*
X12247524Y-13743476D01*
X12266571Y-13753000D01*
X12276095Y-13762524D01*
X12285619Y-13781571D01*
X12295143Y-13819667D01*
X12295143Y-13867286D01*
X12285619Y-13905381D01*
X12276095Y-13924428D01*
X12266571Y-13933952D01*
X12247524Y-13943476D01*
X12228476Y-13943476D01*
X12209428Y-13933952D01*
X12199905Y-13924428D01*
X12190381Y-13905381D01*
X12180857Y-13867286D01*
X12180857Y-13819667D01*
X12190381Y-13781571D01*
X12199905Y-13762524D01*
X12209428Y-13753000D01*
X12228476Y-13743476D01*
X12380857Y-13924428D02*
X12390381Y-13933952D01*
X12380857Y-13943476D01*
X12371333Y-13933952D01*
X12380857Y-13924428D01*
X12380857Y-13943476D01*
X12514190Y-13743476D02*
X12533238Y-13743476D01*
X12552286Y-13753000D01*
X12561809Y-13762524D01*
X12571333Y-13781571D01*
X12580857Y-13819667D01*
X12580857Y-13867286D01*
X12571333Y-13905381D01*
X12561809Y-13924428D01*
X12552286Y-13933952D01*
X12533238Y-13943476D01*
X12514190Y-13943476D01*
X12495143Y-13933952D01*
X12485619Y-13924428D01*
X12476095Y-13905381D01*
X12466571Y-13867286D01*
X12466571Y-13819667D01*
X12476095Y-13781571D01*
X12485619Y-13762524D01*
X12495143Y-13753000D01*
X12514190Y-13743476D01*
X12657048Y-13762524D02*
X12666571Y-13753000D01*
X12685619Y-13743476D01*
X12733238Y-13743476D01*
X12752286Y-13753000D01*
X12761809Y-13762524D01*
X12771333Y-13781571D01*
X12771333Y-13800619D01*
X12761809Y-13829190D01*
X12647524Y-13943476D01*
X12771333Y-13943476D01*
X12838000Y-13743476D02*
X12971333Y-13743476D01*
X12885619Y-13943476D01*
X13133238Y-13743476D02*
X13095143Y-13743476D01*
X13076095Y-13753000D01*
X13066571Y-13762524D01*
X13047524Y-13791095D01*
X13038000Y-13829190D01*
X13038000Y-13905381D01*
X13047524Y-13924428D01*
X13057048Y-13933952D01*
X13076095Y-13943476D01*
X13114190Y-13943476D01*
X13133238Y-13933952D01*
X13142762Y-13924428D01*
X13152286Y-13905381D01*
X13152286Y-13857762D01*
X13142762Y-13838714D01*
X13133238Y-13829190D01*
X13114190Y-13819667D01*
X13076095Y-13819667D01*
X13057048Y-13829190D01*
X13047524Y-13838714D01*
X13038000Y-13857762D01*
X13228476Y-13743476D02*
X13228476Y-13781571D01*
X13304667Y-13743476D02*
X13304667Y-13781571D01*
X13599905Y-14019667D02*
X13590381Y-14010143D01*
X13571333Y-13981571D01*
X13561809Y-13962524D01*
X13552286Y-13933952D01*
X13542762Y-13886333D01*
X13542762Y-13848238D01*
X13552286Y-13800619D01*
X13561809Y-13772048D01*
X13571333Y-13753000D01*
X13590381Y-13724428D01*
X13599905Y-13714905D01*
X13666571Y-13762524D02*
X13676095Y-13753000D01*
X13695143Y-13743476D01*
X13742762Y-13743476D01*
X13761809Y-13753000D01*
X13771333Y-13762524D01*
X13780857Y-13781571D01*
X13780857Y-13800619D01*
X13771333Y-13829190D01*
X13657048Y-13943476D01*
X13780857Y-13943476D01*
X14018952Y-13943476D02*
X14018952Y-13743476D01*
X14104667Y-13943476D02*
X14104667Y-13838714D01*
X14095143Y-13819667D01*
X14076095Y-13810143D01*
X14047524Y-13810143D01*
X14028476Y-13819667D01*
X14018952Y-13829190D01*
X14228476Y-13943476D02*
X14209428Y-13933952D01*
X14199905Y-13924428D01*
X14190381Y-13905381D01*
X14190381Y-13848238D01*
X14199905Y-13829190D01*
X14209428Y-13819667D01*
X14228476Y-13810143D01*
X14257048Y-13810143D01*
X14276095Y-13819667D01*
X14285619Y-13829190D01*
X14295143Y-13848238D01*
X14295143Y-13905381D01*
X14285619Y-13924428D01*
X14276095Y-13933952D01*
X14257048Y-13943476D01*
X14228476Y-13943476D01*
X14409428Y-13943476D02*
X14390381Y-13933952D01*
X14380857Y-13914905D01*
X14380857Y-13743476D01*
X14561809Y-13933952D02*
X14542762Y-13943476D01*
X14504667Y-13943476D01*
X14485619Y-13933952D01*
X14476095Y-13914905D01*
X14476095Y-13838714D01*
X14485619Y-13819667D01*
X14504667Y-13810143D01*
X14542762Y-13810143D01*
X14561809Y-13819667D01*
X14571333Y-13838714D01*
X14571333Y-13857762D01*
X14476095Y-13876809D01*
X14647524Y-13933952D02*
X14666571Y-13943476D01*
X14704667Y-13943476D01*
X14723714Y-13933952D01*
X14733238Y-13914905D01*
X14733238Y-13905381D01*
X14723714Y-13886333D01*
X14704667Y-13876809D01*
X14676095Y-13876809D01*
X14657048Y-13867286D01*
X14647524Y-13848238D01*
X14647524Y-13838714D01*
X14657048Y-13819667D01*
X14676095Y-13810143D01*
X14704667Y-13810143D01*
X14723714Y-13819667D01*
X14799905Y-14019667D02*
X14809428Y-14010143D01*
X14828476Y-13981571D01*
X14838000Y-13962524D01*
X14847524Y-13933952D01*
X14857048Y-13886333D01*
X14857048Y-13848238D01*
X14847524Y-13800619D01*
X14838000Y-13772048D01*
X14828476Y-13753000D01*
X14809428Y-13724428D01*
X14799905Y-13714905D01*
D13*
X10028000Y-14117000D02*
G75*
G03*
X10028000Y-14117000I-37500J0D01*
G01*
D11*
X10323714Y-14007476D02*
X10342762Y-14007476D01*
X10361810Y-14017000D01*
X10371333Y-14026524D01*
X10380857Y-14045571D01*
X10390381Y-14083667D01*
X10390381Y-14131286D01*
X10380857Y-14169381D01*
X10371333Y-14188428D01*
X10361810Y-14197952D01*
X10342762Y-14207476D01*
X10323714Y-14207476D01*
X10304667Y-14197952D01*
X10295143Y-14188428D01*
X10285619Y-14169381D01*
X10276095Y-14131286D01*
X10276095Y-14083667D01*
X10285619Y-14045571D01*
X10295143Y-14026524D01*
X10304667Y-14017000D01*
X10323714Y-14007476D01*
X10476095Y-14188428D02*
X10485619Y-14197952D01*
X10476095Y-14207476D01*
X10466571Y-14197952D01*
X10476095Y-14188428D01*
X10476095Y-14207476D01*
X10552286Y-14007476D02*
X10685619Y-14007476D01*
X10599905Y-14207476D01*
X10857048Y-14007476D02*
X10761810Y-14007476D01*
X10752286Y-14102714D01*
X10761810Y-14093190D01*
X10780857Y-14083667D01*
X10828476Y-14083667D01*
X10847524Y-14093190D01*
X10857048Y-14102714D01*
X10866571Y-14121762D01*
X10866571Y-14169381D01*
X10857048Y-14188428D01*
X10847524Y-14197952D01*
X10828476Y-14207476D01*
X10780857Y-14207476D01*
X10761810Y-14197952D01*
X10752286Y-14188428D01*
X10990381Y-14007476D02*
X11009429Y-14007476D01*
X11028476Y-14017000D01*
X11038000Y-14026524D01*
X11047524Y-14045571D01*
X11057048Y-14083667D01*
X11057048Y-14131286D01*
X11047524Y-14169381D01*
X11038000Y-14188428D01*
X11028476Y-14197952D01*
X11009429Y-14207476D01*
X10990381Y-14207476D01*
X10971333Y-14197952D01*
X10961810Y-14188428D01*
X10952286Y-14169381D01*
X10942762Y-14131286D01*
X10942762Y-14083667D01*
X10952286Y-14045571D01*
X10961810Y-14026524D01*
X10971333Y-14017000D01*
X10990381Y-14007476D01*
X11142762Y-14207476D02*
X11142762Y-14074143D01*
X11142762Y-14093190D02*
X11152286Y-14083667D01*
X11171333Y-14074143D01*
X11199905Y-14074143D01*
X11218952Y-14083667D01*
X11228476Y-14102714D01*
X11228476Y-14207476D01*
X11228476Y-14102714D02*
X11238000Y-14083667D01*
X11257048Y-14074143D01*
X11285619Y-14074143D01*
X11304667Y-14083667D01*
X11314190Y-14102714D01*
X11314190Y-14207476D01*
X11409428Y-14207476D02*
X11409428Y-14074143D01*
X11409428Y-14093190D02*
X11418952Y-14083667D01*
X11438000Y-14074143D01*
X11466571Y-14074143D01*
X11485619Y-14083667D01*
X11495143Y-14102714D01*
X11495143Y-14207476D01*
X11495143Y-14102714D02*
X11504667Y-14083667D01*
X11523714Y-14074143D01*
X11552286Y-14074143D01*
X11571333Y-14083667D01*
X11580857Y-14102714D01*
X11580857Y-14207476D01*
X11971333Y-13997952D02*
X11799905Y-14255095D01*
X12228476Y-14007476D02*
X12247524Y-14007476D01*
X12266571Y-14017000D01*
X12276095Y-14026524D01*
X12285619Y-14045571D01*
X12295143Y-14083667D01*
X12295143Y-14131286D01*
X12285619Y-14169381D01*
X12276095Y-14188428D01*
X12266571Y-14197952D01*
X12247524Y-14207476D01*
X12228476Y-14207476D01*
X12209428Y-14197952D01*
X12199905Y-14188428D01*
X12190381Y-14169381D01*
X12180857Y-14131286D01*
X12180857Y-14083667D01*
X12190381Y-14045571D01*
X12199905Y-14026524D01*
X12209428Y-14017000D01*
X12228476Y-14007476D01*
X12380857Y-14188428D02*
X12390381Y-14197952D01*
X12380857Y-14207476D01*
X12371333Y-14197952D01*
X12380857Y-14188428D01*
X12380857Y-14207476D01*
X12514190Y-14007476D02*
X12533238Y-14007476D01*
X12552286Y-14017000D01*
X12561809Y-14026524D01*
X12571333Y-14045571D01*
X12580857Y-14083667D01*
X12580857Y-14131286D01*
X12571333Y-14169381D01*
X12561809Y-14188428D01*
X12552286Y-14197952D01*
X12533238Y-14207476D01*
X12514190Y-14207476D01*
X12495143Y-14197952D01*
X12485619Y-14188428D01*
X12476095Y-14169381D01*
X12466571Y-14131286D01*
X12466571Y-14083667D01*
X12476095Y-14045571D01*
X12485619Y-14026524D01*
X12495143Y-14017000D01*
X12514190Y-14007476D01*
X12657048Y-14026524D02*
X12666571Y-14017000D01*
X12685619Y-14007476D01*
X12733238Y-14007476D01*
X12752286Y-14017000D01*
X12761809Y-14026524D01*
X12771333Y-14045571D01*
X12771333Y-14064619D01*
X12761809Y-14093190D01*
X12647524Y-14207476D01*
X12771333Y-14207476D01*
X12866571Y-14207476D02*
X12904667Y-14207476D01*
X12923714Y-14197952D01*
X12933238Y-14188428D01*
X12952286Y-14159857D01*
X12961809Y-14121762D01*
X12961809Y-14045571D01*
X12952286Y-14026524D01*
X12942762Y-14017000D01*
X12923714Y-14007476D01*
X12885619Y-14007476D01*
X12866571Y-14017000D01*
X12857048Y-14026524D01*
X12847524Y-14045571D01*
X12847524Y-14093190D01*
X12857048Y-14112238D01*
X12866571Y-14121762D01*
X12885619Y-14131286D01*
X12923714Y-14131286D01*
X12942762Y-14121762D01*
X12952286Y-14112238D01*
X12961809Y-14093190D01*
X13142762Y-14007476D02*
X13047524Y-14007476D01*
X13038000Y-14102714D01*
X13047524Y-14093190D01*
X13066571Y-14083667D01*
X13114190Y-14083667D01*
X13133238Y-14093190D01*
X13142762Y-14102714D01*
X13152286Y-14121762D01*
X13152286Y-14169381D01*
X13142762Y-14188428D01*
X13133238Y-14197952D01*
X13114190Y-14207476D01*
X13066571Y-14207476D01*
X13047524Y-14197952D01*
X13038000Y-14188428D01*
X13228476Y-14007476D02*
X13228476Y-14045571D01*
X13304667Y-14007476D02*
X13304667Y-14045571D01*
X13599905Y-14283667D02*
X13590381Y-14274143D01*
X13571333Y-14245571D01*
X13561809Y-14226524D01*
X13552286Y-14197952D01*
X13542762Y-14150333D01*
X13542762Y-14112238D01*
X13552286Y-14064619D01*
X13561809Y-14036048D01*
X13571333Y-14017000D01*
X13590381Y-13988428D01*
X13599905Y-13978905D01*
X13685619Y-14207476D02*
X13723714Y-14207476D01*
X13742762Y-14197952D01*
X13752286Y-14188428D01*
X13771333Y-14159857D01*
X13780857Y-14121762D01*
X13780857Y-14045571D01*
X13771333Y-14026524D01*
X13761809Y-14017000D01*
X13742762Y-14007476D01*
X13704667Y-14007476D01*
X13685619Y-14017000D01*
X13676095Y-14026524D01*
X13666571Y-14045571D01*
X13666571Y-14093190D01*
X13676095Y-14112238D01*
X13685619Y-14121762D01*
X13704667Y-14131286D01*
X13742762Y-14131286D01*
X13761809Y-14121762D01*
X13771333Y-14112238D01*
X13780857Y-14093190D01*
X14018952Y-14207476D02*
X14018952Y-14007476D01*
X14104667Y-14207476D02*
X14104667Y-14102714D01*
X14095143Y-14083667D01*
X14076095Y-14074143D01*
X14047524Y-14074143D01*
X14028476Y-14083667D01*
X14018952Y-14093190D01*
X14228476Y-14207476D02*
X14209428Y-14197952D01*
X14199905Y-14188428D01*
X14190381Y-14169381D01*
X14190381Y-14112238D01*
X14199905Y-14093190D01*
X14209428Y-14083667D01*
X14228476Y-14074143D01*
X14257048Y-14074143D01*
X14276095Y-14083667D01*
X14285619Y-14093190D01*
X14295143Y-14112238D01*
X14295143Y-14169381D01*
X14285619Y-14188428D01*
X14276095Y-14197952D01*
X14257048Y-14207476D01*
X14228476Y-14207476D01*
X14409428Y-14207476D02*
X14390381Y-14197952D01*
X14380857Y-14178905D01*
X14380857Y-14007476D01*
X14561809Y-14197952D02*
X14542762Y-14207476D01*
X14504667Y-14207476D01*
X14485619Y-14197952D01*
X14476095Y-14178905D01*
X14476095Y-14102714D01*
X14485619Y-14083667D01*
X14504667Y-14074143D01*
X14542762Y-14074143D01*
X14561809Y-14083667D01*
X14571333Y-14102714D01*
X14571333Y-14121762D01*
X14476095Y-14140809D01*
X14647524Y-14197952D02*
X14666571Y-14207476D01*
X14704667Y-14207476D01*
X14723714Y-14197952D01*
X14733238Y-14178905D01*
X14733238Y-14169381D01*
X14723714Y-14150333D01*
X14704667Y-14140809D01*
X14676095Y-14140809D01*
X14657048Y-14131286D01*
X14647524Y-14112238D01*
X14647524Y-14102714D01*
X14657048Y-14083667D01*
X14676095Y-14074143D01*
X14704667Y-14074143D01*
X14723714Y-14083667D01*
X14799905Y-14283667D02*
X14809428Y-14274143D01*
X14828476Y-14245571D01*
X14838000Y-14226524D01*
X14847524Y-14197952D01*
X14857048Y-14150333D01*
X14857048Y-14112238D01*
X14847524Y-14064619D01*
X14838000Y-14036048D01*
X14828476Y-14017000D01*
X14809428Y-13988428D01*
X14799905Y-13978905D01*
D14*
X9988000Y-14341000D02*
X9988000Y-14421000D01*
X9948000Y-14381000D02*
X10028000Y-14381000D01*
D11*
X10323714Y-14271476D02*
X10342762Y-14271476D01*
X10361810Y-14281000D01*
X10371333Y-14290524D01*
X10380857Y-14309571D01*
X10390381Y-14347667D01*
X10390381Y-14395286D01*
X10380857Y-14433381D01*
X10371333Y-14452428D01*
X10361810Y-14461952D01*
X10342762Y-14471476D01*
X10323714Y-14471476D01*
X10304667Y-14461952D01*
X10295143Y-14452428D01*
X10285619Y-14433381D01*
X10276095Y-14395286D01*
X10276095Y-14347667D01*
X10285619Y-14309571D01*
X10295143Y-14290524D01*
X10304667Y-14281000D01*
X10323714Y-14271476D01*
X10476095Y-14452428D02*
X10485619Y-14461952D01*
X10476095Y-14471476D01*
X10466571Y-14461952D01*
X10476095Y-14452428D01*
X10476095Y-14471476D01*
X10599905Y-14357190D02*
X10580857Y-14347667D01*
X10571333Y-14338143D01*
X10561810Y-14319095D01*
X10561810Y-14309571D01*
X10571333Y-14290524D01*
X10580857Y-14281000D01*
X10599905Y-14271476D01*
X10638000Y-14271476D01*
X10657048Y-14281000D01*
X10666571Y-14290524D01*
X10676095Y-14309571D01*
X10676095Y-14319095D01*
X10666571Y-14338143D01*
X10657048Y-14347667D01*
X10638000Y-14357190D01*
X10599905Y-14357190D01*
X10580857Y-14366714D01*
X10571333Y-14376238D01*
X10561810Y-14395286D01*
X10561810Y-14433381D01*
X10571333Y-14452428D01*
X10580857Y-14461952D01*
X10599905Y-14471476D01*
X10638000Y-14471476D01*
X10657048Y-14461952D01*
X10666571Y-14452428D01*
X10676095Y-14433381D01*
X10676095Y-14395286D01*
X10666571Y-14376238D01*
X10657048Y-14366714D01*
X10638000Y-14357190D01*
X10799905Y-14271476D02*
X10818952Y-14271476D01*
X10838000Y-14281000D01*
X10847524Y-14290524D01*
X10857048Y-14309571D01*
X10866571Y-14347667D01*
X10866571Y-14395286D01*
X10857048Y-14433381D01*
X10847524Y-14452428D01*
X10838000Y-14461952D01*
X10818952Y-14471476D01*
X10799905Y-14471476D01*
X10780857Y-14461952D01*
X10771333Y-14452428D01*
X10761810Y-14433381D01*
X10752286Y-14395286D01*
X10752286Y-14347667D01*
X10761810Y-14309571D01*
X10771333Y-14290524D01*
X10780857Y-14281000D01*
X10799905Y-14271476D01*
X10990381Y-14271476D02*
X11009429Y-14271476D01*
X11028476Y-14281000D01*
X11038000Y-14290524D01*
X11047524Y-14309571D01*
X11057048Y-14347667D01*
X11057048Y-14395286D01*
X11047524Y-14433381D01*
X11038000Y-14452428D01*
X11028476Y-14461952D01*
X11009429Y-14471476D01*
X10990381Y-14471476D01*
X10971333Y-14461952D01*
X10961810Y-14452428D01*
X10952286Y-14433381D01*
X10942762Y-14395286D01*
X10942762Y-14347667D01*
X10952286Y-14309571D01*
X10961810Y-14290524D01*
X10971333Y-14281000D01*
X10990381Y-14271476D01*
X11142762Y-14471476D02*
X11142762Y-14338143D01*
X11142762Y-14357190D02*
X11152286Y-14347667D01*
X11171333Y-14338143D01*
X11199905Y-14338143D01*
X11218952Y-14347667D01*
X11228476Y-14366714D01*
X11228476Y-14471476D01*
X11228476Y-14366714D02*
X11238000Y-14347667D01*
X11257048Y-14338143D01*
X11285619Y-14338143D01*
X11304667Y-14347667D01*
X11314190Y-14366714D01*
X11314190Y-14471476D01*
X11409428Y-14471476D02*
X11409428Y-14338143D01*
X11409428Y-14357190D02*
X11418952Y-14347667D01*
X11438000Y-14338143D01*
X11466571Y-14338143D01*
X11485619Y-14347667D01*
X11495143Y-14366714D01*
X11495143Y-14471476D01*
X11495143Y-14366714D02*
X11504667Y-14347667D01*
X11523714Y-14338143D01*
X11552286Y-14338143D01*
X11571333Y-14347667D01*
X11580857Y-14366714D01*
X11580857Y-14471476D01*
X11971333Y-14261952D02*
X11799905Y-14519095D01*
X12228476Y-14271476D02*
X12247524Y-14271476D01*
X12266571Y-14281000D01*
X12276095Y-14290524D01*
X12285619Y-14309571D01*
X12295143Y-14347667D01*
X12295143Y-14395286D01*
X12285619Y-14433381D01*
X12276095Y-14452428D01*
X12266571Y-14461952D01*
X12247524Y-14471476D01*
X12228476Y-14471476D01*
X12209428Y-14461952D01*
X12199905Y-14452428D01*
X12190381Y-14433381D01*
X12180857Y-14395286D01*
X12180857Y-14347667D01*
X12190381Y-14309571D01*
X12199905Y-14290524D01*
X12209428Y-14281000D01*
X12228476Y-14271476D01*
X12380857Y-14452428D02*
X12390381Y-14461952D01*
X12380857Y-14471476D01*
X12371333Y-14461952D01*
X12380857Y-14452428D01*
X12380857Y-14471476D01*
X12514190Y-14271476D02*
X12533238Y-14271476D01*
X12552286Y-14281000D01*
X12561809Y-14290524D01*
X12571333Y-14309571D01*
X12580857Y-14347667D01*
X12580857Y-14395286D01*
X12571333Y-14433381D01*
X12561809Y-14452428D01*
X12552286Y-14461952D01*
X12533238Y-14471476D01*
X12514190Y-14471476D01*
X12495143Y-14461952D01*
X12485619Y-14452428D01*
X12476095Y-14433381D01*
X12466571Y-14395286D01*
X12466571Y-14347667D01*
X12476095Y-14309571D01*
X12485619Y-14290524D01*
X12495143Y-14281000D01*
X12514190Y-14271476D01*
X12647524Y-14271476D02*
X12771333Y-14271476D01*
X12704667Y-14347667D01*
X12733238Y-14347667D01*
X12752286Y-14357190D01*
X12761809Y-14366714D01*
X12771333Y-14385762D01*
X12771333Y-14433381D01*
X12761809Y-14452428D01*
X12752286Y-14461952D01*
X12733238Y-14471476D01*
X12676095Y-14471476D01*
X12657048Y-14461952D01*
X12647524Y-14452428D01*
X12961809Y-14471476D02*
X12847524Y-14471476D01*
X12904667Y-14471476D02*
X12904667Y-14271476D01*
X12885619Y-14300048D01*
X12866571Y-14319095D01*
X12847524Y-14328619D01*
X13142762Y-14271476D02*
X13047524Y-14271476D01*
X13038000Y-14366714D01*
X13047524Y-14357190D01*
X13066571Y-14347667D01*
X13114190Y-14347667D01*
X13133238Y-14357190D01*
X13142762Y-14366714D01*
X13152286Y-14385762D01*
X13152286Y-14433381D01*
X13142762Y-14452428D01*
X13133238Y-14461952D01*
X13114190Y-14471476D01*
X13066571Y-14471476D01*
X13047524Y-14461952D01*
X13038000Y-14452428D01*
X13228476Y-14271476D02*
X13228476Y-14309571D01*
X13304667Y-14271476D02*
X13304667Y-14309571D01*
X13599905Y-14547667D02*
X13590381Y-14538143D01*
X13571333Y-14509571D01*
X13561809Y-14490524D01*
X13552286Y-14461952D01*
X13542762Y-14414333D01*
X13542762Y-14376238D01*
X13552286Y-14328619D01*
X13561809Y-14300048D01*
X13571333Y-14281000D01*
X13590381Y-14252428D01*
X13599905Y-14242905D01*
X13666571Y-14290524D02*
X13676095Y-14281000D01*
X13695143Y-14271476D01*
X13742762Y-14271476D01*
X13761809Y-14281000D01*
X13771333Y-14290524D01*
X13780857Y-14309571D01*
X13780857Y-14328619D01*
X13771333Y-14357190D01*
X13657048Y-14471476D01*
X13780857Y-14471476D01*
X13952286Y-14338143D02*
X13952286Y-14471476D01*
X13904667Y-14261952D02*
X13857048Y-14404809D01*
X13980857Y-14404809D01*
X14209428Y-14471476D02*
X14209428Y-14271476D01*
X14295143Y-14471476D02*
X14295143Y-14366714D01*
X14285619Y-14347667D01*
X14266571Y-14338143D01*
X14238000Y-14338143D01*
X14218952Y-14347667D01*
X14209428Y-14357190D01*
X14418952Y-14471476D02*
X14399905Y-14461952D01*
X14390381Y-14452428D01*
X14380857Y-14433381D01*
X14380857Y-14376238D01*
X14390381Y-14357190D01*
X14399905Y-14347667D01*
X14418952Y-14338143D01*
X14447524Y-14338143D01*
X14466571Y-14347667D01*
X14476095Y-14357190D01*
X14485619Y-14376238D01*
X14485619Y-14433381D01*
X14476095Y-14452428D01*
X14466571Y-14461952D01*
X14447524Y-14471476D01*
X14418952Y-14471476D01*
X14599905Y-14471476D02*
X14580857Y-14461952D01*
X14571333Y-14442905D01*
X14571333Y-14271476D01*
X14752286Y-14461952D02*
X14733238Y-14471476D01*
X14695143Y-14471476D01*
X14676095Y-14461952D01*
X14666571Y-14442905D01*
X14666571Y-14366714D01*
X14676095Y-14347667D01*
X14695143Y-14338143D01*
X14733238Y-14338143D01*
X14752286Y-14347667D01*
X14761809Y-14366714D01*
X14761809Y-14385762D01*
X14666571Y-14404809D01*
X14838000Y-14461952D02*
X14857048Y-14471476D01*
X14895143Y-14471476D01*
X14914190Y-14461952D01*
X14923714Y-14442905D01*
X14923714Y-14433381D01*
X14914190Y-14414333D01*
X14895143Y-14404809D01*
X14866571Y-14404809D01*
X14847524Y-14395286D01*
X14838000Y-14376238D01*
X14838000Y-14366714D01*
X14847524Y-14347667D01*
X14866571Y-14338143D01*
X14895143Y-14338143D01*
X14914190Y-14347667D01*
X14990381Y-14547667D02*
X14999905Y-14538143D01*
X15018952Y-14509571D01*
X15028476Y-14490524D01*
X15038000Y-14461952D01*
X15047524Y-14414333D01*
X15047524Y-14376238D01*
X15038000Y-14328619D01*
X15028476Y-14300048D01*
X15018952Y-14281000D01*
X14999905Y-14252428D01*
X14990381Y-14242905D01*
D15*
X10014820Y-14676820D02*
X10014820Y-14613180D01*
X9951180Y-14613180D01*
X9951180Y-14676820D01*
X10014820Y-14676820D01*
D11*
X10323714Y-14535476D02*
X10342762Y-14535476D01*
X10361810Y-14545000D01*
X10371333Y-14554524D01*
X10380857Y-14573571D01*
X10390381Y-14611667D01*
X10390381Y-14659286D01*
X10380857Y-14697381D01*
X10371333Y-14716428D01*
X10361810Y-14725952D01*
X10342762Y-14735476D01*
X10323714Y-14735476D01*
X10304667Y-14725952D01*
X10295143Y-14716428D01*
X10285619Y-14697381D01*
X10276095Y-14659286D01*
X10276095Y-14611667D01*
X10285619Y-14573571D01*
X10295143Y-14554524D01*
X10304667Y-14545000D01*
X10323714Y-14535476D01*
X10476095Y-14716428D02*
X10485619Y-14725952D01*
X10476095Y-14735476D01*
X10466571Y-14725952D01*
X10476095Y-14716428D01*
X10476095Y-14735476D01*
X10580857Y-14735476D02*
X10618952Y-14735476D01*
X10638000Y-14725952D01*
X10647524Y-14716428D01*
X10666571Y-14687857D01*
X10676095Y-14649762D01*
X10676095Y-14573571D01*
X10666571Y-14554524D01*
X10657048Y-14545000D01*
X10638000Y-14535476D01*
X10599905Y-14535476D01*
X10580857Y-14545000D01*
X10571333Y-14554524D01*
X10561810Y-14573571D01*
X10561810Y-14621190D01*
X10571333Y-14640238D01*
X10580857Y-14649762D01*
X10599905Y-14659286D01*
X10638000Y-14659286D01*
X10657048Y-14649762D01*
X10666571Y-14640238D01*
X10676095Y-14621190D01*
X10799905Y-14535476D02*
X10818952Y-14535476D01*
X10838000Y-14545000D01*
X10847524Y-14554524D01*
X10857048Y-14573571D01*
X10866571Y-14611667D01*
X10866571Y-14659286D01*
X10857048Y-14697381D01*
X10847524Y-14716428D01*
X10838000Y-14725952D01*
X10818952Y-14735476D01*
X10799905Y-14735476D01*
X10780857Y-14725952D01*
X10771333Y-14716428D01*
X10761810Y-14697381D01*
X10752286Y-14659286D01*
X10752286Y-14611667D01*
X10761810Y-14573571D01*
X10771333Y-14554524D01*
X10780857Y-14545000D01*
X10799905Y-14535476D01*
X10990381Y-14535476D02*
X11009429Y-14535476D01*
X11028476Y-14545000D01*
X11038000Y-14554524D01*
X11047524Y-14573571D01*
X11057048Y-14611667D01*
X11057048Y-14659286D01*
X11047524Y-14697381D01*
X11038000Y-14716428D01*
X11028476Y-14725952D01*
X11009429Y-14735476D01*
X10990381Y-14735476D01*
X10971333Y-14725952D01*
X10961810Y-14716428D01*
X10952286Y-14697381D01*
X10942762Y-14659286D01*
X10942762Y-14611667D01*
X10952286Y-14573571D01*
X10961810Y-14554524D01*
X10971333Y-14545000D01*
X10990381Y-14535476D01*
X11142762Y-14735476D02*
X11142762Y-14602143D01*
X11142762Y-14621190D02*
X11152286Y-14611667D01*
X11171333Y-14602143D01*
X11199905Y-14602143D01*
X11218952Y-14611667D01*
X11228476Y-14630714D01*
X11228476Y-14735476D01*
X11228476Y-14630714D02*
X11238000Y-14611667D01*
X11257048Y-14602143D01*
X11285619Y-14602143D01*
X11304667Y-14611667D01*
X11314190Y-14630714D01*
X11314190Y-14735476D01*
X11409428Y-14735476D02*
X11409428Y-14602143D01*
X11409428Y-14621190D02*
X11418952Y-14611667D01*
X11438000Y-14602143D01*
X11466571Y-14602143D01*
X11485619Y-14611667D01*
X11495143Y-14630714D01*
X11495143Y-14735476D01*
X11495143Y-14630714D02*
X11504667Y-14611667D01*
X11523714Y-14602143D01*
X11552286Y-14602143D01*
X11571333Y-14611667D01*
X11580857Y-14630714D01*
X11580857Y-14735476D01*
X11971333Y-14525952D02*
X11799905Y-14783095D01*
X12228476Y-14535476D02*
X12247524Y-14535476D01*
X12266571Y-14545000D01*
X12276095Y-14554524D01*
X12285619Y-14573571D01*
X12295143Y-14611667D01*
X12295143Y-14659286D01*
X12285619Y-14697381D01*
X12276095Y-14716428D01*
X12266571Y-14725952D01*
X12247524Y-14735476D01*
X12228476Y-14735476D01*
X12209428Y-14725952D01*
X12199905Y-14716428D01*
X12190381Y-14697381D01*
X12180857Y-14659286D01*
X12180857Y-14611667D01*
X12190381Y-14573571D01*
X12199905Y-14554524D01*
X12209428Y-14545000D01*
X12228476Y-14535476D01*
X12380857Y-14716428D02*
X12390381Y-14725952D01*
X12380857Y-14735476D01*
X12371333Y-14725952D01*
X12380857Y-14716428D01*
X12380857Y-14735476D01*
X12514190Y-14535476D02*
X12533238Y-14535476D01*
X12552286Y-14545000D01*
X12561809Y-14554524D01*
X12571333Y-14573571D01*
X12580857Y-14611667D01*
X12580857Y-14659286D01*
X12571333Y-14697381D01*
X12561809Y-14716428D01*
X12552286Y-14725952D01*
X12533238Y-14735476D01*
X12514190Y-14735476D01*
X12495143Y-14725952D01*
X12485619Y-14716428D01*
X12476095Y-14697381D01*
X12466571Y-14659286D01*
X12466571Y-14611667D01*
X12476095Y-14573571D01*
X12485619Y-14554524D01*
X12495143Y-14545000D01*
X12514190Y-14535476D01*
X12647524Y-14535476D02*
X12771333Y-14535476D01*
X12704667Y-14611667D01*
X12733238Y-14611667D01*
X12752286Y-14621190D01*
X12761809Y-14630714D01*
X12771333Y-14649762D01*
X12771333Y-14697381D01*
X12761809Y-14716428D01*
X12752286Y-14725952D01*
X12733238Y-14735476D01*
X12676095Y-14735476D01*
X12657048Y-14725952D01*
X12647524Y-14716428D01*
X12952286Y-14535476D02*
X12857048Y-14535476D01*
X12847524Y-14630714D01*
X12857048Y-14621190D01*
X12876095Y-14611667D01*
X12923714Y-14611667D01*
X12942762Y-14621190D01*
X12952286Y-14630714D01*
X12961809Y-14649762D01*
X12961809Y-14697381D01*
X12952286Y-14716428D01*
X12942762Y-14725952D01*
X12923714Y-14735476D01*
X12876095Y-14735476D01*
X12857048Y-14725952D01*
X12847524Y-14716428D01*
X13133238Y-14602143D02*
X13133238Y-14735476D01*
X13085619Y-14525952D02*
X13038000Y-14668809D01*
X13161809Y-14668809D01*
X13228476Y-14535476D02*
X13228476Y-14573571D01*
X13304667Y-14535476D02*
X13304667Y-14573571D01*
X13599905Y-14811667D02*
X13590381Y-14802143D01*
X13571333Y-14773571D01*
X13561809Y-14754524D01*
X13552286Y-14725952D01*
X13542762Y-14678333D01*
X13542762Y-14640238D01*
X13552286Y-14592619D01*
X13561809Y-14564048D01*
X13571333Y-14545000D01*
X13590381Y-14516428D01*
X13599905Y-14506905D01*
X13685619Y-14735476D02*
X13723714Y-14735476D01*
X13742762Y-14725952D01*
X13752286Y-14716428D01*
X13771333Y-14687857D01*
X13780857Y-14649762D01*
X13780857Y-14573571D01*
X13771333Y-14554524D01*
X13761809Y-14545000D01*
X13742762Y-14535476D01*
X13704667Y-14535476D01*
X13685619Y-14545000D01*
X13676095Y-14554524D01*
X13666571Y-14573571D01*
X13666571Y-14621190D01*
X13676095Y-14640238D01*
X13685619Y-14649762D01*
X13704667Y-14659286D01*
X13742762Y-14659286D01*
X13761809Y-14649762D01*
X13771333Y-14640238D01*
X13780857Y-14621190D01*
X14018952Y-14735476D02*
X14018952Y-14535476D01*
X14104667Y-14735476D02*
X14104667Y-14630714D01*
X14095143Y-14611667D01*
X14076095Y-14602143D01*
X14047524Y-14602143D01*
X14028476Y-14611667D01*
X14018952Y-14621190D01*
X14228476Y-14735476D02*
X14209428Y-14725952D01*
X14199905Y-14716428D01*
X14190381Y-14697381D01*
X14190381Y-14640238D01*
X14199905Y-14621190D01*
X14209428Y-14611667D01*
X14228476Y-14602143D01*
X14257048Y-14602143D01*
X14276095Y-14611667D01*
X14285619Y-14621190D01*
X14295143Y-14640238D01*
X14295143Y-14697381D01*
X14285619Y-14716428D01*
X14276095Y-14725952D01*
X14257048Y-14735476D01*
X14228476Y-14735476D01*
X14409428Y-14735476D02*
X14390381Y-14725952D01*
X14380857Y-14706905D01*
X14380857Y-14535476D01*
X14561809Y-14725952D02*
X14542762Y-14735476D01*
X14504667Y-14735476D01*
X14485619Y-14725952D01*
X14476095Y-14706905D01*
X14476095Y-14630714D01*
X14485619Y-14611667D01*
X14504667Y-14602143D01*
X14542762Y-14602143D01*
X14561809Y-14611667D01*
X14571333Y-14630714D01*
X14571333Y-14649762D01*
X14476095Y-14668809D01*
X14647524Y-14725952D02*
X14666571Y-14735476D01*
X14704667Y-14735476D01*
X14723714Y-14725952D01*
X14733238Y-14706905D01*
X14733238Y-14697381D01*
X14723714Y-14678333D01*
X14704667Y-14668809D01*
X14676095Y-14668809D01*
X14657048Y-14659286D01*
X14647524Y-14640238D01*
X14647524Y-14630714D01*
X14657048Y-14611667D01*
X14676095Y-14602143D01*
X14704667Y-14602143D01*
X14723714Y-14611667D01*
X14799905Y-14811667D02*
X14809428Y-14802143D01*
X14828476Y-14773571D01*
X14838000Y-14754524D01*
X14847524Y-14725952D01*
X14857048Y-14678333D01*
X14857048Y-14640238D01*
X14847524Y-14592619D01*
X14838000Y-14564048D01*
X14828476Y-14545000D01*
X14809428Y-14516428D01*
X14799905Y-14506905D01*
D16*
X9978000Y-14959000D02*
X10028000Y-14909000D01*
X9978000Y-14859000D01*
X9928000Y-14909000D01*
X9978000Y-14959000D01*
D11*
X10390381Y-14999476D02*
X10276095Y-14999476D01*
X10333238Y-14999476D02*
X10333238Y-14799476D01*
X10314190Y-14828048D01*
X10295143Y-14847095D01*
X10276095Y-14856619D01*
X10476095Y-14980428D02*
X10485619Y-14989952D01*
X10476095Y-14999476D01*
X10466571Y-14989952D01*
X10476095Y-14980428D01*
X10476095Y-14999476D01*
X10609429Y-14799476D02*
X10628476Y-14799476D01*
X10647524Y-14809000D01*
X10657048Y-14818524D01*
X10666571Y-14837571D01*
X10676095Y-14875667D01*
X10676095Y-14923286D01*
X10666571Y-14961381D01*
X10657048Y-14980428D01*
X10647524Y-14989952D01*
X10628476Y-14999476D01*
X10609429Y-14999476D01*
X10590381Y-14989952D01*
X10580857Y-14980428D01*
X10571333Y-14961381D01*
X10561810Y-14923286D01*
X10561810Y-14875667D01*
X10571333Y-14837571D01*
X10580857Y-14818524D01*
X10590381Y-14809000D01*
X10609429Y-14799476D01*
X10799905Y-14799476D02*
X10818952Y-14799476D01*
X10838000Y-14809000D01*
X10847524Y-14818524D01*
X10857048Y-14837571D01*
X10866571Y-14875667D01*
X10866571Y-14923286D01*
X10857048Y-14961381D01*
X10847524Y-14980428D01*
X10838000Y-14989952D01*
X10818952Y-14999476D01*
X10799905Y-14999476D01*
X10780857Y-14989952D01*
X10771333Y-14980428D01*
X10761810Y-14961381D01*
X10752286Y-14923286D01*
X10752286Y-14875667D01*
X10761810Y-14837571D01*
X10771333Y-14818524D01*
X10780857Y-14809000D01*
X10799905Y-14799476D01*
X10990381Y-14799476D02*
X11009429Y-14799476D01*
X11028476Y-14809000D01*
X11038000Y-14818524D01*
X11047524Y-14837571D01*
X11057048Y-14875667D01*
X11057048Y-14923286D01*
X11047524Y-14961381D01*
X11038000Y-14980428D01*
X11028476Y-14989952D01*
X11009429Y-14999476D01*
X10990381Y-14999476D01*
X10971333Y-14989952D01*
X10961810Y-14980428D01*
X10952286Y-14961381D01*
X10942762Y-14923286D01*
X10942762Y-14875667D01*
X10952286Y-14837571D01*
X10961810Y-14818524D01*
X10971333Y-14809000D01*
X10990381Y-14799476D01*
X11142762Y-14999476D02*
X11142762Y-14866143D01*
X11142762Y-14885190D02*
X11152286Y-14875667D01*
X11171333Y-14866143D01*
X11199905Y-14866143D01*
X11218952Y-14875667D01*
X11228476Y-14894714D01*
X11228476Y-14999476D01*
X11228476Y-14894714D02*
X11238000Y-14875667D01*
X11257048Y-14866143D01*
X11285619Y-14866143D01*
X11304667Y-14875667D01*
X11314190Y-14894714D01*
X11314190Y-14999476D01*
X11409428Y-14999476D02*
X11409428Y-14866143D01*
X11409428Y-14885190D02*
X11418952Y-14875667D01*
X11438000Y-14866143D01*
X11466571Y-14866143D01*
X11485619Y-14875667D01*
X11495143Y-14894714D01*
X11495143Y-14999476D01*
X11495143Y-14894714D02*
X11504667Y-14875667D01*
X11523714Y-14866143D01*
X11552286Y-14866143D01*
X11571333Y-14875667D01*
X11580857Y-14894714D01*
X11580857Y-14999476D01*
X11971333Y-14789952D02*
X11799905Y-15047095D01*
X12228476Y-14799476D02*
X12247524Y-14799476D01*
X12266571Y-14809000D01*
X12276095Y-14818524D01*
X12285619Y-14837571D01*
X12295143Y-14875667D01*
X12295143Y-14923286D01*
X12285619Y-14961381D01*
X12276095Y-14980428D01*
X12266571Y-14989952D01*
X12247524Y-14999476D01*
X12228476Y-14999476D01*
X12209428Y-14989952D01*
X12199905Y-14980428D01*
X12190381Y-14961381D01*
X12180857Y-14923286D01*
X12180857Y-14875667D01*
X12190381Y-14837571D01*
X12199905Y-14818524D01*
X12209428Y-14809000D01*
X12228476Y-14799476D01*
X12380857Y-14980428D02*
X12390381Y-14989952D01*
X12380857Y-14999476D01*
X12371333Y-14989952D01*
X12380857Y-14980428D01*
X12380857Y-14999476D01*
X12514190Y-14799476D02*
X12533238Y-14799476D01*
X12552286Y-14809000D01*
X12561809Y-14818524D01*
X12571333Y-14837571D01*
X12580857Y-14875667D01*
X12580857Y-14923286D01*
X12571333Y-14961381D01*
X12561809Y-14980428D01*
X12552286Y-14989952D01*
X12533238Y-14999476D01*
X12514190Y-14999476D01*
X12495143Y-14989952D01*
X12485619Y-14980428D01*
X12476095Y-14961381D01*
X12466571Y-14923286D01*
X12466571Y-14875667D01*
X12476095Y-14837571D01*
X12485619Y-14818524D01*
X12495143Y-14809000D01*
X12514190Y-14799476D01*
X12647524Y-14799476D02*
X12771333Y-14799476D01*
X12704667Y-14875667D01*
X12733238Y-14875667D01*
X12752286Y-14885190D01*
X12761809Y-14894714D01*
X12771333Y-14913762D01*
X12771333Y-14961381D01*
X12761809Y-14980428D01*
X12752286Y-14989952D01*
X12733238Y-14999476D01*
X12676095Y-14999476D01*
X12657048Y-14989952D01*
X12647524Y-14980428D01*
X12866571Y-14999476D02*
X12904667Y-14999476D01*
X12923714Y-14989952D01*
X12933238Y-14980428D01*
X12952286Y-14951857D01*
X12961809Y-14913762D01*
X12961809Y-14837571D01*
X12952286Y-14818524D01*
X12942762Y-14809000D01*
X12923714Y-14799476D01*
X12885619Y-14799476D01*
X12866571Y-14809000D01*
X12857048Y-14818524D01*
X12847524Y-14837571D01*
X12847524Y-14885190D01*
X12857048Y-14904238D01*
X12866571Y-14913762D01*
X12885619Y-14923286D01*
X12923714Y-14923286D01*
X12942762Y-14913762D01*
X12952286Y-14904238D01*
X12961809Y-14885190D01*
X13133238Y-14866143D02*
X13133238Y-14999476D01*
X13085619Y-14789952D02*
X13038000Y-14932809D01*
X13161809Y-14932809D01*
X13228476Y-14799476D02*
X13228476Y-14837571D01*
X13304667Y-14799476D02*
X13304667Y-14837571D01*
X13599905Y-15075667D02*
X13590381Y-15066143D01*
X13571333Y-15037571D01*
X13561809Y-15018524D01*
X13552286Y-14989952D01*
X13542762Y-14942333D01*
X13542762Y-14904238D01*
X13552286Y-14856619D01*
X13561809Y-14828048D01*
X13571333Y-14809000D01*
X13590381Y-14780428D01*
X13599905Y-14770905D01*
X13666571Y-14818524D02*
X13676095Y-14809000D01*
X13695143Y-14799476D01*
X13742762Y-14799476D01*
X13761809Y-14809000D01*
X13771333Y-14818524D01*
X13780857Y-14837571D01*
X13780857Y-14856619D01*
X13771333Y-14885190D01*
X13657048Y-14999476D01*
X13780857Y-14999476D01*
X13952286Y-14799476D02*
X13914190Y-14799476D01*
X13895143Y-14809000D01*
X13885619Y-14818524D01*
X13866571Y-14847095D01*
X13857048Y-14885190D01*
X13857048Y-14961381D01*
X13866571Y-14980428D01*
X13876095Y-14989952D01*
X13895143Y-14999476D01*
X13933238Y-14999476D01*
X13952286Y-14989952D01*
X13961809Y-14980428D01*
X13971333Y-14961381D01*
X13971333Y-14913762D01*
X13961809Y-14894714D01*
X13952286Y-14885190D01*
X13933238Y-14875667D01*
X13895143Y-14875667D01*
X13876095Y-14885190D01*
X13866571Y-14894714D01*
X13857048Y-14913762D01*
X14209428Y-14999476D02*
X14209428Y-14799476D01*
X14295143Y-14999476D02*
X14295143Y-14894714D01*
X14285619Y-14875667D01*
X14266571Y-14866143D01*
X14238000Y-14866143D01*
X14218952Y-14875667D01*
X14209428Y-14885190D01*
X14418952Y-14999476D02*
X14399905Y-14989952D01*
X14390381Y-14980428D01*
X14380857Y-14961381D01*
X14380857Y-14904238D01*
X14390381Y-14885190D01*
X14399905Y-14875667D01*
X14418952Y-14866143D01*
X14447524Y-14866143D01*
X14466571Y-14875667D01*
X14476095Y-14885190D01*
X14485619Y-14904238D01*
X14485619Y-14961381D01*
X14476095Y-14980428D01*
X14466571Y-14989952D01*
X14447524Y-14999476D01*
X14418952Y-14999476D01*
X14599905Y-14999476D02*
X14580857Y-14989952D01*
X14571333Y-14970905D01*
X14571333Y-14799476D01*
X14752286Y-14989952D02*
X14733238Y-14999476D01*
X14695143Y-14999476D01*
X14676095Y-14989952D01*
X14666571Y-14970905D01*
X14666571Y-14894714D01*
X14676095Y-14875667D01*
X14695143Y-14866143D01*
X14733238Y-14866143D01*
X14752286Y-14875667D01*
X14761809Y-14894714D01*
X14761809Y-14913762D01*
X14666571Y-14932809D01*
X14838000Y-14989952D02*
X14857048Y-14999476D01*
X14895143Y-14999476D01*
X14914190Y-14989952D01*
X14923714Y-14970905D01*
X14923714Y-14961381D01*
X14914190Y-14942333D01*
X14895143Y-14932809D01*
X14866571Y-14932809D01*
X14847524Y-14923286D01*
X14838000Y-14904238D01*
X14838000Y-14894714D01*
X14847524Y-14875667D01*
X14866571Y-14866143D01*
X14895143Y-14866143D01*
X14914190Y-14875667D01*
X14990381Y-15075667D02*
X14999905Y-15066143D01*
X15018952Y-15037571D01*
X15028476Y-15018524D01*
X15038000Y-14989952D01*
X15047524Y-14942333D01*
X15047524Y-14904238D01*
X15038000Y-14856619D01*
X15028476Y-14828048D01*
X15018952Y-14809000D01*
X14999905Y-14780428D01*
X14990381Y-14770905D01*
M02*
