%TF.GenerationSoftware,KiCad,Pcbnew,(5.1.10)-1*%
%TF.CreationDate,2021-07-01T15:47:13-04:00*%
%TF.ProjectId,LFO,4c464f2e-6b69-4636-9164-5f7063625858,rev?*%
%TF.SameCoordinates,Original*%
%TF.FileFunction,Paste,Top*%
%TF.FilePolarity,Positive*%
%FSLAX46Y46*%
G04 Gerber Fmt 4.6, Leading zero omitted, Abs format (unit mm)*
G04 Created by KiCad (PCBNEW (5.1.10)-1) date 2021-07-01 15:47:13*
%MOMM*%
%LPD*%
G01*
G04 APERTURE LIST*
%ADD10R,1.100000X1.100000*%
G04 APERTURE END LIST*
%TO.C,U3*%
G36*
G01*
X110817800Y-77951200D02*
X110517800Y-77951200D01*
G75*
G02*
X110367800Y-77801200I0J150000D01*
G01*
X110367800Y-76151200D01*
G75*
G02*
X110517800Y-76001200I150000J0D01*
G01*
X110817800Y-76001200D01*
G75*
G02*
X110967800Y-76151200I0J-150000D01*
G01*
X110967800Y-77801200D01*
G75*
G02*
X110817800Y-77951200I-150000J0D01*
G01*
G37*
G36*
G01*
X112087800Y-77951200D02*
X111787800Y-77951200D01*
G75*
G02*
X111637800Y-77801200I0J150000D01*
G01*
X111637800Y-76151200D01*
G75*
G02*
X111787800Y-76001200I150000J0D01*
G01*
X112087800Y-76001200D01*
G75*
G02*
X112237800Y-76151200I0J-150000D01*
G01*
X112237800Y-77801200D01*
G75*
G02*
X112087800Y-77951200I-150000J0D01*
G01*
G37*
G36*
G01*
X113357800Y-77951200D02*
X113057800Y-77951200D01*
G75*
G02*
X112907800Y-77801200I0J150000D01*
G01*
X112907800Y-76151200D01*
G75*
G02*
X113057800Y-76001200I150000J0D01*
G01*
X113357800Y-76001200D01*
G75*
G02*
X113507800Y-76151200I0J-150000D01*
G01*
X113507800Y-77801200D01*
G75*
G02*
X113357800Y-77951200I-150000J0D01*
G01*
G37*
G36*
G01*
X114627800Y-77951200D02*
X114327800Y-77951200D01*
G75*
G02*
X114177800Y-77801200I0J150000D01*
G01*
X114177800Y-76151200D01*
G75*
G02*
X114327800Y-76001200I150000J0D01*
G01*
X114627800Y-76001200D01*
G75*
G02*
X114777800Y-76151200I0J-150000D01*
G01*
X114777800Y-77801200D01*
G75*
G02*
X114627800Y-77951200I-150000J0D01*
G01*
G37*
G36*
G01*
X115897800Y-77951200D02*
X115597800Y-77951200D01*
G75*
G02*
X115447800Y-77801200I0J150000D01*
G01*
X115447800Y-76151200D01*
G75*
G02*
X115597800Y-76001200I150000J0D01*
G01*
X115897800Y-76001200D01*
G75*
G02*
X116047800Y-76151200I0J-150000D01*
G01*
X116047800Y-77801200D01*
G75*
G02*
X115897800Y-77951200I-150000J0D01*
G01*
G37*
G36*
G01*
X117167800Y-77951200D02*
X116867800Y-77951200D01*
G75*
G02*
X116717800Y-77801200I0J150000D01*
G01*
X116717800Y-76151200D01*
G75*
G02*
X116867800Y-76001200I150000J0D01*
G01*
X117167800Y-76001200D01*
G75*
G02*
X117317800Y-76151200I0J-150000D01*
G01*
X117317800Y-77801200D01*
G75*
G02*
X117167800Y-77951200I-150000J0D01*
G01*
G37*
G36*
G01*
X118437800Y-77951200D02*
X118137800Y-77951200D01*
G75*
G02*
X117987800Y-77801200I0J150000D01*
G01*
X117987800Y-76151200D01*
G75*
G02*
X118137800Y-76001200I150000J0D01*
G01*
X118437800Y-76001200D01*
G75*
G02*
X118587800Y-76151200I0J-150000D01*
G01*
X118587800Y-77801200D01*
G75*
G02*
X118437800Y-77951200I-150000J0D01*
G01*
G37*
G36*
G01*
X119707800Y-77951200D02*
X119407800Y-77951200D01*
G75*
G02*
X119257800Y-77801200I0J150000D01*
G01*
X119257800Y-76151200D01*
G75*
G02*
X119407800Y-76001200I150000J0D01*
G01*
X119707800Y-76001200D01*
G75*
G02*
X119857800Y-76151200I0J-150000D01*
G01*
X119857800Y-77801200D01*
G75*
G02*
X119707800Y-77951200I-150000J0D01*
G01*
G37*
G36*
G01*
X119707800Y-82901200D02*
X119407800Y-82901200D01*
G75*
G02*
X119257800Y-82751200I0J150000D01*
G01*
X119257800Y-81101200D01*
G75*
G02*
X119407800Y-80951200I150000J0D01*
G01*
X119707800Y-80951200D01*
G75*
G02*
X119857800Y-81101200I0J-150000D01*
G01*
X119857800Y-82751200D01*
G75*
G02*
X119707800Y-82901200I-150000J0D01*
G01*
G37*
G36*
G01*
X118437800Y-82901200D02*
X118137800Y-82901200D01*
G75*
G02*
X117987800Y-82751200I0J150000D01*
G01*
X117987800Y-81101200D01*
G75*
G02*
X118137800Y-80951200I150000J0D01*
G01*
X118437800Y-80951200D01*
G75*
G02*
X118587800Y-81101200I0J-150000D01*
G01*
X118587800Y-82751200D01*
G75*
G02*
X118437800Y-82901200I-150000J0D01*
G01*
G37*
G36*
G01*
X117167800Y-82901200D02*
X116867800Y-82901200D01*
G75*
G02*
X116717800Y-82751200I0J150000D01*
G01*
X116717800Y-81101200D01*
G75*
G02*
X116867800Y-80951200I150000J0D01*
G01*
X117167800Y-80951200D01*
G75*
G02*
X117317800Y-81101200I0J-150000D01*
G01*
X117317800Y-82751200D01*
G75*
G02*
X117167800Y-82901200I-150000J0D01*
G01*
G37*
G36*
G01*
X115897800Y-82901200D02*
X115597800Y-82901200D01*
G75*
G02*
X115447800Y-82751200I0J150000D01*
G01*
X115447800Y-81101200D01*
G75*
G02*
X115597800Y-80951200I150000J0D01*
G01*
X115897800Y-80951200D01*
G75*
G02*
X116047800Y-81101200I0J-150000D01*
G01*
X116047800Y-82751200D01*
G75*
G02*
X115897800Y-82901200I-150000J0D01*
G01*
G37*
G36*
G01*
X114627800Y-82901200D02*
X114327800Y-82901200D01*
G75*
G02*
X114177800Y-82751200I0J150000D01*
G01*
X114177800Y-81101200D01*
G75*
G02*
X114327800Y-80951200I150000J0D01*
G01*
X114627800Y-80951200D01*
G75*
G02*
X114777800Y-81101200I0J-150000D01*
G01*
X114777800Y-82751200D01*
G75*
G02*
X114627800Y-82901200I-150000J0D01*
G01*
G37*
G36*
G01*
X113357800Y-82901200D02*
X113057800Y-82901200D01*
G75*
G02*
X112907800Y-82751200I0J150000D01*
G01*
X112907800Y-81101200D01*
G75*
G02*
X113057800Y-80951200I150000J0D01*
G01*
X113357800Y-80951200D01*
G75*
G02*
X113507800Y-81101200I0J-150000D01*
G01*
X113507800Y-82751200D01*
G75*
G02*
X113357800Y-82901200I-150000J0D01*
G01*
G37*
G36*
G01*
X112087800Y-82901200D02*
X111787800Y-82901200D01*
G75*
G02*
X111637800Y-82751200I0J150000D01*
G01*
X111637800Y-81101200D01*
G75*
G02*
X111787800Y-80951200I150000J0D01*
G01*
X112087800Y-80951200D01*
G75*
G02*
X112237800Y-81101200I0J-150000D01*
G01*
X112237800Y-82751200D01*
G75*
G02*
X112087800Y-82901200I-150000J0D01*
G01*
G37*
G36*
G01*
X110817800Y-82901200D02*
X110517800Y-82901200D01*
G75*
G02*
X110367800Y-82751200I0J150000D01*
G01*
X110367800Y-81101200D01*
G75*
G02*
X110517800Y-80951200I150000J0D01*
G01*
X110817800Y-80951200D01*
G75*
G02*
X110967800Y-81101200I0J-150000D01*
G01*
X110967800Y-82751200D01*
G75*
G02*
X110817800Y-82901200I-150000J0D01*
G01*
G37*
%TD*%
%TO.C,R63*%
G36*
G01*
X126383201Y-99422000D02*
X125483199Y-99422000D01*
G75*
G02*
X125233200Y-99172001I0J249999D01*
G01*
X125233200Y-98471999D01*
G75*
G02*
X125483199Y-98222000I249999J0D01*
G01*
X126383201Y-98222000D01*
G75*
G02*
X126633200Y-98471999I0J-249999D01*
G01*
X126633200Y-99172001D01*
G75*
G02*
X126383201Y-99422000I-249999J0D01*
G01*
G37*
G36*
G01*
X126383201Y-101422000D02*
X125483199Y-101422000D01*
G75*
G02*
X125233200Y-101172001I0J249999D01*
G01*
X125233200Y-100471999D01*
G75*
G02*
X125483199Y-100222000I249999J0D01*
G01*
X126383201Y-100222000D01*
G75*
G02*
X126633200Y-100471999I0J-249999D01*
G01*
X126633200Y-101172001D01*
G75*
G02*
X126383201Y-101422000I-249999J0D01*
G01*
G37*
%TD*%
%TO.C,R61*%
G36*
G01*
X135004000Y-86454401D02*
X135004000Y-85554399D01*
G75*
G02*
X135253999Y-85304400I249999J0D01*
G01*
X135954001Y-85304400D01*
G75*
G02*
X136204000Y-85554399I0J-249999D01*
G01*
X136204000Y-86454401D01*
G75*
G02*
X135954001Y-86704400I-249999J0D01*
G01*
X135253999Y-86704400D01*
G75*
G02*
X135004000Y-86454401I0J249999D01*
G01*
G37*
G36*
G01*
X133004000Y-86454401D02*
X133004000Y-85554399D01*
G75*
G02*
X133253999Y-85304400I249999J0D01*
G01*
X133954001Y-85304400D01*
G75*
G02*
X134204000Y-85554399I0J-249999D01*
G01*
X134204000Y-86454401D01*
G75*
G02*
X133954001Y-86704400I-249999J0D01*
G01*
X133253999Y-86704400D01*
G75*
G02*
X133004000Y-86454401I0J249999D01*
G01*
G37*
%TD*%
%TO.C,R60*%
G36*
G01*
X136608399Y-94922800D02*
X137508401Y-94922800D01*
G75*
G02*
X137758400Y-95172799I0J-249999D01*
G01*
X137758400Y-95872801D01*
G75*
G02*
X137508401Y-96122800I-249999J0D01*
G01*
X136608399Y-96122800D01*
G75*
G02*
X136358400Y-95872801I0J249999D01*
G01*
X136358400Y-95172799D01*
G75*
G02*
X136608399Y-94922800I249999J0D01*
G01*
G37*
G36*
G01*
X136608399Y-92922800D02*
X137508401Y-92922800D01*
G75*
G02*
X137758400Y-93172799I0J-249999D01*
G01*
X137758400Y-93872801D01*
G75*
G02*
X137508401Y-94122800I-249999J0D01*
G01*
X136608399Y-94122800D01*
G75*
G02*
X136358400Y-93872801I0J249999D01*
G01*
X136358400Y-93172799D01*
G75*
G02*
X136608399Y-92922800I249999J0D01*
G01*
G37*
%TD*%
%TO.C,R59*%
G36*
G01*
X122420801Y-106026000D02*
X121520799Y-106026000D01*
G75*
G02*
X121270800Y-105776001I0J249999D01*
G01*
X121270800Y-105075999D01*
G75*
G02*
X121520799Y-104826000I249999J0D01*
G01*
X122420801Y-104826000D01*
G75*
G02*
X122670800Y-105075999I0J-249999D01*
G01*
X122670800Y-105776001D01*
G75*
G02*
X122420801Y-106026000I-249999J0D01*
G01*
G37*
G36*
G01*
X122420801Y-108026000D02*
X121520799Y-108026000D01*
G75*
G02*
X121270800Y-107776001I0J249999D01*
G01*
X121270800Y-107075999D01*
G75*
G02*
X121520799Y-106826000I249999J0D01*
G01*
X122420801Y-106826000D01*
G75*
G02*
X122670800Y-107075999I0J-249999D01*
G01*
X122670800Y-107776001D01*
G75*
G02*
X122420801Y-108026000I-249999J0D01*
G01*
G37*
%TD*%
%TO.C,R58*%
G36*
G01*
X130396401Y-105975200D02*
X129496399Y-105975200D01*
G75*
G02*
X129246400Y-105725201I0J249999D01*
G01*
X129246400Y-105025199D01*
G75*
G02*
X129496399Y-104775200I249999J0D01*
G01*
X130396401Y-104775200D01*
G75*
G02*
X130646400Y-105025199I0J-249999D01*
G01*
X130646400Y-105725201D01*
G75*
G02*
X130396401Y-105975200I-249999J0D01*
G01*
G37*
G36*
G01*
X130396401Y-107975200D02*
X129496399Y-107975200D01*
G75*
G02*
X129246400Y-107725201I0J249999D01*
G01*
X129246400Y-107025199D01*
G75*
G02*
X129496399Y-106775200I249999J0D01*
G01*
X130396401Y-106775200D01*
G75*
G02*
X130646400Y-107025199I0J-249999D01*
G01*
X130646400Y-107725201D01*
G75*
G02*
X130396401Y-107975200I-249999J0D01*
G01*
G37*
%TD*%
%TO.C,R57*%
G36*
G01*
X115560400Y-106890399D02*
X115560400Y-107790401D01*
G75*
G02*
X115310401Y-108040400I-249999J0D01*
G01*
X114610399Y-108040400D01*
G75*
G02*
X114360400Y-107790401I0J249999D01*
G01*
X114360400Y-106890399D01*
G75*
G02*
X114610399Y-106640400I249999J0D01*
G01*
X115310401Y-106640400D01*
G75*
G02*
X115560400Y-106890399I0J-249999D01*
G01*
G37*
G36*
G01*
X117560400Y-106890399D02*
X117560400Y-107790401D01*
G75*
G02*
X117310401Y-108040400I-249999J0D01*
G01*
X116610399Y-108040400D01*
G75*
G02*
X116360400Y-107790401I0J249999D01*
G01*
X116360400Y-106890399D01*
G75*
G02*
X116610399Y-106640400I249999J0D01*
G01*
X117310401Y-106640400D01*
G75*
G02*
X117560400Y-106890399I0J-249999D01*
G01*
G37*
%TD*%
%TO.C,R56*%
G36*
G01*
X121202400Y-103624801D02*
X121202400Y-102724799D01*
G75*
G02*
X121452399Y-102474800I249999J0D01*
G01*
X122152401Y-102474800D01*
G75*
G02*
X122402400Y-102724799I0J-249999D01*
G01*
X122402400Y-103624801D01*
G75*
G02*
X122152401Y-103874800I-249999J0D01*
G01*
X121452399Y-103874800D01*
G75*
G02*
X121202400Y-103624801I0J249999D01*
G01*
G37*
G36*
G01*
X119202400Y-103624801D02*
X119202400Y-102724799D01*
G75*
G02*
X119452399Y-102474800I249999J0D01*
G01*
X120152401Y-102474800D01*
G75*
G02*
X120402400Y-102724799I0J-249999D01*
G01*
X120402400Y-103624801D01*
G75*
G02*
X120152401Y-103874800I-249999J0D01*
G01*
X119452399Y-103874800D01*
G75*
G02*
X119202400Y-103624801I0J249999D01*
G01*
G37*
%TD*%
%TO.C,R55*%
G36*
G01*
X120439601Y-99930000D02*
X119539599Y-99930000D01*
G75*
G02*
X119289600Y-99680001I0J249999D01*
G01*
X119289600Y-98979999D01*
G75*
G02*
X119539599Y-98730000I249999J0D01*
G01*
X120439601Y-98730000D01*
G75*
G02*
X120689600Y-98979999I0J-249999D01*
G01*
X120689600Y-99680001D01*
G75*
G02*
X120439601Y-99930000I-249999J0D01*
G01*
G37*
G36*
G01*
X120439601Y-101930000D02*
X119539599Y-101930000D01*
G75*
G02*
X119289600Y-101680001I0J249999D01*
G01*
X119289600Y-100979999D01*
G75*
G02*
X119539599Y-100730000I249999J0D01*
G01*
X120439601Y-100730000D01*
G75*
G02*
X120689600Y-100979999I0J-249999D01*
G01*
X120689600Y-101680001D01*
G75*
G02*
X120439601Y-101930000I-249999J0D01*
G01*
G37*
%TD*%
%TO.C,R54*%
G36*
G01*
X132631601Y-83064400D02*
X131731599Y-83064400D01*
G75*
G02*
X131481600Y-82814401I0J249999D01*
G01*
X131481600Y-82114399D01*
G75*
G02*
X131731599Y-81864400I249999J0D01*
G01*
X132631601Y-81864400D01*
G75*
G02*
X132881600Y-82114399I0J-249999D01*
G01*
X132881600Y-82814401D01*
G75*
G02*
X132631601Y-83064400I-249999J0D01*
G01*
G37*
G36*
G01*
X132631601Y-85064400D02*
X131731599Y-85064400D01*
G75*
G02*
X131481600Y-84814401I0J249999D01*
G01*
X131481600Y-84114399D01*
G75*
G02*
X131731599Y-83864400I249999J0D01*
G01*
X132631601Y-83864400D01*
G75*
G02*
X132881600Y-84114399I0J-249999D01*
G01*
X132881600Y-84814401D01*
G75*
G02*
X132631601Y-85064400I-249999J0D01*
G01*
G37*
%TD*%
%TO.C,R53*%
G36*
G01*
X113900000Y-95053999D02*
X113900000Y-95954001D01*
G75*
G02*
X113650001Y-96204000I-249999J0D01*
G01*
X112949999Y-96204000D01*
G75*
G02*
X112700000Y-95954001I0J249999D01*
G01*
X112700000Y-95053999D01*
G75*
G02*
X112949999Y-94804000I249999J0D01*
G01*
X113650001Y-94804000D01*
G75*
G02*
X113900000Y-95053999I0J-249999D01*
G01*
G37*
G36*
G01*
X115900000Y-95053999D02*
X115900000Y-95954001D01*
G75*
G02*
X115650001Y-96204000I-249999J0D01*
G01*
X114949999Y-96204000D01*
G75*
G02*
X114700000Y-95954001I0J249999D01*
G01*
X114700000Y-95053999D01*
G75*
G02*
X114949999Y-94804000I249999J0D01*
G01*
X115650001Y-94804000D01*
G75*
G02*
X115900000Y-95053999I0J-249999D01*
G01*
G37*
%TD*%
%TO.C,R52*%
G36*
G01*
X113865200Y-96984399D02*
X113865200Y-97884401D01*
G75*
G02*
X113615201Y-98134400I-249999J0D01*
G01*
X112915199Y-98134400D01*
G75*
G02*
X112665200Y-97884401I0J249999D01*
G01*
X112665200Y-96984399D01*
G75*
G02*
X112915199Y-96734400I249999J0D01*
G01*
X113615201Y-96734400D01*
G75*
G02*
X113865200Y-96984399I0J-249999D01*
G01*
G37*
G36*
G01*
X115865200Y-96984399D02*
X115865200Y-97884401D01*
G75*
G02*
X115615201Y-98134400I-249999J0D01*
G01*
X114915199Y-98134400D01*
G75*
G02*
X114665200Y-97884401I0J249999D01*
G01*
X114665200Y-96984399D01*
G75*
G02*
X114915199Y-96734400I249999J0D01*
G01*
X115615201Y-96734400D01*
G75*
G02*
X115865200Y-96984399I0J-249999D01*
G01*
G37*
%TD*%
%TO.C,R51*%
G36*
G01*
X108552401Y-96983600D02*
X107652399Y-96983600D01*
G75*
G02*
X107402400Y-96733601I0J249999D01*
G01*
X107402400Y-96033599D01*
G75*
G02*
X107652399Y-95783600I249999J0D01*
G01*
X108552401Y-95783600D01*
G75*
G02*
X108802400Y-96033599I0J-249999D01*
G01*
X108802400Y-96733601D01*
G75*
G02*
X108552401Y-96983600I-249999J0D01*
G01*
G37*
G36*
G01*
X108552401Y-98983600D02*
X107652399Y-98983600D01*
G75*
G02*
X107402400Y-98733601I0J249999D01*
G01*
X107402400Y-98033599D01*
G75*
G02*
X107652399Y-97783600I249999J0D01*
G01*
X108552401Y-97783600D01*
G75*
G02*
X108802400Y-98033599I0J-249999D01*
G01*
X108802400Y-98733601D01*
G75*
G02*
X108552401Y-98983600I-249999J0D01*
G01*
G37*
%TD*%
%TO.C,R50*%
G36*
G01*
X102622400Y-105975999D02*
X102622400Y-106876001D01*
G75*
G02*
X102372401Y-107126000I-249999J0D01*
G01*
X101672399Y-107126000D01*
G75*
G02*
X101422400Y-106876001I0J249999D01*
G01*
X101422400Y-105975999D01*
G75*
G02*
X101672399Y-105726000I249999J0D01*
G01*
X102372401Y-105726000D01*
G75*
G02*
X102622400Y-105975999I0J-249999D01*
G01*
G37*
G36*
G01*
X104622400Y-105975999D02*
X104622400Y-106876001D01*
G75*
G02*
X104372401Y-107126000I-249999J0D01*
G01*
X103672399Y-107126000D01*
G75*
G02*
X103422400Y-106876001I0J249999D01*
G01*
X103422400Y-105975999D01*
G75*
G02*
X103672399Y-105726000I249999J0D01*
G01*
X104372401Y-105726000D01*
G75*
G02*
X104622400Y-105975999I0J-249999D01*
G01*
G37*
%TD*%
%TO.C,R49*%
G36*
G01*
X96614401Y-96847200D02*
X95714399Y-96847200D01*
G75*
G02*
X95464400Y-96597201I0J249999D01*
G01*
X95464400Y-95897199D01*
G75*
G02*
X95714399Y-95647200I249999J0D01*
G01*
X96614401Y-95647200D01*
G75*
G02*
X96864400Y-95897199I0J-249999D01*
G01*
X96864400Y-96597201D01*
G75*
G02*
X96614401Y-96847200I-249999J0D01*
G01*
G37*
G36*
G01*
X96614401Y-98847200D02*
X95714399Y-98847200D01*
G75*
G02*
X95464400Y-98597201I0J249999D01*
G01*
X95464400Y-97897199D01*
G75*
G02*
X95714399Y-97647200I249999J0D01*
G01*
X96614401Y-97647200D01*
G75*
G02*
X96864400Y-97897199I0J-249999D01*
G01*
X96864400Y-98597201D01*
G75*
G02*
X96614401Y-98847200I-249999J0D01*
G01*
G37*
%TD*%
%TO.C,R48*%
G36*
G01*
X123670399Y-83508800D02*
X124570401Y-83508800D01*
G75*
G02*
X124820400Y-83758799I0J-249999D01*
G01*
X124820400Y-84458801D01*
G75*
G02*
X124570401Y-84708800I-249999J0D01*
G01*
X123670399Y-84708800D01*
G75*
G02*
X123420400Y-84458801I0J249999D01*
G01*
X123420400Y-83758799D01*
G75*
G02*
X123670399Y-83508800I249999J0D01*
G01*
G37*
G36*
G01*
X123670399Y-81508800D02*
X124570401Y-81508800D01*
G75*
G02*
X124820400Y-81758799I0J-249999D01*
G01*
X124820400Y-82458801D01*
G75*
G02*
X124570401Y-82708800I-249999J0D01*
G01*
X123670399Y-82708800D01*
G75*
G02*
X123420400Y-82458801I0J249999D01*
G01*
X123420400Y-81758799D01*
G75*
G02*
X123670399Y-81508800I249999J0D01*
G01*
G37*
%TD*%
%TO.C,R47*%
G36*
G01*
X111462399Y-101288800D02*
X112362401Y-101288800D01*
G75*
G02*
X112612400Y-101538799I0J-249999D01*
G01*
X112612400Y-102238801D01*
G75*
G02*
X112362401Y-102488800I-249999J0D01*
G01*
X111462399Y-102488800D01*
G75*
G02*
X111212400Y-102238801I0J249999D01*
G01*
X111212400Y-101538799D01*
G75*
G02*
X111462399Y-101288800I249999J0D01*
G01*
G37*
G36*
G01*
X111462399Y-99288800D02*
X112362401Y-99288800D01*
G75*
G02*
X112612400Y-99538799I0J-249999D01*
G01*
X112612400Y-100238801D01*
G75*
G02*
X112362401Y-100488800I-249999J0D01*
G01*
X111462399Y-100488800D01*
G75*
G02*
X111212400Y-100238801I0J249999D01*
G01*
X111212400Y-99538799D01*
G75*
G02*
X111462399Y-99288800I249999J0D01*
G01*
G37*
%TD*%
%TO.C,R45*%
G36*
G01*
X102606400Y-103994799D02*
X102606400Y-104894801D01*
G75*
G02*
X102356401Y-105144800I-249999J0D01*
G01*
X101656399Y-105144800D01*
G75*
G02*
X101406400Y-104894801I0J249999D01*
G01*
X101406400Y-103994799D01*
G75*
G02*
X101656399Y-103744800I249999J0D01*
G01*
X102356401Y-103744800D01*
G75*
G02*
X102606400Y-103994799I0J-249999D01*
G01*
G37*
G36*
G01*
X104606400Y-103994799D02*
X104606400Y-104894801D01*
G75*
G02*
X104356401Y-105144800I-249999J0D01*
G01*
X103656399Y-105144800D01*
G75*
G02*
X103406400Y-104894801I0J249999D01*
G01*
X103406400Y-103994799D01*
G75*
G02*
X103656399Y-103744800I249999J0D01*
G01*
X104356401Y-103744800D01*
G75*
G02*
X104606400Y-103994799I0J-249999D01*
G01*
G37*
%TD*%
%TO.C,R44*%
G36*
G01*
X102606400Y-102013599D02*
X102606400Y-102913601D01*
G75*
G02*
X102356401Y-103163600I-249999J0D01*
G01*
X101656399Y-103163600D01*
G75*
G02*
X101406400Y-102913601I0J249999D01*
G01*
X101406400Y-102013599D01*
G75*
G02*
X101656399Y-101763600I249999J0D01*
G01*
X102356401Y-101763600D01*
G75*
G02*
X102606400Y-102013599I0J-249999D01*
G01*
G37*
G36*
G01*
X104606400Y-102013599D02*
X104606400Y-102913601D01*
G75*
G02*
X104356401Y-103163600I-249999J0D01*
G01*
X103656399Y-103163600D01*
G75*
G02*
X103406400Y-102913601I0J249999D01*
G01*
X103406400Y-102013599D01*
G75*
G02*
X103656399Y-101763600I249999J0D01*
G01*
X104356401Y-101763600D01*
G75*
G02*
X104606400Y-102013599I0J-249999D01*
G01*
G37*
%TD*%
%TO.C,R43*%
G36*
G01*
X128873200Y-70198401D02*
X128873200Y-69298399D01*
G75*
G02*
X129123199Y-69048400I249999J0D01*
G01*
X129823201Y-69048400D01*
G75*
G02*
X130073200Y-69298399I0J-249999D01*
G01*
X130073200Y-70198401D01*
G75*
G02*
X129823201Y-70448400I-249999J0D01*
G01*
X129123199Y-70448400D01*
G75*
G02*
X128873200Y-70198401I0J249999D01*
G01*
G37*
G36*
G01*
X126873200Y-70198401D02*
X126873200Y-69298399D01*
G75*
G02*
X127123199Y-69048400I249999J0D01*
G01*
X127823201Y-69048400D01*
G75*
G02*
X128073200Y-69298399I0J-249999D01*
G01*
X128073200Y-70198401D01*
G75*
G02*
X127823201Y-70448400I-249999J0D01*
G01*
X127123199Y-70448400D01*
G75*
G02*
X126873200Y-70198401I0J249999D01*
G01*
G37*
%TD*%
%TO.C,R42*%
G36*
G01*
X126484801Y-105991200D02*
X125584799Y-105991200D01*
G75*
G02*
X125334800Y-105741201I0J249999D01*
G01*
X125334800Y-105041199D01*
G75*
G02*
X125584799Y-104791200I249999J0D01*
G01*
X126484801Y-104791200D01*
G75*
G02*
X126734800Y-105041199I0J-249999D01*
G01*
X126734800Y-105741201D01*
G75*
G02*
X126484801Y-105991200I-249999J0D01*
G01*
G37*
G36*
G01*
X126484801Y-107991200D02*
X125584799Y-107991200D01*
G75*
G02*
X125334800Y-107741201I0J249999D01*
G01*
X125334800Y-107041199D01*
G75*
G02*
X125584799Y-106791200I249999J0D01*
G01*
X126484801Y-106791200D01*
G75*
G02*
X126734800Y-107041199I0J-249999D01*
G01*
X126734800Y-107741201D01*
G75*
G02*
X126484801Y-107991200I-249999J0D01*
G01*
G37*
%TD*%
%TO.C,R41*%
G36*
G01*
X102622400Y-99321199D02*
X102622400Y-100221201D01*
G75*
G02*
X102372401Y-100471200I-249999J0D01*
G01*
X101672399Y-100471200D01*
G75*
G02*
X101422400Y-100221201I0J249999D01*
G01*
X101422400Y-99321199D01*
G75*
G02*
X101672399Y-99071200I249999J0D01*
G01*
X102372401Y-99071200D01*
G75*
G02*
X102622400Y-99321199I0J-249999D01*
G01*
G37*
G36*
G01*
X104622400Y-99321199D02*
X104622400Y-100221201D01*
G75*
G02*
X104372401Y-100471200I-249999J0D01*
G01*
X103672399Y-100471200D01*
G75*
G02*
X103422400Y-100221201I0J249999D01*
G01*
X103422400Y-99321199D01*
G75*
G02*
X103672399Y-99071200I249999J0D01*
G01*
X104372401Y-99071200D01*
G75*
G02*
X104622400Y-99321199I0J-249999D01*
G01*
G37*
%TD*%
%TO.C,R40*%
G36*
G01*
X102622400Y-97339999D02*
X102622400Y-98240001D01*
G75*
G02*
X102372401Y-98490000I-249999J0D01*
G01*
X101672399Y-98490000D01*
G75*
G02*
X101422400Y-98240001I0J249999D01*
G01*
X101422400Y-97339999D01*
G75*
G02*
X101672399Y-97090000I249999J0D01*
G01*
X102372401Y-97090000D01*
G75*
G02*
X102622400Y-97339999I0J-249999D01*
G01*
G37*
G36*
G01*
X104622400Y-97339999D02*
X104622400Y-98240001D01*
G75*
G02*
X104372401Y-98490000I-249999J0D01*
G01*
X103672399Y-98490000D01*
G75*
G02*
X103422400Y-98240001I0J249999D01*
G01*
X103422400Y-97339999D01*
G75*
G02*
X103672399Y-97090000I249999J0D01*
G01*
X104372401Y-97090000D01*
G75*
G02*
X104622400Y-97339999I0J-249999D01*
G01*
G37*
%TD*%
%TO.C,R39*%
G36*
G01*
X98646401Y-96847200D02*
X97746399Y-96847200D01*
G75*
G02*
X97496400Y-96597201I0J249999D01*
G01*
X97496400Y-95897199D01*
G75*
G02*
X97746399Y-95647200I249999J0D01*
G01*
X98646401Y-95647200D01*
G75*
G02*
X98896400Y-95897199I0J-249999D01*
G01*
X98896400Y-96597201D01*
G75*
G02*
X98646401Y-96847200I-249999J0D01*
G01*
G37*
G36*
G01*
X98646401Y-98847200D02*
X97746399Y-98847200D01*
G75*
G02*
X97496400Y-98597201I0J249999D01*
G01*
X97496400Y-97897199D01*
G75*
G02*
X97746399Y-97647200I249999J0D01*
G01*
X98646401Y-97647200D01*
G75*
G02*
X98896400Y-97897199I0J-249999D01*
G01*
X98896400Y-98597201D01*
G75*
G02*
X98646401Y-98847200I-249999J0D01*
G01*
G37*
%TD*%
%TO.C,R38*%
G36*
G01*
X133596801Y-74190400D02*
X132696799Y-74190400D01*
G75*
G02*
X132446800Y-73940401I0J249999D01*
G01*
X132446800Y-73240399D01*
G75*
G02*
X132696799Y-72990400I249999J0D01*
G01*
X133596801Y-72990400D01*
G75*
G02*
X133846800Y-73240399I0J-249999D01*
G01*
X133846800Y-73940401D01*
G75*
G02*
X133596801Y-74190400I-249999J0D01*
G01*
G37*
G36*
G01*
X133596801Y-76190400D02*
X132696799Y-76190400D01*
G75*
G02*
X132446800Y-75940401I0J249999D01*
G01*
X132446800Y-75240399D01*
G75*
G02*
X132696799Y-74990400I249999J0D01*
G01*
X133596801Y-74990400D01*
G75*
G02*
X133846800Y-75240399I0J-249999D01*
G01*
X133846800Y-75940401D01*
G75*
G02*
X133596801Y-76190400I-249999J0D01*
G01*
G37*
%TD*%
%TO.C,R36*%
G36*
G01*
X134358801Y-105940400D02*
X133458799Y-105940400D01*
G75*
G02*
X133208800Y-105690401I0J249999D01*
G01*
X133208800Y-104990399D01*
G75*
G02*
X133458799Y-104740400I249999J0D01*
G01*
X134358801Y-104740400D01*
G75*
G02*
X134608800Y-104990399I0J-249999D01*
G01*
X134608800Y-105690401D01*
G75*
G02*
X134358801Y-105940400I-249999J0D01*
G01*
G37*
G36*
G01*
X134358801Y-107940400D02*
X133458799Y-107940400D01*
G75*
G02*
X133208800Y-107690401I0J249999D01*
G01*
X133208800Y-106990399D01*
G75*
G02*
X133458799Y-106740400I249999J0D01*
G01*
X134358801Y-106740400D01*
G75*
G02*
X134608800Y-106990399I0J-249999D01*
G01*
X134608800Y-107690401D01*
G75*
G02*
X134358801Y-107940400I-249999J0D01*
G01*
G37*
%TD*%
%TO.C,R35*%
G36*
G01*
X135185999Y-99714000D02*
X136086001Y-99714000D01*
G75*
G02*
X136336000Y-99963999I0J-249999D01*
G01*
X136336000Y-100664001D01*
G75*
G02*
X136086001Y-100914000I-249999J0D01*
G01*
X135185999Y-100914000D01*
G75*
G02*
X134936000Y-100664001I0J249999D01*
G01*
X134936000Y-99963999D01*
G75*
G02*
X135185999Y-99714000I249999J0D01*
G01*
G37*
G36*
G01*
X135185999Y-97714000D02*
X136086001Y-97714000D01*
G75*
G02*
X136336000Y-97963999I0J-249999D01*
G01*
X136336000Y-98664001D01*
G75*
G02*
X136086001Y-98914000I-249999J0D01*
G01*
X135185999Y-98914000D01*
G75*
G02*
X134936000Y-98664001I0J249999D01*
G01*
X134936000Y-97963999D01*
G75*
G02*
X135185999Y-97714000I249999J0D01*
G01*
G37*
%TD*%
%TO.C,R34*%
G36*
G01*
X136934400Y-102913601D02*
X136934400Y-102013599D01*
G75*
G02*
X137184399Y-101763600I249999J0D01*
G01*
X137884401Y-101763600D01*
G75*
G02*
X138134400Y-102013599I0J-249999D01*
G01*
X138134400Y-102913601D01*
G75*
G02*
X137884401Y-103163600I-249999J0D01*
G01*
X137184399Y-103163600D01*
G75*
G02*
X136934400Y-102913601I0J249999D01*
G01*
G37*
G36*
G01*
X134934400Y-102913601D02*
X134934400Y-102013599D01*
G75*
G02*
X135184399Y-101763600I249999J0D01*
G01*
X135884401Y-101763600D01*
G75*
G02*
X136134400Y-102013599I0J-249999D01*
G01*
X136134400Y-102913601D01*
G75*
G02*
X135884401Y-103163600I-249999J0D01*
G01*
X135184399Y-103163600D01*
G75*
G02*
X134934400Y-102913601I0J249999D01*
G01*
G37*
%TD*%
%TO.C,R33*%
G36*
G01*
X124263200Y-102419999D02*
X124263200Y-103320001D01*
G75*
G02*
X124013201Y-103570000I-249999J0D01*
G01*
X123313199Y-103570000D01*
G75*
G02*
X123063200Y-103320001I0J249999D01*
G01*
X123063200Y-102419999D01*
G75*
G02*
X123313199Y-102170000I249999J0D01*
G01*
X124013201Y-102170000D01*
G75*
G02*
X124263200Y-102419999I0J-249999D01*
G01*
G37*
G36*
G01*
X126263200Y-102419999D02*
X126263200Y-103320001D01*
G75*
G02*
X126013201Y-103570000I-249999J0D01*
G01*
X125313199Y-103570000D01*
G75*
G02*
X125063200Y-103320001I0J249999D01*
G01*
X125063200Y-102419999D01*
G75*
G02*
X125313199Y-102170000I249999J0D01*
G01*
X126013201Y-102170000D01*
G75*
G02*
X126263200Y-102419999I0J-249999D01*
G01*
G37*
%TD*%
%TO.C,R32*%
G36*
G01*
X102606400Y-95358799D02*
X102606400Y-96258801D01*
G75*
G02*
X102356401Y-96508800I-249999J0D01*
G01*
X101656399Y-96508800D01*
G75*
G02*
X101406400Y-96258801I0J249999D01*
G01*
X101406400Y-95358799D01*
G75*
G02*
X101656399Y-95108800I249999J0D01*
G01*
X102356401Y-95108800D01*
G75*
G02*
X102606400Y-95358799I0J-249999D01*
G01*
G37*
G36*
G01*
X104606400Y-95358799D02*
X104606400Y-96258801D01*
G75*
G02*
X104356401Y-96508800I-249999J0D01*
G01*
X103656399Y-96508800D01*
G75*
G02*
X103406400Y-96258801I0J249999D01*
G01*
X103406400Y-95358799D01*
G75*
G02*
X103656399Y-95108800I249999J0D01*
G01*
X104356401Y-95108800D01*
G75*
G02*
X104606400Y-95358799I0J-249999D01*
G01*
G37*
%TD*%
%TO.C,R31*%
G36*
G01*
X126447600Y-94088799D02*
X126447600Y-94988801D01*
G75*
G02*
X126197601Y-95238800I-249999J0D01*
G01*
X125497599Y-95238800D01*
G75*
G02*
X125247600Y-94988801I0J249999D01*
G01*
X125247600Y-94088799D01*
G75*
G02*
X125497599Y-93838800I249999J0D01*
G01*
X126197601Y-93838800D01*
G75*
G02*
X126447600Y-94088799I0J-249999D01*
G01*
G37*
G36*
G01*
X128447600Y-94088799D02*
X128447600Y-94988801D01*
G75*
G02*
X128197601Y-95238800I-249999J0D01*
G01*
X127497599Y-95238800D01*
G75*
G02*
X127247600Y-94988801I0J249999D01*
G01*
X127247600Y-94088799D01*
G75*
G02*
X127497599Y-93838800I249999J0D01*
G01*
X128197601Y-93838800D01*
G75*
G02*
X128447600Y-94088799I0J-249999D01*
G01*
G37*
%TD*%
%TO.C,R30*%
G36*
G01*
X118354400Y-92920399D02*
X118354400Y-93820401D01*
G75*
G02*
X118104401Y-94070400I-249999J0D01*
G01*
X117404399Y-94070400D01*
G75*
G02*
X117154400Y-93820401I0J249999D01*
G01*
X117154400Y-92920399D01*
G75*
G02*
X117404399Y-92670400I249999J0D01*
G01*
X118104401Y-92670400D01*
G75*
G02*
X118354400Y-92920399I0J-249999D01*
G01*
G37*
G36*
G01*
X120354400Y-92920399D02*
X120354400Y-93820401D01*
G75*
G02*
X120104401Y-94070400I-249999J0D01*
G01*
X119404399Y-94070400D01*
G75*
G02*
X119154400Y-93820401I0J249999D01*
G01*
X119154400Y-92920399D01*
G75*
G02*
X119404399Y-92670400I249999J0D01*
G01*
X120104401Y-92670400D01*
G75*
G02*
X120354400Y-92920399I0J-249999D01*
G01*
G37*
%TD*%
%TO.C,R29*%
G36*
G01*
X138118001Y-98914000D02*
X137217999Y-98914000D01*
G75*
G02*
X136968000Y-98664001I0J249999D01*
G01*
X136968000Y-97963999D01*
G75*
G02*
X137217999Y-97714000I249999J0D01*
G01*
X138118001Y-97714000D01*
G75*
G02*
X138368000Y-97963999I0J-249999D01*
G01*
X138368000Y-98664001D01*
G75*
G02*
X138118001Y-98914000I-249999J0D01*
G01*
G37*
G36*
G01*
X138118001Y-100914000D02*
X137217999Y-100914000D01*
G75*
G02*
X136968000Y-100664001I0J249999D01*
G01*
X136968000Y-99963999D01*
G75*
G02*
X137217999Y-99714000I249999J0D01*
G01*
X138118001Y-99714000D01*
G75*
G02*
X138368000Y-99963999I0J-249999D01*
G01*
X138368000Y-100664001D01*
G75*
G02*
X138118001Y-100914000I-249999J0D01*
G01*
G37*
%TD*%
%TO.C,R28*%
G36*
G01*
X124706801Y-73107600D02*
X123806799Y-73107600D01*
G75*
G02*
X123556800Y-72857601I0J249999D01*
G01*
X123556800Y-72157599D01*
G75*
G02*
X123806799Y-71907600I249999J0D01*
G01*
X124706801Y-71907600D01*
G75*
G02*
X124956800Y-72157599I0J-249999D01*
G01*
X124956800Y-72857601D01*
G75*
G02*
X124706801Y-73107600I-249999J0D01*
G01*
G37*
G36*
G01*
X124706801Y-75107600D02*
X123806799Y-75107600D01*
G75*
G02*
X123556800Y-74857601I0J249999D01*
G01*
X123556800Y-74157599D01*
G75*
G02*
X123806799Y-73907600I249999J0D01*
G01*
X124706801Y-73907600D01*
G75*
G02*
X124956800Y-74157599I0J-249999D01*
G01*
X124956800Y-74857601D01*
G75*
G02*
X124706801Y-75107600I-249999J0D01*
G01*
G37*
%TD*%
%TO.C,R27*%
G36*
G01*
X119170400Y-88791201D02*
X119170400Y-87891199D01*
G75*
G02*
X119420399Y-87641200I249999J0D01*
G01*
X120120401Y-87641200D01*
G75*
G02*
X120370400Y-87891199I0J-249999D01*
G01*
X120370400Y-88791201D01*
G75*
G02*
X120120401Y-89041200I-249999J0D01*
G01*
X119420399Y-89041200D01*
G75*
G02*
X119170400Y-88791201I0J249999D01*
G01*
G37*
G36*
G01*
X117170400Y-88791201D02*
X117170400Y-87891199D01*
G75*
G02*
X117420399Y-87641200I249999J0D01*
G01*
X118120401Y-87641200D01*
G75*
G02*
X118370400Y-87891199I0J-249999D01*
G01*
X118370400Y-88791201D01*
G75*
G02*
X118120401Y-89041200I-249999J0D01*
G01*
X117420399Y-89041200D01*
G75*
G02*
X117170400Y-88791201I0J249999D01*
G01*
G37*
%TD*%
%TO.C,R26*%
G36*
G01*
X113464800Y-85489201D02*
X113464800Y-84589199D01*
G75*
G02*
X113714799Y-84339200I249999J0D01*
G01*
X114414801Y-84339200D01*
G75*
G02*
X114664800Y-84589199I0J-249999D01*
G01*
X114664800Y-85489201D01*
G75*
G02*
X114414801Y-85739200I-249999J0D01*
G01*
X113714799Y-85739200D01*
G75*
G02*
X113464800Y-85489201I0J249999D01*
G01*
G37*
G36*
G01*
X111464800Y-85489201D02*
X111464800Y-84589199D01*
G75*
G02*
X111714799Y-84339200I249999J0D01*
G01*
X112414801Y-84339200D01*
G75*
G02*
X112664800Y-84589199I0J-249999D01*
G01*
X112664800Y-85489201D01*
G75*
G02*
X112414801Y-85739200I-249999J0D01*
G01*
X111714799Y-85739200D01*
G75*
G02*
X111464800Y-85489201I0J249999D01*
G01*
G37*
%TD*%
%TO.C,R24*%
G36*
G01*
X117290001Y-72955200D02*
X116389999Y-72955200D01*
G75*
G02*
X116140000Y-72705201I0J249999D01*
G01*
X116140000Y-72005199D01*
G75*
G02*
X116389999Y-71755200I249999J0D01*
G01*
X117290001Y-71755200D01*
G75*
G02*
X117540000Y-72005199I0J-249999D01*
G01*
X117540000Y-72705201D01*
G75*
G02*
X117290001Y-72955200I-249999J0D01*
G01*
G37*
G36*
G01*
X117290001Y-74955200D02*
X116389999Y-74955200D01*
G75*
G02*
X116140000Y-74705201I0J249999D01*
G01*
X116140000Y-74005199D01*
G75*
G02*
X116389999Y-73755200I249999J0D01*
G01*
X117290001Y-73755200D01*
G75*
G02*
X117540000Y-74005199I0J-249999D01*
G01*
X117540000Y-74705201D01*
G75*
G02*
X117290001Y-74955200I-249999J0D01*
G01*
G37*
%TD*%
%TO.C,R23*%
G36*
G01*
X114408799Y-73755200D02*
X115308801Y-73755200D01*
G75*
G02*
X115558800Y-74005199I0J-249999D01*
G01*
X115558800Y-74705201D01*
G75*
G02*
X115308801Y-74955200I-249999J0D01*
G01*
X114408799Y-74955200D01*
G75*
G02*
X114158800Y-74705201I0J249999D01*
G01*
X114158800Y-74005199D01*
G75*
G02*
X114408799Y-73755200I249999J0D01*
G01*
G37*
G36*
G01*
X114408799Y-71755200D02*
X115308801Y-71755200D01*
G75*
G02*
X115558800Y-72005199I0J-249999D01*
G01*
X115558800Y-72705201D01*
G75*
G02*
X115308801Y-72955200I-249999J0D01*
G01*
X114408799Y-72955200D01*
G75*
G02*
X114158800Y-72705201I0J249999D01*
G01*
X114158800Y-72005199D01*
G75*
G02*
X114408799Y-71755200I249999J0D01*
G01*
G37*
%TD*%
%TO.C,R22*%
G36*
G01*
X116643200Y-84589199D02*
X116643200Y-85489201D01*
G75*
G02*
X116393201Y-85739200I-249999J0D01*
G01*
X115693199Y-85739200D01*
G75*
G02*
X115443200Y-85489201I0J249999D01*
G01*
X115443200Y-84589199D01*
G75*
G02*
X115693199Y-84339200I249999J0D01*
G01*
X116393201Y-84339200D01*
G75*
G02*
X116643200Y-84589199I0J-249999D01*
G01*
G37*
G36*
G01*
X118643200Y-84589199D02*
X118643200Y-85489201D01*
G75*
G02*
X118393201Y-85739200I-249999J0D01*
G01*
X117693199Y-85739200D01*
G75*
G02*
X117443200Y-85489201I0J249999D01*
G01*
X117443200Y-84589199D01*
G75*
G02*
X117693199Y-84339200I249999J0D01*
G01*
X118393201Y-84339200D01*
G75*
G02*
X118643200Y-84589199I0J-249999D01*
G01*
G37*
%TD*%
%TO.C,R21*%
G36*
G01*
X121215999Y-73872800D02*
X122116001Y-73872800D01*
G75*
G02*
X122366000Y-74122799I0J-249999D01*
G01*
X122366000Y-74822801D01*
G75*
G02*
X122116001Y-75072800I-249999J0D01*
G01*
X121215999Y-75072800D01*
G75*
G02*
X120966000Y-74822801I0J249999D01*
G01*
X120966000Y-74122799D01*
G75*
G02*
X121215999Y-73872800I249999J0D01*
G01*
G37*
G36*
G01*
X121215999Y-71872800D02*
X122116001Y-71872800D01*
G75*
G02*
X122366000Y-72122799I0J-249999D01*
G01*
X122366000Y-72822801D01*
G75*
G02*
X122116001Y-73072800I-249999J0D01*
G01*
X121215999Y-73072800D01*
G75*
G02*
X120966000Y-72822801I0J249999D01*
G01*
X120966000Y-72122799D01*
G75*
G02*
X121215999Y-71872800I249999J0D01*
G01*
G37*
%TD*%
%TO.C,R20*%
G36*
G01*
X121912801Y-78898800D02*
X121012799Y-78898800D01*
G75*
G02*
X120762800Y-78648801I0J249999D01*
G01*
X120762800Y-77948799D01*
G75*
G02*
X121012799Y-77698800I249999J0D01*
G01*
X121912801Y-77698800D01*
G75*
G02*
X122162800Y-77948799I0J-249999D01*
G01*
X122162800Y-78648801D01*
G75*
G02*
X121912801Y-78898800I-249999J0D01*
G01*
G37*
G36*
G01*
X121912801Y-80898800D02*
X121012799Y-80898800D01*
G75*
G02*
X120762800Y-80648801I0J249999D01*
G01*
X120762800Y-79948799D01*
G75*
G02*
X121012799Y-79698800I249999J0D01*
G01*
X121912801Y-79698800D01*
G75*
G02*
X122162800Y-79948799I0J-249999D01*
G01*
X122162800Y-80648801D01*
G75*
G02*
X121912801Y-80898800I-249999J0D01*
G01*
G37*
%TD*%
%TO.C,R19*%
G36*
G01*
X113327601Y-72955200D02*
X112427599Y-72955200D01*
G75*
G02*
X112177600Y-72705201I0J249999D01*
G01*
X112177600Y-72005199D01*
G75*
G02*
X112427599Y-71755200I249999J0D01*
G01*
X113327601Y-71755200D01*
G75*
G02*
X113577600Y-72005199I0J-249999D01*
G01*
X113577600Y-72705201D01*
G75*
G02*
X113327601Y-72955200I-249999J0D01*
G01*
G37*
G36*
G01*
X113327601Y-74955200D02*
X112427599Y-74955200D01*
G75*
G02*
X112177600Y-74705201I0J249999D01*
G01*
X112177600Y-74005199D01*
G75*
G02*
X112427599Y-73755200I249999J0D01*
G01*
X113327601Y-73755200D01*
G75*
G02*
X113577600Y-74005199I0J-249999D01*
G01*
X113577600Y-74705201D01*
G75*
G02*
X113327601Y-74955200I-249999J0D01*
G01*
G37*
%TD*%
%TO.C,R18*%
G36*
G01*
X128127200Y-90924801D02*
X128127200Y-90024799D01*
G75*
G02*
X128377199Y-89774800I249999J0D01*
G01*
X129077201Y-89774800D01*
G75*
G02*
X129327200Y-90024799I0J-249999D01*
G01*
X129327200Y-90924801D01*
G75*
G02*
X129077201Y-91174800I-249999J0D01*
G01*
X128377199Y-91174800D01*
G75*
G02*
X128127200Y-90924801I0J249999D01*
G01*
G37*
G36*
G01*
X126127200Y-90924801D02*
X126127200Y-90024799D01*
G75*
G02*
X126377199Y-89774800I249999J0D01*
G01*
X127077201Y-89774800D01*
G75*
G02*
X127327200Y-90024799I0J-249999D01*
G01*
X127327200Y-90924801D01*
G75*
G02*
X127077201Y-91174800I-249999J0D01*
G01*
X126377199Y-91174800D01*
G75*
G02*
X126127200Y-90924801I0J249999D01*
G01*
G37*
%TD*%
%TO.C,R17*%
G36*
G01*
X131956000Y-92956801D02*
X131956000Y-92056799D01*
G75*
G02*
X132205999Y-91806800I249999J0D01*
G01*
X132906001Y-91806800D01*
G75*
G02*
X133156000Y-92056799I0J-249999D01*
G01*
X133156000Y-92956801D01*
G75*
G02*
X132906001Y-93206800I-249999J0D01*
G01*
X132205999Y-93206800D01*
G75*
G02*
X131956000Y-92956801I0J249999D01*
G01*
G37*
G36*
G01*
X129956000Y-92956801D02*
X129956000Y-92056799D01*
G75*
G02*
X130205999Y-91806800I249999J0D01*
G01*
X130906001Y-91806800D01*
G75*
G02*
X131156000Y-92056799I0J-249999D01*
G01*
X131156000Y-92956801D01*
G75*
G02*
X130906001Y-93206800I-249999J0D01*
G01*
X130205999Y-93206800D01*
G75*
G02*
X129956000Y-92956801I0J249999D01*
G01*
G37*
%TD*%
%TO.C,R16*%
G36*
G01*
X111295601Y-72920400D02*
X110395599Y-72920400D01*
G75*
G02*
X110145600Y-72670401I0J249999D01*
G01*
X110145600Y-71970399D01*
G75*
G02*
X110395599Y-71720400I249999J0D01*
G01*
X111295601Y-71720400D01*
G75*
G02*
X111545600Y-71970399I0J-249999D01*
G01*
X111545600Y-72670401D01*
G75*
G02*
X111295601Y-72920400I-249999J0D01*
G01*
G37*
G36*
G01*
X111295601Y-74920400D02*
X110395599Y-74920400D01*
G75*
G02*
X110145600Y-74670401I0J249999D01*
G01*
X110145600Y-73970399D01*
G75*
G02*
X110395599Y-73720400I249999J0D01*
G01*
X111295601Y-73720400D01*
G75*
G02*
X111545600Y-73970399I0J-249999D01*
G01*
X111545600Y-74670401D01*
G75*
G02*
X111295601Y-74920400I-249999J0D01*
G01*
G37*
%TD*%
%TO.C,R15*%
G36*
G01*
X135578001Y-74225200D02*
X134677999Y-74225200D01*
G75*
G02*
X134428000Y-73975201I0J249999D01*
G01*
X134428000Y-73275199D01*
G75*
G02*
X134677999Y-73025200I249999J0D01*
G01*
X135578001Y-73025200D01*
G75*
G02*
X135828000Y-73275199I0J-249999D01*
G01*
X135828000Y-73975201D01*
G75*
G02*
X135578001Y-74225200I-249999J0D01*
G01*
G37*
G36*
G01*
X135578001Y-76225200D02*
X134677999Y-76225200D01*
G75*
G02*
X134428000Y-75975201I0J249999D01*
G01*
X134428000Y-75275199D01*
G75*
G02*
X134677999Y-75025200I249999J0D01*
G01*
X135578001Y-75025200D01*
G75*
G02*
X135828000Y-75275199I0J-249999D01*
G01*
X135828000Y-75975201D01*
G75*
G02*
X135578001Y-76225200I-249999J0D01*
G01*
G37*
%TD*%
%TO.C,R14*%
G36*
G01*
X99507600Y-68891999D02*
X99507600Y-69792001D01*
G75*
G02*
X99257601Y-70042000I-249999J0D01*
G01*
X98557599Y-70042000D01*
G75*
G02*
X98307600Y-69792001I0J249999D01*
G01*
X98307600Y-68891999D01*
G75*
G02*
X98557599Y-68642000I249999J0D01*
G01*
X99257601Y-68642000D01*
G75*
G02*
X99507600Y-68891999I0J-249999D01*
G01*
G37*
G36*
G01*
X101507600Y-68891999D02*
X101507600Y-69792001D01*
G75*
G02*
X101257601Y-70042000I-249999J0D01*
G01*
X100557599Y-70042000D01*
G75*
G02*
X100307600Y-69792001I0J249999D01*
G01*
X100307600Y-68891999D01*
G75*
G02*
X100557599Y-68642000I249999J0D01*
G01*
X101257601Y-68642000D01*
G75*
G02*
X101507600Y-68891999I0J-249999D01*
G01*
G37*
%TD*%
%TO.C,R13*%
G36*
G01*
X96678800Y-93834799D02*
X96678800Y-94734801D01*
G75*
G02*
X96428801Y-94984800I-249999J0D01*
G01*
X95728799Y-94984800D01*
G75*
G02*
X95478800Y-94734801I0J249999D01*
G01*
X95478800Y-93834799D01*
G75*
G02*
X95728799Y-93584800I249999J0D01*
G01*
X96428801Y-93584800D01*
G75*
G02*
X96678800Y-93834799I0J-249999D01*
G01*
G37*
G36*
G01*
X98678800Y-93834799D02*
X98678800Y-94734801D01*
G75*
G02*
X98428801Y-94984800I-249999J0D01*
G01*
X97728799Y-94984800D01*
G75*
G02*
X97478800Y-94734801I0J249999D01*
G01*
X97478800Y-93834799D01*
G75*
G02*
X97728799Y-93584800I249999J0D01*
G01*
X98428801Y-93584800D01*
G75*
G02*
X98678800Y-93834799I0J-249999D01*
G01*
G37*
%TD*%
%TO.C,R12*%
G36*
G01*
X96628000Y-84792399D02*
X96628000Y-85692401D01*
G75*
G02*
X96378001Y-85942400I-249999J0D01*
G01*
X95677999Y-85942400D01*
G75*
G02*
X95428000Y-85692401I0J249999D01*
G01*
X95428000Y-84792399D01*
G75*
G02*
X95677999Y-84542400I249999J0D01*
G01*
X96378001Y-84542400D01*
G75*
G02*
X96628000Y-84792399I0J-249999D01*
G01*
G37*
G36*
G01*
X98628000Y-84792399D02*
X98628000Y-85692401D01*
G75*
G02*
X98378001Y-85942400I-249999J0D01*
G01*
X97677999Y-85942400D01*
G75*
G02*
X97428000Y-85692401I0J249999D01*
G01*
X97428000Y-84792399D01*
G75*
G02*
X97677999Y-84542400I249999J0D01*
G01*
X98378001Y-84542400D01*
G75*
G02*
X98628000Y-84792399I0J-249999D01*
G01*
G37*
%TD*%
%TO.C,R11*%
G36*
G01*
X105552800Y-89211999D02*
X105552800Y-90112001D01*
G75*
G02*
X105302801Y-90362000I-249999J0D01*
G01*
X104602799Y-90362000D01*
G75*
G02*
X104352800Y-90112001I0J249999D01*
G01*
X104352800Y-89211999D01*
G75*
G02*
X104602799Y-88962000I249999J0D01*
G01*
X105302801Y-88962000D01*
G75*
G02*
X105552800Y-89211999I0J-249999D01*
G01*
G37*
G36*
G01*
X107552800Y-89211999D02*
X107552800Y-90112001D01*
G75*
G02*
X107302801Y-90362000I-249999J0D01*
G01*
X106602799Y-90362000D01*
G75*
G02*
X106352800Y-90112001I0J249999D01*
G01*
X106352800Y-89211999D01*
G75*
G02*
X106602799Y-88962000I249999J0D01*
G01*
X107302801Y-88962000D01*
G75*
G02*
X107552800Y-89211999I0J-249999D01*
G01*
G37*
%TD*%
%TO.C,R10*%
G36*
G01*
X106635600Y-76613599D02*
X106635600Y-77513601D01*
G75*
G02*
X106385601Y-77763600I-249999J0D01*
G01*
X105685599Y-77763600D01*
G75*
G02*
X105435600Y-77513601I0J249999D01*
G01*
X105435600Y-76613599D01*
G75*
G02*
X105685599Y-76363600I249999J0D01*
G01*
X106385601Y-76363600D01*
G75*
G02*
X106635600Y-76613599I0J-249999D01*
G01*
G37*
G36*
G01*
X108635600Y-76613599D02*
X108635600Y-77513601D01*
G75*
G02*
X108385601Y-77763600I-249999J0D01*
G01*
X107685599Y-77763600D01*
G75*
G02*
X107435600Y-77513601I0J249999D01*
G01*
X107435600Y-76613599D01*
G75*
G02*
X107685599Y-76363600I249999J0D01*
G01*
X108385601Y-76363600D01*
G75*
G02*
X108635600Y-76613599I0J-249999D01*
G01*
G37*
%TD*%
%TO.C,R8*%
G36*
G01*
X96662800Y-75749999D02*
X96662800Y-76650001D01*
G75*
G02*
X96412801Y-76900000I-249999J0D01*
G01*
X95712799Y-76900000D01*
G75*
G02*
X95462800Y-76650001I0J249999D01*
G01*
X95462800Y-75749999D01*
G75*
G02*
X95712799Y-75500000I249999J0D01*
G01*
X96412801Y-75500000D01*
G75*
G02*
X96662800Y-75749999I0J-249999D01*
G01*
G37*
G36*
G01*
X98662800Y-75749999D02*
X98662800Y-76650001D01*
G75*
G02*
X98412801Y-76900000I-249999J0D01*
G01*
X97712799Y-76900000D01*
G75*
G02*
X97462800Y-76650001I0J249999D01*
G01*
X97462800Y-75749999D01*
G75*
G02*
X97712799Y-75500000I249999J0D01*
G01*
X98412801Y-75500000D01*
G75*
G02*
X98662800Y-75749999I0J-249999D01*
G01*
G37*
%TD*%
%TO.C,R7*%
G36*
G01*
X96561200Y-89313599D02*
X96561200Y-90213601D01*
G75*
G02*
X96311201Y-90463600I-249999J0D01*
G01*
X95611199Y-90463600D01*
G75*
G02*
X95361200Y-90213601I0J249999D01*
G01*
X95361200Y-89313599D01*
G75*
G02*
X95611199Y-89063600I249999J0D01*
G01*
X96311201Y-89063600D01*
G75*
G02*
X96561200Y-89313599I0J-249999D01*
G01*
G37*
G36*
G01*
X98561200Y-89313599D02*
X98561200Y-90213601D01*
G75*
G02*
X98311201Y-90463600I-249999J0D01*
G01*
X97611199Y-90463600D01*
G75*
G02*
X97361200Y-90213601I0J249999D01*
G01*
X97361200Y-89313599D01*
G75*
G02*
X97611199Y-89063600I249999J0D01*
G01*
X98311201Y-89063600D01*
G75*
G02*
X98561200Y-89313599I0J-249999D01*
G01*
G37*
%TD*%
%TO.C,R5*%
G36*
G01*
X96628000Y-80220399D02*
X96628000Y-81120401D01*
G75*
G02*
X96378001Y-81370400I-249999J0D01*
G01*
X95677999Y-81370400D01*
G75*
G02*
X95428000Y-81120401I0J249999D01*
G01*
X95428000Y-80220399D01*
G75*
G02*
X95677999Y-79970400I249999J0D01*
G01*
X96378001Y-79970400D01*
G75*
G02*
X96628000Y-80220399I0J-249999D01*
G01*
G37*
G36*
G01*
X98628000Y-80220399D02*
X98628000Y-81120401D01*
G75*
G02*
X98378001Y-81370400I-249999J0D01*
G01*
X97677999Y-81370400D01*
G75*
G02*
X97428000Y-81120401I0J249999D01*
G01*
X97428000Y-80220399D01*
G75*
G02*
X97677999Y-79970400I249999J0D01*
G01*
X98378001Y-79970400D01*
G75*
G02*
X98628000Y-80220399I0J-249999D01*
G01*
G37*
%TD*%
%TO.C,R3*%
G36*
G01*
X106026000Y-79509199D02*
X106026000Y-80409201D01*
G75*
G02*
X105776001Y-80659200I-249999J0D01*
G01*
X105075999Y-80659200D01*
G75*
G02*
X104826000Y-80409201I0J249999D01*
G01*
X104826000Y-79509199D01*
G75*
G02*
X105075999Y-79259200I249999J0D01*
G01*
X105776001Y-79259200D01*
G75*
G02*
X106026000Y-79509199I0J-249999D01*
G01*
G37*
G36*
G01*
X108026000Y-79509199D02*
X108026000Y-80409201D01*
G75*
G02*
X107776001Y-80659200I-249999J0D01*
G01*
X107075999Y-80659200D01*
G75*
G02*
X106826000Y-80409201I0J249999D01*
G01*
X106826000Y-79509199D01*
G75*
G02*
X107075999Y-79259200I249999J0D01*
G01*
X107776001Y-79259200D01*
G75*
G02*
X108026000Y-79509199I0J-249999D01*
G01*
G37*
%TD*%
%TO.C,R2*%
G36*
G01*
X96678800Y-71127199D02*
X96678800Y-72027201D01*
G75*
G02*
X96428801Y-72277200I-249999J0D01*
G01*
X95728799Y-72277200D01*
G75*
G02*
X95478800Y-72027201I0J249999D01*
G01*
X95478800Y-71127199D01*
G75*
G02*
X95728799Y-70877200I249999J0D01*
G01*
X96428801Y-70877200D01*
G75*
G02*
X96678800Y-71127199I0J-249999D01*
G01*
G37*
G36*
G01*
X98678800Y-71127199D02*
X98678800Y-72027201D01*
G75*
G02*
X98428801Y-72277200I-249999J0D01*
G01*
X97728799Y-72277200D01*
G75*
G02*
X97478800Y-72027201I0J249999D01*
G01*
X97478800Y-71127199D01*
G75*
G02*
X97728799Y-70877200I249999J0D01*
G01*
X98428801Y-70877200D01*
G75*
G02*
X98678800Y-71127199I0J-249999D01*
G01*
G37*
%TD*%
%TO.C,C12*%
G36*
G01*
X124376200Y-99372000D02*
X123426200Y-99372000D01*
G75*
G02*
X123176200Y-99122000I0J250000D01*
G01*
X123176200Y-98447000D01*
G75*
G02*
X123426200Y-98197000I250000J0D01*
G01*
X124376200Y-98197000D01*
G75*
G02*
X124626200Y-98447000I0J-250000D01*
G01*
X124626200Y-99122000D01*
G75*
G02*
X124376200Y-99372000I-250000J0D01*
G01*
G37*
G36*
G01*
X124376200Y-101447000D02*
X123426200Y-101447000D01*
G75*
G02*
X123176200Y-101197000I0J250000D01*
G01*
X123176200Y-100522000D01*
G75*
G02*
X123426200Y-100272000I250000J0D01*
G01*
X124376200Y-100272000D01*
G75*
G02*
X124626200Y-100522000I0J-250000D01*
G01*
X124626200Y-101197000D01*
G75*
G02*
X124376200Y-101447000I-250000J0D01*
G01*
G37*
%TD*%
%TO.C,C11*%
G36*
G01*
X128436700Y-80688200D02*
X128436700Y-79738200D01*
G75*
G02*
X128686700Y-79488200I250000J0D01*
G01*
X129361700Y-79488200D01*
G75*
G02*
X129611700Y-79738200I0J-250000D01*
G01*
X129611700Y-80688200D01*
G75*
G02*
X129361700Y-80938200I-250000J0D01*
G01*
X128686700Y-80938200D01*
G75*
G02*
X128436700Y-80688200I0J250000D01*
G01*
G37*
G36*
G01*
X126361700Y-80688200D02*
X126361700Y-79738200D01*
G75*
G02*
X126611700Y-79488200I250000J0D01*
G01*
X127286700Y-79488200D01*
G75*
G02*
X127536700Y-79738200I0J-250000D01*
G01*
X127536700Y-80688200D01*
G75*
G02*
X127286700Y-80938200I-250000J0D01*
G01*
X126611700Y-80938200D01*
G75*
G02*
X126361700Y-80688200I0J250000D01*
G01*
G37*
%TD*%
%TO.C,C10*%
G36*
G01*
X128161200Y-92981800D02*
X128161200Y-92031800D01*
G75*
G02*
X128411200Y-91781800I250000J0D01*
G01*
X129086200Y-91781800D01*
G75*
G02*
X129336200Y-92031800I0J-250000D01*
G01*
X129336200Y-92981800D01*
G75*
G02*
X129086200Y-93231800I-250000J0D01*
G01*
X128411200Y-93231800D01*
G75*
G02*
X128161200Y-92981800I0J250000D01*
G01*
G37*
G36*
G01*
X126086200Y-92981800D02*
X126086200Y-92031800D01*
G75*
G02*
X126336200Y-91781800I250000J0D01*
G01*
X127011200Y-91781800D01*
G75*
G02*
X127261200Y-92031800I0J-250000D01*
G01*
X127261200Y-92981800D01*
G75*
G02*
X127011200Y-93231800I-250000J0D01*
G01*
X126336200Y-93231800D01*
G75*
G02*
X126086200Y-92981800I0J250000D01*
G01*
G37*
%TD*%
%TO.C,C9*%
G36*
G01*
X133586200Y-83638900D02*
X134536200Y-83638900D01*
G75*
G02*
X134786200Y-83888900I0J-250000D01*
G01*
X134786200Y-84563900D01*
G75*
G02*
X134536200Y-84813900I-250000J0D01*
G01*
X133586200Y-84813900D01*
G75*
G02*
X133336200Y-84563900I0J250000D01*
G01*
X133336200Y-83888900D01*
G75*
G02*
X133586200Y-83638900I250000J0D01*
G01*
G37*
G36*
G01*
X133586200Y-81563900D02*
X134536200Y-81563900D01*
G75*
G02*
X134786200Y-81813900I0J-250000D01*
G01*
X134786200Y-82488900D01*
G75*
G02*
X134536200Y-82738900I-250000J0D01*
G01*
X133586200Y-82738900D01*
G75*
G02*
X133336200Y-82488900I0J250000D01*
G01*
X133336200Y-81813900D01*
G75*
G02*
X133586200Y-81563900I250000J0D01*
G01*
G37*
%TD*%
%TO.C,C8*%
G36*
G01*
X121445000Y-100445900D02*
X122395000Y-100445900D01*
G75*
G02*
X122645000Y-100695900I0J-250000D01*
G01*
X122645000Y-101370900D01*
G75*
G02*
X122395000Y-101620900I-250000J0D01*
G01*
X121445000Y-101620900D01*
G75*
G02*
X121195000Y-101370900I0J250000D01*
G01*
X121195000Y-100695900D01*
G75*
G02*
X121445000Y-100445900I250000J0D01*
G01*
G37*
G36*
G01*
X121445000Y-98370900D02*
X122395000Y-98370900D01*
G75*
G02*
X122645000Y-98620900I0J-250000D01*
G01*
X122645000Y-99295900D01*
G75*
G02*
X122395000Y-99545900I-250000J0D01*
G01*
X121445000Y-99545900D01*
G75*
G02*
X121195000Y-99295900I0J250000D01*
G01*
X121195000Y-98620900D01*
G75*
G02*
X121445000Y-98370900I250000J0D01*
G01*
G37*
%TD*%
%TO.C,C7*%
G36*
G01*
X109288600Y-69835700D02*
X108338600Y-69835700D01*
G75*
G02*
X108088600Y-69585700I0J250000D01*
G01*
X108088600Y-68910700D01*
G75*
G02*
X108338600Y-68660700I250000J0D01*
G01*
X109288600Y-68660700D01*
G75*
G02*
X109538600Y-68910700I0J-250000D01*
G01*
X109538600Y-69585700D01*
G75*
G02*
X109288600Y-69835700I-250000J0D01*
G01*
G37*
G36*
G01*
X109288600Y-71910700D02*
X108338600Y-71910700D01*
G75*
G02*
X108088600Y-71660700I0J250000D01*
G01*
X108088600Y-70985700D01*
G75*
G02*
X108338600Y-70735700I250000J0D01*
G01*
X109288600Y-70735700D01*
G75*
G02*
X109538600Y-70985700I0J-250000D01*
G01*
X109538600Y-71660700D01*
G75*
G02*
X109288600Y-71910700I-250000J0D01*
G01*
G37*
%TD*%
%TO.C,C6*%
G36*
G01*
X142787600Y-106569600D02*
X142787600Y-105469600D01*
G75*
G02*
X143037600Y-105219600I250000J0D01*
G01*
X145537600Y-105219600D01*
G75*
G02*
X145787600Y-105469600I0J-250000D01*
G01*
X145787600Y-106569600D01*
G75*
G02*
X145537600Y-106819600I-250000J0D01*
G01*
X143037600Y-106819600D01*
G75*
G02*
X142787600Y-106569600I0J250000D01*
G01*
G37*
G36*
G01*
X138387600Y-106569600D02*
X138387600Y-105469600D01*
G75*
G02*
X138637600Y-105219600I250000J0D01*
G01*
X141137600Y-105219600D01*
G75*
G02*
X141387600Y-105469600I0J-250000D01*
G01*
X141387600Y-106569600D01*
G75*
G02*
X141137600Y-106819600I-250000J0D01*
G01*
X138637600Y-106819600D01*
G75*
G02*
X138387600Y-106569600I0J250000D01*
G01*
G37*
%TD*%
%TO.C,C5*%
G36*
G01*
X105697000Y-70757200D02*
X106647000Y-70757200D01*
G75*
G02*
X106897000Y-71007200I0J-250000D01*
G01*
X106897000Y-71682200D01*
G75*
G02*
X106647000Y-71932200I-250000J0D01*
G01*
X105697000Y-71932200D01*
G75*
G02*
X105447000Y-71682200I0J250000D01*
G01*
X105447000Y-71007200D01*
G75*
G02*
X105697000Y-70757200I250000J0D01*
G01*
G37*
G36*
G01*
X105697000Y-68682200D02*
X106647000Y-68682200D01*
G75*
G02*
X106897000Y-68932200I0J-250000D01*
G01*
X106897000Y-69607200D01*
G75*
G02*
X106647000Y-69857200I-250000J0D01*
G01*
X105697000Y-69857200D01*
G75*
G02*
X105447000Y-69607200I0J250000D01*
G01*
X105447000Y-68932200D01*
G75*
G02*
X105697000Y-68682200I250000J0D01*
G01*
G37*
%TD*%
%TO.C,C4*%
G36*
G01*
X133825000Y-95003200D02*
X132875000Y-95003200D01*
G75*
G02*
X132625000Y-94753200I0J250000D01*
G01*
X132625000Y-94078200D01*
G75*
G02*
X132875000Y-93828200I250000J0D01*
G01*
X133825000Y-93828200D01*
G75*
G02*
X134075000Y-94078200I0J-250000D01*
G01*
X134075000Y-94753200D01*
G75*
G02*
X133825000Y-95003200I-250000J0D01*
G01*
G37*
G36*
G01*
X133825000Y-97078200D02*
X132875000Y-97078200D01*
G75*
G02*
X132625000Y-96828200I0J250000D01*
G01*
X132625000Y-96153200D01*
G75*
G02*
X132875000Y-95903200I250000J0D01*
G01*
X133825000Y-95903200D01*
G75*
G02*
X134075000Y-96153200I0J-250000D01*
G01*
X134075000Y-96828200D01*
G75*
G02*
X133825000Y-97078200I-250000J0D01*
G01*
G37*
%TD*%
%TO.C,C3*%
G36*
G01*
X107608700Y-94963000D02*
X107608700Y-94013000D01*
G75*
G02*
X107858700Y-93763000I250000J0D01*
G01*
X108533700Y-93763000D01*
G75*
G02*
X108783700Y-94013000I0J-250000D01*
G01*
X108783700Y-94963000D01*
G75*
G02*
X108533700Y-95213000I-250000J0D01*
G01*
X107858700Y-95213000D01*
G75*
G02*
X107608700Y-94963000I0J250000D01*
G01*
G37*
G36*
G01*
X105533700Y-94963000D02*
X105533700Y-94013000D01*
G75*
G02*
X105783700Y-93763000I250000J0D01*
G01*
X106458700Y-93763000D01*
G75*
G02*
X106708700Y-94013000I0J-250000D01*
G01*
X106708700Y-94963000D01*
G75*
G02*
X106458700Y-95213000I-250000J0D01*
G01*
X105783700Y-95213000D01*
G75*
G02*
X105533700Y-94963000I0J250000D01*
G01*
G37*
%TD*%
%TO.C,C2*%
G36*
G01*
X142098800Y-99526000D02*
X142098800Y-100626000D01*
G75*
G02*
X141848800Y-100876000I-250000J0D01*
G01*
X139348800Y-100876000D01*
G75*
G02*
X139098800Y-100626000I0J250000D01*
G01*
X139098800Y-99526000D01*
G75*
G02*
X139348800Y-99276000I250000J0D01*
G01*
X141848800Y-99276000D01*
G75*
G02*
X142098800Y-99526000I0J-250000D01*
G01*
G37*
G36*
G01*
X146498800Y-99526000D02*
X146498800Y-100626000D01*
G75*
G02*
X146248800Y-100876000I-250000J0D01*
G01*
X143748800Y-100876000D01*
G75*
G02*
X143498800Y-100626000I0J250000D01*
G01*
X143498800Y-99526000D01*
G75*
G02*
X143748800Y-99276000I250000J0D01*
G01*
X146248800Y-99276000D01*
G75*
G02*
X146498800Y-99526000I0J-250000D01*
G01*
G37*
%TD*%
%TO.C,C1*%
G36*
G01*
X102064400Y-79484200D02*
X102064400Y-80434200D01*
G75*
G02*
X101814400Y-80684200I-250000J0D01*
G01*
X101139400Y-80684200D01*
G75*
G02*
X100889400Y-80434200I0J250000D01*
G01*
X100889400Y-79484200D01*
G75*
G02*
X101139400Y-79234200I250000J0D01*
G01*
X101814400Y-79234200D01*
G75*
G02*
X102064400Y-79484200I0J-250000D01*
G01*
G37*
G36*
G01*
X104139400Y-79484200D02*
X104139400Y-80434200D01*
G75*
G02*
X103889400Y-80684200I-250000J0D01*
G01*
X103214400Y-80684200D01*
G75*
G02*
X102964400Y-80434200I0J250000D01*
G01*
X102964400Y-79484200D01*
G75*
G02*
X103214400Y-79234200I250000J0D01*
G01*
X103889400Y-79234200D01*
G75*
G02*
X104139400Y-79484200I0J-250000D01*
G01*
G37*
%TD*%
%TO.C,U1*%
G36*
G01*
X104117000Y-75871200D02*
X104417000Y-75871200D01*
G75*
G02*
X104567000Y-76021200I0J-150000D01*
G01*
X104567000Y-77671200D01*
G75*
G02*
X104417000Y-77821200I-150000J0D01*
G01*
X104117000Y-77821200D01*
G75*
G02*
X103967000Y-77671200I0J150000D01*
G01*
X103967000Y-76021200D01*
G75*
G02*
X104117000Y-75871200I150000J0D01*
G01*
G37*
G36*
G01*
X102847000Y-75871200D02*
X103147000Y-75871200D01*
G75*
G02*
X103297000Y-76021200I0J-150000D01*
G01*
X103297000Y-77671200D01*
G75*
G02*
X103147000Y-77821200I-150000J0D01*
G01*
X102847000Y-77821200D01*
G75*
G02*
X102697000Y-77671200I0J150000D01*
G01*
X102697000Y-76021200D01*
G75*
G02*
X102847000Y-75871200I150000J0D01*
G01*
G37*
G36*
G01*
X101577000Y-75871200D02*
X101877000Y-75871200D01*
G75*
G02*
X102027000Y-76021200I0J-150000D01*
G01*
X102027000Y-77671200D01*
G75*
G02*
X101877000Y-77821200I-150000J0D01*
G01*
X101577000Y-77821200D01*
G75*
G02*
X101427000Y-77671200I0J150000D01*
G01*
X101427000Y-76021200D01*
G75*
G02*
X101577000Y-75871200I150000J0D01*
G01*
G37*
G36*
G01*
X100307000Y-75871200D02*
X100607000Y-75871200D01*
G75*
G02*
X100757000Y-76021200I0J-150000D01*
G01*
X100757000Y-77671200D01*
G75*
G02*
X100607000Y-77821200I-150000J0D01*
G01*
X100307000Y-77821200D01*
G75*
G02*
X100157000Y-77671200I0J150000D01*
G01*
X100157000Y-76021200D01*
G75*
G02*
X100307000Y-75871200I150000J0D01*
G01*
G37*
G36*
G01*
X100307000Y-70921200D02*
X100607000Y-70921200D01*
G75*
G02*
X100757000Y-71071200I0J-150000D01*
G01*
X100757000Y-72721200D01*
G75*
G02*
X100607000Y-72871200I-150000J0D01*
G01*
X100307000Y-72871200D01*
G75*
G02*
X100157000Y-72721200I0J150000D01*
G01*
X100157000Y-71071200D01*
G75*
G02*
X100307000Y-70921200I150000J0D01*
G01*
G37*
G36*
G01*
X101577000Y-70921200D02*
X101877000Y-70921200D01*
G75*
G02*
X102027000Y-71071200I0J-150000D01*
G01*
X102027000Y-72721200D01*
G75*
G02*
X101877000Y-72871200I-150000J0D01*
G01*
X101577000Y-72871200D01*
G75*
G02*
X101427000Y-72721200I0J150000D01*
G01*
X101427000Y-71071200D01*
G75*
G02*
X101577000Y-70921200I150000J0D01*
G01*
G37*
G36*
G01*
X102847000Y-70921200D02*
X103147000Y-70921200D01*
G75*
G02*
X103297000Y-71071200I0J-150000D01*
G01*
X103297000Y-72721200D01*
G75*
G02*
X103147000Y-72871200I-150000J0D01*
G01*
X102847000Y-72871200D01*
G75*
G02*
X102697000Y-72721200I0J150000D01*
G01*
X102697000Y-71071200D01*
G75*
G02*
X102847000Y-70921200I150000J0D01*
G01*
G37*
G36*
G01*
X104117000Y-70921200D02*
X104417000Y-70921200D01*
G75*
G02*
X104567000Y-71071200I0J-150000D01*
G01*
X104567000Y-72721200D01*
G75*
G02*
X104417000Y-72871200I-150000J0D01*
G01*
X104117000Y-72871200D01*
G75*
G02*
X103967000Y-72721200I0J150000D01*
G01*
X103967000Y-71071200D01*
G75*
G02*
X104117000Y-70921200I150000J0D01*
G01*
G37*
%TD*%
%TO.C,U2*%
G36*
G01*
X126540400Y-73619000D02*
X126240400Y-73619000D01*
G75*
G02*
X126090400Y-73469000I0J150000D01*
G01*
X126090400Y-71819000D01*
G75*
G02*
X126240400Y-71669000I150000J0D01*
G01*
X126540400Y-71669000D01*
G75*
G02*
X126690400Y-71819000I0J-150000D01*
G01*
X126690400Y-73469000D01*
G75*
G02*
X126540400Y-73619000I-150000J0D01*
G01*
G37*
G36*
G01*
X127810400Y-73619000D02*
X127510400Y-73619000D01*
G75*
G02*
X127360400Y-73469000I0J150000D01*
G01*
X127360400Y-71819000D01*
G75*
G02*
X127510400Y-71669000I150000J0D01*
G01*
X127810400Y-71669000D01*
G75*
G02*
X127960400Y-71819000I0J-150000D01*
G01*
X127960400Y-73469000D01*
G75*
G02*
X127810400Y-73619000I-150000J0D01*
G01*
G37*
G36*
G01*
X129080400Y-73619000D02*
X128780400Y-73619000D01*
G75*
G02*
X128630400Y-73469000I0J150000D01*
G01*
X128630400Y-71819000D01*
G75*
G02*
X128780400Y-71669000I150000J0D01*
G01*
X129080400Y-71669000D01*
G75*
G02*
X129230400Y-71819000I0J-150000D01*
G01*
X129230400Y-73469000D01*
G75*
G02*
X129080400Y-73619000I-150000J0D01*
G01*
G37*
G36*
G01*
X130350400Y-73619000D02*
X130050400Y-73619000D01*
G75*
G02*
X129900400Y-73469000I0J150000D01*
G01*
X129900400Y-71819000D01*
G75*
G02*
X130050400Y-71669000I150000J0D01*
G01*
X130350400Y-71669000D01*
G75*
G02*
X130500400Y-71819000I0J-150000D01*
G01*
X130500400Y-73469000D01*
G75*
G02*
X130350400Y-73619000I-150000J0D01*
G01*
G37*
G36*
G01*
X130350400Y-78569000D02*
X130050400Y-78569000D01*
G75*
G02*
X129900400Y-78419000I0J150000D01*
G01*
X129900400Y-76769000D01*
G75*
G02*
X130050400Y-76619000I150000J0D01*
G01*
X130350400Y-76619000D01*
G75*
G02*
X130500400Y-76769000I0J-150000D01*
G01*
X130500400Y-78419000D01*
G75*
G02*
X130350400Y-78569000I-150000J0D01*
G01*
G37*
G36*
G01*
X129080400Y-78569000D02*
X128780400Y-78569000D01*
G75*
G02*
X128630400Y-78419000I0J150000D01*
G01*
X128630400Y-76769000D01*
G75*
G02*
X128780400Y-76619000I150000J0D01*
G01*
X129080400Y-76619000D01*
G75*
G02*
X129230400Y-76769000I0J-150000D01*
G01*
X129230400Y-78419000D01*
G75*
G02*
X129080400Y-78569000I-150000J0D01*
G01*
G37*
G36*
G01*
X127810400Y-78569000D02*
X127510400Y-78569000D01*
G75*
G02*
X127360400Y-78419000I0J150000D01*
G01*
X127360400Y-76769000D01*
G75*
G02*
X127510400Y-76619000I150000J0D01*
G01*
X127810400Y-76619000D01*
G75*
G02*
X127960400Y-76769000I0J-150000D01*
G01*
X127960400Y-78419000D01*
G75*
G02*
X127810400Y-78569000I-150000J0D01*
G01*
G37*
G36*
G01*
X126540400Y-78569000D02*
X126240400Y-78569000D01*
G75*
G02*
X126090400Y-78419000I0J150000D01*
G01*
X126090400Y-76769000D01*
G75*
G02*
X126240400Y-76619000I150000J0D01*
G01*
X126540400Y-76619000D01*
G75*
G02*
X126690400Y-76769000I0J-150000D01*
G01*
X126690400Y-78419000D01*
G75*
G02*
X126540400Y-78569000I-150000J0D01*
G01*
G37*
%TD*%
%TO.C,U4*%
G36*
G01*
X126718200Y-88743200D02*
X126418200Y-88743200D01*
G75*
G02*
X126268200Y-88593200I0J150000D01*
G01*
X126268200Y-86943200D01*
G75*
G02*
X126418200Y-86793200I150000J0D01*
G01*
X126718200Y-86793200D01*
G75*
G02*
X126868200Y-86943200I0J-150000D01*
G01*
X126868200Y-88593200D01*
G75*
G02*
X126718200Y-88743200I-150000J0D01*
G01*
G37*
G36*
G01*
X127988200Y-88743200D02*
X127688200Y-88743200D01*
G75*
G02*
X127538200Y-88593200I0J150000D01*
G01*
X127538200Y-86943200D01*
G75*
G02*
X127688200Y-86793200I150000J0D01*
G01*
X127988200Y-86793200D01*
G75*
G02*
X128138200Y-86943200I0J-150000D01*
G01*
X128138200Y-88593200D01*
G75*
G02*
X127988200Y-88743200I-150000J0D01*
G01*
G37*
G36*
G01*
X129258200Y-88743200D02*
X128958200Y-88743200D01*
G75*
G02*
X128808200Y-88593200I0J150000D01*
G01*
X128808200Y-86943200D01*
G75*
G02*
X128958200Y-86793200I150000J0D01*
G01*
X129258200Y-86793200D01*
G75*
G02*
X129408200Y-86943200I0J-150000D01*
G01*
X129408200Y-88593200D01*
G75*
G02*
X129258200Y-88743200I-150000J0D01*
G01*
G37*
G36*
G01*
X130528200Y-88743200D02*
X130228200Y-88743200D01*
G75*
G02*
X130078200Y-88593200I0J150000D01*
G01*
X130078200Y-86943200D01*
G75*
G02*
X130228200Y-86793200I150000J0D01*
G01*
X130528200Y-86793200D01*
G75*
G02*
X130678200Y-86943200I0J-150000D01*
G01*
X130678200Y-88593200D01*
G75*
G02*
X130528200Y-88743200I-150000J0D01*
G01*
G37*
G36*
G01*
X130528200Y-83793200D02*
X130228200Y-83793200D01*
G75*
G02*
X130078200Y-83643200I0J150000D01*
G01*
X130078200Y-81993200D01*
G75*
G02*
X130228200Y-81843200I150000J0D01*
G01*
X130528200Y-81843200D01*
G75*
G02*
X130678200Y-81993200I0J-150000D01*
G01*
X130678200Y-83643200D01*
G75*
G02*
X130528200Y-83793200I-150000J0D01*
G01*
G37*
G36*
G01*
X129258200Y-83793200D02*
X128958200Y-83793200D01*
G75*
G02*
X128808200Y-83643200I0J150000D01*
G01*
X128808200Y-81993200D01*
G75*
G02*
X128958200Y-81843200I150000J0D01*
G01*
X129258200Y-81843200D01*
G75*
G02*
X129408200Y-81993200I0J-150000D01*
G01*
X129408200Y-83643200D01*
G75*
G02*
X129258200Y-83793200I-150000J0D01*
G01*
G37*
G36*
G01*
X127988200Y-83793200D02*
X127688200Y-83793200D01*
G75*
G02*
X127538200Y-83643200I0J150000D01*
G01*
X127538200Y-81993200D01*
G75*
G02*
X127688200Y-81843200I150000J0D01*
G01*
X127988200Y-81843200D01*
G75*
G02*
X128138200Y-81993200I0J-150000D01*
G01*
X128138200Y-83643200D01*
G75*
G02*
X127988200Y-83793200I-150000J0D01*
G01*
G37*
G36*
G01*
X126718200Y-83793200D02*
X126418200Y-83793200D01*
G75*
G02*
X126268200Y-83643200I0J150000D01*
G01*
X126268200Y-81993200D01*
G75*
G02*
X126418200Y-81843200I150000J0D01*
G01*
X126718200Y-81843200D01*
G75*
G02*
X126868200Y-81993200I0J-150000D01*
G01*
X126868200Y-83643200D01*
G75*
G02*
X126718200Y-83793200I-150000J0D01*
G01*
G37*
%TD*%
%TO.C,U5*%
G36*
G01*
X114475400Y-105608800D02*
X114175400Y-105608800D01*
G75*
G02*
X114025400Y-105458800I0J150000D01*
G01*
X114025400Y-103808800D01*
G75*
G02*
X114175400Y-103658800I150000J0D01*
G01*
X114475400Y-103658800D01*
G75*
G02*
X114625400Y-103808800I0J-150000D01*
G01*
X114625400Y-105458800D01*
G75*
G02*
X114475400Y-105608800I-150000J0D01*
G01*
G37*
G36*
G01*
X115745400Y-105608800D02*
X115445400Y-105608800D01*
G75*
G02*
X115295400Y-105458800I0J150000D01*
G01*
X115295400Y-103808800D01*
G75*
G02*
X115445400Y-103658800I150000J0D01*
G01*
X115745400Y-103658800D01*
G75*
G02*
X115895400Y-103808800I0J-150000D01*
G01*
X115895400Y-105458800D01*
G75*
G02*
X115745400Y-105608800I-150000J0D01*
G01*
G37*
G36*
G01*
X117015400Y-105608800D02*
X116715400Y-105608800D01*
G75*
G02*
X116565400Y-105458800I0J150000D01*
G01*
X116565400Y-103808800D01*
G75*
G02*
X116715400Y-103658800I150000J0D01*
G01*
X117015400Y-103658800D01*
G75*
G02*
X117165400Y-103808800I0J-150000D01*
G01*
X117165400Y-105458800D01*
G75*
G02*
X117015400Y-105608800I-150000J0D01*
G01*
G37*
G36*
G01*
X118285400Y-105608800D02*
X117985400Y-105608800D01*
G75*
G02*
X117835400Y-105458800I0J150000D01*
G01*
X117835400Y-103808800D01*
G75*
G02*
X117985400Y-103658800I150000J0D01*
G01*
X118285400Y-103658800D01*
G75*
G02*
X118435400Y-103808800I0J-150000D01*
G01*
X118435400Y-105458800D01*
G75*
G02*
X118285400Y-105608800I-150000J0D01*
G01*
G37*
G36*
G01*
X118285400Y-100658800D02*
X117985400Y-100658800D01*
G75*
G02*
X117835400Y-100508800I0J150000D01*
G01*
X117835400Y-98858800D01*
G75*
G02*
X117985400Y-98708800I150000J0D01*
G01*
X118285400Y-98708800D01*
G75*
G02*
X118435400Y-98858800I0J-150000D01*
G01*
X118435400Y-100508800D01*
G75*
G02*
X118285400Y-100658800I-150000J0D01*
G01*
G37*
G36*
G01*
X117015400Y-100658800D02*
X116715400Y-100658800D01*
G75*
G02*
X116565400Y-100508800I0J150000D01*
G01*
X116565400Y-98858800D01*
G75*
G02*
X116715400Y-98708800I150000J0D01*
G01*
X117015400Y-98708800D01*
G75*
G02*
X117165400Y-98858800I0J-150000D01*
G01*
X117165400Y-100508800D01*
G75*
G02*
X117015400Y-100658800I-150000J0D01*
G01*
G37*
G36*
G01*
X115745400Y-100658800D02*
X115445400Y-100658800D01*
G75*
G02*
X115295400Y-100508800I0J150000D01*
G01*
X115295400Y-98858800D01*
G75*
G02*
X115445400Y-98708800I150000J0D01*
G01*
X115745400Y-98708800D01*
G75*
G02*
X115895400Y-98858800I0J-150000D01*
G01*
X115895400Y-100508800D01*
G75*
G02*
X115745400Y-100658800I-150000J0D01*
G01*
G37*
G36*
G01*
X114475400Y-100658800D02*
X114175400Y-100658800D01*
G75*
G02*
X114025400Y-100508800I0J150000D01*
G01*
X114025400Y-98858800D01*
G75*
G02*
X114175400Y-98708800I150000J0D01*
G01*
X114475400Y-98708800D01*
G75*
G02*
X114625400Y-98858800I0J-150000D01*
G01*
X114625400Y-100508800D01*
G75*
G02*
X114475400Y-100658800I-150000J0D01*
G01*
G37*
%TD*%
%TO.C,U6*%
G36*
G01*
X127309200Y-99337000D02*
X127309200Y-99037000D01*
G75*
G02*
X127459200Y-98887000I150000J0D01*
G01*
X129109200Y-98887000D01*
G75*
G02*
X129259200Y-99037000I0J-150000D01*
G01*
X129259200Y-99337000D01*
G75*
G02*
X129109200Y-99487000I-150000J0D01*
G01*
X127459200Y-99487000D01*
G75*
G02*
X127309200Y-99337000I0J150000D01*
G01*
G37*
G36*
G01*
X127309200Y-100607000D02*
X127309200Y-100307000D01*
G75*
G02*
X127459200Y-100157000I150000J0D01*
G01*
X129109200Y-100157000D01*
G75*
G02*
X129259200Y-100307000I0J-150000D01*
G01*
X129259200Y-100607000D01*
G75*
G02*
X129109200Y-100757000I-150000J0D01*
G01*
X127459200Y-100757000D01*
G75*
G02*
X127309200Y-100607000I0J150000D01*
G01*
G37*
G36*
G01*
X127309200Y-101877000D02*
X127309200Y-101577000D01*
G75*
G02*
X127459200Y-101427000I150000J0D01*
G01*
X129109200Y-101427000D01*
G75*
G02*
X129259200Y-101577000I0J-150000D01*
G01*
X129259200Y-101877000D01*
G75*
G02*
X129109200Y-102027000I-150000J0D01*
G01*
X127459200Y-102027000D01*
G75*
G02*
X127309200Y-101877000I0J150000D01*
G01*
G37*
G36*
G01*
X127309200Y-103147000D02*
X127309200Y-102847000D01*
G75*
G02*
X127459200Y-102697000I150000J0D01*
G01*
X129109200Y-102697000D01*
G75*
G02*
X129259200Y-102847000I0J-150000D01*
G01*
X129259200Y-103147000D01*
G75*
G02*
X129109200Y-103297000I-150000J0D01*
G01*
X127459200Y-103297000D01*
G75*
G02*
X127309200Y-103147000I0J150000D01*
G01*
G37*
G36*
G01*
X132259200Y-103147000D02*
X132259200Y-102847000D01*
G75*
G02*
X132409200Y-102697000I150000J0D01*
G01*
X134059200Y-102697000D01*
G75*
G02*
X134209200Y-102847000I0J-150000D01*
G01*
X134209200Y-103147000D01*
G75*
G02*
X134059200Y-103297000I-150000J0D01*
G01*
X132409200Y-103297000D01*
G75*
G02*
X132259200Y-103147000I0J150000D01*
G01*
G37*
G36*
G01*
X132259200Y-101877000D02*
X132259200Y-101577000D01*
G75*
G02*
X132409200Y-101427000I150000J0D01*
G01*
X134059200Y-101427000D01*
G75*
G02*
X134209200Y-101577000I0J-150000D01*
G01*
X134209200Y-101877000D01*
G75*
G02*
X134059200Y-102027000I-150000J0D01*
G01*
X132409200Y-102027000D01*
G75*
G02*
X132259200Y-101877000I0J150000D01*
G01*
G37*
G36*
G01*
X132259200Y-100607000D02*
X132259200Y-100307000D01*
G75*
G02*
X132409200Y-100157000I150000J0D01*
G01*
X134059200Y-100157000D01*
G75*
G02*
X134209200Y-100307000I0J-150000D01*
G01*
X134209200Y-100607000D01*
G75*
G02*
X134059200Y-100757000I-150000J0D01*
G01*
X132409200Y-100757000D01*
G75*
G02*
X132259200Y-100607000I0J150000D01*
G01*
G37*
G36*
G01*
X132259200Y-99337000D02*
X132259200Y-99037000D01*
G75*
G02*
X132409200Y-98887000I150000J0D01*
G01*
X134059200Y-98887000D01*
G75*
G02*
X134209200Y-99037000I0J-150000D01*
G01*
X134209200Y-99337000D01*
G75*
G02*
X134059200Y-99487000I-150000J0D01*
G01*
X132409200Y-99487000D01*
G75*
G02*
X132259200Y-99337000I0J150000D01*
G01*
G37*
%TD*%
D10*
%TO.C,D1*%
X124550000Y-88250000D03*
X121750000Y-88250000D03*
%TD*%
%TO.C,D2*%
X124460000Y-90760000D03*
X121660000Y-90760000D03*
%TD*%
M02*
