%TF.GenerationSoftware,KiCad,Pcbnew,(5.1.10)-1*%
%TF.CreationDate,2021-07-01T15:47:13-04:00*%
%TF.ProjectId,LFO,4c464f2e-6b69-4636-9164-5f7063625858,rev?*%
%TF.SameCoordinates,Original*%
%TF.FileFunction,Copper,L2,Bot*%
%TF.FilePolarity,Positive*%
%FSLAX46Y46*%
G04 Gerber Fmt 4.6, Leading zero omitted, Abs format (unit mm)*
G04 Created by KiCad (PCBNEW (5.1.10)-1) date 2021-07-01 15:47:13*
%MOMM*%
%LPD*%
G01*
G04 APERTURE LIST*
%TA.AperFunction,ComponentPad*%
%ADD10O,1.700000X1.700000*%
%TD*%
%TA.AperFunction,ComponentPad*%
%ADD11R,1.700000X1.700000*%
%TD*%
%TA.AperFunction,ComponentPad*%
%ADD12C,1.620000*%
%TD*%
%TA.AperFunction,ComponentPad*%
%ADD13R,1.500000X1.050000*%
%TD*%
%TA.AperFunction,ComponentPad*%
%ADD14O,1.500000X1.050000*%
%TD*%
%TA.AperFunction,ComponentPad*%
%ADD15R,1.050000X1.500000*%
%TD*%
%TA.AperFunction,ComponentPad*%
%ADD16O,1.050000X1.500000*%
%TD*%
%TA.AperFunction,ComponentPad*%
%ADD17C,1.800000*%
%TD*%
%TA.AperFunction,ComponentPad*%
%ADD18R,1.800000X1.800000*%
%TD*%
%TA.AperFunction,ComponentPad*%
%ADD19C,1.400000*%
%TD*%
%TA.AperFunction,ViaPad*%
%ADD20C,0.800000*%
%TD*%
%TA.AperFunction,Conductor*%
%ADD21C,0.250000*%
%TD*%
%TA.AperFunction,Conductor*%
%ADD22C,0.254000*%
%TD*%
%TA.AperFunction,Conductor*%
%ADD23C,0.100000*%
%TD*%
G04 APERTURE END LIST*
D10*
%TO.P,REF\u002A\u002A,16*%
%TO.N,N/C*%
X144018000Y-92964000D03*
%TO.P,REF\u002A\u002A,15*%
X141478000Y-92964000D03*
%TO.P,REF\u002A\u002A,14*%
X144018000Y-90424000D03*
%TO.P,REF\u002A\u002A,13*%
X141478000Y-90424000D03*
%TO.P,REF\u002A\u002A,12*%
X144018000Y-87884000D03*
%TO.P,REF\u002A\u002A,11*%
X141478000Y-87884000D03*
%TO.P,REF\u002A\u002A,10*%
%TO.N,+12V*%
X144018000Y-85344000D03*
%TO.P,REF\u002A\u002A,9*%
X141478000Y-85344000D03*
%TO.P,REF\u002A\u002A,8*%
%TO.N,GNDREF*%
X144018000Y-82804000D03*
%TO.P,REF\u002A\u002A,7*%
X141478000Y-82804000D03*
%TO.P,REF\u002A\u002A,6*%
X144018000Y-80264000D03*
%TO.P,REF\u002A\u002A,5*%
X141478000Y-80264000D03*
%TO.P,REF\u002A\u002A,4*%
X144018000Y-77724000D03*
%TO.P,REF\u002A\u002A,3*%
X141478000Y-77724000D03*
%TO.P,REF\u002A\u002A,2*%
%TO.N,-12V*%
X144018000Y-75184000D03*
D11*
%TO.P,REF\u002A\u002A,1*%
X141478000Y-75184000D03*
%TD*%
D12*
%TO.P,R46,1*%
%TO.N,Net-(R40-Pad1)*%
X106781600Y-101193600D03*
%TO.P,R46,2*%
%TO.N,Net-(R45-Pad1)*%
X109281600Y-103693600D03*
%TO.P,R46,3*%
X106781600Y-106193600D03*
%TD*%
%TO.P,R25,1*%
%TO.N,Net-(R25-Pad1)*%
X115366800Y-93370400D03*
%TO.P,R25,2*%
%TO.N,Net-(R25-Pad2)*%
X112866800Y-90870400D03*
%TO.P,R25,3*%
%TO.N,Net-(R25-Pad3)*%
X115366800Y-88370400D03*
%TD*%
D13*
%TO.P,Q6,1*%
%TO.N,/LEDA*%
X135483600Y-88696800D03*
D14*
%TO.P,Q6,3*%
%TO.N,Net-(Q6-Pad3)*%
X135483600Y-91236800D03*
%TO.P,Q6,2*%
%TO.N,Net-(Q6-Pad2)*%
X135483600Y-89966800D03*
%TD*%
D15*
%TO.P,Q5,1*%
%TO.N,Net-(Q5-Pad1)*%
X99161600Y-106070400D03*
D16*
%TO.P,Q5,3*%
%TO.N,Net-(C11-Pad1)*%
X96621600Y-106070400D03*
%TO.P,Q5,2*%
%TO.N,Net-(Q5-Pad2)*%
X97891600Y-106070400D03*
%TD*%
D15*
%TO.P,Q4,1*%
%TO.N,Net-(Q4-Pad1)*%
X99212400Y-101244400D03*
D16*
%TO.P,Q4,3*%
%TO.N,Net-(Q4-Pad3)*%
X96672400Y-101244400D03*
%TO.P,Q4,2*%
%TO.N,Net-(Q4-Pad2)*%
X97942400Y-101244400D03*
%TD*%
D13*
%TO.P,Q3,1*%
%TO.N,GNDREF*%
X101244400Y-88900000D03*
D14*
%TO.P,Q3,3*%
%TO.N,Net-(Q3-Pad3)*%
X101244400Y-91440000D03*
%TO.P,Q3,2*%
%TO.N,Net-(Q2-Pad3)*%
X101244400Y-90170000D03*
%TD*%
D13*
%TO.P,Q2,1*%
%TO.N,Net-(Q1-Pad1)*%
X101295200Y-83362800D03*
D14*
%TO.P,Q2,3*%
%TO.N,Net-(Q2-Pad3)*%
X101295200Y-85902800D03*
%TO.P,Q2,2*%
%TO.N,GNDREF*%
X101295200Y-84632800D03*
%TD*%
D13*
%TO.P,Q1,1*%
%TO.N,Net-(Q1-Pad1)*%
X106121200Y-83413600D03*
D14*
%TO.P,Q1,3*%
%TO.N,Net-(C1-Pad2)*%
X106121200Y-85953600D03*
%TO.P,Q1,2*%
X106121200Y-84683600D03*
%TD*%
D17*
%TO.P,LED1,2*%
%TO.N,/LEDA*%
X136245600Y-80568800D03*
D18*
%TO.P,LED1,1*%
%TO.N,GNDREF*%
X136245600Y-78028800D03*
%TD*%
D19*
%TO.P,LEDA,1*%
%TO.N,/LEDA*%
X136652000Y-83362800D03*
%TD*%
%TO.P,PW90,1*%
%TO.N,/PW90*%
X128066800Y-106984800D03*
%TD*%
%TO.P,PWC,1*%
%TO.N,/PWC*%
X131927600Y-107188000D03*
%TD*%
%TO.P,PW10,1*%
%TO.N,/PW10*%
X135890000Y-107289600D03*
%TD*%
%TO.P,PWXV,1*%
%TO.N,/PWXV*%
X124002800Y-107086400D03*
%TD*%
%TO.P,SAW,1*%
%TO.N,/SAW*%
X118160800Y-95707200D03*
%TD*%
%TO.P,SQR,1*%
%TO.N,/SQR*%
X136194800Y-105206800D03*
%TD*%
%TO.P,SIN,1*%
%TO.N,/SIN*%
X119278400Y-72186800D03*
%TD*%
%TO.P,RMP,1*%
%TO.N,/RMP*%
X119329200Y-107188000D03*
%TD*%
%TO.P,TRI,1*%
%TO.N,/TRI*%
X132435600Y-77825600D03*
%TD*%
%TO.P,CV3,1*%
%TO.N,/CV3*%
X96164400Y-82956400D03*
%TD*%
%TO.P,CV1,1*%
%TO.N,/CV1*%
X96164400Y-87528400D03*
%TD*%
%TO.P,CV2,1*%
%TO.N,/CV2*%
X96113600Y-91998800D03*
%TD*%
%TO.P,FFV,1*%
%TO.N,/FFV*%
X96164400Y-73964800D03*
%TD*%
%TO.P,CFL,1*%
%TO.N,/CFL*%
X96215200Y-69392800D03*
%TD*%
%TO.P,CFV,1*%
%TO.N,/CFV*%
X96164400Y-78435200D03*
%TD*%
D20*
%TO.N,Net-(C1-Pad2)*%
X103530400Y-82637800D03*
X103886000Y-84785200D03*
%TO.N,GNDREF*%
X106172000Y-72999600D03*
X101101990Y-74482790D03*
X112776000Y-70358000D03*
X118110000Y-97637600D03*
X109728000Y-94284800D03*
X131599601Y-102920800D03*
X121869200Y-97485200D03*
X131881590Y-79451200D03*
X130403600Y-79502000D03*
X131622800Y-71272400D03*
X128778000Y-75895200D03*
X131927600Y-94437200D03*
X127812800Y-89255600D03*
%TO.N,+12V*%
X106019600Y-75082400D03*
X110215200Y-71090000D03*
X116021773Y-75280173D03*
X126288800Y-70916800D03*
X118434561Y-75391976D03*
X131572000Y-97434400D03*
X131521200Y-99286990D03*
X133858000Y-103936800D03*
X134164951Y-93267847D03*
X125544486Y-79943527D03*
X113080800Y-93421200D03*
%TO.N,-12V*%
X99720400Y-74117200D03*
X108661200Y-67919600D03*
X138176000Y-107696000D03*
X128422400Y-104292400D03*
X129987647Y-75701553D03*
X123444000Y-78232000D03*
X130403600Y-97028000D03*
X143459200Y-104241600D03*
X131156590Y-78550190D03*
%TO.N,Net-(C10-Pad1)*%
X101650800Y-93268800D03*
X124681200Y-92506800D03*
%TO.N,Net-(C11-Pad1)*%
X128422400Y-74371200D03*
X132994400Y-71831200D03*
X122885200Y-71596427D03*
X126490390Y-75641200D03*
X135636000Y-93929200D03*
%TO.N,Net-(C12-Pad2)*%
X125425200Y-97485200D03*
X130149600Y-101752400D03*
%TO.N,Net-(Q4-Pad3)*%
X125577600Y-69900800D03*
X108610400Y-92252800D03*
X100126800Y-98145600D03*
X96926400Y-99872800D03*
%TO.N,Net-(R12-Pad1)*%
X99364800Y-70852200D03*
X98044000Y-72999600D03*
%TO.N,Net-(R19-Pad1)*%
X113436400Y-79908400D03*
X124155200Y-75996800D03*
%TO.N,Net-(R20-Pad1)*%
X120040400Y-78892400D03*
X121716800Y-76149200D03*
%TO.N,Net-(R23-Pad1)*%
X114858800Y-70561200D03*
X115265200Y-79197200D03*
X118262400Y-79349600D03*
%TO.N,Net-(R31-Pad1)*%
X129692400Y-97790000D03*
X131318000Y-100787200D03*
%TO.N,Net-(R33-Pad2)*%
X116281200Y-101955600D03*
X112928400Y-104851200D03*
%TO.N,Net-(R34-Pad2)*%
X123393200Y-104444800D03*
X128168400Y-105359200D03*
%TO.N,Net-(R48-Pad1)*%
X132080000Y-80822800D03*
X129133600Y-84531200D03*
X122326400Y-82600800D03*
%TO.N,Net-(R49-Pad2)*%
X131876800Y-85801200D03*
X127711200Y-84480400D03*
X100634800Y-93726000D03*
%TO.N,Net-(R52-Pad1)*%
X111506000Y-96164400D03*
X116890800Y-97485200D03*
%TO.N,Net-(R55-Pad1)*%
X115490541Y-105940141D03*
X118110000Y-101549200D03*
%TD*%
D21*
%TO.N,Net-(C1-Pad2)*%
X103530400Y-84429600D02*
X103886000Y-84785200D01*
X103530400Y-82637800D02*
X103530400Y-84429600D01*
%TO.N,GNDREF*%
X102585180Y-72999600D02*
X101101990Y-74482790D01*
X112769001Y-70364999D02*
X112776000Y-70358000D01*
X106673001Y-70364999D02*
X112769001Y-70364999D01*
X104038400Y-72999600D02*
X106673001Y-70364999D01*
X106172000Y-72999600D02*
X104038400Y-72999600D01*
X104038400Y-72999600D02*
X102585180Y-72999600D01*
X112478799Y-98210201D02*
X109728000Y-95459402D01*
X109728000Y-95459402D02*
X109728000Y-94284800D01*
X117537399Y-98210201D02*
X112478799Y-98210201D01*
X118110000Y-97637600D02*
X117537399Y-98210201D01*
X103168598Y-88900000D02*
X101244400Y-88900000D01*
X109728000Y-95459402D02*
X103168598Y-88900000D01*
X122594201Y-96760199D02*
X121869200Y-97485200D01*
X126230401Y-96760199D02*
X122594201Y-96760199D01*
X131599601Y-102129399D02*
X126230401Y-96760199D01*
X131599601Y-102920800D02*
X131599601Y-102129399D01*
X130454400Y-79451200D02*
X130403600Y-79502000D01*
X131881590Y-79451200D02*
X130454400Y-79451200D01*
X127697399Y-74814599D02*
X128778000Y-75895200D01*
X127697399Y-74023199D02*
X127697399Y-74814599D01*
X130448198Y-71272400D02*
X127697399Y-74023199D01*
X131622800Y-71272400D02*
X130448198Y-71272400D01*
X129604601Y-96760199D02*
X126230401Y-96760199D01*
X131419600Y-92862400D02*
X131419600Y-94945200D01*
X127812800Y-89255600D02*
X131419600Y-92862400D01*
X131419600Y-94945200D02*
X129604601Y-96760199D01*
X131927600Y-94437200D02*
X131419600Y-94945200D01*
X136550400Y-77724000D02*
X136245600Y-78028800D01*
X141478000Y-77724000D02*
X136550400Y-77724000D01*
%TO.N,+12V*%
X110012000Y-71090000D02*
X110215200Y-71090000D01*
X115206801Y-69836199D02*
X116021773Y-70651171D01*
X114510799Y-69836199D02*
X115206801Y-69836199D01*
X107950000Y-73152000D02*
X111194998Y-73152000D01*
X106019600Y-75082400D02*
X107950000Y-73152000D01*
X111194998Y-73152000D02*
X114510799Y-69836199D01*
X107950000Y-73152000D02*
X110012000Y-71090000D01*
X126243427Y-70871427D02*
X126288800Y-70916800D01*
X116021773Y-70871427D02*
X126243427Y-70871427D01*
X116021773Y-70651171D02*
X116021773Y-70871427D01*
X117459158Y-74416573D02*
X118434561Y-75391976D01*
X116021773Y-74416573D02*
X117459158Y-74416573D01*
X116021773Y-70871427D02*
X116021773Y-74416573D01*
X116021773Y-74416573D02*
X116021773Y-75280173D01*
X131572000Y-99236190D02*
X131521200Y-99286990D01*
X131572000Y-97434400D02*
X131572000Y-99236190D01*
X133858000Y-101623790D02*
X133858000Y-103936800D01*
X131521200Y-99286990D02*
X133858000Y-101623790D01*
X125544486Y-84647382D02*
X125544486Y-79943527D01*
X120769001Y-92235399D02*
X126950752Y-86053648D01*
X114266601Y-92235399D02*
X120769001Y-92235399D01*
X113080800Y-93421200D02*
X114266601Y-92235399D01*
X126950752Y-86053648D02*
X125544486Y-84647382D01*
X134164951Y-93267847D02*
X126950752Y-86053648D01*
%TO.N,-12V*%
X105918000Y-67919600D02*
X108661200Y-67919600D01*
X99720400Y-74117200D02*
X105918000Y-67919600D01*
X131375798Y-104292400D02*
X128422400Y-104292400D01*
X135397999Y-108314601D02*
X131375798Y-104292400D01*
X137557399Y-108314601D02*
X135397999Y-108314601D01*
X138176000Y-107696000D02*
X137557399Y-108314601D01*
X128022885Y-78232000D02*
X123444000Y-78232000D01*
X129987647Y-76267238D02*
X128022885Y-78232000D01*
X129987647Y-75701553D02*
X129987647Y-76267238D01*
X135845601Y-96628001D02*
X143459200Y-104241600D01*
X130803599Y-96628001D02*
X135845601Y-96628001D01*
X130403600Y-97028000D02*
X130803599Y-96628001D01*
X131156590Y-77587608D02*
X133560198Y-75184000D01*
X133560198Y-75184000D02*
X141478000Y-75184000D01*
X131156590Y-78550190D02*
X131156590Y-77587608D01*
X141478000Y-75184000D02*
X144018000Y-75184000D01*
%TO.N,Net-(C10-Pad1)*%
X118527789Y-98660211D02*
X124681200Y-92506800D01*
X107042211Y-98660211D02*
X118527789Y-98660211D01*
X101650800Y-93268800D02*
X107042211Y-98660211D01*
%TO.N,Net-(C11-Pad1)*%
X130454400Y-74371200D02*
X132994400Y-71831200D01*
X128422400Y-74371200D02*
X130454400Y-74371200D01*
X126490390Y-75201617D02*
X126490390Y-75641200D01*
X122885200Y-71596427D02*
X126490390Y-75201617D01*
X136468593Y-96177991D02*
X135141591Y-96177991D01*
X144184201Y-104589601D02*
X144184201Y-103893599D01*
X143807201Y-104966601D02*
X144184201Y-104589601D01*
X142297607Y-104153009D02*
X143111199Y-104966601D01*
X96621600Y-106070400D02*
X96621600Y-107070400D01*
X96621600Y-107070400D02*
X96696601Y-107145401D01*
X96696601Y-107145401D02*
X99946601Y-107145401D01*
X143111199Y-104966601D02*
X143807201Y-104966601D01*
X99946601Y-107145401D02*
X100011601Y-107080401D01*
X100011601Y-107080401D02*
X100011601Y-106070400D01*
X100011601Y-106070400D02*
X106908000Y-99174001D01*
X106908000Y-99174001D02*
X126477591Y-99174001D01*
X134714793Y-104153009D02*
X142297607Y-104153009D01*
X126477591Y-99174001D02*
X130949391Y-103645801D01*
X130949391Y-103645801D02*
X132493999Y-103645801D01*
X132493999Y-103645801D02*
X133509999Y-104661801D01*
X144184201Y-103893599D02*
X136468593Y-96177991D01*
X134206001Y-104661801D02*
X134714793Y-104153009D01*
X133509999Y-104661801D02*
X134206001Y-104661801D01*
X135141591Y-94423609D02*
X135636000Y-93929200D01*
X135141591Y-96177991D02*
X135141591Y-94423609D01*
%TO.N,Net-(C12-Pad2)*%
X129692400Y-101752400D02*
X130149600Y-101752400D01*
X125425200Y-97485200D02*
X129692400Y-101752400D01*
%TO.N,Net-(Q4-Pad3)*%
X121906199Y-78957001D02*
X108610400Y-92252800D01*
X123792001Y-78957001D02*
X121906199Y-78957001D01*
X124066992Y-78682010D02*
X123792001Y-78957001D01*
X128209285Y-78682010D02*
X124066992Y-78682010D01*
X133719401Y-73171894D02*
X128209285Y-78682010D01*
X133719401Y-71483199D02*
X133719401Y-73171894D01*
X132137002Y-69900800D02*
X133719401Y-71483199D01*
X125577600Y-69900800D02*
X132137002Y-69900800D01*
X98653600Y-98145600D02*
X96926400Y-99872800D01*
X100126800Y-98145600D02*
X98653600Y-98145600D01*
%TO.N,Net-(R12-Pad1)*%
X98044000Y-72173000D02*
X98044000Y-72999600D01*
X99364800Y-70852200D02*
X98044000Y-72173000D01*
%TO.N,Net-(R19-Pad1)*%
X113436400Y-79908400D02*
X113842800Y-80314800D01*
X119837200Y-80314800D02*
X124155200Y-75996800D01*
X113842800Y-80314800D02*
X119837200Y-80314800D01*
%TO.N,Net-(R20-Pad1)*%
X121716800Y-77216000D02*
X121716800Y-76149200D01*
X120040400Y-78892400D02*
X121716800Y-77216000D01*
%TO.N,Net-(R23-Pad1)*%
X114858800Y-78790800D02*
X115265200Y-79197200D01*
X117144800Y-78232000D02*
X118262400Y-79349600D01*
X114858800Y-78232000D02*
X117144800Y-78232000D01*
X114858800Y-70561200D02*
X114858800Y-78232000D01*
X114858800Y-78232000D02*
X114858800Y-78790800D01*
%TO.N,Net-(R31-Pad1)*%
X129692400Y-99161600D02*
X131318000Y-100787200D01*
X129692400Y-97790000D02*
X129692400Y-99161600D01*
%TO.N,Net-(R33-Pad2)*%
X113385600Y-104851200D02*
X112928400Y-104851200D01*
X116281200Y-101955600D02*
X113385600Y-104851200D01*
%TO.N,Net-(R34-Pad2)*%
X124307600Y-105359200D02*
X128168400Y-105359200D01*
X123393200Y-104444800D02*
X124307600Y-105359200D01*
%TO.N,Net-(R48-Pad1)*%
X129133600Y-83769200D02*
X129133600Y-84531200D01*
X122326400Y-82088611D02*
X122326400Y-82600800D01*
X125196485Y-79218526D02*
X122326400Y-82088611D01*
X126208526Y-79218526D02*
X125196485Y-79218526D01*
X132080000Y-80822800D02*
X129946400Y-82956400D01*
X129946400Y-82956400D02*
X126208526Y-79218526D01*
X129946400Y-82956400D02*
X129133600Y-83769200D01*
%TO.N,Net-(R49-Pad2)*%
X129032000Y-85801200D02*
X127711200Y-84480400D01*
X131876800Y-85801200D02*
X129032000Y-85801200D01*
X133816950Y-93992848D02*
X134512952Y-93992848D01*
X133439950Y-93615848D02*
X133816950Y-93992848D01*
X134889952Y-93615848D02*
X134889952Y-92070247D01*
X126950752Y-86690058D02*
X133439950Y-93179256D01*
X133439950Y-93179256D02*
X133439950Y-93615848D01*
X119135409Y-94505401D02*
X126950752Y-86690058D01*
X113091999Y-94505401D02*
X119135409Y-94505401D01*
X127711200Y-84891495D02*
X127711200Y-84480400D01*
X111659797Y-93073199D02*
X113091999Y-94505401D01*
X134889952Y-92070247D02*
X127711200Y-84891495D01*
X108357797Y-93073199D02*
X111659797Y-93073199D01*
X103334597Y-88049999D02*
X108357797Y-93073199D01*
X134512952Y-93992848D02*
X134889952Y-93615848D01*
X100234399Y-88049999D02*
X103334597Y-88049999D01*
X100169399Y-88114999D02*
X100234399Y-88049999D01*
X100169399Y-93260599D02*
X100169399Y-88114999D01*
X100634800Y-93726000D02*
X100169399Y-93260599D01*
%TO.N,Net-(R52-Pad1)*%
X112826800Y-97485200D02*
X116890800Y-97485200D01*
X111506000Y-96164400D02*
X112826800Y-97485200D01*
%TO.N,Net-(R55-Pad1)*%
X118110000Y-103320682D02*
X118110000Y-101549200D01*
X115490541Y-105940141D02*
X118110000Y-103320682D01*
%TD*%
D22*
%TO.N,GNDREF*%
X150360001Y-67992632D02*
X150360000Y-108329717D01*
X139000599Y-108324851D01*
X139093205Y-108186256D01*
X139171226Y-107997898D01*
X139211000Y-107797939D01*
X139211000Y-107594061D01*
X139171226Y-107394102D01*
X139093205Y-107205744D01*
X138979937Y-107036226D01*
X138835774Y-106892063D01*
X138666256Y-106778795D01*
X138477898Y-106700774D01*
X138277939Y-106661000D01*
X138074061Y-106661000D01*
X137874102Y-106700774D01*
X137685744Y-106778795D01*
X137516226Y-106892063D01*
X137372063Y-107036226D01*
X137258795Y-107205744D01*
X137225000Y-107287332D01*
X137225000Y-107158114D01*
X137173696Y-106900195D01*
X137073061Y-106657241D01*
X136926962Y-106438587D01*
X136862417Y-106374042D01*
X146895000Y-106374042D01*
X146895000Y-106705958D01*
X146959754Y-107031496D01*
X147086772Y-107338147D01*
X147271175Y-107614125D01*
X147505875Y-107848825D01*
X147781853Y-108033228D01*
X148088504Y-108160246D01*
X148414042Y-108225000D01*
X148745958Y-108225000D01*
X149071496Y-108160246D01*
X149378147Y-108033228D01*
X149654125Y-107848825D01*
X149888825Y-107614125D01*
X150073228Y-107338147D01*
X150200246Y-107031496D01*
X150265000Y-106705958D01*
X150265000Y-106374042D01*
X150200246Y-106048504D01*
X150073228Y-105741853D01*
X149888825Y-105465875D01*
X149654125Y-105231175D01*
X149378147Y-105046772D01*
X149071496Y-104919754D01*
X148745958Y-104855000D01*
X148414042Y-104855000D01*
X148088504Y-104919754D01*
X147781853Y-105046772D01*
X147505875Y-105231175D01*
X147271175Y-105465875D01*
X147086772Y-105741853D01*
X146959754Y-106048504D01*
X146895000Y-106374042D01*
X136862417Y-106374042D01*
X136857778Y-106369403D01*
X137045813Y-106243762D01*
X137231762Y-106057813D01*
X137377861Y-105839159D01*
X137478496Y-105596205D01*
X137529800Y-105338286D01*
X137529800Y-105075314D01*
X137497515Y-104913009D01*
X141982806Y-104913009D01*
X142547400Y-105477603D01*
X142571198Y-105506602D01*
X142686923Y-105601575D01*
X142818952Y-105672147D01*
X142962213Y-105715604D01*
X143073866Y-105726601D01*
X143073876Y-105726601D01*
X143111199Y-105730277D01*
X143148522Y-105726601D01*
X143769879Y-105726601D01*
X143807201Y-105730277D01*
X143844523Y-105726601D01*
X143844534Y-105726601D01*
X143956187Y-105715604D01*
X144099448Y-105672147D01*
X144231477Y-105601575D01*
X144347202Y-105506602D01*
X144371005Y-105477598D01*
X144695199Y-105153404D01*
X144724202Y-105129602D01*
X144819175Y-105013877D01*
X144889747Y-104881848D01*
X144933204Y-104738587D01*
X144944201Y-104626934D01*
X144944201Y-104626933D01*
X144947878Y-104589601D01*
X144944201Y-104552268D01*
X144944201Y-103930921D01*
X144947877Y-103893598D01*
X144944201Y-103856275D01*
X144944201Y-103856266D01*
X144933204Y-103744613D01*
X144889747Y-103601352D01*
X144819175Y-103469323D01*
X144756546Y-103393009D01*
X144748000Y-103382595D01*
X144747996Y-103382591D01*
X144724202Y-103353598D01*
X144695209Y-103329804D01*
X137032397Y-95666994D01*
X137008594Y-95637990D01*
X136892869Y-95543017D01*
X136760840Y-95472445D01*
X136617579Y-95428988D01*
X136505926Y-95417991D01*
X136505915Y-95417991D01*
X136468593Y-95414315D01*
X136431271Y-95417991D01*
X135901591Y-95417991D01*
X135901591Y-94931648D01*
X135937898Y-94924426D01*
X136126256Y-94846405D01*
X136295774Y-94733137D01*
X136439937Y-94588974D01*
X136553205Y-94419456D01*
X136631226Y-94231098D01*
X136671000Y-94031139D01*
X136671000Y-93827261D01*
X136631226Y-93627302D01*
X136553205Y-93438944D01*
X136439937Y-93269426D01*
X136295774Y-93125263D01*
X136126256Y-93011995D01*
X135937898Y-92933974D01*
X135737939Y-92894200D01*
X135649952Y-92894200D01*
X135649952Y-92396800D01*
X135765579Y-92396800D01*
X135936000Y-92380015D01*
X136154660Y-92313685D01*
X136356179Y-92205971D01*
X136532812Y-92061012D01*
X136677771Y-91884379D01*
X136785485Y-91682860D01*
X136851815Y-91464200D01*
X136874212Y-91236800D01*
X136851815Y-91009400D01*
X136785485Y-90790740D01*
X136684495Y-90601800D01*
X136785485Y-90412860D01*
X136851815Y-90194200D01*
X136874212Y-89966800D01*
X136851815Y-89739400D01*
X136788507Y-89530702D01*
X136823102Y-89465980D01*
X136859412Y-89346282D01*
X136871672Y-89221800D01*
X136871672Y-88171800D01*
X136859412Y-88047318D01*
X136823102Y-87927620D01*
X136764137Y-87817306D01*
X136684785Y-87720615D01*
X136588094Y-87641263D01*
X136477780Y-87582298D01*
X136358082Y-87545988D01*
X136233600Y-87533728D01*
X134733600Y-87533728D01*
X134609118Y-87545988D01*
X134489420Y-87582298D01*
X134379106Y-87641263D01*
X134282415Y-87720615D01*
X134203063Y-87817306D01*
X134144098Y-87927620D01*
X134107788Y-88047318D01*
X134095528Y-88171800D01*
X134095528Y-89221800D01*
X134107788Y-89346282D01*
X134144098Y-89465980D01*
X134178693Y-89530702D01*
X134115385Y-89739400D01*
X134092988Y-89966800D01*
X134115385Y-90194200D01*
X134127001Y-90232494D01*
X130455707Y-86561200D01*
X131173089Y-86561200D01*
X131217026Y-86605137D01*
X131386544Y-86718405D01*
X131574902Y-86796426D01*
X131774861Y-86836200D01*
X131978739Y-86836200D01*
X132178698Y-86796426D01*
X132367056Y-86718405D01*
X132536574Y-86605137D01*
X132680737Y-86460974D01*
X132794005Y-86291456D01*
X132872026Y-86103098D01*
X132911800Y-85903139D01*
X132911800Y-85699261D01*
X132872026Y-85499302D01*
X132794005Y-85310944D01*
X132718365Y-85197740D01*
X139993000Y-85197740D01*
X139993000Y-85490260D01*
X140050068Y-85777158D01*
X140162010Y-86047411D01*
X140324525Y-86290632D01*
X140531368Y-86497475D01*
X140705760Y-86614000D01*
X140531368Y-86730525D01*
X140324525Y-86937368D01*
X140162010Y-87180589D01*
X140050068Y-87450842D01*
X139993000Y-87737740D01*
X139993000Y-88030260D01*
X140050068Y-88317158D01*
X140162010Y-88587411D01*
X140324525Y-88830632D01*
X140531368Y-89037475D01*
X140705760Y-89154000D01*
X140531368Y-89270525D01*
X140324525Y-89477368D01*
X140162010Y-89720589D01*
X140050068Y-89990842D01*
X139993000Y-90277740D01*
X139993000Y-90570260D01*
X140050068Y-90857158D01*
X140162010Y-91127411D01*
X140324525Y-91370632D01*
X140531368Y-91577475D01*
X140705760Y-91694000D01*
X140531368Y-91810525D01*
X140324525Y-92017368D01*
X140162010Y-92260589D01*
X140050068Y-92530842D01*
X139993000Y-92817740D01*
X139993000Y-93110260D01*
X140050068Y-93397158D01*
X140162010Y-93667411D01*
X140324525Y-93910632D01*
X140531368Y-94117475D01*
X140774589Y-94279990D01*
X141044842Y-94391932D01*
X141331740Y-94449000D01*
X141624260Y-94449000D01*
X141911158Y-94391932D01*
X142181411Y-94279990D01*
X142424632Y-94117475D01*
X142631475Y-93910632D01*
X142748000Y-93736240D01*
X142864525Y-93910632D01*
X143071368Y-94117475D01*
X143314589Y-94279990D01*
X143584842Y-94391932D01*
X143871740Y-94449000D01*
X144164260Y-94449000D01*
X144451158Y-94391932D01*
X144721411Y-94279990D01*
X144964632Y-94117475D01*
X145171475Y-93910632D01*
X145333990Y-93667411D01*
X145445932Y-93397158D01*
X145503000Y-93110260D01*
X145503000Y-92817740D01*
X145445932Y-92530842D01*
X145333990Y-92260589D01*
X145171475Y-92017368D01*
X144964632Y-91810525D01*
X144790240Y-91694000D01*
X144964632Y-91577475D01*
X145171475Y-91370632D01*
X145333990Y-91127411D01*
X145445932Y-90857158D01*
X145503000Y-90570260D01*
X145503000Y-90277740D01*
X145445932Y-89990842D01*
X145333990Y-89720589D01*
X145171475Y-89477368D01*
X144964632Y-89270525D01*
X144790240Y-89154000D01*
X144964632Y-89037475D01*
X145171475Y-88830632D01*
X145333990Y-88587411D01*
X145445932Y-88317158D01*
X145503000Y-88030260D01*
X145503000Y-87737740D01*
X145445932Y-87450842D01*
X145333990Y-87180589D01*
X145171475Y-86937368D01*
X144964632Y-86730525D01*
X144790240Y-86614000D01*
X144964632Y-86497475D01*
X145171475Y-86290632D01*
X145333990Y-86047411D01*
X145445932Y-85777158D01*
X145503000Y-85490260D01*
X145503000Y-85197740D01*
X145445932Y-84910842D01*
X145333990Y-84640589D01*
X145171475Y-84397368D01*
X144964632Y-84190525D01*
X144782466Y-84068805D01*
X144899355Y-83999178D01*
X145115588Y-83804269D01*
X145289641Y-83570920D01*
X145414825Y-83308099D01*
X145459476Y-83160890D01*
X145338155Y-82931000D01*
X144145000Y-82931000D01*
X144145000Y-82951000D01*
X143891000Y-82951000D01*
X143891000Y-82931000D01*
X141605000Y-82931000D01*
X141605000Y-82951000D01*
X141351000Y-82951000D01*
X141351000Y-82931000D01*
X140157845Y-82931000D01*
X140036524Y-83160890D01*
X140081175Y-83308099D01*
X140206359Y-83570920D01*
X140380412Y-83804269D01*
X140596645Y-83999178D01*
X140713534Y-84068805D01*
X140531368Y-84190525D01*
X140324525Y-84397368D01*
X140162010Y-84640589D01*
X140050068Y-84910842D01*
X139993000Y-85197740D01*
X132718365Y-85197740D01*
X132680737Y-85141426D01*
X132536574Y-84997263D01*
X132367056Y-84883995D01*
X132178698Y-84805974D01*
X131978739Y-84766200D01*
X131774861Y-84766200D01*
X131574902Y-84805974D01*
X131386544Y-84883995D01*
X131217026Y-84997263D01*
X131173089Y-85041200D01*
X130037613Y-85041200D01*
X130050805Y-85021456D01*
X130128826Y-84833098D01*
X130168600Y-84633139D01*
X130168600Y-84429261D01*
X130128826Y-84229302D01*
X130050805Y-84040944D01*
X130005084Y-83972517D01*
X130457402Y-83520199D01*
X130486401Y-83496401D01*
X130510204Y-83467397D01*
X132119802Y-81857800D01*
X132181939Y-81857800D01*
X132381898Y-81818026D01*
X132570256Y-81740005D01*
X132739774Y-81626737D01*
X132883937Y-81482574D01*
X132997205Y-81313056D01*
X133075226Y-81124698D01*
X133115000Y-80924739D01*
X133115000Y-80720861D01*
X133075226Y-80520902D01*
X132997205Y-80332544D01*
X132883937Y-80163026D01*
X132739774Y-80018863D01*
X132570256Y-79905595D01*
X132381898Y-79827574D01*
X132181939Y-79787800D01*
X131978061Y-79787800D01*
X131778102Y-79827574D01*
X131589744Y-79905595D01*
X131420226Y-80018863D01*
X131276063Y-80163026D01*
X131162795Y-80332544D01*
X131084774Y-80520902D01*
X131045000Y-80720861D01*
X131045000Y-80782998D01*
X129946400Y-81881598D01*
X127506811Y-79442010D01*
X128171963Y-79442010D01*
X128209285Y-79445686D01*
X128246607Y-79442010D01*
X128246618Y-79442010D01*
X128358271Y-79431013D01*
X128501532Y-79387556D01*
X128633561Y-79316984D01*
X128749286Y-79222011D01*
X128773089Y-79193007D01*
X130394490Y-77571606D01*
X130392914Y-77587608D01*
X130396591Y-77624940D01*
X130396591Y-77846478D01*
X130352653Y-77890416D01*
X130239385Y-78059934D01*
X130161364Y-78248292D01*
X130121590Y-78448251D01*
X130121590Y-78652129D01*
X130161364Y-78852088D01*
X130239385Y-79040446D01*
X130352653Y-79209964D01*
X130496816Y-79354127D01*
X130666334Y-79467395D01*
X130854692Y-79545416D01*
X131054651Y-79585190D01*
X131258529Y-79585190D01*
X131458488Y-79545416D01*
X131646846Y-79467395D01*
X131816364Y-79354127D01*
X131960527Y-79209964D01*
X132031781Y-79103325D01*
X132046195Y-79109296D01*
X132304114Y-79160600D01*
X132567086Y-79160600D01*
X132825005Y-79109296D01*
X133067959Y-79008661D01*
X133187480Y-78928800D01*
X134707528Y-78928800D01*
X134719788Y-79053282D01*
X134756098Y-79172980D01*
X134815063Y-79283294D01*
X134894415Y-79379985D01*
X134991106Y-79459337D01*
X135101420Y-79518302D01*
X135119727Y-79523856D01*
X135053288Y-79590295D01*
X134885301Y-79841705D01*
X134769589Y-80121057D01*
X134710600Y-80417616D01*
X134710600Y-80719984D01*
X134769589Y-81016543D01*
X134885301Y-81295895D01*
X135053288Y-81547305D01*
X135267095Y-81761112D01*
X135518505Y-81929099D01*
X135797857Y-82044811D01*
X136094416Y-82103800D01*
X136202974Y-82103800D01*
X136019641Y-82179739D01*
X135800987Y-82325838D01*
X135615038Y-82511787D01*
X135468939Y-82730441D01*
X135368304Y-82973395D01*
X135317000Y-83231314D01*
X135317000Y-83494286D01*
X135368304Y-83752205D01*
X135468939Y-83995159D01*
X135615038Y-84213813D01*
X135800987Y-84399762D01*
X136019641Y-84545861D01*
X136262595Y-84646496D01*
X136520514Y-84697800D01*
X136783486Y-84697800D01*
X137041405Y-84646496D01*
X137284359Y-84545861D01*
X137503013Y-84399762D01*
X137688962Y-84213813D01*
X137835061Y-83995159D01*
X137935696Y-83752205D01*
X137987000Y-83494286D01*
X137987000Y-83231314D01*
X137935696Y-82973395D01*
X137835061Y-82730441D01*
X137688962Y-82511787D01*
X137503013Y-82325838D01*
X137284359Y-82179739D01*
X137041405Y-82079104D01*
X136783486Y-82027800D01*
X136734411Y-82027800D01*
X136972695Y-81929099D01*
X137224105Y-81761112D01*
X137437912Y-81547305D01*
X137605899Y-81295895D01*
X137721611Y-81016543D01*
X137780600Y-80719984D01*
X137780600Y-80620890D01*
X140036524Y-80620890D01*
X140081175Y-80768099D01*
X140206359Y-81030920D01*
X140380412Y-81264269D01*
X140596645Y-81459178D01*
X140722255Y-81534000D01*
X140596645Y-81608822D01*
X140380412Y-81803731D01*
X140206359Y-82037080D01*
X140081175Y-82299901D01*
X140036524Y-82447110D01*
X140157845Y-82677000D01*
X141351000Y-82677000D01*
X141351000Y-80391000D01*
X141605000Y-80391000D01*
X141605000Y-82677000D01*
X143891000Y-82677000D01*
X143891000Y-80391000D01*
X144145000Y-80391000D01*
X144145000Y-82677000D01*
X145338155Y-82677000D01*
X145459476Y-82447110D01*
X145414825Y-82299901D01*
X145289641Y-82037080D01*
X145115588Y-81803731D01*
X144899355Y-81608822D01*
X144773745Y-81534000D01*
X144899355Y-81459178D01*
X145115588Y-81264269D01*
X145289641Y-81030920D01*
X145414825Y-80768099D01*
X145459476Y-80620890D01*
X145338155Y-80391000D01*
X144145000Y-80391000D01*
X143891000Y-80391000D01*
X141605000Y-80391000D01*
X141351000Y-80391000D01*
X140157845Y-80391000D01*
X140036524Y-80620890D01*
X137780600Y-80620890D01*
X137780600Y-80417616D01*
X137721611Y-80121057D01*
X137605899Y-79841705D01*
X137437912Y-79590295D01*
X137371473Y-79523856D01*
X137389780Y-79518302D01*
X137500094Y-79459337D01*
X137596785Y-79379985D01*
X137676137Y-79283294D01*
X137735102Y-79172980D01*
X137771412Y-79053282D01*
X137783672Y-78928800D01*
X137780600Y-78314550D01*
X137621850Y-78155800D01*
X136372600Y-78155800D01*
X136372600Y-78175800D01*
X136118600Y-78175800D01*
X136118600Y-78155800D01*
X134869350Y-78155800D01*
X134710600Y-78314550D01*
X134707528Y-78928800D01*
X133187480Y-78928800D01*
X133286613Y-78862562D01*
X133472562Y-78676613D01*
X133618661Y-78457959D01*
X133719296Y-78215005D01*
X133745973Y-78080890D01*
X140036524Y-78080890D01*
X140081175Y-78228099D01*
X140206359Y-78490920D01*
X140380412Y-78724269D01*
X140596645Y-78919178D01*
X140722255Y-78994000D01*
X140596645Y-79068822D01*
X140380412Y-79263731D01*
X140206359Y-79497080D01*
X140081175Y-79759901D01*
X140036524Y-79907110D01*
X140157845Y-80137000D01*
X141351000Y-80137000D01*
X141351000Y-77851000D01*
X141605000Y-77851000D01*
X141605000Y-80137000D01*
X143891000Y-80137000D01*
X143891000Y-77851000D01*
X144145000Y-77851000D01*
X144145000Y-80137000D01*
X145338155Y-80137000D01*
X145459476Y-79907110D01*
X145414825Y-79759901D01*
X145289641Y-79497080D01*
X145115588Y-79263731D01*
X144899355Y-79068822D01*
X144773745Y-78994000D01*
X144899355Y-78919178D01*
X145115588Y-78724269D01*
X145289641Y-78490920D01*
X145414825Y-78228099D01*
X145459476Y-78080890D01*
X145338155Y-77851000D01*
X144145000Y-77851000D01*
X143891000Y-77851000D01*
X141605000Y-77851000D01*
X141351000Y-77851000D01*
X140157845Y-77851000D01*
X140036524Y-78080890D01*
X133745973Y-78080890D01*
X133770600Y-77957086D01*
X133770600Y-77694114D01*
X133719296Y-77436195D01*
X133618661Y-77193241D01*
X133575604Y-77128800D01*
X134707528Y-77128800D01*
X134710600Y-77743050D01*
X134869350Y-77901800D01*
X136118600Y-77901800D01*
X136118600Y-76652550D01*
X136372600Y-76652550D01*
X136372600Y-77901800D01*
X137621850Y-77901800D01*
X137780600Y-77743050D01*
X137783672Y-77128800D01*
X137771412Y-77004318D01*
X137735102Y-76884620D01*
X137676137Y-76774306D01*
X137596785Y-76677615D01*
X137500094Y-76598263D01*
X137389780Y-76539298D01*
X137270082Y-76502988D01*
X137145600Y-76490728D01*
X136531350Y-76493800D01*
X136372600Y-76652550D01*
X136118600Y-76652550D01*
X135959850Y-76493800D01*
X135345600Y-76490728D01*
X135221118Y-76502988D01*
X135101420Y-76539298D01*
X134991106Y-76598263D01*
X134894415Y-76677615D01*
X134815063Y-76774306D01*
X134756098Y-76884620D01*
X134719788Y-77004318D01*
X134707528Y-77128800D01*
X133575604Y-77128800D01*
X133472562Y-76974587D01*
X133286613Y-76788638D01*
X133133001Y-76685998D01*
X133875000Y-75944000D01*
X139989928Y-75944000D01*
X139989928Y-76034000D01*
X140002188Y-76158482D01*
X140038498Y-76278180D01*
X140097463Y-76388494D01*
X140176815Y-76485185D01*
X140273506Y-76564537D01*
X140383820Y-76623502D01*
X140464466Y-76647966D01*
X140380412Y-76723731D01*
X140206359Y-76957080D01*
X140081175Y-77219901D01*
X140036524Y-77367110D01*
X140157845Y-77597000D01*
X141351000Y-77597000D01*
X141351000Y-77577000D01*
X141605000Y-77577000D01*
X141605000Y-77597000D01*
X143891000Y-77597000D01*
X143891000Y-77577000D01*
X144145000Y-77577000D01*
X144145000Y-77597000D01*
X145338155Y-77597000D01*
X145459476Y-77367110D01*
X145414825Y-77219901D01*
X145289641Y-76957080D01*
X145115588Y-76723731D01*
X144899355Y-76528822D01*
X144782466Y-76459195D01*
X144964632Y-76337475D01*
X145171475Y-76130632D01*
X145333990Y-75887411D01*
X145445932Y-75617158D01*
X145503000Y-75330260D01*
X145503000Y-75037740D01*
X145445932Y-74750842D01*
X145333990Y-74480589D01*
X145171475Y-74237368D01*
X144964632Y-74030525D01*
X144721411Y-73868010D01*
X144451158Y-73756068D01*
X144164260Y-73699000D01*
X143871740Y-73699000D01*
X143584842Y-73756068D01*
X143314589Y-73868010D01*
X143071368Y-74030525D01*
X142939513Y-74162380D01*
X142917502Y-74089820D01*
X142858537Y-73979506D01*
X142779185Y-73882815D01*
X142682494Y-73803463D01*
X142572180Y-73744498D01*
X142452482Y-73708188D01*
X142328000Y-73695928D01*
X140628000Y-73695928D01*
X140503518Y-73708188D01*
X140383820Y-73744498D01*
X140273506Y-73803463D01*
X140176815Y-73882815D01*
X140097463Y-73979506D01*
X140038498Y-74089820D01*
X140002188Y-74209518D01*
X139989928Y-74334000D01*
X139989928Y-74424000D01*
X133597520Y-74424000D01*
X133560197Y-74420324D01*
X133544197Y-74421900D01*
X134230404Y-73735693D01*
X134259402Y-73711895D01*
X134354375Y-73596170D01*
X134424947Y-73464141D01*
X134468404Y-73320880D01*
X134479401Y-73209227D01*
X134479401Y-73209219D01*
X134483077Y-73171894D01*
X134479401Y-73134569D01*
X134479401Y-71520521D01*
X134483077Y-71483198D01*
X134479401Y-71445875D01*
X134479401Y-71445866D01*
X134468404Y-71334213D01*
X134424947Y-71190952D01*
X134414510Y-71171426D01*
X134354375Y-71058922D01*
X134283200Y-70972196D01*
X134259402Y-70943198D01*
X134230405Y-70919401D01*
X132855046Y-69544042D01*
X146965000Y-69544042D01*
X146965000Y-69875958D01*
X147029754Y-70201496D01*
X147156772Y-70508147D01*
X147341175Y-70784125D01*
X147575875Y-71018825D01*
X147851853Y-71203228D01*
X148158504Y-71330246D01*
X148484042Y-71395000D01*
X148815958Y-71395000D01*
X149141496Y-71330246D01*
X149448147Y-71203228D01*
X149724125Y-71018825D01*
X149958825Y-70784125D01*
X150143228Y-70508147D01*
X150270246Y-70201496D01*
X150335000Y-69875958D01*
X150335000Y-69544042D01*
X150270246Y-69218504D01*
X150143228Y-68911853D01*
X149958825Y-68635875D01*
X149724125Y-68401175D01*
X149448147Y-68216772D01*
X149141496Y-68089754D01*
X148815958Y-68025000D01*
X148484042Y-68025000D01*
X148158504Y-68089754D01*
X147851853Y-68216772D01*
X147575875Y-68401175D01*
X147341175Y-68635875D01*
X147156772Y-68911853D01*
X147029754Y-69218504D01*
X146965000Y-69544042D01*
X132855046Y-69544042D01*
X132700806Y-69389803D01*
X132677003Y-69360799D01*
X132561278Y-69265826D01*
X132429249Y-69195254D01*
X132285988Y-69151797D01*
X132174335Y-69140800D01*
X132174324Y-69140800D01*
X132137002Y-69137124D01*
X132099680Y-69140800D01*
X126281311Y-69140800D01*
X126237374Y-69096863D01*
X126067856Y-68983595D01*
X125879498Y-68905574D01*
X125679539Y-68865800D01*
X125475661Y-68865800D01*
X125275702Y-68905574D01*
X125087344Y-68983595D01*
X124917826Y-69096863D01*
X124773663Y-69241026D01*
X124660395Y-69410544D01*
X124582374Y-69598902D01*
X124542600Y-69798861D01*
X124542600Y-70002739D01*
X124564219Y-70111427D01*
X116561985Y-70111427D01*
X116561774Y-70111170D01*
X116532782Y-70087377D01*
X115770604Y-69325201D01*
X115746802Y-69296198D01*
X115631077Y-69201225D01*
X115499048Y-69130653D01*
X115355787Y-69087196D01*
X115244134Y-69076199D01*
X115244123Y-69076199D01*
X115206801Y-69072523D01*
X115169479Y-69076199D01*
X114548124Y-69076199D01*
X114510799Y-69072523D01*
X114473474Y-69076199D01*
X114473466Y-69076199D01*
X114361813Y-69087196D01*
X114218552Y-69130653D01*
X114086523Y-69201225D01*
X113970798Y-69296198D01*
X113947000Y-69325196D01*
X110880197Y-72392000D01*
X109784802Y-72392000D01*
X110061998Y-72114803D01*
X110113261Y-72125000D01*
X110317139Y-72125000D01*
X110517098Y-72085226D01*
X110705456Y-72007205D01*
X110874974Y-71893937D01*
X111019137Y-71749774D01*
X111132405Y-71580256D01*
X111210426Y-71391898D01*
X111250200Y-71191939D01*
X111250200Y-70988061D01*
X111210426Y-70788102D01*
X111132405Y-70599744D01*
X111019137Y-70430226D01*
X110874974Y-70286063D01*
X110705456Y-70172795D01*
X110517098Y-70094774D01*
X110317139Y-70055000D01*
X110113261Y-70055000D01*
X109913302Y-70094774D01*
X109724944Y-70172795D01*
X109555426Y-70286063D01*
X109411263Y-70430226D01*
X109297995Y-70599744D01*
X109219974Y-70788102D01*
X109215226Y-70811972D01*
X107439003Y-72588196D01*
X107409999Y-72611999D01*
X107386201Y-72640997D01*
X105979799Y-74047400D01*
X105917661Y-74047400D01*
X105717702Y-74087174D01*
X105529344Y-74165195D01*
X105359826Y-74278463D01*
X105215663Y-74422626D01*
X105102395Y-74592144D01*
X105024374Y-74780502D01*
X104984600Y-74980461D01*
X104984600Y-75184339D01*
X105024374Y-75384298D01*
X105102395Y-75572656D01*
X105215663Y-75742174D01*
X105359826Y-75886337D01*
X105529344Y-75999605D01*
X105717702Y-76077626D01*
X105917661Y-76117400D01*
X106121539Y-76117400D01*
X106321498Y-76077626D01*
X106509856Y-75999605D01*
X106679374Y-75886337D01*
X106823537Y-75742174D01*
X106936805Y-75572656D01*
X107014826Y-75384298D01*
X107054600Y-75184339D01*
X107054600Y-75122201D01*
X108264802Y-73912000D01*
X111157676Y-73912000D01*
X111194998Y-73915676D01*
X111232320Y-73912000D01*
X111232331Y-73912000D01*
X111343984Y-73901003D01*
X111487245Y-73857546D01*
X111619274Y-73786974D01*
X111734999Y-73692001D01*
X111758802Y-73662997D01*
X114098800Y-71323000D01*
X114098801Y-78194657D01*
X114095123Y-78232000D01*
X114098800Y-78269333D01*
X114098800Y-78753478D01*
X114095124Y-78790800D01*
X114098800Y-78828122D01*
X114098800Y-78828133D01*
X114109797Y-78939786D01*
X114153254Y-79083047D01*
X114165516Y-79105986D01*
X114223826Y-79215076D01*
X114230200Y-79222843D01*
X114230200Y-79238489D01*
X114096174Y-79104463D01*
X113926656Y-78991195D01*
X113738298Y-78913174D01*
X113538339Y-78873400D01*
X113334461Y-78873400D01*
X113134502Y-78913174D01*
X112946144Y-78991195D01*
X112776626Y-79104463D01*
X112632463Y-79248626D01*
X112519195Y-79418144D01*
X112441174Y-79606502D01*
X112401400Y-79806461D01*
X112401400Y-80010339D01*
X112441174Y-80210298D01*
X112519195Y-80398656D01*
X112632463Y-80568174D01*
X112776626Y-80712337D01*
X112946144Y-80825605D01*
X113134502Y-80903626D01*
X113334461Y-80943400D01*
X113410757Y-80943400D01*
X113418524Y-80949774D01*
X113550553Y-81020346D01*
X113693814Y-81063803D01*
X113805467Y-81074800D01*
X113805476Y-81074800D01*
X113842799Y-81078476D01*
X113880122Y-81074800D01*
X118713598Y-81074800D01*
X108570599Y-91217800D01*
X108508461Y-91217800D01*
X108308502Y-91257574D01*
X108120144Y-91335595D01*
X107950626Y-91448863D01*
X107879444Y-91520045D01*
X103898401Y-87539002D01*
X103874598Y-87509998D01*
X103758873Y-87415025D01*
X103626844Y-87344453D01*
X103483583Y-87300996D01*
X103371930Y-87289999D01*
X103371919Y-87289999D01*
X103334597Y-87286323D01*
X103297275Y-87289999D01*
X100271722Y-87289999D01*
X100234399Y-87286323D01*
X100197077Y-87289999D01*
X100197066Y-87289999D01*
X100085413Y-87300996D01*
X99942152Y-87344453D01*
X99810123Y-87415025D01*
X99694398Y-87509998D01*
X99670595Y-87539002D01*
X99658397Y-87551200D01*
X99629399Y-87574998D01*
X99605601Y-87603996D01*
X99605600Y-87603997D01*
X99534425Y-87690723D01*
X99463853Y-87822753D01*
X99440114Y-87901013D01*
X99425586Y-87948909D01*
X99420397Y-87966014D01*
X99405723Y-88114999D01*
X99409400Y-88152331D01*
X99409399Y-93223276D01*
X99405723Y-93260599D01*
X99409399Y-93297921D01*
X99409399Y-93297931D01*
X99420396Y-93409584D01*
X99454842Y-93523139D01*
X99463853Y-93552845D01*
X99534425Y-93684875D01*
X99557873Y-93713446D01*
X99599800Y-93764534D01*
X99599800Y-93827939D01*
X99639574Y-94027898D01*
X99717595Y-94216256D01*
X99830863Y-94385774D01*
X99975026Y-94529937D01*
X100144544Y-94643205D01*
X100332902Y-94721226D01*
X100532861Y-94761000D01*
X100736739Y-94761000D01*
X100936698Y-94721226D01*
X101125056Y-94643205D01*
X101294574Y-94529937D01*
X101438737Y-94385774D01*
X101500004Y-94294082D01*
X101548861Y-94303800D01*
X101610999Y-94303800D01*
X106157199Y-98850000D01*
X100137875Y-104869325D01*
X100137785Y-104869215D01*
X100041094Y-104789863D01*
X99930780Y-104730898D01*
X99811082Y-104694588D01*
X99686600Y-104682328D01*
X98636600Y-104682328D01*
X98512118Y-104694588D01*
X98392420Y-104730898D01*
X98327698Y-104765493D01*
X98119000Y-104702185D01*
X97891600Y-104679788D01*
X97664201Y-104702185D01*
X97445541Y-104768515D01*
X97256601Y-104869506D01*
X97067660Y-104768515D01*
X96849000Y-104702185D01*
X96621600Y-104679788D01*
X96394201Y-104702185D01*
X96175541Y-104768515D01*
X95974022Y-104876229D01*
X95797389Y-105021188D01*
X95656000Y-105193471D01*
X95656000Y-102028619D01*
X95703229Y-102116978D01*
X95848188Y-102293612D01*
X96024821Y-102438571D01*
X96226340Y-102546285D01*
X96445000Y-102612615D01*
X96672400Y-102635012D01*
X96899799Y-102612615D01*
X97118459Y-102546285D01*
X97307399Y-102445294D01*
X97496340Y-102546285D01*
X97715000Y-102612615D01*
X97942400Y-102635012D01*
X98169799Y-102612615D01*
X98378498Y-102549307D01*
X98443220Y-102583902D01*
X98562918Y-102620212D01*
X98687400Y-102632472D01*
X99737400Y-102632472D01*
X99861882Y-102620212D01*
X99981580Y-102583902D01*
X100091894Y-102524937D01*
X100188585Y-102445585D01*
X100267937Y-102348894D01*
X100326902Y-102238580D01*
X100363212Y-102118882D01*
X100375472Y-101994400D01*
X100375472Y-100494400D01*
X100363212Y-100369918D01*
X100326902Y-100250220D01*
X100267937Y-100139906D01*
X100188585Y-100043215D01*
X100091894Y-99963863D01*
X99981580Y-99904898D01*
X99861882Y-99868588D01*
X99737400Y-99856328D01*
X98687400Y-99856328D01*
X98562918Y-99868588D01*
X98443220Y-99904898D01*
X98378498Y-99939493D01*
X98169800Y-99876185D01*
X98013237Y-99860765D01*
X98968402Y-98905600D01*
X99423089Y-98905600D01*
X99467026Y-98949537D01*
X99636544Y-99062805D01*
X99824902Y-99140826D01*
X100024861Y-99180600D01*
X100228739Y-99180600D01*
X100428698Y-99140826D01*
X100617056Y-99062805D01*
X100786574Y-98949537D01*
X100930737Y-98805374D01*
X101044005Y-98635856D01*
X101122026Y-98447498D01*
X101161800Y-98247539D01*
X101161800Y-98043661D01*
X101122026Y-97843702D01*
X101044005Y-97655344D01*
X100930737Y-97485826D01*
X100786574Y-97341663D01*
X100617056Y-97228395D01*
X100428698Y-97150374D01*
X100228739Y-97110600D01*
X100024861Y-97110600D01*
X99824902Y-97150374D01*
X99636544Y-97228395D01*
X99467026Y-97341663D01*
X99423089Y-97385600D01*
X98690925Y-97385600D01*
X98653600Y-97381924D01*
X98616275Y-97385600D01*
X98616267Y-97385600D01*
X98504614Y-97396597D01*
X98361353Y-97440054D01*
X98229324Y-97510626D01*
X98113599Y-97605599D01*
X98089801Y-97634597D01*
X96886599Y-98837800D01*
X96824461Y-98837800D01*
X96624502Y-98877574D01*
X96436144Y-98955595D01*
X96266626Y-99068863D01*
X96122463Y-99213026D01*
X96009195Y-99382544D01*
X95931174Y-99570902D01*
X95891400Y-99770861D01*
X95891400Y-99974739D01*
X95923032Y-100133766D01*
X95848189Y-100195188D01*
X95703230Y-100371821D01*
X95656000Y-100460181D01*
X95656000Y-93254249D01*
X95724195Y-93282496D01*
X95982114Y-93333800D01*
X96245086Y-93333800D01*
X96503005Y-93282496D01*
X96745959Y-93181861D01*
X96964613Y-93035762D01*
X97150562Y-92849813D01*
X97296661Y-92631159D01*
X97397296Y-92388205D01*
X97448600Y-92130286D01*
X97448600Y-91867314D01*
X97397296Y-91609395D01*
X97296661Y-91366441D01*
X97150562Y-91147787D01*
X96964613Y-90961838D01*
X96745959Y-90815739D01*
X96503005Y-90715104D01*
X96245086Y-90663800D01*
X95982114Y-90663800D01*
X95724195Y-90715104D01*
X95656000Y-90743351D01*
X95656000Y-88762807D01*
X95774995Y-88812096D01*
X96032914Y-88863400D01*
X96295886Y-88863400D01*
X96553805Y-88812096D01*
X96796759Y-88711461D01*
X97015413Y-88565362D01*
X97201362Y-88379413D01*
X97347461Y-88160759D01*
X97448096Y-87917805D01*
X97499400Y-87659886D01*
X97499400Y-87396914D01*
X97448096Y-87138995D01*
X97347461Y-86896041D01*
X97201362Y-86677387D01*
X97015413Y-86491438D01*
X96796759Y-86345339D01*
X96553805Y-86244704D01*
X96295886Y-86193400D01*
X96032914Y-86193400D01*
X95774995Y-86244704D01*
X95656000Y-86293993D01*
X95656000Y-85902800D01*
X99904588Y-85902800D01*
X99926985Y-86130200D01*
X99993315Y-86348860D01*
X100101029Y-86550379D01*
X100245988Y-86727012D01*
X100422621Y-86871971D01*
X100624140Y-86979685D01*
X100842800Y-87046015D01*
X101013221Y-87062800D01*
X101577179Y-87062800D01*
X101747600Y-87046015D01*
X101966260Y-86979685D01*
X102167779Y-86871971D01*
X102344412Y-86727012D01*
X102489371Y-86550379D01*
X102597085Y-86348860D01*
X102663415Y-86130200D01*
X102685812Y-85902800D01*
X102663415Y-85675400D01*
X102597085Y-85456740D01*
X102496271Y-85268131D01*
X102537475Y-85209682D01*
X102630472Y-85000137D01*
X102639164Y-84938610D01*
X102513363Y-84759800D01*
X101748309Y-84759800D01*
X101747600Y-84759585D01*
X101577179Y-84742800D01*
X101013221Y-84742800D01*
X100842800Y-84759585D01*
X100842091Y-84759800D01*
X100077037Y-84759800D01*
X99951236Y-84938610D01*
X99959928Y-85000137D01*
X100052925Y-85209682D01*
X100094129Y-85268131D01*
X99993315Y-85456740D01*
X99926985Y-85675400D01*
X99904588Y-85902800D01*
X95656000Y-85902800D01*
X95656000Y-84190807D01*
X95774995Y-84240096D01*
X96032914Y-84291400D01*
X96295886Y-84291400D01*
X96553805Y-84240096D01*
X96796759Y-84139461D01*
X97015413Y-83993362D01*
X97201362Y-83807413D01*
X97347461Y-83588759D01*
X97448096Y-83345805D01*
X97499400Y-83087886D01*
X97499400Y-82837800D01*
X99907128Y-82837800D01*
X99907128Y-83887800D01*
X99919388Y-84012282D01*
X99955698Y-84131980D01*
X99990376Y-84196857D01*
X99959928Y-84265463D01*
X99951236Y-84326990D01*
X100077037Y-84505800D01*
X100394965Y-84505800D01*
X100420718Y-84513612D01*
X100545200Y-84525872D01*
X102045200Y-84525872D01*
X102169682Y-84513612D01*
X102195435Y-84505800D01*
X102513363Y-84505800D01*
X102639164Y-84326990D01*
X102630472Y-84265463D01*
X102600024Y-84196857D01*
X102634702Y-84131980D01*
X102671012Y-84012282D01*
X102683272Y-83887800D01*
X102683272Y-83232934D01*
X102726463Y-83297574D01*
X102770400Y-83341511D01*
X102770401Y-84392268D01*
X102766724Y-84429600D01*
X102770401Y-84466933D01*
X102781398Y-84578586D01*
X102787666Y-84599249D01*
X102824854Y-84721846D01*
X102851000Y-84770761D01*
X102851000Y-84887139D01*
X102890774Y-85087098D01*
X102968795Y-85275456D01*
X103082063Y-85444974D01*
X103226226Y-85589137D01*
X103395744Y-85702405D01*
X103584102Y-85780426D01*
X103784061Y-85820200D01*
X103987939Y-85820200D01*
X104187898Y-85780426D01*
X104376256Y-85702405D01*
X104545774Y-85589137D01*
X104689937Y-85444974D01*
X104803205Y-85275456D01*
X104844263Y-85176334D01*
X104920305Y-85318600D01*
X104819315Y-85507540D01*
X104752985Y-85726200D01*
X104730588Y-85953600D01*
X104752985Y-86181000D01*
X104819315Y-86399660D01*
X104927029Y-86601179D01*
X105071988Y-86777812D01*
X105248621Y-86922771D01*
X105450140Y-87030485D01*
X105668800Y-87096815D01*
X105839221Y-87113600D01*
X106403179Y-87113600D01*
X106573600Y-87096815D01*
X106792260Y-87030485D01*
X106993779Y-86922771D01*
X107170412Y-86777812D01*
X107315371Y-86601179D01*
X107423085Y-86399660D01*
X107489415Y-86181000D01*
X107511812Y-85953600D01*
X107489415Y-85726200D01*
X107423085Y-85507540D01*
X107322095Y-85318600D01*
X107423085Y-85129660D01*
X107489415Y-84911000D01*
X107511812Y-84683600D01*
X107489415Y-84456200D01*
X107426107Y-84247502D01*
X107460702Y-84182780D01*
X107497012Y-84063082D01*
X107509272Y-83938600D01*
X107509272Y-82888600D01*
X107497012Y-82764118D01*
X107460702Y-82644420D01*
X107401737Y-82534106D01*
X107322385Y-82437415D01*
X107225694Y-82358063D01*
X107115380Y-82299098D01*
X106995682Y-82262788D01*
X106871200Y-82250528D01*
X105371200Y-82250528D01*
X105246718Y-82262788D01*
X105127020Y-82299098D01*
X105016706Y-82358063D01*
X104920015Y-82437415D01*
X104840663Y-82534106D01*
X104781698Y-82644420D01*
X104745388Y-82764118D01*
X104733128Y-82888600D01*
X104733128Y-83938600D01*
X104745388Y-84063082D01*
X104781698Y-84182780D01*
X104816293Y-84247502D01*
X104802309Y-84293602D01*
X104689937Y-84125426D01*
X104545774Y-83981263D01*
X104376256Y-83867995D01*
X104290400Y-83832432D01*
X104290400Y-83341511D01*
X104334337Y-83297574D01*
X104447605Y-83128056D01*
X104525626Y-82939698D01*
X104565400Y-82739739D01*
X104565400Y-82535861D01*
X104525626Y-82335902D01*
X104447605Y-82147544D01*
X104334337Y-81978026D01*
X104190174Y-81833863D01*
X104020656Y-81720595D01*
X103832298Y-81642574D01*
X103632339Y-81602800D01*
X103428461Y-81602800D01*
X103228502Y-81642574D01*
X103040144Y-81720595D01*
X102870626Y-81833863D01*
X102726463Y-81978026D01*
X102613195Y-82147544D01*
X102535174Y-82335902D01*
X102519487Y-82414765D01*
X102496385Y-82386615D01*
X102399694Y-82307263D01*
X102289380Y-82248298D01*
X102169682Y-82211988D01*
X102045200Y-82199728D01*
X100545200Y-82199728D01*
X100420718Y-82211988D01*
X100301020Y-82248298D01*
X100190706Y-82307263D01*
X100094015Y-82386615D01*
X100014663Y-82483306D01*
X99955698Y-82593620D01*
X99919388Y-82713318D01*
X99907128Y-82837800D01*
X97499400Y-82837800D01*
X97499400Y-82824914D01*
X97448096Y-82566995D01*
X97347461Y-82324041D01*
X97201362Y-82105387D01*
X97015413Y-81919438D01*
X96796759Y-81773339D01*
X96553805Y-81672704D01*
X96295886Y-81621400D01*
X96032914Y-81621400D01*
X95774995Y-81672704D01*
X95656000Y-81721993D01*
X95656000Y-79669607D01*
X95774995Y-79718896D01*
X96032914Y-79770200D01*
X96295886Y-79770200D01*
X96553805Y-79718896D01*
X96796759Y-79618261D01*
X97015413Y-79472162D01*
X97201362Y-79286213D01*
X97347461Y-79067559D01*
X97448096Y-78824605D01*
X97499400Y-78566686D01*
X97499400Y-78303714D01*
X97448096Y-78045795D01*
X97347461Y-77802841D01*
X97201362Y-77584187D01*
X97015413Y-77398238D01*
X96796759Y-77252139D01*
X96553805Y-77151504D01*
X96295886Y-77100200D01*
X96032914Y-77100200D01*
X95774995Y-77151504D01*
X95656000Y-77200793D01*
X95656000Y-75199207D01*
X95774995Y-75248496D01*
X96032914Y-75299800D01*
X96295886Y-75299800D01*
X96553805Y-75248496D01*
X96796759Y-75147861D01*
X97015413Y-75001762D01*
X97201362Y-74815813D01*
X97347461Y-74597159D01*
X97448096Y-74354205D01*
X97499400Y-74096286D01*
X97499400Y-73880494D01*
X97553744Y-73916805D01*
X97742102Y-73994826D01*
X97942061Y-74034600D01*
X98145939Y-74034600D01*
X98345898Y-73994826D01*
X98534256Y-73916805D01*
X98703774Y-73803537D01*
X98748625Y-73758686D01*
X98725174Y-73815302D01*
X98685400Y-74015261D01*
X98685400Y-74219139D01*
X98725174Y-74419098D01*
X98803195Y-74607456D01*
X98916463Y-74776974D01*
X99060626Y-74921137D01*
X99230144Y-75034405D01*
X99418502Y-75112426D01*
X99618461Y-75152200D01*
X99822339Y-75152200D01*
X100022298Y-75112426D01*
X100210656Y-75034405D01*
X100380174Y-74921137D01*
X100524337Y-74776974D01*
X100637605Y-74607456D01*
X100715626Y-74419098D01*
X100755400Y-74219139D01*
X100755400Y-74157001D01*
X106232802Y-68679600D01*
X107957489Y-68679600D01*
X108001426Y-68723537D01*
X108170944Y-68836805D01*
X108359302Y-68914826D01*
X108559261Y-68954600D01*
X108763139Y-68954600D01*
X108963098Y-68914826D01*
X109151456Y-68836805D01*
X109320974Y-68723537D01*
X109465137Y-68579374D01*
X109578405Y-68409856D01*
X109656426Y-68221498D01*
X109696200Y-68021539D01*
X109696200Y-67970000D01*
X139445489Y-67970000D01*
X150360001Y-67992632D01*
%TA.AperFunction,Conductor*%
D23*
G36*
X150360001Y-67992632D02*
G01*
X150360000Y-108329717D01*
X139000599Y-108324851D01*
X139093205Y-108186256D01*
X139171226Y-107997898D01*
X139211000Y-107797939D01*
X139211000Y-107594061D01*
X139171226Y-107394102D01*
X139093205Y-107205744D01*
X138979937Y-107036226D01*
X138835774Y-106892063D01*
X138666256Y-106778795D01*
X138477898Y-106700774D01*
X138277939Y-106661000D01*
X138074061Y-106661000D01*
X137874102Y-106700774D01*
X137685744Y-106778795D01*
X137516226Y-106892063D01*
X137372063Y-107036226D01*
X137258795Y-107205744D01*
X137225000Y-107287332D01*
X137225000Y-107158114D01*
X137173696Y-106900195D01*
X137073061Y-106657241D01*
X136926962Y-106438587D01*
X136862417Y-106374042D01*
X146895000Y-106374042D01*
X146895000Y-106705958D01*
X146959754Y-107031496D01*
X147086772Y-107338147D01*
X147271175Y-107614125D01*
X147505875Y-107848825D01*
X147781853Y-108033228D01*
X148088504Y-108160246D01*
X148414042Y-108225000D01*
X148745958Y-108225000D01*
X149071496Y-108160246D01*
X149378147Y-108033228D01*
X149654125Y-107848825D01*
X149888825Y-107614125D01*
X150073228Y-107338147D01*
X150200246Y-107031496D01*
X150265000Y-106705958D01*
X150265000Y-106374042D01*
X150200246Y-106048504D01*
X150073228Y-105741853D01*
X149888825Y-105465875D01*
X149654125Y-105231175D01*
X149378147Y-105046772D01*
X149071496Y-104919754D01*
X148745958Y-104855000D01*
X148414042Y-104855000D01*
X148088504Y-104919754D01*
X147781853Y-105046772D01*
X147505875Y-105231175D01*
X147271175Y-105465875D01*
X147086772Y-105741853D01*
X146959754Y-106048504D01*
X146895000Y-106374042D01*
X136862417Y-106374042D01*
X136857778Y-106369403D01*
X137045813Y-106243762D01*
X137231762Y-106057813D01*
X137377861Y-105839159D01*
X137478496Y-105596205D01*
X137529800Y-105338286D01*
X137529800Y-105075314D01*
X137497515Y-104913009D01*
X141982806Y-104913009D01*
X142547400Y-105477603D01*
X142571198Y-105506602D01*
X142686923Y-105601575D01*
X142818952Y-105672147D01*
X142962213Y-105715604D01*
X143073866Y-105726601D01*
X143073876Y-105726601D01*
X143111199Y-105730277D01*
X143148522Y-105726601D01*
X143769879Y-105726601D01*
X143807201Y-105730277D01*
X143844523Y-105726601D01*
X143844534Y-105726601D01*
X143956187Y-105715604D01*
X144099448Y-105672147D01*
X144231477Y-105601575D01*
X144347202Y-105506602D01*
X144371005Y-105477598D01*
X144695199Y-105153404D01*
X144724202Y-105129602D01*
X144819175Y-105013877D01*
X144889747Y-104881848D01*
X144933204Y-104738587D01*
X144944201Y-104626934D01*
X144944201Y-104626933D01*
X144947878Y-104589601D01*
X144944201Y-104552268D01*
X144944201Y-103930921D01*
X144947877Y-103893598D01*
X144944201Y-103856275D01*
X144944201Y-103856266D01*
X144933204Y-103744613D01*
X144889747Y-103601352D01*
X144819175Y-103469323D01*
X144756546Y-103393009D01*
X144748000Y-103382595D01*
X144747996Y-103382591D01*
X144724202Y-103353598D01*
X144695209Y-103329804D01*
X137032397Y-95666994D01*
X137008594Y-95637990D01*
X136892869Y-95543017D01*
X136760840Y-95472445D01*
X136617579Y-95428988D01*
X136505926Y-95417991D01*
X136505915Y-95417991D01*
X136468593Y-95414315D01*
X136431271Y-95417991D01*
X135901591Y-95417991D01*
X135901591Y-94931648D01*
X135937898Y-94924426D01*
X136126256Y-94846405D01*
X136295774Y-94733137D01*
X136439937Y-94588974D01*
X136553205Y-94419456D01*
X136631226Y-94231098D01*
X136671000Y-94031139D01*
X136671000Y-93827261D01*
X136631226Y-93627302D01*
X136553205Y-93438944D01*
X136439937Y-93269426D01*
X136295774Y-93125263D01*
X136126256Y-93011995D01*
X135937898Y-92933974D01*
X135737939Y-92894200D01*
X135649952Y-92894200D01*
X135649952Y-92396800D01*
X135765579Y-92396800D01*
X135936000Y-92380015D01*
X136154660Y-92313685D01*
X136356179Y-92205971D01*
X136532812Y-92061012D01*
X136677771Y-91884379D01*
X136785485Y-91682860D01*
X136851815Y-91464200D01*
X136874212Y-91236800D01*
X136851815Y-91009400D01*
X136785485Y-90790740D01*
X136684495Y-90601800D01*
X136785485Y-90412860D01*
X136851815Y-90194200D01*
X136874212Y-89966800D01*
X136851815Y-89739400D01*
X136788507Y-89530702D01*
X136823102Y-89465980D01*
X136859412Y-89346282D01*
X136871672Y-89221800D01*
X136871672Y-88171800D01*
X136859412Y-88047318D01*
X136823102Y-87927620D01*
X136764137Y-87817306D01*
X136684785Y-87720615D01*
X136588094Y-87641263D01*
X136477780Y-87582298D01*
X136358082Y-87545988D01*
X136233600Y-87533728D01*
X134733600Y-87533728D01*
X134609118Y-87545988D01*
X134489420Y-87582298D01*
X134379106Y-87641263D01*
X134282415Y-87720615D01*
X134203063Y-87817306D01*
X134144098Y-87927620D01*
X134107788Y-88047318D01*
X134095528Y-88171800D01*
X134095528Y-89221800D01*
X134107788Y-89346282D01*
X134144098Y-89465980D01*
X134178693Y-89530702D01*
X134115385Y-89739400D01*
X134092988Y-89966800D01*
X134115385Y-90194200D01*
X134127001Y-90232494D01*
X130455707Y-86561200D01*
X131173089Y-86561200D01*
X131217026Y-86605137D01*
X131386544Y-86718405D01*
X131574902Y-86796426D01*
X131774861Y-86836200D01*
X131978739Y-86836200D01*
X132178698Y-86796426D01*
X132367056Y-86718405D01*
X132536574Y-86605137D01*
X132680737Y-86460974D01*
X132794005Y-86291456D01*
X132872026Y-86103098D01*
X132911800Y-85903139D01*
X132911800Y-85699261D01*
X132872026Y-85499302D01*
X132794005Y-85310944D01*
X132718365Y-85197740D01*
X139993000Y-85197740D01*
X139993000Y-85490260D01*
X140050068Y-85777158D01*
X140162010Y-86047411D01*
X140324525Y-86290632D01*
X140531368Y-86497475D01*
X140705760Y-86614000D01*
X140531368Y-86730525D01*
X140324525Y-86937368D01*
X140162010Y-87180589D01*
X140050068Y-87450842D01*
X139993000Y-87737740D01*
X139993000Y-88030260D01*
X140050068Y-88317158D01*
X140162010Y-88587411D01*
X140324525Y-88830632D01*
X140531368Y-89037475D01*
X140705760Y-89154000D01*
X140531368Y-89270525D01*
X140324525Y-89477368D01*
X140162010Y-89720589D01*
X140050068Y-89990842D01*
X139993000Y-90277740D01*
X139993000Y-90570260D01*
X140050068Y-90857158D01*
X140162010Y-91127411D01*
X140324525Y-91370632D01*
X140531368Y-91577475D01*
X140705760Y-91694000D01*
X140531368Y-91810525D01*
X140324525Y-92017368D01*
X140162010Y-92260589D01*
X140050068Y-92530842D01*
X139993000Y-92817740D01*
X139993000Y-93110260D01*
X140050068Y-93397158D01*
X140162010Y-93667411D01*
X140324525Y-93910632D01*
X140531368Y-94117475D01*
X140774589Y-94279990D01*
X141044842Y-94391932D01*
X141331740Y-94449000D01*
X141624260Y-94449000D01*
X141911158Y-94391932D01*
X142181411Y-94279990D01*
X142424632Y-94117475D01*
X142631475Y-93910632D01*
X142748000Y-93736240D01*
X142864525Y-93910632D01*
X143071368Y-94117475D01*
X143314589Y-94279990D01*
X143584842Y-94391932D01*
X143871740Y-94449000D01*
X144164260Y-94449000D01*
X144451158Y-94391932D01*
X144721411Y-94279990D01*
X144964632Y-94117475D01*
X145171475Y-93910632D01*
X145333990Y-93667411D01*
X145445932Y-93397158D01*
X145503000Y-93110260D01*
X145503000Y-92817740D01*
X145445932Y-92530842D01*
X145333990Y-92260589D01*
X145171475Y-92017368D01*
X144964632Y-91810525D01*
X144790240Y-91694000D01*
X144964632Y-91577475D01*
X145171475Y-91370632D01*
X145333990Y-91127411D01*
X145445932Y-90857158D01*
X145503000Y-90570260D01*
X145503000Y-90277740D01*
X145445932Y-89990842D01*
X145333990Y-89720589D01*
X145171475Y-89477368D01*
X144964632Y-89270525D01*
X144790240Y-89154000D01*
X144964632Y-89037475D01*
X145171475Y-88830632D01*
X145333990Y-88587411D01*
X145445932Y-88317158D01*
X145503000Y-88030260D01*
X145503000Y-87737740D01*
X145445932Y-87450842D01*
X145333990Y-87180589D01*
X145171475Y-86937368D01*
X144964632Y-86730525D01*
X144790240Y-86614000D01*
X144964632Y-86497475D01*
X145171475Y-86290632D01*
X145333990Y-86047411D01*
X145445932Y-85777158D01*
X145503000Y-85490260D01*
X145503000Y-85197740D01*
X145445932Y-84910842D01*
X145333990Y-84640589D01*
X145171475Y-84397368D01*
X144964632Y-84190525D01*
X144782466Y-84068805D01*
X144899355Y-83999178D01*
X145115588Y-83804269D01*
X145289641Y-83570920D01*
X145414825Y-83308099D01*
X145459476Y-83160890D01*
X145338155Y-82931000D01*
X144145000Y-82931000D01*
X144145000Y-82951000D01*
X143891000Y-82951000D01*
X143891000Y-82931000D01*
X141605000Y-82931000D01*
X141605000Y-82951000D01*
X141351000Y-82951000D01*
X141351000Y-82931000D01*
X140157845Y-82931000D01*
X140036524Y-83160890D01*
X140081175Y-83308099D01*
X140206359Y-83570920D01*
X140380412Y-83804269D01*
X140596645Y-83999178D01*
X140713534Y-84068805D01*
X140531368Y-84190525D01*
X140324525Y-84397368D01*
X140162010Y-84640589D01*
X140050068Y-84910842D01*
X139993000Y-85197740D01*
X132718365Y-85197740D01*
X132680737Y-85141426D01*
X132536574Y-84997263D01*
X132367056Y-84883995D01*
X132178698Y-84805974D01*
X131978739Y-84766200D01*
X131774861Y-84766200D01*
X131574902Y-84805974D01*
X131386544Y-84883995D01*
X131217026Y-84997263D01*
X131173089Y-85041200D01*
X130037613Y-85041200D01*
X130050805Y-85021456D01*
X130128826Y-84833098D01*
X130168600Y-84633139D01*
X130168600Y-84429261D01*
X130128826Y-84229302D01*
X130050805Y-84040944D01*
X130005084Y-83972517D01*
X130457402Y-83520199D01*
X130486401Y-83496401D01*
X130510204Y-83467397D01*
X132119802Y-81857800D01*
X132181939Y-81857800D01*
X132381898Y-81818026D01*
X132570256Y-81740005D01*
X132739774Y-81626737D01*
X132883937Y-81482574D01*
X132997205Y-81313056D01*
X133075226Y-81124698D01*
X133115000Y-80924739D01*
X133115000Y-80720861D01*
X133075226Y-80520902D01*
X132997205Y-80332544D01*
X132883937Y-80163026D01*
X132739774Y-80018863D01*
X132570256Y-79905595D01*
X132381898Y-79827574D01*
X132181939Y-79787800D01*
X131978061Y-79787800D01*
X131778102Y-79827574D01*
X131589744Y-79905595D01*
X131420226Y-80018863D01*
X131276063Y-80163026D01*
X131162795Y-80332544D01*
X131084774Y-80520902D01*
X131045000Y-80720861D01*
X131045000Y-80782998D01*
X129946400Y-81881598D01*
X127506811Y-79442010D01*
X128171963Y-79442010D01*
X128209285Y-79445686D01*
X128246607Y-79442010D01*
X128246618Y-79442010D01*
X128358271Y-79431013D01*
X128501532Y-79387556D01*
X128633561Y-79316984D01*
X128749286Y-79222011D01*
X128773089Y-79193007D01*
X130394490Y-77571606D01*
X130392914Y-77587608D01*
X130396591Y-77624940D01*
X130396591Y-77846478D01*
X130352653Y-77890416D01*
X130239385Y-78059934D01*
X130161364Y-78248292D01*
X130121590Y-78448251D01*
X130121590Y-78652129D01*
X130161364Y-78852088D01*
X130239385Y-79040446D01*
X130352653Y-79209964D01*
X130496816Y-79354127D01*
X130666334Y-79467395D01*
X130854692Y-79545416D01*
X131054651Y-79585190D01*
X131258529Y-79585190D01*
X131458488Y-79545416D01*
X131646846Y-79467395D01*
X131816364Y-79354127D01*
X131960527Y-79209964D01*
X132031781Y-79103325D01*
X132046195Y-79109296D01*
X132304114Y-79160600D01*
X132567086Y-79160600D01*
X132825005Y-79109296D01*
X133067959Y-79008661D01*
X133187480Y-78928800D01*
X134707528Y-78928800D01*
X134719788Y-79053282D01*
X134756098Y-79172980D01*
X134815063Y-79283294D01*
X134894415Y-79379985D01*
X134991106Y-79459337D01*
X135101420Y-79518302D01*
X135119727Y-79523856D01*
X135053288Y-79590295D01*
X134885301Y-79841705D01*
X134769589Y-80121057D01*
X134710600Y-80417616D01*
X134710600Y-80719984D01*
X134769589Y-81016543D01*
X134885301Y-81295895D01*
X135053288Y-81547305D01*
X135267095Y-81761112D01*
X135518505Y-81929099D01*
X135797857Y-82044811D01*
X136094416Y-82103800D01*
X136202974Y-82103800D01*
X136019641Y-82179739D01*
X135800987Y-82325838D01*
X135615038Y-82511787D01*
X135468939Y-82730441D01*
X135368304Y-82973395D01*
X135317000Y-83231314D01*
X135317000Y-83494286D01*
X135368304Y-83752205D01*
X135468939Y-83995159D01*
X135615038Y-84213813D01*
X135800987Y-84399762D01*
X136019641Y-84545861D01*
X136262595Y-84646496D01*
X136520514Y-84697800D01*
X136783486Y-84697800D01*
X137041405Y-84646496D01*
X137284359Y-84545861D01*
X137503013Y-84399762D01*
X137688962Y-84213813D01*
X137835061Y-83995159D01*
X137935696Y-83752205D01*
X137987000Y-83494286D01*
X137987000Y-83231314D01*
X137935696Y-82973395D01*
X137835061Y-82730441D01*
X137688962Y-82511787D01*
X137503013Y-82325838D01*
X137284359Y-82179739D01*
X137041405Y-82079104D01*
X136783486Y-82027800D01*
X136734411Y-82027800D01*
X136972695Y-81929099D01*
X137224105Y-81761112D01*
X137437912Y-81547305D01*
X137605899Y-81295895D01*
X137721611Y-81016543D01*
X137780600Y-80719984D01*
X137780600Y-80620890D01*
X140036524Y-80620890D01*
X140081175Y-80768099D01*
X140206359Y-81030920D01*
X140380412Y-81264269D01*
X140596645Y-81459178D01*
X140722255Y-81534000D01*
X140596645Y-81608822D01*
X140380412Y-81803731D01*
X140206359Y-82037080D01*
X140081175Y-82299901D01*
X140036524Y-82447110D01*
X140157845Y-82677000D01*
X141351000Y-82677000D01*
X141351000Y-80391000D01*
X141605000Y-80391000D01*
X141605000Y-82677000D01*
X143891000Y-82677000D01*
X143891000Y-80391000D01*
X144145000Y-80391000D01*
X144145000Y-82677000D01*
X145338155Y-82677000D01*
X145459476Y-82447110D01*
X145414825Y-82299901D01*
X145289641Y-82037080D01*
X145115588Y-81803731D01*
X144899355Y-81608822D01*
X144773745Y-81534000D01*
X144899355Y-81459178D01*
X145115588Y-81264269D01*
X145289641Y-81030920D01*
X145414825Y-80768099D01*
X145459476Y-80620890D01*
X145338155Y-80391000D01*
X144145000Y-80391000D01*
X143891000Y-80391000D01*
X141605000Y-80391000D01*
X141351000Y-80391000D01*
X140157845Y-80391000D01*
X140036524Y-80620890D01*
X137780600Y-80620890D01*
X137780600Y-80417616D01*
X137721611Y-80121057D01*
X137605899Y-79841705D01*
X137437912Y-79590295D01*
X137371473Y-79523856D01*
X137389780Y-79518302D01*
X137500094Y-79459337D01*
X137596785Y-79379985D01*
X137676137Y-79283294D01*
X137735102Y-79172980D01*
X137771412Y-79053282D01*
X137783672Y-78928800D01*
X137780600Y-78314550D01*
X137621850Y-78155800D01*
X136372600Y-78155800D01*
X136372600Y-78175800D01*
X136118600Y-78175800D01*
X136118600Y-78155800D01*
X134869350Y-78155800D01*
X134710600Y-78314550D01*
X134707528Y-78928800D01*
X133187480Y-78928800D01*
X133286613Y-78862562D01*
X133472562Y-78676613D01*
X133618661Y-78457959D01*
X133719296Y-78215005D01*
X133745973Y-78080890D01*
X140036524Y-78080890D01*
X140081175Y-78228099D01*
X140206359Y-78490920D01*
X140380412Y-78724269D01*
X140596645Y-78919178D01*
X140722255Y-78994000D01*
X140596645Y-79068822D01*
X140380412Y-79263731D01*
X140206359Y-79497080D01*
X140081175Y-79759901D01*
X140036524Y-79907110D01*
X140157845Y-80137000D01*
X141351000Y-80137000D01*
X141351000Y-77851000D01*
X141605000Y-77851000D01*
X141605000Y-80137000D01*
X143891000Y-80137000D01*
X143891000Y-77851000D01*
X144145000Y-77851000D01*
X144145000Y-80137000D01*
X145338155Y-80137000D01*
X145459476Y-79907110D01*
X145414825Y-79759901D01*
X145289641Y-79497080D01*
X145115588Y-79263731D01*
X144899355Y-79068822D01*
X144773745Y-78994000D01*
X144899355Y-78919178D01*
X145115588Y-78724269D01*
X145289641Y-78490920D01*
X145414825Y-78228099D01*
X145459476Y-78080890D01*
X145338155Y-77851000D01*
X144145000Y-77851000D01*
X143891000Y-77851000D01*
X141605000Y-77851000D01*
X141351000Y-77851000D01*
X140157845Y-77851000D01*
X140036524Y-78080890D01*
X133745973Y-78080890D01*
X133770600Y-77957086D01*
X133770600Y-77694114D01*
X133719296Y-77436195D01*
X133618661Y-77193241D01*
X133575604Y-77128800D01*
X134707528Y-77128800D01*
X134710600Y-77743050D01*
X134869350Y-77901800D01*
X136118600Y-77901800D01*
X136118600Y-76652550D01*
X136372600Y-76652550D01*
X136372600Y-77901800D01*
X137621850Y-77901800D01*
X137780600Y-77743050D01*
X137783672Y-77128800D01*
X137771412Y-77004318D01*
X137735102Y-76884620D01*
X137676137Y-76774306D01*
X137596785Y-76677615D01*
X137500094Y-76598263D01*
X137389780Y-76539298D01*
X137270082Y-76502988D01*
X137145600Y-76490728D01*
X136531350Y-76493800D01*
X136372600Y-76652550D01*
X136118600Y-76652550D01*
X135959850Y-76493800D01*
X135345600Y-76490728D01*
X135221118Y-76502988D01*
X135101420Y-76539298D01*
X134991106Y-76598263D01*
X134894415Y-76677615D01*
X134815063Y-76774306D01*
X134756098Y-76884620D01*
X134719788Y-77004318D01*
X134707528Y-77128800D01*
X133575604Y-77128800D01*
X133472562Y-76974587D01*
X133286613Y-76788638D01*
X133133001Y-76685998D01*
X133875000Y-75944000D01*
X139989928Y-75944000D01*
X139989928Y-76034000D01*
X140002188Y-76158482D01*
X140038498Y-76278180D01*
X140097463Y-76388494D01*
X140176815Y-76485185D01*
X140273506Y-76564537D01*
X140383820Y-76623502D01*
X140464466Y-76647966D01*
X140380412Y-76723731D01*
X140206359Y-76957080D01*
X140081175Y-77219901D01*
X140036524Y-77367110D01*
X140157845Y-77597000D01*
X141351000Y-77597000D01*
X141351000Y-77577000D01*
X141605000Y-77577000D01*
X141605000Y-77597000D01*
X143891000Y-77597000D01*
X143891000Y-77577000D01*
X144145000Y-77577000D01*
X144145000Y-77597000D01*
X145338155Y-77597000D01*
X145459476Y-77367110D01*
X145414825Y-77219901D01*
X145289641Y-76957080D01*
X145115588Y-76723731D01*
X144899355Y-76528822D01*
X144782466Y-76459195D01*
X144964632Y-76337475D01*
X145171475Y-76130632D01*
X145333990Y-75887411D01*
X145445932Y-75617158D01*
X145503000Y-75330260D01*
X145503000Y-75037740D01*
X145445932Y-74750842D01*
X145333990Y-74480589D01*
X145171475Y-74237368D01*
X144964632Y-74030525D01*
X144721411Y-73868010D01*
X144451158Y-73756068D01*
X144164260Y-73699000D01*
X143871740Y-73699000D01*
X143584842Y-73756068D01*
X143314589Y-73868010D01*
X143071368Y-74030525D01*
X142939513Y-74162380D01*
X142917502Y-74089820D01*
X142858537Y-73979506D01*
X142779185Y-73882815D01*
X142682494Y-73803463D01*
X142572180Y-73744498D01*
X142452482Y-73708188D01*
X142328000Y-73695928D01*
X140628000Y-73695928D01*
X140503518Y-73708188D01*
X140383820Y-73744498D01*
X140273506Y-73803463D01*
X140176815Y-73882815D01*
X140097463Y-73979506D01*
X140038498Y-74089820D01*
X140002188Y-74209518D01*
X139989928Y-74334000D01*
X139989928Y-74424000D01*
X133597520Y-74424000D01*
X133560197Y-74420324D01*
X133544197Y-74421900D01*
X134230404Y-73735693D01*
X134259402Y-73711895D01*
X134354375Y-73596170D01*
X134424947Y-73464141D01*
X134468404Y-73320880D01*
X134479401Y-73209227D01*
X134479401Y-73209219D01*
X134483077Y-73171894D01*
X134479401Y-73134569D01*
X134479401Y-71520521D01*
X134483077Y-71483198D01*
X134479401Y-71445875D01*
X134479401Y-71445866D01*
X134468404Y-71334213D01*
X134424947Y-71190952D01*
X134414510Y-71171426D01*
X134354375Y-71058922D01*
X134283200Y-70972196D01*
X134259402Y-70943198D01*
X134230405Y-70919401D01*
X132855046Y-69544042D01*
X146965000Y-69544042D01*
X146965000Y-69875958D01*
X147029754Y-70201496D01*
X147156772Y-70508147D01*
X147341175Y-70784125D01*
X147575875Y-71018825D01*
X147851853Y-71203228D01*
X148158504Y-71330246D01*
X148484042Y-71395000D01*
X148815958Y-71395000D01*
X149141496Y-71330246D01*
X149448147Y-71203228D01*
X149724125Y-71018825D01*
X149958825Y-70784125D01*
X150143228Y-70508147D01*
X150270246Y-70201496D01*
X150335000Y-69875958D01*
X150335000Y-69544042D01*
X150270246Y-69218504D01*
X150143228Y-68911853D01*
X149958825Y-68635875D01*
X149724125Y-68401175D01*
X149448147Y-68216772D01*
X149141496Y-68089754D01*
X148815958Y-68025000D01*
X148484042Y-68025000D01*
X148158504Y-68089754D01*
X147851853Y-68216772D01*
X147575875Y-68401175D01*
X147341175Y-68635875D01*
X147156772Y-68911853D01*
X147029754Y-69218504D01*
X146965000Y-69544042D01*
X132855046Y-69544042D01*
X132700806Y-69389803D01*
X132677003Y-69360799D01*
X132561278Y-69265826D01*
X132429249Y-69195254D01*
X132285988Y-69151797D01*
X132174335Y-69140800D01*
X132174324Y-69140800D01*
X132137002Y-69137124D01*
X132099680Y-69140800D01*
X126281311Y-69140800D01*
X126237374Y-69096863D01*
X126067856Y-68983595D01*
X125879498Y-68905574D01*
X125679539Y-68865800D01*
X125475661Y-68865800D01*
X125275702Y-68905574D01*
X125087344Y-68983595D01*
X124917826Y-69096863D01*
X124773663Y-69241026D01*
X124660395Y-69410544D01*
X124582374Y-69598902D01*
X124542600Y-69798861D01*
X124542600Y-70002739D01*
X124564219Y-70111427D01*
X116561985Y-70111427D01*
X116561774Y-70111170D01*
X116532782Y-70087377D01*
X115770604Y-69325201D01*
X115746802Y-69296198D01*
X115631077Y-69201225D01*
X115499048Y-69130653D01*
X115355787Y-69087196D01*
X115244134Y-69076199D01*
X115244123Y-69076199D01*
X115206801Y-69072523D01*
X115169479Y-69076199D01*
X114548124Y-69076199D01*
X114510799Y-69072523D01*
X114473474Y-69076199D01*
X114473466Y-69076199D01*
X114361813Y-69087196D01*
X114218552Y-69130653D01*
X114086523Y-69201225D01*
X113970798Y-69296198D01*
X113947000Y-69325196D01*
X110880197Y-72392000D01*
X109784802Y-72392000D01*
X110061998Y-72114803D01*
X110113261Y-72125000D01*
X110317139Y-72125000D01*
X110517098Y-72085226D01*
X110705456Y-72007205D01*
X110874974Y-71893937D01*
X111019137Y-71749774D01*
X111132405Y-71580256D01*
X111210426Y-71391898D01*
X111250200Y-71191939D01*
X111250200Y-70988061D01*
X111210426Y-70788102D01*
X111132405Y-70599744D01*
X111019137Y-70430226D01*
X110874974Y-70286063D01*
X110705456Y-70172795D01*
X110517098Y-70094774D01*
X110317139Y-70055000D01*
X110113261Y-70055000D01*
X109913302Y-70094774D01*
X109724944Y-70172795D01*
X109555426Y-70286063D01*
X109411263Y-70430226D01*
X109297995Y-70599744D01*
X109219974Y-70788102D01*
X109215226Y-70811972D01*
X107439003Y-72588196D01*
X107409999Y-72611999D01*
X107386201Y-72640997D01*
X105979799Y-74047400D01*
X105917661Y-74047400D01*
X105717702Y-74087174D01*
X105529344Y-74165195D01*
X105359826Y-74278463D01*
X105215663Y-74422626D01*
X105102395Y-74592144D01*
X105024374Y-74780502D01*
X104984600Y-74980461D01*
X104984600Y-75184339D01*
X105024374Y-75384298D01*
X105102395Y-75572656D01*
X105215663Y-75742174D01*
X105359826Y-75886337D01*
X105529344Y-75999605D01*
X105717702Y-76077626D01*
X105917661Y-76117400D01*
X106121539Y-76117400D01*
X106321498Y-76077626D01*
X106509856Y-75999605D01*
X106679374Y-75886337D01*
X106823537Y-75742174D01*
X106936805Y-75572656D01*
X107014826Y-75384298D01*
X107054600Y-75184339D01*
X107054600Y-75122201D01*
X108264802Y-73912000D01*
X111157676Y-73912000D01*
X111194998Y-73915676D01*
X111232320Y-73912000D01*
X111232331Y-73912000D01*
X111343984Y-73901003D01*
X111487245Y-73857546D01*
X111619274Y-73786974D01*
X111734999Y-73692001D01*
X111758802Y-73662997D01*
X114098800Y-71323000D01*
X114098801Y-78194657D01*
X114095123Y-78232000D01*
X114098800Y-78269333D01*
X114098800Y-78753478D01*
X114095124Y-78790800D01*
X114098800Y-78828122D01*
X114098800Y-78828133D01*
X114109797Y-78939786D01*
X114153254Y-79083047D01*
X114165516Y-79105986D01*
X114223826Y-79215076D01*
X114230200Y-79222843D01*
X114230200Y-79238489D01*
X114096174Y-79104463D01*
X113926656Y-78991195D01*
X113738298Y-78913174D01*
X113538339Y-78873400D01*
X113334461Y-78873400D01*
X113134502Y-78913174D01*
X112946144Y-78991195D01*
X112776626Y-79104463D01*
X112632463Y-79248626D01*
X112519195Y-79418144D01*
X112441174Y-79606502D01*
X112401400Y-79806461D01*
X112401400Y-80010339D01*
X112441174Y-80210298D01*
X112519195Y-80398656D01*
X112632463Y-80568174D01*
X112776626Y-80712337D01*
X112946144Y-80825605D01*
X113134502Y-80903626D01*
X113334461Y-80943400D01*
X113410757Y-80943400D01*
X113418524Y-80949774D01*
X113550553Y-81020346D01*
X113693814Y-81063803D01*
X113805467Y-81074800D01*
X113805476Y-81074800D01*
X113842799Y-81078476D01*
X113880122Y-81074800D01*
X118713598Y-81074800D01*
X108570599Y-91217800D01*
X108508461Y-91217800D01*
X108308502Y-91257574D01*
X108120144Y-91335595D01*
X107950626Y-91448863D01*
X107879444Y-91520045D01*
X103898401Y-87539002D01*
X103874598Y-87509998D01*
X103758873Y-87415025D01*
X103626844Y-87344453D01*
X103483583Y-87300996D01*
X103371930Y-87289999D01*
X103371919Y-87289999D01*
X103334597Y-87286323D01*
X103297275Y-87289999D01*
X100271722Y-87289999D01*
X100234399Y-87286323D01*
X100197077Y-87289999D01*
X100197066Y-87289999D01*
X100085413Y-87300996D01*
X99942152Y-87344453D01*
X99810123Y-87415025D01*
X99694398Y-87509998D01*
X99670595Y-87539002D01*
X99658397Y-87551200D01*
X99629399Y-87574998D01*
X99605601Y-87603996D01*
X99605600Y-87603997D01*
X99534425Y-87690723D01*
X99463853Y-87822753D01*
X99440114Y-87901013D01*
X99425586Y-87948909D01*
X99420397Y-87966014D01*
X99405723Y-88114999D01*
X99409400Y-88152331D01*
X99409399Y-93223276D01*
X99405723Y-93260599D01*
X99409399Y-93297921D01*
X99409399Y-93297931D01*
X99420396Y-93409584D01*
X99454842Y-93523139D01*
X99463853Y-93552845D01*
X99534425Y-93684875D01*
X99557873Y-93713446D01*
X99599800Y-93764534D01*
X99599800Y-93827939D01*
X99639574Y-94027898D01*
X99717595Y-94216256D01*
X99830863Y-94385774D01*
X99975026Y-94529937D01*
X100144544Y-94643205D01*
X100332902Y-94721226D01*
X100532861Y-94761000D01*
X100736739Y-94761000D01*
X100936698Y-94721226D01*
X101125056Y-94643205D01*
X101294574Y-94529937D01*
X101438737Y-94385774D01*
X101500004Y-94294082D01*
X101548861Y-94303800D01*
X101610999Y-94303800D01*
X106157199Y-98850000D01*
X100137875Y-104869325D01*
X100137785Y-104869215D01*
X100041094Y-104789863D01*
X99930780Y-104730898D01*
X99811082Y-104694588D01*
X99686600Y-104682328D01*
X98636600Y-104682328D01*
X98512118Y-104694588D01*
X98392420Y-104730898D01*
X98327698Y-104765493D01*
X98119000Y-104702185D01*
X97891600Y-104679788D01*
X97664201Y-104702185D01*
X97445541Y-104768515D01*
X97256601Y-104869506D01*
X97067660Y-104768515D01*
X96849000Y-104702185D01*
X96621600Y-104679788D01*
X96394201Y-104702185D01*
X96175541Y-104768515D01*
X95974022Y-104876229D01*
X95797389Y-105021188D01*
X95656000Y-105193471D01*
X95656000Y-102028619D01*
X95703229Y-102116978D01*
X95848188Y-102293612D01*
X96024821Y-102438571D01*
X96226340Y-102546285D01*
X96445000Y-102612615D01*
X96672400Y-102635012D01*
X96899799Y-102612615D01*
X97118459Y-102546285D01*
X97307399Y-102445294D01*
X97496340Y-102546285D01*
X97715000Y-102612615D01*
X97942400Y-102635012D01*
X98169799Y-102612615D01*
X98378498Y-102549307D01*
X98443220Y-102583902D01*
X98562918Y-102620212D01*
X98687400Y-102632472D01*
X99737400Y-102632472D01*
X99861882Y-102620212D01*
X99981580Y-102583902D01*
X100091894Y-102524937D01*
X100188585Y-102445585D01*
X100267937Y-102348894D01*
X100326902Y-102238580D01*
X100363212Y-102118882D01*
X100375472Y-101994400D01*
X100375472Y-100494400D01*
X100363212Y-100369918D01*
X100326902Y-100250220D01*
X100267937Y-100139906D01*
X100188585Y-100043215D01*
X100091894Y-99963863D01*
X99981580Y-99904898D01*
X99861882Y-99868588D01*
X99737400Y-99856328D01*
X98687400Y-99856328D01*
X98562918Y-99868588D01*
X98443220Y-99904898D01*
X98378498Y-99939493D01*
X98169800Y-99876185D01*
X98013237Y-99860765D01*
X98968402Y-98905600D01*
X99423089Y-98905600D01*
X99467026Y-98949537D01*
X99636544Y-99062805D01*
X99824902Y-99140826D01*
X100024861Y-99180600D01*
X100228739Y-99180600D01*
X100428698Y-99140826D01*
X100617056Y-99062805D01*
X100786574Y-98949537D01*
X100930737Y-98805374D01*
X101044005Y-98635856D01*
X101122026Y-98447498D01*
X101161800Y-98247539D01*
X101161800Y-98043661D01*
X101122026Y-97843702D01*
X101044005Y-97655344D01*
X100930737Y-97485826D01*
X100786574Y-97341663D01*
X100617056Y-97228395D01*
X100428698Y-97150374D01*
X100228739Y-97110600D01*
X100024861Y-97110600D01*
X99824902Y-97150374D01*
X99636544Y-97228395D01*
X99467026Y-97341663D01*
X99423089Y-97385600D01*
X98690925Y-97385600D01*
X98653600Y-97381924D01*
X98616275Y-97385600D01*
X98616267Y-97385600D01*
X98504614Y-97396597D01*
X98361353Y-97440054D01*
X98229324Y-97510626D01*
X98113599Y-97605599D01*
X98089801Y-97634597D01*
X96886599Y-98837800D01*
X96824461Y-98837800D01*
X96624502Y-98877574D01*
X96436144Y-98955595D01*
X96266626Y-99068863D01*
X96122463Y-99213026D01*
X96009195Y-99382544D01*
X95931174Y-99570902D01*
X95891400Y-99770861D01*
X95891400Y-99974739D01*
X95923032Y-100133766D01*
X95848189Y-100195188D01*
X95703230Y-100371821D01*
X95656000Y-100460181D01*
X95656000Y-93254249D01*
X95724195Y-93282496D01*
X95982114Y-93333800D01*
X96245086Y-93333800D01*
X96503005Y-93282496D01*
X96745959Y-93181861D01*
X96964613Y-93035762D01*
X97150562Y-92849813D01*
X97296661Y-92631159D01*
X97397296Y-92388205D01*
X97448600Y-92130286D01*
X97448600Y-91867314D01*
X97397296Y-91609395D01*
X97296661Y-91366441D01*
X97150562Y-91147787D01*
X96964613Y-90961838D01*
X96745959Y-90815739D01*
X96503005Y-90715104D01*
X96245086Y-90663800D01*
X95982114Y-90663800D01*
X95724195Y-90715104D01*
X95656000Y-90743351D01*
X95656000Y-88762807D01*
X95774995Y-88812096D01*
X96032914Y-88863400D01*
X96295886Y-88863400D01*
X96553805Y-88812096D01*
X96796759Y-88711461D01*
X97015413Y-88565362D01*
X97201362Y-88379413D01*
X97347461Y-88160759D01*
X97448096Y-87917805D01*
X97499400Y-87659886D01*
X97499400Y-87396914D01*
X97448096Y-87138995D01*
X97347461Y-86896041D01*
X97201362Y-86677387D01*
X97015413Y-86491438D01*
X96796759Y-86345339D01*
X96553805Y-86244704D01*
X96295886Y-86193400D01*
X96032914Y-86193400D01*
X95774995Y-86244704D01*
X95656000Y-86293993D01*
X95656000Y-85902800D01*
X99904588Y-85902800D01*
X99926985Y-86130200D01*
X99993315Y-86348860D01*
X100101029Y-86550379D01*
X100245988Y-86727012D01*
X100422621Y-86871971D01*
X100624140Y-86979685D01*
X100842800Y-87046015D01*
X101013221Y-87062800D01*
X101577179Y-87062800D01*
X101747600Y-87046015D01*
X101966260Y-86979685D01*
X102167779Y-86871971D01*
X102344412Y-86727012D01*
X102489371Y-86550379D01*
X102597085Y-86348860D01*
X102663415Y-86130200D01*
X102685812Y-85902800D01*
X102663415Y-85675400D01*
X102597085Y-85456740D01*
X102496271Y-85268131D01*
X102537475Y-85209682D01*
X102630472Y-85000137D01*
X102639164Y-84938610D01*
X102513363Y-84759800D01*
X101748309Y-84759800D01*
X101747600Y-84759585D01*
X101577179Y-84742800D01*
X101013221Y-84742800D01*
X100842800Y-84759585D01*
X100842091Y-84759800D01*
X100077037Y-84759800D01*
X99951236Y-84938610D01*
X99959928Y-85000137D01*
X100052925Y-85209682D01*
X100094129Y-85268131D01*
X99993315Y-85456740D01*
X99926985Y-85675400D01*
X99904588Y-85902800D01*
X95656000Y-85902800D01*
X95656000Y-84190807D01*
X95774995Y-84240096D01*
X96032914Y-84291400D01*
X96295886Y-84291400D01*
X96553805Y-84240096D01*
X96796759Y-84139461D01*
X97015413Y-83993362D01*
X97201362Y-83807413D01*
X97347461Y-83588759D01*
X97448096Y-83345805D01*
X97499400Y-83087886D01*
X97499400Y-82837800D01*
X99907128Y-82837800D01*
X99907128Y-83887800D01*
X99919388Y-84012282D01*
X99955698Y-84131980D01*
X99990376Y-84196857D01*
X99959928Y-84265463D01*
X99951236Y-84326990D01*
X100077037Y-84505800D01*
X100394965Y-84505800D01*
X100420718Y-84513612D01*
X100545200Y-84525872D01*
X102045200Y-84525872D01*
X102169682Y-84513612D01*
X102195435Y-84505800D01*
X102513363Y-84505800D01*
X102639164Y-84326990D01*
X102630472Y-84265463D01*
X102600024Y-84196857D01*
X102634702Y-84131980D01*
X102671012Y-84012282D01*
X102683272Y-83887800D01*
X102683272Y-83232934D01*
X102726463Y-83297574D01*
X102770400Y-83341511D01*
X102770401Y-84392268D01*
X102766724Y-84429600D01*
X102770401Y-84466933D01*
X102781398Y-84578586D01*
X102787666Y-84599249D01*
X102824854Y-84721846D01*
X102851000Y-84770761D01*
X102851000Y-84887139D01*
X102890774Y-85087098D01*
X102968795Y-85275456D01*
X103082063Y-85444974D01*
X103226226Y-85589137D01*
X103395744Y-85702405D01*
X103584102Y-85780426D01*
X103784061Y-85820200D01*
X103987939Y-85820200D01*
X104187898Y-85780426D01*
X104376256Y-85702405D01*
X104545774Y-85589137D01*
X104689937Y-85444974D01*
X104803205Y-85275456D01*
X104844263Y-85176334D01*
X104920305Y-85318600D01*
X104819315Y-85507540D01*
X104752985Y-85726200D01*
X104730588Y-85953600D01*
X104752985Y-86181000D01*
X104819315Y-86399660D01*
X104927029Y-86601179D01*
X105071988Y-86777812D01*
X105248621Y-86922771D01*
X105450140Y-87030485D01*
X105668800Y-87096815D01*
X105839221Y-87113600D01*
X106403179Y-87113600D01*
X106573600Y-87096815D01*
X106792260Y-87030485D01*
X106993779Y-86922771D01*
X107170412Y-86777812D01*
X107315371Y-86601179D01*
X107423085Y-86399660D01*
X107489415Y-86181000D01*
X107511812Y-85953600D01*
X107489415Y-85726200D01*
X107423085Y-85507540D01*
X107322095Y-85318600D01*
X107423085Y-85129660D01*
X107489415Y-84911000D01*
X107511812Y-84683600D01*
X107489415Y-84456200D01*
X107426107Y-84247502D01*
X107460702Y-84182780D01*
X107497012Y-84063082D01*
X107509272Y-83938600D01*
X107509272Y-82888600D01*
X107497012Y-82764118D01*
X107460702Y-82644420D01*
X107401737Y-82534106D01*
X107322385Y-82437415D01*
X107225694Y-82358063D01*
X107115380Y-82299098D01*
X106995682Y-82262788D01*
X106871200Y-82250528D01*
X105371200Y-82250528D01*
X105246718Y-82262788D01*
X105127020Y-82299098D01*
X105016706Y-82358063D01*
X104920015Y-82437415D01*
X104840663Y-82534106D01*
X104781698Y-82644420D01*
X104745388Y-82764118D01*
X104733128Y-82888600D01*
X104733128Y-83938600D01*
X104745388Y-84063082D01*
X104781698Y-84182780D01*
X104816293Y-84247502D01*
X104802309Y-84293602D01*
X104689937Y-84125426D01*
X104545774Y-83981263D01*
X104376256Y-83867995D01*
X104290400Y-83832432D01*
X104290400Y-83341511D01*
X104334337Y-83297574D01*
X104447605Y-83128056D01*
X104525626Y-82939698D01*
X104565400Y-82739739D01*
X104565400Y-82535861D01*
X104525626Y-82335902D01*
X104447605Y-82147544D01*
X104334337Y-81978026D01*
X104190174Y-81833863D01*
X104020656Y-81720595D01*
X103832298Y-81642574D01*
X103632339Y-81602800D01*
X103428461Y-81602800D01*
X103228502Y-81642574D01*
X103040144Y-81720595D01*
X102870626Y-81833863D01*
X102726463Y-81978026D01*
X102613195Y-82147544D01*
X102535174Y-82335902D01*
X102519487Y-82414765D01*
X102496385Y-82386615D01*
X102399694Y-82307263D01*
X102289380Y-82248298D01*
X102169682Y-82211988D01*
X102045200Y-82199728D01*
X100545200Y-82199728D01*
X100420718Y-82211988D01*
X100301020Y-82248298D01*
X100190706Y-82307263D01*
X100094015Y-82386615D01*
X100014663Y-82483306D01*
X99955698Y-82593620D01*
X99919388Y-82713318D01*
X99907128Y-82837800D01*
X97499400Y-82837800D01*
X97499400Y-82824914D01*
X97448096Y-82566995D01*
X97347461Y-82324041D01*
X97201362Y-82105387D01*
X97015413Y-81919438D01*
X96796759Y-81773339D01*
X96553805Y-81672704D01*
X96295886Y-81621400D01*
X96032914Y-81621400D01*
X95774995Y-81672704D01*
X95656000Y-81721993D01*
X95656000Y-79669607D01*
X95774995Y-79718896D01*
X96032914Y-79770200D01*
X96295886Y-79770200D01*
X96553805Y-79718896D01*
X96796759Y-79618261D01*
X97015413Y-79472162D01*
X97201362Y-79286213D01*
X97347461Y-79067559D01*
X97448096Y-78824605D01*
X97499400Y-78566686D01*
X97499400Y-78303714D01*
X97448096Y-78045795D01*
X97347461Y-77802841D01*
X97201362Y-77584187D01*
X97015413Y-77398238D01*
X96796759Y-77252139D01*
X96553805Y-77151504D01*
X96295886Y-77100200D01*
X96032914Y-77100200D01*
X95774995Y-77151504D01*
X95656000Y-77200793D01*
X95656000Y-75199207D01*
X95774995Y-75248496D01*
X96032914Y-75299800D01*
X96295886Y-75299800D01*
X96553805Y-75248496D01*
X96796759Y-75147861D01*
X97015413Y-75001762D01*
X97201362Y-74815813D01*
X97347461Y-74597159D01*
X97448096Y-74354205D01*
X97499400Y-74096286D01*
X97499400Y-73880494D01*
X97553744Y-73916805D01*
X97742102Y-73994826D01*
X97942061Y-74034600D01*
X98145939Y-74034600D01*
X98345898Y-73994826D01*
X98534256Y-73916805D01*
X98703774Y-73803537D01*
X98748625Y-73758686D01*
X98725174Y-73815302D01*
X98685400Y-74015261D01*
X98685400Y-74219139D01*
X98725174Y-74419098D01*
X98803195Y-74607456D01*
X98916463Y-74776974D01*
X99060626Y-74921137D01*
X99230144Y-75034405D01*
X99418502Y-75112426D01*
X99618461Y-75152200D01*
X99822339Y-75152200D01*
X100022298Y-75112426D01*
X100210656Y-75034405D01*
X100380174Y-74921137D01*
X100524337Y-74776974D01*
X100637605Y-74607456D01*
X100715626Y-74419098D01*
X100755400Y-74219139D01*
X100755400Y-74157001D01*
X106232802Y-68679600D01*
X107957489Y-68679600D01*
X108001426Y-68723537D01*
X108170944Y-68836805D01*
X108359302Y-68914826D01*
X108559261Y-68954600D01*
X108763139Y-68954600D01*
X108963098Y-68914826D01*
X109151456Y-68836805D01*
X109320974Y-68723537D01*
X109465137Y-68579374D01*
X109578405Y-68409856D01*
X109656426Y-68221498D01*
X109696200Y-68021539D01*
X109696200Y-67970000D01*
X139445489Y-67970000D01*
X150360001Y-67992632D01*
G37*
%TD.AperFunction*%
D22*
X133098000Y-101938592D02*
X133098001Y-103175002D01*
X133057803Y-103134803D01*
X133034000Y-103105800D01*
X132918275Y-103010827D01*
X132786246Y-102940255D01*
X132642985Y-102896798D01*
X132531332Y-102885801D01*
X132531321Y-102885801D01*
X132493999Y-102882125D01*
X132456677Y-102885801D01*
X131264193Y-102885801D01*
X130872051Y-102493660D01*
X130953537Y-102412174D01*
X131066805Y-102242656D01*
X131144826Y-102054298D01*
X131184600Y-101854339D01*
X131184600Y-101815942D01*
X131216061Y-101822200D01*
X131419939Y-101822200D01*
X131619898Y-101782426D01*
X131808256Y-101704405D01*
X131977774Y-101591137D01*
X132121937Y-101446974D01*
X132235205Y-101277456D01*
X132294270Y-101134862D01*
X133098000Y-101938592D01*
%TA.AperFunction,Conductor*%
D23*
G36*
X133098000Y-101938592D02*
G01*
X133098001Y-103175002D01*
X133057803Y-103134803D01*
X133034000Y-103105800D01*
X132918275Y-103010827D01*
X132786246Y-102940255D01*
X132642985Y-102896798D01*
X132531332Y-102885801D01*
X132531321Y-102885801D01*
X132493999Y-102882125D01*
X132456677Y-102885801D01*
X131264193Y-102885801D01*
X130872051Y-102493660D01*
X130953537Y-102412174D01*
X131066805Y-102242656D01*
X131144826Y-102054298D01*
X131184600Y-101854339D01*
X131184600Y-101815942D01*
X131216061Y-101822200D01*
X131419939Y-101822200D01*
X131619898Y-101782426D01*
X131808256Y-101704405D01*
X131977774Y-101591137D01*
X132121937Y-101446974D01*
X132235205Y-101277456D01*
X132294270Y-101134862D01*
X133098000Y-101938592D01*
G37*
%TD.AperFunction*%
D22*
X132679950Y-93494058D02*
X132679950Y-93578526D01*
X132676274Y-93615848D01*
X132679950Y-93653170D01*
X132679950Y-93653181D01*
X132690947Y-93764834D01*
X132734404Y-93908095D01*
X132804976Y-94040124D01*
X132899950Y-94155849D01*
X132928948Y-94179647D01*
X133253146Y-94503845D01*
X133276949Y-94532849D01*
X133392674Y-94627822D01*
X133472028Y-94670238D01*
X133524703Y-94698394D01*
X133667964Y-94741851D01*
X133816950Y-94756525D01*
X133854283Y-94752848D01*
X134381592Y-94752848D01*
X134381591Y-95868001D01*
X130840921Y-95868001D01*
X130803598Y-95864325D01*
X130766276Y-95868001D01*
X130766266Y-95868001D01*
X130654613Y-95878998D01*
X130511352Y-95922455D01*
X130379374Y-95993000D01*
X130301661Y-95993000D01*
X130101702Y-96032774D01*
X129913344Y-96110795D01*
X129743826Y-96224063D01*
X129599663Y-96368226D01*
X129486395Y-96537744D01*
X129408374Y-96726102D01*
X129394888Y-96793902D01*
X129390502Y-96794774D01*
X129202144Y-96872795D01*
X129032626Y-96986063D01*
X128888463Y-97130226D01*
X128775195Y-97299744D01*
X128697174Y-97488102D01*
X128657400Y-97688061D01*
X128657400Y-97891939D01*
X128697174Y-98091898D01*
X128775195Y-98280256D01*
X128888463Y-98449774D01*
X128932401Y-98493712D01*
X128932401Y-99124268D01*
X128928724Y-99161600D01*
X128932401Y-99198933D01*
X128943398Y-99310586D01*
X128947160Y-99322987D01*
X128986854Y-99453846D01*
X129057426Y-99585876D01*
X129118641Y-99660466D01*
X129152400Y-99701601D01*
X129181398Y-99725399D01*
X130173398Y-100717400D01*
X130047661Y-100717400D01*
X129847702Y-100757174D01*
X129794156Y-100779354D01*
X126460200Y-97445399D01*
X126460200Y-97383261D01*
X126420426Y-97183302D01*
X126342405Y-96994944D01*
X126229137Y-96825426D01*
X126084974Y-96681263D01*
X125915456Y-96567995D01*
X125727098Y-96489974D01*
X125527139Y-96450200D01*
X125323261Y-96450200D01*
X125123302Y-96489974D01*
X124934944Y-96567995D01*
X124765426Y-96681263D01*
X124621263Y-96825426D01*
X124507995Y-96994944D01*
X124429974Y-97183302D01*
X124390200Y-97383261D01*
X124390200Y-97587139D01*
X124429974Y-97787098D01*
X124507995Y-97975456D01*
X124621263Y-98144974D01*
X124765426Y-98289137D01*
X124934944Y-98402405D01*
X124962939Y-98414001D01*
X119848800Y-98414001D01*
X124721002Y-93541800D01*
X124783139Y-93541800D01*
X124983098Y-93502026D01*
X125171456Y-93424005D01*
X125340974Y-93310737D01*
X125485137Y-93166574D01*
X125598405Y-92997056D01*
X125676426Y-92808698D01*
X125716200Y-92608739D01*
X125716200Y-92404861D01*
X125676426Y-92204902D01*
X125598405Y-92016544D01*
X125485137Y-91847026D01*
X125340974Y-91702863D01*
X125171456Y-91589595D01*
X124983098Y-91511574D01*
X124783139Y-91471800D01*
X124579261Y-91471800D01*
X124379302Y-91511574D01*
X124190944Y-91589595D01*
X124021426Y-91702863D01*
X123877263Y-91847026D01*
X123763995Y-92016544D01*
X123685974Y-92204902D01*
X123646200Y-92404861D01*
X123646200Y-92466998D01*
X118212988Y-97900211D01*
X117839173Y-97900211D01*
X117886026Y-97787098D01*
X117925800Y-97587139D01*
X117925800Y-97383261D01*
X117886026Y-97183302D01*
X117809465Y-96998469D01*
X118029314Y-97042200D01*
X118292286Y-97042200D01*
X118550205Y-96990896D01*
X118793159Y-96890261D01*
X119011813Y-96744162D01*
X119197762Y-96558213D01*
X119343861Y-96339559D01*
X119444496Y-96096605D01*
X119495800Y-95838686D01*
X119495800Y-95575714D01*
X119444496Y-95317795D01*
X119403299Y-95218336D01*
X119427656Y-95210947D01*
X119559685Y-95140375D01*
X119675410Y-95045402D01*
X119699213Y-95016398D01*
X126950752Y-87764860D01*
X132679950Y-93494058D01*
%TA.AperFunction,Conductor*%
D23*
G36*
X132679950Y-93494058D02*
G01*
X132679950Y-93578526D01*
X132676274Y-93615848D01*
X132679950Y-93653170D01*
X132679950Y-93653181D01*
X132690947Y-93764834D01*
X132734404Y-93908095D01*
X132804976Y-94040124D01*
X132899950Y-94155849D01*
X132928948Y-94179647D01*
X133253146Y-94503845D01*
X133276949Y-94532849D01*
X133392674Y-94627822D01*
X133472028Y-94670238D01*
X133524703Y-94698394D01*
X133667964Y-94741851D01*
X133816950Y-94756525D01*
X133854283Y-94752848D01*
X134381592Y-94752848D01*
X134381591Y-95868001D01*
X130840921Y-95868001D01*
X130803598Y-95864325D01*
X130766276Y-95868001D01*
X130766266Y-95868001D01*
X130654613Y-95878998D01*
X130511352Y-95922455D01*
X130379374Y-95993000D01*
X130301661Y-95993000D01*
X130101702Y-96032774D01*
X129913344Y-96110795D01*
X129743826Y-96224063D01*
X129599663Y-96368226D01*
X129486395Y-96537744D01*
X129408374Y-96726102D01*
X129394888Y-96793902D01*
X129390502Y-96794774D01*
X129202144Y-96872795D01*
X129032626Y-96986063D01*
X128888463Y-97130226D01*
X128775195Y-97299744D01*
X128697174Y-97488102D01*
X128657400Y-97688061D01*
X128657400Y-97891939D01*
X128697174Y-98091898D01*
X128775195Y-98280256D01*
X128888463Y-98449774D01*
X128932401Y-98493712D01*
X128932401Y-99124268D01*
X128928724Y-99161600D01*
X128932401Y-99198933D01*
X128943398Y-99310586D01*
X128947160Y-99322987D01*
X128986854Y-99453846D01*
X129057426Y-99585876D01*
X129118641Y-99660466D01*
X129152400Y-99701601D01*
X129181398Y-99725399D01*
X130173398Y-100717400D01*
X130047661Y-100717400D01*
X129847702Y-100757174D01*
X129794156Y-100779354D01*
X126460200Y-97445399D01*
X126460200Y-97383261D01*
X126420426Y-97183302D01*
X126342405Y-96994944D01*
X126229137Y-96825426D01*
X126084974Y-96681263D01*
X125915456Y-96567995D01*
X125727098Y-96489974D01*
X125527139Y-96450200D01*
X125323261Y-96450200D01*
X125123302Y-96489974D01*
X124934944Y-96567995D01*
X124765426Y-96681263D01*
X124621263Y-96825426D01*
X124507995Y-96994944D01*
X124429974Y-97183302D01*
X124390200Y-97383261D01*
X124390200Y-97587139D01*
X124429974Y-97787098D01*
X124507995Y-97975456D01*
X124621263Y-98144974D01*
X124765426Y-98289137D01*
X124934944Y-98402405D01*
X124962939Y-98414001D01*
X119848800Y-98414001D01*
X124721002Y-93541800D01*
X124783139Y-93541800D01*
X124983098Y-93502026D01*
X125171456Y-93424005D01*
X125340974Y-93310737D01*
X125485137Y-93166574D01*
X125598405Y-92997056D01*
X125676426Y-92808698D01*
X125716200Y-92608739D01*
X125716200Y-92404861D01*
X125676426Y-92204902D01*
X125598405Y-92016544D01*
X125485137Y-91847026D01*
X125340974Y-91702863D01*
X125171456Y-91589595D01*
X124983098Y-91511574D01*
X124783139Y-91471800D01*
X124579261Y-91471800D01*
X124379302Y-91511574D01*
X124190944Y-91589595D01*
X124021426Y-91702863D01*
X123877263Y-91847026D01*
X123763995Y-92016544D01*
X123685974Y-92204902D01*
X123646200Y-92404861D01*
X123646200Y-92466998D01*
X118212988Y-97900211D01*
X117839173Y-97900211D01*
X117886026Y-97787098D01*
X117925800Y-97587139D01*
X117925800Y-97383261D01*
X117886026Y-97183302D01*
X117809465Y-96998469D01*
X118029314Y-97042200D01*
X118292286Y-97042200D01*
X118550205Y-96990896D01*
X118793159Y-96890261D01*
X119011813Y-96744162D01*
X119197762Y-96558213D01*
X119343861Y-96339559D01*
X119444496Y-96096605D01*
X119495800Y-95838686D01*
X119495800Y-95575714D01*
X119444496Y-95317795D01*
X119403299Y-95218336D01*
X119427656Y-95210947D01*
X119559685Y-95140375D01*
X119675410Y-95045402D01*
X119699213Y-95016398D01*
X126950752Y-87764860D01*
X132679950Y-93494058D01*
G37*
%TD.AperFunction*%
D22*
X107793997Y-93584201D02*
X107817796Y-93613200D01*
X107846794Y-93636998D01*
X107933521Y-93708173D01*
X108065550Y-93778745D01*
X108208811Y-93822202D01*
X108357797Y-93836876D01*
X108395130Y-93833199D01*
X111344996Y-93833199D01*
X112528204Y-95016409D01*
X112551998Y-95045402D01*
X112580991Y-95069196D01*
X112580995Y-95069200D01*
X112651684Y-95127212D01*
X112667723Y-95140375D01*
X112799752Y-95210947D01*
X112943013Y-95254404D01*
X113054666Y-95265401D01*
X113054675Y-95265401D01*
X113091998Y-95269077D01*
X113129321Y-95265401D01*
X116898806Y-95265401D01*
X116877104Y-95317795D01*
X116825800Y-95575714D01*
X116825800Y-95838686D01*
X116877104Y-96096605D01*
X116977739Y-96339559D01*
X117060699Y-96463718D01*
X116992739Y-96450200D01*
X116788861Y-96450200D01*
X116588902Y-96489974D01*
X116400544Y-96567995D01*
X116231026Y-96681263D01*
X116187089Y-96725200D01*
X113141602Y-96725200D01*
X112541000Y-96124599D01*
X112541000Y-96062461D01*
X112501226Y-95862502D01*
X112423205Y-95674144D01*
X112309937Y-95504626D01*
X112165774Y-95360463D01*
X111996256Y-95247195D01*
X111807898Y-95169174D01*
X111607939Y-95129400D01*
X111404061Y-95129400D01*
X111204102Y-95169174D01*
X111015744Y-95247195D01*
X110846226Y-95360463D01*
X110702063Y-95504626D01*
X110588795Y-95674144D01*
X110510774Y-95862502D01*
X110471000Y-96062461D01*
X110471000Y-96266339D01*
X110510774Y-96466298D01*
X110588795Y-96654656D01*
X110702063Y-96824174D01*
X110846226Y-96968337D01*
X111015744Y-97081605D01*
X111204102Y-97159626D01*
X111404061Y-97199400D01*
X111466199Y-97199400D01*
X112167009Y-97900211D01*
X107357013Y-97900211D01*
X102685800Y-93228999D01*
X102685800Y-93166861D01*
X102646026Y-92966902D01*
X102568005Y-92778544D01*
X102454737Y-92609026D01*
X102310574Y-92464863D01*
X102166456Y-92368566D01*
X102293612Y-92264212D01*
X102438571Y-92087579D01*
X102546285Y-91886060D01*
X102612615Y-91667400D01*
X102635012Y-91440000D01*
X102612615Y-91212600D01*
X102546285Y-90993940D01*
X102445295Y-90805000D01*
X102546285Y-90616060D01*
X102612615Y-90397400D01*
X102635012Y-90170000D01*
X102612615Y-89942600D01*
X102549307Y-89733902D01*
X102583902Y-89669180D01*
X102620212Y-89549482D01*
X102632472Y-89425000D01*
X102629400Y-89185750D01*
X102470650Y-89027000D01*
X101697509Y-89027000D01*
X101696800Y-89026785D01*
X101526379Y-89010000D01*
X101097400Y-89010000D01*
X101097400Y-88809999D01*
X103019796Y-88809999D01*
X107793997Y-93584201D01*
%TA.AperFunction,Conductor*%
D23*
G36*
X107793997Y-93584201D02*
G01*
X107817796Y-93613200D01*
X107846794Y-93636998D01*
X107933521Y-93708173D01*
X108065550Y-93778745D01*
X108208811Y-93822202D01*
X108357797Y-93836876D01*
X108395130Y-93833199D01*
X111344996Y-93833199D01*
X112528204Y-95016409D01*
X112551998Y-95045402D01*
X112580991Y-95069196D01*
X112580995Y-95069200D01*
X112651684Y-95127212D01*
X112667723Y-95140375D01*
X112799752Y-95210947D01*
X112943013Y-95254404D01*
X113054666Y-95265401D01*
X113054675Y-95265401D01*
X113091998Y-95269077D01*
X113129321Y-95265401D01*
X116898806Y-95265401D01*
X116877104Y-95317795D01*
X116825800Y-95575714D01*
X116825800Y-95838686D01*
X116877104Y-96096605D01*
X116977739Y-96339559D01*
X117060699Y-96463718D01*
X116992739Y-96450200D01*
X116788861Y-96450200D01*
X116588902Y-96489974D01*
X116400544Y-96567995D01*
X116231026Y-96681263D01*
X116187089Y-96725200D01*
X113141602Y-96725200D01*
X112541000Y-96124599D01*
X112541000Y-96062461D01*
X112501226Y-95862502D01*
X112423205Y-95674144D01*
X112309937Y-95504626D01*
X112165774Y-95360463D01*
X111996256Y-95247195D01*
X111807898Y-95169174D01*
X111607939Y-95129400D01*
X111404061Y-95129400D01*
X111204102Y-95169174D01*
X111015744Y-95247195D01*
X110846226Y-95360463D01*
X110702063Y-95504626D01*
X110588795Y-95674144D01*
X110510774Y-95862502D01*
X110471000Y-96062461D01*
X110471000Y-96266339D01*
X110510774Y-96466298D01*
X110588795Y-96654656D01*
X110702063Y-96824174D01*
X110846226Y-96968337D01*
X111015744Y-97081605D01*
X111204102Y-97159626D01*
X111404061Y-97199400D01*
X111466199Y-97199400D01*
X112167009Y-97900211D01*
X107357013Y-97900211D01*
X102685800Y-93228999D01*
X102685800Y-93166861D01*
X102646026Y-92966902D01*
X102568005Y-92778544D01*
X102454737Y-92609026D01*
X102310574Y-92464863D01*
X102166456Y-92368566D01*
X102293612Y-92264212D01*
X102438571Y-92087579D01*
X102546285Y-91886060D01*
X102612615Y-91667400D01*
X102635012Y-91440000D01*
X102612615Y-91212600D01*
X102546285Y-90993940D01*
X102445295Y-90805000D01*
X102546285Y-90616060D01*
X102612615Y-90397400D01*
X102635012Y-90170000D01*
X102612615Y-89942600D01*
X102549307Y-89733902D01*
X102583902Y-89669180D01*
X102620212Y-89549482D01*
X102632472Y-89425000D01*
X102629400Y-89185750D01*
X102470650Y-89027000D01*
X101697509Y-89027000D01*
X101696800Y-89026785D01*
X101526379Y-89010000D01*
X101097400Y-89010000D01*
X101097400Y-88809999D01*
X103019796Y-88809999D01*
X107793997Y-93584201D01*
G37*
%TD.AperFunction*%
D22*
X132261645Y-71100244D02*
X132190463Y-71171426D01*
X132077195Y-71340944D01*
X131999174Y-71529302D01*
X131959400Y-71729261D01*
X131959400Y-71791397D01*
X130139599Y-73611200D01*
X129126111Y-73611200D01*
X129082174Y-73567263D01*
X128912656Y-73453995D01*
X128724298Y-73375974D01*
X128524339Y-73336200D01*
X128320461Y-73336200D01*
X128120502Y-73375974D01*
X127932144Y-73453995D01*
X127762626Y-73567263D01*
X127618463Y-73711426D01*
X127505195Y-73880944D01*
X127427174Y-74069302D01*
X127387400Y-74269261D01*
X127387400Y-74473139D01*
X127427174Y-74673098D01*
X127505195Y-74861456D01*
X127618463Y-75030974D01*
X127762626Y-75175137D01*
X127932144Y-75288405D01*
X128120502Y-75366426D01*
X128320461Y-75406200D01*
X128524339Y-75406200D01*
X128724298Y-75366426D01*
X128912656Y-75288405D01*
X129082174Y-75175137D01*
X129119632Y-75137679D01*
X129070442Y-75211297D01*
X128992421Y-75399655D01*
X128952647Y-75599614D01*
X128952647Y-75803492D01*
X128992421Y-76003451D01*
X129046375Y-76133708D01*
X127708084Y-77472000D01*
X124147711Y-77472000D01*
X124103774Y-77428063D01*
X123934256Y-77314795D01*
X123918523Y-77308278D01*
X124195002Y-77031800D01*
X124257139Y-77031800D01*
X124457098Y-76992026D01*
X124645456Y-76914005D01*
X124814974Y-76800737D01*
X124959137Y-76656574D01*
X125072405Y-76487056D01*
X125150426Y-76298698D01*
X125190200Y-76098739D01*
X125190200Y-75894861D01*
X125150426Y-75694902D01*
X125072405Y-75506544D01*
X124959137Y-75337026D01*
X124814974Y-75192863D01*
X124645456Y-75079595D01*
X124457098Y-75001574D01*
X124257139Y-74961800D01*
X124053261Y-74961800D01*
X123853302Y-75001574D01*
X123664944Y-75079595D01*
X123495426Y-75192863D01*
X123351263Y-75337026D01*
X123237995Y-75506544D01*
X123159974Y-75694902D01*
X123120200Y-75894861D01*
X123120200Y-75956998D01*
X122733361Y-76343837D01*
X122751800Y-76251139D01*
X122751800Y-76047261D01*
X122712026Y-75847302D01*
X122634005Y-75658944D01*
X122520737Y-75489426D01*
X122376574Y-75345263D01*
X122207056Y-75231995D01*
X122018698Y-75153974D01*
X121818739Y-75114200D01*
X121614861Y-75114200D01*
X121414902Y-75153974D01*
X121226544Y-75231995D01*
X121057026Y-75345263D01*
X120912863Y-75489426D01*
X120799595Y-75658944D01*
X120721574Y-75847302D01*
X120681800Y-76047261D01*
X120681800Y-76251139D01*
X120721574Y-76451098D01*
X120799595Y-76639456D01*
X120912863Y-76808974D01*
X120956800Y-76852911D01*
X120956800Y-76901198D01*
X120000599Y-77857400D01*
X119938461Y-77857400D01*
X119738502Y-77897174D01*
X119550144Y-77975195D01*
X119380626Y-78088463D01*
X119236463Y-78232626D01*
X119123195Y-78402144D01*
X119045174Y-78590502D01*
X119032206Y-78655695D01*
X118922174Y-78545663D01*
X118752656Y-78432395D01*
X118564298Y-78354374D01*
X118364339Y-78314600D01*
X118302202Y-78314600D01*
X117708604Y-77721002D01*
X117684801Y-77691999D01*
X117569076Y-77597026D01*
X117437047Y-77526454D01*
X117293786Y-77482997D01*
X117182133Y-77472000D01*
X117182122Y-77472000D01*
X117144800Y-77468324D01*
X117107478Y-77472000D01*
X115618800Y-77472000D01*
X115618800Y-76233532D01*
X115719875Y-76275399D01*
X115919834Y-76315173D01*
X116123712Y-76315173D01*
X116323671Y-76275399D01*
X116512029Y-76197378D01*
X116681547Y-76084110D01*
X116825710Y-75939947D01*
X116938978Y-75770429D01*
X117016999Y-75582071D01*
X117056773Y-75382112D01*
X117056773Y-75178234D01*
X117056443Y-75176573D01*
X117144357Y-75176573D01*
X117399561Y-75431777D01*
X117399561Y-75493915D01*
X117439335Y-75693874D01*
X117517356Y-75882232D01*
X117630624Y-76051750D01*
X117774787Y-76195913D01*
X117944305Y-76309181D01*
X118132663Y-76387202D01*
X118332622Y-76426976D01*
X118536500Y-76426976D01*
X118736459Y-76387202D01*
X118924817Y-76309181D01*
X119094335Y-76195913D01*
X119238498Y-76051750D01*
X119351766Y-75882232D01*
X119429787Y-75693874D01*
X119469561Y-75493915D01*
X119469561Y-75290037D01*
X119429787Y-75090078D01*
X119351766Y-74901720D01*
X119238498Y-74732202D01*
X119094335Y-74588039D01*
X118924817Y-74474771D01*
X118736459Y-74396750D01*
X118536500Y-74356976D01*
X118474362Y-74356976D01*
X118022962Y-73905575D01*
X117999159Y-73876572D01*
X117883434Y-73781599D01*
X117751405Y-73711027D01*
X117608144Y-73667570D01*
X117496491Y-73656573D01*
X117496480Y-73656573D01*
X117459158Y-73652897D01*
X117421836Y-73656573D01*
X116781773Y-73656573D01*
X116781773Y-71631427D01*
X118063450Y-71631427D01*
X117994704Y-71797395D01*
X117943400Y-72055314D01*
X117943400Y-72318286D01*
X117994704Y-72576205D01*
X118095339Y-72819159D01*
X118241438Y-73037813D01*
X118427387Y-73223762D01*
X118646041Y-73369861D01*
X118888995Y-73470496D01*
X119146914Y-73521800D01*
X119409886Y-73521800D01*
X119667805Y-73470496D01*
X119910759Y-73369861D01*
X120129413Y-73223762D01*
X120315362Y-73037813D01*
X120461461Y-72819159D01*
X120562096Y-72576205D01*
X120613400Y-72318286D01*
X120613400Y-72055314D01*
X120562096Y-71797395D01*
X120493350Y-71631427D01*
X121850200Y-71631427D01*
X121850200Y-71698366D01*
X121889974Y-71898325D01*
X121967995Y-72086683D01*
X122081263Y-72256201D01*
X122225426Y-72400364D01*
X122394944Y-72513632D01*
X122583302Y-72591653D01*
X122783261Y-72631427D01*
X122845399Y-72631427D01*
X125512184Y-75298213D01*
X125495164Y-75339302D01*
X125455390Y-75539261D01*
X125455390Y-75743139D01*
X125495164Y-75943098D01*
X125573185Y-76131456D01*
X125686453Y-76300974D01*
X125830616Y-76445137D01*
X126000134Y-76558405D01*
X126188492Y-76636426D01*
X126388451Y-76676200D01*
X126592329Y-76676200D01*
X126792288Y-76636426D01*
X126980646Y-76558405D01*
X127150164Y-76445137D01*
X127294327Y-76300974D01*
X127407595Y-76131456D01*
X127485616Y-75943098D01*
X127525390Y-75743139D01*
X127525390Y-75539261D01*
X127485616Y-75339302D01*
X127407595Y-75150944D01*
X127294327Y-74981426D01*
X127165695Y-74852794D01*
X127125364Y-74777341D01*
X127054189Y-74690614D01*
X127030391Y-74661616D01*
X127001394Y-74637819D01*
X123995001Y-71631427D01*
X125539716Y-71631427D01*
X125629026Y-71720737D01*
X125798544Y-71834005D01*
X125986902Y-71912026D01*
X126186861Y-71951800D01*
X126390739Y-71951800D01*
X126590698Y-71912026D01*
X126779056Y-71834005D01*
X126948574Y-71720737D01*
X127092737Y-71576574D01*
X127206005Y-71407056D01*
X127284026Y-71218698D01*
X127323800Y-71018739D01*
X127323800Y-70814861D01*
X127293156Y-70660800D01*
X131822201Y-70660800D01*
X132261645Y-71100244D01*
%TA.AperFunction,Conductor*%
D23*
G36*
X132261645Y-71100244D02*
G01*
X132190463Y-71171426D01*
X132077195Y-71340944D01*
X131999174Y-71529302D01*
X131959400Y-71729261D01*
X131959400Y-71791397D01*
X130139599Y-73611200D01*
X129126111Y-73611200D01*
X129082174Y-73567263D01*
X128912656Y-73453995D01*
X128724298Y-73375974D01*
X128524339Y-73336200D01*
X128320461Y-73336200D01*
X128120502Y-73375974D01*
X127932144Y-73453995D01*
X127762626Y-73567263D01*
X127618463Y-73711426D01*
X127505195Y-73880944D01*
X127427174Y-74069302D01*
X127387400Y-74269261D01*
X127387400Y-74473139D01*
X127427174Y-74673098D01*
X127505195Y-74861456D01*
X127618463Y-75030974D01*
X127762626Y-75175137D01*
X127932144Y-75288405D01*
X128120502Y-75366426D01*
X128320461Y-75406200D01*
X128524339Y-75406200D01*
X128724298Y-75366426D01*
X128912656Y-75288405D01*
X129082174Y-75175137D01*
X129119632Y-75137679D01*
X129070442Y-75211297D01*
X128992421Y-75399655D01*
X128952647Y-75599614D01*
X128952647Y-75803492D01*
X128992421Y-76003451D01*
X129046375Y-76133708D01*
X127708084Y-77472000D01*
X124147711Y-77472000D01*
X124103774Y-77428063D01*
X123934256Y-77314795D01*
X123918523Y-77308278D01*
X124195002Y-77031800D01*
X124257139Y-77031800D01*
X124457098Y-76992026D01*
X124645456Y-76914005D01*
X124814974Y-76800737D01*
X124959137Y-76656574D01*
X125072405Y-76487056D01*
X125150426Y-76298698D01*
X125190200Y-76098739D01*
X125190200Y-75894861D01*
X125150426Y-75694902D01*
X125072405Y-75506544D01*
X124959137Y-75337026D01*
X124814974Y-75192863D01*
X124645456Y-75079595D01*
X124457098Y-75001574D01*
X124257139Y-74961800D01*
X124053261Y-74961800D01*
X123853302Y-75001574D01*
X123664944Y-75079595D01*
X123495426Y-75192863D01*
X123351263Y-75337026D01*
X123237995Y-75506544D01*
X123159974Y-75694902D01*
X123120200Y-75894861D01*
X123120200Y-75956998D01*
X122733361Y-76343837D01*
X122751800Y-76251139D01*
X122751800Y-76047261D01*
X122712026Y-75847302D01*
X122634005Y-75658944D01*
X122520737Y-75489426D01*
X122376574Y-75345263D01*
X122207056Y-75231995D01*
X122018698Y-75153974D01*
X121818739Y-75114200D01*
X121614861Y-75114200D01*
X121414902Y-75153974D01*
X121226544Y-75231995D01*
X121057026Y-75345263D01*
X120912863Y-75489426D01*
X120799595Y-75658944D01*
X120721574Y-75847302D01*
X120681800Y-76047261D01*
X120681800Y-76251139D01*
X120721574Y-76451098D01*
X120799595Y-76639456D01*
X120912863Y-76808974D01*
X120956800Y-76852911D01*
X120956800Y-76901198D01*
X120000599Y-77857400D01*
X119938461Y-77857400D01*
X119738502Y-77897174D01*
X119550144Y-77975195D01*
X119380626Y-78088463D01*
X119236463Y-78232626D01*
X119123195Y-78402144D01*
X119045174Y-78590502D01*
X119032206Y-78655695D01*
X118922174Y-78545663D01*
X118752656Y-78432395D01*
X118564298Y-78354374D01*
X118364339Y-78314600D01*
X118302202Y-78314600D01*
X117708604Y-77721002D01*
X117684801Y-77691999D01*
X117569076Y-77597026D01*
X117437047Y-77526454D01*
X117293786Y-77482997D01*
X117182133Y-77472000D01*
X117182122Y-77472000D01*
X117144800Y-77468324D01*
X117107478Y-77472000D01*
X115618800Y-77472000D01*
X115618800Y-76233532D01*
X115719875Y-76275399D01*
X115919834Y-76315173D01*
X116123712Y-76315173D01*
X116323671Y-76275399D01*
X116512029Y-76197378D01*
X116681547Y-76084110D01*
X116825710Y-75939947D01*
X116938978Y-75770429D01*
X117016999Y-75582071D01*
X117056773Y-75382112D01*
X117056773Y-75178234D01*
X117056443Y-75176573D01*
X117144357Y-75176573D01*
X117399561Y-75431777D01*
X117399561Y-75493915D01*
X117439335Y-75693874D01*
X117517356Y-75882232D01*
X117630624Y-76051750D01*
X117774787Y-76195913D01*
X117944305Y-76309181D01*
X118132663Y-76387202D01*
X118332622Y-76426976D01*
X118536500Y-76426976D01*
X118736459Y-76387202D01*
X118924817Y-76309181D01*
X119094335Y-76195913D01*
X119238498Y-76051750D01*
X119351766Y-75882232D01*
X119429787Y-75693874D01*
X119469561Y-75493915D01*
X119469561Y-75290037D01*
X119429787Y-75090078D01*
X119351766Y-74901720D01*
X119238498Y-74732202D01*
X119094335Y-74588039D01*
X118924817Y-74474771D01*
X118736459Y-74396750D01*
X118536500Y-74356976D01*
X118474362Y-74356976D01*
X118022962Y-73905575D01*
X117999159Y-73876572D01*
X117883434Y-73781599D01*
X117751405Y-73711027D01*
X117608144Y-73667570D01*
X117496491Y-73656573D01*
X117496480Y-73656573D01*
X117459158Y-73652897D01*
X117421836Y-73656573D01*
X116781773Y-73656573D01*
X116781773Y-71631427D01*
X118063450Y-71631427D01*
X117994704Y-71797395D01*
X117943400Y-72055314D01*
X117943400Y-72318286D01*
X117994704Y-72576205D01*
X118095339Y-72819159D01*
X118241438Y-73037813D01*
X118427387Y-73223762D01*
X118646041Y-73369861D01*
X118888995Y-73470496D01*
X119146914Y-73521800D01*
X119409886Y-73521800D01*
X119667805Y-73470496D01*
X119910759Y-73369861D01*
X120129413Y-73223762D01*
X120315362Y-73037813D01*
X120461461Y-72819159D01*
X120562096Y-72576205D01*
X120613400Y-72318286D01*
X120613400Y-72055314D01*
X120562096Y-71797395D01*
X120493350Y-71631427D01*
X121850200Y-71631427D01*
X121850200Y-71698366D01*
X121889974Y-71898325D01*
X121967995Y-72086683D01*
X122081263Y-72256201D01*
X122225426Y-72400364D01*
X122394944Y-72513632D01*
X122583302Y-72591653D01*
X122783261Y-72631427D01*
X122845399Y-72631427D01*
X125512184Y-75298213D01*
X125495164Y-75339302D01*
X125455390Y-75539261D01*
X125455390Y-75743139D01*
X125495164Y-75943098D01*
X125573185Y-76131456D01*
X125686453Y-76300974D01*
X125830616Y-76445137D01*
X126000134Y-76558405D01*
X126188492Y-76636426D01*
X126388451Y-76676200D01*
X126592329Y-76676200D01*
X126792288Y-76636426D01*
X126980646Y-76558405D01*
X127150164Y-76445137D01*
X127294327Y-76300974D01*
X127407595Y-76131456D01*
X127485616Y-75943098D01*
X127525390Y-75743139D01*
X127525390Y-75539261D01*
X127485616Y-75339302D01*
X127407595Y-75150944D01*
X127294327Y-74981426D01*
X127165695Y-74852794D01*
X127125364Y-74777341D01*
X127054189Y-74690614D01*
X127030391Y-74661616D01*
X127001394Y-74637819D01*
X123995001Y-71631427D01*
X125539716Y-71631427D01*
X125629026Y-71720737D01*
X125798544Y-71834005D01*
X125986902Y-71912026D01*
X126186861Y-71951800D01*
X126390739Y-71951800D01*
X126590698Y-71912026D01*
X126779056Y-71834005D01*
X126948574Y-71720737D01*
X127092737Y-71576574D01*
X127206005Y-71407056D01*
X127284026Y-71218698D01*
X127323800Y-71018739D01*
X127323800Y-70814861D01*
X127293156Y-70660800D01*
X131822201Y-70660800D01*
X132261645Y-71100244D01*
G37*
%TD.AperFunction*%
%TD*%
M02*
