M48
INCH,TZ
T1C0.0157
T2C0.0276
T3C0.0295
T4C0.0354
T5C0.0394
%
G90
G05
T1
X38160Y-39320
X38600Y-28740
X39120Y-27895
X39260Y-29180
X39420Y-38640
X39620Y-36900
X39804Y-29324
X40020Y-36720
X40760Y-32535
X40900Y-33380
X41740Y-29560
X41800Y-28740
X42760Y-36320
X42780Y-26740
X43200Y-37120
X43392Y-27988
X43900Y-37860
X44400Y-27700
X44460Y-41280
X44520Y-36780
X44660Y-31460
X45220Y-27780
X45380Y-31180
X45469Y-41709
X45678Y-29638
X45780Y-40140
X46020Y-38380
X46500Y-38440
X46500Y-39980
X46560Y-31240
X46628Y-29682
X47260Y-31060
X47920Y-29980
X47980Y-38380
X48160Y-32520
X48380Y-28188
X48580Y-41120
X48600Y-30800
X48880Y-29920
X49087Y-36420
X49380Y-38380
X49427Y-31474
X49440Y-27520
X49720Y-27920
X49799Y-29780
X50280Y-33260
X50320Y-35140
X50460Y-41480
X50560Y-29280
X50560Y-41060
X50700Y-29880
X50840Y-33280
X51060Y-38500
X51176Y-29804
X51240Y-40060
X51340Y-31300
X51340Y-38200
X51636Y-30925
X51700Y-39680
X51780Y-39089
X51800Y-38360
X51811Y-40520
X51820Y-28060
X51920Y-33780
X51922Y-31280
X51940Y-37180
X52000Y-31820
X52360Y-28280
X52700Y-40920
X52821Y-36720
X53400Y-36980
X54400Y-42400
X56480Y-41040
T2
X37840Y-36220
X37860Y-29120
X37860Y-30880
X37860Y-32660
X37860Y-34460
X37880Y-27320
X46520Y-37680
X46960Y-28420
X46980Y-42200
X48820Y-42160
X50420Y-42120
X51940Y-42200
X52140Y-30640
X53500Y-42240
X53620Y-41420
X53800Y-32820
T3
X38040Y-41760
X38060Y-39860
X38540Y-41760
X38560Y-39860
X39040Y-41760
X39060Y-39860
X39860Y-35000
X39860Y-35500
X39860Y-36000
X39880Y-32820
X39880Y-33320
X39880Y-33820
X41780Y-32840
X41780Y-33340
X41780Y-33840
X53340Y-34920
X53340Y-35420
X53340Y-35920
T4
X42040Y-39840
X42040Y-41809
X43024Y-40824
X44436Y-35776
X45420Y-34791
X45420Y-36760
X53640Y-30720
X53640Y-31720
T5
X55700Y-29600
X55700Y-30600
X55700Y-31600
X55700Y-32600
X55700Y-33600
X55700Y-34600
X55700Y-35600
X55700Y-36600
X56700Y-29600
X56700Y-30600
X56700Y-31600
X56700Y-32600
X56700Y-33600
X56700Y-34600
X56700Y-35600
X56700Y-36600
T0
M30
