%TF.GenerationSoftware,KiCad,Pcbnew,(5.1.10)-1*%
%TF.CreationDate,2021-07-01T15:47:13-04:00*%
%TF.ProjectId,LFO,4c464f2e-6b69-4636-9164-5f7063625858,rev?*%
%TF.SameCoordinates,Original*%
%TF.FileFunction,Soldermask,Bot*%
%TF.FilePolarity,Negative*%
%FSLAX46Y46*%
G04 Gerber Fmt 4.6, Leading zero omitted, Abs format (unit mm)*
G04 Created by KiCad (PCBNEW (5.1.10)-1) date 2021-07-01 15:47:13*
%MOMM*%
%LPD*%
G01*
G04 APERTURE LIST*
%ADD10C,2.100000*%
%ADD11O,1.700000X1.700000*%
%ADD12R,1.700000X1.700000*%
%ADD13C,1.620000*%
%ADD14R,1.500000X1.050000*%
%ADD15O,1.500000X1.050000*%
%ADD16R,1.050000X1.500000*%
%ADD17O,1.050000X1.500000*%
%ADD18C,1.800000*%
%ADD19R,1.800000X1.800000*%
%ADD20C,1.400000*%
G04 APERTURE END LIST*
D10*
%TO.C,REF\u002A\u002A*%
X148580000Y-106540000D03*
%TD*%
%TO.C,REF\u002A\u002A*%
X148650000Y-69710000D03*
%TD*%
D11*
%TO.C,REF\u002A\u002A*%
X144018000Y-92964000D03*
X141478000Y-92964000D03*
X144018000Y-90424000D03*
X141478000Y-90424000D03*
X144018000Y-87884000D03*
X141478000Y-87884000D03*
X144018000Y-85344000D03*
X141478000Y-85344000D03*
X144018000Y-82804000D03*
X141478000Y-82804000D03*
X144018000Y-80264000D03*
X141478000Y-80264000D03*
X144018000Y-77724000D03*
X141478000Y-77724000D03*
X144018000Y-75184000D03*
D12*
X141478000Y-75184000D03*
%TD*%
D13*
%TO.C,R46*%
X106781600Y-101193600D03*
X109281600Y-103693600D03*
X106781600Y-106193600D03*
%TD*%
%TO.C,R25*%
X115366800Y-93370400D03*
X112866800Y-90870400D03*
X115366800Y-88370400D03*
%TD*%
D14*
%TO.C,Q6*%
X135483600Y-88696800D03*
D15*
X135483600Y-91236800D03*
X135483600Y-89966800D03*
%TD*%
D16*
%TO.C,Q5*%
X99161600Y-106070400D03*
D17*
X96621600Y-106070400D03*
X97891600Y-106070400D03*
%TD*%
D16*
%TO.C,Q4*%
X99212400Y-101244400D03*
D17*
X96672400Y-101244400D03*
X97942400Y-101244400D03*
%TD*%
D14*
%TO.C,Q3*%
X101244400Y-88900000D03*
D15*
X101244400Y-91440000D03*
X101244400Y-90170000D03*
%TD*%
D14*
%TO.C,Q2*%
X101295200Y-83362800D03*
D15*
X101295200Y-85902800D03*
X101295200Y-84632800D03*
%TD*%
D14*
%TO.C,Q1*%
X106121200Y-83413600D03*
D15*
X106121200Y-85953600D03*
X106121200Y-84683600D03*
%TD*%
D18*
%TO.C,LED1*%
X136245600Y-80568800D03*
D19*
X136245600Y-78028800D03*
%TD*%
D20*
%TO.C,LEDA*%
X136652000Y-83362800D03*
%TD*%
%TO.C,PW90*%
X128066800Y-106984800D03*
%TD*%
%TO.C,PWC*%
X131927600Y-107188000D03*
%TD*%
%TO.C,PW10*%
X135890000Y-107289600D03*
%TD*%
%TO.C,PWXV*%
X124002800Y-107086400D03*
%TD*%
%TO.C,SAW*%
X118160800Y-95707200D03*
%TD*%
%TO.C,SQR*%
X136194800Y-105206800D03*
%TD*%
%TO.C,SIN*%
X119278400Y-72186800D03*
%TD*%
%TO.C,RMP*%
X119329200Y-107188000D03*
%TD*%
%TO.C,TRI*%
X132435600Y-77825600D03*
%TD*%
%TO.C,CV3*%
X96164400Y-82956400D03*
%TD*%
%TO.C,CV1*%
X96164400Y-87528400D03*
%TD*%
%TO.C,CV2*%
X96113600Y-91998800D03*
%TD*%
%TO.C,FFV*%
X96164400Y-73964800D03*
%TD*%
%TO.C,CFL*%
X96215200Y-69392800D03*
%TD*%
%TO.C,CFV*%
X96164400Y-78435200D03*
%TD*%
M02*
