M48
; DRILL file {KiCad (6.0.5)} date Wed Apr 26 04:57:21 2023
; FORMAT={-:-/ absolute / inch / decimal}
; #@! TF.CreationDate,2023-04-26T04:57:21-04:00
; #@! TF.GenerationSoftware,Kicad,Pcbnew,(6.0.5)
; #@! TF.FileFunction,Plated,1,2,PTH
FMAT,2
INCH
; #@! TA.AperFunction,Plated,PTH,ComponentDrill
T1C0.0236
; #@! TA.AperFunction,Plated,PTH,ComponentDrill
T2C0.0276
; #@! TA.AperFunction,Plated,PTH,ComponentDrill
T3C0.0315
; #@! TA.AperFunction,Plated,PTH,ComponentDrill
T4C0.0354
; #@! TA.AperFunction,Plated,PTH,ComponentDrill
T5C0.0394
%
G90
G05
T1
X4.1909Y-4.55
X4.25Y-4.55
X11.825Y-4.375
X11.8841Y-4.375
T2
X2.6Y-4.5
X2.6Y-4.6
X2.8Y-4.5
X2.8Y-4.6
X2.9Y-4.3
X2.9Y-4.5
X2.9Y-4.6
X3.1Y-4.3
X3.1Y-4.5
X3.1Y-4.6
X3.6Y-3.7
X3.7Y-2.15
X3.7Y-2.35
X3.725Y-2.725
X3.725Y-2.925
X3.8Y-3.7
X3.8Y-4.0
X3.8Y-4.1
X3.8Y-4.5
X3.8Y-4.6
X3.9Y-2.15
X3.9Y-2.35
X3.925Y-2.725
X3.925Y-2.925
X4.0Y-4.0
X4.0Y-4.1
X4.0Y-4.5
X4.0Y-4.6
X7.3Y-4.375
X7.3Y-4.575
X7.8Y-4.375
X7.8Y-4.575
X10.2Y-4.275
X10.2Y-4.375
X10.4Y-4.275
X10.4Y-4.375
X10.5Y-4.275
X10.5004Y-4.075
X10.5004Y-4.375
X10.7Y-4.275
X10.7004Y-4.075
X10.7004Y-4.375
X11.2Y-3.475
X11.375Y-4.275
X11.375Y-4.375
X11.4Y-3.475
X11.45Y-3.775
X11.45Y-3.875
X11.575Y-4.275
X11.575Y-4.375
X11.65Y-3.775
X11.65Y-3.875
X12.475Y-2.125
X12.475Y-2.325
X12.475Y-2.7
X12.475Y-2.9
X12.675Y-2.125
X12.675Y-2.325
X12.675Y-2.7
X12.675Y-2.9
T3
X1.075Y-4.175
X1.075Y-4.275
X1.075Y-4.375
X1.075Y-4.475
X1.075Y-4.575
X1.075Y-4.675
X1.075Y-4.775
X1.075Y-4.875
X1.375Y-4.175
X1.375Y-4.275
X1.375Y-4.375
X1.375Y-4.475
X1.375Y-4.575
X1.375Y-4.675
X1.375Y-4.775
X1.375Y-4.875
X1.775Y-4.175
X1.775Y-4.275
X1.775Y-4.375
X1.775Y-4.475
X1.775Y-4.575
X1.775Y-4.675
X1.775Y-4.775
X1.775Y-4.875
X2.075Y-4.175
X2.075Y-4.275
X2.075Y-4.375
X2.075Y-4.475
X2.075Y-4.575
X2.075Y-4.675
X2.075Y-4.775
X2.075Y-4.875
X3.2004Y-4.2006
X3.2004Y-4.3006
X3.2004Y-4.4006
X3.2004Y-4.5006
X3.2004Y-4.6006
X3.2004Y-4.7006
X3.2004Y-4.8006
X3.2004Y-4.9006
X3.5004Y-4.2006
X3.5004Y-4.3006
X3.5004Y-4.4006
X3.5004Y-4.5006
X3.5004Y-4.6006
X3.5004Y-4.7006
X3.5004Y-4.8006
X3.5004Y-4.9006
X5.65Y-2.025
X5.65Y-2.125
X5.65Y-2.225
X5.65Y-2.325
X5.65Y-2.425
X5.65Y-2.525
X5.65Y-2.625
X5.65Y-2.725
X5.65Y-2.9
X5.65Y-3.0
X5.65Y-3.1
X5.65Y-3.2
X5.65Y-3.3
X5.65Y-3.4
X5.65Y-3.5
X5.65Y-3.6
X5.6504Y-3.9748
X5.6504Y-4.0748
X5.6504Y-4.1748
X5.6504Y-4.2748
X5.6504Y-4.3748
X5.6504Y-4.4748
X5.6504Y-4.5748
X5.95Y-2.025
X5.95Y-2.125
X5.95Y-2.225
X5.95Y-2.325
X5.95Y-2.425
X5.95Y-2.525
X5.95Y-2.625
X5.95Y-2.725
X5.95Y-2.9
X5.95Y-3.0
X5.95Y-3.1
X5.95Y-3.2
X5.95Y-3.3
X5.95Y-3.4
X5.95Y-3.5
X5.95Y-3.6
X5.9504Y-3.9748
X5.9504Y-4.0748
X5.9504Y-4.1748
X5.9504Y-4.2748
X5.9504Y-4.3748
X5.9504Y-4.4748
X5.9504Y-4.5748
X7.4004Y-3.9756
X7.4004Y-4.0756
X7.4004Y-4.1756
X7.4004Y-4.2756
X7.4004Y-4.3756
X7.4004Y-4.4756
X7.4004Y-4.5756
X7.4004Y-4.6756
X7.7004Y-3.9756
X7.7004Y-4.0756
X7.7004Y-4.1756
X7.7004Y-4.2756
X7.7004Y-4.3756
X7.7004Y-4.4756
X7.7004Y-4.5756
X7.7004Y-4.6756
X9.15Y-1.875
X9.15Y-1.975
X9.15Y-2.075
X9.15Y-2.175
X9.15Y-2.275
X9.15Y-2.375
X9.15Y-2.475
X9.15Y-2.575
X9.1504Y-2.9006
X9.1504Y-3.0006
X9.1504Y-3.1006
X9.1504Y-3.2006
X9.1504Y-3.3006
X9.1504Y-3.4006
X9.1504Y-3.5006
X9.1504Y-3.6006
X9.1754Y-4.0748
X9.1754Y-4.1748
X9.1754Y-4.2748
X9.1754Y-4.3748
X9.1754Y-4.4748
X9.1754Y-4.5748
X9.1754Y-4.6748
X9.45Y-1.875
X9.45Y-1.975
X9.45Y-2.075
X9.45Y-2.175
X9.45Y-2.275
X9.45Y-2.375
X9.45Y-2.475
X9.45Y-2.575
X9.4504Y-2.9006
X9.4504Y-3.0006
X9.4504Y-3.1006
X9.4504Y-3.2006
X9.4504Y-3.3006
X9.4504Y-3.4006
X9.4504Y-3.5006
X9.4504Y-3.6006
X9.4754Y-4.0748
X9.4754Y-4.1748
X9.4754Y-4.2748
X9.4754Y-4.3748
X9.4754Y-4.4748
X9.4754Y-4.5748
X9.4754Y-4.6748
X10.8004Y-3.975
X10.8004Y-4.075
X10.8004Y-4.175
X10.8004Y-4.275
X10.8004Y-4.375
X10.8004Y-4.475
X10.8004Y-4.575
X10.8004Y-4.675
X11.1004Y-3.975
X11.1004Y-4.075
X11.1004Y-4.175
X11.1004Y-4.275
X11.1004Y-4.375
X11.1004Y-4.475
X11.1004Y-4.575
X11.1004Y-4.675
X13.0004Y-3.9756
X13.0004Y-4.0756
X13.0004Y-4.1756
X13.0004Y-4.2756
X13.0004Y-4.3756
X13.0004Y-4.4756
X13.0004Y-4.5756
X13.0004Y-4.6756
X13.3004Y-3.9756
X13.3004Y-4.0756
X13.3004Y-4.1756
X13.3004Y-4.2756
X13.3004Y-4.3756
X13.3004Y-4.4756
X13.3004Y-4.5756
X13.3004Y-4.6756
X13.4754Y-3.9756
X13.4754Y-4.0756
X13.4754Y-4.1756
X13.4754Y-4.2756
X13.4754Y-4.3756
X13.4754Y-4.4756
X13.4754Y-4.5756
X13.4754Y-4.6756
X13.7754Y-3.9756
X13.7754Y-4.0756
X13.7754Y-4.1756
X13.7754Y-4.2756
X13.7754Y-4.3756
X13.7754Y-4.4756
X13.7754Y-4.5756
X13.7754Y-4.6756
T4
X2.6531Y-4.8
X2.675Y-4.2
X2.675Y-4.3969
X2.7516Y-4.8984
X2.7734Y-4.2984
X2.85Y-4.8
X4.0228Y-4.2016
X4.0228Y-4.3984
X4.1213Y-4.3
X6.05Y-4.375
X6.35Y-4.375
X6.8728Y-3.9766
X6.8728Y-4.1734
X6.8728Y-4.275
X6.8728Y-4.4719
X6.9713Y-4.075
X6.9713Y-4.3734
X7.1016Y-4.4766
X7.2Y-4.3781
X7.2Y-4.575
X7.9016Y-4.4766
X8.0Y-4.3781
X8.0Y-4.575
X8.1228Y-3.9766
X8.1228Y-4.1734
X8.1287Y-4.375
X8.2213Y-4.075
X8.2272Y-4.2766
X8.2272Y-4.4734
X9.5754Y-4.4748
X9.8754Y-4.4748
X10.275Y-3.975
X10.275Y-4.1719
X10.3531Y-4.6
X10.3734Y-4.0734
X10.4516Y-4.6984
X10.55Y-4.6
X11.6266Y-4.0772
X11.725Y-3.9787
X11.8234Y-4.0772
T5
X1.675Y-4.375
X1.675Y-4.675
X1.9441Y-5.3978
X1.9441Y-5.575
X1.9441Y-7.0478
X1.9441Y-7.225
X1.9441Y-7.6478
X1.9441Y-7.825
X1.947Y-6.1614
X1.947Y-6.3386
X1.947Y-8.0364
X2.2Y-4.6744
X2.2Y-4.7744
X2.2Y-4.8744
X2.2Y-5.3978
X2.2Y-5.575
X2.2Y-7.0478
X2.2Y-7.225
X2.2Y-7.6478
X2.2Y-7.825
X2.203Y-6.1614
X2.203Y-6.3386
X3.047Y-6.612
X3.047Y-6.712
X3.047Y-6.812
X3.047Y-6.9364
X4.0465Y-2.1494
X4.0465Y-2.2494
X4.0465Y-2.3494
X4.0465Y-2.7244
X4.0465Y-2.8244
X4.0465Y-2.9244
X4.072Y-5.4114
X4.072Y-5.5886
X4.0941Y-7.0728
X4.0941Y-7.25
X4.097Y-6.1614
X4.097Y-6.3386
X4.1191Y-7.6728
X4.1191Y-7.85
X4.328Y-5.4114
X4.328Y-5.5886
X4.35Y-7.0728
X4.35Y-7.25
X4.353Y-6.1614
X4.353Y-6.3386
X4.375Y-7.6728
X4.375Y-7.85
X5.525Y-3.1
X7.35Y-6.75
X7.35Y-6.85
X7.35Y-6.95
X7.35Y-7.05
X7.35Y-7.15
X7.45Y-6.75
X7.45Y-6.85
X7.45Y-6.95
X7.45Y-7.05
X7.45Y-7.15
X9.025Y-3.1
X9.322Y-7.0614
X9.322Y-7.2386
X9.322Y-7.9114
X9.322Y-8.0886
X9.325Y-8.425
X9.372Y-5.3114
X9.372Y-5.4886
X9.372Y-5.9364
X9.372Y-6.1136
X9.55Y-2.375
X9.575Y-3.3744
X9.575Y-3.4744
X9.575Y-3.5744
X9.578Y-7.0614
X9.578Y-7.2386
X9.578Y-7.9114
X9.578Y-8.0886
X9.6Y-6.375
X9.6Y-6.475
X9.6Y-6.575
X9.6Y-6.725
X9.628Y-5.3114
X9.628Y-5.4886
X9.628Y-5.9364
X9.628Y-6.1136
X10.472Y-5.3114
X10.472Y-5.4886
X10.497Y-5.9364
X10.497Y-6.1136
X10.522Y-7.0614
X10.522Y-7.2386
X10.522Y-7.9114
X10.522Y-8.0886
X10.728Y-5.3114
X10.728Y-5.4886
X10.753Y-5.9364
X10.753Y-6.1136
X10.778Y-7.0614
X10.778Y-7.2386
X10.778Y-7.9114
X10.778Y-8.0886
X12.175Y-6.525
X12.175Y-6.625
X12.175Y-6.725
X12.175Y-6.825
X12.175Y-6.925
X12.275Y-6.525
X12.275Y-6.625
X12.275Y-6.725
X12.275Y-6.825
X12.275Y-6.925
X12.8215Y-2.6994
X12.8215Y-2.7994
X12.8215Y-2.8994
X12.825Y-2.125
X12.825Y-2.225
X12.825Y-2.325
X12.85Y-4.175
T1
G00X0.9503Y-2.3746
M15
G01X0.9503Y-2.3982
M16
G05
G00X0.9503Y-2.4927
M15
G01X0.9503Y-2.5163
M16
G05
G00X0.9503Y-2.6502
M15
G01X0.9503Y-2.6738
M16
G05
G00X1.1275Y-2.7093
M15
G01X1.1275Y-2.7329
M16
G05
G00X1.1668Y-2.3746
M15
G01X1.1668Y-2.3982
M16
G05
G00X1.4003Y-2.3746
M15
G01X1.4003Y-2.3982
M16
G05
G00X1.4003Y-2.4927
M15
G01X1.4003Y-2.5163
M16
G05
G00X1.4003Y-2.6502
M15
G01X1.4003Y-2.6738
M16
G05
G00X1.5775Y-2.7093
M15
G01X1.5775Y-2.7329
M16
G05
G00X1.6168Y-2.3746
M15
G01X1.6168Y-2.3982
M16
G05
G00X1.9003Y-2.3746
M15
G01X1.9003Y-2.3982
M16
G05
G00X1.9003Y-2.4927
M15
G01X1.9003Y-2.5163
M16
G05
G00X1.9003Y-2.6502
M15
G01X1.9003Y-2.6738
M16
G05
G00X2.0775Y-2.7093
M15
G01X2.0775Y-2.7329
M16
G05
G00X2.1168Y-2.3746
M15
G01X2.1168Y-2.3982
M16
G05
G00X2.3753Y-2.3746
M15
G01X2.3753Y-2.3982
M16
G05
G00X2.3753Y-2.4927
M15
G01X2.3753Y-2.5163
M16
G05
G00X2.3753Y-2.6502
M15
G01X2.3753Y-2.6738
M16
G05
G00X2.5525Y-2.7093
M15
G01X2.5525Y-2.7329
M16
G05
G00X2.5918Y-2.3746
M15
G01X2.5918Y-2.3982
M16
G05
G00X2.7753Y-2.3746
M15
G01X2.7753Y-2.3982
M16
G05
G00X2.7753Y-2.4927
M15
G01X2.7753Y-2.5163
M16
G05
G00X2.7753Y-2.6502
M15
G01X2.7753Y-2.6738
M16
G05
G00X2.9525Y-2.7093
M15
G01X2.9525Y-2.7329
M16
G05
G00X2.9918Y-2.3746
M15
G01X2.9918Y-2.3982
M16
G05
G00X6.8753Y-2.1246
M15
G01X6.8753Y-2.1482
M16
G05
G00X6.8753Y-2.2427
M15
G01X6.8753Y-2.2663
M16
G05
G00X6.8753Y-2.4002
M15
G01X6.8753Y-2.4238
M16
G05
G00X6.9Y-2.9951
M15
G01X6.9Y-3.0187
M16
G05
G00X6.9Y-3.1132
M15
G01X6.9Y-3.1368
M16
G05
G00X6.9Y-3.2707
M15
G01X6.9Y-3.2943
M16
G05
G00X7.0525Y-2.4593
M15
G01X7.0525Y-2.4829
M16
G05
G00X7.0772Y-3.3297
M15
G01X7.0772Y-3.3533
M16
G05
G00X7.0918Y-2.1246
M15
G01X7.0918Y-2.1482
M16
G05
G00X7.1165Y-2.9951
M15
G01X7.1165Y-3.0187
M16
G05
G00X7.2253Y-2.1246
M15
G01X7.2253Y-2.1482
M16
G05
G00X7.2253Y-2.2427
M15
G01X7.2253Y-2.2663
M16
G05
G00X7.2253Y-2.4002
M15
G01X7.2253Y-2.4238
M16
G05
G00X7.25Y-2.9951
M15
G01X7.25Y-3.0187
M16
G05
G00X7.25Y-3.1132
M15
G01X7.25Y-3.1368
M16
G05
G00X7.25Y-3.2707
M15
G01X7.25Y-3.2943
M16
G05
G00X7.4025Y-2.4593
M15
G01X7.4025Y-2.4829
M16
G05
G00X7.4272Y-3.3297
M15
G01X7.4272Y-3.3533
M16
G05
G00X7.4418Y-2.1246
M15
G01X7.4418Y-2.1482
M16
G05
G00X7.4665Y-2.9951
M15
G01X7.4665Y-3.0187
M16
G05
G00X7.5753Y-2.1246
M15
G01X7.5753Y-2.1482
M16
G05
G00X7.5753Y-2.2427
M15
G01X7.5753Y-2.2663
M16
G05
G00X7.5753Y-2.4002
M15
G01X7.5753Y-2.4238
M16
G05
G00X7.6Y-2.9951
M15
G01X7.6Y-3.0187
M16
G05
G00X7.6Y-3.1132
M15
G01X7.6Y-3.1368
M16
G05
G00X7.6Y-3.2707
M15
G01X7.6Y-3.2943
M16
G05
G00X7.7525Y-2.4593
M15
G01X7.7525Y-2.4829
M16
G05
G00X7.7772Y-3.3297
M15
G01X7.7772Y-3.3533
M16
G05
G00X7.7918Y-2.1246
M15
G01X7.7918Y-2.1482
M16
G05
G00X7.8165Y-2.9951
M15
G01X7.8165Y-3.0187
M16
G05
G00X7.9253Y-2.1246
M15
G01X7.9253Y-2.1482
M16
G05
G00X7.9253Y-2.2427
M15
G01X7.9253Y-2.2663
M16
G05
G00X7.9253Y-2.4002
M15
G01X7.9253Y-2.4238
M16
G05
G00X7.95Y-2.9951
M15
G01X7.95Y-3.0187
M16
G05
G00X7.95Y-3.1132
M15
G01X7.95Y-3.1368
M16
G05
G00X7.95Y-3.2707
M15
G01X7.95Y-3.2943
M16
G05
G00X8.1025Y-2.4593
M15
G01X8.1025Y-2.4829
M16
G05
G00X8.1272Y-3.3297
M15
G01X8.1272Y-3.3533
M16
G05
G00X8.1418Y-2.1246
M15
G01X8.1418Y-2.1482
M16
G05
G00X8.1665Y-2.9951
M15
G01X8.1665Y-3.0187
M16
G05
G00X10.1585Y-2.3632
M15
G01X10.1585Y-2.3868
M16
G05
G00X10.1585Y-2.4813
M15
G01X10.1585Y-2.5049
M16
G05
G00X10.1585Y-2.6388
M15
G01X10.1585Y-2.6624
M16
G05
G00X10.3356Y-2.6978
M15
G01X10.3356Y-2.7215
M16
G05
G00X10.375Y-2.3632
M15
G01X10.375Y-2.3868
M16
G05
G00X10.5503Y-2.3746
M15
G01X10.5503Y-2.3982
M16
G05
G00X10.5503Y-2.4927
M15
G01X10.5503Y-2.5163
M16
G05
G00X10.5503Y-2.6502
M15
G01X10.5503Y-2.6738
M16
G05
G00X10.7275Y-2.7093
M15
G01X10.7275Y-2.7329
M16
G05
G00X10.7668Y-2.3746
M15
G01X10.7668Y-2.3982
M16
G05
G00X10.9503Y-2.3996
M15
G01X10.9503Y-2.4232
M16
G05
G00X10.9503Y-2.5177
M15
G01X10.9503Y-2.5413
M16
G05
G00X10.9503Y-2.6752
M15
G01X10.9503Y-2.6988
M16
G05
G00X11.1275Y-2.7343
M15
G01X11.1275Y-2.7579
M16
G05
G00X11.1668Y-2.3996
M15
G01X11.1668Y-2.4232
M16
G05
G00X11.3253Y-2.3496
M15
G01X11.3253Y-2.3732
M16
G05
G00X11.3253Y-2.4677
M15
G01X11.3253Y-2.4913
M16
G05
G00X11.3253Y-2.6252
M15
G01X11.3253Y-2.6488
M16
G05
G00X11.5025Y-2.6843
M15
G01X11.5025Y-2.7079
M16
G05
G00X11.5418Y-2.3496
M15
G01X11.5418Y-2.3732
M16
G05
G00X11.75Y-2.3626
M15
G01X11.75Y-2.3862
M16
G05
G00X11.75Y-2.4807
M15
G01X11.75Y-2.5043
M16
G05
G00X11.75Y-2.6382
M15
G01X11.75Y-2.6618
M16
G05
G00X11.9272Y-2.6972
M15
G01X11.9272Y-2.7209
M16
G05
G00X11.9665Y-2.3626
M15
G01X11.9665Y-2.3862
M16
G05
T0
M30
