%TF.GenerationSoftware,KiCad,Pcbnew,(6.0.5)*%
%TF.CreationDate,2023-02-14T12:04:11-05:00*%
%TF.ProjectId,vco2,76636f32-2e6b-4696-9361-645f70636258,rev?*%
%TF.SameCoordinates,Original*%
%TF.FileFunction,Paste,Top*%
%TF.FilePolarity,Positive*%
%FSLAX46Y46*%
G04 Gerber Fmt 4.6, Leading zero omitted, Abs format (unit mm)*
G04 Created by KiCad (PCBNEW (6.0.5)) date 2023-02-14 12:04:11*
%MOMM*%
%LPD*%
G01*
G04 APERTURE LIST*
G04 Aperture macros list*
%AMRoundRect*
0 Rectangle with rounded corners*
0 $1 Rounding radius*
0 $2 $3 $4 $5 $6 $7 $8 $9 X,Y pos of 4 corners*
0 Add a 4 corners polygon primitive as box body*
4,1,4,$2,$3,$4,$5,$6,$7,$8,$9,$2,$3,0*
0 Add four circle primitives for the rounded corners*
1,1,$1+$1,$2,$3*
1,1,$1+$1,$4,$5*
1,1,$1+$1,$6,$7*
1,1,$1+$1,$8,$9*
0 Add four rect primitives between the rounded corners*
20,1,$1+$1,$2,$3,$4,$5,0*
20,1,$1+$1,$4,$5,$6,$7,0*
20,1,$1+$1,$6,$7,$8,$9,0*
20,1,$1+$1,$8,$9,$2,$3,0*%
G04 Aperture macros list end*
%ADD10RoundRect,0.250000X-0.312500X-0.625000X0.312500X-0.625000X0.312500X0.625000X-0.312500X0.625000X0*%
%ADD11RoundRect,0.250000X0.625000X-0.312500X0.625000X0.312500X-0.625000X0.312500X-0.625000X-0.312500X0*%
%ADD12RoundRect,0.250000X0.312500X0.625000X-0.312500X0.625000X-0.312500X-0.625000X0.312500X-0.625000X0*%
%ADD13RoundRect,0.250000X-0.375000X-0.625000X0.375000X-0.625000X0.375000X0.625000X-0.375000X0.625000X0*%
%ADD14RoundRect,0.250000X0.325000X0.650000X-0.325000X0.650000X-0.325000X-0.650000X0.325000X-0.650000X0*%
%ADD15RoundRect,0.250000X-0.325000X-0.650000X0.325000X-0.650000X0.325000X0.650000X-0.325000X0.650000X0*%
%ADD16RoundRect,0.250000X0.650000X-0.325000X0.650000X0.325000X-0.650000X0.325000X-0.650000X-0.325000X0*%
%ADD17RoundRect,0.250000X-0.625000X0.375000X-0.625000X-0.375000X0.625000X-0.375000X0.625000X0.375000X0*%
%ADD18RoundRect,0.250000X-0.625000X0.312500X-0.625000X-0.312500X0.625000X-0.312500X0.625000X0.312500X0*%
G04 APERTURE END LIST*
D10*
%TO.C,R71*%
X123665000Y-71460000D03*
X126590000Y-71460000D03*
%TD*%
D11*
%TO.C,R15*%
X108617500Y-64032500D03*
X108617500Y-61107500D03*
%TD*%
D10*
%TO.C,R20*%
X120457500Y-119380000D03*
X123382500Y-119380000D03*
%TD*%
D12*
%TO.C,R57*%
X129130000Y-63840000D03*
X126205000Y-63840000D03*
%TD*%
D11*
%TO.C,R47*%
X109210000Y-103072500D03*
X109210000Y-100147500D03*
%TD*%
%TO.C,R17*%
X117507500Y-85622500D03*
X117507500Y-82697500D03*
%TD*%
D12*
%TO.C,R65*%
X129130000Y-66380000D03*
X126205000Y-66380000D03*
%TD*%
D11*
%TO.C,R34*%
X104130000Y-103072500D03*
X104130000Y-100147500D03*
%TD*%
D12*
%TO.C,R9*%
X122780000Y-87970000D03*
X119855000Y-87970000D03*
%TD*%
D13*
%TO.C,D2*%
X114160000Y-92720000D03*
X116960000Y-92720000D03*
%TD*%
D11*
%TO.C,R46*%
X106670000Y-103072500D03*
X106670000Y-100147500D03*
%TD*%
D14*
%TO.C,C6*%
X114495000Y-110500000D03*
X111545000Y-110500000D03*
%TD*%
D11*
%TO.C,R50*%
X107347500Y-113562500D03*
X107347500Y-110637500D03*
%TD*%
%TO.C,R10*%
X118777500Y-64032500D03*
X118777500Y-61107500D03*
%TD*%
%TO.C,R27*%
X116237500Y-64032500D03*
X116237500Y-61107500D03*
%TD*%
D15*
%TO.C,C19*%
X113492500Y-66380000D03*
X116442500Y-66380000D03*
%TD*%
D11*
%TO.C,R66*%
X106670000Y-97992500D03*
X106670000Y-95067500D03*
%TD*%
D16*
%TO.C,C5*%
X104130000Y-98005000D03*
X104130000Y-95055000D03*
%TD*%
D12*
%TO.C,R31*%
X106270000Y-76540000D03*
X103345000Y-76540000D03*
%TD*%
D15*
%TO.C,C3*%
X110952500Y-79080000D03*
X113902500Y-79080000D03*
%TD*%
D14*
%TO.C,C18*%
X117035000Y-97800000D03*
X114085000Y-97800000D03*
%TD*%
D10*
%TO.C,R30*%
X103345000Y-79080000D03*
X106270000Y-79080000D03*
%TD*%
D11*
%TO.C,R18*%
X111157500Y-64032500D03*
X111157500Y-61107500D03*
%TD*%
%TO.C,R8*%
X121317500Y-64032500D03*
X121317500Y-61107500D03*
%TD*%
D17*
%TO.C,D1*%
X126397500Y-85300000D03*
X126397500Y-88100000D03*
%TD*%
D14*
%TO.C,C8*%
X126602500Y-61300000D03*
X123652500Y-61300000D03*
%TD*%
D10*
%TO.C,R56*%
X123665000Y-68920000D03*
X126590000Y-68920000D03*
%TD*%
D14*
%TO.C,C1*%
X118315000Y-116840000D03*
X115365000Y-116840000D03*
%TD*%
D18*
%TO.C,R6*%
X109220000Y-124267500D03*
X109220000Y-127192500D03*
%TD*%
D11*
%TO.C,R19*%
X118777500Y-71652500D03*
X118777500Y-68727500D03*
%TD*%
D15*
%TO.C,C17*%
X118972500Y-92720000D03*
X121922500Y-92720000D03*
%TD*%
D10*
%TO.C,R12*%
X120457500Y-116840000D03*
X123382500Y-116840000D03*
%TD*%
D11*
%TO.C,R70*%
X119177500Y-113232500D03*
X119177500Y-110307500D03*
%TD*%
%TO.C,R28*%
X118777500Y-76732500D03*
X118777500Y-73807500D03*
%TD*%
%TO.C,R23*%
X113697500Y-64032500D03*
X113697500Y-61107500D03*
%TD*%
%TO.C,R42*%
X121910000Y-103072500D03*
X121910000Y-100147500D03*
%TD*%
D10*
%TO.C,R69*%
X114097500Y-95260000D03*
X117022500Y-95260000D03*
%TD*%
M02*
