M48
; DRILL file {KiCad 7.0.2} date Mon Jun 12 17:36:48 2023
; FORMAT={-:-/ absolute / inch / decimal}
; #@! TF.CreationDate,2023-06-12T17:36:48-04:00
; #@! TF.GenerationSoftware,Kicad,Pcbnew,7.0.2
; #@! TF.FileFunction,Plated,1,2,PTH
FMAT,2
INCH
; #@! TA.AperFunction,Plated,PTH,ViaDrill
T1C0.0157
; #@! TA.AperFunction,Plated,PTH,ComponentDrill
T2C0.0236
; #@! TA.AperFunction,Plated,PTH,ComponentDrill
T3C0.0315
; #@! TA.AperFunction,Plated,PTH,ComponentDrill
T4C0.0354
; #@! TA.AperFunction,Plated,PTH,ComponentDrill
T5C0.0394
; #@! TA.AperFunction,Plated,PTH,ComponentDrill
T6C0.0709
%
G90
G05
T1
X7.0516Y-2.6565
X7.052Y-4.2753
X7.0531Y-2.8318
X7.0731Y-5.304
X7.0806Y-2.5288
X7.0989Y-5.7393
X7.112Y-4.4998
X7.1182Y-4.6927
X7.129Y-5.1788
X7.2289Y-3.063
X7.2416Y-4.6359
X7.2842Y-3.2603
X7.3143Y-3.6523
X7.3155Y-5.311
X7.3287Y-3.8813
X7.3298Y-4.1131
X7.3307Y-3.9926
X7.3791Y-3.4333
X7.3838Y-2.6976
X7.3842Y-3.2703
X7.4095Y-3.64
X7.4111Y-2.3606
X7.4529Y-2.6033
X7.4577Y-2.4939
X7.4783Y-3.3606
X7.4944Y-3.1268
X7.5126Y-1.8999
X7.5232Y-4.879
X7.5258Y-2.3603
X7.5455Y-4.1272
X7.5682Y-2.8376
X7.5712Y-4.0745
X7.5806Y-3.5087
X7.5833Y-2.2727
X7.5941Y-2.9266
X7.5955Y-4.6729
X7.6036Y-3.1778
X7.6461Y-2.9842
X7.6593Y-2.1399
X7.6612Y-3.1612
X7.6746Y-3.3972
X7.678Y-5.1549
X7.6833Y-4.5211
X7.6896Y-4.0374
X7.6924Y-5.4375
X7.7324Y-5.1913
X7.7453Y-5.5629
T2
X7.3863Y-5.5
X7.465Y-5.5
T3
X7.05Y-5.6708
X7.05Y-5.7692
X7.06Y-4.45
X7.06Y-4.55
X7.06Y-4.65
X7.06Y-4.75
X7.06Y-4.85
X7.06Y-4.95
X7.06Y-5.05
X7.06Y-5.15
X7.36Y-4.45
X7.36Y-4.55
X7.36Y-4.65
X7.36Y-4.75
X7.36Y-4.85
X7.36Y-4.95
X7.36Y-5.05
X7.36Y-5.15
X7.45Y-4.45
X7.45Y-4.55
X7.45Y-4.65
X7.45Y-4.75
X7.45Y-4.85
X7.45Y-4.95
X7.45Y-5.05
X7.75Y-4.45
X7.75Y-4.55
X7.75Y-4.65
X7.75Y-4.75
X7.75Y-4.85
X7.75Y-4.95
X7.75Y-5.05
T4
X7.0516Y-2.32
X7.0516Y-3.09
X7.0537Y-1.78
X7.15Y-2.2216
X7.15Y-2.4184
X7.15Y-2.9916
X7.15Y-3.1884
X7.1522Y-1.6816
X7.1522Y-1.8784
X7.6516Y-2.37
X7.6537Y-1.79
X7.6537Y-3.09
X7.656Y-2.804
X7.75Y-2.2716
X7.75Y-2.4684
X7.7522Y-1.6916
X7.7522Y-1.8884
X7.7522Y-2.9916
X7.7522Y-3.1884
X7.7544Y-2.7056
X7.7544Y-2.9024
T5
X7.1998Y-5.675
X7.1998Y-5.775
X7.2998Y-5.675
X7.2998Y-5.775
X7.3031Y-1.7234
X7.3031Y-2.3
X7.3033Y-2.8756
X7.3998Y-5.675
X7.3998Y-5.775
X7.4016Y-1.7234
X7.4016Y-2.3
X7.4018Y-2.8756
X7.4998Y-5.675
X7.4998Y-5.775
X7.5Y-1.7234
X7.5Y-2.3
X7.5002Y-2.8756
X7.5998Y-5.675
X7.5998Y-5.775
T2
G00X7.1803Y-3.2912
M15
G01X7.2197Y-3.2912
M16
G05
G00X7.1803Y-3.618
M15
G01X7.2197Y-3.618
M16
G05
G00X7.1803Y-3.74
M15
G01X7.2197Y-3.74
M16
G05
G00X7.1803Y-3.8912
M15
G01X7.2197Y-3.8912
M16
G05
G00X7.1803Y-4.218
M15
G01X7.2197Y-4.218
M16
G05
G00X7.1803Y-4.34
M15
G01X7.2197Y-4.34
M16
G05
G00X7.1803Y-4.4912
M15
G01X7.2197Y-4.4912
M16
G05
G00X7.1803Y-4.818
M15
G01X7.2197Y-4.818
M16
G05
G00X7.1803Y-4.94
M15
G01X7.2197Y-4.94
M16
G05
G00X7.1803Y-5.0912
M15
G01X7.2197Y-5.0912
M16
G05
G00X7.1803Y-5.418
M15
G01X7.2197Y-5.418
M16
G05
G00X7.1803Y-5.54
M15
G01X7.2197Y-5.54
M16
G05
G00X7.5803Y-3.2912
M15
G01X7.6197Y-3.2912
M16
G05
G00X7.5803Y-3.618
M15
G01X7.6197Y-3.618
M16
G05
G00X7.5803Y-3.74
M15
G01X7.6197Y-3.74
M16
G05
G00X7.5803Y-3.8912
M15
G01X7.6197Y-3.8912
M16
G05
G00X7.5803Y-4.218
M15
G01X7.6197Y-4.218
M16
G05
G00X7.5803Y-4.34
M15
G01X7.6197Y-4.34
M16
G05
G00X7.5803Y-4.4912
M15
G01X7.6197Y-4.4912
M16
G05
G00X7.5803Y-4.818
M15
G01X7.6197Y-4.818
M16
G05
G00X7.5803Y-4.94
M15
G01X7.6197Y-4.94
M16
G05
G00X7.5803Y-5.0912
M15
G01X7.6197Y-5.0912
M16
G05
G00X7.5803Y-5.418
M15
G01X7.6197Y-5.418
M16
G05
G00X7.5803Y-5.54
M15
G01X7.6197Y-5.54
M16
G05
T6
G00X7.2283Y-1.4537
M15
G01X7.2283Y-1.4419
M16
G05
G00X7.2283Y-2.0303
M15
G01X7.2283Y-2.0185
M16
G05
G00X7.2285Y-2.6059
M15
G01X7.2285Y-2.5941
M16
G05
G00X7.5748Y-1.4537
M15
G01X7.5748Y-1.4419
M16
G05
G00X7.5748Y-2.0303
M15
G01X7.5748Y-2.0185
M16
G05
G00X7.575Y-2.6059
M15
G01X7.575Y-2.5941
M16
G05
T0
M30
