%TF.GenerationSoftware,KiCad,Pcbnew,7.0.2*%
%TF.CreationDate,2023-06-12T17:36:46-04:00*%
%TF.ProjectId,as3340_no_mux,61733333-3430-45f6-9e6f-5f6d75782e6b,rev?*%
%TF.SameCoordinates,Original*%
%TF.FileFunction,Legend,Top*%
%TF.FilePolarity,Positive*%
%FSLAX46Y46*%
G04 Gerber Fmt 4.6, Leading zero omitted, Abs format (unit mm)*
G04 Created by KiCad (PCBNEW 7.0.2) date 2023-06-12 17:36:46*
%MOMM*%
%LPD*%
G01*
G04 APERTURE LIST*
%ADD10C,0.150000*%
%ADD11C,0.200000*%
%ADD12C,0.120000*%
G04 APERTURE END LIST*
D10*
%TO.C,J15*%
X189730476Y-126898619D02*
X189730476Y-127612904D01*
X189730476Y-127612904D02*
X189682857Y-127755761D01*
X189682857Y-127755761D02*
X189587619Y-127851000D01*
X189587619Y-127851000D02*
X189444762Y-127898619D01*
X189444762Y-127898619D02*
X189349524Y-127898619D01*
X190730476Y-127898619D02*
X190159048Y-127898619D01*
X190444762Y-127898619D02*
X190444762Y-126898619D01*
X190444762Y-126898619D02*
X190349524Y-127041476D01*
X190349524Y-127041476D02*
X190254286Y-127136714D01*
X190254286Y-127136714D02*
X190159048Y-127184333D01*
X191635238Y-126898619D02*
X191159048Y-126898619D01*
X191159048Y-126898619D02*
X191111429Y-127374809D01*
X191111429Y-127374809D02*
X191159048Y-127327190D01*
X191159048Y-127327190D02*
X191254286Y-127279571D01*
X191254286Y-127279571D02*
X191492381Y-127279571D01*
X191492381Y-127279571D02*
X191587619Y-127327190D01*
X191587619Y-127327190D02*
X191635238Y-127374809D01*
X191635238Y-127374809D02*
X191682857Y-127470047D01*
X191682857Y-127470047D02*
X191682857Y-127708142D01*
X191682857Y-127708142D02*
X191635238Y-127803380D01*
X191635238Y-127803380D02*
X191587619Y-127851000D01*
X191587619Y-127851000D02*
X191492381Y-127898619D01*
X191492381Y-127898619D02*
X191254286Y-127898619D01*
X191254286Y-127898619D02*
X191159048Y-127851000D01*
X191159048Y-127851000D02*
X191111429Y-127803380D01*
%TO.C,J1*%
X180046666Y-111658619D02*
X180046666Y-112372904D01*
X180046666Y-112372904D02*
X179999047Y-112515761D01*
X179999047Y-112515761D02*
X179903809Y-112611000D01*
X179903809Y-112611000D02*
X179760952Y-112658619D01*
X179760952Y-112658619D02*
X179665714Y-112658619D01*
X181046666Y-112658619D02*
X180475238Y-112658619D01*
X180760952Y-112658619D02*
X180760952Y-111658619D01*
X180760952Y-111658619D02*
X180665714Y-111801476D01*
X180665714Y-111801476D02*
X180570476Y-111896714D01*
X180570476Y-111896714D02*
X180475238Y-111944333D01*
%TO.C,J5*%
X180046666Y-126898619D02*
X180046666Y-127612904D01*
X180046666Y-127612904D02*
X179999047Y-127755761D01*
X179999047Y-127755761D02*
X179903809Y-127851000D01*
X179903809Y-127851000D02*
X179760952Y-127898619D01*
X179760952Y-127898619D02*
X179665714Y-127898619D01*
X180999047Y-126898619D02*
X180522857Y-126898619D01*
X180522857Y-126898619D02*
X180475238Y-127374809D01*
X180475238Y-127374809D02*
X180522857Y-127327190D01*
X180522857Y-127327190D02*
X180618095Y-127279571D01*
X180618095Y-127279571D02*
X180856190Y-127279571D01*
X180856190Y-127279571D02*
X180951428Y-127327190D01*
X180951428Y-127327190D02*
X180999047Y-127374809D01*
X180999047Y-127374809D02*
X181046666Y-127470047D01*
X181046666Y-127470047D02*
X181046666Y-127708142D01*
X181046666Y-127708142D02*
X180999047Y-127803380D01*
X180999047Y-127803380D02*
X180951428Y-127851000D01*
X180951428Y-127851000D02*
X180856190Y-127898619D01*
X180856190Y-127898619D02*
X180618095Y-127898619D01*
X180618095Y-127898619D02*
X180522857Y-127851000D01*
X180522857Y-127851000D02*
X180475238Y-127803380D01*
%TO.C,D1*%
X177482619Y-146026094D02*
X176482619Y-146026094D01*
X176482619Y-146026094D02*
X176482619Y-145787999D01*
X176482619Y-145787999D02*
X176530238Y-145645142D01*
X176530238Y-145645142D02*
X176625476Y-145549904D01*
X176625476Y-145549904D02*
X176720714Y-145502285D01*
X176720714Y-145502285D02*
X176911190Y-145454666D01*
X176911190Y-145454666D02*
X177054047Y-145454666D01*
X177054047Y-145454666D02*
X177244523Y-145502285D01*
X177244523Y-145502285D02*
X177339761Y-145549904D01*
X177339761Y-145549904D02*
X177435000Y-145645142D01*
X177435000Y-145645142D02*
X177482619Y-145787999D01*
X177482619Y-145787999D02*
X177482619Y-146026094D01*
X177482619Y-144502285D02*
X177482619Y-145073713D01*
X177482619Y-144787999D02*
X176482619Y-144787999D01*
X176482619Y-144787999D02*
X176625476Y-144883237D01*
X176625476Y-144883237D02*
X176720714Y-144978475D01*
X176720714Y-144978475D02*
X176768333Y-145073713D01*
%TO.C,J2*%
X180046666Y-81178619D02*
X180046666Y-81892904D01*
X180046666Y-81892904D02*
X179999047Y-82035761D01*
X179999047Y-82035761D02*
X179903809Y-82131000D01*
X179903809Y-82131000D02*
X179760952Y-82178619D01*
X179760952Y-82178619D02*
X179665714Y-82178619D01*
X180475238Y-81273857D02*
X180522857Y-81226238D01*
X180522857Y-81226238D02*
X180618095Y-81178619D01*
X180618095Y-81178619D02*
X180856190Y-81178619D01*
X180856190Y-81178619D02*
X180951428Y-81226238D01*
X180951428Y-81226238D02*
X180999047Y-81273857D01*
X180999047Y-81273857D02*
X181046666Y-81369095D01*
X181046666Y-81369095D02*
X181046666Y-81464333D01*
X181046666Y-81464333D02*
X180999047Y-81607190D01*
X180999047Y-81607190D02*
X180427619Y-82178619D01*
X180427619Y-82178619D02*
X181046666Y-82178619D01*
%TO.C,J12*%
X189730476Y-81178619D02*
X189730476Y-81892904D01*
X189730476Y-81892904D02*
X189682857Y-82035761D01*
X189682857Y-82035761D02*
X189587619Y-82131000D01*
X189587619Y-82131000D02*
X189444762Y-82178619D01*
X189444762Y-82178619D02*
X189349524Y-82178619D01*
X190730476Y-82178619D02*
X190159048Y-82178619D01*
X190444762Y-82178619D02*
X190444762Y-81178619D01*
X190444762Y-81178619D02*
X190349524Y-81321476D01*
X190349524Y-81321476D02*
X190254286Y-81416714D01*
X190254286Y-81416714D02*
X190159048Y-81464333D01*
X191111429Y-81273857D02*
X191159048Y-81226238D01*
X191159048Y-81226238D02*
X191254286Y-81178619D01*
X191254286Y-81178619D02*
X191492381Y-81178619D01*
X191492381Y-81178619D02*
X191587619Y-81226238D01*
X191587619Y-81226238D02*
X191635238Y-81273857D01*
X191635238Y-81273857D02*
X191682857Y-81369095D01*
X191682857Y-81369095D02*
X191682857Y-81464333D01*
X191682857Y-81464333D02*
X191635238Y-81607190D01*
X191635238Y-81607190D02*
X191063810Y-82178619D01*
X191063810Y-82178619D02*
X191682857Y-82178619D01*
%TO.C,THONKY_FINE_CV1*%
X179812619Y-58965237D02*
X179812619Y-58393809D01*
X180812619Y-58679523D02*
X179812619Y-58679523D01*
X180812619Y-58060475D02*
X179812619Y-58060475D01*
X180288809Y-58060475D02*
X180288809Y-57489047D01*
X180812619Y-57489047D02*
X179812619Y-57489047D01*
X179812619Y-56822380D02*
X179812619Y-56631904D01*
X179812619Y-56631904D02*
X179860238Y-56536666D01*
X179860238Y-56536666D02*
X179955476Y-56441428D01*
X179955476Y-56441428D02*
X180145952Y-56393809D01*
X180145952Y-56393809D02*
X180479285Y-56393809D01*
X180479285Y-56393809D02*
X180669761Y-56441428D01*
X180669761Y-56441428D02*
X180765000Y-56536666D01*
X180765000Y-56536666D02*
X180812619Y-56631904D01*
X180812619Y-56631904D02*
X180812619Y-56822380D01*
X180812619Y-56822380D02*
X180765000Y-56917618D01*
X180765000Y-56917618D02*
X180669761Y-57012856D01*
X180669761Y-57012856D02*
X180479285Y-57060475D01*
X180479285Y-57060475D02*
X180145952Y-57060475D01*
X180145952Y-57060475D02*
X179955476Y-57012856D01*
X179955476Y-57012856D02*
X179860238Y-56917618D01*
X179860238Y-56917618D02*
X179812619Y-56822380D01*
X180812619Y-55965237D02*
X179812619Y-55965237D01*
X179812619Y-55965237D02*
X180812619Y-55393809D01*
X180812619Y-55393809D02*
X179812619Y-55393809D01*
X180812619Y-54917618D02*
X179812619Y-54917618D01*
X180812619Y-54346190D02*
X180241190Y-54774761D01*
X179812619Y-54346190D02*
X180384047Y-54917618D01*
X180336428Y-53727142D02*
X180812619Y-53727142D01*
X179812619Y-54060475D02*
X180336428Y-53727142D01*
X180336428Y-53727142D02*
X179812619Y-53393809D01*
X180907857Y-53298571D02*
X180907857Y-52536666D01*
X180288809Y-51965237D02*
X180288809Y-52298570D01*
X180812619Y-52298570D02*
X179812619Y-52298570D01*
X179812619Y-52298570D02*
X179812619Y-51822380D01*
X180812619Y-51441427D02*
X179812619Y-51441427D01*
X180812619Y-50965237D02*
X179812619Y-50965237D01*
X179812619Y-50965237D02*
X180812619Y-50393809D01*
X180812619Y-50393809D02*
X179812619Y-50393809D01*
X180288809Y-49917618D02*
X180288809Y-49584285D01*
X180812619Y-49441428D02*
X180812619Y-49917618D01*
X180812619Y-49917618D02*
X179812619Y-49917618D01*
X179812619Y-49917618D02*
X179812619Y-49441428D01*
X180907857Y-49250952D02*
X180907857Y-48489047D01*
X180717380Y-47679523D02*
X180765000Y-47727142D01*
X180765000Y-47727142D02*
X180812619Y-47869999D01*
X180812619Y-47869999D02*
X180812619Y-47965237D01*
X180812619Y-47965237D02*
X180765000Y-48108094D01*
X180765000Y-48108094D02*
X180669761Y-48203332D01*
X180669761Y-48203332D02*
X180574523Y-48250951D01*
X180574523Y-48250951D02*
X180384047Y-48298570D01*
X180384047Y-48298570D02*
X180241190Y-48298570D01*
X180241190Y-48298570D02*
X180050714Y-48250951D01*
X180050714Y-48250951D02*
X179955476Y-48203332D01*
X179955476Y-48203332D02*
X179860238Y-48108094D01*
X179860238Y-48108094D02*
X179812619Y-47965237D01*
X179812619Y-47965237D02*
X179812619Y-47869999D01*
X179812619Y-47869999D02*
X179860238Y-47727142D01*
X179860238Y-47727142D02*
X179907857Y-47679523D01*
X179812619Y-47393808D02*
X180812619Y-47060475D01*
X180812619Y-47060475D02*
X179812619Y-46727142D01*
X180812619Y-45869999D02*
X180812619Y-46441427D01*
X180812619Y-46155713D02*
X179812619Y-46155713D01*
X179812619Y-46155713D02*
X179955476Y-46250951D01*
X179955476Y-46250951D02*
X180050714Y-46346189D01*
X180050714Y-46346189D02*
X180098333Y-46441427D01*
%TO.C,J13*%
X189730476Y-96418619D02*
X189730476Y-97132904D01*
X189730476Y-97132904D02*
X189682857Y-97275761D01*
X189682857Y-97275761D02*
X189587619Y-97371000D01*
X189587619Y-97371000D02*
X189444762Y-97418619D01*
X189444762Y-97418619D02*
X189349524Y-97418619D01*
X190730476Y-97418619D02*
X190159048Y-97418619D01*
X190444762Y-97418619D02*
X190444762Y-96418619D01*
X190444762Y-96418619D02*
X190349524Y-96561476D01*
X190349524Y-96561476D02*
X190254286Y-96656714D01*
X190254286Y-96656714D02*
X190159048Y-96704333D01*
X191063810Y-96418619D02*
X191682857Y-96418619D01*
X191682857Y-96418619D02*
X191349524Y-96799571D01*
X191349524Y-96799571D02*
X191492381Y-96799571D01*
X191492381Y-96799571D02*
X191587619Y-96847190D01*
X191587619Y-96847190D02*
X191635238Y-96894809D01*
X191635238Y-96894809D02*
X191682857Y-96990047D01*
X191682857Y-96990047D02*
X191682857Y-97228142D01*
X191682857Y-97228142D02*
X191635238Y-97323380D01*
X191635238Y-97323380D02*
X191587619Y-97371000D01*
X191587619Y-97371000D02*
X191492381Y-97418619D01*
X191492381Y-97418619D02*
X191206667Y-97418619D01*
X191206667Y-97418619D02*
X191111429Y-97371000D01*
X191111429Y-97371000D02*
X191063810Y-97323380D01*
%TO.C,J4*%
X180046666Y-96418619D02*
X180046666Y-97132904D01*
X180046666Y-97132904D02*
X179999047Y-97275761D01*
X179999047Y-97275761D02*
X179903809Y-97371000D01*
X179903809Y-97371000D02*
X179760952Y-97418619D01*
X179760952Y-97418619D02*
X179665714Y-97418619D01*
X180951428Y-96751952D02*
X180951428Y-97418619D01*
X180713333Y-96371000D02*
X180475238Y-97085285D01*
X180475238Y-97085285D02*
X181094285Y-97085285D01*
%TO.C,THONKY_COURSE_CV1*%
X179812619Y-45653571D02*
X179812619Y-45082143D01*
X180812619Y-45367857D02*
X179812619Y-45367857D01*
X180812619Y-44748809D02*
X179812619Y-44748809D01*
X180288809Y-44748809D02*
X180288809Y-44177381D01*
X180812619Y-44177381D02*
X179812619Y-44177381D01*
X179812619Y-43510714D02*
X179812619Y-43320238D01*
X179812619Y-43320238D02*
X179860238Y-43225000D01*
X179860238Y-43225000D02*
X179955476Y-43129762D01*
X179955476Y-43129762D02*
X180145952Y-43082143D01*
X180145952Y-43082143D02*
X180479285Y-43082143D01*
X180479285Y-43082143D02*
X180669761Y-43129762D01*
X180669761Y-43129762D02*
X180765000Y-43225000D01*
X180765000Y-43225000D02*
X180812619Y-43320238D01*
X180812619Y-43320238D02*
X180812619Y-43510714D01*
X180812619Y-43510714D02*
X180765000Y-43605952D01*
X180765000Y-43605952D02*
X180669761Y-43701190D01*
X180669761Y-43701190D02*
X180479285Y-43748809D01*
X180479285Y-43748809D02*
X180145952Y-43748809D01*
X180145952Y-43748809D02*
X179955476Y-43701190D01*
X179955476Y-43701190D02*
X179860238Y-43605952D01*
X179860238Y-43605952D02*
X179812619Y-43510714D01*
X180812619Y-42653571D02*
X179812619Y-42653571D01*
X179812619Y-42653571D02*
X180812619Y-42082143D01*
X180812619Y-42082143D02*
X179812619Y-42082143D01*
X180812619Y-41605952D02*
X179812619Y-41605952D01*
X180812619Y-41034524D02*
X180241190Y-41463095D01*
X179812619Y-41034524D02*
X180384047Y-41605952D01*
X180336428Y-40415476D02*
X180812619Y-40415476D01*
X179812619Y-40748809D02*
X180336428Y-40415476D01*
X180336428Y-40415476D02*
X179812619Y-40082143D01*
X180907857Y-39986905D02*
X180907857Y-39225000D01*
X180717380Y-38415476D02*
X180765000Y-38463095D01*
X180765000Y-38463095D02*
X180812619Y-38605952D01*
X180812619Y-38605952D02*
X180812619Y-38701190D01*
X180812619Y-38701190D02*
X180765000Y-38844047D01*
X180765000Y-38844047D02*
X180669761Y-38939285D01*
X180669761Y-38939285D02*
X180574523Y-38986904D01*
X180574523Y-38986904D02*
X180384047Y-39034523D01*
X180384047Y-39034523D02*
X180241190Y-39034523D01*
X180241190Y-39034523D02*
X180050714Y-38986904D01*
X180050714Y-38986904D02*
X179955476Y-38939285D01*
X179955476Y-38939285D02*
X179860238Y-38844047D01*
X179860238Y-38844047D02*
X179812619Y-38701190D01*
X179812619Y-38701190D02*
X179812619Y-38605952D01*
X179812619Y-38605952D02*
X179860238Y-38463095D01*
X179860238Y-38463095D02*
X179907857Y-38415476D01*
X179812619Y-37796428D02*
X179812619Y-37605952D01*
X179812619Y-37605952D02*
X179860238Y-37510714D01*
X179860238Y-37510714D02*
X179955476Y-37415476D01*
X179955476Y-37415476D02*
X180145952Y-37367857D01*
X180145952Y-37367857D02*
X180479285Y-37367857D01*
X180479285Y-37367857D02*
X180669761Y-37415476D01*
X180669761Y-37415476D02*
X180765000Y-37510714D01*
X180765000Y-37510714D02*
X180812619Y-37605952D01*
X180812619Y-37605952D02*
X180812619Y-37796428D01*
X180812619Y-37796428D02*
X180765000Y-37891666D01*
X180765000Y-37891666D02*
X180669761Y-37986904D01*
X180669761Y-37986904D02*
X180479285Y-38034523D01*
X180479285Y-38034523D02*
X180145952Y-38034523D01*
X180145952Y-38034523D02*
X179955476Y-37986904D01*
X179955476Y-37986904D02*
X179860238Y-37891666D01*
X179860238Y-37891666D02*
X179812619Y-37796428D01*
X179812619Y-36939285D02*
X180622142Y-36939285D01*
X180622142Y-36939285D02*
X180717380Y-36891666D01*
X180717380Y-36891666D02*
X180765000Y-36844047D01*
X180765000Y-36844047D02*
X180812619Y-36748809D01*
X180812619Y-36748809D02*
X180812619Y-36558333D01*
X180812619Y-36558333D02*
X180765000Y-36463095D01*
X180765000Y-36463095D02*
X180717380Y-36415476D01*
X180717380Y-36415476D02*
X180622142Y-36367857D01*
X180622142Y-36367857D02*
X179812619Y-36367857D01*
X180812619Y-35320238D02*
X180336428Y-35653571D01*
X180812619Y-35891666D02*
X179812619Y-35891666D01*
X179812619Y-35891666D02*
X179812619Y-35510714D01*
X179812619Y-35510714D02*
X179860238Y-35415476D01*
X179860238Y-35415476D02*
X179907857Y-35367857D01*
X179907857Y-35367857D02*
X180003095Y-35320238D01*
X180003095Y-35320238D02*
X180145952Y-35320238D01*
X180145952Y-35320238D02*
X180241190Y-35367857D01*
X180241190Y-35367857D02*
X180288809Y-35415476D01*
X180288809Y-35415476D02*
X180336428Y-35510714D01*
X180336428Y-35510714D02*
X180336428Y-35891666D01*
X180765000Y-34939285D02*
X180812619Y-34796428D01*
X180812619Y-34796428D02*
X180812619Y-34558333D01*
X180812619Y-34558333D02*
X180765000Y-34463095D01*
X180765000Y-34463095D02*
X180717380Y-34415476D01*
X180717380Y-34415476D02*
X180622142Y-34367857D01*
X180622142Y-34367857D02*
X180526904Y-34367857D01*
X180526904Y-34367857D02*
X180431666Y-34415476D01*
X180431666Y-34415476D02*
X180384047Y-34463095D01*
X180384047Y-34463095D02*
X180336428Y-34558333D01*
X180336428Y-34558333D02*
X180288809Y-34748809D01*
X180288809Y-34748809D02*
X180241190Y-34844047D01*
X180241190Y-34844047D02*
X180193571Y-34891666D01*
X180193571Y-34891666D02*
X180098333Y-34939285D01*
X180098333Y-34939285D02*
X180003095Y-34939285D01*
X180003095Y-34939285D02*
X179907857Y-34891666D01*
X179907857Y-34891666D02*
X179860238Y-34844047D01*
X179860238Y-34844047D02*
X179812619Y-34748809D01*
X179812619Y-34748809D02*
X179812619Y-34510714D01*
X179812619Y-34510714D02*
X179860238Y-34367857D01*
X180288809Y-33939285D02*
X180288809Y-33605952D01*
X180812619Y-33463095D02*
X180812619Y-33939285D01*
X180812619Y-33939285D02*
X179812619Y-33939285D01*
X179812619Y-33939285D02*
X179812619Y-33463095D01*
X180907857Y-33272619D02*
X180907857Y-32510714D01*
X180717380Y-31701190D02*
X180765000Y-31748809D01*
X180765000Y-31748809D02*
X180812619Y-31891666D01*
X180812619Y-31891666D02*
X180812619Y-31986904D01*
X180812619Y-31986904D02*
X180765000Y-32129761D01*
X180765000Y-32129761D02*
X180669761Y-32224999D01*
X180669761Y-32224999D02*
X180574523Y-32272618D01*
X180574523Y-32272618D02*
X180384047Y-32320237D01*
X180384047Y-32320237D02*
X180241190Y-32320237D01*
X180241190Y-32320237D02*
X180050714Y-32272618D01*
X180050714Y-32272618D02*
X179955476Y-32224999D01*
X179955476Y-32224999D02*
X179860238Y-32129761D01*
X179860238Y-32129761D02*
X179812619Y-31986904D01*
X179812619Y-31986904D02*
X179812619Y-31891666D01*
X179812619Y-31891666D02*
X179860238Y-31748809D01*
X179860238Y-31748809D02*
X179907857Y-31701190D01*
X179812619Y-31415475D02*
X180812619Y-31082142D01*
X180812619Y-31082142D02*
X179812619Y-30748809D01*
X180812619Y-29891666D02*
X180812619Y-30463094D01*
X180812619Y-30177380D02*
X179812619Y-30177380D01*
X179812619Y-30177380D02*
X179955476Y-30272618D01*
X179955476Y-30272618D02*
X180050714Y-30367856D01*
X180050714Y-30367856D02*
X180098333Y-30463094D01*
%TO.C,THONKY_PWM1*%
X179817619Y-72275713D02*
X179817619Y-71704285D01*
X180817619Y-71989999D02*
X179817619Y-71989999D01*
X180817619Y-71370951D02*
X179817619Y-71370951D01*
X180293809Y-71370951D02*
X180293809Y-70799523D01*
X180817619Y-70799523D02*
X179817619Y-70799523D01*
X179817619Y-70132856D02*
X179817619Y-69942380D01*
X179817619Y-69942380D02*
X179865238Y-69847142D01*
X179865238Y-69847142D02*
X179960476Y-69751904D01*
X179960476Y-69751904D02*
X180150952Y-69704285D01*
X180150952Y-69704285D02*
X180484285Y-69704285D01*
X180484285Y-69704285D02*
X180674761Y-69751904D01*
X180674761Y-69751904D02*
X180770000Y-69847142D01*
X180770000Y-69847142D02*
X180817619Y-69942380D01*
X180817619Y-69942380D02*
X180817619Y-70132856D01*
X180817619Y-70132856D02*
X180770000Y-70228094D01*
X180770000Y-70228094D02*
X180674761Y-70323332D01*
X180674761Y-70323332D02*
X180484285Y-70370951D01*
X180484285Y-70370951D02*
X180150952Y-70370951D01*
X180150952Y-70370951D02*
X179960476Y-70323332D01*
X179960476Y-70323332D02*
X179865238Y-70228094D01*
X179865238Y-70228094D02*
X179817619Y-70132856D01*
X180817619Y-69275713D02*
X179817619Y-69275713D01*
X179817619Y-69275713D02*
X180817619Y-68704285D01*
X180817619Y-68704285D02*
X179817619Y-68704285D01*
X180817619Y-68228094D02*
X179817619Y-68228094D01*
X180817619Y-67656666D02*
X180246190Y-68085237D01*
X179817619Y-67656666D02*
X180389047Y-68228094D01*
X180341428Y-67037618D02*
X180817619Y-67037618D01*
X179817619Y-67370951D02*
X180341428Y-67037618D01*
X180341428Y-67037618D02*
X179817619Y-66704285D01*
X180912857Y-66609047D02*
X180912857Y-65847142D01*
X180817619Y-65609046D02*
X179817619Y-65609046D01*
X179817619Y-65609046D02*
X179817619Y-65228094D01*
X179817619Y-65228094D02*
X179865238Y-65132856D01*
X179865238Y-65132856D02*
X179912857Y-65085237D01*
X179912857Y-65085237D02*
X180008095Y-65037618D01*
X180008095Y-65037618D02*
X180150952Y-65037618D01*
X180150952Y-65037618D02*
X180246190Y-65085237D01*
X180246190Y-65085237D02*
X180293809Y-65132856D01*
X180293809Y-65132856D02*
X180341428Y-65228094D01*
X180341428Y-65228094D02*
X180341428Y-65609046D01*
X179817619Y-64704284D02*
X180817619Y-64466189D01*
X180817619Y-64466189D02*
X180103333Y-64275713D01*
X180103333Y-64275713D02*
X180817619Y-64085237D01*
X180817619Y-64085237D02*
X179817619Y-63847142D01*
X180817619Y-63466189D02*
X179817619Y-63466189D01*
X179817619Y-63466189D02*
X180531904Y-63132856D01*
X180531904Y-63132856D02*
X179817619Y-62799523D01*
X179817619Y-62799523D02*
X180817619Y-62799523D01*
X180817619Y-61799523D02*
X180817619Y-62370951D01*
X180817619Y-62085237D02*
X179817619Y-62085237D01*
X179817619Y-62085237D02*
X179960476Y-62180475D01*
X179960476Y-62180475D02*
X180055714Y-62275713D01*
X180055714Y-62275713D02*
X180103333Y-62370951D01*
%TO.C,J14*%
X189730476Y-111658619D02*
X189730476Y-112372904D01*
X189730476Y-112372904D02*
X189682857Y-112515761D01*
X189682857Y-112515761D02*
X189587619Y-112611000D01*
X189587619Y-112611000D02*
X189444762Y-112658619D01*
X189444762Y-112658619D02*
X189349524Y-112658619D01*
X190730476Y-112658619D02*
X190159048Y-112658619D01*
X190444762Y-112658619D02*
X190444762Y-111658619D01*
X190444762Y-111658619D02*
X190349524Y-111801476D01*
X190349524Y-111801476D02*
X190254286Y-111896714D01*
X190254286Y-111896714D02*
X190159048Y-111944333D01*
X191587619Y-111991952D02*
X191587619Y-112658619D01*
X191349524Y-111611000D02*
X191111429Y-112325285D01*
X191111429Y-112325285D02*
X191730476Y-112325285D01*
%TO.C,NOT_THOONKY_SineBiasTrim1*%
X201373619Y-87972047D02*
X200373619Y-87972047D01*
X200373619Y-87972047D02*
X201373619Y-87400619D01*
X201373619Y-87400619D02*
X200373619Y-87400619D01*
X200373619Y-86733952D02*
X200373619Y-86543476D01*
X200373619Y-86543476D02*
X200421238Y-86448238D01*
X200421238Y-86448238D02*
X200516476Y-86353000D01*
X200516476Y-86353000D02*
X200706952Y-86305381D01*
X200706952Y-86305381D02*
X201040285Y-86305381D01*
X201040285Y-86305381D02*
X201230761Y-86353000D01*
X201230761Y-86353000D02*
X201326000Y-86448238D01*
X201326000Y-86448238D02*
X201373619Y-86543476D01*
X201373619Y-86543476D02*
X201373619Y-86733952D01*
X201373619Y-86733952D02*
X201326000Y-86829190D01*
X201326000Y-86829190D02*
X201230761Y-86924428D01*
X201230761Y-86924428D02*
X201040285Y-86972047D01*
X201040285Y-86972047D02*
X200706952Y-86972047D01*
X200706952Y-86972047D02*
X200516476Y-86924428D01*
X200516476Y-86924428D02*
X200421238Y-86829190D01*
X200421238Y-86829190D02*
X200373619Y-86733952D01*
X200373619Y-86019666D02*
X200373619Y-85448238D01*
X201373619Y-85733952D02*
X200373619Y-85733952D01*
X201468857Y-85353000D02*
X201468857Y-84591095D01*
X200373619Y-84495856D02*
X200373619Y-83924428D01*
X201373619Y-84210142D02*
X200373619Y-84210142D01*
X201373619Y-83591094D02*
X200373619Y-83591094D01*
X200849809Y-83591094D02*
X200849809Y-83019666D01*
X201373619Y-83019666D02*
X200373619Y-83019666D01*
X200373619Y-82352999D02*
X200373619Y-82162523D01*
X200373619Y-82162523D02*
X200421238Y-82067285D01*
X200421238Y-82067285D02*
X200516476Y-81972047D01*
X200516476Y-81972047D02*
X200706952Y-81924428D01*
X200706952Y-81924428D02*
X201040285Y-81924428D01*
X201040285Y-81924428D02*
X201230761Y-81972047D01*
X201230761Y-81972047D02*
X201326000Y-82067285D01*
X201326000Y-82067285D02*
X201373619Y-82162523D01*
X201373619Y-82162523D02*
X201373619Y-82352999D01*
X201373619Y-82352999D02*
X201326000Y-82448237D01*
X201326000Y-82448237D02*
X201230761Y-82543475D01*
X201230761Y-82543475D02*
X201040285Y-82591094D01*
X201040285Y-82591094D02*
X200706952Y-82591094D01*
X200706952Y-82591094D02*
X200516476Y-82543475D01*
X200516476Y-82543475D02*
X200421238Y-82448237D01*
X200421238Y-82448237D02*
X200373619Y-82352999D01*
X200373619Y-81305380D02*
X200373619Y-81114904D01*
X200373619Y-81114904D02*
X200421238Y-81019666D01*
X200421238Y-81019666D02*
X200516476Y-80924428D01*
X200516476Y-80924428D02*
X200706952Y-80876809D01*
X200706952Y-80876809D02*
X201040285Y-80876809D01*
X201040285Y-80876809D02*
X201230761Y-80924428D01*
X201230761Y-80924428D02*
X201326000Y-81019666D01*
X201326000Y-81019666D02*
X201373619Y-81114904D01*
X201373619Y-81114904D02*
X201373619Y-81305380D01*
X201373619Y-81305380D02*
X201326000Y-81400618D01*
X201326000Y-81400618D02*
X201230761Y-81495856D01*
X201230761Y-81495856D02*
X201040285Y-81543475D01*
X201040285Y-81543475D02*
X200706952Y-81543475D01*
X200706952Y-81543475D02*
X200516476Y-81495856D01*
X200516476Y-81495856D02*
X200421238Y-81400618D01*
X200421238Y-81400618D02*
X200373619Y-81305380D01*
X201373619Y-80448237D02*
X200373619Y-80448237D01*
X200373619Y-80448237D02*
X201373619Y-79876809D01*
X201373619Y-79876809D02*
X200373619Y-79876809D01*
X201373619Y-79400618D02*
X200373619Y-79400618D01*
X201373619Y-78829190D02*
X200802190Y-79257761D01*
X200373619Y-78829190D02*
X200945047Y-79400618D01*
X200897428Y-78210142D02*
X201373619Y-78210142D01*
X200373619Y-78543475D02*
X200897428Y-78210142D01*
X200897428Y-78210142D02*
X200373619Y-77876809D01*
X201468857Y-77781571D02*
X201468857Y-77019666D01*
X201326000Y-76829189D02*
X201373619Y-76686332D01*
X201373619Y-76686332D02*
X201373619Y-76448237D01*
X201373619Y-76448237D02*
X201326000Y-76352999D01*
X201326000Y-76352999D02*
X201278380Y-76305380D01*
X201278380Y-76305380D02*
X201183142Y-76257761D01*
X201183142Y-76257761D02*
X201087904Y-76257761D01*
X201087904Y-76257761D02*
X200992666Y-76305380D01*
X200992666Y-76305380D02*
X200945047Y-76352999D01*
X200945047Y-76352999D02*
X200897428Y-76448237D01*
X200897428Y-76448237D02*
X200849809Y-76638713D01*
X200849809Y-76638713D02*
X200802190Y-76733951D01*
X200802190Y-76733951D02*
X200754571Y-76781570D01*
X200754571Y-76781570D02*
X200659333Y-76829189D01*
X200659333Y-76829189D02*
X200564095Y-76829189D01*
X200564095Y-76829189D02*
X200468857Y-76781570D01*
X200468857Y-76781570D02*
X200421238Y-76733951D01*
X200421238Y-76733951D02*
X200373619Y-76638713D01*
X200373619Y-76638713D02*
X200373619Y-76400618D01*
X200373619Y-76400618D02*
X200421238Y-76257761D01*
X201373619Y-75829189D02*
X200706952Y-75829189D01*
X200373619Y-75829189D02*
X200421238Y-75876808D01*
X200421238Y-75876808D02*
X200468857Y-75829189D01*
X200468857Y-75829189D02*
X200421238Y-75781570D01*
X200421238Y-75781570D02*
X200373619Y-75829189D01*
X200373619Y-75829189D02*
X200468857Y-75829189D01*
X200706952Y-75352999D02*
X201373619Y-75352999D01*
X200802190Y-75352999D02*
X200754571Y-75305380D01*
X200754571Y-75305380D02*
X200706952Y-75210142D01*
X200706952Y-75210142D02*
X200706952Y-75067285D01*
X200706952Y-75067285D02*
X200754571Y-74972047D01*
X200754571Y-74972047D02*
X200849809Y-74924428D01*
X200849809Y-74924428D02*
X201373619Y-74924428D01*
X201326000Y-74067285D02*
X201373619Y-74162523D01*
X201373619Y-74162523D02*
X201373619Y-74352999D01*
X201373619Y-74352999D02*
X201326000Y-74448237D01*
X201326000Y-74448237D02*
X201230761Y-74495856D01*
X201230761Y-74495856D02*
X200849809Y-74495856D01*
X200849809Y-74495856D02*
X200754571Y-74448237D01*
X200754571Y-74448237D02*
X200706952Y-74352999D01*
X200706952Y-74352999D02*
X200706952Y-74162523D01*
X200706952Y-74162523D02*
X200754571Y-74067285D01*
X200754571Y-74067285D02*
X200849809Y-74019666D01*
X200849809Y-74019666D02*
X200945047Y-74019666D01*
X200945047Y-74019666D02*
X201040285Y-74495856D01*
X200849809Y-73257761D02*
X200897428Y-73114904D01*
X200897428Y-73114904D02*
X200945047Y-73067285D01*
X200945047Y-73067285D02*
X201040285Y-73019666D01*
X201040285Y-73019666D02*
X201183142Y-73019666D01*
X201183142Y-73019666D02*
X201278380Y-73067285D01*
X201278380Y-73067285D02*
X201326000Y-73114904D01*
X201326000Y-73114904D02*
X201373619Y-73210142D01*
X201373619Y-73210142D02*
X201373619Y-73591094D01*
X201373619Y-73591094D02*
X200373619Y-73591094D01*
X200373619Y-73591094D02*
X200373619Y-73257761D01*
X200373619Y-73257761D02*
X200421238Y-73162523D01*
X200421238Y-73162523D02*
X200468857Y-73114904D01*
X200468857Y-73114904D02*
X200564095Y-73067285D01*
X200564095Y-73067285D02*
X200659333Y-73067285D01*
X200659333Y-73067285D02*
X200754571Y-73114904D01*
X200754571Y-73114904D02*
X200802190Y-73162523D01*
X200802190Y-73162523D02*
X200849809Y-73257761D01*
X200849809Y-73257761D02*
X200849809Y-73591094D01*
X201373619Y-72591094D02*
X200706952Y-72591094D01*
X200373619Y-72591094D02*
X200421238Y-72638713D01*
X200421238Y-72638713D02*
X200468857Y-72591094D01*
X200468857Y-72591094D02*
X200421238Y-72543475D01*
X200421238Y-72543475D02*
X200373619Y-72591094D01*
X200373619Y-72591094D02*
X200468857Y-72591094D01*
X201373619Y-71686333D02*
X200849809Y-71686333D01*
X200849809Y-71686333D02*
X200754571Y-71733952D01*
X200754571Y-71733952D02*
X200706952Y-71829190D01*
X200706952Y-71829190D02*
X200706952Y-72019666D01*
X200706952Y-72019666D02*
X200754571Y-72114904D01*
X201326000Y-71686333D02*
X201373619Y-71781571D01*
X201373619Y-71781571D02*
X201373619Y-72019666D01*
X201373619Y-72019666D02*
X201326000Y-72114904D01*
X201326000Y-72114904D02*
X201230761Y-72162523D01*
X201230761Y-72162523D02*
X201135523Y-72162523D01*
X201135523Y-72162523D02*
X201040285Y-72114904D01*
X201040285Y-72114904D02*
X200992666Y-72019666D01*
X200992666Y-72019666D02*
X200992666Y-71781571D01*
X200992666Y-71781571D02*
X200945047Y-71686333D01*
X201326000Y-71257761D02*
X201373619Y-71162523D01*
X201373619Y-71162523D02*
X201373619Y-70972047D01*
X201373619Y-70972047D02*
X201326000Y-70876809D01*
X201326000Y-70876809D02*
X201230761Y-70829190D01*
X201230761Y-70829190D02*
X201183142Y-70829190D01*
X201183142Y-70829190D02*
X201087904Y-70876809D01*
X201087904Y-70876809D02*
X201040285Y-70972047D01*
X201040285Y-70972047D02*
X201040285Y-71114904D01*
X201040285Y-71114904D02*
X200992666Y-71210142D01*
X200992666Y-71210142D02*
X200897428Y-71257761D01*
X200897428Y-71257761D02*
X200849809Y-71257761D01*
X200849809Y-71257761D02*
X200754571Y-71210142D01*
X200754571Y-71210142D02*
X200706952Y-71114904D01*
X200706952Y-71114904D02*
X200706952Y-70972047D01*
X200706952Y-70972047D02*
X200754571Y-70876809D01*
X200373619Y-70543475D02*
X200373619Y-69972047D01*
X201373619Y-70257761D02*
X200373619Y-70257761D01*
X201373619Y-69638713D02*
X200706952Y-69638713D01*
X200897428Y-69638713D02*
X200802190Y-69591094D01*
X200802190Y-69591094D02*
X200754571Y-69543475D01*
X200754571Y-69543475D02*
X200706952Y-69448237D01*
X200706952Y-69448237D02*
X200706952Y-69352999D01*
X201373619Y-69019665D02*
X200706952Y-69019665D01*
X200373619Y-69019665D02*
X200421238Y-69067284D01*
X200421238Y-69067284D02*
X200468857Y-69019665D01*
X200468857Y-69019665D02*
X200421238Y-68972046D01*
X200421238Y-68972046D02*
X200373619Y-69019665D01*
X200373619Y-69019665D02*
X200468857Y-69019665D01*
X201373619Y-68543475D02*
X200706952Y-68543475D01*
X200802190Y-68543475D02*
X200754571Y-68495856D01*
X200754571Y-68495856D02*
X200706952Y-68400618D01*
X200706952Y-68400618D02*
X200706952Y-68257761D01*
X200706952Y-68257761D02*
X200754571Y-68162523D01*
X200754571Y-68162523D02*
X200849809Y-68114904D01*
X200849809Y-68114904D02*
X201373619Y-68114904D01*
X200849809Y-68114904D02*
X200754571Y-68067285D01*
X200754571Y-68067285D02*
X200706952Y-67972047D01*
X200706952Y-67972047D02*
X200706952Y-67829190D01*
X200706952Y-67829190D02*
X200754571Y-67733951D01*
X200754571Y-67733951D02*
X200849809Y-67686332D01*
X200849809Y-67686332D02*
X201373619Y-67686332D01*
X201373619Y-66686333D02*
X201373619Y-67257761D01*
X201373619Y-66972047D02*
X200373619Y-66972047D01*
X200373619Y-66972047D02*
X200516476Y-67067285D01*
X200516476Y-67067285D02*
X200611714Y-67162523D01*
X200611714Y-67162523D02*
X200659333Y-67257761D01*
D11*
%TO.C,J15*%
X188540000Y-128236000D02*
X191440000Y-128236000D01*
X188540000Y-138736000D02*
X188540000Y-128236000D01*
X188540000Y-138736000D02*
X191540000Y-138736000D01*
X194540000Y-138736000D02*
X197540000Y-138736000D01*
X194640000Y-128236000D02*
X197540000Y-128236000D01*
X197540000Y-138736000D02*
X197540000Y-128236000D01*
D12*
X193040000Y-131341000D02*
G75*
G03*
X191743737Y-136824576I0J-2895000D01*
G01*
X194336263Y-136824576D02*
G75*
G03*
X193040000Y-131341000I-1296263J2588576D01*
G01*
X194840000Y-134236000D02*
G75*
G03*
X194840000Y-134236000I-1800000J0D01*
G01*
D11*
%TO.C,J1*%
X178380000Y-112996000D02*
X181280000Y-112996000D01*
X178380000Y-123496000D02*
X178380000Y-112996000D01*
X178380000Y-123496000D02*
X181380000Y-123496000D01*
X184380000Y-123496000D02*
X187380000Y-123496000D01*
X184480000Y-112996000D02*
X187380000Y-112996000D01*
X187380000Y-123496000D02*
X187380000Y-112996000D01*
D12*
X182880000Y-116101000D02*
G75*
G03*
X181583737Y-121584576I0J-2895000D01*
G01*
X184176263Y-121584576D02*
G75*
G03*
X182880000Y-116101000I-1296263J2588576D01*
G01*
X184680000Y-118996000D02*
G75*
G03*
X184680000Y-118996000I-1800000J0D01*
G01*
D11*
%TO.C,J5*%
X178380000Y-128236000D02*
X181280000Y-128236000D01*
X178380000Y-138736000D02*
X178380000Y-128236000D01*
X178380000Y-138736000D02*
X181380000Y-138736000D01*
X184380000Y-138736000D02*
X187380000Y-138736000D01*
X184480000Y-128236000D02*
X187380000Y-128236000D01*
X187380000Y-138736000D02*
X187380000Y-128236000D01*
D12*
X182880000Y-131341000D02*
G75*
G03*
X181583737Y-136824576I0J-2895000D01*
G01*
X184176263Y-136824576D02*
G75*
G03*
X182880000Y-131341000I-1296263J2588576D01*
G01*
X184680000Y-134236000D02*
G75*
G03*
X184680000Y-134236000I-1800000J0D01*
G01*
%TO.C,D1*%
X178150000Y-145917000D02*
X178150000Y-144659000D01*
X179990000Y-145917000D02*
X179990000Y-144659000D01*
D11*
%TO.C,J2*%
X178380000Y-82516000D02*
X181280000Y-82516000D01*
X178380000Y-93016000D02*
X178380000Y-82516000D01*
X178380000Y-93016000D02*
X181380000Y-93016000D01*
X184380000Y-93016000D02*
X187380000Y-93016000D01*
X184480000Y-82516000D02*
X187380000Y-82516000D01*
X187380000Y-93016000D02*
X187380000Y-82516000D01*
D12*
X182880000Y-85621000D02*
G75*
G03*
X181583737Y-91104576I0J-2895000D01*
G01*
X184176263Y-91104576D02*
G75*
G03*
X182880000Y-85621000I-1296263J2588576D01*
G01*
X184680000Y-88516000D02*
G75*
G03*
X184680000Y-88516000I-1800000J0D01*
G01*
D11*
%TO.C,J12*%
X188540000Y-82516000D02*
X191440000Y-82516000D01*
X188540000Y-93016000D02*
X188540000Y-82516000D01*
X188540000Y-93016000D02*
X191540000Y-93016000D01*
X194540000Y-93016000D02*
X197540000Y-93016000D01*
X194640000Y-82516000D02*
X197540000Y-82516000D01*
X197540000Y-93016000D02*
X197540000Y-82516000D01*
D12*
X193040000Y-85621000D02*
G75*
G03*
X191743737Y-91104576I0J-2895000D01*
G01*
X194336263Y-91104576D02*
G75*
G03*
X193040000Y-85621000I-1296263J2588576D01*
G01*
X194840000Y-88516000D02*
G75*
G03*
X194840000Y-88516000I-1800000J0D01*
G01*
%TO.C,THONKY_FINE_CV1*%
X182979000Y-57540000D02*
X184300000Y-57540000D01*
X182979000Y-57540000D02*
X182979000Y-53603000D01*
X186750000Y-57540000D02*
X187130000Y-57540000D01*
X188871000Y-57540000D02*
X189630000Y-57540000D01*
X191370000Y-57540000D02*
X193020000Y-57540000D01*
X193020000Y-57540000D02*
X193020000Y-53603000D01*
X182979000Y-49236000D02*
X182979000Y-45300000D01*
X193020000Y-49236000D02*
X193020000Y-45300000D01*
X182979000Y-45300000D02*
X193020000Y-45300000D01*
D11*
%TO.C,J13*%
X188540000Y-97756000D02*
X191440000Y-97756000D01*
X188540000Y-108256000D02*
X188540000Y-97756000D01*
X188540000Y-108256000D02*
X191540000Y-108256000D01*
X194540000Y-108256000D02*
X197540000Y-108256000D01*
X194640000Y-97756000D02*
X197540000Y-97756000D01*
X197540000Y-108256000D02*
X197540000Y-97756000D01*
D12*
X193040000Y-100861000D02*
G75*
G03*
X191743737Y-106344576I0J-2895000D01*
G01*
X194336263Y-106344576D02*
G75*
G03*
X193040000Y-100861000I-1296263J2588576D01*
G01*
X194840000Y-103756000D02*
G75*
G03*
X194840000Y-103756000I-1800000J0D01*
G01*
D11*
%TO.C,J4*%
X178380000Y-97756000D02*
X181280000Y-97756000D01*
X178380000Y-108256000D02*
X178380000Y-97756000D01*
X178380000Y-108256000D02*
X181380000Y-108256000D01*
X184380000Y-108256000D02*
X187380000Y-108256000D01*
X184480000Y-97756000D02*
X187380000Y-97756000D01*
X187380000Y-108256000D02*
X187380000Y-97756000D01*
D12*
X182880000Y-100861000D02*
G75*
G03*
X181583737Y-106344576I0J-2895000D01*
G01*
X184176263Y-106344576D02*
G75*
G03*
X182880000Y-100861000I-1296263J2588576D01*
G01*
X184680000Y-103756000D02*
G75*
G03*
X184680000Y-103756000I-1800000J0D01*
G01*
%TO.C,THONKY_COURSE_CV1*%
X182979000Y-42895000D02*
X184300000Y-42895000D01*
X182979000Y-42895000D02*
X182979000Y-38958000D01*
X186750000Y-42895000D02*
X187130000Y-42895000D01*
X188871000Y-42895000D02*
X189630000Y-42895000D01*
X191370000Y-42895000D02*
X193020000Y-42895000D01*
X193020000Y-42895000D02*
X193020000Y-38958000D01*
X182979000Y-34591000D02*
X182979000Y-30655000D01*
X193020000Y-34591000D02*
X193020000Y-30655000D01*
X182979000Y-30655000D02*
X193020000Y-30655000D01*
%TO.C,THONKY_PWM1*%
X182984000Y-72160000D02*
X184305000Y-72160000D01*
X182984000Y-72160000D02*
X182984000Y-68223000D01*
X186755000Y-72160000D02*
X187135000Y-72160000D01*
X188876000Y-72160000D02*
X189635000Y-72160000D01*
X191375000Y-72160000D02*
X193025000Y-72160000D01*
X193025000Y-72160000D02*
X193025000Y-68223000D01*
X182984000Y-63856000D02*
X182984000Y-59920000D01*
X193025000Y-63856000D02*
X193025000Y-59920000D01*
X182984000Y-59920000D02*
X193025000Y-59920000D01*
D11*
%TO.C,J14*%
X188540000Y-112996000D02*
X191440000Y-112996000D01*
X188540000Y-123496000D02*
X188540000Y-112996000D01*
X188540000Y-123496000D02*
X191540000Y-123496000D01*
X194540000Y-123496000D02*
X197540000Y-123496000D01*
X194640000Y-112996000D02*
X197540000Y-112996000D01*
X197540000Y-123496000D02*
X197540000Y-112996000D01*
D12*
X193040000Y-116101000D02*
G75*
G03*
X191743737Y-121584576I0J-2895000D01*
G01*
X194336263Y-121584576D02*
G75*
G03*
X193040000Y-116101000I-1296263J2588576D01*
G01*
X194840000Y-118996000D02*
G75*
G03*
X194840000Y-118996000I-1800000J0D01*
G01*
%TD*%
M02*
