%TF.GenerationSoftware,KiCad,Pcbnew,7.0.2*%
%TF.CreationDate,2023-06-12T17:36:46-04:00*%
%TF.ProjectId,as3340_no_mux,61733333-3430-45f6-9e6f-5f6d75782e6b,rev?*%
%TF.SameCoordinates,Original*%
%TF.FileFunction,Copper,L2,Bot*%
%TF.FilePolarity,Positive*%
%FSLAX46Y46*%
G04 Gerber Fmt 4.6, Leading zero omitted, Abs format (unit mm)*
G04 Created by KiCad (PCBNEW 7.0.2) date 2023-06-12 17:36:46*
%MOMM*%
%LPD*%
G01*
G04 APERTURE LIST*
G04 Aperture macros list*
%AMRoundRect*
0 Rectangle with rounded corners*
0 $1 Rounding radius*
0 $2 $3 $4 $5 $6 $7 $8 $9 X,Y pos of 4 corners*
0 Add a 4 corners polygon primitive as box body*
4,1,4,$2,$3,$4,$5,$6,$7,$8,$9,$2,$3,0*
0 Add four circle primitives for the rounded corners*
1,1,$1+$1,$2,$3*
1,1,$1+$1,$4,$5*
1,1,$1+$1,$6,$7*
1,1,$1+$1,$8,$9*
0 Add four rect primitives between the rounded corners*
20,1,$1+$1,$2,$3,$4,$5,0*
20,1,$1+$1,$4,$5,$6,$7,0*
20,1,$1+$1,$6,$7,$8,$9,0*
20,1,$1+$1,$8,$9,$2,$3,0*%
G04 Aperture macros list end*
%TA.AperFunction,ComponentPad*%
%ADD10O,3.100000X2.300000*%
%TD*%
%TA.AperFunction,ComponentPad*%
%ADD11RoundRect,0.650000X-0.650000X-0.650000X0.650000X-0.650000X0.650000X0.650000X-0.650000X0.650000X0*%
%TD*%
%TA.AperFunction,ComponentPad*%
%ADD12C,1.600000*%
%TD*%
%TA.AperFunction,ComponentPad*%
%ADD13R,1.800000X1.800000*%
%TD*%
%TA.AperFunction,ComponentPad*%
%ADD14C,1.800000*%
%TD*%
%TA.AperFunction,ComponentPad*%
%ADD15RoundRect,0.750000X0.750000X-1.250000X0.750000X1.250000X-0.750000X1.250000X-0.750000X-1.250000X0*%
%TD*%
%TA.AperFunction,SMDPad,CuDef*%
%ADD16RoundRect,0.250000X-0.312500X-0.625000X0.312500X-0.625000X0.312500X0.625000X-0.312500X0.625000X0*%
%TD*%
%TA.AperFunction,SMDPad,CuDef*%
%ADD17RoundRect,0.250000X0.325000X0.650000X-0.325000X0.650000X-0.325000X-0.650000X0.325000X-0.650000X0*%
%TD*%
%TA.AperFunction,ComponentPad*%
%ADD18C,1.620000*%
%TD*%
%TA.AperFunction,SMDPad,CuDef*%
%ADD19RoundRect,0.250000X0.625000X-0.312500X0.625000X0.312500X-0.625000X0.312500X-0.625000X-0.312500X0*%
%TD*%
%TA.AperFunction,SMDPad,CuDef*%
%ADD20RoundRect,0.250000X-0.625000X0.312500X-0.625000X-0.312500X0.625000X-0.312500X0.625000X0.312500X0*%
%TD*%
%TA.AperFunction,SMDPad,CuDef*%
%ADD21RoundRect,0.250000X0.312500X0.625000X-0.312500X0.625000X-0.312500X-0.625000X0.312500X-0.625000X0*%
%TD*%
%TA.AperFunction,ComponentPad*%
%ADD22R,1.600000X1.600000*%
%TD*%
%TA.AperFunction,ComponentPad*%
%ADD23O,1.600000X1.600000*%
%TD*%
%TA.AperFunction,SMDPad,CuDef*%
%ADD24RoundRect,0.150000X-0.150000X0.825000X-0.150000X-0.825000X0.150000X-0.825000X0.150000X0.825000X0*%
%TD*%
%TA.AperFunction,SMDPad,CuDef*%
%ADD25RoundRect,0.250000X0.650000X-0.325000X0.650000X0.325000X-0.650000X0.325000X-0.650000X-0.325000X0*%
%TD*%
%TA.AperFunction,ComponentPad*%
%ADD26R,1.700000X1.700000*%
%TD*%
%TA.AperFunction,ComponentPad*%
%ADD27O,1.700000X1.700000*%
%TD*%
%TA.AperFunction,SMDPad,CuDef*%
%ADD28RoundRect,0.250000X-0.650000X0.325000X-0.650000X-0.325000X0.650000X-0.325000X0.650000X0.325000X0*%
%TD*%
%TA.AperFunction,ComponentPad*%
%ADD29C,1.200000*%
%TD*%
%TA.AperFunction,ViaPad*%
%ADD30C,0.800000*%
%TD*%
%TA.AperFunction,Conductor*%
%ADD31C,0.250000*%
%TD*%
G04 APERTURE END LIST*
D10*
%TO.P,J15,S*%
%TO.N,GND*%
X193040000Y-140716000D03*
D11*
%TO.P,J15,T*%
%TO.N,Net-(J15-PadR)*%
X193040000Y-129316000D03*
%TO.P,J15,TN*%
%TO.N,N/C*%
X193040000Y-137616000D03*
%TD*%
D10*
%TO.P,J1,S*%
%TO.N,GND*%
X182880000Y-125476000D03*
D11*
%TO.P,J1,T*%
%TO.N,Net-(SW1-B)*%
X182880000Y-114076000D03*
%TO.P,J1,TN*%
%TO.N,N/C*%
X182880000Y-122376000D03*
%TD*%
D10*
%TO.P,J5,S*%
%TO.N,GND*%
X182880000Y-140716000D03*
D11*
%TO.P,J5,T*%
%TO.N,Net-(J5-PadR)*%
X182880000Y-129316000D03*
%TO.P,J5,TN*%
%TO.N,N/C*%
X182880000Y-137616000D03*
%TD*%
D12*
%TO.P,D1,1,K*%
%TO.N,GND*%
X179070000Y-146538000D03*
%TO.P,D1,2,A*%
%TO.N,Net-(D1-A)*%
X179070000Y-144038000D03*
%TD*%
D10*
%TO.P,J2,S*%
%TO.N,GND*%
X182880000Y-94996000D03*
D11*
%TO.P,J2,T*%
%TO.N,Net-(J2-PadR)*%
X182880000Y-83596000D03*
%TO.P,J2,TN*%
%TO.N,N/C*%
X182880000Y-91896000D03*
%TD*%
D10*
%TO.P,J12,S*%
%TO.N,GND*%
X193040000Y-94996000D03*
D11*
%TO.P,J12,T*%
%TO.N,Net-(J12-PadR)*%
X193040000Y-83596000D03*
%TO.P,J12,TN*%
%TO.N,N/C*%
X193040000Y-91896000D03*
%TD*%
D13*
%TO.P,THONKY_FINE_CV1,1,1*%
%TO.N,Net-(R16-Pad1)*%
X185500000Y-58420000D03*
D14*
%TO.P,THONKY_FINE_CV1,2,2*%
%TO.N,Net-(R19-Pad1)*%
X188000000Y-58420000D03*
%TO.P,THONKY_FINE_CV1,3,3*%
%TO.N,Net-(R6-Pad2)*%
X190500000Y-58420000D03*
D15*
%TO.P,THONKY_FINE_CV1,MP*%
%TO.N,N/C*%
X183600000Y-51420000D03*
X192400000Y-51420000D03*
%TD*%
D10*
%TO.P,J13,S*%
%TO.N,GND*%
X193040000Y-110236000D03*
D11*
%TO.P,J13,T*%
%TO.N,Net-(J13-PadR)*%
X193040000Y-98836000D03*
%TO.P,J13,TN*%
%TO.N,N/C*%
X193040000Y-107136000D03*
%TD*%
D10*
%TO.P,J4,S*%
%TO.N,GND*%
X182880000Y-110236000D03*
D11*
%TO.P,J4,T*%
%TO.N,Net-(C1-Pad2)*%
X182880000Y-98836000D03*
%TO.P,J4,TN*%
%TO.N,N/C*%
X182880000Y-107136000D03*
%TD*%
D13*
%TO.P,THONKY_COURSE_CV1,1,1*%
%TO.N,Net-(R8-Pad1)*%
X185500000Y-43775000D03*
D14*
%TO.P,THONKY_COURSE_CV1,2,2*%
%TO.N,Net-(R20-Pad1)*%
X188000000Y-43775000D03*
%TO.P,THONKY_COURSE_CV1,3,3*%
%TO.N,Net-(R2-Pad2)*%
X190500000Y-43775000D03*
D15*
%TO.P,THONKY_COURSE_CV1,MP*%
%TO.N,N/C*%
X183600000Y-36775000D03*
X192400000Y-36775000D03*
%TD*%
D13*
%TO.P,THONKY_PWM1,1,1*%
%TO.N,Net-(R5-Pad1)*%
X185505000Y-73040000D03*
D14*
%TO.P,THONKY_PWM1,2,2*%
%TO.N,Net-(J5-PadR)*%
X188005000Y-73040000D03*
%TO.P,THONKY_PWM1,3,3*%
%TO.N,GND*%
X190505000Y-73040000D03*
D15*
%TO.P,THONKY_PWM1,MP*%
%TO.N,N/C*%
X183605000Y-66040000D03*
X192405000Y-66040000D03*
%TD*%
D10*
%TO.P,J14,S*%
%TO.N,GND*%
X193040000Y-125476000D03*
D11*
%TO.P,J14,T*%
%TO.N,Net-(J14-PadR)*%
X193040000Y-114076000D03*
%TO.P,J14,TN*%
%TO.N,N/C*%
X193040000Y-122376000D03*
%TD*%
D16*
%TO.P,R46,1*%
%TO.N,Net-(U2-VS)*%
X189545500Y-134493000D03*
%TO.P,R46,2*%
%TO.N,GND*%
X192470500Y-134493000D03*
%TD*%
D17*
%TO.P,C1,1*%
%TO.N,Net-(C1-Pad1)*%
X190247800Y-98145600D03*
%TO.P,C1,2*%
%TO.N,Net-(C1-Pad2)*%
X187297800Y-98145600D03*
%TD*%
D18*
%TO.P,NOT_THOONKY_SineBiasTrim1,1,1*%
%TO.N,-15V*%
X181610000Y-75986000D03*
%TO.P,NOT_THOONKY_SineBiasTrim1,2,2*%
%TO.N,Net-(NOT_THOONKY_SineBiasTrim1-Pad2)*%
X179110000Y-78486000D03*
%TO.P,NOT_THOONKY_SineBiasTrim1,3,3*%
%TO.N,+15V*%
X181610000Y-80986000D03*
%TD*%
D19*
%TO.P,R60,1*%
%TO.N,Net-(D1-A)*%
X179120800Y-105653300D03*
%TO.P,R60,2*%
%TO.N,GND*%
X179120800Y-102728300D03*
%TD*%
D18*
%TO.P,NOT_THONKY_HF_TRACK1,1,1*%
%TO.N,Net-(U2-VHFT)*%
X181665000Y-42712000D03*
%TO.P,NOT_THONKY_HF_TRACK1,2,2*%
%TO.N,Net-(NOT_THONKY_HF_TRACK1-Pad2)*%
X179165000Y-45212000D03*
%TO.P,NOT_THONKY_HF_TRACK1,3,3*%
%TO.N,GND*%
X181665000Y-47712000D03*
%TD*%
D19*
%TO.P,R69,1*%
%TO.N,Net-(U4A--)*%
X196900800Y-101284500D03*
%TO.P,R69,2*%
%TO.N,Net-(J13-PadR)*%
X196900800Y-98359500D03*
%TD*%
D16*
%TO.P,R6,1*%
%TO.N,-15V*%
X187665900Y-61366400D03*
%TO.P,R6,2*%
%TO.N,Net-(R6-Pad2)*%
X190590900Y-61366400D03*
%TD*%
D20*
%TO.P,R55,1*%
%TO.N,Net-(U1A-+)*%
X179222400Y-83017900D03*
%TO.P,R55,2*%
%TO.N,Net-(NOT_THOONKY_SineBiasTrim1-Pad2)*%
X179222400Y-85942900D03*
%TD*%
D16*
%TO.P,R34,1*%
%TO.N,-15V*%
X189139100Y-70307200D03*
%TO.P,R34,2*%
%TO.N,Net-(R3-Pad1)*%
X192064100Y-70307200D03*
%TD*%
D20*
%TO.P,R4,1*%
%TO.N,Net-(NOT+THINKY_CV1-Pad1)*%
X196900800Y-140117100D03*
%TO.P,R4,2*%
%TO.N,Net-(R26-Pad1)*%
X196900800Y-143042100D03*
%TD*%
D19*
%TO.P,R58,1*%
%TO.N,Net-(U2-VP)*%
X179120800Y-110377700D03*
%TO.P,R58,2*%
%TO.N,Net-(D1-A)*%
X179120800Y-107452700D03*
%TD*%
D21*
%TO.P,R11,1*%
%TO.N,Net-(C1-Pad1)*%
X190286100Y-103022400D03*
%TO.P,R11,2*%
%TO.N,Net-(U2-VLFI)*%
X187361100Y-103022400D03*
%TD*%
D20*
%TO.P,R25,1*%
%TO.N,Net-(C9-Pad1)*%
X185826400Y-90942700D03*
%TO.P,R25,2*%
%TO.N,Net-(U2-VFCI)*%
X185826400Y-93867700D03*
%TD*%
%TO.P,R48,1*%
%TO.N,Net-(U2-VPWM)*%
X179222400Y-98003900D03*
%TO.P,R48,2*%
%TO.N,GND*%
X179222400Y-100928900D03*
%TD*%
%TO.P,R37,1*%
%TO.N,+15V*%
X196951600Y-87996300D03*
%TO.P,R37,2*%
%TO.N,Net-(R1-Pad2)*%
X196951600Y-90921300D03*
%TD*%
D16*
%TO.P,R16,1*%
%TO.N,Net-(R16-Pad1)*%
X185278300Y-55981600D03*
%TO.P,R16,2*%
%TO.N,+15V*%
X188203300Y-55981600D03*
%TD*%
D22*
%TO.P,U4,1*%
%TO.N,Net-(U4A--)*%
X189230000Y-128270000D03*
D23*
%TO.P,U4,2,-*%
X189230000Y-125730000D03*
%TO.P,U4,3,+*%
%TO.N,Net-(U4A-+)*%
X189230000Y-123190000D03*
%TO.P,U4,4,V+*%
%TO.N,+15V*%
X189230000Y-120650000D03*
%TO.P,U4,5,+*%
%TO.N,Net-(U2-VTO)*%
X189230000Y-118110000D03*
%TO.P,U4,6,-*%
%TO.N,Net-(U4B--)*%
X189230000Y-115570000D03*
%TO.P,U4,7*%
%TO.N,Net-(NOT_THONKY_SineShapeTrim1-Pad1)*%
X189230000Y-113030000D03*
%TO.P,U4,8*%
%TO.N,Net-(U4C--)*%
X196850000Y-113030000D03*
%TO.P,U4,9,-*%
X196850000Y-115570000D03*
%TO.P,U4,10,+*%
%TO.N,Net-(D1-A)*%
X196850000Y-118110000D03*
%TO.P,U4,11,V-*%
%TO.N,-15V*%
X196850000Y-120650000D03*
%TO.P,U4,12,+*%
%TO.N,Net-(U2-VSO)*%
X196850000Y-123190000D03*
%TO.P,U4,13,-*%
%TO.N,Net-(U4D--)*%
X196850000Y-125730000D03*
%TO.P,U4,14*%
X196850000Y-128270000D03*
%TD*%
D20*
%TO.P,R10,1*%
%TO.N,+15V*%
X196850000Y-83119500D03*
%TO.P,R10,2*%
%TO.N,Net-(U2-VLFI)*%
X196850000Y-86044500D03*
%TD*%
%TO.P,R20,1*%
%TO.N,Net-(R20-Pad1)*%
X185369200Y-86167500D03*
%TO.P,R20,2*%
%TO.N,Net-(U2-VFCI)*%
X185369200Y-89092500D03*
%TD*%
D19*
%TO.P,R67,1*%
%TO.N,Net-(U4D--)*%
X196850000Y-133644100D03*
%TO.P,R67,2*%
%TO.N,Net-(J14-PadR)*%
X196850000Y-130719100D03*
%TD*%
D24*
%TO.P,U1,1*%
%TO.N,unconnected-(U1-Pad1)*%
X183388000Y-75822000D03*
%TO.P,U1,2,DIODE_BIAS*%
%TO.N,GND*%
X184658000Y-75822000D03*
%TO.P,U1,3,+*%
X185928000Y-75822000D03*
%TO.P,U1,4,-*%
X187198000Y-75822000D03*
%TO.P,U1,5*%
%TO.N,unconnected-(U1-Pad5)*%
X188468000Y-75822000D03*
%TO.P,U1,6,V-*%
%TO.N,-15V*%
X189738000Y-75822000D03*
%TO.P,U1,7*%
%TO.N,GND*%
X191008000Y-75822000D03*
%TO.P,U1,8*%
X192278000Y-75822000D03*
%TO.P,U1,9*%
%TO.N,Net-(R3-Pad1)*%
X192278000Y-80772000D03*
%TO.P,U1,10*%
%TO.N,Net-(R1-Pad2)*%
X191008000Y-80772000D03*
%TO.P,U1,11,V+*%
%TO.N,+15V*%
X189738000Y-80772000D03*
%TO.P,U1,12*%
%TO.N,Net-(R1-Pad2)*%
X188468000Y-80772000D03*
%TO.P,U1,13,-*%
%TO.N,GND*%
X187198000Y-80772000D03*
%TO.P,U1,14,+*%
%TO.N,Net-(U1A-+)*%
X185928000Y-80772000D03*
%TO.P,U1,15,DIODE_BIAS*%
%TO.N,unconnected-(U1A-DIODE_BIAS-Pad15)*%
X184658000Y-80772000D03*
%TO.P,U1,16*%
%TO.N,Net-(R36-Pad2)*%
X183388000Y-80772000D03*
%TD*%
D20*
%TO.P,R9,1*%
%TO.N,Net-(U2-VPWM)*%
X186385200Y-133411500D03*
%TO.P,R9,2*%
%TO.N,GND*%
X186385200Y-136336500D03*
%TD*%
D19*
%TO.P,R26,1*%
%TO.N,Net-(R26-Pad1)*%
X196951600Y-138368500D03*
%TO.P,R26,2*%
%TO.N,Net-(U2-VFCI)*%
X196951600Y-135443500D03*
%TD*%
D16*
%TO.P,R64,1*%
%TO.N,Net-(U4B--)*%
X187411900Y-105460800D03*
%TO.P,R64,2*%
%TO.N,Net-(NOT_THONKY_SineShapeTrim1-Pad1)*%
X190336900Y-105460800D03*
%TD*%
D20*
%TO.P,R19,1*%
%TO.N,Net-(R19-Pad1)*%
X179222400Y-138237500D03*
%TO.P,R19,2*%
%TO.N,Net-(U2-VFCI)*%
X179222400Y-141162500D03*
%TD*%
%TO.P,R3,1*%
%TO.N,Net-(R3-Pad1)*%
X190296800Y-83525900D03*
%TO.P,R3,2*%
%TO.N,Net-(U4A-+)*%
X190296800Y-86450900D03*
%TD*%
D18*
%TO.P,NOT_THINK_SineLevelTrim1,1,1*%
%TO.N,Net-(NOT_THINK_SineLevelTrim1-Pad1)*%
X196905000Y-75986000D03*
%TO.P,NOT_THINK_SineLevelTrim1,2,2*%
X194405000Y-78486000D03*
%TO.P,NOT_THINK_SineLevelTrim1,3,3*%
%TO.N,+15V*%
X196905000Y-80986000D03*
%TD*%
D20*
%TO.P,R54,1*%
%TO.N,Net-(U1A-+)*%
X179070000Y-66010600D03*
%TO.P,R54,2*%
%TO.N,Net-(NOT_THONKY_SineShapeTrim1-Pad2)*%
X179070000Y-68935600D03*
%TD*%
D21*
%TO.P,R7,1*%
%TO.N,Net-(C9-Pad1)*%
X190438500Y-88747600D03*
%TO.P,R7,2*%
%TO.N,Net-(U2-VFCI)*%
X187513500Y-88747600D03*
%TD*%
D20*
%TO.P,R2,1*%
%TO.N,-15V*%
X189280800Y-38567900D03*
%TO.P,R2,2*%
%TO.N,Net-(R2-Pad2)*%
X189280800Y-41492900D03*
%TD*%
D16*
%TO.P,R8,1*%
%TO.N,Net-(R8-Pad1)*%
X185532300Y-46634400D03*
%TO.P,R8,2*%
%TO.N,+15V*%
X188457300Y-46634400D03*
%TD*%
D18*
%TO.P,SW1,1,A*%
%TO.N,Net-(SW1-A)*%
X196962400Y-68721600D03*
%TO.P,SW1,2,B*%
%TO.N,Net-(SW1-B)*%
X194462400Y-71221600D03*
%TO.P,SW1,3,C*%
%TO.N,Net-(SW1-C)*%
X196962400Y-73721600D03*
%TD*%
%TO.P,NOT_THONKY_SineShapeTrim1,1,1*%
%TO.N,Net-(NOT_THONKY_SineShapeTrim1-Pad1)*%
X181610000Y-56428000D03*
%TO.P,NOT_THONKY_SineShapeTrim1,2,2*%
%TO.N,Net-(NOT_THONKY_SineShapeTrim1-Pad2)*%
X179110000Y-58928000D03*
%TO.P,NOT_THONKY_SineShapeTrim1,3,3*%
X181610000Y-61428000D03*
%TD*%
D20*
%TO.P,R24,1*%
%TO.N,Net-(J2-PadR)*%
X182930800Y-86167500D03*
%TO.P,R24,2*%
%TO.N,Net-(U2-VFCI)*%
X182930800Y-89092500D03*
%TD*%
D25*
%TO.P,C2,1*%
%TO.N,GND*%
X179324000Y-95861400D03*
%TO.P,C2,2*%
%TO.N,Net-(C2-Pad2)*%
X179324000Y-92911400D03*
%TD*%
D19*
%TO.P,R17,1*%
%TO.N,Net-(U2-VFCI)*%
X194564000Y-135193500D03*
%TO.P,R17,2*%
%TO.N,Net-(NOT_THONKY_HF_TRACK1-Pad2)*%
X194564000Y-132268500D03*
%TD*%
D16*
%TO.P,R12,1*%
%TO.N,Net-(U2-VLFI)*%
X187310300Y-100584000D03*
%TO.P,R12,2*%
%TO.N,Net-(C2-Pad2)*%
X190235300Y-100584000D03*
%TD*%
D26*
%TO.P,J11,1,Pin_1*%
%TO.N,-15V*%
X193035000Y-146685000D03*
D27*
%TO.P,J11,2,Pin_2*%
X193035000Y-144145000D03*
%TO.P,J11,3,Pin_3*%
%TO.N,GND*%
X190495000Y-146685000D03*
%TO.P,J11,4,Pin_4*%
X190495000Y-144145000D03*
%TO.P,J11,5,Pin_5*%
X187955000Y-146685000D03*
%TO.P,J11,6,Pin_6*%
X187955000Y-144145000D03*
%TO.P,J11,7,Pin_7*%
X185415000Y-146685000D03*
%TO.P,J11,8,Pin_8*%
X185415000Y-144145000D03*
%TO.P,J11,9,Pin_9*%
%TO.N,+15V*%
X182875000Y-146685000D03*
%TO.P,J11,10,Pin_10*%
X182875000Y-144145000D03*
%TD*%
D28*
%TO.P,C7,1*%
%TO.N,Net-(SW1-A)*%
X183083200Y-101496600D03*
%TO.P,C7,2*%
%TO.N,Net-(U2-VHSI)*%
X183083200Y-104446600D03*
%TD*%
D20*
%TO.P,R51,1*%
%TO.N,GND*%
X178917600Y-70825900D03*
%TO.P,R51,2*%
%TO.N,Net-(U1A-+)*%
X178917600Y-73750900D03*
%TD*%
D21*
%TO.P,R36,1*%
%TO.N,Net-(NOT_THINK_SineLevelTrim1-Pad1)*%
X187187300Y-70307200D03*
%TO.P,R36,2*%
%TO.N,Net-(R36-Pad2)*%
X184262300Y-70307200D03*
%TD*%
D22*
%TO.P,U2,1,SCALE1*%
%TO.N,Net-(U2-SCALE1)*%
X179324000Y-130810000D03*
D23*
%TO.P,U2,2,SCALE2*%
%TO.N,Net-(U2-SCALE2)*%
X179324000Y-128270000D03*
%TO.P,U2,3,VEE*%
%TO.N,Net-(U2-VEE)*%
X179324000Y-125730000D03*
%TO.P,U2,4,VP*%
%TO.N,Net-(U2-VP)*%
X179324000Y-123190000D03*
%TO.P,U2,5,VPWM*%
%TO.N,Net-(U2-VPWM)*%
X179324000Y-120650000D03*
%TO.P,U2,6,VHSI*%
%TO.N,Net-(U2-VHSI)*%
X179324000Y-118110000D03*
%TO.P,U2,7,VHFT*%
%TO.N,Net-(U2-VHFT)*%
X179324000Y-115570000D03*
%TO.P,U2,8,VSO*%
%TO.N,Net-(U2-VSO)*%
X179324000Y-113030000D03*
%TO.P,U2,9,VSSI*%
%TO.N,Net-(U2-VSSI)*%
X186944000Y-113030000D03*
%TO.P,U2,10,VTO*%
%TO.N,Net-(U2-VTO)*%
X186944000Y-115570000D03*
%TO.P,U2,11,CAP*%
%TO.N,Net-(U2-CAP)*%
X186944000Y-118110000D03*
%TO.P,U2,12,GND*%
%TO.N,GND*%
X186944000Y-120650000D03*
%TO.P,U2,13,VLFI*%
%TO.N,Net-(U2-VLFI)*%
X186944000Y-123190000D03*
%TO.P,U2,14,VS*%
%TO.N,Net-(U2-VS)*%
X186944000Y-125730000D03*
%TO.P,U2,15,VFCI*%
%TO.N,Net-(U2-VFCI)*%
X186944000Y-128270000D03*
%TO.P,U2,16,VCC*%
%TO.N,+15V*%
X186944000Y-130810000D03*
%TD*%
D16*
%TO.P,R40,1*%
%TO.N,Net-(J5-PadR)*%
X189545500Y-132080000D03*
%TO.P,R40,2*%
%TO.N,Net-(U2-VPWM)*%
X192470500Y-132080000D03*
%TD*%
D19*
%TO.P,R5,1*%
%TO.N,Net-(R5-Pad1)*%
X196900800Y-52922900D03*
%TO.P,R5,2*%
%TO.N,+15V*%
X196900800Y-49997900D03*
%TD*%
D18*
%TO.P,NOT+THINKY_CV1,1,1*%
%TO.N,Net-(NOT+THINKY_CV1-Pad1)*%
X196905000Y-42966000D03*
%TO.P,NOT+THINKY_CV1,2,2*%
X194405000Y-45466000D03*
%TO.P,NOT+THINKY_CV1,3,3*%
%TO.N,+15V*%
X196905000Y-47966000D03*
%TD*%
D21*
%TO.P,R39,1*%
%TO.N,Net-(U2-VEE)*%
X184291700Y-133654800D03*
%TO.P,R39,2*%
%TO.N,Net-(U2-SCALE2)*%
X181366700Y-133654800D03*
%TD*%
D20*
%TO.P,R68,1*%
%TO.N,Net-(NOT_THONKY_SineShapeTrim1-Pad1)*%
X190093600Y-107503500D03*
%TO.P,R68,2*%
%TO.N,Net-(J12-PadR)*%
X190093600Y-110428500D03*
%TD*%
%TO.P,R38,1*%
%TO.N,Net-(NOT_THINKY_TEMKO1-Pad1)*%
X179324000Y-133360700D03*
%TO.P,R38,2*%
%TO.N,Net-(U2-SCALE1)*%
X179324000Y-136285700D03*
%TD*%
D28*
%TO.P,C9,1*%
%TO.N,Net-(C9-Pad1)*%
X188620400Y-90981000D03*
%TO.P,C9,2*%
%TO.N,GND*%
X188620400Y-93931000D03*
%TD*%
D20*
%TO.P,R62,1*%
%TO.N,GND*%
X187706000Y-107503500D03*
%TO.P,R62,2*%
%TO.N,Net-(U4B--)*%
X187706000Y-110428500D03*
%TD*%
D18*
%TO.P,NOT_THINKY_TEMKO1,1,1*%
%TO.N,Net-(NOT_THINKY_TEMKO1-Pad1)*%
X196850000Y-57698000D03*
%TO.P,NOT_THINKY_TEMKO1,2,2*%
%TO.N,Net-(U2-VEE)*%
X194350000Y-60198000D03*
%TO.P,NOT_THINKY_TEMKO1,3,3*%
X196850000Y-62698000D03*
%TD*%
D28*
%TO.P,C3,1*%
%TO.N,Net-(SW1-C)*%
X197002400Y-103020600D03*
%TO.P,C3,2*%
%TO.N,Net-(U2-VSSI)*%
X197002400Y-105970600D03*
%TD*%
D19*
%TO.P,R66,1*%
%TO.N,Net-(U4C--)*%
X196900800Y-110784100D03*
%TO.P,R66,2*%
%TO.N,Net-(J15-PadR)*%
X196900800Y-107859100D03*
%TD*%
%TO.P,R1,1*%
%TO.N,GND*%
X196900800Y-95594900D03*
%TO.P,R1,2*%
%TO.N,Net-(R1-Pad2)*%
X196900800Y-92669900D03*
%TD*%
D20*
%TO.P,R50,1*%
%TO.N,Net-(U2-VEE)*%
X187756800Y-63917100D03*
%TO.P,R50,2*%
%TO.N,-15V*%
X187756800Y-66842100D03*
%TD*%
D29*
%TO.P,PolyStirene!C11,1*%
%TO.N,GND*%
X189611000Y-139700000D03*
%TO.P,PolyStirene!C11,2*%
%TO.N,Net-(U2-CAP)*%
X187611000Y-139700000D03*
%TD*%
D30*
%TO.N,GND*%
X179150000Y-71928400D03*
X179847100Y-64230900D03*
%TO.N,Net-(D1-A)*%
X179120800Y-108591900D03*
X180313300Y-145778000D03*
X195022400Y-130935200D03*
X195388000Y-138112800D03*
%TO.N,-15V*%
X194211800Y-75799600D03*
%TO.N,+15V*%
X190357400Y-79420100D03*
%TO.N,Net-(J12-PadR)*%
X191656300Y-104831700D03*
%TO.N,Net-(J14-PadR)*%
X196403200Y-131858600D03*
%TO.N,Net-(R3-Pad1)*%
X192233000Y-72075400D03*
X193132400Y-80716900D03*
%TO.N,Net-(U4A-+)*%
X189947900Y-85358200D03*
%TO.N,Net-(SW1-C)*%
X195317100Y-102550100D03*
X194594900Y-80294000D03*
%TO.N,Net-(U2-VLFI)*%
X192546900Y-89121000D03*
X194934000Y-86288000D03*
X186177000Y-104471700D03*
X188200300Y-92456000D03*
%TO.N,Net-(U2-VFCI)*%
X185782300Y-92768300D03*
X185812800Y-134898300D03*
%TO.N,Net-(SW1-A)*%
X186149200Y-98585000D03*
X187559200Y-83065700D03*
%TO.N,Net-(SW1-B)*%
X187548600Y-68520100D03*
%TO.N,Net-(U2-VEE)*%
X189425200Y-63344700D03*
%TO.N,Net-(NOT+THINKY_CV1-Pad1)*%
X196730100Y-141296600D03*
X194545500Y-54354300D03*
X191154400Y-59950800D03*
%TO.N,Net-(NOT_THINKY_TEMKO1-Pad1)*%
X192616200Y-57727800D03*
X185017700Y-82811000D03*
X179655900Y-134720800D03*
X186199300Y-101412800D03*
X187429900Y-87205800D03*
X183937200Y-117752100D03*
%TO.N,Net-(NOT_THINK_SineLevelTrim1-Pad1)*%
X192889600Y-74336100D03*
%TO.N,Net-(U4A--)*%
X192308600Y-103493000D03*
X191088800Y-123925800D03*
%TO.N,Net-(NOT_THONKY_HF_TRACK1-Pad2)*%
X190820600Y-48256900D03*
X195155500Y-114835200D03*
%TO.N,Net-(NOT_THONKY_SineShapeTrim1-Pad1)*%
X189303000Y-66122900D03*
%TO.N,Net-(NOT_THONKY_SineShapeTrim1-Pad2)*%
X179110000Y-67474600D03*
%TO.N,Net-(R5-Pad1)*%
X188242600Y-59960400D03*
%TO.N,Net-(R19-Pad1)*%
X181077700Y-131542300D03*
%TO.N,Net-(R20-Pad1)*%
X183613400Y-77799800D03*
%TO.N,Net-(U2-VSO)*%
X180802100Y-119195600D03*
X192926400Y-118691000D03*
X180644700Y-114294900D03*
%TD*%
D31*
%TO.N,Net-(C1-Pad1)*%
X191428600Y-101879900D02*
X190286100Y-103022400D01*
X190247800Y-98145600D02*
X191428600Y-99326400D01*
X191428600Y-99326400D02*
X191428600Y-101879900D01*
%TO.N,Net-(C1-Pad2)*%
X187084900Y-97932700D02*
X183783300Y-97932700D01*
X187297800Y-98145600D02*
X187084900Y-97932700D01*
X183783300Y-97932700D02*
X182880000Y-98836000D01*
%TO.N,GND*%
X180492500Y-48884500D02*
X181665000Y-47712000D01*
X191008000Y-75822000D02*
X191008000Y-75517600D01*
X190495000Y-144145000D02*
X190495000Y-140848000D01*
X191072100Y-133094600D02*
X191072100Y-128110400D01*
X187955000Y-144145000D02*
X189057300Y-144145000D01*
X189808700Y-101828600D02*
X188515900Y-103121400D01*
X182880000Y-125476000D02*
X182880000Y-124073700D01*
X185928000Y-75822000D02*
X184658000Y-75822000D01*
X186906900Y-81063100D02*
X186906900Y-84713800D01*
X180043200Y-145125700D02*
X179661000Y-145507900D01*
X186675500Y-73669900D02*
X186675500Y-71884900D01*
X192304200Y-126878300D02*
X193040000Y-126878300D01*
X193586800Y-117612400D02*
X191485200Y-115510800D01*
X188515900Y-106693600D02*
X187706000Y-107503500D01*
X192905400Y-111638300D02*
X193040000Y-111638300D01*
X192165400Y-124073700D02*
X191485200Y-123393500D01*
X192373200Y-89930100D02*
X188620400Y-93682900D01*
X178917600Y-71696000D02*
X179150000Y-71928400D01*
X189377900Y-95303500D02*
X189377900Y-98962300D01*
X186144100Y-65132000D02*
X183417900Y-62405800D01*
X192470500Y-134493000D02*
X191072100Y-133094600D01*
X186944000Y-121702300D02*
X186653700Y-121702300D01*
X182880000Y-110236000D02*
X182880000Y-108833700D01*
X191051200Y-101442700D02*
X190665300Y-101828600D01*
X179324000Y-95861400D02*
X180212300Y-95861400D01*
X183417900Y-62405800D02*
X183417900Y-60411900D01*
X182839700Y-142523400D02*
X184312700Y-143996500D01*
X191072100Y-128110400D02*
X192304200Y-126878300D01*
X189352600Y-74192400D02*
X189517700Y-74027300D01*
X193040000Y-94996000D02*
X196301900Y-94996000D01*
X186675500Y-71884900D02*
X186144100Y-71353500D01*
X188620400Y-93682900D02*
X188620400Y-93931000D01*
X187198000Y-75822000D02*
X187198000Y-80772000D01*
X186944000Y-120650000D02*
X186944000Y-121702300D01*
X182880000Y-142483100D02*
X182839700Y-142523400D01*
X182880000Y-108833700D02*
X182003600Y-108833700D01*
X190627000Y-140716000D02*
X189611000Y-139700000D01*
X179661000Y-145702100D02*
X179070000Y-146293100D01*
X189377900Y-95303500D02*
X188819800Y-94745400D01*
X186906900Y-84713800D02*
X189507600Y-87314500D01*
X191485200Y-121104700D02*
X193586800Y-119003100D01*
X191686400Y-87314500D02*
X193238600Y-88866700D01*
X193040000Y-140716000D02*
X191705600Y-140716000D01*
X191485200Y-115510800D02*
X191485200Y-113058500D01*
X191008000Y-75822000D02*
X192278000Y-75822000D01*
X179661000Y-145507900D02*
X179661000Y-145702100D01*
X193040000Y-125476000D02*
X193040000Y-126878300D01*
X193040000Y-110236000D02*
X193040000Y-111638300D01*
X189685400Y-94996000D02*
X189377900Y-95303500D01*
X179222400Y-100928900D02*
X179120800Y-101030500D01*
X191008000Y-75517600D02*
X189517700Y-74027300D01*
X189792900Y-99377300D02*
X190729600Y-99377300D01*
X180278800Y-103886300D02*
X179120800Y-102728300D01*
X187198000Y-74192400D02*
X189352600Y-74192400D01*
X183417900Y-62405800D02*
X181592800Y-64230900D01*
X189611000Y-139562300D02*
X186385200Y-136336500D01*
X189611000Y-139700000D02*
X189611000Y-139562300D01*
X191485200Y-123393500D02*
X191485200Y-121702300D01*
X193040000Y-94996000D02*
X191237700Y-94996000D01*
X189517700Y-74027300D02*
X190505000Y-73040000D01*
X191705600Y-140716000D02*
X190627000Y-140716000D01*
X180278800Y-107108900D02*
X180278800Y-103886300D01*
X182839700Y-142523400D02*
X180237400Y-145125700D01*
X191485200Y-121702300D02*
X186944000Y-121702300D01*
X186144100Y-71353500D02*
X186144100Y-65132000D01*
X185415000Y-144145000D02*
X187955000Y-144145000D01*
X192678400Y-89930100D02*
X192373200Y-89930100D01*
X190729600Y-99377300D02*
X191051200Y-99698900D01*
X182880000Y-142118300D02*
X182880000Y-142483100D01*
X179070000Y-146293100D02*
X179070000Y-146538000D01*
X182880000Y-140716000D02*
X182880000Y-142118300D01*
X184932900Y-94745400D02*
X184682300Y-94996000D01*
X182003600Y-108833700D02*
X180278800Y-107108900D01*
X189377900Y-98962300D02*
X189792900Y-99377300D01*
X183417900Y-60411900D02*
X180492500Y-57486500D01*
X186653700Y-121702300D02*
X184282300Y-124073700D01*
X181592800Y-64230900D02*
X179847100Y-64230900D01*
X191237700Y-94996000D02*
X189685400Y-94996000D01*
X191485200Y-113058500D02*
X192905400Y-111638300D01*
X190495000Y-140848000D02*
X190627000Y-140716000D01*
X187198000Y-74192400D02*
X186675500Y-73669900D01*
X189507600Y-87314500D02*
X191686400Y-87314500D01*
X182880000Y-94996000D02*
X184682300Y-94996000D01*
X193040000Y-125476000D02*
X193040000Y-124073700D01*
X193238600Y-88866700D02*
X193238600Y-89369900D01*
X188819800Y-94745400D02*
X188620400Y-94745400D01*
X180492500Y-57486500D02*
X180492500Y-48884500D01*
X193586800Y-119003100D02*
X193586800Y-117612400D01*
X188515900Y-103121400D02*
X188515900Y-106693600D01*
X178917600Y-70825900D02*
X178917600Y-71696000D01*
X188620400Y-94745400D02*
X188620400Y-93931000D01*
X185415000Y-144145000D02*
X184312700Y-144145000D01*
X191485200Y-121702300D02*
X191485200Y-121104700D01*
X187198000Y-80772000D02*
X186906900Y-81063100D01*
X193238600Y-89369900D02*
X192678400Y-89930100D01*
X180237400Y-145125700D02*
X180043200Y-145125700D01*
X180212300Y-95861400D02*
X181077700Y-94996000D01*
X190665300Y-101828600D02*
X189808700Y-101828600D01*
X193040000Y-124073700D02*
X192165400Y-124073700D01*
X191051200Y-99698900D02*
X191051200Y-101442700D01*
X179120800Y-101030500D02*
X179120800Y-102728300D01*
X184312700Y-143996500D02*
X184312700Y-144145000D01*
X196301900Y-94996000D02*
X196900800Y-95594900D01*
X182880000Y-94996000D02*
X181077700Y-94996000D01*
X188620400Y-94745400D02*
X184932900Y-94745400D01*
X187198000Y-75822000D02*
X185928000Y-75822000D01*
X184282300Y-124073700D02*
X182880000Y-124073700D01*
X190495000Y-144145000D02*
X189057300Y-144145000D01*
X187198000Y-75822000D02*
X187198000Y-74192400D01*
%TO.N,Net-(C2-Pad2)*%
X188793200Y-99141900D02*
X190235300Y-100584000D01*
X178645800Y-96899400D02*
X187751500Y-96899400D01*
X178140500Y-94094900D02*
X178140500Y-96394100D01*
X178140500Y-96394100D02*
X178645800Y-96899400D01*
X188793200Y-97941100D02*
X188793200Y-99141900D01*
X187751500Y-96899400D02*
X188793200Y-97941100D01*
X179324000Y-92911400D02*
X178140500Y-94094900D01*
%TO.N,Net-(U2-VSSI)*%
X186944000Y-113030000D02*
X186944000Y-111977700D01*
X188914300Y-108000600D02*
X188914300Y-105222300D01*
X186944000Y-111977700D02*
X186576900Y-111610600D01*
X186576900Y-111610600D02*
X186576900Y-109892500D01*
X186576900Y-109892500D02*
X188061700Y-108407700D01*
X188061700Y-108407700D02*
X188507200Y-108407700D01*
X188507200Y-108407700D02*
X188914300Y-108000600D01*
X188914300Y-105222300D02*
X189970900Y-104165700D01*
X195197500Y-104165700D02*
X197002400Y-105970600D01*
X189970900Y-104165700D02*
X195197500Y-104165700D01*
%TO.N,Net-(U2-VHSI)*%
X183488300Y-112018500D02*
X184692200Y-110814600D01*
X179324000Y-118110000D02*
X179324000Y-117057700D01*
X184692200Y-106055600D02*
X183083200Y-104446600D01*
X181299000Y-113034400D02*
X182314900Y-112018500D01*
X179324000Y-117057700D02*
X179455700Y-117057700D01*
X182314900Y-112018500D02*
X183488300Y-112018500D01*
X184692200Y-110814600D02*
X184692200Y-106055600D01*
X179455700Y-117057700D02*
X181299000Y-115214400D01*
X181299000Y-115214400D02*
X181299000Y-113034400D01*
%TO.N,Net-(C9-Pad1)*%
X188620400Y-90942700D02*
X185826400Y-90942700D01*
X190438500Y-88747600D02*
X188620400Y-90565700D01*
X188620400Y-90565700D02*
X188620400Y-90942700D01*
X188620400Y-90942700D02*
X188620400Y-90981000D01*
%TO.N,Net-(D1-A)*%
X191765000Y-144439300D02*
X190789300Y-145415000D01*
X195797700Y-120082900D02*
X195797700Y-128415000D01*
X180676300Y-145415000D02*
X180313300Y-145778000D01*
X195230400Y-138270400D02*
X195230400Y-140930500D01*
X192758700Y-142840100D02*
X191765000Y-143833800D01*
X196718300Y-119162300D02*
X195797700Y-120082900D01*
X179120800Y-108591900D02*
X179120800Y-107452700D01*
X196850000Y-119162300D02*
X196718300Y-119162300D01*
X195022400Y-129190300D02*
X195022400Y-130935200D01*
X193320800Y-142840100D02*
X192758700Y-142840100D01*
X196850000Y-118110000D02*
X196850000Y-119162300D01*
X195388000Y-138112800D02*
X195230400Y-138270400D01*
X179120800Y-105653300D02*
X179120800Y-107452700D01*
X190789300Y-145415000D02*
X180676300Y-145415000D01*
X195797700Y-128415000D02*
X195022400Y-129190300D01*
X195230400Y-140930500D02*
X193320800Y-142840100D01*
X191765000Y-143833800D02*
X191765000Y-144439300D01*
%TO.N,Net-(J2-PadR)*%
X182930800Y-83646800D02*
X182880000Y-83596000D01*
X182930800Y-86167500D02*
X182930800Y-83646800D01*
%TO.N,-15V*%
X183291600Y-46599600D02*
X181275200Y-46599600D01*
X186073900Y-47792700D02*
X184484700Y-47792700D01*
X187756800Y-66842100D02*
X189506300Y-66842100D01*
X189738000Y-75822000D02*
X189738000Y-76103300D01*
X186610200Y-64456800D02*
X186610200Y-62422100D01*
X186610200Y-62422100D02*
X187665900Y-61366400D01*
X179155300Y-63968900D02*
X179155300Y-64461500D01*
X182704200Y-61841100D02*
X181485600Y-63059700D01*
X186869500Y-68803000D02*
X186869500Y-67729400D01*
X182704200Y-60528000D02*
X182704200Y-61841100D01*
X192574800Y-69138000D02*
X190308300Y-69138000D01*
X192624400Y-77093700D02*
X193541900Y-76176200D01*
X180106100Y-57929900D02*
X182704200Y-60528000D01*
X189139100Y-70307200D02*
X188010700Y-69178800D01*
X179577000Y-64883200D02*
X179705300Y-64883200D01*
X186073900Y-47792700D02*
X186652400Y-48371200D01*
X187129500Y-64976100D02*
X186610200Y-64456800D01*
X180106100Y-47768700D02*
X180106100Y-57929900D01*
X189738000Y-76103300D02*
X190728400Y-77093700D01*
X189280800Y-38567900D02*
X186814000Y-41034700D01*
X193391800Y-73915800D02*
X193391800Y-69955000D01*
X189099300Y-64976100D02*
X187129500Y-64976100D01*
X184484700Y-47792700D02*
X183291600Y-46599600D01*
X189506300Y-66842100D02*
X189955300Y-66393100D01*
X181275200Y-46599600D02*
X180106100Y-47768700D01*
X189955300Y-65832100D02*
X189099300Y-64976100D01*
X186652400Y-48371200D02*
X186652400Y-60352900D01*
X186652400Y-60352900D02*
X187665900Y-61366400D01*
X190308300Y-69138000D02*
X189139100Y-70307200D01*
X186869500Y-67729400D02*
X187756800Y-66842100D01*
X181485600Y-63059700D02*
X180064500Y-63059700D01*
X193541900Y-75799600D02*
X194211800Y-75799600D01*
X193541900Y-75799600D02*
X193541900Y-74065900D01*
X193541900Y-76176200D02*
X193541900Y-75799600D01*
X193541900Y-74065900D02*
X193391800Y-73915800D01*
X186814000Y-41034700D02*
X186814000Y-47052600D01*
X179155300Y-64461500D02*
X179577000Y-64883200D01*
X186814000Y-47052600D02*
X186073900Y-47792700D01*
X180064500Y-63059700D02*
X179155300Y-63968900D01*
X190728400Y-77093700D02*
X192624400Y-77093700D01*
X193391800Y-69955000D02*
X192574800Y-69138000D01*
X188010700Y-69178800D02*
X187245300Y-69178800D01*
X189955300Y-66393100D02*
X189955300Y-65832100D01*
X181610000Y-66787900D02*
X181610000Y-75986000D01*
X179705300Y-64883200D02*
X181610000Y-66787900D01*
X187245300Y-69178800D02*
X186869500Y-68803000D01*
%TO.N,+15V*%
X190559600Y-53625300D02*
X188203300Y-55981600D01*
X194364300Y-80986000D02*
X196850000Y-80986000D01*
X188177700Y-120322900D02*
X188177700Y-120650000D01*
X181077600Y-126075100D02*
X181077600Y-121602400D01*
X194281600Y-86571500D02*
X195706400Y-87996300D01*
X189230000Y-120650000D02*
X188177700Y-120650000D01*
X190559600Y-48970300D02*
X190559600Y-53625300D01*
X192907000Y-79528700D02*
X194364300Y-80986000D01*
X187452400Y-119597600D02*
X188177700Y-120322900D01*
X183082400Y-119597600D02*
X187452400Y-119597600D01*
X186944000Y-130810000D02*
X186944000Y-129757700D01*
X188457300Y-46868000D02*
X188457300Y-46634400D01*
X186944000Y-129757700D02*
X185977600Y-129757700D01*
X196850000Y-80986000D02*
X196905000Y-80986000D01*
X190559600Y-48970300D02*
X188457300Y-46868000D01*
X185977600Y-129757700D02*
X183673100Y-127453200D01*
X196850000Y-83119500D02*
X194281600Y-85687900D01*
X196850000Y-80986000D02*
X196850000Y-83119500D01*
X189738000Y-80772000D02*
X189738000Y-80207400D01*
X194281600Y-85687900D02*
X194281600Y-86571500D01*
X196900800Y-47970200D02*
X196900800Y-48970300D01*
X190416700Y-79479400D02*
X190357400Y-79420100D01*
X196905000Y-47966000D02*
X196900800Y-47970200D01*
X183673100Y-127453200D02*
X182455700Y-127453200D01*
X182455700Y-127453200D02*
X181077600Y-126075100D01*
X190416700Y-79528700D02*
X192907000Y-79528700D01*
X189738000Y-80207400D02*
X190416700Y-79528700D01*
X196900800Y-48970300D02*
X190559600Y-48970300D01*
X190416700Y-79528700D02*
X190416700Y-79479400D01*
X181077600Y-121602400D02*
X183082400Y-119597600D01*
X196900800Y-48970300D02*
X196900800Y-49997900D01*
X195706400Y-87996300D02*
X196951600Y-87996300D01*
%TO.N,Net-(J12-PadR)*%
X191221900Y-109300200D02*
X191221900Y-105266100D01*
X190093600Y-110428500D02*
X191221900Y-109300200D01*
X191221900Y-105266100D02*
X191656300Y-104831700D01*
%TO.N,Net-(J13-PadR)*%
X196900800Y-98359500D02*
X193516500Y-98359500D01*
X193516500Y-98359500D02*
X193040000Y-98836000D01*
%TO.N,Net-(J14-PadR)*%
X196850000Y-130719100D02*
X196403200Y-131165900D01*
X196403200Y-131165900D02*
X196403200Y-131858600D01*
%TO.N,Net-(J15-PadR)*%
X193040000Y-129316000D02*
X195352500Y-127003500D01*
X195807800Y-114565000D02*
X195757000Y-114514200D01*
X195352500Y-127003500D02*
X195352500Y-115560700D01*
X195757000Y-109002900D02*
X196900800Y-107859100D01*
X195352500Y-115560700D02*
X195807800Y-115105400D01*
X195757000Y-114514200D02*
X195757000Y-109002900D01*
X195807800Y-115105400D02*
X195807800Y-114565000D01*
%TO.N,Net-(R1-Pad2)*%
X189161700Y-82299800D02*
X189161700Y-84039900D01*
X191008000Y-81068000D02*
X191008000Y-80772000D01*
X190037700Y-82038300D02*
X191008000Y-81068000D01*
X196900800Y-92669900D02*
X196951600Y-92619100D01*
X188468000Y-81083100D02*
X189423200Y-82038300D01*
X188468000Y-80772000D02*
X188468000Y-81083100D01*
X189423200Y-82038300D02*
X189161700Y-82299800D01*
X190420500Y-84390200D02*
X196951600Y-90921300D01*
X189423200Y-82038300D02*
X190037700Y-82038300D01*
X196951600Y-92619100D02*
X196951600Y-90921300D01*
X189512000Y-84390200D02*
X190420500Y-84390200D01*
X189161700Y-84039900D02*
X189512000Y-84390200D01*
%TO.N,Net-(R3-Pad1)*%
X192278000Y-80772000D02*
X192278000Y-81544700D01*
X192064100Y-71906500D02*
X192233000Y-72075400D01*
X192278000Y-81544700D02*
X190296800Y-83525900D01*
X192278000Y-80772000D02*
X193077300Y-80772000D01*
X192064100Y-70307200D02*
X192064100Y-71906500D01*
X193077300Y-80772000D02*
X193132400Y-80716900D01*
%TO.N,Net-(U4A-+)*%
X190296800Y-85707100D02*
X189947900Y-85358200D01*
X190296800Y-86450900D02*
X190296800Y-85707100D01*
%TO.N,Net-(SW1-C)*%
X194594900Y-80294000D02*
X193311000Y-79010100D01*
X193311000Y-79010100D02*
X193311000Y-78066500D01*
X195241400Y-75442600D02*
X196962400Y-73721600D01*
X193311000Y-78066500D02*
X194548300Y-76829200D01*
X194638300Y-76829200D02*
X195241400Y-76226100D01*
X194548300Y-76829200D02*
X194638300Y-76829200D01*
X195241400Y-76226100D02*
X195241400Y-75442600D01*
X197002400Y-103020600D02*
X196531900Y-102550100D01*
X196531900Y-102550100D02*
X195317100Y-102550100D01*
%TO.N,Net-(R26-Pad1)*%
X195728800Y-141870100D02*
X195728800Y-139591300D01*
X196900800Y-143042100D02*
X195728800Y-141870100D01*
X195728800Y-139591300D02*
X196951600Y-138368500D01*
%TO.N,Net-(U2-VLFI)*%
X192546900Y-89121000D02*
X189211900Y-92456000D01*
X194934000Y-86288000D02*
X196606500Y-86288000D01*
X187310300Y-100584000D02*
X187361100Y-100634800D01*
X189211900Y-92456000D02*
X188200300Y-92456000D01*
X187361100Y-103022400D02*
X187361100Y-103287600D01*
X187361100Y-100634800D02*
X187361100Y-103022400D01*
X196606500Y-86288000D02*
X196850000Y-86044500D01*
X187361100Y-103287600D02*
X186177000Y-104471700D01*
%TO.N,Net-(U2-VFCI)*%
X191262900Y-136407300D02*
X188146700Y-136407300D01*
X194564000Y-135193500D02*
X193696400Y-136061100D01*
X193696400Y-136061100D02*
X191609100Y-136061100D01*
X185782300Y-93490400D02*
X185782300Y-92768300D01*
X181325100Y-139059800D02*
X179222400Y-141162500D01*
X185826400Y-93534500D02*
X185782300Y-93490400D01*
X185782300Y-93490400D02*
X181863500Y-93490400D01*
X186637700Y-134898300D02*
X185812800Y-134898300D01*
X191609100Y-136061100D02*
X191262900Y-136407300D01*
X181325100Y-136593000D02*
X181325100Y-139059800D01*
X194814000Y-135443500D02*
X194564000Y-135193500D01*
X185812800Y-134898300D02*
X183019800Y-134898300D01*
X181311800Y-90711500D02*
X182930800Y-89092500D01*
X183019800Y-134898300D02*
X181325100Y-136593000D01*
X196951600Y-135443500D02*
X194814000Y-135443500D01*
X185826400Y-93867700D02*
X185826400Y-93534500D01*
X185714100Y-88747600D02*
X185369200Y-89092500D01*
X181863500Y-93490400D02*
X181311800Y-92938700D01*
X187513500Y-88747600D02*
X185714100Y-88747600D01*
X181311800Y-92938700D02*
X181311800Y-90711500D01*
X185369200Y-89092500D02*
X182930800Y-89092500D01*
X188146700Y-136407300D02*
X186637700Y-134898300D01*
%TO.N,Net-(SW1-A)*%
X194864100Y-76069800D02*
X194864100Y-73319900D01*
X194864100Y-73319900D02*
X196962400Y-71221600D01*
X196962400Y-71221600D02*
X196962400Y-68721600D01*
X192277000Y-78297000D02*
X194122100Y-76451900D01*
X183237600Y-101496600D02*
X183083200Y-101496600D01*
X187559200Y-83065700D02*
X187915000Y-82709900D01*
X189342600Y-78297000D02*
X192277000Y-78297000D01*
X194122100Y-76451900D02*
X194482000Y-76451900D01*
X187915000Y-82709900D02*
X187915000Y-79724600D01*
X187915000Y-79724600D02*
X189342600Y-78297000D01*
X194482000Y-76451900D02*
X194864100Y-76069800D01*
X186149200Y-98585000D02*
X183237600Y-101496600D01*
%TO.N,Net-(SW1-B)*%
X192501400Y-68520100D02*
X187548600Y-68520100D01*
X194462400Y-70481100D02*
X192501400Y-68520100D01*
X194462400Y-71221600D02*
X194462400Y-70481100D01*
%TO.N,Net-(R36-Pad2)*%
X183971900Y-70597600D02*
X183971900Y-76813300D01*
X183637700Y-77147500D02*
X183343300Y-77147500D01*
X183971900Y-76813300D02*
X183637700Y-77147500D01*
X182961100Y-78069900D02*
X183388000Y-78496800D01*
X183388000Y-78496800D02*
X183388000Y-80772000D01*
X182961100Y-77529700D02*
X182961100Y-78069900D01*
X183343300Y-77147500D02*
X182961100Y-77529700D01*
X184262300Y-70307200D02*
X183971900Y-70597600D01*
%TO.N,Net-(J5-PadR)*%
X183961700Y-129316000D02*
X182880000Y-129316000D01*
X190402100Y-135286500D02*
X190051700Y-135636900D01*
X188996800Y-135636900D02*
X187618900Y-134259000D01*
X189545500Y-132080000D02*
X190402100Y-132936600D01*
X187618900Y-134259000D02*
X187618900Y-132973200D01*
X190051700Y-135636900D02*
X188996800Y-135636900D01*
X190402100Y-132936600D02*
X190402100Y-135286500D01*
X187618900Y-132973200D02*
X183961700Y-129316000D01*
%TO.N,Net-(U2-SCALE1)*%
X179060900Y-131862300D02*
X178148500Y-132774700D01*
X179324000Y-130810000D02*
X179324000Y-131862300D01*
X178148500Y-132774700D02*
X178148500Y-135110200D01*
X178148500Y-135110200D02*
X179324000Y-136285700D01*
X179324000Y-131862300D02*
X179060900Y-131862300D01*
%TO.N,Net-(U2-VEE)*%
X179324000Y-125730000D02*
X179324000Y-126782300D01*
X194528000Y-60376000D02*
X194350000Y-60376000D01*
X189425200Y-63344700D02*
X191381300Y-63344700D01*
X196850000Y-62698000D02*
X194528000Y-60376000D01*
X179324000Y-126782300D02*
X179455500Y-126782300D01*
X180947900Y-130489700D02*
X184113000Y-133654800D01*
X194350000Y-60376000D02*
X194350000Y-60198000D01*
X179455500Y-126782300D02*
X180947900Y-128274700D01*
X180947900Y-128274700D02*
X180947900Y-130489700D01*
X187756800Y-63917100D02*
X188329200Y-63344700D01*
X188329200Y-63344700D02*
X189425200Y-63344700D01*
X191381300Y-63344700D02*
X194350000Y-60376000D01*
X184113000Y-133654800D02*
X184291700Y-133654800D01*
%TO.N,Net-(U2-SCALE2)*%
X179324000Y-128270000D02*
X179324000Y-129322300D01*
X181366700Y-133654800D02*
X180384500Y-132672600D01*
X180384500Y-132672600D02*
X180384500Y-129852500D01*
X179854300Y-129322300D02*
X179324000Y-129322300D01*
X180384500Y-129852500D02*
X179854300Y-129322300D01*
%TO.N,Net-(U2-VPWM)*%
X182010000Y-131018200D02*
X183991900Y-131018200D01*
X186385200Y-133559000D02*
X188856100Y-136029900D01*
X179222400Y-98003900D02*
X180656200Y-99437700D01*
X179324000Y-120650000D02*
X179324000Y-120123800D01*
X181325200Y-130333400D02*
X182010000Y-131018200D01*
X179477700Y-119597700D02*
X179324000Y-119597700D01*
X188856100Y-136029900D02*
X190708800Y-136029900D01*
X180514900Y-121314700D02*
X180514900Y-126046100D01*
X179324000Y-120123800D02*
X180514900Y-121314700D01*
X183991900Y-131018200D02*
X186385200Y-133411500D01*
X180656200Y-100865700D02*
X182656400Y-102865900D01*
X185096800Y-104752400D02*
X185096800Y-114482600D01*
X179324000Y-120123800D02*
X179324000Y-119597700D01*
X186385200Y-133411500D02*
X186385200Y-133559000D01*
X180514900Y-126046100D02*
X181325200Y-126856400D01*
X181036100Y-118543300D02*
X180532100Y-118543300D01*
X192928900Y-135683800D02*
X193286400Y-135326300D01*
X181325200Y-126856400D02*
X181325200Y-130333400D01*
X191054900Y-135683800D02*
X192928900Y-135683800D01*
X193286400Y-132895900D02*
X192470500Y-132080000D01*
X183210300Y-102865900D02*
X185096800Y-104752400D01*
X193286400Y-135326300D02*
X193286400Y-132895900D01*
X185096800Y-114482600D02*
X181036100Y-118543300D01*
X180532100Y-118543300D02*
X179477700Y-119597700D01*
X190708800Y-136029900D02*
X191054900Y-135683800D01*
X182656400Y-102865900D02*
X183210300Y-102865900D01*
X180656200Y-99437700D02*
X180656200Y-100865700D01*
%TO.N,Net-(U2-VS)*%
X186944000Y-125730000D02*
X186944000Y-126782300D01*
X187075700Y-126782300D02*
X186944000Y-126782300D01*
X187996300Y-127702900D02*
X187075700Y-126782300D01*
X187996300Y-132943800D02*
X187996300Y-127702900D01*
X189545500Y-134493000D02*
X187996300Y-132943800D01*
%TO.N,Net-(U1A-+)*%
X185928000Y-81046900D02*
X184954400Y-82020500D01*
X184954400Y-82020500D02*
X183079900Y-82020500D01*
X179070000Y-66010600D02*
X180199400Y-67140000D01*
X185928000Y-80772000D02*
X185928000Y-81046900D01*
X178917600Y-73750900D02*
X180413900Y-75247200D01*
X180199400Y-67140000D02*
X180199400Y-72469100D01*
X182835000Y-80700000D02*
X182043300Y-79908300D01*
X182043300Y-79908300D02*
X181099700Y-79908300D01*
X179222400Y-81785600D02*
X179222400Y-83017900D01*
X183079900Y-82020500D02*
X182835000Y-81775600D01*
X180413900Y-79222500D02*
X181099700Y-79908300D01*
X180199400Y-72469100D02*
X178917600Y-73750900D01*
X181099700Y-79908300D02*
X179222400Y-81785600D01*
X182835000Y-81775600D02*
X182835000Y-80700000D01*
X180413900Y-75247200D02*
X180413900Y-79222500D01*
%TO.N,Net-(NOT+THINKY_CV1-Pad1)*%
X196730100Y-141296600D02*
X196900800Y-141125900D01*
X196905000Y-42966000D02*
X194405000Y-45466000D01*
X191963900Y-59141300D02*
X191154400Y-59950800D01*
X191963900Y-56935900D02*
X191963900Y-59141300D01*
X196900800Y-141125900D02*
X196900800Y-140117100D01*
X194545500Y-54354300D02*
X191963900Y-56935900D01*
%TO.N,Net-(NOT_THINKY_TEMKO1-Pad1)*%
X185514400Y-116174900D02*
X183937200Y-117752100D01*
X196850000Y-57698000D02*
X192646000Y-57698000D01*
X192646000Y-57698000D02*
X192616200Y-57727800D01*
X179324000Y-134388900D02*
X179324000Y-133360700D01*
X185017700Y-82811000D02*
X185017700Y-84627000D01*
X184682400Y-87205800D02*
X187429900Y-87205800D01*
X186199300Y-101412800D02*
X185514400Y-102097700D01*
X184211000Y-86734400D02*
X184682400Y-87205800D01*
X185514400Y-102097700D02*
X185514400Y-116174900D01*
X179655900Y-134720800D02*
X179324000Y-134388900D01*
X185017700Y-84627000D02*
X184211000Y-85433700D01*
X184211000Y-85433700D02*
X184211000Y-86734400D01*
%TO.N,Net-(U4B--)*%
X187645200Y-114129600D02*
X186555400Y-114129600D01*
X189230000Y-114517700D02*
X189098300Y-114517700D01*
X185891700Y-113465900D02*
X185891700Y-106981000D01*
X188177700Y-113597100D02*
X188177700Y-110900200D01*
X189098300Y-114517700D02*
X188177700Y-113597100D01*
X188177700Y-113597100D02*
X187645200Y-114129600D01*
X189230000Y-115570000D02*
X189230000Y-114517700D01*
X188177700Y-110900200D02*
X187706000Y-110428500D01*
X186555400Y-114129600D02*
X185891700Y-113465900D01*
X185891700Y-106981000D02*
X187411900Y-105460800D01*
%TO.N,Net-(NOT_THINK_SineLevelTrim1-Pad1)*%
X192889600Y-73794900D02*
X190677600Y-71582900D01*
X192889600Y-74336100D02*
X192889600Y-73794900D01*
X190677600Y-71582900D02*
X188463000Y-71582900D01*
X188463000Y-71582900D02*
X187187300Y-70307200D01*
X194405000Y-78486000D02*
X196905000Y-75986000D01*
%TO.N,Net-(U4C--)*%
X196850000Y-113030000D02*
X196850000Y-111977700D01*
X196900800Y-111926900D02*
X196900800Y-110784100D01*
X196850000Y-111977700D02*
X196900800Y-111926900D01*
%TO.N,Net-(U4D--)*%
X196586900Y-129322300D02*
X195692400Y-130216800D01*
X196850000Y-128270000D02*
X196850000Y-129322300D01*
X196850000Y-129322300D02*
X196586900Y-129322300D01*
X195692400Y-130216800D02*
X195692400Y-132486500D01*
X195692400Y-132486500D02*
X196850000Y-133644100D01*
%TO.N,Net-(U4A--)*%
X194517100Y-101284500D02*
X192308600Y-103493000D01*
X190282300Y-125730000D02*
X190282300Y-124732300D01*
X196900800Y-101284500D02*
X194517100Y-101284500D01*
X189230000Y-125730000D02*
X190282300Y-125730000D01*
X190282300Y-124732300D02*
X191088800Y-123925800D01*
%TO.N,Net-(NOT_THONKY_HF_TRACK1-Pad2)*%
X193552500Y-127374900D02*
X192341300Y-127374900D01*
X180705600Y-45212000D02*
X188172800Y-37744800D01*
X190531900Y-41914600D02*
X191664500Y-43047200D01*
X194975100Y-125952300D02*
X193552500Y-127374900D01*
X193206700Y-130911200D02*
X194564000Y-132268500D01*
X192341300Y-127374900D02*
X191449500Y-128266700D01*
X190531900Y-38153900D02*
X190531900Y-41914600D01*
X191664500Y-47413000D02*
X190820600Y-48256900D01*
X188172800Y-37744800D02*
X190122800Y-37744800D01*
X191664500Y-43047200D02*
X191664500Y-47413000D01*
X195155500Y-114835200D02*
X194975100Y-115015600D01*
X190122800Y-37744800D02*
X190531900Y-38153900D01*
X191449500Y-130348400D02*
X192012300Y-130911200D01*
X191449500Y-128266700D02*
X191449500Y-130348400D01*
X179165000Y-45212000D02*
X180705600Y-45212000D01*
X192012300Y-130911200D02*
X193206700Y-130911200D01*
X194975100Y-115015600D02*
X194975100Y-125952300D01*
%TO.N,Net-(NOT_THONKY_SineShapeTrim1-Pad1)*%
X188923600Y-108673500D02*
X190093600Y-107503500D01*
X184347600Y-62787100D02*
X184347600Y-59165600D01*
X189230000Y-113030000D02*
X189230000Y-111977700D01*
X188845100Y-65665000D02*
X187225500Y-65665000D01*
X189303000Y-66122900D02*
X188845100Y-65665000D01*
X187225500Y-65665000D02*
X184347600Y-62787100D01*
X190336900Y-107260200D02*
X190336900Y-105460800D01*
X184347600Y-59165600D02*
X181610000Y-56428000D01*
X188923600Y-111671300D02*
X188923600Y-108673500D01*
X189230000Y-111977700D02*
X188923600Y-111671300D01*
X190093600Y-107503500D02*
X190336900Y-107260200D01*
%TO.N,Net-(NOT_THONKY_SineShapeTrim1-Pad2)*%
X179070000Y-67514600D02*
X179110000Y-67474600D01*
X179070000Y-68935600D02*
X179070000Y-67514600D01*
X179110000Y-58928000D02*
X181610000Y-61428000D01*
%TO.N,Net-(NOT_THOONKY_SineBiasTrim1-Pad2)*%
X178078200Y-79517800D02*
X178078200Y-84798700D01*
X179110000Y-78486000D02*
X178078200Y-79517800D01*
X178078200Y-84798700D02*
X179222400Y-85942900D01*
%TO.N,Net-(R2-Pad2)*%
X189280800Y-41492900D02*
X190500000Y-42712100D01*
X190500000Y-42712100D02*
X190500000Y-43775000D01*
%TO.N,Net-(R5-Pad1)*%
X194367500Y-52922900D02*
X189347600Y-57942800D01*
X189347600Y-57942800D02*
X189347600Y-58855400D01*
X196900800Y-52922900D02*
X194367500Y-52922900D01*
X189347600Y-58855400D02*
X188242600Y-59960400D01*
%TO.N,Net-(R6-Pad2)*%
X190500000Y-61275500D02*
X190590900Y-61366400D01*
X190500000Y-58420000D02*
X190500000Y-61275500D01*
%TO.N,Net-(R8-Pad1)*%
X185500000Y-43775000D02*
X185500000Y-44927300D01*
X185532300Y-46634400D02*
X185532300Y-44959600D01*
X185532300Y-44959600D02*
X185500000Y-44927300D01*
%TO.N,Net-(R16-Pad1)*%
X185500000Y-58420000D02*
X185500000Y-57267700D01*
X185278300Y-57046000D02*
X185500000Y-57267700D01*
X185278300Y-55981600D02*
X185278300Y-57046000D01*
%TO.N,Net-(R19-Pad1)*%
X182188300Y-132652900D02*
X182188300Y-134738000D01*
X180731900Y-136194400D02*
X180731900Y-136728000D01*
X180731900Y-136728000D02*
X179222400Y-138237500D01*
X181077700Y-131542300D02*
X182188300Y-132652900D01*
X182188300Y-134738000D02*
X180731900Y-136194400D01*
%TO.N,Net-(R20-Pad1)*%
X184548000Y-77799800D02*
X183613400Y-77799800D01*
X186481000Y-85055700D02*
X186481000Y-79732800D01*
X185369200Y-86167500D02*
X186481000Y-85055700D01*
X186481000Y-79732800D02*
X184548000Y-77799800D01*
%TO.N,Net-(U2-VP)*%
X178260800Y-121206000D02*
X178260800Y-111237700D01*
X179324000Y-123190000D02*
X179324000Y-122137700D01*
X178260800Y-111237700D02*
X179120800Y-110377700D01*
X179324000Y-122137700D02*
X179192500Y-122137700D01*
X179192500Y-122137700D02*
X178260800Y-121206000D01*
%TO.N,Net-(U2-VSO)*%
X192421800Y-119195600D02*
X192926400Y-118691000D01*
X179324000Y-113030000D02*
X180376300Y-113030000D01*
X180802100Y-119195600D02*
X192421800Y-119195600D01*
X180376300Y-114026500D02*
X180644700Y-114294900D01*
X180376300Y-113030000D02*
X180376300Y-114026500D01*
%TO.N,Net-(U2-VTO)*%
X186944000Y-115570000D02*
X186944000Y-116622300D01*
X186944000Y-116622300D02*
X187035100Y-116622300D01*
X188177700Y-117764900D02*
X188177700Y-118110000D01*
X189230000Y-118110000D02*
X188177700Y-118110000D01*
X187035100Y-116622300D02*
X188177700Y-117764900D01*
%TD*%
%TA.AperFunction,Conductor*%
%TO.N,GND*%
G36*
X185172530Y-135551485D02*
G01*
X185197641Y-135572828D01*
X185201547Y-135577166D01*
X185311572Y-135657104D01*
X185356048Y-135689418D01*
X185530514Y-135767095D01*
X185717311Y-135806800D01*
X185717313Y-135806800D01*
X185908289Y-135806800D01*
X186095085Y-135767095D01*
X186095086Y-135767094D01*
X186095088Y-135767094D01*
X186269552Y-135689418D01*
X186336408Y-135640843D01*
X186402212Y-135617362D01*
X186470267Y-135633186D01*
X186496975Y-135653479D01*
X187639610Y-136796114D01*
X187652659Y-136812401D01*
X187654699Y-136814316D01*
X187654700Y-136814318D01*
X187704401Y-136860990D01*
X187707165Y-136863669D01*
X187726930Y-136883434D01*
X187730184Y-136885958D01*
X187739067Y-136893544D01*
X187771379Y-136923886D01*
X187789272Y-136933722D01*
X187805531Y-136944403D01*
X187821659Y-136956913D01*
X187862325Y-136974510D01*
X187872806Y-136979646D01*
X187894267Y-136991444D01*
X187911640Y-137000995D01*
X187931410Y-137006071D01*
X187949815Y-137012371D01*
X187968555Y-137020481D01*
X188012330Y-137027413D01*
X188023741Y-137029777D01*
X188066670Y-137040800D01*
X188087084Y-137040800D01*
X188106483Y-137042327D01*
X188126643Y-137045520D01*
X188170756Y-137041350D01*
X188182426Y-137040800D01*
X191107500Y-137040800D01*
X191174539Y-137060485D01*
X191220294Y-137113289D01*
X191231500Y-137164800D01*
X191231500Y-138337502D01*
X191231647Y-138339624D01*
X191231648Y-138339644D01*
X191237693Y-138426739D01*
X191286849Y-138635737D01*
X191329153Y-138731545D01*
X191373573Y-138832146D01*
X191494908Y-139009275D01*
X191646725Y-139161092D01*
X191823854Y-139282427D01*
X192020261Y-139369150D01*
X192229260Y-139418306D01*
X192318498Y-139424500D01*
X192320638Y-139424500D01*
X193759362Y-139424500D01*
X193761502Y-139424500D01*
X193850740Y-139418306D01*
X194059739Y-139369150D01*
X194256146Y-139282427D01*
X194402824Y-139181950D01*
X194469255Y-139160305D01*
X194536845Y-139178010D01*
X194584132Y-139229447D01*
X194596900Y-139284251D01*
X194596900Y-140616733D01*
X194577215Y-140683772D01*
X194560581Y-140704414D01*
X193094714Y-142170281D01*
X193033391Y-142203766D01*
X193007033Y-142206600D01*
X192842333Y-142206600D01*
X192821591Y-142204310D01*
X192818791Y-142204398D01*
X192750683Y-142206539D01*
X192746787Y-142206600D01*
X192718844Y-142206600D01*
X192714977Y-142207088D01*
X192714968Y-142207089D01*
X192714732Y-142207119D01*
X192703105Y-142208034D01*
X192658811Y-142209426D01*
X192639208Y-142215122D01*
X192620156Y-142219067D01*
X192599904Y-142221625D01*
X192558700Y-142237938D01*
X192547655Y-142241719D01*
X192505110Y-142254080D01*
X192501100Y-142256451D01*
X192487527Y-142264477D01*
X192470070Y-142273030D01*
X192451078Y-142280549D01*
X192415234Y-142306591D01*
X192405477Y-142313001D01*
X192367338Y-142335557D01*
X192352900Y-142349995D01*
X192338111Y-142362625D01*
X192321594Y-142374625D01*
X192293344Y-142408773D01*
X192285483Y-142417411D01*
X191376182Y-143326712D01*
X191359901Y-143339755D01*
X191311338Y-143391469D01*
X191308633Y-143394261D01*
X191288865Y-143414030D01*
X191286487Y-143417093D01*
X191286470Y-143417114D01*
X191286311Y-143417321D01*
X191278753Y-143426168D01*
X191248414Y-143458477D01*
X191238582Y-143476363D01*
X191227901Y-143492623D01*
X191215385Y-143508759D01*
X191197786Y-143549428D01*
X191192648Y-143559917D01*
X191171303Y-143598743D01*
X191166226Y-143618518D01*
X191159925Y-143636923D01*
X191151818Y-143655656D01*
X191144888Y-143699410D01*
X191142520Y-143710846D01*
X191131500Y-143753769D01*
X191131500Y-143774184D01*
X191129973Y-143793583D01*
X191126780Y-143813741D01*
X191130950Y-143857857D01*
X191131500Y-143869526D01*
X191131500Y-144125533D01*
X191111815Y-144192572D01*
X191095181Y-144213214D01*
X190563214Y-144745181D01*
X190501891Y-144778666D01*
X190475533Y-144781500D01*
X184269047Y-144781500D01*
X184202008Y-144761815D01*
X184156253Y-144709011D01*
X184146309Y-144639853D01*
X184155490Y-144607691D01*
X184164296Y-144587616D01*
X184219564Y-144369368D01*
X184238156Y-144145000D01*
X184219564Y-143920632D01*
X184164296Y-143702384D01*
X184073860Y-143496209D01*
X183950722Y-143307732D01*
X183798240Y-143142094D01*
X183620576Y-143003811D01*
X183422574Y-142896658D01*
X183422573Y-142896657D01*
X183422572Y-142896657D01*
X183209636Y-142823556D01*
X182987569Y-142786500D01*
X182762431Y-142786500D01*
X182540363Y-142823556D01*
X182327427Y-142896657D01*
X182129424Y-143003811D01*
X181951760Y-143142094D01*
X181799279Y-143307730D01*
X181676138Y-143496211D01*
X181585705Y-143702381D01*
X181585704Y-143702384D01*
X181543378Y-143869526D01*
X181530435Y-143920636D01*
X181511843Y-144144999D01*
X181530435Y-144369363D01*
X181585704Y-144587615D01*
X181594510Y-144607691D01*
X181603411Y-144676991D01*
X181573434Y-144740103D01*
X181514094Y-144776989D01*
X181480953Y-144781500D01*
X180759934Y-144781500D01*
X180739191Y-144779210D01*
X180668270Y-144781439D01*
X180664375Y-144781500D01*
X180636444Y-144781500D01*
X180632589Y-144781986D01*
X180632555Y-144781989D01*
X180632324Y-144782019D01*
X180620704Y-144782933D01*
X180576410Y-144784325D01*
X180556796Y-144790023D01*
X180537760Y-144793965D01*
X180517506Y-144796525D01*
X180476316Y-144812832D01*
X180465270Y-144816613D01*
X180422708Y-144828979D01*
X180405128Y-144839376D01*
X180387660Y-144847933D01*
X180368847Y-144855382D01*
X180299269Y-144861760D01*
X180237288Y-144829509D01*
X180202582Y-144768868D01*
X180206171Y-144699091D01*
X180210804Y-144687711D01*
X180304284Y-144487243D01*
X180363543Y-144266087D01*
X180383498Y-144038000D01*
X180363543Y-143809913D01*
X180304284Y-143588757D01*
X180218665Y-143405145D01*
X180207525Y-143381255D01*
X180207524Y-143381254D01*
X180207523Y-143381251D01*
X180076198Y-143193700D01*
X179914300Y-143031802D01*
X179726749Y-142900477D01*
X179726746Y-142900476D01*
X179726744Y-142900474D01*
X179519246Y-142803717D01*
X179519243Y-142803716D01*
X179408664Y-142774086D01*
X179298084Y-142744456D01*
X179070000Y-142724501D01*
X178841915Y-142744456D01*
X178620753Y-142803717D01*
X178413255Y-142900474D01*
X178225696Y-143031805D01*
X178063801Y-143193700D01*
X178026074Y-143247580D01*
X177971497Y-143291205D01*
X177901999Y-143298397D01*
X177839644Y-143266874D01*
X177804231Y-143206644D01*
X177800500Y-143176456D01*
X177800500Y-142050145D01*
X177820185Y-141983106D01*
X177872989Y-141937351D01*
X177942147Y-141927407D01*
X178005703Y-141956432D01*
X178012181Y-141962464D01*
X178123745Y-142074028D01*
X178123747Y-142074029D01*
X178123748Y-142074030D01*
X178274662Y-142167115D01*
X178358818Y-142195001D01*
X178442973Y-142222887D01*
X178489002Y-142227589D01*
X178546855Y-142233500D01*
X179897944Y-142233499D01*
X180001826Y-142222887D01*
X180170138Y-142167115D01*
X180321052Y-142074030D01*
X180446430Y-141948652D01*
X180539515Y-141797738D01*
X180595287Y-141629426D01*
X180605900Y-141525545D01*
X180605899Y-140799456D01*
X180600342Y-140745065D01*
X180613111Y-140676376D01*
X180636016Y-140644787D01*
X181580804Y-139699999D01*
X186497751Y-139699999D01*
X186516706Y-139904560D01*
X186572924Y-140102150D01*
X186664496Y-140286049D01*
X186788299Y-140449992D01*
X186940115Y-140588390D01*
X186940117Y-140588391D01*
X186940118Y-140588392D01*
X187114782Y-140696540D01*
X187306345Y-140770751D01*
X187508282Y-140808500D01*
X187508284Y-140808500D01*
X187713716Y-140808500D01*
X187713718Y-140808500D01*
X187915655Y-140770751D01*
X188107218Y-140696540D01*
X188281882Y-140588392D01*
X188433701Y-140449991D01*
X188557503Y-140286050D01*
X188649074Y-140102152D01*
X188649086Y-140102113D01*
X188670207Y-140027874D01*
X188705294Y-139904559D01*
X188724249Y-139700000D01*
X188705294Y-139495441D01*
X188676527Y-139394336D01*
X188649075Y-139297849D01*
X188557503Y-139113950D01*
X188433700Y-138950007D01*
X188281884Y-138811609D01*
X188194550Y-138757534D01*
X188107218Y-138703460D01*
X188107216Y-138703459D01*
X187915655Y-138629249D01*
X187915654Y-138629249D01*
X187713718Y-138591500D01*
X187508282Y-138591500D01*
X187373657Y-138616665D01*
X187306344Y-138629249D01*
X187114783Y-138703459D01*
X186940115Y-138811609D01*
X186788299Y-138950007D01*
X186664496Y-139113950D01*
X186572924Y-139297849D01*
X186516706Y-139495439D01*
X186497751Y-139699999D01*
X181580804Y-139699999D01*
X181713918Y-139566885D01*
X181730197Y-139553844D01*
X181732114Y-139551802D01*
X181732118Y-139551800D01*
X181778791Y-139502095D01*
X181781409Y-139499394D01*
X181801235Y-139479570D01*
X181803760Y-139476313D01*
X181811348Y-139467427D01*
X181841686Y-139435121D01*
X181841688Y-139435117D01*
X181846746Y-139429731D01*
X181906987Y-139394336D01*
X181965527Y-139393908D01*
X182069260Y-139418306D01*
X182158498Y-139424500D01*
X182160638Y-139424500D01*
X183599362Y-139424500D01*
X183601502Y-139424500D01*
X183690740Y-139418306D01*
X183899739Y-139369150D01*
X184096146Y-139282427D01*
X184273275Y-139161092D01*
X184425092Y-139009275D01*
X184546427Y-138832146D01*
X184633150Y-138635739D01*
X184682306Y-138426740D01*
X184688500Y-138337502D01*
X184688500Y-136894498D01*
X184682306Y-136805260D01*
X184633150Y-136596261D01*
X184546427Y-136399854D01*
X184425092Y-136222725D01*
X184273275Y-136070908D01*
X184096146Y-135949573D01*
X183899739Y-135862850D01*
X183899737Y-135862849D01*
X183690739Y-135813693D01*
X183603644Y-135807648D01*
X183603624Y-135807647D01*
X183601502Y-135807500D01*
X183599362Y-135807500D01*
X183305867Y-135807500D01*
X183238828Y-135787815D01*
X183193073Y-135735011D01*
X183183129Y-135665853D01*
X183212154Y-135602297D01*
X183218186Y-135595819D01*
X183245886Y-135568119D01*
X183307209Y-135534634D01*
X183333567Y-135531800D01*
X185105491Y-135531800D01*
X185172530Y-135551485D01*
G37*
%TD.AperFunction*%
%TA.AperFunction,Conductor*%
G36*
X195082840Y-142076476D02*
G01*
X195138773Y-142118348D01*
X195146241Y-142129542D01*
X195153175Y-142141268D01*
X195161731Y-142158733D01*
X195169248Y-142177718D01*
X195195291Y-142213563D01*
X195201705Y-142223327D01*
X195224258Y-142261462D01*
X195238690Y-142275894D01*
X195251326Y-142290689D01*
X195263326Y-142307205D01*
X195297467Y-142335449D01*
X195306108Y-142343312D01*
X195487179Y-142524383D01*
X195520664Y-142585706D01*
X195522856Y-142624666D01*
X195517619Y-142675922D01*
X195517617Y-142675943D01*
X195517300Y-142679055D01*
X195517300Y-142682201D01*
X195517300Y-142682202D01*
X195517300Y-143401995D01*
X195517300Y-143402014D01*
X195517301Y-143405144D01*
X195517620Y-143408275D01*
X195517621Y-143408278D01*
X195527912Y-143509025D01*
X195583684Y-143677336D01*
X195676771Y-143828254D01*
X195802145Y-143953628D01*
X195802147Y-143953629D01*
X195802148Y-143953630D01*
X195953062Y-144046715D01*
X195970047Y-144052343D01*
X196121373Y-144102487D01*
X196167402Y-144107189D01*
X196225255Y-144113100D01*
X197576344Y-144113099D01*
X197680226Y-144102487D01*
X197848538Y-144046715D01*
X197930404Y-143996219D01*
X197997794Y-143977779D01*
X198064457Y-143998701D01*
X198109227Y-144052343D01*
X198119499Y-144101758D01*
X198119500Y-148465500D01*
X198099815Y-148532539D01*
X198047011Y-148578294D01*
X197995500Y-148589500D01*
X177924500Y-148589500D01*
X177857461Y-148569815D01*
X177811706Y-148517011D01*
X177800500Y-148465500D01*
X177800500Y-144899543D01*
X177820185Y-144832504D01*
X177872989Y-144786749D01*
X177942147Y-144776805D01*
X178005703Y-144805830D01*
X178026070Y-144828414D01*
X178063802Y-144882300D01*
X178225700Y-145044198D01*
X178413251Y-145175523D01*
X178620757Y-145272284D01*
X178841913Y-145331543D01*
X178993970Y-145344846D01*
X179069999Y-145351498D01*
X179069999Y-145351497D01*
X179070000Y-145351498D01*
X179298087Y-145331543D01*
X179302057Y-145330479D01*
X179308504Y-145330632D01*
X179308895Y-145330598D01*
X179308898Y-145330641D01*
X179371907Y-145332138D01*
X179429772Y-145371298D01*
X179457279Y-145435525D01*
X179452088Y-145488570D01*
X179419758Y-145588070D01*
X179399796Y-145778000D01*
X179419758Y-145967929D01*
X179478772Y-146149556D01*
X179574257Y-146314941D01*
X179574260Y-146314944D01*
X179702047Y-146456866D01*
X179856547Y-146569117D01*
X179856548Y-146569118D01*
X180031014Y-146646795D01*
X180217811Y-146686500D01*
X180217813Y-146686500D01*
X180408789Y-146686500D01*
X180595585Y-146646795D01*
X180595586Y-146646794D01*
X180595588Y-146646794D01*
X180770052Y-146569118D01*
X180924553Y-146456866D01*
X181052340Y-146314944D01*
X181147827Y-146149556D01*
X181152823Y-146134181D01*
X181192261Y-146076506D01*
X181256620Y-146049308D01*
X181270754Y-146048500D01*
X181480953Y-146048500D01*
X181547992Y-146068185D01*
X181593747Y-146120989D01*
X181603691Y-146190147D01*
X181594510Y-146222309D01*
X181585704Y-146242384D01*
X181530435Y-146460636D01*
X181511843Y-146685000D01*
X181530435Y-146909363D01*
X181585705Y-147127618D01*
X181676138Y-147333788D01*
X181676140Y-147333791D01*
X181799278Y-147522268D01*
X181951760Y-147687906D01*
X182129424Y-147826189D01*
X182327426Y-147933342D01*
X182540365Y-148006444D01*
X182762431Y-148043500D01*
X182987569Y-148043500D01*
X183209635Y-148006444D01*
X183422574Y-147933342D01*
X183620576Y-147826189D01*
X183798240Y-147687906D01*
X183950722Y-147522268D01*
X184073860Y-147333791D01*
X184164296Y-147127616D01*
X184219564Y-146909368D01*
X184238156Y-146685000D01*
X184219564Y-146460632D01*
X184164296Y-146242384D01*
X184155489Y-146222307D01*
X184146589Y-146153009D01*
X184176566Y-146089897D01*
X184235906Y-146053011D01*
X184269047Y-146048500D01*
X190705667Y-146048500D01*
X190726408Y-146050789D01*
X190729205Y-146050701D01*
X190729209Y-146050702D01*
X190797317Y-146048560D01*
X190801213Y-146048500D01*
X190825258Y-146048500D01*
X190829156Y-146048500D01*
X190833024Y-146048011D01*
X190833247Y-146047983D01*
X190844908Y-146047064D01*
X190889189Y-146045673D01*
X190908798Y-146039975D01*
X190927831Y-146036033D01*
X190948097Y-146033474D01*
X190989306Y-146017157D01*
X191000337Y-146013380D01*
X191042893Y-146001018D01*
X191060460Y-145990628D01*
X191077932Y-145982068D01*
X191096917Y-145974552D01*
X191132775Y-145948498D01*
X191142523Y-145942096D01*
X191180662Y-145919542D01*
X191195100Y-145905103D01*
X191209888Y-145892472D01*
X191226407Y-145880472D01*
X191254659Y-145846319D01*
X191262503Y-145837699D01*
X191471644Y-145628558D01*
X191532965Y-145595075D01*
X191602657Y-145600059D01*
X191658590Y-145641931D01*
X191683007Y-145707395D01*
X191682613Y-145729494D01*
X191676853Y-145783070D01*
X191676853Y-145783075D01*
X191676500Y-145786362D01*
X191676500Y-147583638D01*
X191676852Y-147586918D01*
X191676853Y-147586924D01*
X191683011Y-147644205D01*
X191734110Y-147781203D01*
X191821738Y-147898261D01*
X191938796Y-147985889D01*
X192075794Y-148036988D01*
X192075797Y-148036988D01*
X192075799Y-148036989D01*
X192136362Y-148043500D01*
X192139672Y-148043500D01*
X193930328Y-148043500D01*
X193933638Y-148043500D01*
X193994201Y-148036989D01*
X193994203Y-148036988D01*
X193994205Y-148036988D01*
X194076097Y-148006443D01*
X194131204Y-147985889D01*
X194248261Y-147898261D01*
X194335889Y-147781204D01*
X194386989Y-147644201D01*
X194393500Y-147583638D01*
X194393500Y-145786362D01*
X194386989Y-145725799D01*
X194386988Y-145725797D01*
X194386988Y-145725794D01*
X194335889Y-145588796D01*
X194248261Y-145471738D01*
X194131203Y-145384110D01*
X194013405Y-145340173D01*
X193957471Y-145298302D01*
X193933055Y-145232837D01*
X193947907Y-145164564D01*
X193965507Y-145140011D01*
X194110722Y-144982268D01*
X194233860Y-144793791D01*
X194324296Y-144587616D01*
X194379564Y-144369368D01*
X194398156Y-144145000D01*
X194379564Y-143920632D01*
X194324296Y-143702384D01*
X194233860Y-143496209D01*
X194110722Y-143307732D01*
X194017955Y-143206961D01*
X193987033Y-143144309D01*
X193994893Y-143074882D01*
X194021501Y-143035301D01*
X194951827Y-142104975D01*
X195013148Y-142071492D01*
X195082840Y-142076476D01*
G37*
%TD.AperFunction*%
%TA.AperFunction,Conductor*%
G36*
X187205673Y-120250785D02*
G01*
X187226315Y-120267419D01*
X187505387Y-120546491D01*
X187538872Y-120607814D01*
X187541461Y-120626384D01*
X187543955Y-120666013D01*
X187544200Y-120673801D01*
X187544200Y-120689856D01*
X187544687Y-120693714D01*
X187544688Y-120693726D01*
X187546212Y-120705793D01*
X187546943Y-120713535D01*
X187550474Y-120769650D01*
X187553078Y-120777664D01*
X187558169Y-120800435D01*
X187559225Y-120808796D01*
X187579921Y-120861069D01*
X187582558Y-120868395D01*
X187599934Y-120921871D01*
X187599935Y-120921873D01*
X187599936Y-120921875D01*
X187604453Y-120928992D01*
X187615044Y-120949778D01*
X187618147Y-120957616D01*
X187651197Y-121003107D01*
X187655573Y-121009547D01*
X187685699Y-121057017D01*
X187691846Y-121062790D01*
X187707278Y-121080295D01*
X187712226Y-121087105D01*
X187755543Y-121122940D01*
X187761387Y-121128092D01*
X187802379Y-121166586D01*
X187809757Y-121170642D01*
X187829064Y-121183762D01*
X187835557Y-121189134D01*
X187864742Y-121202867D01*
X187886436Y-121213075D01*
X187893359Y-121216602D01*
X187914810Y-121228395D01*
X187942639Y-121243695D01*
X187950796Y-121245789D01*
X187972759Y-121253696D01*
X187980379Y-121257282D01*
X187980380Y-121257282D01*
X187980382Y-121257283D01*
X188020322Y-121264901D01*
X188082485Y-121296799D01*
X188098657Y-121315576D01*
X188223802Y-121494300D01*
X188385700Y-121656198D01*
X188573251Y-121787523D01*
X188613334Y-121806214D01*
X188616345Y-121807618D01*
X188668784Y-121853791D01*
X188687936Y-121920984D01*
X188667720Y-121987865D01*
X188616344Y-122032382D01*
X188573251Y-122052477D01*
X188413092Y-122164622D01*
X188385696Y-122183805D01*
X188223801Y-122345700D01*
X188188574Y-122396010D01*
X188133997Y-122439635D01*
X188064499Y-122446827D01*
X188002144Y-122415305D01*
X187985426Y-122396010D01*
X187950198Y-122345700D01*
X187788303Y-122183805D01*
X187788303Y-122183804D01*
X187788300Y-122183802D01*
X187600749Y-122052477D01*
X187600745Y-122052475D01*
X187600744Y-122052474D01*
X187393246Y-121955717D01*
X187393243Y-121955716D01*
X187259950Y-121920000D01*
X187172084Y-121896456D01*
X186944000Y-121876501D01*
X186715915Y-121896456D01*
X186494753Y-121955717D01*
X186287255Y-122052474D01*
X186099696Y-122183805D01*
X185937805Y-122345696D01*
X185937804Y-122345698D01*
X185937802Y-122345700D01*
X185900075Y-122399580D01*
X185806474Y-122533255D01*
X185709717Y-122740753D01*
X185650456Y-122961915D01*
X185630501Y-123190000D01*
X185650456Y-123418084D01*
X185709717Y-123639246D01*
X185806474Y-123846744D01*
X185806476Y-123846746D01*
X185806477Y-123846749D01*
X185937802Y-124034300D01*
X186099700Y-124196198D01*
X186287251Y-124327523D01*
X186330345Y-124347618D01*
X186382783Y-124393788D01*
X186401936Y-124460981D01*
X186381721Y-124527863D01*
X186330347Y-124572380D01*
X186287254Y-124592475D01*
X186287251Y-124592476D01*
X186287251Y-124592477D01*
X186109532Y-124716918D01*
X186099696Y-124723805D01*
X185937805Y-124885696D01*
X185937802Y-124885699D01*
X185937802Y-124885700D01*
X185900075Y-124939580D01*
X185806474Y-125073255D01*
X185709717Y-125280753D01*
X185650456Y-125501915D01*
X185630501Y-125730000D01*
X185650456Y-125958084D01*
X185650457Y-125958087D01*
X185702457Y-126152154D01*
X185709717Y-126179246D01*
X185806474Y-126386744D01*
X185806476Y-126386746D01*
X185806477Y-126386749D01*
X185937802Y-126574300D01*
X186099700Y-126736198D01*
X186274033Y-126858268D01*
X186317656Y-126912843D01*
X186324221Y-126937803D01*
X186340508Y-126978940D01*
X186346884Y-127048519D01*
X186314630Y-127110498D01*
X186294964Y-127124579D01*
X186296138Y-127126255D01*
X186287254Y-127132475D01*
X186287251Y-127132477D01*
X186099700Y-127263802D01*
X186099696Y-127263805D01*
X185937805Y-127425696D01*
X185806474Y-127613255D01*
X185709717Y-127820753D01*
X185650456Y-128041915D01*
X185633991Y-128230104D01*
X185608538Y-128295173D01*
X185551947Y-128336151D01*
X185482185Y-128340029D01*
X185422782Y-128306977D01*
X184180188Y-127064383D01*
X184167144Y-127048102D01*
X184165100Y-127046183D01*
X184165100Y-127046182D01*
X184115420Y-126999529D01*
X184112646Y-126996841D01*
X184095627Y-126979822D01*
X184092870Y-126977065D01*
X184089586Y-126974517D01*
X184080723Y-126966946D01*
X184048421Y-126936614D01*
X184030533Y-126926780D01*
X184014269Y-126916096D01*
X183998140Y-126903585D01*
X183957477Y-126885989D01*
X183946983Y-126880848D01*
X183908162Y-126859505D01*
X183896486Y-126856507D01*
X183888384Y-126854427D01*
X183869979Y-126848126D01*
X183862351Y-126844825D01*
X183851245Y-126840019D01*
X183851243Y-126840018D01*
X183851242Y-126840018D01*
X183807483Y-126833087D01*
X183796043Y-126830718D01*
X183753131Y-126819700D01*
X183753130Y-126819700D01*
X183732716Y-126819700D01*
X183713317Y-126818173D01*
X183693158Y-126814980D01*
X183693157Y-126814980D01*
X183660418Y-126818074D01*
X183649043Y-126819150D01*
X183637374Y-126819700D01*
X182769466Y-126819700D01*
X182702427Y-126800015D01*
X182681785Y-126783381D01*
X181747419Y-125849014D01*
X181713934Y-125787691D01*
X181711100Y-125761333D01*
X181711100Y-124250616D01*
X181730785Y-124183577D01*
X181783589Y-124137822D01*
X181852747Y-124127878D01*
X181863490Y-124129910D01*
X182037121Y-124170747D01*
X182069260Y-124178306D01*
X182158498Y-124184500D01*
X182160638Y-124184500D01*
X183599362Y-124184500D01*
X183601502Y-124184500D01*
X183690740Y-124178306D01*
X183899739Y-124129150D01*
X184096146Y-124042427D01*
X184273275Y-123921092D01*
X184425092Y-123769275D01*
X184546427Y-123592146D01*
X184633150Y-123395739D01*
X184682306Y-123186740D01*
X184688500Y-123097502D01*
X184688500Y-121654498D01*
X184682306Y-121565260D01*
X184633150Y-121356261D01*
X184546427Y-121159854D01*
X184425092Y-120982725D01*
X184273275Y-120830908D01*
X184096146Y-120709573D01*
X184007512Y-120670437D01*
X183899737Y-120622849D01*
X183690739Y-120573693D01*
X183603644Y-120567648D01*
X183603624Y-120567647D01*
X183601502Y-120567500D01*
X183599362Y-120567500D01*
X183307766Y-120567500D01*
X183240727Y-120547815D01*
X183194972Y-120495011D01*
X183185028Y-120425853D01*
X183214053Y-120362297D01*
X183220085Y-120355819D01*
X183308485Y-120267419D01*
X183369808Y-120233934D01*
X183396166Y-120231100D01*
X187138634Y-120231100D01*
X187205673Y-120250785D01*
G37*
%TD.AperFunction*%
%TA.AperFunction,Conductor*%
G36*
X194299976Y-124102313D02*
G01*
X194337007Y-124161562D01*
X194341600Y-124194996D01*
X194341600Y-125638533D01*
X194321915Y-125705572D01*
X194305281Y-125726214D01*
X193326414Y-126705081D01*
X193265091Y-126738566D01*
X193238733Y-126741400D01*
X192424934Y-126741400D01*
X192404191Y-126739110D01*
X192333270Y-126741339D01*
X192329375Y-126741400D01*
X192301444Y-126741400D01*
X192297589Y-126741886D01*
X192297555Y-126741889D01*
X192297324Y-126741919D01*
X192285704Y-126742833D01*
X192241410Y-126744225D01*
X192221796Y-126749923D01*
X192202760Y-126753865D01*
X192182506Y-126756425D01*
X192141316Y-126772732D01*
X192130270Y-126776513D01*
X192087707Y-126788879D01*
X192070128Y-126799276D01*
X192052664Y-126807832D01*
X192043920Y-126811294D01*
X192033682Y-126815348D01*
X191997839Y-126841389D01*
X191988082Y-126847798D01*
X191949938Y-126870357D01*
X191935500Y-126884795D01*
X191920711Y-126897425D01*
X191904194Y-126909425D01*
X191875944Y-126943573D01*
X191868083Y-126952211D01*
X191060682Y-127759612D01*
X191044401Y-127772655D01*
X190995838Y-127824369D01*
X190993133Y-127827161D01*
X190973365Y-127846930D01*
X190970987Y-127849993D01*
X190970970Y-127850014D01*
X190970811Y-127850221D01*
X190963253Y-127859068D01*
X190932914Y-127891377D01*
X190923082Y-127909263D01*
X190912401Y-127925523D01*
X190899885Y-127941659D01*
X190882286Y-127982328D01*
X190877148Y-127992817D01*
X190855803Y-128031643D01*
X190850726Y-128051418D01*
X190844425Y-128069823D01*
X190836318Y-128088556D01*
X190829388Y-128132310D01*
X190827020Y-128143746D01*
X190816000Y-128186669D01*
X190816000Y-128207084D01*
X190814473Y-128226483D01*
X190811279Y-128246642D01*
X190815449Y-128290754D01*
X190815999Y-128302422D01*
X190815999Y-130264767D01*
X190813710Y-130285507D01*
X190815939Y-130356416D01*
X190816000Y-130360312D01*
X190816000Y-130388256D01*
X190816487Y-130392116D01*
X190816488Y-130392122D01*
X190816519Y-130392365D01*
X190817434Y-130403996D01*
X190818826Y-130448288D01*
X190824522Y-130467892D01*
X190828467Y-130486944D01*
X190831025Y-130507198D01*
X190847338Y-130548401D01*
X190851121Y-130559449D01*
X190863482Y-130601993D01*
X190873874Y-130619566D01*
X190882431Y-130637033D01*
X190889948Y-130656018D01*
X190915991Y-130691863D01*
X190922405Y-130701627D01*
X190944958Y-130739762D01*
X190959390Y-130754194D01*
X190972026Y-130768989D01*
X190984026Y-130785505D01*
X191018167Y-130813749D01*
X191026808Y-130821612D01*
X191379838Y-131174642D01*
X191413323Y-131235965D01*
X191410623Y-131286976D01*
X191411493Y-131287065D01*
X191399819Y-131401324D01*
X191399818Y-131401341D01*
X191399500Y-131404455D01*
X191399500Y-131407601D01*
X191399500Y-131407602D01*
X191399500Y-132752395D01*
X191399500Y-132752414D01*
X191399501Y-132755544D01*
X191399820Y-132758675D01*
X191399821Y-132758678D01*
X191410112Y-132859425D01*
X191465884Y-133027736D01*
X191558971Y-133178654D01*
X191684345Y-133304028D01*
X191684347Y-133304029D01*
X191684348Y-133304030D01*
X191835262Y-133397115D01*
X191919417Y-133425001D01*
X192003573Y-133452887D01*
X192049602Y-133457589D01*
X192107455Y-133463500D01*
X192528900Y-133463499D01*
X192595939Y-133483183D01*
X192641694Y-133535987D01*
X192652900Y-133587499D01*
X192652900Y-134926300D01*
X192633215Y-134993339D01*
X192580411Y-135039094D01*
X192528900Y-135050300D01*
X191159600Y-135050300D01*
X191092561Y-135030615D01*
X191046806Y-134977811D01*
X191035600Y-134926300D01*
X191035600Y-133020227D01*
X191037889Y-132999494D01*
X191035661Y-132928599D01*
X191035600Y-132924704D01*
X191035600Y-132900635D01*
X191035600Y-132896744D01*
X191035082Y-132892643D01*
X191034164Y-132880987D01*
X191032773Y-132836710D01*
X191027078Y-132817111D01*
X191023133Y-132798062D01*
X191020574Y-132777803D01*
X191010051Y-132751226D01*
X191004262Y-132736604D01*
X191000477Y-132725550D01*
X190988118Y-132683007D01*
X190985107Y-132677916D01*
X190977724Y-132665431D01*
X190969164Y-132647957D01*
X190961652Y-132628984D01*
X190961652Y-132628983D01*
X190935610Y-132593140D01*
X190929195Y-132583373D01*
X190906644Y-132545239D01*
X190901045Y-132539640D01*
X190892201Y-132530796D01*
X190879569Y-132516005D01*
X190867574Y-132499495D01*
X190867572Y-132499493D01*
X190833424Y-132471243D01*
X190824796Y-132463391D01*
X190652818Y-132291413D01*
X190619333Y-132230090D01*
X190616499Y-132203732D01*
X190616499Y-131836523D01*
X190616499Y-131404456D01*
X190605887Y-131300574D01*
X190550115Y-131132262D01*
X190457030Y-130981348D01*
X190457029Y-130981347D01*
X190457028Y-130981345D01*
X190331654Y-130855971D01*
X190217414Y-130785507D01*
X190180738Y-130762885D01*
X190180737Y-130762884D01*
X190180736Y-130762884D01*
X190012426Y-130707112D01*
X189911675Y-130696819D01*
X189911659Y-130696818D01*
X189908545Y-130696500D01*
X189905397Y-130696500D01*
X189185604Y-130696500D01*
X189185584Y-130696500D01*
X189182456Y-130696501D01*
X189179325Y-130696820D01*
X189179321Y-130696821D01*
X189078574Y-130707112D01*
X188910263Y-130762884D01*
X188873589Y-130785505D01*
X188818896Y-130819240D01*
X188751504Y-130837680D01*
X188684841Y-130816757D01*
X188640071Y-130763115D01*
X188629800Y-130713701D01*
X188629800Y-129702500D01*
X188649485Y-129635461D01*
X188702289Y-129589706D01*
X188753800Y-129578500D01*
X190075328Y-129578500D01*
X190078638Y-129578500D01*
X190139201Y-129571989D01*
X190139203Y-129571988D01*
X190139205Y-129571988D01*
X190230741Y-129537846D01*
X190276204Y-129520889D01*
X190393261Y-129433261D01*
X190480889Y-129316204D01*
X190531989Y-129179201D01*
X190538500Y-129118638D01*
X190538500Y-127421362D01*
X190531989Y-127360799D01*
X190531988Y-127360797D01*
X190531988Y-127360794D01*
X190480889Y-127223796D01*
X190393261Y-127106738D01*
X190276203Y-127019110D01*
X190139201Y-126968010D01*
X190124498Y-126966429D01*
X190059948Y-126939690D01*
X190020101Y-126882297D01*
X190017608Y-126812471D01*
X190053262Y-126752383D01*
X190066628Y-126741569D01*
X190074300Y-126736198D01*
X190236198Y-126574300D01*
X190358268Y-126399966D01*
X190412843Y-126356344D01*
X190437802Y-126349779D01*
X190493366Y-126327779D01*
X190500672Y-126325147D01*
X190554175Y-126307764D01*
X190561289Y-126303248D01*
X190582080Y-126292654D01*
X190589917Y-126289552D01*
X190635404Y-126256502D01*
X190641843Y-126252128D01*
X190644001Y-126250757D01*
X190689318Y-126222000D01*
X190695087Y-126215856D01*
X190712590Y-126200424D01*
X190719407Y-126195472D01*
X190755253Y-126152139D01*
X190760382Y-126146322D01*
X190798886Y-126105321D01*
X190802945Y-126097935D01*
X190816062Y-126078635D01*
X190821433Y-126072144D01*
X190845375Y-126021262D01*
X190848895Y-126014353D01*
X190875995Y-125965060D01*
X190878089Y-125956900D01*
X190885994Y-125934943D01*
X190889583Y-125927318D01*
X190900121Y-125872072D01*
X190901809Y-125864515D01*
X190915800Y-125810030D01*
X190915800Y-125801605D01*
X190917996Y-125778371D01*
X190919575Y-125770092D01*
X190916045Y-125713983D01*
X190915800Y-125706197D01*
X190915800Y-125046066D01*
X190935485Y-124979027D01*
X190952119Y-124958385D01*
X191039885Y-124870619D01*
X191101208Y-124837134D01*
X191127566Y-124834300D01*
X191184289Y-124834300D01*
X191371085Y-124794595D01*
X191371086Y-124794594D01*
X191371088Y-124794594D01*
X191545552Y-124716918D01*
X191700053Y-124604666D01*
X191827840Y-124462744D01*
X191829425Y-124460000D01*
X191923327Y-124297356D01*
X191945725Y-124228422D01*
X191985162Y-124170747D01*
X192049521Y-124143548D01*
X192092046Y-124146034D01*
X192175220Y-124165595D01*
X192229260Y-124178306D01*
X192318498Y-124184500D01*
X192320638Y-124184500D01*
X193759362Y-124184500D01*
X193761502Y-124184500D01*
X193850740Y-124178306D01*
X194059739Y-124129150D01*
X194167515Y-124081561D01*
X194236791Y-124072490D01*
X194299976Y-124102313D01*
G37*
%TD.AperFunction*%
%TA.AperFunction,Conductor*%
G36*
X178005703Y-98797831D02*
G01*
X178012167Y-98803849D01*
X178123748Y-98915430D01*
X178274662Y-99008515D01*
X178358818Y-99036401D01*
X178442973Y-99064287D01*
X178489002Y-99068989D01*
X178546855Y-99074900D01*
X179346133Y-99074899D01*
X179413172Y-99094583D01*
X179433814Y-99111218D01*
X179986381Y-99663785D01*
X180019866Y-99725108D01*
X180022700Y-99751466D01*
X180022700Y-100782067D01*
X180020410Y-100802808D01*
X180022639Y-100873716D01*
X180022700Y-100877612D01*
X180022700Y-100905556D01*
X180023187Y-100909416D01*
X180023188Y-100909422D01*
X180023219Y-100909665D01*
X180024134Y-100921296D01*
X180025526Y-100965588D01*
X180031222Y-100985192D01*
X180035167Y-101004244D01*
X180037725Y-101024498D01*
X180054038Y-101065701D01*
X180057821Y-101076749D01*
X180070182Y-101119293D01*
X180080574Y-101136866D01*
X180089131Y-101154333D01*
X180096648Y-101173318D01*
X180122691Y-101209163D01*
X180129105Y-101218927D01*
X180151658Y-101257062D01*
X180166090Y-101271494D01*
X180178726Y-101286289D01*
X180190726Y-101302805D01*
X180224867Y-101331049D01*
X180233508Y-101338912D01*
X182131694Y-103237099D01*
X182165179Y-103298422D01*
X182160195Y-103368114D01*
X182118323Y-103424047D01*
X182109110Y-103430319D01*
X181959545Y-103522571D01*
X181834171Y-103647945D01*
X181741084Y-103798863D01*
X181685312Y-103967173D01*
X181675019Y-104067924D01*
X181675018Y-104067941D01*
X181674700Y-104071055D01*
X181674700Y-104074201D01*
X181674700Y-104074202D01*
X181674700Y-104818995D01*
X181674700Y-104819014D01*
X181674701Y-104822144D01*
X181675020Y-104825275D01*
X181675021Y-104825278D01*
X181685312Y-104926025D01*
X181741084Y-105094336D01*
X181741085Y-105094338D01*
X181797532Y-105185853D01*
X181831781Y-105241379D01*
X181850221Y-105308772D01*
X181829298Y-105375435D01*
X181776329Y-105419910D01*
X181663853Y-105469573D01*
X181486724Y-105590908D01*
X181334908Y-105742724D01*
X181213573Y-105919853D01*
X181126849Y-106116262D01*
X181077693Y-106325260D01*
X181071648Y-106412355D01*
X181071647Y-106412376D01*
X181071500Y-106414498D01*
X181071500Y-107857502D01*
X181071647Y-107859624D01*
X181071648Y-107859644D01*
X181077693Y-107946739D01*
X181126849Y-108155737D01*
X181156171Y-108222144D01*
X181213573Y-108352146D01*
X181334908Y-108529275D01*
X181486725Y-108681092D01*
X181663854Y-108802427D01*
X181860261Y-108889150D01*
X182069260Y-108938306D01*
X182158498Y-108944500D01*
X182160638Y-108944500D01*
X183599362Y-108944500D01*
X183601502Y-108944500D01*
X183690740Y-108938306D01*
X183773853Y-108918758D01*
X183906310Y-108887605D01*
X183976076Y-108891418D01*
X184032705Y-108932343D01*
X184058218Y-108997388D01*
X184058700Y-109008311D01*
X184058700Y-110500833D01*
X184039015Y-110567872D01*
X184022381Y-110588514D01*
X183262214Y-111348681D01*
X183200891Y-111382166D01*
X183174533Y-111385000D01*
X182398534Y-111385000D01*
X182377791Y-111382710D01*
X182306870Y-111384939D01*
X182302975Y-111385000D01*
X182275044Y-111385000D01*
X182271189Y-111385486D01*
X182271155Y-111385489D01*
X182270924Y-111385519D01*
X182259304Y-111386433D01*
X182215010Y-111387825D01*
X182195396Y-111393523D01*
X182176360Y-111397465D01*
X182156106Y-111400025D01*
X182114916Y-111416332D01*
X182103870Y-111420113D01*
X182061307Y-111432479D01*
X182043728Y-111442876D01*
X182026264Y-111451432D01*
X182017520Y-111454894D01*
X182007282Y-111458948D01*
X181971439Y-111484989D01*
X181961682Y-111491398D01*
X181923538Y-111513957D01*
X181909100Y-111528395D01*
X181894311Y-111541025D01*
X181877794Y-111553025D01*
X181849544Y-111587173D01*
X181841683Y-111595811D01*
X180925529Y-112511965D01*
X180864206Y-112545450D01*
X180794514Y-112540466D01*
X180752964Y-112514675D01*
X180751621Y-112513414D01*
X180744233Y-112509352D01*
X180724934Y-112496236D01*
X180718444Y-112490867D01*
X180667563Y-112466924D01*
X180660638Y-112463395D01*
X180640062Y-112452084D01*
X180611358Y-112436303D01*
X180603196Y-112434208D01*
X180581247Y-112426306D01*
X180573619Y-112422717D01*
X180533675Y-112415097D01*
X180471512Y-112383199D01*
X180455342Y-112364424D01*
X180330198Y-112185700D01*
X180168300Y-112023802D01*
X179980749Y-111892477D01*
X179980746Y-111892476D01*
X179980744Y-111892474D01*
X179773246Y-111795717D01*
X179773243Y-111795716D01*
X179597603Y-111748653D01*
X179552084Y-111736456D01*
X179324000Y-111716501D01*
X179095911Y-111736456D01*
X179050392Y-111748653D01*
X178980542Y-111746990D01*
X178922680Y-111707827D01*
X178895177Y-111643598D01*
X178894300Y-111628878D01*
X178894300Y-111572699D01*
X178913985Y-111505660D01*
X178966789Y-111459905D01*
X179018300Y-111448699D01*
X179793195Y-111448699D01*
X179796344Y-111448699D01*
X179900226Y-111438087D01*
X180068538Y-111382315D01*
X180219452Y-111289230D01*
X180344830Y-111163852D01*
X180437915Y-111012938D01*
X180493687Y-110844626D01*
X180504300Y-110740745D01*
X180504299Y-110014656D01*
X180493687Y-109910774D01*
X180437915Y-109742462D01*
X180344830Y-109591548D01*
X180344829Y-109591547D01*
X180344828Y-109591545D01*
X180219454Y-109466171D01*
X180068536Y-109373084D01*
X179918521Y-109323375D01*
X179861076Y-109283603D01*
X179834253Y-109219087D01*
X179846568Y-109150311D01*
X179853451Y-109140204D01*
X179853324Y-109140131D01*
X179955327Y-108963456D01*
X179964279Y-108935904D01*
X180014342Y-108781828D01*
X180034304Y-108591900D01*
X180031255Y-108562896D01*
X180043824Y-108494169D01*
X180089478Y-108444398D01*
X180219452Y-108364230D01*
X180344830Y-108238852D01*
X180437915Y-108087938D01*
X180493687Y-107919626D01*
X180504300Y-107815745D01*
X180504299Y-107089656D01*
X180493687Y-106985774D01*
X180437915Y-106817462D01*
X180344830Y-106666548D01*
X180344828Y-106666546D01*
X180344827Y-106666544D01*
X180318963Y-106640679D01*
X180285478Y-106579355D01*
X180290464Y-106509664D01*
X180318965Y-106465317D01*
X180344828Y-106439454D01*
X180344828Y-106439453D01*
X180344830Y-106439452D01*
X180437915Y-106288538D01*
X180493687Y-106120226D01*
X180504300Y-106016345D01*
X180504299Y-105290256D01*
X180493687Y-105186374D01*
X180437915Y-105018062D01*
X180344830Y-104867148D01*
X180344829Y-104867147D01*
X180344828Y-104867145D01*
X180219454Y-104741771D01*
X180107798Y-104672901D01*
X180068538Y-104648685D01*
X180068537Y-104648684D01*
X180068536Y-104648684D01*
X179900226Y-104592912D01*
X179799475Y-104582619D01*
X179799459Y-104582618D01*
X179796345Y-104582300D01*
X179793197Y-104582300D01*
X178448404Y-104582300D01*
X178448384Y-104582300D01*
X178445256Y-104582301D01*
X178442125Y-104582620D01*
X178442121Y-104582621D01*
X178341374Y-104592912D01*
X178173063Y-104648684D01*
X178022145Y-104741771D01*
X178012181Y-104751736D01*
X177950858Y-104785221D01*
X177881166Y-104780237D01*
X177825233Y-104738365D01*
X177800816Y-104672901D01*
X177800500Y-104664055D01*
X177800500Y-98891544D01*
X177820185Y-98824505D01*
X177872989Y-98778750D01*
X177942147Y-98768806D01*
X178005703Y-98797831D01*
G37*
%TD.AperFunction*%
%TA.AperFunction,Conductor*%
G36*
X194950773Y-104818885D02*
G01*
X194971415Y-104835519D01*
X195564938Y-105429042D01*
X195598423Y-105490365D01*
X195600615Y-105529325D01*
X195594219Y-105591922D01*
X195594217Y-105591943D01*
X195593900Y-105595055D01*
X195593900Y-105598201D01*
X195593900Y-105598202D01*
X195593900Y-106342995D01*
X195593900Y-106343014D01*
X195593901Y-106346144D01*
X195594220Y-106349275D01*
X195594221Y-106349278D01*
X195604512Y-106450025D01*
X195660284Y-106618336D01*
X195753371Y-106769254D01*
X195779235Y-106795117D01*
X195812721Y-106856439D01*
X195807737Y-106926131D01*
X195779237Y-106970480D01*
X195676770Y-107072947D01*
X195583684Y-107223863D01*
X195527912Y-107392173D01*
X195517619Y-107492924D01*
X195517618Y-107492941D01*
X195517300Y-107496055D01*
X195517300Y-107499201D01*
X195517300Y-107499202D01*
X195517300Y-108218995D01*
X195517300Y-108219014D01*
X195517301Y-108222144D01*
X195517619Y-108225257D01*
X195517620Y-108225276D01*
X195522857Y-108276530D01*
X195510088Y-108345223D01*
X195487180Y-108376813D01*
X195368180Y-108495813D01*
X195351896Y-108508861D01*
X195303339Y-108560568D01*
X195300634Y-108563360D01*
X195280865Y-108583130D01*
X195278487Y-108586193D01*
X195278470Y-108586214D01*
X195278311Y-108586421D01*
X195270753Y-108595268D01*
X195240414Y-108627577D01*
X195230582Y-108645463D01*
X195219901Y-108661723D01*
X195207385Y-108677859D01*
X195189786Y-108718528D01*
X195184648Y-108729017D01*
X195163303Y-108767843D01*
X195158226Y-108787618D01*
X195151925Y-108806023D01*
X195143818Y-108824756D01*
X195136888Y-108868510D01*
X195134520Y-108879946D01*
X195123500Y-108922869D01*
X195123500Y-108943284D01*
X195121972Y-108962683D01*
X195118780Y-108982843D01*
X195122332Y-109020427D01*
X195122950Y-109026957D01*
X195123500Y-109038626D01*
X195123500Y-113812792D01*
X195103815Y-113879831D01*
X195051011Y-113925586D01*
X195025281Y-113934082D01*
X194998281Y-113939821D01*
X194928614Y-113934505D01*
X194872880Y-113892368D01*
X194848775Y-113826788D01*
X194848500Y-113818531D01*
X194848500Y-113356638D01*
X194848500Y-113356637D01*
X194848500Y-113354498D01*
X194842306Y-113265260D01*
X194793150Y-113056261D01*
X194706427Y-112859854D01*
X194585092Y-112682725D01*
X194433275Y-112530908D01*
X194256146Y-112409573D01*
X194059739Y-112322850D01*
X194059737Y-112322849D01*
X193850739Y-112273693D01*
X193763644Y-112267648D01*
X193763624Y-112267647D01*
X193761502Y-112267500D01*
X192318498Y-112267500D01*
X192316376Y-112267647D01*
X192316355Y-112267648D01*
X192229260Y-112273693D01*
X192020262Y-112322849D01*
X191823853Y-112409573D01*
X191646724Y-112530908D01*
X191494908Y-112682724D01*
X191373573Y-112859853D01*
X191286849Y-113056262D01*
X191237693Y-113265260D01*
X191231648Y-113352355D01*
X191231647Y-113352376D01*
X191231500Y-113354498D01*
X191231500Y-114797502D01*
X191231647Y-114799624D01*
X191231648Y-114799644D01*
X191237693Y-114886739D01*
X191286849Y-115095737D01*
X191286850Y-115095739D01*
X191373573Y-115292146D01*
X191494908Y-115469275D01*
X191646725Y-115621092D01*
X191823854Y-115742427D01*
X192020261Y-115829150D01*
X192229260Y-115878306D01*
X192318498Y-115884500D01*
X192320638Y-115884500D01*
X193759362Y-115884500D01*
X193761502Y-115884500D01*
X193850740Y-115878306D01*
X194059739Y-115829150D01*
X194167515Y-115781561D01*
X194236791Y-115772490D01*
X194299976Y-115802313D01*
X194337007Y-115861562D01*
X194341600Y-115894996D01*
X194341600Y-120557003D01*
X194321915Y-120624042D01*
X194269111Y-120669797D01*
X194199953Y-120679741D01*
X194167513Y-120670437D01*
X194059737Y-120622849D01*
X193850739Y-120573693D01*
X193763644Y-120567648D01*
X193763624Y-120567647D01*
X193761502Y-120567500D01*
X192318498Y-120567500D01*
X192316376Y-120567647D01*
X192316355Y-120567648D01*
X192229260Y-120573693D01*
X192020262Y-120622849D01*
X191823853Y-120709573D01*
X191646724Y-120830908D01*
X191494908Y-120982724D01*
X191373573Y-121159853D01*
X191286849Y-121356262D01*
X191237693Y-121565260D01*
X191231648Y-121652355D01*
X191231647Y-121652376D01*
X191231500Y-121654498D01*
X191231500Y-121656637D01*
X191231500Y-121656638D01*
X191231500Y-122893300D01*
X191211815Y-122960339D01*
X191159011Y-123006094D01*
X191107500Y-123017300D01*
X190993311Y-123017300D01*
X190806514Y-123057004D01*
X190700971Y-123103995D01*
X190631721Y-123113279D01*
X190568444Y-123083650D01*
X190531232Y-123024515D01*
X190527008Y-123001520D01*
X190523543Y-122961915D01*
X190523543Y-122961913D01*
X190464284Y-122740757D01*
X190367523Y-122533251D01*
X190236198Y-122345700D01*
X190074300Y-122183802D01*
X189886749Y-122052477D01*
X189843655Y-122032382D01*
X189791215Y-121986210D01*
X189772063Y-121919017D01*
X189792278Y-121852136D01*
X189843655Y-121807618D01*
X189846882Y-121806112D01*
X189886749Y-121787523D01*
X190074300Y-121656198D01*
X190236198Y-121494300D01*
X190367523Y-121306749D01*
X190464284Y-121099243D01*
X190523543Y-120878087D01*
X190543498Y-120650000D01*
X190523543Y-120421913D01*
X190464284Y-120200757D01*
X190419621Y-120104977D01*
X190373237Y-120005504D01*
X190362745Y-119936427D01*
X190391265Y-119872643D01*
X190449742Y-119834404D01*
X190485619Y-119829100D01*
X192338167Y-119829100D01*
X192358908Y-119831389D01*
X192361705Y-119831301D01*
X192361709Y-119831302D01*
X192429817Y-119829160D01*
X192433713Y-119829100D01*
X192457758Y-119829100D01*
X192461656Y-119829100D01*
X192465524Y-119828611D01*
X192465747Y-119828583D01*
X192477408Y-119827664D01*
X192521689Y-119826273D01*
X192541298Y-119820575D01*
X192560331Y-119816633D01*
X192580597Y-119814074D01*
X192621806Y-119797757D01*
X192632837Y-119793980D01*
X192675393Y-119781618D01*
X192692960Y-119771228D01*
X192710432Y-119762668D01*
X192729417Y-119755152D01*
X192765275Y-119729098D01*
X192775023Y-119722696D01*
X192813162Y-119700142D01*
X192827600Y-119685703D01*
X192842388Y-119673072D01*
X192858907Y-119661072D01*
X192872648Y-119644460D01*
X192930548Y-119605353D01*
X192968193Y-119599500D01*
X193021889Y-119599500D01*
X193208685Y-119559795D01*
X193208686Y-119559794D01*
X193208688Y-119559794D01*
X193383152Y-119482118D01*
X193537653Y-119369866D01*
X193665440Y-119227944D01*
X193760927Y-119062556D01*
X193819942Y-118880928D01*
X193839904Y-118691000D01*
X193819942Y-118501072D01*
X193789053Y-118406006D01*
X193760927Y-118319443D01*
X193665442Y-118154058D01*
X193625771Y-118109999D01*
X193537653Y-118012134D01*
X193396803Y-117909800D01*
X193383151Y-117899881D01*
X193208685Y-117822204D01*
X193021889Y-117782500D01*
X193021887Y-117782500D01*
X192830913Y-117782500D01*
X192830911Y-117782500D01*
X192644114Y-117822204D01*
X192469648Y-117899881D01*
X192315148Y-118012133D01*
X192187357Y-118154058D01*
X192091872Y-118319443D01*
X192055637Y-118430966D01*
X192041052Y-118475856D01*
X192040869Y-118476418D01*
X192001432Y-118534093D01*
X191937073Y-118561292D01*
X191922938Y-118562100D01*
X190625119Y-118562100D01*
X190558080Y-118542415D01*
X190512325Y-118489611D01*
X190502381Y-118420453D01*
X190505344Y-118406006D01*
X190523543Y-118338087D01*
X190543498Y-118110000D01*
X190523543Y-117881913D01*
X190464284Y-117660757D01*
X190367523Y-117453251D01*
X190236198Y-117265700D01*
X190074300Y-117103802D01*
X189886749Y-116972477D01*
X189843655Y-116952382D01*
X189791215Y-116906210D01*
X189772063Y-116839017D01*
X189792278Y-116772136D01*
X189843655Y-116727618D01*
X189846882Y-116726112D01*
X189886749Y-116707523D01*
X190074300Y-116576198D01*
X190236198Y-116414300D01*
X190367523Y-116226749D01*
X190464284Y-116019243D01*
X190523543Y-115798087D01*
X190543498Y-115570000D01*
X190523543Y-115341913D01*
X190464284Y-115120757D01*
X190367523Y-114913251D01*
X190236198Y-114725700D01*
X190074300Y-114563802D01*
X190074299Y-114563801D01*
X189899968Y-114441732D01*
X189856343Y-114387155D01*
X189849779Y-114362199D01*
X189848474Y-114358903D01*
X189833491Y-114321062D01*
X189827114Y-114251486D01*
X189859365Y-114189505D01*
X189879075Y-114175479D01*
X189877861Y-114173746D01*
X189886746Y-114167524D01*
X189886749Y-114167523D01*
X190074300Y-114036198D01*
X190236198Y-113874300D01*
X190367523Y-113686749D01*
X190464284Y-113479243D01*
X190523543Y-113258087D01*
X190543498Y-113030000D01*
X190523543Y-112801913D01*
X190464284Y-112580757D01*
X190380545Y-112401176D01*
X190367525Y-112373255D01*
X190367524Y-112373254D01*
X190367523Y-112373251D01*
X190236198Y-112185700D01*
X190074300Y-112023802D01*
X190074299Y-112023801D01*
X189899967Y-111901731D01*
X189856342Y-111847154D01*
X189849778Y-111822198D01*
X189848474Y-111818905D01*
X189848474Y-111818903D01*
X189832164Y-111777709D01*
X189828380Y-111766656D01*
X189819606Y-111736457D01*
X189816018Y-111724107D01*
X189805622Y-111706529D01*
X189797069Y-111689071D01*
X189789552Y-111670083D01*
X189789550Y-111670081D01*
X189789180Y-111669145D01*
X189782804Y-111599567D01*
X189815058Y-111537587D01*
X189875700Y-111502884D01*
X189904473Y-111499499D01*
X190765995Y-111499499D01*
X190769144Y-111499499D01*
X190873026Y-111488887D01*
X191041338Y-111433115D01*
X191192252Y-111340030D01*
X191317630Y-111214652D01*
X191410715Y-111063738D01*
X191466487Y-110895426D01*
X191477100Y-110791545D01*
X191477099Y-110065456D01*
X191471542Y-110011063D01*
X191484311Y-109942374D01*
X191507216Y-109910786D01*
X191610716Y-109807286D01*
X191626997Y-109794244D01*
X191628914Y-109792202D01*
X191628918Y-109792200D01*
X191675624Y-109742462D01*
X191678224Y-109739778D01*
X191698034Y-109719970D01*
X191700564Y-109716708D01*
X191708143Y-109707832D01*
X191738486Y-109675521D01*
X191748322Y-109657627D01*
X191759002Y-109641368D01*
X191771513Y-109625241D01*
X191789111Y-109584572D01*
X191794241Y-109574100D01*
X191815595Y-109535260D01*
X191820672Y-109515482D01*
X191826972Y-109497082D01*
X191835081Y-109478345D01*
X191842012Y-109434576D01*
X191844382Y-109423140D01*
X191855400Y-109380232D01*
X191855399Y-109359823D01*
X191856925Y-109340423D01*
X191860120Y-109320257D01*
X191855950Y-109276142D01*
X191855400Y-109264473D01*
X191855400Y-109006658D01*
X191875085Y-108939619D01*
X191927889Y-108893864D01*
X191997047Y-108883920D01*
X192008888Y-108887316D01*
X192009076Y-108886520D01*
X192206415Y-108932933D01*
X192229260Y-108938306D01*
X192318498Y-108944500D01*
X192320638Y-108944500D01*
X193759362Y-108944500D01*
X193761502Y-108944500D01*
X193850740Y-108938306D01*
X194059739Y-108889150D01*
X194256146Y-108802427D01*
X194433275Y-108681092D01*
X194585092Y-108529275D01*
X194706427Y-108352146D01*
X194793150Y-108155739D01*
X194842306Y-107946740D01*
X194848500Y-107857502D01*
X194848500Y-106414498D01*
X194842306Y-106325260D01*
X194793150Y-106116261D01*
X194706427Y-105919854D01*
X194585092Y-105742725D01*
X194433275Y-105590908D01*
X194256146Y-105469573D01*
X194059739Y-105382850D01*
X194059737Y-105382849D01*
X193850739Y-105333693D01*
X193763644Y-105327648D01*
X193763624Y-105327647D01*
X193761502Y-105327500D01*
X193759362Y-105327500D01*
X192621129Y-105327500D01*
X192554090Y-105307815D01*
X192508335Y-105255011D01*
X192498391Y-105185853D01*
X192503198Y-105165182D01*
X192526217Y-105094338D01*
X192549842Y-105021628D01*
X192561549Y-104910236D01*
X192588134Y-104845624D01*
X192645431Y-104805639D01*
X192684870Y-104799200D01*
X194883734Y-104799200D01*
X194950773Y-104818885D01*
G37*
%TD.AperFunction*%
%TA.AperFunction,Conductor*%
G36*
X188225759Y-106752908D02*
G01*
X188270529Y-106806550D01*
X188280800Y-106855965D01*
X188280800Y-107650200D01*
X188261115Y-107717239D01*
X188208311Y-107762994D01*
X188156800Y-107774200D01*
X188145333Y-107774200D01*
X188124591Y-107771910D01*
X188121791Y-107771998D01*
X188053683Y-107774139D01*
X188049787Y-107774200D01*
X188021844Y-107774200D01*
X188017977Y-107774688D01*
X188017968Y-107774689D01*
X188017732Y-107774719D01*
X188006105Y-107775634D01*
X187961810Y-107777026D01*
X187942207Y-107782722D01*
X187923155Y-107786667D01*
X187902899Y-107789226D01*
X187861697Y-107805538D01*
X187850651Y-107809321D01*
X187808102Y-107821683D01*
X187790531Y-107832074D01*
X187773070Y-107840629D01*
X187754083Y-107848147D01*
X187718242Y-107874187D01*
X187708480Y-107880599D01*
X187670339Y-107903155D01*
X187655896Y-107917598D01*
X187641109Y-107930227D01*
X187624592Y-107942228D01*
X187596352Y-107976363D01*
X187588492Y-107985001D01*
X186736881Y-108836613D01*
X186675558Y-108870098D01*
X186605867Y-108865114D01*
X186549933Y-108823242D01*
X186525516Y-108757778D01*
X186525200Y-108748932D01*
X186525200Y-107294765D01*
X186544885Y-107227726D01*
X186561515Y-107207088D01*
X186894184Y-106874418D01*
X186955505Y-106840935D01*
X186994464Y-106838743D01*
X187048855Y-106844300D01*
X187774944Y-106844299D01*
X187878826Y-106833687D01*
X188047138Y-106777915D01*
X188091705Y-106750425D01*
X188159095Y-106731986D01*
X188225759Y-106752908D01*
G37*
%TD.AperFunction*%
%TA.AperFunction,Conductor*%
G36*
X188586502Y-99831552D02*
G01*
X188592980Y-99837584D01*
X189127981Y-100372585D01*
X189161466Y-100433908D01*
X189164300Y-100460266D01*
X189164300Y-101256395D01*
X189164300Y-101256414D01*
X189164301Y-101259544D01*
X189164620Y-101262675D01*
X189164621Y-101262678D01*
X189174912Y-101363425D01*
X189230684Y-101531736D01*
X189323771Y-101682654D01*
X189382036Y-101740919D01*
X189415521Y-101802242D01*
X189410537Y-101871934D01*
X189382039Y-101916278D01*
X189374570Y-101923748D01*
X189328027Y-101999205D01*
X189281484Y-102074663D01*
X189225712Y-102242973D01*
X189215419Y-102343724D01*
X189215418Y-102343741D01*
X189215100Y-102346855D01*
X189215100Y-102350001D01*
X189215100Y-102350002D01*
X189215100Y-103694795D01*
X189215100Y-103694814D01*
X189215101Y-103697944D01*
X189215420Y-103701075D01*
X189215421Y-103701078D01*
X189225712Y-103801827D01*
X189254707Y-103889328D01*
X189257108Y-103959157D01*
X189224682Y-104016012D01*
X188636101Y-104604593D01*
X188574778Y-104638078D01*
X188505086Y-104633094D01*
X188449153Y-104591222D01*
X188430717Y-104555921D01*
X188416515Y-104513062D01*
X188323430Y-104362148D01*
X188265161Y-104303879D01*
X188231678Y-104242559D01*
X188236662Y-104172867D01*
X188265163Y-104128518D01*
X188272630Y-104121052D01*
X188365715Y-103970138D01*
X188421487Y-103801826D01*
X188432100Y-103697945D01*
X188432099Y-102346856D01*
X188421487Y-102242974D01*
X188365715Y-102074662D01*
X188272630Y-101923748D01*
X188214361Y-101865479D01*
X188180878Y-101804159D01*
X188185862Y-101734467D01*
X188214363Y-101690118D01*
X188221830Y-101682652D01*
X188314915Y-101531738D01*
X188370687Y-101363426D01*
X188381300Y-101259545D01*
X188381299Y-99925264D01*
X188400984Y-99858226D01*
X188453787Y-99812471D01*
X188522946Y-99802527D01*
X188586502Y-99831552D01*
G37*
%TD.AperFunction*%
%TA.AperFunction,Conductor*%
G36*
X188480849Y-83569643D02*
G01*
X188521379Y-83626556D01*
X188528200Y-83667116D01*
X188528200Y-83956267D01*
X188525910Y-83977008D01*
X188525998Y-83979808D01*
X188525998Y-83979809D01*
X188527382Y-84023845D01*
X188528139Y-84047916D01*
X188528200Y-84051812D01*
X188528200Y-84079756D01*
X188528687Y-84083616D01*
X188528688Y-84083622D01*
X188528719Y-84083865D01*
X188529634Y-84095496D01*
X188531026Y-84139788D01*
X188536722Y-84159392D01*
X188540667Y-84178444D01*
X188543225Y-84198698D01*
X188559538Y-84239901D01*
X188563321Y-84250949D01*
X188575682Y-84293493D01*
X188586074Y-84311066D01*
X188594631Y-84328533D01*
X188602148Y-84347518D01*
X188628191Y-84383363D01*
X188634605Y-84393127D01*
X188657158Y-84431262D01*
X188671589Y-84445693D01*
X188684225Y-84460488D01*
X188696224Y-84477004D01*
X188730371Y-84505253D01*
X188739010Y-84513115D01*
X189004913Y-84779018D01*
X189017959Y-84795301D01*
X189019999Y-84797216D01*
X189020000Y-84797218D01*
X189069685Y-84843875D01*
X189072449Y-84846554D01*
X189083960Y-84858065D01*
X189117445Y-84919388D01*
X189114210Y-84984063D01*
X189063189Y-85141092D01*
X189054358Y-85168272D01*
X189034396Y-85358200D01*
X189054358Y-85548128D01*
X189054359Y-85548131D01*
X189067796Y-85589488D01*
X189069791Y-85659330D01*
X189055404Y-85692901D01*
X188979685Y-85815661D01*
X188923912Y-85983973D01*
X188913619Y-86084724D01*
X188913618Y-86084741D01*
X188913300Y-86087855D01*
X188913300Y-86091001D01*
X188913300Y-86091002D01*
X188913300Y-86810795D01*
X188913300Y-86810814D01*
X188913301Y-86813944D01*
X188913620Y-86817075D01*
X188913621Y-86817078D01*
X188923912Y-86917825D01*
X188979684Y-87086136D01*
X189072771Y-87237054D01*
X189198145Y-87362428D01*
X189198147Y-87362429D01*
X189198148Y-87362430D01*
X189349062Y-87455515D01*
X189446977Y-87487960D01*
X189504422Y-87527732D01*
X189531246Y-87592248D01*
X189518931Y-87661024D01*
X189513513Y-87670762D01*
X189433885Y-87799861D01*
X189378112Y-87968173D01*
X189367819Y-88068924D01*
X189367818Y-88068941D01*
X189367500Y-88072055D01*
X189367500Y-88075202D01*
X189367500Y-88871332D01*
X189347815Y-88938371D01*
X189331181Y-88959013D01*
X188796180Y-89494013D01*
X188734857Y-89527498D01*
X188665165Y-89522514D01*
X188609232Y-89480642D01*
X188584815Y-89415178D01*
X188584499Y-89406359D01*
X188584499Y-88072056D01*
X188573887Y-87968174D01*
X188518115Y-87799862D01*
X188425030Y-87648948D01*
X188425029Y-87648947D01*
X188425028Y-87648945D01*
X188339987Y-87563904D01*
X188306502Y-87502581D01*
X188309736Y-87437907D01*
X188323442Y-87395728D01*
X188343404Y-87205800D01*
X188323442Y-87015872D01*
X188264427Y-86834244D01*
X188264427Y-86834243D01*
X188168942Y-86668858D01*
X188137938Y-86634425D01*
X188041153Y-86526934D01*
X187886652Y-86414682D01*
X187886651Y-86414681D01*
X187712185Y-86337004D01*
X187525389Y-86297300D01*
X187525387Y-86297300D01*
X187334413Y-86297300D01*
X187334411Y-86297300D01*
X187147614Y-86337004D01*
X186973145Y-86414682D01*
X186949582Y-86431802D01*
X186883775Y-86455280D01*
X186815722Y-86439453D01*
X186767028Y-86389346D01*
X186752699Y-86331484D01*
X186752699Y-85804456D01*
X186747142Y-85750063D01*
X186759911Y-85681374D01*
X186782816Y-85649786D01*
X186869816Y-85562786D01*
X186886097Y-85549744D01*
X186888014Y-85547702D01*
X186888018Y-85547700D01*
X186934706Y-85497979D01*
X186937324Y-85495278D01*
X186957135Y-85475469D01*
X186959662Y-85472209D01*
X186967254Y-85463319D01*
X186997586Y-85431021D01*
X187007424Y-85413124D01*
X187018100Y-85396871D01*
X187030614Y-85380740D01*
X187048216Y-85340060D01*
X187053334Y-85329613D01*
X187074695Y-85290760D01*
X187079772Y-85270982D01*
X187086072Y-85252582D01*
X187094181Y-85233845D01*
X187101112Y-85190076D01*
X187103478Y-85178653D01*
X187114500Y-85135730D01*
X187114500Y-85115313D01*
X187116027Y-85095914D01*
X187119220Y-85075757D01*
X187115050Y-85031642D01*
X187114500Y-85019973D01*
X187114500Y-84053099D01*
X187134185Y-83986060D01*
X187186989Y-83940305D01*
X187256147Y-83930361D01*
X187264281Y-83931809D01*
X187276911Y-83934493D01*
X187276912Y-83934494D01*
X187356566Y-83951425D01*
X187463712Y-83974200D01*
X187463713Y-83974200D01*
X187654689Y-83974200D01*
X187841485Y-83934495D01*
X187841486Y-83934494D01*
X187841488Y-83934494D01*
X188015952Y-83856818D01*
X188170453Y-83744566D01*
X188298240Y-83602644D01*
X188298240Y-83602642D01*
X188306961Y-83592958D01*
X188308300Y-83594163D01*
X188347377Y-83556902D01*
X188415983Y-83543677D01*
X188480849Y-83569643D01*
G37*
%TD.AperFunction*%
%TA.AperFunction,Conductor*%
G36*
X191889663Y-86755267D02*
G01*
X195537979Y-90403583D01*
X195571464Y-90464906D01*
X195573656Y-90503866D01*
X195568419Y-90555122D01*
X195568417Y-90555143D01*
X195568100Y-90558255D01*
X195568100Y-90561401D01*
X195568100Y-90561402D01*
X195568100Y-91281195D01*
X195568100Y-91281214D01*
X195568101Y-91284344D01*
X195568420Y-91287475D01*
X195568421Y-91287478D01*
X195578712Y-91388225D01*
X195634484Y-91556536D01*
X195723974Y-91701622D01*
X195742414Y-91769015D01*
X195721491Y-91835678D01*
X195706117Y-91854399D01*
X195676772Y-91883744D01*
X195583684Y-92034663D01*
X195527912Y-92202973D01*
X195517619Y-92303724D01*
X195517618Y-92303741D01*
X195517300Y-92306855D01*
X195517300Y-92310001D01*
X195517300Y-92310002D01*
X195517300Y-93029795D01*
X195517300Y-93029814D01*
X195517301Y-93032944D01*
X195517620Y-93036075D01*
X195517621Y-93036078D01*
X195527912Y-93136825D01*
X195583684Y-93305136D01*
X195676771Y-93456054D01*
X195802145Y-93581428D01*
X195802147Y-93581429D01*
X195802148Y-93581430D01*
X195953062Y-93674515D01*
X196024860Y-93698306D01*
X196121373Y-93730287D01*
X196167402Y-93734989D01*
X196225255Y-93740900D01*
X197576344Y-93740899D01*
X197680226Y-93730287D01*
X197848538Y-93674515D01*
X197930402Y-93624020D01*
X197997795Y-93605579D01*
X198064459Y-93626501D01*
X198109229Y-93680143D01*
X198119500Y-93729558D01*
X198119500Y-97299841D01*
X198099815Y-97366880D01*
X198047011Y-97412635D01*
X197977853Y-97422579D01*
X197930404Y-97405380D01*
X197848538Y-97354885D01*
X197680226Y-97299112D01*
X197579475Y-97288819D01*
X197579459Y-97288818D01*
X197576345Y-97288500D01*
X197573197Y-97288500D01*
X196228404Y-97288500D01*
X196228384Y-97288500D01*
X196225256Y-97288501D01*
X196222125Y-97288820D01*
X196222121Y-97288821D01*
X196121374Y-97299112D01*
X195953063Y-97354884D01*
X195802145Y-97447971D01*
X195676771Y-97573345D01*
X195618945Y-97667097D01*
X195566997Y-97713821D01*
X195513406Y-97726000D01*
X194834093Y-97726000D01*
X194767054Y-97706315D01*
X194721299Y-97653511D01*
X194720659Y-97652086D01*
X194706427Y-97619855D01*
X194706427Y-97619854D01*
X194585092Y-97442725D01*
X194433275Y-97290908D01*
X194256146Y-97169573D01*
X194059739Y-97082850D01*
X194059737Y-97082849D01*
X193850739Y-97033693D01*
X193763644Y-97027648D01*
X193763624Y-97027647D01*
X193761502Y-97027500D01*
X192318498Y-97027500D01*
X192316376Y-97027647D01*
X192316355Y-97027648D01*
X192229260Y-97033693D01*
X192020262Y-97082849D01*
X191823853Y-97169573D01*
X191646727Y-97290906D01*
X191530767Y-97406866D01*
X191469444Y-97440350D01*
X191399752Y-97435366D01*
X191343819Y-97393494D01*
X191328029Y-97353048D01*
X191324959Y-97354066D01*
X191306749Y-97299112D01*
X191264915Y-97172862D01*
X191171830Y-97021948D01*
X191171829Y-97021947D01*
X191171828Y-97021945D01*
X191046454Y-96896571D01*
X190940482Y-96831207D01*
X190895538Y-96803485D01*
X190895537Y-96803484D01*
X190895536Y-96803484D01*
X190727226Y-96747712D01*
X190626475Y-96737419D01*
X190626459Y-96737418D01*
X190623345Y-96737100D01*
X190620197Y-96737100D01*
X189875404Y-96737100D01*
X189875384Y-96737100D01*
X189872256Y-96737101D01*
X189869125Y-96737420D01*
X189869121Y-96737421D01*
X189768374Y-96747712D01*
X189600063Y-96803484D01*
X189449145Y-96896571D01*
X189323771Y-97021945D01*
X189286206Y-97082849D01*
X189230685Y-97172862D01*
X189230685Y-97172863D01*
X189216808Y-97214740D01*
X189177034Y-97272185D01*
X189112518Y-97299007D01*
X189043743Y-97286691D01*
X189011421Y-97263416D01*
X188258588Y-96510583D01*
X188245544Y-96494302D01*
X188243500Y-96492383D01*
X188243500Y-96492382D01*
X188193815Y-96445725D01*
X188191050Y-96443045D01*
X188174027Y-96426022D01*
X188171270Y-96423265D01*
X188167986Y-96420717D01*
X188159123Y-96413146D01*
X188126821Y-96382814D01*
X188108933Y-96372980D01*
X188092669Y-96362296D01*
X188076540Y-96349785D01*
X188035877Y-96332189D01*
X188025383Y-96327048D01*
X187986562Y-96305705D01*
X187974886Y-96302707D01*
X187966784Y-96300627D01*
X187948379Y-96294326D01*
X187929645Y-96286219D01*
X187929643Y-96286218D01*
X187929642Y-96286218D01*
X187885883Y-96279287D01*
X187874443Y-96276918D01*
X187831531Y-96265900D01*
X187831530Y-96265900D01*
X187811116Y-96265900D01*
X187791717Y-96264373D01*
X187771558Y-96261180D01*
X187771557Y-96261180D01*
X187738818Y-96264274D01*
X187727443Y-96265350D01*
X187715774Y-96265900D01*
X178959567Y-96265900D01*
X178892528Y-96246215D01*
X178871885Y-96229581D01*
X178810318Y-96168013D01*
X178776834Y-96106689D01*
X178774000Y-96080332D01*
X178774000Y-94408665D01*
X178793685Y-94341626D01*
X178810315Y-94320988D01*
X179100085Y-94031217D01*
X179161408Y-93997733D01*
X179187766Y-93994899D01*
X180021395Y-93994899D01*
X180024544Y-93994899D01*
X180128426Y-93984287D01*
X180296738Y-93928515D01*
X180447652Y-93835430D01*
X180573030Y-93710052D01*
X180666115Y-93559138D01*
X180695025Y-93471891D01*
X180734796Y-93414448D01*
X180799311Y-93387624D01*
X180868087Y-93399938D01*
X180900411Y-93423215D01*
X181356410Y-93879214D01*
X181369459Y-93895501D01*
X181371499Y-93897416D01*
X181371500Y-93897418D01*
X181421201Y-93944090D01*
X181423965Y-93946769D01*
X181443731Y-93966535D01*
X181446810Y-93968923D01*
X181446986Y-93969060D01*
X181455876Y-93976652D01*
X181488179Y-94006986D01*
X181506070Y-94016821D01*
X181522323Y-94027497D01*
X181534316Y-94036799D01*
X181538461Y-94040015D01*
X181579118Y-94057608D01*
X181589602Y-94062743D01*
X181628440Y-94084095D01*
X181648214Y-94089172D01*
X181666619Y-94095473D01*
X181685355Y-94103581D01*
X181729130Y-94110513D01*
X181740541Y-94112877D01*
X181783470Y-94123900D01*
X181803884Y-94123900D01*
X181823283Y-94125427D01*
X181843443Y-94128620D01*
X181887556Y-94124450D01*
X181899226Y-94123900D01*
X184320008Y-94123900D01*
X184387047Y-94143585D01*
X184432802Y-94196389D01*
X184443366Y-94235298D01*
X184453512Y-94334625D01*
X184509284Y-94502936D01*
X184602371Y-94653854D01*
X184727745Y-94779228D01*
X184727747Y-94779229D01*
X184727748Y-94779230D01*
X184878662Y-94872315D01*
X184962818Y-94900201D01*
X185046973Y-94928087D01*
X185093002Y-94932789D01*
X185150855Y-94938700D01*
X186501944Y-94938699D01*
X186605826Y-94928087D01*
X186774138Y-94872315D01*
X186925052Y-94779230D01*
X187050430Y-94653852D01*
X187143515Y-94502938D01*
X187199287Y-94334626D01*
X187209900Y-94230745D01*
X187209899Y-93504656D01*
X187199287Y-93400774D01*
X187143515Y-93232462D01*
X187050430Y-93081548D01*
X187050429Y-93081547D01*
X187050428Y-93081545D01*
X186925054Y-92956171D01*
X186813445Y-92887330D01*
X186774138Y-92863085D01*
X186774136Y-92863084D01*
X186761803Y-92855477D01*
X186763003Y-92853530D01*
X186721802Y-92825000D01*
X186694983Y-92760482D01*
X186694935Y-92760035D01*
X186675842Y-92578372D01*
X186628274Y-92431974D01*
X186616827Y-92396743D01*
X186521340Y-92231355D01*
X186503666Y-92211726D01*
X186473436Y-92148734D01*
X186482062Y-92079399D01*
X186526803Y-92025733D01*
X186583216Y-92005396D01*
X186605826Y-92003087D01*
X186774138Y-91947315D01*
X186925052Y-91854230D01*
X187050430Y-91728852D01*
X187089694Y-91665194D01*
X187141642Y-91618470D01*
X187210604Y-91607247D01*
X187274686Y-91635090D01*
X187300769Y-91665191D01*
X187340036Y-91728852D01*
X187371371Y-91779654D01*
X187412102Y-91820385D01*
X187445587Y-91881708D01*
X187440603Y-91951400D01*
X187431808Y-91970066D01*
X187365772Y-92084443D01*
X187306758Y-92266070D01*
X187286796Y-92456000D01*
X187306758Y-92645929D01*
X187365772Y-92827556D01*
X187461257Y-92992941D01*
X187461260Y-92992944D01*
X187589047Y-93134866D01*
X187703833Y-93218263D01*
X187743548Y-93247118D01*
X187918014Y-93324795D01*
X188104811Y-93364500D01*
X188104813Y-93364500D01*
X188295789Y-93364500D01*
X188482585Y-93324795D01*
X188482586Y-93324794D01*
X188482588Y-93324794D01*
X188657052Y-93247118D01*
X188811553Y-93134866D01*
X188815458Y-93130528D01*
X188874944Y-93093880D01*
X188907609Y-93089500D01*
X189128267Y-93089500D01*
X189149008Y-93091789D01*
X189151805Y-93091701D01*
X189151809Y-93091702D01*
X189219917Y-93089560D01*
X189223813Y-93089500D01*
X189247858Y-93089500D01*
X189251756Y-93089500D01*
X189255624Y-93089011D01*
X189255847Y-93088983D01*
X189267508Y-93088064D01*
X189311789Y-93086673D01*
X189331398Y-93080975D01*
X189350431Y-93077033D01*
X189370697Y-93074474D01*
X189411906Y-93058157D01*
X189422937Y-93054380D01*
X189465493Y-93042018D01*
X189483060Y-93031628D01*
X189500532Y-93023068D01*
X189519517Y-93015552D01*
X189555375Y-92989498D01*
X189565123Y-92983096D01*
X189603262Y-92960542D01*
X189617700Y-92946103D01*
X189632488Y-92933472D01*
X189649007Y-92921472D01*
X189677259Y-92887319D01*
X189685103Y-92878699D01*
X191019818Y-91543984D01*
X191081142Y-91510499D01*
X191150834Y-91515483D01*
X191206767Y-91557355D01*
X191231184Y-91622819D01*
X191231500Y-91631664D01*
X191231500Y-92617502D01*
X191231647Y-92619624D01*
X191231648Y-92619644D01*
X191237693Y-92706739D01*
X191286849Y-92915737D01*
X191359812Y-93080980D01*
X191373573Y-93112146D01*
X191494908Y-93289275D01*
X191646725Y-93441092D01*
X191823854Y-93562427D01*
X192020261Y-93649150D01*
X192229260Y-93698306D01*
X192318498Y-93704500D01*
X192320638Y-93704500D01*
X193759362Y-93704500D01*
X193761502Y-93704500D01*
X193850740Y-93698306D01*
X194059739Y-93649150D01*
X194256146Y-93562427D01*
X194433275Y-93441092D01*
X194585092Y-93289275D01*
X194706427Y-93112146D01*
X194793150Y-92915739D01*
X194842306Y-92706740D01*
X194848500Y-92617502D01*
X194848500Y-91174498D01*
X194842306Y-91085260D01*
X194793150Y-90876261D01*
X194706427Y-90679854D01*
X194585092Y-90502725D01*
X194433275Y-90350908D01*
X194256146Y-90229573D01*
X194228715Y-90217461D01*
X194059737Y-90142849D01*
X193850739Y-90093693D01*
X193763644Y-90087648D01*
X193763624Y-90087647D01*
X193761502Y-90087500D01*
X193759362Y-90087500D01*
X193143892Y-90087500D01*
X193076853Y-90067815D01*
X193031098Y-90015011D01*
X193021154Y-89945853D01*
X193050179Y-89882297D01*
X193071006Y-89863182D01*
X193074129Y-89860913D01*
X193158153Y-89799866D01*
X193285940Y-89657944D01*
X193381427Y-89492556D01*
X193440442Y-89310928D01*
X193460404Y-89121000D01*
X193440442Y-88931072D01*
X193381427Y-88749444D01*
X193381427Y-88749443D01*
X193285942Y-88584058D01*
X193266342Y-88562291D01*
X193158153Y-88442134D01*
X193003652Y-88329882D01*
X193003651Y-88329881D01*
X192829185Y-88252204D01*
X192642389Y-88212500D01*
X192642387Y-88212500D01*
X192451413Y-88212500D01*
X192451411Y-88212500D01*
X192264614Y-88252204D01*
X192090148Y-88329881D01*
X191935648Y-88442133D01*
X191807857Y-88584058D01*
X191740886Y-88700057D01*
X191690319Y-88748273D01*
X191621712Y-88761496D01*
X191556847Y-88735527D01*
X191516319Y-88678613D01*
X191509499Y-88638057D01*
X191509499Y-88075204D01*
X191509499Y-88075202D01*
X191509499Y-88072056D01*
X191498887Y-87968174D01*
X191443115Y-87799862D01*
X191350030Y-87648948D01*
X191350029Y-87648947D01*
X191350028Y-87648945D01*
X191301037Y-87599954D01*
X191267552Y-87538631D01*
X191272536Y-87468939D01*
X191314408Y-87413006D01*
X191323596Y-87406751D01*
X191395452Y-87362430D01*
X191520830Y-87237052D01*
X191613915Y-87086138D01*
X191669687Y-86917826D01*
X191678624Y-86830344D01*
X191705020Y-86765654D01*
X191762200Y-86725503D01*
X191832011Y-86722639D01*
X191889663Y-86755267D01*
G37*
%TD.AperFunction*%
%TA.AperFunction,Conductor*%
G36*
X181019877Y-57607624D02*
G01*
X181157324Y-57671717D01*
X181380170Y-57731429D01*
X181529576Y-57744500D01*
X181609999Y-57751536D01*
X181609999Y-57751535D01*
X181610000Y-57751536D01*
X181724915Y-57741482D01*
X181839831Y-57731429D01*
X181910820Y-57712407D01*
X181980670Y-57714068D01*
X182030596Y-57744500D01*
X183677781Y-59391685D01*
X183711266Y-59453008D01*
X183714100Y-59479366D01*
X183714100Y-62703467D01*
X183711810Y-62724208D01*
X183714039Y-62795116D01*
X183714100Y-62799012D01*
X183714100Y-62826956D01*
X183714587Y-62830816D01*
X183714588Y-62830822D01*
X183714619Y-62831065D01*
X183715534Y-62842696D01*
X183716926Y-62886988D01*
X183722622Y-62906592D01*
X183726567Y-62925644D01*
X183729125Y-62945898D01*
X183745438Y-62987101D01*
X183749221Y-62998149D01*
X183761582Y-63040693D01*
X183771974Y-63058266D01*
X183780531Y-63075733D01*
X183788048Y-63094718D01*
X183814091Y-63130563D01*
X183820505Y-63140327D01*
X183843058Y-63178462D01*
X183857490Y-63192894D01*
X183870126Y-63207689D01*
X183882126Y-63224205D01*
X183916267Y-63252449D01*
X183924908Y-63260312D01*
X183984415Y-63319819D01*
X184017900Y-63381142D01*
X184012916Y-63450834D01*
X183971044Y-63506767D01*
X183905580Y-63531184D01*
X183896734Y-63531500D01*
X182790364Y-63531500D01*
X182787945Y-63531690D01*
X182787929Y-63531691D01*
X182671632Y-63540844D01*
X182657331Y-63541970D01*
X182518402Y-63576977D01*
X182437660Y-63597322D01*
X182231409Y-63691005D01*
X182045197Y-63820013D01*
X181885013Y-63980197D01*
X181756005Y-64166409D01*
X181662322Y-64372660D01*
X181662320Y-64372664D01*
X181662321Y-64372664D01*
X181607467Y-64590361D01*
X181606970Y-64592332D01*
X181596691Y-64722929D01*
X181596690Y-64722945D01*
X181596500Y-64725364D01*
X181596499Y-64727808D01*
X181596500Y-64727809D01*
X181596500Y-65579132D01*
X181576815Y-65646171D01*
X181524011Y-65691926D01*
X181454853Y-65701870D01*
X181391297Y-65672845D01*
X181384819Y-65666813D01*
X180212388Y-64494383D01*
X180199344Y-64478101D01*
X180147631Y-64429540D01*
X180144834Y-64426829D01*
X180127827Y-64409822D01*
X180125070Y-64407065D01*
X180121786Y-64404517D01*
X180112923Y-64396946D01*
X180080621Y-64366614D01*
X180062733Y-64356780D01*
X180046469Y-64346096D01*
X180030340Y-64333585D01*
X179989677Y-64315989D01*
X179979183Y-64310848D01*
X179949731Y-64294656D01*
X179900468Y-64245109D01*
X179885812Y-64176794D01*
X179910417Y-64111400D01*
X179921789Y-64098314D01*
X179969415Y-64050689D01*
X180290585Y-63729519D01*
X180351909Y-63696034D01*
X180378267Y-63693200D01*
X181401967Y-63693200D01*
X181422708Y-63695489D01*
X181425505Y-63695401D01*
X181425509Y-63695402D01*
X181493617Y-63693260D01*
X181497513Y-63693200D01*
X181521558Y-63693200D01*
X181525456Y-63693200D01*
X181529324Y-63692711D01*
X181529547Y-63692683D01*
X181541208Y-63691764D01*
X181585489Y-63690373D01*
X181605098Y-63684675D01*
X181624131Y-63680733D01*
X181644397Y-63678174D01*
X181685606Y-63661857D01*
X181696637Y-63658080D01*
X181739193Y-63645718D01*
X181756760Y-63635328D01*
X181774232Y-63626768D01*
X181793217Y-63619252D01*
X181829075Y-63593198D01*
X181838823Y-63586796D01*
X181876962Y-63564242D01*
X181891400Y-63549803D01*
X181906188Y-63537172D01*
X181922707Y-63525172D01*
X181950959Y-63491019D01*
X181958803Y-63482399D01*
X183093016Y-62348186D01*
X183109297Y-62335144D01*
X183111214Y-62333102D01*
X183111218Y-62333100D01*
X183157906Y-62283379D01*
X183160524Y-62280678D01*
X183180335Y-62260869D01*
X183182862Y-62257609D01*
X183190454Y-62248719D01*
X183220786Y-62216421D01*
X183230624Y-62198524D01*
X183241300Y-62182271D01*
X183253814Y-62166140D01*
X183271416Y-62125460D01*
X183276534Y-62115013D01*
X183297895Y-62076160D01*
X183302972Y-62056382D01*
X183309272Y-62037982D01*
X183317381Y-62019245D01*
X183324312Y-61975476D01*
X183326678Y-61964053D01*
X183337700Y-61921130D01*
X183337700Y-61900714D01*
X183339227Y-61881314D01*
X183341204Y-61868832D01*
X183342420Y-61861157D01*
X183338250Y-61817042D01*
X183337700Y-61805373D01*
X183337700Y-61216307D01*
X183337700Y-60611622D01*
X183339989Y-60590890D01*
X183339901Y-60588094D01*
X183339902Y-60588091D01*
X183337761Y-60519981D01*
X183337700Y-60516085D01*
X183337700Y-60492042D01*
X183337700Y-60492041D01*
X183337700Y-60488144D01*
X183337181Y-60484041D01*
X183336264Y-60472389D01*
X183335648Y-60452788D01*
X183334873Y-60428110D01*
X183329178Y-60408511D01*
X183325233Y-60389462D01*
X183322674Y-60369203D01*
X183312151Y-60342626D01*
X183306362Y-60328004D01*
X183302577Y-60316950D01*
X183290218Y-60274407D01*
X183286279Y-60267747D01*
X183279824Y-60256831D01*
X183271264Y-60239357D01*
X183263752Y-60220384D01*
X183263752Y-60220383D01*
X183237710Y-60184540D01*
X183231295Y-60174773D01*
X183208744Y-60136639D01*
X183208742Y-60136637D01*
X183194301Y-60122196D01*
X183181669Y-60107405D01*
X183169674Y-60090895D01*
X183169672Y-60090893D01*
X183135524Y-60062643D01*
X183126896Y-60054791D01*
X180879793Y-57807688D01*
X180846308Y-57746365D01*
X180851292Y-57676673D01*
X180893164Y-57620740D01*
X180958628Y-57596323D01*
X181019877Y-57607624D01*
G37*
%TD.AperFunction*%
%TA.AperFunction,Conductor*%
G36*
X185818703Y-65154552D02*
G01*
X185825166Y-65160570D01*
X186208270Y-65543674D01*
X186538975Y-65874379D01*
X186572460Y-65935702D01*
X186567476Y-66005394D01*
X186538978Y-66049739D01*
X186532771Y-66055946D01*
X186439684Y-66206863D01*
X186383912Y-66375173D01*
X186373619Y-66475924D01*
X186373618Y-66475941D01*
X186373300Y-66479055D01*
X186373300Y-66482201D01*
X186373300Y-66482202D01*
X186373300Y-67201995D01*
X186373300Y-67202014D01*
X186373301Y-67205144D01*
X186373620Y-67208275D01*
X186373621Y-67208278D01*
X186379275Y-67263627D01*
X186366505Y-67332320D01*
X186358969Y-67343063D01*
X186343080Y-67371965D01*
X186332402Y-67388220D01*
X186319886Y-67404356D01*
X186302286Y-67445028D01*
X186297148Y-67455517D01*
X186275803Y-67494343D01*
X186270726Y-67514118D01*
X186264425Y-67532523D01*
X186256318Y-67551256D01*
X186249388Y-67595010D01*
X186247020Y-67606446D01*
X186236000Y-67649369D01*
X186236000Y-67669784D01*
X186234473Y-67689183D01*
X186231538Y-67707716D01*
X186231280Y-67709343D01*
X186231786Y-67714698D01*
X186235450Y-67753457D01*
X186236000Y-67765126D01*
X186236000Y-68719367D01*
X186233710Y-68740108D01*
X186235939Y-68811016D01*
X186236000Y-68814912D01*
X186236000Y-68842856D01*
X186236487Y-68846716D01*
X186236488Y-68846722D01*
X186236519Y-68846965D01*
X186237434Y-68858596D01*
X186238826Y-68902888D01*
X186244522Y-68922492D01*
X186248467Y-68941544D01*
X186251025Y-68961798D01*
X186267338Y-69003001D01*
X186271121Y-69014049D01*
X186283481Y-69056591D01*
X186283482Y-69056593D01*
X186288125Y-69064445D01*
X186305306Y-69132167D01*
X186283146Y-69198429D01*
X186278832Y-69203584D01*
X186182684Y-69359463D01*
X186126912Y-69527773D01*
X186116619Y-69628524D01*
X186116618Y-69628541D01*
X186116300Y-69631655D01*
X186116300Y-69634801D01*
X186116300Y-69634802D01*
X186116300Y-70979595D01*
X186116300Y-70979614D01*
X186116301Y-70982744D01*
X186116620Y-70985875D01*
X186116621Y-70985878D01*
X186126912Y-71086625D01*
X186171638Y-71221600D01*
X186182685Y-71254938D01*
X186211484Y-71301628D01*
X186275771Y-71405854D01*
X186289736Y-71419819D01*
X186323221Y-71481142D01*
X186318237Y-71550834D01*
X186276365Y-71606767D01*
X186210901Y-71631184D01*
X186202055Y-71631500D01*
X185247545Y-71631500D01*
X185180506Y-71611815D01*
X185134751Y-71559011D01*
X185124807Y-71489853D01*
X185153832Y-71426297D01*
X185159864Y-71419819D01*
X185173828Y-71405854D01*
X185173830Y-71405852D01*
X185266915Y-71254938D01*
X185322687Y-71086626D01*
X185333300Y-70982745D01*
X185333299Y-69631656D01*
X185322687Y-69527774D01*
X185266915Y-69359462D01*
X185173830Y-69208548D01*
X185173829Y-69208547D01*
X185173828Y-69208545D01*
X185048454Y-69083171D01*
X184972994Y-69036627D01*
X184897538Y-68990085D01*
X184897537Y-68990084D01*
X184897536Y-68990084D01*
X184729226Y-68934312D01*
X184628475Y-68924019D01*
X184628459Y-68924018D01*
X184625345Y-68923700D01*
X184622197Y-68923700D01*
X183902404Y-68923700D01*
X183902384Y-68923700D01*
X183899256Y-68923701D01*
X183896125Y-68924020D01*
X183896121Y-68924021D01*
X183795374Y-68934312D01*
X183627063Y-68990084D01*
X183476145Y-69083171D01*
X183350771Y-69208545D01*
X183257684Y-69359463D01*
X183201912Y-69527773D01*
X183191619Y-69628524D01*
X183191618Y-69628541D01*
X183191300Y-69631655D01*
X183191300Y-69634801D01*
X183191300Y-69634802D01*
X183191300Y-70979595D01*
X183191300Y-70979614D01*
X183191301Y-70982744D01*
X183191620Y-70985875D01*
X183191621Y-70985878D01*
X183201912Y-71086625D01*
X183257685Y-71254939D01*
X183319938Y-71355865D01*
X183338400Y-71420962D01*
X183338400Y-74214500D01*
X183318715Y-74281539D01*
X183265911Y-74327294D01*
X183214400Y-74338500D01*
X183171498Y-74338500D01*
X183169077Y-74338690D01*
X183169065Y-74338691D01*
X183134165Y-74341438D01*
X182974399Y-74387854D01*
X182831191Y-74472547D01*
X182713547Y-74590191D01*
X182628854Y-74733399D01*
X182591130Y-74863246D01*
X182553524Y-74922131D01*
X182490051Y-74951337D01*
X182420864Y-74941591D01*
X182400930Y-74930224D01*
X182296376Y-74857013D01*
X182252751Y-74802436D01*
X182243500Y-74755439D01*
X182243500Y-68587001D01*
X182263185Y-68519962D01*
X182315989Y-68474207D01*
X182385147Y-68464263D01*
X182418783Y-68474103D01*
X182437660Y-68482678D01*
X182437664Y-68482679D01*
X182657331Y-68538030D01*
X182790364Y-68548500D01*
X182792809Y-68548500D01*
X184417191Y-68548500D01*
X184419636Y-68548500D01*
X184552669Y-68538030D01*
X184772336Y-68482679D01*
X184978591Y-68388994D01*
X185164802Y-68259986D01*
X185324986Y-68099802D01*
X185453994Y-67913591D01*
X185547679Y-67707336D01*
X185603030Y-67487669D01*
X185613500Y-67354636D01*
X185613500Y-65248264D01*
X185633185Y-65181226D01*
X185685989Y-65135471D01*
X185755147Y-65125527D01*
X185818703Y-65154552D01*
G37*
%TD.AperFunction*%
%TA.AperFunction,Conductor*%
G36*
X187046387Y-74080780D02*
G01*
X187063117Y-74091755D01*
X187231983Y-74223190D01*
X187437273Y-74334287D01*
X187658049Y-74410080D01*
X187699944Y-74417071D01*
X187762829Y-74447521D01*
X187799269Y-74507135D01*
X187797695Y-74576987D01*
X187786267Y-74602501D01*
X187708854Y-74733399D01*
X187662438Y-74893165D01*
X187660159Y-74922131D01*
X187659500Y-74930498D01*
X187659500Y-76713502D01*
X187659690Y-76715923D01*
X187659691Y-76715934D01*
X187662438Y-76750834D01*
X187708854Y-76910600D01*
X187793547Y-77053808D01*
X187911191Y-77171452D01*
X188054399Y-77256145D01*
X188214165Y-77302561D01*
X188214169Y-77302562D01*
X188251498Y-77305500D01*
X188253943Y-77305500D01*
X188682057Y-77305500D01*
X188684502Y-77305500D01*
X188721831Y-77302562D01*
X188881601Y-77256145D01*
X188985455Y-77194726D01*
X189038291Y-77163479D01*
X189040490Y-77167197D01*
X189076604Y-77147464D01*
X189146297Y-77152427D01*
X189166548Y-77165441D01*
X189167709Y-77163479D01*
X189324399Y-77256145D01*
X189484165Y-77302561D01*
X189484169Y-77302562D01*
X189521498Y-77305500D01*
X189523943Y-77305500D01*
X189952057Y-77305500D01*
X189954502Y-77305500D01*
X189980751Y-77303434D01*
X190049129Y-77317795D01*
X190078162Y-77339366D01*
X190190616Y-77451820D01*
X190224100Y-77513141D01*
X190219116Y-77582833D01*
X190177245Y-77638767D01*
X190111781Y-77663184D01*
X190102934Y-77663500D01*
X189426233Y-77663500D01*
X189405491Y-77661210D01*
X189402691Y-77661298D01*
X189334583Y-77663439D01*
X189330687Y-77663500D01*
X189302744Y-77663500D01*
X189298877Y-77663988D01*
X189298868Y-77663989D01*
X189298632Y-77664019D01*
X189287005Y-77664934D01*
X189242710Y-77666326D01*
X189223107Y-77672022D01*
X189204055Y-77675967D01*
X189183799Y-77678526D01*
X189142597Y-77694838D01*
X189131551Y-77698621D01*
X189089002Y-77710983D01*
X189071431Y-77721374D01*
X189053970Y-77729929D01*
X189034983Y-77737447D01*
X188999142Y-77763487D01*
X188989380Y-77769899D01*
X188951239Y-77792455D01*
X188936796Y-77806898D01*
X188922009Y-77819527D01*
X188905492Y-77831528D01*
X188877252Y-77865663D01*
X188869392Y-77874301D01*
X187526180Y-79217513D01*
X187509896Y-79230561D01*
X187461339Y-79282268D01*
X187458634Y-79285060D01*
X187438865Y-79304830D01*
X187436487Y-79307893D01*
X187436470Y-79307914D01*
X187436311Y-79308121D01*
X187428753Y-79316968D01*
X187398414Y-79349277D01*
X187388582Y-79367163D01*
X187377901Y-79383423D01*
X187365385Y-79399559D01*
X187347786Y-79440228D01*
X187342648Y-79450717D01*
X187321303Y-79489543D01*
X187316226Y-79509318D01*
X187309895Y-79527792D01*
X187309781Y-79528055D01*
X187265058Y-79581736D01*
X187198413Y-79602717D01*
X187131004Y-79584335D01*
X187084234Y-79532428D01*
X187076934Y-79513341D01*
X187067018Y-79479207D01*
X187056622Y-79461629D01*
X187048069Y-79444171D01*
X187040552Y-79425183D01*
X187014503Y-79389330D01*
X187008099Y-79379580D01*
X186985542Y-79341438D01*
X186971107Y-79327003D01*
X186958469Y-79312206D01*
X186946472Y-79295693D01*
X186912324Y-79267443D01*
X186903685Y-79259581D01*
X185055088Y-77410983D01*
X185042044Y-77394701D01*
X184990331Y-77346140D01*
X184987534Y-77343429D01*
X184970527Y-77326422D01*
X184967770Y-77323665D01*
X184964486Y-77321117D01*
X184955623Y-77313546D01*
X184923321Y-77283214D01*
X184905433Y-77273380D01*
X184889169Y-77262696D01*
X184873040Y-77250185D01*
X184832377Y-77232589D01*
X184821883Y-77227448D01*
X184783062Y-77206105D01*
X184771386Y-77203107D01*
X184763284Y-77201027D01*
X184744879Y-77194726D01*
X184726145Y-77186619D01*
X184726143Y-77186618D01*
X184726142Y-77186618D01*
X184682383Y-77179687D01*
X184670955Y-77177321D01*
X184661899Y-77174996D01*
X184601862Y-77139259D01*
X184570676Y-77076736D01*
X184578243Y-77007277D01*
X184578936Y-77005644D01*
X184585081Y-76991445D01*
X184592012Y-76947676D01*
X184594378Y-76936253D01*
X184605400Y-76893330D01*
X184605400Y-76872913D01*
X184606927Y-76853514D01*
X184610120Y-76833357D01*
X184605950Y-76789242D01*
X184605400Y-76777573D01*
X184605400Y-74572500D01*
X184625085Y-74505461D01*
X184677889Y-74459706D01*
X184729400Y-74448500D01*
X186450328Y-74448500D01*
X186453638Y-74448500D01*
X186514201Y-74441989D01*
X186514203Y-74441988D01*
X186514205Y-74441988D01*
X186599754Y-74410079D01*
X186651204Y-74390889D01*
X186768261Y-74303261D01*
X186855889Y-74186204D01*
X186870781Y-74146277D01*
X186912650Y-74090346D01*
X186978114Y-74065929D01*
X187046387Y-74080780D01*
G37*
%TD.AperFunction*%
%TA.AperFunction,Conductor*%
G36*
X190430873Y-72236085D02*
G01*
X190451515Y-72252719D01*
X192027892Y-73829096D01*
X192061377Y-73890419D01*
X192058142Y-73955095D01*
X191996058Y-74146170D01*
X191976096Y-74336100D01*
X191996058Y-74526029D01*
X192055072Y-74707656D01*
X192150557Y-74873041D01*
X192179955Y-74905691D01*
X192278347Y-75014966D01*
X192382806Y-75090860D01*
X192432848Y-75127218D01*
X192607314Y-75204895D01*
X192806861Y-75247310D01*
X192806083Y-75250967D01*
X192851439Y-75264285D01*
X192897194Y-75317089D01*
X192908400Y-75368600D01*
X192908400Y-75719570D01*
X192908399Y-75728009D01*
X192906204Y-75751220D01*
X192904624Y-75759503D01*
X192908155Y-75815614D01*
X192908400Y-75823401D01*
X192908400Y-75862432D01*
X192888715Y-75929471D01*
X192872081Y-75950113D01*
X192398314Y-76423881D01*
X192336991Y-76457366D01*
X192310633Y-76460200D01*
X191042166Y-76460200D01*
X190975127Y-76440515D01*
X190954485Y-76423881D01*
X190582819Y-76052214D01*
X190549334Y-75990891D01*
X190546500Y-75964533D01*
X190546500Y-75470667D01*
X190546500Y-74930498D01*
X190543562Y-74893169D01*
X190532716Y-74855838D01*
X190497145Y-74733399D01*
X190412452Y-74590191D01*
X190294808Y-74472547D01*
X190151600Y-74387854D01*
X189991834Y-74341438D01*
X189956934Y-74338691D01*
X189956923Y-74338690D01*
X189954502Y-74338500D01*
X189521498Y-74338500D01*
X189519077Y-74338690D01*
X189519065Y-74338691D01*
X189484165Y-74341438D01*
X189324399Y-74387854D01*
X189167709Y-74480521D01*
X189165509Y-74476802D01*
X189129358Y-74496543D01*
X189059666Y-74491559D01*
X189039447Y-74478565D01*
X189038291Y-74480521D01*
X188868118Y-74379881D01*
X188868949Y-74378475D01*
X188826450Y-74351332D01*
X188797246Y-74287858D01*
X188806993Y-74218672D01*
X188843771Y-74172011D01*
X188962220Y-74079818D01*
X189120314Y-73908083D01*
X189247984Y-73712669D01*
X189341749Y-73498907D01*
X189399051Y-73272626D01*
X189418327Y-73040000D01*
X189399051Y-72807374D01*
X189341749Y-72581093D01*
X189258018Y-72390207D01*
X189249116Y-72320910D01*
X189279093Y-72257798D01*
X189338432Y-72220911D01*
X189371575Y-72216400D01*
X190363834Y-72216400D01*
X190430873Y-72236085D01*
G37*
%TD.AperFunction*%
%TA.AperFunction,Conductor*%
G36*
X177989597Y-69858386D02*
G01*
X178109640Y-69932430D01*
X178122262Y-69940215D01*
X178195623Y-69964524D01*
X178290573Y-69995987D01*
X178336602Y-70000689D01*
X178394455Y-70006600D01*
X179441900Y-70006599D01*
X179508939Y-70026283D01*
X179554694Y-70079087D01*
X179565900Y-70130599D01*
X179565900Y-72155333D01*
X179546215Y-72222372D01*
X179529581Y-72243014D01*
X179129013Y-72643581D01*
X179067690Y-72677066D01*
X179041332Y-72679900D01*
X178245204Y-72679900D01*
X178245184Y-72679900D01*
X178242056Y-72679901D01*
X178238925Y-72680220D01*
X178238921Y-72680221D01*
X178138173Y-72690512D01*
X177963503Y-72748392D01*
X177893675Y-72750794D01*
X177833633Y-72715062D01*
X177802441Y-72652541D01*
X177800500Y-72630686D01*
X177800500Y-69963924D01*
X177820185Y-69896885D01*
X177872989Y-69851130D01*
X177942147Y-69841186D01*
X177989597Y-69858386D01*
G37*
%TD.AperFunction*%
%TA.AperFunction,Conductor*%
G36*
X183044873Y-47252785D02*
G01*
X183065515Y-47269419D01*
X183977610Y-48181514D01*
X183990659Y-48197801D01*
X183992699Y-48199716D01*
X183992700Y-48199718D01*
X184042401Y-48246390D01*
X184045165Y-48249069D01*
X184064930Y-48268834D01*
X184068184Y-48271358D01*
X184077067Y-48278944D01*
X184109379Y-48309286D01*
X184127272Y-48319122D01*
X184143531Y-48329803D01*
X184159659Y-48342313D01*
X184200325Y-48359910D01*
X184210806Y-48365046D01*
X184232267Y-48376844D01*
X184249640Y-48386395D01*
X184269410Y-48391471D01*
X184287815Y-48397771D01*
X184306555Y-48405881D01*
X184350330Y-48412813D01*
X184361741Y-48415177D01*
X184404670Y-48426200D01*
X184425084Y-48426200D01*
X184444483Y-48427727D01*
X184464643Y-48430920D01*
X184508756Y-48426750D01*
X184520426Y-48426200D01*
X185760134Y-48426200D01*
X185827173Y-48445885D01*
X185847810Y-48462514D01*
X185982582Y-48597285D01*
X186016066Y-48658606D01*
X186018900Y-48684965D01*
X186018900Y-54527678D01*
X185999215Y-54594717D01*
X185946411Y-54640472D01*
X185877253Y-54650416D01*
X185855897Y-54645384D01*
X185745228Y-54608713D01*
X185644475Y-54598419D01*
X185644459Y-54598418D01*
X185641345Y-54598100D01*
X185638197Y-54598100D01*
X184918404Y-54598100D01*
X184918384Y-54598100D01*
X184915256Y-54598101D01*
X184912125Y-54598420D01*
X184912121Y-54598421D01*
X184811374Y-54608712D01*
X184643063Y-54664484D01*
X184492145Y-54757571D01*
X184366771Y-54882945D01*
X184273684Y-55033863D01*
X184217912Y-55202173D01*
X184207619Y-55302924D01*
X184207618Y-55302941D01*
X184207300Y-55306055D01*
X184207300Y-55309201D01*
X184207300Y-55309202D01*
X184207300Y-56653995D01*
X184207300Y-56654014D01*
X184207301Y-56657144D01*
X184207620Y-56660275D01*
X184207621Y-56660278D01*
X184217912Y-56761025D01*
X184252456Y-56865272D01*
X184273685Y-56929338D01*
X184275324Y-56931995D01*
X184298479Y-56969536D01*
X184316918Y-57036928D01*
X184295995Y-57103592D01*
X184267251Y-57133897D01*
X184236738Y-57156739D01*
X184149110Y-57273796D01*
X184098011Y-57410794D01*
X184091853Y-57468075D01*
X184091500Y-57471362D01*
X184091500Y-57474671D01*
X184091500Y-57714232D01*
X184071815Y-57781271D01*
X184019011Y-57827026D01*
X183949853Y-57836970D01*
X183886297Y-57807945D01*
X183879819Y-57801913D01*
X182926500Y-56848595D01*
X182893015Y-56787272D01*
X182894407Y-56728818D01*
X182913429Y-56657829D01*
X182913765Y-56653995D01*
X182933536Y-56428000D01*
X182913429Y-56198170D01*
X182853717Y-55975324D01*
X182756216Y-55766232D01*
X182623887Y-55577247D01*
X182460753Y-55414113D01*
X182271768Y-55281784D01*
X182145907Y-55223094D01*
X182062677Y-55184283D01*
X181839827Y-55124570D01*
X181609999Y-55104463D01*
X181380172Y-55124570D01*
X181157322Y-55184283D01*
X180948230Y-55281784D01*
X180934723Y-55291243D01*
X180868517Y-55313570D01*
X180800750Y-55296560D01*
X180752937Y-55245611D01*
X180739600Y-55189668D01*
X180739600Y-52734636D01*
X181591500Y-52734636D01*
X181591690Y-52737055D01*
X181591691Y-52737070D01*
X181599718Y-52839066D01*
X181601970Y-52867669D01*
X181657321Y-53087336D01*
X181657322Y-53087339D01*
X181751005Y-53293590D01*
X181880013Y-53479802D01*
X182040197Y-53639986D01*
X182147580Y-53714381D01*
X182226409Y-53768994D01*
X182432664Y-53862679D01*
X182652331Y-53918030D01*
X182785364Y-53928500D01*
X182787809Y-53928500D01*
X184412191Y-53928500D01*
X184414636Y-53928500D01*
X184547669Y-53918030D01*
X184767336Y-53862679D01*
X184973591Y-53768994D01*
X185159802Y-53639986D01*
X185319986Y-53479802D01*
X185448994Y-53293591D01*
X185542679Y-53087336D01*
X185598030Y-52867669D01*
X185608500Y-52734636D01*
X185608500Y-50105364D01*
X185598030Y-49972331D01*
X185542679Y-49752664D01*
X185448994Y-49546409D01*
X185438301Y-49530974D01*
X185319986Y-49360197D01*
X185159802Y-49200013D01*
X184973590Y-49071005D01*
X184767339Y-48977322D01*
X184767337Y-48977321D01*
X184767336Y-48977321D01*
X184547669Y-48921970D01*
X184519066Y-48919718D01*
X184417070Y-48911691D01*
X184417055Y-48911690D01*
X184414636Y-48911500D01*
X182785364Y-48911500D01*
X182782945Y-48911690D01*
X182782929Y-48911691D01*
X182666632Y-48920844D01*
X182652331Y-48921970D01*
X182474192Y-48966857D01*
X182432660Y-48977322D01*
X182226409Y-49071005D01*
X182040197Y-49200013D01*
X181880013Y-49360197D01*
X181751005Y-49546409D01*
X181657322Y-49752660D01*
X181601970Y-49972332D01*
X181591691Y-50102929D01*
X181591690Y-50102945D01*
X181591500Y-50105364D01*
X181591500Y-52734636D01*
X180739600Y-52734636D01*
X180739600Y-48082466D01*
X180759285Y-48015427D01*
X180775919Y-47994785D01*
X181501286Y-47269419D01*
X181562609Y-47235934D01*
X181588967Y-47233100D01*
X182977834Y-47233100D01*
X183044873Y-47252785D01*
G37*
%TD.AperFunction*%
%TD*%
M02*
