M48
; DRILL file {KiCad (6.0.5)} date Tue Feb 14 12:05:01 2023
; FORMAT={-:-/ absolute / inch / decimal}
; #@! TF.CreationDate,2023-02-14T12:05:01-05:00
; #@! TF.GenerationSoftware,Kicad,Pcbnew,(6.0.5)
; #@! TF.FileFunction,Plated,1,2,PTH
FMAT,2
INCH
; #@! TA.AperFunction,Plated,PTH,ComponentDrill
T1C0.0276
; #@! TA.AperFunction,Plated,PTH,ComponentDrill
T2C0.0295
; #@! TA.AperFunction,Plated,PTH,ComponentDrill
T3C0.0315
; #@! TA.AperFunction,Plated,PTH,ComponentDrill
T4C0.0354
; #@! TA.AperFunction,Plated,PTH,ComponentDrill
T5C0.0394
%
G90
G05
T1
X4.3263Y-3.2134
X4.3263Y-3.4134
T2
X4.1763Y-4.2134
X4.2263Y-3.2634
X4.2263Y-3.3134
X4.2263Y-3.3634
X4.2263Y-4.2134
X4.2763Y-4.2134
X4.4763Y-3.2634
X4.4763Y-3.3134
X4.4763Y-3.3634
T3
X4.2759Y-2.7138
X4.2759Y-3.0138
X4.3759Y-2.7138
X4.3759Y-3.0138
X4.4Y-3.95
X4.4Y-4.25
X4.4759Y-2.7138
X4.4759Y-3.0138
X4.5Y-3.95
X4.5Y-4.25
X4.5496Y-4.8004
X4.5496Y-5.1004
X4.5759Y-2.7138
X4.5759Y-3.0138
X4.6Y-3.95
X4.6Y-4.25
X4.6496Y-4.8004
X4.6496Y-5.1004
X4.7Y-3.95
X4.7Y-4.25
X4.7496Y-4.8004
X4.7496Y-5.1004
X4.8496Y-4.8004
X4.8496Y-5.1004
T4
X4.3Y-4.6
X4.3Y-4.7969
X4.3984Y-4.6984
X4.7263Y-3.1634
X4.7263Y-3.3602
X4.7779Y-2.9612
X4.8247Y-3.2618
X4.8763Y-3.0596
X4.9747Y-2.9612
T5
X4.0763Y-2.2634
X4.1763Y-2.2634
X4.1763Y-3.5134
X4.1763Y-3.6134
X4.2763Y-2.2634
X4.3763Y-2.2634
X4.4763Y-2.2634
X4.5763Y-2.2634
X4.6763Y-2.2634
X4.7763Y-2.2634
X4.85Y-3.8
X4.85Y-4.45
X4.8759Y-2.2634
X4.9759Y-2.2634
X4.9763Y-3.1634
X4.9763Y-3.2634
X5.0759Y-2.2634
X5.1Y-4.8
X5.15Y-4.0504
X5.15Y-4.1504
X5.15Y-4.25
X5.1759Y-2.2634
X5.1763Y-2.5134
X5.1763Y-2.6134
X5.1763Y-2.7134
X5.1763Y-2.8134
T0
M30
