%TF.GenerationSoftware,KiCad,Pcbnew,(6.0.5)*%
%TF.CreationDate,2023-05-17T00:23:09-04:00*%
%TF.ProjectId,as3340_no_mux,61733333-3430-45f6-9e6f-5f6d75782e6b,rev?*%
%TF.SameCoordinates,Original*%
%TF.FileFunction,Legend,Bot*%
%TF.FilePolarity,Positive*%
%FSLAX46Y46*%
G04 Gerber Fmt 4.6, Leading zero omitted, Abs format (unit mm)*
G04 Created by KiCad (PCBNEW (6.0.5)) date 2023-05-17 00:23:09*
%MOMM*%
%LPD*%
G01*
G04 APERTURE LIST*
%ADD10C,0.150000*%
%ADD11C,0.120000*%
G04 APERTURE END LIST*
D10*
%TO.C,R20*%
X57792857Y-119832380D02*
X58126190Y-119356190D01*
X58364285Y-119832380D02*
X58364285Y-118832380D01*
X57983333Y-118832380D01*
X57888095Y-118880000D01*
X57840476Y-118927619D01*
X57792857Y-119022857D01*
X57792857Y-119165714D01*
X57840476Y-119260952D01*
X57888095Y-119308571D01*
X57983333Y-119356190D01*
X58364285Y-119356190D01*
X57411904Y-118927619D02*
X57364285Y-118880000D01*
X57269047Y-118832380D01*
X57030952Y-118832380D01*
X56935714Y-118880000D01*
X56888095Y-118927619D01*
X56840476Y-119022857D01*
X56840476Y-119118095D01*
X56888095Y-119260952D01*
X57459523Y-119832380D01*
X56840476Y-119832380D01*
X56221428Y-118832380D02*
X56126190Y-118832380D01*
X56030952Y-118880000D01*
X55983333Y-118927619D01*
X55935714Y-119022857D01*
X55888095Y-119213333D01*
X55888095Y-119451428D01*
X55935714Y-119641904D01*
X55983333Y-119737142D01*
X56030952Y-119784761D01*
X56126190Y-119832380D01*
X56221428Y-119832380D01*
X56316666Y-119784761D01*
X56364285Y-119737142D01*
X56411904Y-119641904D01*
X56459523Y-119451428D01*
X56459523Y-119213333D01*
X56411904Y-119022857D01*
X56364285Y-118927619D01*
X56316666Y-118880000D01*
X56221428Y-118832380D01*
%TO.C,R24*%
X59342857Y-124912380D02*
X59676190Y-124436190D01*
X59914285Y-124912380D02*
X59914285Y-123912380D01*
X59533333Y-123912380D01*
X59438095Y-123960000D01*
X59390476Y-124007619D01*
X59342857Y-124102857D01*
X59342857Y-124245714D01*
X59390476Y-124340952D01*
X59438095Y-124388571D01*
X59533333Y-124436190D01*
X59914285Y-124436190D01*
X58961904Y-124007619D02*
X58914285Y-123960000D01*
X58819047Y-123912380D01*
X58580952Y-123912380D01*
X58485714Y-123960000D01*
X58438095Y-124007619D01*
X58390476Y-124102857D01*
X58390476Y-124198095D01*
X58438095Y-124340952D01*
X59009523Y-124912380D01*
X58390476Y-124912380D01*
X57533333Y-124245714D02*
X57533333Y-124912380D01*
X57771428Y-123864761D02*
X58009523Y-124579047D01*
X57390476Y-124579047D01*
%TO.C,J11*%
X47922380Y-107140476D02*
X48636666Y-107140476D01*
X48779523Y-107092857D01*
X48874761Y-106997619D01*
X48922380Y-106854761D01*
X48922380Y-106759523D01*
X48922380Y-108140476D02*
X48922380Y-107569047D01*
X48922380Y-107854761D02*
X47922380Y-107854761D01*
X48065238Y-107759523D01*
X48160476Y-107664285D01*
X48208095Y-107569047D01*
X48922380Y-109092857D02*
X48922380Y-108521428D01*
X48922380Y-108807142D02*
X47922380Y-108807142D01*
X48065238Y-108711904D01*
X48160476Y-108616666D01*
X48208095Y-108521428D01*
D11*
%TO.C,R20*%
X56422936Y-118470000D02*
X57877064Y-118470000D01*
X56422936Y-120290000D02*
X57877064Y-120290000D01*
%TO.C,R24*%
X59427064Y-123550000D02*
X57972936Y-123550000D01*
X59427064Y-125370000D02*
X57972936Y-125370000D01*
%TO.C,J11*%
X62290000Y-105350000D02*
X62290000Y-110550000D01*
X49470000Y-110550000D02*
X62290000Y-110550000D01*
X52070000Y-105350000D02*
X52070000Y-107950000D01*
X49470000Y-107950000D02*
X49470000Y-110550000D01*
X50800000Y-105350000D02*
X49470000Y-105350000D01*
X49470000Y-105350000D02*
X49470000Y-106680000D01*
X52070000Y-107950000D02*
X49470000Y-107950000D01*
X52070000Y-105350000D02*
X62290000Y-105350000D01*
%TD*%
M02*
