%TF.GenerationSoftware,KiCad,Pcbnew,(6.0.5)*%
%TF.CreationDate,2023-05-17T00:23:09-04:00*%
%TF.ProjectId,as3340_no_mux,61733333-3430-45f6-9e6f-5f6d75782e6b,rev?*%
%TF.SameCoordinates,Original*%
%TF.FileFunction,Soldermask,Top*%
%TF.FilePolarity,Negative*%
%FSLAX46Y46*%
G04 Gerber Fmt 4.6, Leading zero omitted, Abs format (unit mm)*
G04 Created by KiCad (PCBNEW (6.0.5)) date 2023-05-17 00:23:09*
%MOMM*%
%LPD*%
G01*
G04 APERTURE LIST*
G04 Aperture macros list*
%AMRoundRect*
0 Rectangle with rounded corners*
0 $1 Rounding radius*
0 $2 $3 $4 $5 $6 $7 $8 $9 X,Y pos of 4 corners*
0 Add a 4 corners polygon primitive as box body*
4,1,4,$2,$3,$4,$5,$6,$7,$8,$9,$2,$3,0*
0 Add four circle primitives for the rounded corners*
1,1,$1+$1,$2,$3*
1,1,$1+$1,$4,$5*
1,1,$1+$1,$6,$7*
1,1,$1+$1,$8,$9*
0 Add four rect primitives between the rounded corners*
20,1,$1+$1,$2,$3,$4,$5,0*
20,1,$1+$1,$4,$5,$6,$7,0*
20,1,$1+$1,$6,$7,$8,$9,0*
20,1,$1+$1,$8,$9,$2,$3,0*%
G04 Aperture macros list end*
%ADD10C,1.400000*%
%ADD11O,1.400000X1.400000*%
%ADD12C,1.620000*%
%ADD13RoundRect,0.250000X0.625000X-0.400000X0.625000X0.400000X-0.625000X0.400000X-0.625000X-0.400000X0*%
%ADD14R,1.700000X1.700000*%
%ADD15RoundRect,0.250000X-0.400000X-0.625000X0.400000X-0.625000X0.400000X0.625000X-0.400000X0.625000X0*%
%ADD16RoundRect,0.250000X-0.412500X-0.650000X0.412500X-0.650000X0.412500X0.650000X-0.412500X0.650000X0*%
%ADD17RoundRect,0.250000X-0.625000X0.400000X-0.625000X-0.400000X0.625000X-0.400000X0.625000X0.400000X0*%
%ADD18RoundRect,0.250000X0.650000X-0.412500X0.650000X0.412500X-0.650000X0.412500X-0.650000X-0.412500X0*%
%ADD19C,1.000000*%
%ADD20R,1.900000X1.900000*%
%ADD21C,1.900000*%
%ADD22RoundRect,0.250000X-0.650000X0.412500X-0.650000X-0.412500X0.650000X-0.412500X0.650000X0.412500X0*%
%ADD23O,1.700000X1.700000*%
%ADD24C,1.600000*%
%ADD25RoundRect,0.250000X0.400000X0.625000X-0.400000X0.625000X-0.400000X-0.625000X0.400000X-0.625000X0*%
%ADD26R,1.600000X1.600000*%
%ADD27O,1.600000X1.600000*%
%ADD28RoundRect,0.250000X0.412500X0.650000X-0.412500X0.650000X-0.412500X-0.650000X0.412500X-0.650000X0*%
G04 APERTURE END LIST*
D10*
%TO.C,R40*%
X49530000Y-137160000D03*
D11*
X54610000Y-137160000D03*
%TD*%
D12*
%TO.C,RV5*%
X54570000Y-142185000D03*
X52070000Y-144685000D03*
X49570000Y-142185000D03*
%TD*%
D13*
%TO.C,R2*%
X50800000Y-119660000D03*
X50800000Y-116560000D03*
%TD*%
D14*
%TO.C,J21*%
X63500000Y-114300000D03*
%TD*%
%TO.C,J18*%
X53340000Y-114300000D03*
%TD*%
%TO.C,J20*%
X60960000Y-114300000D03*
%TD*%
%TO.C,J16*%
X50800000Y-114300000D03*
%TD*%
D15*
%TO.C,R46*%
X67030000Y-132080000D03*
X70130000Y-132080000D03*
%TD*%
D14*
%TO.C,J19*%
X58420000Y-114300000D03*
%TD*%
D16*
%TO.C,C7*%
X51777500Y-139700000D03*
X54902500Y-139700000D03*
%TD*%
D10*
%TO.C,R48*%
X54610000Y-134620000D03*
D11*
X49530000Y-134620000D03*
%TD*%
D17*
%TO.C,R16*%
X63500000Y-116560000D03*
X63500000Y-119660000D03*
%TD*%
%TO.C,R4*%
X72390000Y-122910000D03*
X72390000Y-126010000D03*
%TD*%
D18*
%TO.C,C2*%
X69850000Y-142532500D03*
X69850000Y-139407500D03*
%TD*%
D19*
%TO.C,J4*%
X40600000Y-147360000D03*
X40600000Y-152360000D03*
D20*
X44600000Y-147610000D03*
D21*
X44600000Y-152110000D03*
X37100000Y-152760000D03*
X37100000Y-146960000D03*
%TD*%
D19*
%TO.C,J1*%
X40600000Y-110450000D03*
X40600000Y-105450000D03*
D20*
X44600000Y-105700000D03*
D21*
X44600000Y-110200000D03*
X37100000Y-105050000D03*
X37100000Y-110850000D03*
%TD*%
D14*
%TO.C,J10*%
X72390000Y-144780000D03*
%TD*%
D22*
%TO.C,C9*%
X72390000Y-129247500D03*
X72390000Y-132372500D03*
%TD*%
%TO.C,C11*%
X67310000Y-136867500D03*
X67310000Y-139992500D03*
%TD*%
D17*
%TO.C,R26*%
X69850000Y-124180000D03*
X69850000Y-127280000D03*
%TD*%
D14*
%TO.C,J9*%
X49530000Y-139700000D03*
%TD*%
D10*
%TO.C,R19*%
X60960000Y-116840000D03*
D11*
X60960000Y-121920000D03*
%TD*%
D14*
%TO.C,J25*%
X47625000Y-106045000D03*
%TD*%
D17*
%TO.C,R12*%
X69850000Y-134340000D03*
X69850000Y-137440000D03*
%TD*%
D14*
%TO.C,J3*%
X53340000Y-116840000D03*
%TD*%
D12*
%TO.C,RV7*%
X72350000Y-116840000D03*
X69850000Y-119340000D03*
X67350000Y-116840000D03*
%TD*%
D14*
%TO.C,J22*%
X64770000Y-152400000D03*
D23*
X62230000Y-152400000D03*
X59690000Y-152400000D03*
X57150000Y-152400000D03*
X54610000Y-152400000D03*
X52070000Y-152400000D03*
%TD*%
D10*
%TO.C,R17*%
X67310000Y-127000000D03*
D11*
X67310000Y-121920000D03*
%TD*%
D14*
%TO.C,J27*%
X49530000Y-152400000D03*
%TD*%
D10*
%TO.C,R8*%
X55880000Y-116840000D03*
D11*
X55880000Y-121920000D03*
%TD*%
D24*
%TO.C,C1*%
X72410000Y-142240000D03*
X74910000Y-142240000D03*
%TD*%
D25*
%TO.C,R50*%
X52350000Y-132080000D03*
X49250000Y-132080000D03*
%TD*%
D10*
%TO.C,R10*%
X74930000Y-139700000D03*
D11*
X74930000Y-134620000D03*
%TD*%
D19*
%TO.C,J2*%
X40600000Y-124650479D03*
X40600000Y-119650479D03*
D20*
X44600000Y-119900479D03*
D21*
X44600000Y-124400479D03*
X37100000Y-119250479D03*
X37100000Y-125050479D03*
%TD*%
D12*
%TO.C,RV9*%
X49530000Y-121960000D03*
X52030000Y-124460000D03*
X49530000Y-126960000D03*
%TD*%
D14*
%TO.C,J17*%
X55880000Y-114300000D03*
%TD*%
D25*
%TO.C,R25*%
X70130000Y-129540000D03*
X67030000Y-129540000D03*
%TD*%
D26*
%TO.C,U2*%
X57160000Y-127015000D03*
D27*
X57160000Y-129555000D03*
X57160000Y-132095000D03*
X57160000Y-134635000D03*
X57160000Y-137175000D03*
X57160000Y-139715000D03*
X57160000Y-142255000D03*
X57160000Y-144795000D03*
X64780000Y-144795000D03*
X64780000Y-142255000D03*
X64780000Y-139715000D03*
X64780000Y-137175000D03*
X64780000Y-134635000D03*
X64780000Y-132095000D03*
X64780000Y-129555000D03*
X64780000Y-127015000D03*
%TD*%
D10*
%TO.C,R11*%
X72390000Y-139700000D03*
D11*
X72390000Y-134620000D03*
%TD*%
D14*
%TO.C,J6*%
X53340000Y-119380000D03*
%TD*%
D28*
%TO.C,C3*%
X70142500Y-144780000D03*
X67017500Y-144780000D03*
%TD*%
D17*
%TO.C,R38*%
X54610000Y-124180000D03*
X54610000Y-127280000D03*
%TD*%
D19*
%TO.C,J5*%
X40600000Y-133620479D03*
X40600000Y-138620479D03*
D20*
X44600000Y-133870479D03*
D21*
X44600000Y-138370479D03*
X37100000Y-133220479D03*
X37100000Y-139020479D03*
%TD*%
D13*
%TO.C,R6*%
X58420000Y-119660000D03*
X58420000Y-116560000D03*
%TD*%
D10*
%TO.C,R39*%
X49530000Y-129540000D03*
D11*
X54610000Y-129540000D03*
%TD*%
D14*
%TO.C,J11*%
X50800000Y-106680000D03*
D23*
X50800000Y-109220000D03*
X53340000Y-106680000D03*
X53340000Y-109220000D03*
X55880000Y-106680000D03*
X55880000Y-109220000D03*
X58420000Y-106680000D03*
X58420000Y-109220000D03*
X60960000Y-106680000D03*
X60960000Y-109220000D03*
%TD*%
M02*
