%TF.GenerationSoftware,KiCad,Pcbnew,(6.0.5)*%
%TF.CreationDate,2023-05-17T00:23:09-04:00*%
%TF.ProjectId,as3340_no_mux,61733333-3430-45f6-9e6f-5f6d75782e6b,rev?*%
%TF.SameCoordinates,Original*%
%TF.FileFunction,Copper,L2,Bot*%
%TF.FilePolarity,Positive*%
%FSLAX46Y46*%
G04 Gerber Fmt 4.6, Leading zero omitted, Abs format (unit mm)*
G04 Created by KiCad (PCBNEW (6.0.5)) date 2023-05-17 00:23:09*
%MOMM*%
%LPD*%
G01*
G04 APERTURE LIST*
G04 Aperture macros list*
%AMRoundRect*
0 Rectangle with rounded corners*
0 $1 Rounding radius*
0 $2 $3 $4 $5 $6 $7 $8 $9 X,Y pos of 4 corners*
0 Add a 4 corners polygon primitive as box body*
4,1,4,$2,$3,$4,$5,$6,$7,$8,$9,$2,$3,0*
0 Add four circle primitives for the rounded corners*
1,1,$1+$1,$2,$3*
1,1,$1+$1,$4,$5*
1,1,$1+$1,$6,$7*
1,1,$1+$1,$8,$9*
0 Add four rect primitives between the rounded corners*
20,1,$1+$1,$2,$3,$4,$5,0*
20,1,$1+$1,$4,$5,$6,$7,0*
20,1,$1+$1,$6,$7,$8,$9,0*
20,1,$1+$1,$8,$9,$2,$3,0*%
G04 Aperture macros list end*
%TA.AperFunction,ComponentPad*%
%ADD10C,1.400000*%
%TD*%
%TA.AperFunction,ComponentPad*%
%ADD11O,1.400000X1.400000*%
%TD*%
%TA.AperFunction,ComponentPad*%
%ADD12C,1.620000*%
%TD*%
%TA.AperFunction,ComponentPad*%
%ADD13R,1.700000X1.700000*%
%TD*%
%TA.AperFunction,ComponentPad*%
%ADD14R,1.900000X1.900000*%
%TD*%
%TA.AperFunction,ComponentPad*%
%ADD15C,1.900000*%
%TD*%
%TA.AperFunction,ComponentPad*%
%ADD16O,1.700000X1.700000*%
%TD*%
%TA.AperFunction,ComponentPad*%
%ADD17C,1.600000*%
%TD*%
%TA.AperFunction,ComponentPad*%
%ADD18R,1.600000X1.600000*%
%TD*%
%TA.AperFunction,ComponentPad*%
%ADD19O,1.600000X1.600000*%
%TD*%
%TA.AperFunction,SMDPad,CuDef*%
%ADD20RoundRect,0.250000X-0.400000X-0.625000X0.400000X-0.625000X0.400000X0.625000X-0.400000X0.625000X0*%
%TD*%
%TA.AperFunction,SMDPad,CuDef*%
%ADD21RoundRect,0.250000X0.400000X0.625000X-0.400000X0.625000X-0.400000X-0.625000X0.400000X-0.625000X0*%
%TD*%
%TA.AperFunction,ViaPad*%
%ADD22C,3.000000*%
%TD*%
%TA.AperFunction,ViaPad*%
%ADD23C,0.800000*%
%TD*%
%TA.AperFunction,Conductor*%
%ADD24C,0.500000*%
%TD*%
%TA.AperFunction,Conductor*%
%ADD25C,1.000000*%
%TD*%
G04 APERTURE END LIST*
D10*
%TO.P,R40,1*%
%TO.N,Net-(R40-Pad1)*%
X49530000Y-137160000D03*
D11*
%TO.P,R40,2*%
%TO.N,Net-(R40-Pad2)*%
X54610000Y-137160000D03*
%TD*%
D12*
%TO.P,RV5,1,1*%
%TO.N,Net-(RV5-Pad1)*%
X54570000Y-142185000D03*
%TO.P,RV5,2,2*%
%TO.N,Net-(R17-Pad2)*%
X52070000Y-144685000D03*
%TO.P,RV5,3,3*%
%TO.N,GND*%
X49570000Y-142185000D03*
%TD*%
D13*
%TO.P,J21,1,Pin_1*%
%TO.N,Net-(R16-Pad1)*%
X63500000Y-114300000D03*
%TD*%
%TO.P,J18,1,Pin_1*%
%TO.N,Net-(J3-Pad1)*%
X53340000Y-114300000D03*
%TD*%
%TO.P,J20,1,Pin_1*%
%TO.N,Net-(R19-Pad1)*%
X60960000Y-114300000D03*
%TD*%
%TO.P,J16,1,Pin_1*%
%TO.N,Net-(R2-Pad2)*%
X50800000Y-114300000D03*
%TD*%
%TO.P,J19,1,Pin_1*%
%TO.N,Net-(R6-Pad2)*%
X58420000Y-114300000D03*
%TD*%
D10*
%TO.P,R48,1*%
%TO.N,Net-(R40-Pad2)*%
X54610000Y-134620000D03*
D11*
%TO.P,R48,2*%
%TO.N,GND*%
X49530000Y-134620000D03*
%TD*%
D14*
%TO.P,J4,R*%
%TO.N,Net-(C1-Pad2)*%
X44600000Y-147610000D03*
D15*
%TO.P,J4,S*%
%TO.N,GND*%
X44600000Y-152110000D03*
%TO.P,J4,T*%
%TO.N,Net-(C1-Pad2)*%
X37100000Y-152760000D03*
X37100000Y-146960000D03*
%TD*%
D14*
%TO.P,J1,R*%
%TO.N,Net-(J1-PadR)*%
X44600000Y-105700000D03*
D15*
%TO.P,J1,S*%
%TO.N,GND*%
X44600000Y-110200000D03*
%TO.P,J1,T*%
%TO.N,Net-(J1-PadR)*%
X37100000Y-105050000D03*
X37100000Y-110850000D03*
%TD*%
D13*
%TO.P,J10,1,Pin_1*%
%TO.N,Net-(C3-Pad1)*%
X72390000Y-144780000D03*
%TD*%
%TO.P,J9,1,Pin_1*%
%TO.N,Net-(C7-Pad1)*%
X49530000Y-139700000D03*
%TD*%
D10*
%TO.P,R19,1*%
%TO.N,Net-(R19-Pad1)*%
X60960000Y-116840000D03*
D11*
%TO.P,R19,2*%
%TO.N,Net-(R17-Pad1)*%
X60960000Y-121920000D03*
%TD*%
D13*
%TO.P,J25,1,Pin_1*%
%TO.N,Net-(J1-PadR)*%
X47625000Y-106045000D03*
%TD*%
%TO.P,J3,1,Pin_1*%
%TO.N,Net-(J3-Pad1)*%
X53340000Y-116840000D03*
%TD*%
D12*
%TO.P,RV7,1,1*%
%TO.N,Net-(RV7-Pad1)*%
X72350000Y-116840000D03*
%TO.P,RV7,2,2*%
X69850000Y-119340000D03*
%TO.P,RV7,3,3*%
%TO.N,+15V*%
X67350000Y-116840000D03*
%TD*%
D13*
%TO.P,J22,1,Pin_1*%
%TO.N,Net-(J22-Pad1)*%
X64770000Y-152400000D03*
D16*
%TO.P,J22,2,Pin_2*%
%TO.N,GND*%
X62230000Y-152400000D03*
%TO.P,J22,3,Pin_3*%
%TO.N,+15V*%
X59690000Y-152400000D03*
%TO.P,J22,4,Pin_4*%
%TO.N,Net-(J22-Pad4)*%
X57150000Y-152400000D03*
%TO.P,J22,5,Pin_5*%
%TO.N,Net-(J22-Pad5)*%
X54610000Y-152400000D03*
%TO.P,J22,6,Pin_6*%
%TO.N,-15V*%
X52070000Y-152400000D03*
%TD*%
D10*
%TO.P,R17,1*%
%TO.N,Net-(R17-Pad1)*%
X67310000Y-127000000D03*
D11*
%TO.P,R17,2*%
%TO.N,Net-(R17-Pad2)*%
X67310000Y-121920000D03*
%TD*%
D13*
%TO.P,J27,1,Pin_1*%
%TO.N,GND*%
X49530000Y-152400000D03*
%TD*%
D10*
%TO.P,R8,1*%
%TO.N,Net-(R8-Pad1)*%
X55880000Y-116840000D03*
D11*
%TO.P,R8,2*%
%TO.N,+15V*%
X55880000Y-121920000D03*
%TD*%
D17*
%TO.P,C1,1*%
%TO.N,Net-(C1-Pad1)*%
X72410000Y-142240000D03*
%TO.P,C1,2*%
%TO.N,Net-(C1-Pad2)*%
X74910000Y-142240000D03*
%TD*%
D10*
%TO.P,R10,1*%
%TO.N,+15V*%
X74930000Y-139700000D03*
D11*
%TO.P,R10,2*%
%TO.N,Net-(R10-Pad2)*%
X74930000Y-134620000D03*
%TD*%
D14*
%TO.P,J2,R*%
%TO.N,Net-(R24-Pad2)*%
X44600000Y-119900479D03*
D15*
%TO.P,J2,S*%
%TO.N,GND*%
X44600000Y-124400479D03*
%TO.P,J2,T*%
%TO.N,Net-(R24-Pad2)*%
X37100000Y-119250479D03*
X37100000Y-125050479D03*
%TD*%
D12*
%TO.P,RV9,1,1*%
%TO.N,Net-(R38-Pad1)*%
X49530000Y-121960000D03*
%TO.P,RV9,2,2*%
%TO.N,Net-(R39-Pad1)*%
X52030000Y-124460000D03*
%TO.P,RV9,3,3*%
X49530000Y-126960000D03*
%TD*%
D13*
%TO.P,J17,1,Pin_1*%
%TO.N,Net-(R8-Pad1)*%
X55880000Y-114300000D03*
%TD*%
D18*
%TO.P,U2,1,SCALE1*%
%TO.N,Net-(R38-Pad2)*%
X57160000Y-127015000D03*
D19*
%TO.P,U2,2,SCALE2*%
%TO.N,Net-(R39-Pad2)*%
X57160000Y-129555000D03*
%TO.P,U2,3,VEE*%
%TO.N,Net-(R39-Pad1)*%
X57160000Y-132095000D03*
%TO.P,U2,4,VP*%
%TO.N,Net-(J22-Pad4)*%
X57160000Y-134635000D03*
%TO.P,U2,5,VPWM*%
%TO.N,Net-(R40-Pad2)*%
X57160000Y-137175000D03*
%TO.P,U2,6,VHSI*%
%TO.N,Net-(C7-Pad2)*%
X57160000Y-139715000D03*
%TO.P,U2,7,VHFT*%
%TO.N,Net-(RV5-Pad1)*%
X57160000Y-142255000D03*
%TO.P,U2,8,VSO*%
%TO.N,Net-(J22-Pad5)*%
X57160000Y-144795000D03*
%TO.P,U2,9,VSSI*%
%TO.N,Net-(C3-Pad2)*%
X64780000Y-144795000D03*
%TO.P,U2,10,VTO*%
%TO.N,Net-(J22-Pad1)*%
X64780000Y-142255000D03*
%TO.P,U2,11,CAP*%
%TO.N,Net-(C11-Pad2)*%
X64780000Y-139715000D03*
%TO.P,U2,12,GND*%
%TO.N,GND*%
X64780000Y-137175000D03*
%TO.P,U2,13,VLFI*%
%TO.N,Net-(R10-Pad2)*%
X64780000Y-134635000D03*
%TO.P,U2,14,VS*%
%TO.N,Net-(R46-Pad1)*%
X64780000Y-132095000D03*
%TO.P,U2,15,VFCI*%
%TO.N,Net-(R17-Pad1)*%
X64780000Y-129555000D03*
%TO.P,U2,16,VCC*%
%TO.N,+15V*%
X64780000Y-127015000D03*
%TD*%
D10*
%TO.P,R11,1*%
%TO.N,Net-(C1-Pad1)*%
X72390000Y-139700000D03*
D11*
%TO.P,R11,2*%
%TO.N,Net-(R10-Pad2)*%
X72390000Y-134620000D03*
%TD*%
D13*
%TO.P,J6,1,Pin_1*%
%TO.N,Net-(R20-Pad1)*%
X53340000Y-119380000D03*
%TD*%
D14*
%TO.P,J5,R*%
%TO.N,Net-(R40-Pad1)*%
X44600000Y-133870479D03*
D15*
%TO.P,J5,S*%
%TO.N,GND*%
X44600000Y-138370479D03*
%TO.P,J5,T*%
%TO.N,Net-(R40-Pad1)*%
X37100000Y-133220479D03*
X37100000Y-139020479D03*
%TD*%
D10*
%TO.P,R39,1*%
%TO.N,Net-(R39-Pad1)*%
X49530000Y-129540000D03*
D11*
%TO.P,R39,2*%
%TO.N,Net-(R39-Pad2)*%
X54610000Y-129540000D03*
%TD*%
D20*
%TO.P,R20,1*%
%TO.N,Net-(R20-Pad1)*%
X55600000Y-119380000D03*
%TO.P,R20,2*%
%TO.N,Net-(R17-Pad1)*%
X58700000Y-119380000D03*
%TD*%
D21*
%TO.P,R24,1*%
%TO.N,Net-(R17-Pad1)*%
X60250000Y-124460000D03*
%TO.P,R24,2*%
%TO.N,Net-(R24-Pad2)*%
X57150000Y-124460000D03*
%TD*%
D13*
%TO.P,J11,1,Pin_1*%
%TO.N,-15V*%
X50800000Y-106680000D03*
D16*
%TO.P,J11,2,Pin_2*%
X50800000Y-109220000D03*
%TO.P,J11,3,Pin_3*%
%TO.N,GND*%
X53340000Y-106680000D03*
%TO.P,J11,4,Pin_4*%
X53340000Y-109220000D03*
%TO.P,J11,5,Pin_5*%
X55880000Y-106680000D03*
%TO.P,J11,6,Pin_6*%
X55880000Y-109220000D03*
%TO.P,J11,7,Pin_7*%
X58420000Y-106680000D03*
%TO.P,J11,8,Pin_8*%
X58420000Y-109220000D03*
%TO.P,J11,9,Pin_9*%
%TO.N,+15V*%
X60960000Y-106680000D03*
%TO.P,J11,10,Pin_10*%
X60960000Y-109220000D03*
%TD*%
D22*
%TO.N,GND*%
X73660000Y-154940000D03*
X73660000Y-104140000D03*
D23*
%TO.N,Net-(R17-Pad1)*%
X65405000Y-122555000D03*
%TD*%
D24*
%TO.N,Net-(C1-Pad2)*%
X73660000Y-148590000D02*
X45580000Y-148590000D01*
X45580000Y-148590000D02*
X44600000Y-147610000D01*
X74910000Y-142240000D02*
X74910000Y-147300000D01*
X74930000Y-147320000D02*
X73660000Y-148590000D01*
X74910000Y-147300000D02*
X74930000Y-147320000D01*
%TO.N,Net-(R24-Pad2)*%
X44600000Y-119900479D02*
X50685479Y-119900479D01*
X55245000Y-124460000D02*
X57150000Y-124460000D01*
X50685479Y-119900479D02*
X55245000Y-124460000D01*
%TO.N,Net-(R40-Pad1)*%
X49530000Y-137160000D02*
X47889521Y-137160000D01*
X47889521Y-137160000D02*
X44600000Y-133870479D01*
%TO.N,Net-(R20-Pad1)*%
X55600000Y-119380000D02*
X53340000Y-119380000D01*
D25*
%TO.N,+15V*%
X66279511Y-128514511D02*
X66279511Y-131049511D01*
X64780000Y-127015000D02*
X66279511Y-128514511D01*
X66279511Y-131049511D02*
X74930000Y-139700000D01*
D24*
%TO.N,Net-(R17-Pad1)*%
X60250000Y-124460000D02*
X60250000Y-122630000D01*
X60960000Y-121920000D02*
X64770000Y-121920000D01*
X60960000Y-121920000D02*
X60960000Y-121640000D01*
X60250000Y-122630000D02*
X60960000Y-121920000D01*
X60960000Y-121640000D02*
X58700000Y-119380000D01*
X64770000Y-121920000D02*
X65405000Y-122555000D01*
%TO.N,Net-(R17-Pad2)*%
X63500000Y-124460000D02*
X60960000Y-127000000D01*
X67310000Y-121920000D02*
X67310000Y-124460000D01*
X58829520Y-146910480D02*
X54295480Y-146910480D01*
X60960000Y-144780000D02*
X58829520Y-146910480D01*
X67310000Y-124460000D02*
X63500000Y-124460000D01*
X54295480Y-146910480D02*
X52070000Y-144685000D01*
X60960000Y-127000000D02*
X60960000Y-144780000D01*
%TD*%
%TA.AperFunction,Conductor*%
%TO.N,GND*%
G36*
X75633621Y-102128502D02*
G01*
X75680114Y-102182158D01*
X75691500Y-102234500D01*
X75691500Y-133443881D01*
X75671498Y-133512002D01*
X75617842Y-133558495D01*
X75547568Y-133568599D01*
X75512250Y-133558076D01*
X75349892Y-133482367D01*
X75349891Y-133482366D01*
X75344910Y-133480044D01*
X75339602Y-133478622D01*
X75339600Y-133478621D01*
X75145970Y-133426738D01*
X75145968Y-133426738D01*
X75140655Y-133425314D01*
X74930000Y-133406884D01*
X74719345Y-133425314D01*
X74714032Y-133426738D01*
X74714030Y-133426738D01*
X74520400Y-133478621D01*
X74520398Y-133478622D01*
X74515090Y-133480044D01*
X74510109Y-133482366D01*
X74510108Y-133482367D01*
X74328423Y-133567088D01*
X74328420Y-133567090D01*
X74323442Y-133569411D01*
X74150224Y-133690699D01*
X74000699Y-133840224D01*
X73879411Y-134013442D01*
X73877090Y-134018420D01*
X73877088Y-134018423D01*
X73799059Y-134185757D01*
X73790044Y-134205090D01*
X73788622Y-134210398D01*
X73788621Y-134210400D01*
X73781707Y-134236204D01*
X73744755Y-134296827D01*
X73680894Y-134327848D01*
X73610400Y-134319420D01*
X73555653Y-134274217D01*
X73538293Y-134236204D01*
X73531379Y-134210400D01*
X73531378Y-134210398D01*
X73529956Y-134205090D01*
X73520941Y-134185757D01*
X73442912Y-134018423D01*
X73442910Y-134018420D01*
X73440589Y-134013442D01*
X73319301Y-133840224D01*
X73169776Y-133690699D01*
X72996558Y-133569411D01*
X72991580Y-133567090D01*
X72991577Y-133567088D01*
X72809892Y-133482367D01*
X72809891Y-133482366D01*
X72804910Y-133480044D01*
X72799602Y-133478622D01*
X72799600Y-133478621D01*
X72605970Y-133426738D01*
X72605968Y-133426738D01*
X72600655Y-133425314D01*
X72390000Y-133406884D01*
X72179345Y-133425314D01*
X72174032Y-133426738D01*
X72174030Y-133426738D01*
X71980400Y-133478621D01*
X71980398Y-133478622D01*
X71975090Y-133480044D01*
X71970109Y-133482366D01*
X71970108Y-133482367D01*
X71788423Y-133567088D01*
X71788420Y-133567090D01*
X71783442Y-133569411D01*
X71610224Y-133690699D01*
X71460699Y-133840224D01*
X71339411Y-134013442D01*
X71337090Y-134018420D01*
X71337088Y-134018423D01*
X71259059Y-134185757D01*
X71250044Y-134205090D01*
X71248622Y-134210398D01*
X71248621Y-134210400D01*
X71224382Y-134300861D01*
X71187430Y-134361484D01*
X71123569Y-134392505D01*
X71053075Y-134384077D01*
X71013580Y-134357345D01*
X67324916Y-130668682D01*
X67290890Y-130606370D01*
X67288011Y-130579587D01*
X67288011Y-128576354D01*
X67288748Y-128562747D01*
X67292170Y-128531249D01*
X67292170Y-128531244D01*
X67292835Y-128525123D01*
X67289987Y-128492566D01*
X67288461Y-128475123D01*
X67288132Y-128470297D01*
X67288011Y-128467825D01*
X67288011Y-128464742D01*
X67286837Y-128452773D01*
X67283821Y-128422005D01*
X67283699Y-128420691D01*
X67276858Y-128342497D01*
X67290847Y-128272893D01*
X67340247Y-128221900D01*
X67391397Y-128205996D01*
X67515163Y-128195167D01*
X67515169Y-128195166D01*
X67520655Y-128194686D01*
X67525968Y-128193262D01*
X67525970Y-128193262D01*
X67719600Y-128141379D01*
X67719602Y-128141378D01*
X67724910Y-128139956D01*
X67729892Y-128137633D01*
X67911577Y-128052912D01*
X67911580Y-128052910D01*
X67916558Y-128050589D01*
X68089776Y-127929301D01*
X68239301Y-127779776D01*
X68360589Y-127606558D01*
X68424629Y-127469225D01*
X68447633Y-127419892D01*
X68447634Y-127419891D01*
X68449956Y-127414910D01*
X68504686Y-127210655D01*
X68523116Y-127000000D01*
X68504686Y-126789345D01*
X68488830Y-126730170D01*
X68451379Y-126590400D01*
X68451378Y-126590398D01*
X68449956Y-126585090D01*
X68433477Y-126549750D01*
X68362912Y-126398423D01*
X68362910Y-126398420D01*
X68360589Y-126393442D01*
X68239301Y-126220224D01*
X68089776Y-126070699D01*
X67916558Y-125949411D01*
X67911580Y-125947090D01*
X67911577Y-125947088D01*
X67729892Y-125862367D01*
X67729891Y-125862366D01*
X67724910Y-125860044D01*
X67719602Y-125858622D01*
X67719600Y-125858621D01*
X67525970Y-125806738D01*
X67525968Y-125806738D01*
X67520655Y-125805314D01*
X67310000Y-125786884D01*
X67099345Y-125805314D01*
X67094032Y-125806738D01*
X67094030Y-125806738D01*
X66900400Y-125858621D01*
X66900398Y-125858622D01*
X66895090Y-125860044D01*
X66890109Y-125862366D01*
X66890108Y-125862367D01*
X66708423Y-125947088D01*
X66708420Y-125947090D01*
X66703442Y-125949411D01*
X66530224Y-126070699D01*
X66380699Y-126220224D01*
X66259411Y-126393442D01*
X66257088Y-126398423D01*
X66257086Y-126398427D01*
X66230301Y-126455868D01*
X66212064Y-126494979D01*
X66210867Y-126497545D01*
X66163950Y-126550831D01*
X66095673Y-126570292D01*
X66027713Y-126549750D01*
X65982477Y-126497546D01*
X65919849Y-126363238D01*
X65919846Y-126363233D01*
X65917523Y-126358251D01*
X65786198Y-126170700D01*
X65624300Y-126008802D01*
X65619792Y-126005645D01*
X65619789Y-126005643D01*
X65539481Y-125949411D01*
X65436749Y-125877477D01*
X65431767Y-125875154D01*
X65431762Y-125875151D01*
X65234225Y-125783039D01*
X65234224Y-125783039D01*
X65229243Y-125780716D01*
X65223935Y-125779294D01*
X65223933Y-125779293D01*
X65013402Y-125722881D01*
X65013400Y-125722881D01*
X65008087Y-125721457D01*
X64780000Y-125701502D01*
X64551913Y-125721457D01*
X64546600Y-125722881D01*
X64546598Y-125722881D01*
X64336067Y-125779293D01*
X64336065Y-125779294D01*
X64330757Y-125780716D01*
X64325776Y-125783039D01*
X64325775Y-125783039D01*
X64128238Y-125875151D01*
X64128233Y-125875154D01*
X64123251Y-125877477D01*
X64020519Y-125949411D01*
X63940211Y-126005643D01*
X63940208Y-126005645D01*
X63935700Y-126008802D01*
X63773802Y-126170700D01*
X63642477Y-126358251D01*
X63640154Y-126363233D01*
X63640151Y-126363238D01*
X63567527Y-126518982D01*
X63545716Y-126565757D01*
X63544294Y-126571065D01*
X63544293Y-126571067D01*
X63500194Y-126735647D01*
X63486457Y-126786913D01*
X63466502Y-127015000D01*
X63486457Y-127243087D01*
X63487881Y-127248400D01*
X63487881Y-127248402D01*
X63531899Y-127412676D01*
X63545716Y-127464243D01*
X63548039Y-127469224D01*
X63548039Y-127469225D01*
X63640151Y-127666762D01*
X63640154Y-127666767D01*
X63642477Y-127671749D01*
X63645634Y-127676257D01*
X63742538Y-127814650D01*
X63773802Y-127859300D01*
X63935700Y-128021198D01*
X63940208Y-128024355D01*
X63940211Y-128024357D01*
X63980992Y-128052912D01*
X64123251Y-128152523D01*
X64128233Y-128154846D01*
X64128238Y-128154849D01*
X64162457Y-128170805D01*
X64215742Y-128217722D01*
X64235203Y-128285999D01*
X64214661Y-128353959D01*
X64162457Y-128399195D01*
X64128238Y-128415151D01*
X64128233Y-128415154D01*
X64123251Y-128417477D01*
X64020519Y-128489411D01*
X63940211Y-128545643D01*
X63940208Y-128545645D01*
X63935700Y-128548802D01*
X63773802Y-128710700D01*
X63642477Y-128898251D01*
X63640154Y-128903233D01*
X63640151Y-128903238D01*
X63567523Y-129058991D01*
X63545716Y-129105757D01*
X63544294Y-129111065D01*
X63544293Y-129111067D01*
X63487881Y-129321598D01*
X63486457Y-129326913D01*
X63466502Y-129555000D01*
X63486457Y-129783087D01*
X63487881Y-129788400D01*
X63487881Y-129788402D01*
X63540240Y-129983805D01*
X63545716Y-130004243D01*
X63548039Y-130009224D01*
X63548039Y-130009225D01*
X63640151Y-130206762D01*
X63640154Y-130206767D01*
X63642477Y-130211749D01*
X63773802Y-130399300D01*
X63935700Y-130561198D01*
X63940208Y-130564355D01*
X63940211Y-130564357D01*
X63980992Y-130592912D01*
X64123251Y-130692523D01*
X64128233Y-130694846D01*
X64128238Y-130694849D01*
X64162457Y-130710805D01*
X64215742Y-130757722D01*
X64235203Y-130825999D01*
X64214661Y-130893959D01*
X64162457Y-130939195D01*
X64128238Y-130955151D01*
X64128233Y-130955154D01*
X64123251Y-130957477D01*
X64018389Y-131030902D01*
X63940211Y-131085643D01*
X63940208Y-131085645D01*
X63935700Y-131088802D01*
X63773802Y-131250700D01*
X63642477Y-131438251D01*
X63640154Y-131443233D01*
X63640151Y-131443238D01*
X63548039Y-131640775D01*
X63545716Y-131645757D01*
X63544294Y-131651065D01*
X63544293Y-131651067D01*
X63502441Y-131807260D01*
X63486457Y-131866913D01*
X63466502Y-132095000D01*
X63486457Y-132323087D01*
X63487881Y-132328400D01*
X63487881Y-132328402D01*
X63510375Y-132412348D01*
X63545716Y-132544243D01*
X63548039Y-132549224D01*
X63548039Y-132549225D01*
X63640151Y-132746762D01*
X63640154Y-132746767D01*
X63642477Y-132751749D01*
X63659747Y-132776413D01*
X63744547Y-132897519D01*
X63773802Y-132939300D01*
X63935700Y-133101198D01*
X63940208Y-133104355D01*
X63940211Y-133104357D01*
X64018389Y-133159098D01*
X64123251Y-133232523D01*
X64128233Y-133234846D01*
X64128238Y-133234849D01*
X64162457Y-133250805D01*
X64215742Y-133297722D01*
X64235203Y-133365999D01*
X64214661Y-133433959D01*
X64162457Y-133479195D01*
X64128238Y-133495151D01*
X64128233Y-133495154D01*
X64123251Y-133497477D01*
X64023218Y-133567521D01*
X63940211Y-133625643D01*
X63940208Y-133625645D01*
X63935700Y-133628802D01*
X63773802Y-133790700D01*
X63770645Y-133795208D01*
X63770643Y-133795211D01*
X63750312Y-133824247D01*
X63642477Y-133978251D01*
X63640154Y-133983233D01*
X63640151Y-133983238D01*
X63623663Y-134018598D01*
X63545716Y-134185757D01*
X63544294Y-134191065D01*
X63544293Y-134191067D01*
X63487881Y-134401598D01*
X63486457Y-134406913D01*
X63466502Y-134635000D01*
X63486457Y-134863087D01*
X63487881Y-134868400D01*
X63487881Y-134868402D01*
X63543071Y-135074370D01*
X63545716Y-135084243D01*
X63548039Y-135089224D01*
X63548039Y-135089225D01*
X63640151Y-135286762D01*
X63640154Y-135286767D01*
X63642477Y-135291749D01*
X63773802Y-135479300D01*
X63935700Y-135641198D01*
X63940208Y-135644355D01*
X63940211Y-135644357D01*
X64018389Y-135699098D01*
X64123251Y-135772523D01*
X64128233Y-135774846D01*
X64128238Y-135774849D01*
X64163049Y-135791081D01*
X64216334Y-135837998D01*
X64235795Y-135906275D01*
X64215253Y-135974235D01*
X64163049Y-136019471D01*
X64128489Y-136035586D01*
X64118993Y-136041069D01*
X63940533Y-136166028D01*
X63932125Y-136173084D01*
X63778084Y-136327125D01*
X63771028Y-136335533D01*
X63646069Y-136513993D01*
X63640586Y-136523489D01*
X63548510Y-136720947D01*
X63544764Y-136731239D01*
X63498606Y-136903503D01*
X63498942Y-136917599D01*
X63506884Y-136921000D01*
X66047967Y-136921000D01*
X66061498Y-136917027D01*
X66062727Y-136908478D01*
X66015236Y-136731239D01*
X66011490Y-136720947D01*
X65919414Y-136523489D01*
X65913931Y-136513993D01*
X65788972Y-136335533D01*
X65781916Y-136327125D01*
X65627875Y-136173084D01*
X65619467Y-136166028D01*
X65441007Y-136041069D01*
X65431511Y-136035586D01*
X65396951Y-136019471D01*
X65343666Y-135972554D01*
X65324205Y-135904277D01*
X65344747Y-135836317D01*
X65396951Y-135791081D01*
X65431762Y-135774849D01*
X65431767Y-135774846D01*
X65436749Y-135772523D01*
X65541611Y-135699098D01*
X65619789Y-135644357D01*
X65619792Y-135644355D01*
X65624300Y-135641198D01*
X65786198Y-135479300D01*
X65917523Y-135291749D01*
X65919846Y-135286767D01*
X65919849Y-135286762D01*
X66011961Y-135089225D01*
X66011961Y-135089224D01*
X66014284Y-135084243D01*
X66016930Y-135074370D01*
X66072119Y-134868402D01*
X66072119Y-134868400D01*
X66073543Y-134863087D01*
X66093498Y-134635000D01*
X66073543Y-134406913D01*
X66072119Y-134401598D01*
X66015707Y-134191067D01*
X66015706Y-134191065D01*
X66014284Y-134185757D01*
X65936337Y-134018598D01*
X65919849Y-133983238D01*
X65919846Y-133983233D01*
X65917523Y-133978251D01*
X65809688Y-133824247D01*
X65789357Y-133795211D01*
X65789355Y-133795208D01*
X65786198Y-133790700D01*
X65624300Y-133628802D01*
X65619792Y-133625645D01*
X65619789Y-133625643D01*
X65536782Y-133567521D01*
X65436749Y-133497477D01*
X65431767Y-133495154D01*
X65431762Y-133495151D01*
X65397543Y-133479195D01*
X65344258Y-133432278D01*
X65324797Y-133364001D01*
X65345339Y-133296041D01*
X65397543Y-133250805D01*
X65431762Y-133234849D01*
X65431767Y-133234846D01*
X65436749Y-133232523D01*
X65541611Y-133159098D01*
X65619789Y-133104357D01*
X65619792Y-133104355D01*
X65624300Y-133101198D01*
X65786198Y-132939300D01*
X65815454Y-132897519D01*
X65900253Y-132776413D01*
X65917523Y-132751749D01*
X65919846Y-132746767D01*
X65919849Y-132746762D01*
X66011961Y-132549225D01*
X66011961Y-132549224D01*
X66014284Y-132544243D01*
X66028324Y-132491845D01*
X66065276Y-132431222D01*
X66129136Y-132400201D01*
X66199631Y-132408629D01*
X66239126Y-132435361D01*
X72127346Y-138323580D01*
X72161372Y-138385892D01*
X72156307Y-138456707D01*
X72113760Y-138513543D01*
X72070862Y-138534382D01*
X71980400Y-138558621D01*
X71980398Y-138558622D01*
X71975090Y-138560044D01*
X71970109Y-138562366D01*
X71970108Y-138562367D01*
X71788423Y-138647088D01*
X71788420Y-138647090D01*
X71783442Y-138649411D01*
X71610224Y-138770699D01*
X71460699Y-138920224D01*
X71339411Y-139093442D01*
X71337090Y-139098420D01*
X71337088Y-139098423D01*
X71292800Y-139193399D01*
X71250044Y-139285090D01*
X71248622Y-139290398D01*
X71248621Y-139290400D01*
X71235453Y-139339544D01*
X71195314Y-139489345D01*
X71176884Y-139700000D01*
X71195314Y-139910655D01*
X71196738Y-139915968D01*
X71196738Y-139915970D01*
X71211926Y-139972650D01*
X71250044Y-140114910D01*
X71252366Y-140119891D01*
X71252367Y-140119892D01*
X71326954Y-140279843D01*
X71339411Y-140306558D01*
X71460699Y-140479776D01*
X71610224Y-140629301D01*
X71783442Y-140750589D01*
X71788420Y-140752910D01*
X71788423Y-140752912D01*
X71864307Y-140788297D01*
X71897749Y-140803891D01*
X71900768Y-140805299D01*
X71954053Y-140852216D01*
X71973514Y-140920494D01*
X71952972Y-140988453D01*
X71900768Y-141033689D01*
X71758238Y-141100151D01*
X71758233Y-141100154D01*
X71753251Y-141102477D01*
X71659740Y-141167954D01*
X71570211Y-141230643D01*
X71570208Y-141230645D01*
X71565700Y-141233802D01*
X71403802Y-141395700D01*
X71400645Y-141400208D01*
X71400643Y-141400211D01*
X71356353Y-141463464D01*
X71272477Y-141583251D01*
X71270154Y-141588233D01*
X71270151Y-141588238D01*
X71200487Y-141737635D01*
X71175716Y-141790757D01*
X71174294Y-141796065D01*
X71174293Y-141796067D01*
X71171697Y-141805757D01*
X71116457Y-142011913D01*
X71096502Y-142240000D01*
X71116457Y-142468087D01*
X71117881Y-142473400D01*
X71117881Y-142473402D01*
X71161899Y-142637676D01*
X71175716Y-142689243D01*
X71178039Y-142694224D01*
X71178039Y-142694225D01*
X71270151Y-142891762D01*
X71270154Y-142891767D01*
X71272477Y-142896749D01*
X71284279Y-142913604D01*
X71372538Y-143039650D01*
X71403802Y-143084300D01*
X71530633Y-143211131D01*
X71564659Y-143273443D01*
X71559594Y-143344258D01*
X71517047Y-143401094D01*
X71455146Y-143425489D01*
X71429684Y-143428255D01*
X71293295Y-143479385D01*
X71176739Y-143566739D01*
X71089385Y-143683295D01*
X71038255Y-143819684D01*
X71031500Y-143881866D01*
X71031500Y-145678134D01*
X71038255Y-145740316D01*
X71089385Y-145876705D01*
X71176739Y-145993261D01*
X71293295Y-146080615D01*
X71429684Y-146131745D01*
X71491866Y-146138500D01*
X73288134Y-146138500D01*
X73350316Y-146131745D01*
X73486705Y-146080615D01*
X73603261Y-145993261D01*
X73690615Y-145876705D01*
X73741745Y-145740316D01*
X73748500Y-145678134D01*
X73748500Y-143881866D01*
X73741745Y-143819684D01*
X73690615Y-143683295D01*
X73603261Y-143566739D01*
X73486705Y-143479385D01*
X73474399Y-143474772D01*
X73357712Y-143431027D01*
X73357707Y-143431026D01*
X73350316Y-143428255D01*
X73343778Y-143427545D01*
X73282641Y-143392616D01*
X73249822Y-143329661D01*
X73256249Y-143258956D01*
X73284340Y-143216158D01*
X73416198Y-143084300D01*
X73447463Y-143039650D01*
X73544369Y-142901253D01*
X73547523Y-142896749D01*
X73549846Y-142891767D01*
X73550882Y-142889973D01*
X73602266Y-142840981D01*
X73671979Y-142827546D01*
X73737890Y-142853934D01*
X73769118Y-142889973D01*
X73770154Y-142891767D01*
X73772477Y-142896749D01*
X73775631Y-142901253D01*
X73872538Y-143039650D01*
X73903802Y-143084300D01*
X74065700Y-143246198D01*
X74097771Y-143268655D01*
X74142099Y-143324110D01*
X74151500Y-143371867D01*
X74151500Y-146973629D01*
X74131498Y-147041750D01*
X74114595Y-147062724D01*
X73382724Y-147794595D01*
X73320412Y-147828621D01*
X73293629Y-147831500D01*
X59226932Y-147831500D01*
X59158811Y-147811498D01*
X59112318Y-147757842D01*
X59102214Y-147687568D01*
X59131708Y-147622988D01*
X59168538Y-147594372D01*
X59171457Y-147593313D01*
X59216520Y-147563768D01*
X59232496Y-147553294D01*
X59236200Y-147550957D01*
X59298627Y-147513075D01*
X59307004Y-147505677D01*
X59307028Y-147505704D01*
X59310020Y-147503051D01*
X59313253Y-147500348D01*
X59319372Y-147496336D01*
X59372648Y-147440097D01*
X59375026Y-147437655D01*
X61448911Y-145363770D01*
X61463323Y-145351384D01*
X61474918Y-145342851D01*
X61474923Y-145342846D01*
X61480818Y-145338508D01*
X61485557Y-145332930D01*
X61485560Y-145332927D01*
X61515035Y-145298232D01*
X61521965Y-145290716D01*
X61527661Y-145285020D01*
X61529924Y-145282159D01*
X61529929Y-145282154D01*
X61545293Y-145262734D01*
X61548082Y-145259333D01*
X61565413Y-145238933D01*
X61595333Y-145203715D01*
X61598659Y-145197202D01*
X61602020Y-145192163D01*
X61605196Y-145187021D01*
X61609734Y-145181284D01*
X61640655Y-145115125D01*
X61642561Y-145111225D01*
X61675769Y-145046192D01*
X61677508Y-145039083D01*
X61679604Y-145033449D01*
X61681523Y-145027679D01*
X61684622Y-145021050D01*
X61699491Y-144949565D01*
X61700461Y-144945282D01*
X61706613Y-144920140D01*
X61717808Y-144874390D01*
X61718500Y-144863236D01*
X61718535Y-144863238D01*
X61718775Y-144859266D01*
X61719152Y-144855045D01*
X61720641Y-144847885D01*
X61719210Y-144795000D01*
X63466502Y-144795000D01*
X63486457Y-145023087D01*
X63487881Y-145028400D01*
X63487881Y-145028402D01*
X63536351Y-145209291D01*
X63545716Y-145244243D01*
X63548039Y-145249224D01*
X63548039Y-145249225D01*
X63640151Y-145446762D01*
X63640154Y-145446767D01*
X63642477Y-145451749D01*
X63678317Y-145502933D01*
X63765621Y-145627616D01*
X63773802Y-145639300D01*
X63935700Y-145801198D01*
X63940208Y-145804355D01*
X63940211Y-145804357D01*
X63974061Y-145828059D01*
X64123251Y-145932523D01*
X64128233Y-145934846D01*
X64128238Y-145934849D01*
X64285235Y-146008057D01*
X64330757Y-146029284D01*
X64336065Y-146030706D01*
X64336067Y-146030707D01*
X64546598Y-146087119D01*
X64546600Y-146087119D01*
X64551913Y-146088543D01*
X64780000Y-146108498D01*
X65008087Y-146088543D01*
X65013400Y-146087119D01*
X65013402Y-146087119D01*
X65223933Y-146030707D01*
X65223935Y-146030706D01*
X65229243Y-146029284D01*
X65274765Y-146008057D01*
X65431762Y-145934849D01*
X65431767Y-145934846D01*
X65436749Y-145932523D01*
X65585939Y-145828059D01*
X65619789Y-145804357D01*
X65619792Y-145804355D01*
X65624300Y-145801198D01*
X65786198Y-145639300D01*
X65794380Y-145627616D01*
X65881683Y-145502933D01*
X65917523Y-145451749D01*
X65919846Y-145446767D01*
X65919849Y-145446762D01*
X66011961Y-145249225D01*
X66011961Y-145249224D01*
X66014284Y-145244243D01*
X66023650Y-145209291D01*
X66072119Y-145028402D01*
X66072119Y-145028400D01*
X66073543Y-145023087D01*
X66093498Y-144795000D01*
X66073543Y-144566913D01*
X66072119Y-144561598D01*
X66015707Y-144351067D01*
X66015706Y-144351065D01*
X66014284Y-144345757D01*
X66011961Y-144340775D01*
X65919849Y-144143238D01*
X65919846Y-144143233D01*
X65917523Y-144138251D01*
X65786198Y-143950700D01*
X65624300Y-143788802D01*
X65619792Y-143785645D01*
X65619789Y-143785643D01*
X65541611Y-143730902D01*
X65436749Y-143657477D01*
X65431767Y-143655154D01*
X65431762Y-143655151D01*
X65397543Y-143639195D01*
X65344258Y-143592278D01*
X65324797Y-143524001D01*
X65345339Y-143456041D01*
X65397543Y-143410805D01*
X65431762Y-143394849D01*
X65431767Y-143394846D01*
X65436749Y-143392523D01*
X65582798Y-143290258D01*
X65619789Y-143264357D01*
X65619792Y-143264355D01*
X65624300Y-143261198D01*
X65786198Y-143099300D01*
X65793973Y-143088197D01*
X65914366Y-142916257D01*
X65917523Y-142911749D01*
X65919846Y-142906767D01*
X65919849Y-142906762D01*
X66011961Y-142709225D01*
X66011961Y-142709224D01*
X66014284Y-142704243D01*
X66016969Y-142694225D01*
X66072119Y-142488402D01*
X66072119Y-142488400D01*
X66073543Y-142483087D01*
X66093498Y-142255000D01*
X66073543Y-142026913D01*
X66068100Y-142006598D01*
X66015707Y-141811067D01*
X66015706Y-141811065D01*
X66014284Y-141805757D01*
X66009766Y-141796067D01*
X65919849Y-141603238D01*
X65919846Y-141603233D01*
X65917523Y-141598251D01*
X65786198Y-141410700D01*
X65624300Y-141248802D01*
X65619792Y-141245645D01*
X65619789Y-141245643D01*
X65508837Y-141167954D01*
X65436749Y-141117477D01*
X65431767Y-141115154D01*
X65431762Y-141115151D01*
X65397543Y-141099195D01*
X65344258Y-141052278D01*
X65324797Y-140984001D01*
X65345339Y-140916041D01*
X65397543Y-140870805D01*
X65431762Y-140854849D01*
X65431767Y-140854846D01*
X65436749Y-140852523D01*
X65579008Y-140752912D01*
X65619789Y-140724357D01*
X65619792Y-140724355D01*
X65624300Y-140721198D01*
X65786198Y-140559300D01*
X65917523Y-140371749D01*
X65919846Y-140366767D01*
X65919849Y-140366762D01*
X66011961Y-140169225D01*
X66011961Y-140169224D01*
X66014284Y-140164243D01*
X66022214Y-140134650D01*
X66072119Y-139948402D01*
X66072119Y-139948400D01*
X66073543Y-139943087D01*
X66093498Y-139715000D01*
X66073543Y-139486913D01*
X66068325Y-139467438D01*
X66015707Y-139271067D01*
X66015706Y-139271065D01*
X66014284Y-139265757D01*
X65977631Y-139187154D01*
X65919849Y-139063238D01*
X65919846Y-139063233D01*
X65917523Y-139058251D01*
X65786198Y-138870700D01*
X65624300Y-138708802D01*
X65619792Y-138705645D01*
X65619789Y-138705643D01*
X65538321Y-138648599D01*
X65436749Y-138577477D01*
X65431767Y-138575154D01*
X65431762Y-138575151D01*
X65396951Y-138558919D01*
X65343666Y-138512002D01*
X65324205Y-138443725D01*
X65344747Y-138375765D01*
X65396951Y-138330529D01*
X65431511Y-138314414D01*
X65441007Y-138308931D01*
X65619467Y-138183972D01*
X65627875Y-138176916D01*
X65781916Y-138022875D01*
X65788972Y-138014467D01*
X65913931Y-137836007D01*
X65919414Y-137826511D01*
X66011490Y-137629053D01*
X66015236Y-137618761D01*
X66061394Y-137446497D01*
X66061058Y-137432401D01*
X66053116Y-137429000D01*
X63512033Y-137429000D01*
X63498502Y-137432973D01*
X63497273Y-137441522D01*
X63544764Y-137618761D01*
X63548510Y-137629053D01*
X63640586Y-137826511D01*
X63646069Y-137836007D01*
X63771028Y-138014467D01*
X63778084Y-138022875D01*
X63932125Y-138176916D01*
X63940533Y-138183972D01*
X64118993Y-138308931D01*
X64128489Y-138314414D01*
X64163049Y-138330529D01*
X64216334Y-138377446D01*
X64235795Y-138445723D01*
X64215253Y-138513683D01*
X64163049Y-138558919D01*
X64128238Y-138575151D01*
X64128233Y-138575154D01*
X64123251Y-138577477D01*
X64021679Y-138648599D01*
X63940211Y-138705643D01*
X63940208Y-138705645D01*
X63935700Y-138708802D01*
X63773802Y-138870700D01*
X63642477Y-139058251D01*
X63640154Y-139063233D01*
X63640151Y-139063238D01*
X63582369Y-139187154D01*
X63545716Y-139265757D01*
X63544294Y-139271065D01*
X63544293Y-139271067D01*
X63491675Y-139467438D01*
X63486457Y-139486913D01*
X63466502Y-139715000D01*
X63486457Y-139943087D01*
X63487881Y-139948400D01*
X63487881Y-139948402D01*
X63537787Y-140134650D01*
X63545716Y-140164243D01*
X63548039Y-140169224D01*
X63548039Y-140169225D01*
X63640151Y-140366762D01*
X63640154Y-140366767D01*
X63642477Y-140371749D01*
X63773802Y-140559300D01*
X63935700Y-140721198D01*
X63940208Y-140724355D01*
X63940211Y-140724357D01*
X63980992Y-140752912D01*
X64123251Y-140852523D01*
X64128233Y-140854846D01*
X64128238Y-140854849D01*
X64162457Y-140870805D01*
X64215742Y-140917722D01*
X64235203Y-140985999D01*
X64214661Y-141053959D01*
X64162457Y-141099195D01*
X64128238Y-141115151D01*
X64128233Y-141115154D01*
X64123251Y-141117477D01*
X64051163Y-141167954D01*
X63940211Y-141245643D01*
X63940208Y-141245645D01*
X63935700Y-141248802D01*
X63773802Y-141410700D01*
X63642477Y-141598251D01*
X63640154Y-141603233D01*
X63640151Y-141603238D01*
X63550234Y-141796067D01*
X63545716Y-141805757D01*
X63544294Y-141811065D01*
X63544293Y-141811067D01*
X63491900Y-142006598D01*
X63486457Y-142026913D01*
X63466502Y-142255000D01*
X63486457Y-142483087D01*
X63487881Y-142488400D01*
X63487881Y-142488402D01*
X63543032Y-142694225D01*
X63545716Y-142704243D01*
X63548039Y-142709224D01*
X63548039Y-142709225D01*
X63640151Y-142906762D01*
X63640154Y-142906767D01*
X63642477Y-142911749D01*
X63645634Y-142916257D01*
X63766028Y-143088197D01*
X63773802Y-143099300D01*
X63935700Y-143261198D01*
X63940208Y-143264355D01*
X63940211Y-143264357D01*
X63977202Y-143290258D01*
X64123251Y-143392523D01*
X64128233Y-143394846D01*
X64128238Y-143394849D01*
X64162457Y-143410805D01*
X64215742Y-143457722D01*
X64235203Y-143525999D01*
X64214661Y-143593959D01*
X64162457Y-143639195D01*
X64128238Y-143655151D01*
X64128233Y-143655154D01*
X64123251Y-143657477D01*
X64018389Y-143730902D01*
X63940211Y-143785643D01*
X63940208Y-143785645D01*
X63935700Y-143788802D01*
X63773802Y-143950700D01*
X63642477Y-144138251D01*
X63640154Y-144143233D01*
X63640151Y-144143238D01*
X63548039Y-144340775D01*
X63545716Y-144345757D01*
X63544294Y-144351065D01*
X63544293Y-144351067D01*
X63487881Y-144561598D01*
X63486457Y-144566913D01*
X63466502Y-144795000D01*
X61719210Y-144795000D01*
X61718546Y-144770458D01*
X61718500Y-144767050D01*
X61718500Y-127366371D01*
X61738502Y-127298250D01*
X61755405Y-127277276D01*
X63777276Y-125255405D01*
X63839588Y-125221379D01*
X63866371Y-125218500D01*
X67282165Y-125218500D01*
X67289966Y-125218742D01*
X67351298Y-125222547D01*
X67360360Y-125220990D01*
X67374641Y-125218536D01*
X67414889Y-125211620D01*
X67421610Y-125210652D01*
X67442535Y-125208212D01*
X67478411Y-125204030D01*
X67478414Y-125204029D01*
X67485681Y-125203182D01*
X67494607Y-125199942D01*
X67516258Y-125194201D01*
X67525614Y-125192594D01*
X67584996Y-125167327D01*
X67591289Y-125164848D01*
X67651937Y-125142833D01*
X67658739Y-125138374D01*
X67659878Y-125137627D01*
X67679615Y-125127067D01*
X67681623Y-125126213D01*
X67681635Y-125126206D01*
X67688364Y-125123343D01*
X67694256Y-125119007D01*
X67694261Y-125119004D01*
X67740332Y-125085100D01*
X67745928Y-125081210D01*
X67785418Y-125055319D01*
X67799852Y-125045856D01*
X67806384Y-125038961D01*
X67823166Y-125024139D01*
X67830818Y-125018508D01*
X67835553Y-125012935D01*
X67835560Y-125012928D01*
X67872581Y-124969351D01*
X67877133Y-124964277D01*
X67916457Y-124922766D01*
X67916458Y-124922765D01*
X67921490Y-124917453D01*
X67925165Y-124911126D01*
X67925172Y-124911117D01*
X67926267Y-124909232D01*
X67939185Y-124890953D01*
X67940594Y-124889294D01*
X67940596Y-124889291D01*
X67945333Y-124883715D01*
X67948659Y-124877201D01*
X67948662Y-124877197D01*
X67974670Y-124826264D01*
X67977932Y-124820281D01*
X68006649Y-124770841D01*
X68006650Y-124770839D01*
X68010326Y-124764510D01*
X68012447Y-124757506D01*
X68012449Y-124757502D01*
X68013078Y-124755425D01*
X68021451Y-124734649D01*
X68025769Y-124726192D01*
X68041108Y-124663505D01*
X68042891Y-124656988D01*
X68061595Y-124595233D01*
X68062183Y-124585754D01*
X68065551Y-124563617D01*
X68066474Y-124559846D01*
X68066476Y-124559834D01*
X68067808Y-124554390D01*
X68068500Y-124543236D01*
X68068500Y-124487835D01*
X68068742Y-124480033D01*
X68070315Y-124454681D01*
X68072547Y-124418702D01*
X68070320Y-124405740D01*
X68068500Y-124384404D01*
X68068500Y-122922767D01*
X68088502Y-122854646D01*
X68105405Y-122833672D01*
X68239301Y-122699776D01*
X68360589Y-122526558D01*
X68389434Y-122464701D01*
X68447633Y-122339892D01*
X68447634Y-122339891D01*
X68449956Y-122334910D01*
X68459639Y-122298775D01*
X68503262Y-122135970D01*
X68503262Y-122135968D01*
X68504686Y-122130655D01*
X68523116Y-121920000D01*
X68504686Y-121709345D01*
X68503262Y-121704030D01*
X68451379Y-121510400D01*
X68451378Y-121510398D01*
X68449956Y-121505090D01*
X68412304Y-121424345D01*
X68362912Y-121318423D01*
X68362910Y-121318420D01*
X68360589Y-121313442D01*
X68239301Y-121140224D01*
X68089776Y-120990699D01*
X67916558Y-120869411D01*
X67911580Y-120867090D01*
X67911577Y-120867088D01*
X67729892Y-120782367D01*
X67729891Y-120782366D01*
X67724910Y-120780044D01*
X67719602Y-120778622D01*
X67719600Y-120778621D01*
X67525970Y-120726738D01*
X67525968Y-120726738D01*
X67520655Y-120725314D01*
X67310000Y-120706884D01*
X67099345Y-120725314D01*
X67094032Y-120726738D01*
X67094030Y-120726738D01*
X66900400Y-120778621D01*
X66900398Y-120778622D01*
X66895090Y-120780044D01*
X66890109Y-120782366D01*
X66890108Y-120782367D01*
X66708423Y-120867088D01*
X66708420Y-120867090D01*
X66703442Y-120869411D01*
X66530224Y-120990699D01*
X66380699Y-121140224D01*
X66259411Y-121313442D01*
X66257090Y-121318420D01*
X66257088Y-121318423D01*
X66207696Y-121424345D01*
X66170044Y-121505090D01*
X66168622Y-121510398D01*
X66168621Y-121510400D01*
X66116738Y-121704030D01*
X66115314Y-121709345D01*
X66114835Y-121714825D01*
X66113879Y-121720244D01*
X66111977Y-121719909D01*
X66089233Y-121778080D01*
X66031737Y-121819729D01*
X65960850Y-121823682D01*
X65915503Y-121802934D01*
X65867092Y-121767762D01*
X65861752Y-121763882D01*
X65855724Y-121761198D01*
X65855722Y-121761197D01*
X65693319Y-121688891D01*
X65693318Y-121688891D01*
X65687288Y-121686206D01*
X65680833Y-121684834D01*
X65680824Y-121684831D01*
X65624228Y-121672801D01*
X65561331Y-121638650D01*
X65353770Y-121431089D01*
X65341384Y-121416677D01*
X65332851Y-121405082D01*
X65332846Y-121405077D01*
X65328508Y-121399182D01*
X65322930Y-121394443D01*
X65322927Y-121394440D01*
X65288232Y-121364965D01*
X65280716Y-121358035D01*
X65275021Y-121352340D01*
X65268880Y-121347482D01*
X65252749Y-121334719D01*
X65249345Y-121331928D01*
X65199297Y-121289409D01*
X65199295Y-121289408D01*
X65193715Y-121284667D01*
X65187199Y-121281339D01*
X65182150Y-121277972D01*
X65177021Y-121274805D01*
X65171284Y-121270266D01*
X65105125Y-121239345D01*
X65101225Y-121237439D01*
X65036192Y-121204231D01*
X65029084Y-121202492D01*
X65023441Y-121200393D01*
X65017678Y-121198476D01*
X65011050Y-121195378D01*
X64939583Y-121180513D01*
X64935299Y-121179543D01*
X64925152Y-121177060D01*
X64864390Y-121162192D01*
X64858788Y-121161844D01*
X64858785Y-121161844D01*
X64853236Y-121161500D01*
X64853238Y-121161464D01*
X64849245Y-121161225D01*
X64845053Y-121160851D01*
X64837885Y-121159360D01*
X64771675Y-121161151D01*
X64760479Y-121161454D01*
X64757072Y-121161500D01*
X61962767Y-121161500D01*
X61894646Y-121141498D01*
X61873672Y-121124595D01*
X61739776Y-120990699D01*
X61566558Y-120869411D01*
X61561580Y-120867090D01*
X61561577Y-120867088D01*
X61379892Y-120782367D01*
X61379891Y-120782366D01*
X61374910Y-120780044D01*
X61369602Y-120778622D01*
X61369600Y-120778621D01*
X61175970Y-120726738D01*
X61175968Y-120726738D01*
X61170655Y-120725314D01*
X61165179Y-120724835D01*
X61165174Y-120724834D01*
X61158631Y-120724262D01*
X61092513Y-120698399D01*
X61080517Y-120687836D01*
X59895405Y-119502724D01*
X59861379Y-119440412D01*
X59858500Y-119413629D01*
X59858500Y-119340000D01*
X68526464Y-119340000D01*
X68546571Y-119569830D01*
X68606283Y-119792676D01*
X68634994Y-119854247D01*
X68701458Y-119996781D01*
X68701461Y-119996786D01*
X68703784Y-120001768D01*
X68836113Y-120190753D01*
X68999247Y-120353887D01*
X69003755Y-120357044D01*
X69003758Y-120357046D01*
X69027170Y-120373439D01*
X69188232Y-120486216D01*
X69193214Y-120488539D01*
X69193219Y-120488542D01*
X69227577Y-120504563D01*
X69397324Y-120583717D01*
X69620170Y-120643429D01*
X69850000Y-120663536D01*
X70079830Y-120643429D01*
X70302676Y-120583717D01*
X70472423Y-120504563D01*
X70506781Y-120488542D01*
X70506786Y-120488539D01*
X70511768Y-120486216D01*
X70672830Y-120373439D01*
X70696242Y-120357046D01*
X70696245Y-120357044D01*
X70700753Y-120353887D01*
X70863887Y-120190753D01*
X70996216Y-120001768D01*
X70998539Y-119996786D01*
X70998542Y-119996781D01*
X71065006Y-119854247D01*
X71093717Y-119792676D01*
X71153429Y-119569830D01*
X71173536Y-119340000D01*
X71153429Y-119110170D01*
X71093717Y-118887324D01*
X71008512Y-118704600D01*
X70998542Y-118683219D01*
X70998539Y-118683214D01*
X70996216Y-118678232D01*
X70909622Y-118554563D01*
X70867046Y-118493758D01*
X70867044Y-118493755D01*
X70863887Y-118489247D01*
X70700753Y-118326113D01*
X70696245Y-118322956D01*
X70696242Y-118322954D01*
X70617370Y-118267728D01*
X70511768Y-118193784D01*
X70506786Y-118191461D01*
X70506781Y-118191458D01*
X70332092Y-118110000D01*
X70302676Y-118096283D01*
X70079830Y-118036571D01*
X69850000Y-118016464D01*
X69620170Y-118036571D01*
X69397324Y-118096283D01*
X69367908Y-118110000D01*
X69193219Y-118191458D01*
X69193214Y-118191461D01*
X69188232Y-118193784D01*
X69082630Y-118267728D01*
X69003758Y-118322954D01*
X69003755Y-118322956D01*
X68999247Y-118326113D01*
X68836113Y-118489247D01*
X68832956Y-118493755D01*
X68832954Y-118493758D01*
X68790378Y-118554563D01*
X68703784Y-118678232D01*
X68701461Y-118683214D01*
X68701458Y-118683219D01*
X68691488Y-118704600D01*
X68606283Y-118887324D01*
X68546571Y-119110170D01*
X68526464Y-119340000D01*
X59858500Y-119340000D01*
X59858500Y-118704600D01*
X59855764Y-118678232D01*
X59848238Y-118605692D01*
X59848237Y-118605688D01*
X59847526Y-118598834D01*
X59841856Y-118581837D01*
X59793868Y-118438002D01*
X59791550Y-118431054D01*
X59698478Y-118280652D01*
X59573303Y-118155695D01*
X59553404Y-118143429D01*
X59428968Y-118066725D01*
X59428966Y-118066724D01*
X59422738Y-118062885D01*
X59320577Y-118029000D01*
X59261389Y-118009368D01*
X59261387Y-118009368D01*
X59254861Y-118007203D01*
X59248025Y-118006503D01*
X59248022Y-118006502D01*
X59204969Y-118002091D01*
X59150400Y-117996500D01*
X58249600Y-117996500D01*
X58246354Y-117996837D01*
X58246350Y-117996837D01*
X58150692Y-118006762D01*
X58150688Y-118006763D01*
X58143834Y-118007474D01*
X58137298Y-118009655D01*
X58137296Y-118009655D01*
X58040518Y-118041943D01*
X57976054Y-118063450D01*
X57825652Y-118156522D01*
X57700695Y-118281697D01*
X57607885Y-118432262D01*
X57592559Y-118478469D01*
X57556489Y-118587218D01*
X57552203Y-118600139D01*
X57541500Y-118704600D01*
X57541500Y-120055400D01*
X57552474Y-120161166D01*
X57554655Y-120167702D01*
X57554655Y-120167704D01*
X57571153Y-120217154D01*
X57608450Y-120328946D01*
X57701522Y-120479348D01*
X57706704Y-120484521D01*
X57719644Y-120497438D01*
X57826697Y-120604305D01*
X57832927Y-120608145D01*
X57832928Y-120608146D01*
X57962209Y-120687836D01*
X57977262Y-120697115D01*
X58057005Y-120723564D01*
X58138611Y-120750632D01*
X58138613Y-120750632D01*
X58145139Y-120752797D01*
X58151975Y-120753497D01*
X58151978Y-120753498D01*
X58195031Y-120757909D01*
X58249600Y-120763500D01*
X58958629Y-120763500D01*
X59026750Y-120783502D01*
X59047724Y-120800405D01*
X59754311Y-121506992D01*
X59788337Y-121569304D01*
X59786923Y-121628698D01*
X59766738Y-121704030D01*
X59765314Y-121709345D01*
X59746884Y-121920000D01*
X59747363Y-121925475D01*
X59747363Y-121925486D01*
X59752659Y-121986015D01*
X59738671Y-122055619D01*
X59723168Y-122078570D01*
X59694955Y-122111780D01*
X59688035Y-122119284D01*
X59682340Y-122124979D01*
X59680060Y-122127861D01*
X59664719Y-122147251D01*
X59661928Y-122150655D01*
X59624135Y-122195140D01*
X59614667Y-122206285D01*
X59611339Y-122212801D01*
X59607972Y-122217850D01*
X59604805Y-122222979D01*
X59600266Y-122228716D01*
X59569345Y-122294875D01*
X59567442Y-122298769D01*
X59534231Y-122363808D01*
X59532492Y-122370916D01*
X59530393Y-122376559D01*
X59528476Y-122382322D01*
X59525378Y-122388950D01*
X59523888Y-122396112D01*
X59523888Y-122396113D01*
X59510514Y-122460412D01*
X59509544Y-122464696D01*
X59492192Y-122535610D01*
X59491500Y-122546764D01*
X59491464Y-122546762D01*
X59491225Y-122550755D01*
X59490851Y-122554947D01*
X59489360Y-122562115D01*
X59489558Y-122569432D01*
X59491454Y-122639521D01*
X59491500Y-122642928D01*
X59491500Y-123094631D01*
X59471498Y-123162752D01*
X59431807Y-123201772D01*
X59375652Y-123236522D01*
X59250695Y-123361697D01*
X59246855Y-123367927D01*
X59246854Y-123367928D01*
X59169766Y-123492988D01*
X59157885Y-123512262D01*
X59145988Y-123548131D01*
X59107359Y-123664595D01*
X59102203Y-123680139D01*
X59101503Y-123686975D01*
X59101502Y-123686978D01*
X59098482Y-123716455D01*
X59091500Y-123784600D01*
X59091500Y-125135400D01*
X59091837Y-125138646D01*
X59091837Y-125138650D01*
X59101532Y-125232083D01*
X59102474Y-125241166D01*
X59104655Y-125247702D01*
X59104655Y-125247704D01*
X59111249Y-125267467D01*
X59158450Y-125408946D01*
X59251522Y-125559348D01*
X59376697Y-125684305D01*
X59382927Y-125688145D01*
X59382928Y-125688146D01*
X59515348Y-125769771D01*
X59527262Y-125777115D01*
X59545177Y-125783057D01*
X59688611Y-125830632D01*
X59688613Y-125830632D01*
X59695139Y-125832797D01*
X59701975Y-125833497D01*
X59701978Y-125833498D01*
X59745031Y-125837909D01*
X59799600Y-125843500D01*
X60700400Y-125843500D01*
X60703646Y-125843163D01*
X60703650Y-125843163D01*
X60730412Y-125840386D01*
X60800234Y-125853251D01*
X60852016Y-125901822D01*
X60869318Y-125970678D01*
X60846648Y-126037957D01*
X60832511Y-126054808D01*
X60471089Y-126416230D01*
X60456677Y-126428616D01*
X60445082Y-126437149D01*
X60445077Y-126437154D01*
X60439182Y-126441492D01*
X60434443Y-126447070D01*
X60434440Y-126447073D01*
X60404965Y-126481768D01*
X60398035Y-126489284D01*
X60392340Y-126494979D01*
X60390060Y-126497861D01*
X60374719Y-126517251D01*
X60371928Y-126520655D01*
X60333611Y-126565757D01*
X60324667Y-126576285D01*
X60321339Y-126582801D01*
X60317972Y-126587850D01*
X60314805Y-126592979D01*
X60310266Y-126598716D01*
X60279345Y-126664875D01*
X60277442Y-126668769D01*
X60244231Y-126733808D01*
X60242492Y-126740916D01*
X60240393Y-126746559D01*
X60238476Y-126752322D01*
X60235378Y-126758950D01*
X60233888Y-126766112D01*
X60233888Y-126766113D01*
X60220514Y-126830412D01*
X60219544Y-126834696D01*
X60202192Y-126905610D01*
X60201844Y-126911212D01*
X60201844Y-126911215D01*
X60201500Y-126916762D01*
X60201500Y-126916764D01*
X60201464Y-126916762D01*
X60201225Y-126920755D01*
X60200851Y-126924947D01*
X60199360Y-126932115D01*
X60199558Y-126939432D01*
X60201454Y-127009521D01*
X60201500Y-127012928D01*
X60201500Y-144413629D01*
X60181498Y-144481750D01*
X60164595Y-144502724D01*
X58552244Y-146115075D01*
X58489932Y-146149101D01*
X58463149Y-146151980D01*
X57902953Y-146151980D01*
X57834832Y-146131978D01*
X57788339Y-146078322D01*
X57778235Y-146008048D01*
X57807729Y-145943468D01*
X57830682Y-145922767D01*
X57999789Y-145804357D01*
X57999792Y-145804355D01*
X58004300Y-145801198D01*
X58166198Y-145639300D01*
X58174380Y-145627616D01*
X58261683Y-145502933D01*
X58297523Y-145451749D01*
X58299846Y-145446767D01*
X58299849Y-145446762D01*
X58391961Y-145249225D01*
X58391961Y-145249224D01*
X58394284Y-145244243D01*
X58403650Y-145209291D01*
X58452119Y-145028402D01*
X58452119Y-145028400D01*
X58453543Y-145023087D01*
X58473498Y-144795000D01*
X58453543Y-144566913D01*
X58452119Y-144561598D01*
X58395707Y-144351067D01*
X58395706Y-144351065D01*
X58394284Y-144345757D01*
X58391961Y-144340775D01*
X58299849Y-144143238D01*
X58299846Y-144143233D01*
X58297523Y-144138251D01*
X58166198Y-143950700D01*
X58004300Y-143788802D01*
X57999792Y-143785645D01*
X57999789Y-143785643D01*
X57921611Y-143730902D01*
X57816749Y-143657477D01*
X57811767Y-143655154D01*
X57811762Y-143655151D01*
X57777543Y-143639195D01*
X57724258Y-143592278D01*
X57704797Y-143524001D01*
X57725339Y-143456041D01*
X57777543Y-143410805D01*
X57811762Y-143394849D01*
X57811767Y-143394846D01*
X57816749Y-143392523D01*
X57962798Y-143290258D01*
X57999789Y-143264357D01*
X57999792Y-143264355D01*
X58004300Y-143261198D01*
X58166198Y-143099300D01*
X58173973Y-143088197D01*
X58294366Y-142916257D01*
X58297523Y-142911749D01*
X58299846Y-142906767D01*
X58299849Y-142906762D01*
X58391961Y-142709225D01*
X58391961Y-142709224D01*
X58394284Y-142704243D01*
X58396969Y-142694225D01*
X58452119Y-142488402D01*
X58452119Y-142488400D01*
X58453543Y-142483087D01*
X58473498Y-142255000D01*
X58453543Y-142026913D01*
X58448100Y-142006598D01*
X58395707Y-141811067D01*
X58395706Y-141811065D01*
X58394284Y-141805757D01*
X58389766Y-141796067D01*
X58299849Y-141603238D01*
X58299846Y-141603233D01*
X58297523Y-141598251D01*
X58166198Y-141410700D01*
X58004300Y-141248802D01*
X57999792Y-141245645D01*
X57999789Y-141245643D01*
X57888837Y-141167954D01*
X57816749Y-141117477D01*
X57811767Y-141115154D01*
X57811762Y-141115151D01*
X57777543Y-141099195D01*
X57724258Y-141052278D01*
X57704797Y-140984001D01*
X57725339Y-140916041D01*
X57777543Y-140870805D01*
X57811762Y-140854849D01*
X57811767Y-140854846D01*
X57816749Y-140852523D01*
X57959008Y-140752912D01*
X57999789Y-140724357D01*
X57999792Y-140724355D01*
X58004300Y-140721198D01*
X58166198Y-140559300D01*
X58297523Y-140371749D01*
X58299846Y-140366767D01*
X58299849Y-140366762D01*
X58391961Y-140169225D01*
X58391961Y-140169224D01*
X58394284Y-140164243D01*
X58402214Y-140134650D01*
X58452119Y-139948402D01*
X58452119Y-139948400D01*
X58453543Y-139943087D01*
X58473498Y-139715000D01*
X58453543Y-139486913D01*
X58448325Y-139467438D01*
X58395707Y-139271067D01*
X58395706Y-139271065D01*
X58394284Y-139265757D01*
X58357631Y-139187154D01*
X58299849Y-139063238D01*
X58299846Y-139063233D01*
X58297523Y-139058251D01*
X58166198Y-138870700D01*
X58004300Y-138708802D01*
X57999792Y-138705645D01*
X57999789Y-138705643D01*
X57918321Y-138648599D01*
X57816749Y-138577477D01*
X57811767Y-138575154D01*
X57811762Y-138575151D01*
X57777543Y-138559195D01*
X57724258Y-138512278D01*
X57704797Y-138444001D01*
X57725339Y-138376041D01*
X57777543Y-138330805D01*
X57811762Y-138314849D01*
X57811767Y-138314846D01*
X57816749Y-138312523D01*
X57959008Y-138212912D01*
X57999789Y-138184357D01*
X57999792Y-138184355D01*
X58004300Y-138181198D01*
X58166198Y-138019300D01*
X58178530Y-138001689D01*
X58235419Y-137920442D01*
X58297523Y-137831749D01*
X58299846Y-137826767D01*
X58299849Y-137826762D01*
X58391961Y-137629225D01*
X58391961Y-137629224D01*
X58394284Y-137624243D01*
X58399541Y-137604626D01*
X58452119Y-137408402D01*
X58452119Y-137408400D01*
X58453543Y-137403087D01*
X58473498Y-137175000D01*
X58453543Y-136946913D01*
X58444960Y-136914881D01*
X58395707Y-136731067D01*
X58395706Y-136731065D01*
X58394284Y-136725757D01*
X58372477Y-136678991D01*
X58299849Y-136523238D01*
X58299846Y-136523233D01*
X58297523Y-136518251D01*
X58166198Y-136330700D01*
X58004300Y-136168802D01*
X57999792Y-136165645D01*
X57999789Y-136165643D01*
X57919481Y-136109411D01*
X57816749Y-136037477D01*
X57811767Y-136035154D01*
X57811762Y-136035151D01*
X57777543Y-136019195D01*
X57724258Y-135972278D01*
X57704797Y-135904001D01*
X57725339Y-135836041D01*
X57777543Y-135790805D01*
X57811762Y-135774849D01*
X57811767Y-135774846D01*
X57816749Y-135772523D01*
X57921611Y-135699098D01*
X57999789Y-135644357D01*
X57999792Y-135644355D01*
X58004300Y-135641198D01*
X58166198Y-135479300D01*
X58297523Y-135291749D01*
X58299846Y-135286767D01*
X58299849Y-135286762D01*
X58391961Y-135089225D01*
X58391961Y-135089224D01*
X58394284Y-135084243D01*
X58396930Y-135074370D01*
X58452119Y-134868402D01*
X58452119Y-134868400D01*
X58453543Y-134863087D01*
X58473498Y-134635000D01*
X58453543Y-134406913D01*
X58452119Y-134401598D01*
X58395707Y-134191067D01*
X58395706Y-134191065D01*
X58394284Y-134185757D01*
X58316337Y-134018598D01*
X58299849Y-133983238D01*
X58299846Y-133983233D01*
X58297523Y-133978251D01*
X58189688Y-133824247D01*
X58169357Y-133795211D01*
X58169355Y-133795208D01*
X58166198Y-133790700D01*
X58004300Y-133628802D01*
X57999792Y-133625645D01*
X57999789Y-133625643D01*
X57916782Y-133567521D01*
X57816749Y-133497477D01*
X57811767Y-133495154D01*
X57811762Y-133495151D01*
X57777543Y-133479195D01*
X57724258Y-133432278D01*
X57704797Y-133364001D01*
X57725339Y-133296041D01*
X57777543Y-133250805D01*
X57811762Y-133234849D01*
X57811767Y-133234846D01*
X57816749Y-133232523D01*
X57921611Y-133159098D01*
X57999789Y-133104357D01*
X57999792Y-133104355D01*
X58004300Y-133101198D01*
X58166198Y-132939300D01*
X58195454Y-132897519D01*
X58280253Y-132776413D01*
X58297523Y-132751749D01*
X58299846Y-132746767D01*
X58299849Y-132746762D01*
X58391961Y-132549225D01*
X58391961Y-132549224D01*
X58394284Y-132544243D01*
X58429626Y-132412348D01*
X58452119Y-132328402D01*
X58452119Y-132328400D01*
X58453543Y-132323087D01*
X58473498Y-132095000D01*
X58453543Y-131866913D01*
X58437559Y-131807260D01*
X58395707Y-131651067D01*
X58395706Y-131651065D01*
X58394284Y-131645757D01*
X58391961Y-131640775D01*
X58299849Y-131443238D01*
X58299846Y-131443233D01*
X58297523Y-131438251D01*
X58166198Y-131250700D01*
X58004300Y-131088802D01*
X57999792Y-131085645D01*
X57999789Y-131085643D01*
X57921611Y-131030902D01*
X57816749Y-130957477D01*
X57811767Y-130955154D01*
X57811762Y-130955151D01*
X57777543Y-130939195D01*
X57724258Y-130892278D01*
X57704797Y-130824001D01*
X57725339Y-130756041D01*
X57777543Y-130710805D01*
X57811762Y-130694849D01*
X57811767Y-130694846D01*
X57816749Y-130692523D01*
X57959008Y-130592912D01*
X57999789Y-130564357D01*
X57999792Y-130564355D01*
X58004300Y-130561198D01*
X58166198Y-130399300D01*
X58297523Y-130211749D01*
X58299846Y-130206767D01*
X58299849Y-130206762D01*
X58391961Y-130009225D01*
X58391961Y-130009224D01*
X58394284Y-130004243D01*
X58399761Y-129983805D01*
X58452119Y-129788402D01*
X58452119Y-129788400D01*
X58453543Y-129783087D01*
X58473498Y-129555000D01*
X58453543Y-129326913D01*
X58452119Y-129321598D01*
X58395707Y-129111067D01*
X58395706Y-129111065D01*
X58394284Y-129105757D01*
X58372477Y-129058991D01*
X58299849Y-128903238D01*
X58299846Y-128903233D01*
X58297523Y-128898251D01*
X58166198Y-128710700D01*
X58004300Y-128548802D01*
X57999789Y-128545643D01*
X57995576Y-128542108D01*
X57996527Y-128540974D01*
X57956529Y-128490929D01*
X57949224Y-128420310D01*
X57981258Y-128356951D01*
X58042462Y-128320970D01*
X58059517Y-128317918D01*
X58070316Y-128316745D01*
X58206705Y-128265615D01*
X58323261Y-128178261D01*
X58410615Y-128061705D01*
X58461745Y-127925316D01*
X58468500Y-127863134D01*
X58468500Y-126166866D01*
X58461745Y-126104684D01*
X58410615Y-125968295D01*
X58323261Y-125851739D01*
X58206705Y-125764385D01*
X58197658Y-125760994D01*
X58197117Y-125760587D01*
X58190425Y-125756923D01*
X58190954Y-125755957D01*
X58140892Y-125718355D01*
X58116190Y-125651794D01*
X58131394Y-125582445D01*
X58143000Y-125564919D01*
X58144134Y-125563483D01*
X58149305Y-125558303D01*
X58242115Y-125407738D01*
X58288641Y-125267467D01*
X58295632Y-125246389D01*
X58295632Y-125246387D01*
X58297797Y-125239861D01*
X58299564Y-125222622D01*
X58305228Y-125167330D01*
X58308500Y-125135400D01*
X58308500Y-123784600D01*
X58306300Y-123763393D01*
X58298238Y-123685692D01*
X58298237Y-123685688D01*
X58297526Y-123678834D01*
X58292776Y-123664595D01*
X58243868Y-123518002D01*
X58241550Y-123511054D01*
X58148478Y-123360652D01*
X58023303Y-123235695D01*
X57994287Y-123217809D01*
X57878968Y-123146725D01*
X57878966Y-123146724D01*
X57872738Y-123142885D01*
X57783427Y-123113262D01*
X57711389Y-123089368D01*
X57711387Y-123089368D01*
X57704861Y-123087203D01*
X57698025Y-123086503D01*
X57698022Y-123086502D01*
X57654969Y-123082091D01*
X57600400Y-123076500D01*
X56734446Y-123076500D01*
X56666325Y-123056498D01*
X56619832Y-123002842D01*
X56609728Y-122932568D01*
X56639222Y-122867988D01*
X56653455Y-122853978D01*
X56655264Y-122852460D01*
X56659776Y-122849301D01*
X56809301Y-122699776D01*
X56930589Y-122526558D01*
X56959434Y-122464701D01*
X57017633Y-122339892D01*
X57017634Y-122339891D01*
X57019956Y-122334910D01*
X57029639Y-122298775D01*
X57073262Y-122135970D01*
X57073262Y-122135968D01*
X57074686Y-122130655D01*
X57093116Y-121920000D01*
X57074686Y-121709345D01*
X57073262Y-121704030D01*
X57021379Y-121510400D01*
X57021378Y-121510398D01*
X57019956Y-121505090D01*
X56982304Y-121424345D01*
X56932912Y-121318423D01*
X56932910Y-121318420D01*
X56930589Y-121313442D01*
X56809301Y-121140224D01*
X56659776Y-120990699D01*
X56486558Y-120869411D01*
X56481580Y-120867090D01*
X56481577Y-120867088D01*
X56445943Y-120850472D01*
X56392658Y-120803555D01*
X56373197Y-120735278D01*
X56393739Y-120667318D01*
X56432890Y-120629133D01*
X56468120Y-120607332D01*
X56474348Y-120603478D01*
X56599305Y-120478303D01*
X56616493Y-120450419D01*
X56688275Y-120333968D01*
X56688276Y-120333966D01*
X56692115Y-120327738D01*
X56747797Y-120159861D01*
X56758500Y-120055400D01*
X56758500Y-118704600D01*
X56755764Y-118678232D01*
X56748238Y-118605692D01*
X56748237Y-118605688D01*
X56747526Y-118598834D01*
X56741856Y-118581837D01*
X56693868Y-118438002D01*
X56691550Y-118431054D01*
X56598478Y-118280652D01*
X56473303Y-118155695D01*
X56433153Y-118130946D01*
X56385661Y-118078175D01*
X56374237Y-118008104D01*
X56402511Y-117942980D01*
X56446021Y-117909492D01*
X56481573Y-117892914D01*
X56481577Y-117892912D01*
X56486558Y-117890589D01*
X56659776Y-117769301D01*
X56809301Y-117619776D01*
X56930589Y-117446558D01*
X57002346Y-117292676D01*
X57017633Y-117259892D01*
X57017634Y-117259891D01*
X57019956Y-117254910D01*
X57074686Y-117050655D01*
X57093116Y-116840000D01*
X57074686Y-116629345D01*
X57019956Y-116425090D01*
X57004822Y-116392635D01*
X56932912Y-116238423D01*
X56932910Y-116238420D01*
X56930589Y-116233442D01*
X56809301Y-116060224D01*
X56659776Y-115910699D01*
X56626946Y-115887711D01*
X56582619Y-115832257D01*
X56575310Y-115761638D01*
X56607340Y-115698277D01*
X56668541Y-115662292D01*
X56699218Y-115658500D01*
X56778134Y-115658500D01*
X56840316Y-115651745D01*
X56976705Y-115600615D01*
X57074436Y-115527370D01*
X57140941Y-115502522D01*
X57210324Y-115517575D01*
X57225562Y-115527368D01*
X57323295Y-115600615D01*
X57459684Y-115651745D01*
X57521866Y-115658500D01*
X59318134Y-115658500D01*
X59380316Y-115651745D01*
X59516705Y-115600615D01*
X59614436Y-115527370D01*
X59680941Y-115502522D01*
X59750324Y-115517575D01*
X59765562Y-115527368D01*
X59863295Y-115600615D01*
X59999684Y-115651745D01*
X60061866Y-115658500D01*
X60140782Y-115658500D01*
X60208903Y-115678502D01*
X60255396Y-115732158D01*
X60265500Y-115802432D01*
X60236006Y-115867012D01*
X60213058Y-115887708D01*
X60180224Y-115910699D01*
X60030699Y-116060224D01*
X59909411Y-116233442D01*
X59907090Y-116238420D01*
X59907088Y-116238423D01*
X59835178Y-116392635D01*
X59820044Y-116425090D01*
X59765314Y-116629345D01*
X59746884Y-116840000D01*
X59765314Y-117050655D01*
X59820044Y-117254910D01*
X59822366Y-117259891D01*
X59822367Y-117259892D01*
X59837655Y-117292676D01*
X59909411Y-117446558D01*
X60030699Y-117619776D01*
X60180224Y-117769301D01*
X60353442Y-117890589D01*
X60358420Y-117892910D01*
X60358423Y-117892912D01*
X60467748Y-117943891D01*
X60545090Y-117979956D01*
X60550398Y-117981378D01*
X60550400Y-117981379D01*
X60744030Y-118033262D01*
X60744032Y-118033262D01*
X60749345Y-118034686D01*
X60960000Y-118053116D01*
X61170655Y-118034686D01*
X61175968Y-118033262D01*
X61175970Y-118033262D01*
X61369600Y-117981379D01*
X61369602Y-117981378D01*
X61374910Y-117979956D01*
X61452252Y-117943891D01*
X61561577Y-117892912D01*
X61561580Y-117892910D01*
X61566558Y-117890589D01*
X61739776Y-117769301D01*
X61889301Y-117619776D01*
X62010589Y-117446558D01*
X62082346Y-117292676D01*
X62097633Y-117259892D01*
X62097634Y-117259891D01*
X62099956Y-117254910D01*
X62154686Y-117050655D01*
X62173116Y-116840000D01*
X66026464Y-116840000D01*
X66046571Y-117069830D01*
X66106283Y-117292676D01*
X66108608Y-117297661D01*
X66201458Y-117496781D01*
X66201461Y-117496786D01*
X66203784Y-117501768D01*
X66233778Y-117544604D01*
X66283261Y-117615272D01*
X66336113Y-117690753D01*
X66499247Y-117853887D01*
X66503755Y-117857044D01*
X66503758Y-117857046D01*
X66547157Y-117887434D01*
X66688232Y-117986216D01*
X66693214Y-117988539D01*
X66693219Y-117988542D01*
X66750337Y-118015176D01*
X66897324Y-118083717D01*
X67120170Y-118143429D01*
X67350000Y-118163536D01*
X67579830Y-118143429D01*
X67802676Y-118083717D01*
X67949663Y-118015176D01*
X68006781Y-117988542D01*
X68006786Y-117988539D01*
X68011768Y-117986216D01*
X68152843Y-117887434D01*
X68196242Y-117857046D01*
X68196245Y-117857044D01*
X68200753Y-117853887D01*
X68363887Y-117690753D01*
X68416740Y-117615272D01*
X68466222Y-117544604D01*
X68496216Y-117501768D01*
X68498539Y-117496786D01*
X68498542Y-117496781D01*
X68591392Y-117297661D01*
X68593717Y-117292676D01*
X68653429Y-117069830D01*
X68673536Y-116840000D01*
X71026464Y-116840000D01*
X71046571Y-117069830D01*
X71106283Y-117292676D01*
X71108608Y-117297661D01*
X71201458Y-117496781D01*
X71201461Y-117496786D01*
X71203784Y-117501768D01*
X71233778Y-117544604D01*
X71283261Y-117615272D01*
X71336113Y-117690753D01*
X71499247Y-117853887D01*
X71503755Y-117857044D01*
X71503758Y-117857046D01*
X71547157Y-117887434D01*
X71688232Y-117986216D01*
X71693214Y-117988539D01*
X71693219Y-117988542D01*
X71750337Y-118015176D01*
X71897324Y-118083717D01*
X72120170Y-118143429D01*
X72350000Y-118163536D01*
X72579830Y-118143429D01*
X72802676Y-118083717D01*
X72949663Y-118015176D01*
X73006781Y-117988542D01*
X73006786Y-117988539D01*
X73011768Y-117986216D01*
X73152843Y-117887434D01*
X73196242Y-117857046D01*
X73196245Y-117857044D01*
X73200753Y-117853887D01*
X73363887Y-117690753D01*
X73416740Y-117615272D01*
X73466222Y-117544604D01*
X73496216Y-117501768D01*
X73498539Y-117496786D01*
X73498542Y-117496781D01*
X73591392Y-117297661D01*
X73593717Y-117292676D01*
X73653429Y-117069830D01*
X73673536Y-116840000D01*
X73653429Y-116610170D01*
X73593717Y-116387324D01*
X73548128Y-116289558D01*
X73498542Y-116183219D01*
X73498539Y-116183214D01*
X73496216Y-116178232D01*
X73416745Y-116064736D01*
X73367046Y-115993758D01*
X73367044Y-115993755D01*
X73363887Y-115989247D01*
X73200753Y-115826113D01*
X73196245Y-115822956D01*
X73196242Y-115822954D01*
X73082477Y-115743295D01*
X73011768Y-115693784D01*
X73006786Y-115691461D01*
X73006781Y-115691458D01*
X72867989Y-115626739D01*
X72802676Y-115596283D01*
X72579830Y-115536571D01*
X72350000Y-115516464D01*
X72120170Y-115536571D01*
X71897324Y-115596283D01*
X71832011Y-115626739D01*
X71693219Y-115691458D01*
X71693214Y-115691461D01*
X71688232Y-115693784D01*
X71617523Y-115743295D01*
X71503758Y-115822954D01*
X71503755Y-115822956D01*
X71499247Y-115826113D01*
X71336113Y-115989247D01*
X71332956Y-115993755D01*
X71332954Y-115993758D01*
X71283255Y-116064736D01*
X71203784Y-116178232D01*
X71201461Y-116183214D01*
X71201458Y-116183219D01*
X71151872Y-116289558D01*
X71106283Y-116387324D01*
X71046571Y-116610170D01*
X71026464Y-116840000D01*
X68673536Y-116840000D01*
X68653429Y-116610170D01*
X68593717Y-116387324D01*
X68548128Y-116289558D01*
X68498542Y-116183219D01*
X68498539Y-116183214D01*
X68496216Y-116178232D01*
X68416745Y-116064736D01*
X68367046Y-115993758D01*
X68367044Y-115993755D01*
X68363887Y-115989247D01*
X68200753Y-115826113D01*
X68196245Y-115822956D01*
X68196242Y-115822954D01*
X68082477Y-115743295D01*
X68011768Y-115693784D01*
X68006786Y-115691461D01*
X68006781Y-115691458D01*
X67867989Y-115626739D01*
X67802676Y-115596283D01*
X67579830Y-115536571D01*
X67350000Y-115516464D01*
X67120170Y-115536571D01*
X66897324Y-115596283D01*
X66832011Y-115626739D01*
X66693219Y-115691458D01*
X66693214Y-115691461D01*
X66688232Y-115693784D01*
X66617523Y-115743295D01*
X66503758Y-115822954D01*
X66503755Y-115822956D01*
X66499247Y-115826113D01*
X66336113Y-115989247D01*
X66332956Y-115993755D01*
X66332954Y-115993758D01*
X66283255Y-116064736D01*
X66203784Y-116178232D01*
X66201461Y-116183214D01*
X66201458Y-116183219D01*
X66151872Y-116289558D01*
X66106283Y-116387324D01*
X66046571Y-116610170D01*
X66026464Y-116840000D01*
X62173116Y-116840000D01*
X62154686Y-116629345D01*
X62099956Y-116425090D01*
X62084822Y-116392635D01*
X62012912Y-116238423D01*
X62012910Y-116238420D01*
X62010589Y-116233442D01*
X61889301Y-116060224D01*
X61739776Y-115910699D01*
X61706946Y-115887711D01*
X61662619Y-115832257D01*
X61655310Y-115761638D01*
X61687340Y-115698277D01*
X61748541Y-115662292D01*
X61779218Y-115658500D01*
X61858134Y-115658500D01*
X61920316Y-115651745D01*
X62056705Y-115600615D01*
X62154436Y-115527370D01*
X62220941Y-115502522D01*
X62290324Y-115517575D01*
X62305562Y-115527368D01*
X62403295Y-115600615D01*
X62539684Y-115651745D01*
X62601866Y-115658500D01*
X64398134Y-115658500D01*
X64460316Y-115651745D01*
X64596705Y-115600615D01*
X64713261Y-115513261D01*
X64800615Y-115396705D01*
X64851745Y-115260316D01*
X64858500Y-115198134D01*
X64858500Y-113401866D01*
X64851745Y-113339684D01*
X64800615Y-113203295D01*
X64713261Y-113086739D01*
X64596705Y-112999385D01*
X64460316Y-112948255D01*
X64398134Y-112941500D01*
X62601866Y-112941500D01*
X62539684Y-112948255D01*
X62403295Y-112999385D01*
X62305565Y-113072630D01*
X62239059Y-113097478D01*
X62169676Y-113082425D01*
X62154435Y-113072630D01*
X62056705Y-112999385D01*
X61920316Y-112948255D01*
X61858134Y-112941500D01*
X60061866Y-112941500D01*
X59999684Y-112948255D01*
X59863295Y-112999385D01*
X59765565Y-113072630D01*
X59699059Y-113097478D01*
X59629676Y-113082425D01*
X59614435Y-113072630D01*
X59516705Y-112999385D01*
X59380316Y-112948255D01*
X59318134Y-112941500D01*
X57521866Y-112941500D01*
X57459684Y-112948255D01*
X57323295Y-112999385D01*
X57225565Y-113072630D01*
X57159059Y-113097478D01*
X57089676Y-113082425D01*
X57074435Y-113072630D01*
X56976705Y-112999385D01*
X56840316Y-112948255D01*
X56778134Y-112941500D01*
X54981866Y-112941500D01*
X54919684Y-112948255D01*
X54783295Y-112999385D01*
X54685565Y-113072630D01*
X54619059Y-113097478D01*
X54549676Y-113082425D01*
X54534435Y-113072630D01*
X54436705Y-112999385D01*
X54300316Y-112948255D01*
X54238134Y-112941500D01*
X52441866Y-112941500D01*
X52379684Y-112948255D01*
X52243295Y-112999385D01*
X52145565Y-113072630D01*
X52079059Y-113097478D01*
X52009676Y-113082425D01*
X51994435Y-113072630D01*
X51896705Y-112999385D01*
X51760316Y-112948255D01*
X51698134Y-112941500D01*
X49901866Y-112941500D01*
X49839684Y-112948255D01*
X49703295Y-112999385D01*
X49586739Y-113086739D01*
X49499385Y-113203295D01*
X49448255Y-113339684D01*
X49441500Y-113401866D01*
X49441500Y-115198134D01*
X49448255Y-115260316D01*
X49499385Y-115396705D01*
X49586739Y-115513261D01*
X49703295Y-115600615D01*
X49839684Y-115651745D01*
X49901866Y-115658500D01*
X51698134Y-115658500D01*
X51760316Y-115651745D01*
X51865461Y-115612328D01*
X51936267Y-115607145D01*
X51998636Y-115641066D01*
X52032766Y-115703321D01*
X52027672Y-115774539D01*
X51988255Y-115879684D01*
X51981500Y-115941866D01*
X51981500Y-117738134D01*
X51988255Y-117800316D01*
X52039385Y-117936705D01*
X52110430Y-118031500D01*
X52112630Y-118034435D01*
X52137478Y-118100941D01*
X52122425Y-118170324D01*
X52112632Y-118185562D01*
X52039385Y-118283295D01*
X51988255Y-118419684D01*
X51981500Y-118481866D01*
X51981500Y-119819629D01*
X51961498Y-119887750D01*
X51907842Y-119934243D01*
X51837568Y-119944347D01*
X51772988Y-119914853D01*
X51766405Y-119908724D01*
X51269249Y-119411568D01*
X51256863Y-119397156D01*
X51248330Y-119385561D01*
X51248325Y-119385556D01*
X51243987Y-119379661D01*
X51238409Y-119374922D01*
X51238406Y-119374919D01*
X51203711Y-119345444D01*
X51196195Y-119338514D01*
X51190500Y-119332819D01*
X51180982Y-119325289D01*
X51168228Y-119315198D01*
X51164824Y-119312407D01*
X51114776Y-119269888D01*
X51114774Y-119269887D01*
X51109194Y-119265146D01*
X51102678Y-119261818D01*
X51097629Y-119258451D01*
X51092500Y-119255284D01*
X51086763Y-119250745D01*
X51020604Y-119219824D01*
X51016704Y-119217918D01*
X50951671Y-119184710D01*
X50944563Y-119182971D01*
X50938920Y-119180872D01*
X50933157Y-119178955D01*
X50926529Y-119175857D01*
X50855062Y-119160992D01*
X50850778Y-119160022D01*
X50779869Y-119142671D01*
X50774267Y-119142323D01*
X50774264Y-119142323D01*
X50768715Y-119141979D01*
X50768717Y-119141943D01*
X50764724Y-119141704D01*
X50760532Y-119141330D01*
X50753364Y-119139839D01*
X50687154Y-119141630D01*
X50675958Y-119141933D01*
X50672551Y-119141979D01*
X46184500Y-119141979D01*
X46116379Y-119121977D01*
X46069886Y-119068321D01*
X46058500Y-119015979D01*
X46058500Y-118902345D01*
X46051745Y-118840163D01*
X46000615Y-118703774D01*
X45913261Y-118587218D01*
X45796705Y-118499864D01*
X45660316Y-118448734D01*
X45598134Y-118441979D01*
X43601866Y-118441979D01*
X43539684Y-118448734D01*
X43403295Y-118499864D01*
X43286739Y-118587218D01*
X43199385Y-118703774D01*
X43148255Y-118840163D01*
X43141500Y-118902345D01*
X43141500Y-120898613D01*
X43148255Y-120960795D01*
X43199385Y-121097184D01*
X43286739Y-121213740D01*
X43403295Y-121301094D01*
X43539684Y-121352224D01*
X43601866Y-121358979D01*
X45598134Y-121358979D01*
X45660316Y-121352224D01*
X45796705Y-121301094D01*
X45913261Y-121213740D01*
X46000615Y-121097184D01*
X46051745Y-120960795D01*
X46058500Y-120898613D01*
X46058500Y-120784979D01*
X46078502Y-120716858D01*
X46132158Y-120670365D01*
X46184500Y-120658979D01*
X48689696Y-120658979D01*
X48757817Y-120678981D01*
X48804310Y-120732637D01*
X48814414Y-120802911D01*
X48784920Y-120867491D01*
X48761966Y-120888192D01*
X48683763Y-120942950D01*
X48683757Y-120942955D01*
X48679247Y-120946113D01*
X48516113Y-121109247D01*
X48512956Y-121113755D01*
X48512954Y-121113758D01*
X48479557Y-121161454D01*
X48383784Y-121298232D01*
X48381461Y-121303214D01*
X48381458Y-121303219D01*
X48336710Y-121399182D01*
X48286283Y-121507324D01*
X48226571Y-121730170D01*
X48206464Y-121960000D01*
X48226571Y-122189830D01*
X48286283Y-122412676D01*
X48288608Y-122417661D01*
X48381458Y-122616781D01*
X48381461Y-122616786D01*
X48383784Y-122621768D01*
X48457728Y-122727370D01*
X48487755Y-122770253D01*
X48516113Y-122810753D01*
X48679247Y-122973887D01*
X48683755Y-122977044D01*
X48683758Y-122977046D01*
X48686432Y-122978918D01*
X48868232Y-123106216D01*
X48873214Y-123108539D01*
X48873219Y-123108542D01*
X48955104Y-123146725D01*
X49077324Y-123203717D01*
X49300170Y-123263429D01*
X49530000Y-123283536D01*
X49759830Y-123263429D01*
X49982676Y-123203717D01*
X50104896Y-123146725D01*
X50186781Y-123108542D01*
X50186786Y-123108539D01*
X50191768Y-123106216D01*
X50373568Y-122978918D01*
X50376242Y-122977046D01*
X50376245Y-122977044D01*
X50380753Y-122973887D01*
X50543887Y-122810753D01*
X50572246Y-122770253D01*
X50602272Y-122727370D01*
X50676216Y-122621768D01*
X50678539Y-122616786D01*
X50678542Y-122616781D01*
X50771392Y-122417661D01*
X50773717Y-122412676D01*
X50833429Y-122189830D01*
X50853536Y-121960000D01*
X50833429Y-121730170D01*
X50773717Y-121507324D01*
X50686089Y-121319405D01*
X50675428Y-121249213D01*
X50704408Y-121184401D01*
X50763828Y-121145544D01*
X50834822Y-121144981D01*
X50889379Y-121177060D01*
X52812940Y-123100621D01*
X52846966Y-123162933D01*
X52841901Y-123233748D01*
X52799354Y-123290584D01*
X52732834Y-123315395D01*
X52670595Y-123303911D01*
X52642015Y-123290584D01*
X52482676Y-123216283D01*
X52259830Y-123156571D01*
X52030000Y-123136464D01*
X51800170Y-123156571D01*
X51577324Y-123216283D01*
X51479558Y-123261872D01*
X51373219Y-123311458D01*
X51373214Y-123311461D01*
X51368232Y-123313784D01*
X51292403Y-123366880D01*
X51183758Y-123442954D01*
X51183755Y-123442956D01*
X51179247Y-123446113D01*
X51016113Y-123609247D01*
X51012956Y-123613755D01*
X51012954Y-123613758D01*
X50961685Y-123686978D01*
X50883784Y-123798232D01*
X50881461Y-123803214D01*
X50881458Y-123803219D01*
X50840701Y-123890624D01*
X50786283Y-124007324D01*
X50726571Y-124230170D01*
X50706464Y-124460000D01*
X50726571Y-124689830D01*
X50786283Y-124912676D01*
X50809900Y-124963323D01*
X50881458Y-125116781D01*
X50881461Y-125116786D01*
X50883784Y-125121768D01*
X50938524Y-125199944D01*
X51011821Y-125304623D01*
X51016113Y-125310753D01*
X51179247Y-125473887D01*
X51183755Y-125477044D01*
X51183758Y-125477046D01*
X51212881Y-125497438D01*
X51368232Y-125606216D01*
X51373214Y-125608539D01*
X51373219Y-125608542D01*
X51470982Y-125654129D01*
X51577324Y-125703717D01*
X51800170Y-125763429D01*
X52030000Y-125783536D01*
X52259830Y-125763429D01*
X52482676Y-125703717D01*
X52589018Y-125654129D01*
X52686781Y-125608542D01*
X52686786Y-125608539D01*
X52691768Y-125606216D01*
X52847119Y-125497438D01*
X52876242Y-125477046D01*
X52876245Y-125477044D01*
X52880753Y-125473887D01*
X53043887Y-125310753D01*
X53048180Y-125304623D01*
X53121476Y-125199944D01*
X53176216Y-125121768D01*
X53178539Y-125116786D01*
X53178542Y-125116781D01*
X53250100Y-124963323D01*
X53273717Y-124912676D01*
X53333429Y-124689830D01*
X53353536Y-124460000D01*
X53333429Y-124230170D01*
X53273717Y-124007324D01*
X53186089Y-123819405D01*
X53175428Y-123749213D01*
X53204408Y-123684401D01*
X53263828Y-123645544D01*
X53334822Y-123644981D01*
X53389379Y-123677060D01*
X54661230Y-124948911D01*
X54673616Y-124963323D01*
X54682149Y-124974918D01*
X54682154Y-124974923D01*
X54686492Y-124980818D01*
X54692070Y-124985557D01*
X54692073Y-124985560D01*
X54726768Y-125015035D01*
X54734284Y-125021965D01*
X54739979Y-125027660D01*
X54742861Y-125029940D01*
X54762251Y-125045281D01*
X54765655Y-125048072D01*
X54785016Y-125064520D01*
X54821285Y-125095333D01*
X54827801Y-125098661D01*
X54832850Y-125102028D01*
X54837979Y-125105195D01*
X54843716Y-125109734D01*
X54909875Y-125140655D01*
X54913769Y-125142558D01*
X54978808Y-125175769D01*
X54985916Y-125177508D01*
X54991559Y-125179607D01*
X54997322Y-125181524D01*
X55003950Y-125184622D01*
X55011112Y-125186112D01*
X55011113Y-125186112D01*
X55075412Y-125199486D01*
X55079696Y-125200456D01*
X55150610Y-125217808D01*
X55156212Y-125218156D01*
X55156215Y-125218156D01*
X55161764Y-125218500D01*
X55161762Y-125218536D01*
X55165755Y-125218775D01*
X55169947Y-125219149D01*
X55177115Y-125220640D01*
X55246056Y-125218775D01*
X55254521Y-125218546D01*
X55257928Y-125218500D01*
X55904121Y-125218500D01*
X55972242Y-125238502D01*
X56018735Y-125292158D01*
X56023644Y-125304623D01*
X56055729Y-125400791D01*
X56058450Y-125408946D01*
X56151522Y-125559348D01*
X56156704Y-125564521D01*
X56161251Y-125570258D01*
X56158928Y-125572099D01*
X56186550Y-125622561D01*
X56181560Y-125693382D01*
X56139073Y-125750262D01*
X56123967Y-125759993D01*
X56121700Y-125761234D01*
X56113295Y-125764385D01*
X56106112Y-125769769D01*
X56106111Y-125769769D01*
X56066310Y-125799598D01*
X55996739Y-125851739D01*
X55909385Y-125968295D01*
X55858255Y-126104684D01*
X55851500Y-126166866D01*
X55851500Y-127863134D01*
X55858255Y-127925316D01*
X55909385Y-128061705D01*
X55996739Y-128178261D01*
X56113295Y-128265615D01*
X56249684Y-128316745D01*
X56260474Y-128317917D01*
X56262606Y-128318803D01*
X56265222Y-128319425D01*
X56265121Y-128319848D01*
X56326035Y-128345155D01*
X56366463Y-128403517D01*
X56368922Y-128474471D01*
X56332629Y-128535490D01*
X56323969Y-128542489D01*
X56320207Y-128545646D01*
X56315700Y-128548802D01*
X56153802Y-128710700D01*
X56022477Y-128898251D01*
X56020154Y-128903233D01*
X56020151Y-128903238D01*
X55947523Y-129058991D01*
X55900606Y-129112276D01*
X55832329Y-129131737D01*
X55764369Y-129111195D01*
X55719134Y-129058992D01*
X55660589Y-128933442D01*
X55539301Y-128760224D01*
X55389776Y-128610699D01*
X55216558Y-128489411D01*
X55211580Y-128487090D01*
X55211577Y-128487088D01*
X55029892Y-128402367D01*
X55029891Y-128402366D01*
X55024910Y-128400044D01*
X55019602Y-128398622D01*
X55019600Y-128398621D01*
X54825970Y-128346738D01*
X54825968Y-128346738D01*
X54820655Y-128345314D01*
X54610000Y-128326884D01*
X54399345Y-128345314D01*
X54394032Y-128346738D01*
X54394030Y-128346738D01*
X54200400Y-128398621D01*
X54200398Y-128398622D01*
X54195090Y-128400044D01*
X54190109Y-128402366D01*
X54190108Y-128402367D01*
X54008423Y-128487088D01*
X54008420Y-128487090D01*
X54003442Y-128489411D01*
X53830224Y-128610699D01*
X53680699Y-128760224D01*
X53559411Y-128933442D01*
X53470044Y-129125090D01*
X53415314Y-129329345D01*
X53396884Y-129540000D01*
X53415314Y-129750655D01*
X53470044Y-129954910D01*
X53472366Y-129959891D01*
X53472367Y-129959892D01*
X53507862Y-130036010D01*
X53559411Y-130146558D01*
X53680699Y-130319776D01*
X53830224Y-130469301D01*
X54003442Y-130590589D01*
X54008420Y-130592910D01*
X54008423Y-130592912D01*
X54190108Y-130677633D01*
X54195090Y-130679956D01*
X54200398Y-130681378D01*
X54200400Y-130681379D01*
X54394030Y-130733262D01*
X54394032Y-130733262D01*
X54399345Y-130734686D01*
X54610000Y-130753116D01*
X54820655Y-130734686D01*
X54825968Y-130733262D01*
X54825970Y-130733262D01*
X55019600Y-130681379D01*
X55019602Y-130681378D01*
X55024910Y-130679956D01*
X55029892Y-130677633D01*
X55211577Y-130592912D01*
X55211580Y-130592910D01*
X55216558Y-130590589D01*
X55389776Y-130469301D01*
X55539301Y-130319776D01*
X55660589Y-130146558D01*
X55712139Y-130036010D01*
X55712139Y-130036009D01*
X55759056Y-129982724D01*
X55827334Y-129963263D01*
X55895294Y-129983805D01*
X55940529Y-130036010D01*
X56020149Y-130206758D01*
X56020153Y-130206764D01*
X56022477Y-130211749D01*
X56153802Y-130399300D01*
X56315700Y-130561198D01*
X56320208Y-130564355D01*
X56320211Y-130564357D01*
X56360992Y-130592912D01*
X56503251Y-130692523D01*
X56508233Y-130694846D01*
X56508238Y-130694849D01*
X56542457Y-130710805D01*
X56595742Y-130757722D01*
X56615203Y-130825999D01*
X56594661Y-130893959D01*
X56542457Y-130939195D01*
X56508238Y-130955151D01*
X56508233Y-130955154D01*
X56503251Y-130957477D01*
X56398389Y-131030902D01*
X56320211Y-131085643D01*
X56320208Y-131085645D01*
X56315700Y-131088802D01*
X56153802Y-131250700D01*
X56022477Y-131438251D01*
X56020154Y-131443233D01*
X56020151Y-131443238D01*
X55928039Y-131640775D01*
X55925716Y-131645757D01*
X55924294Y-131651065D01*
X55924293Y-131651067D01*
X55882441Y-131807260D01*
X55866457Y-131866913D01*
X55846502Y-132095000D01*
X55866457Y-132323087D01*
X55867881Y-132328400D01*
X55867881Y-132328402D01*
X55890375Y-132412348D01*
X55925716Y-132544243D01*
X55928039Y-132549224D01*
X55928039Y-132549225D01*
X56020151Y-132746762D01*
X56020154Y-132746767D01*
X56022477Y-132751749D01*
X56039747Y-132776413D01*
X56124547Y-132897519D01*
X56153802Y-132939300D01*
X56315700Y-133101198D01*
X56320208Y-133104355D01*
X56320211Y-133104357D01*
X56398389Y-133159098D01*
X56503251Y-133232523D01*
X56508233Y-133234846D01*
X56508238Y-133234849D01*
X56542457Y-133250805D01*
X56595742Y-133297722D01*
X56615203Y-133365999D01*
X56594661Y-133433959D01*
X56542457Y-133479195D01*
X56508238Y-133495151D01*
X56508233Y-133495154D01*
X56503251Y-133497477D01*
X56403218Y-133567521D01*
X56320211Y-133625643D01*
X56320208Y-133625645D01*
X56315700Y-133628802D01*
X56153802Y-133790700D01*
X56150645Y-133795208D01*
X56150643Y-133795211D01*
X56130312Y-133824247D01*
X56022477Y-133978251D01*
X56020154Y-133983233D01*
X56020151Y-133983238D01*
X55947523Y-134138991D01*
X55900606Y-134192276D01*
X55832329Y-134211737D01*
X55764369Y-134191195D01*
X55719134Y-134138992D01*
X55663030Y-134018677D01*
X55662912Y-134018423D01*
X55662910Y-134018420D01*
X55660589Y-134013442D01*
X55539301Y-133840224D01*
X55389776Y-133690699D01*
X55216558Y-133569411D01*
X55211580Y-133567090D01*
X55211577Y-133567088D01*
X55029892Y-133482367D01*
X55029891Y-133482366D01*
X55024910Y-133480044D01*
X55019602Y-133478622D01*
X55019600Y-133478621D01*
X54825970Y-133426738D01*
X54825968Y-133426738D01*
X54820655Y-133425314D01*
X54610000Y-133406884D01*
X54399345Y-133425314D01*
X54394032Y-133426738D01*
X54394030Y-133426738D01*
X54200400Y-133478621D01*
X54200398Y-133478622D01*
X54195090Y-133480044D01*
X54190109Y-133482366D01*
X54190108Y-133482367D01*
X54008423Y-133567088D01*
X54008420Y-133567090D01*
X54003442Y-133569411D01*
X53830224Y-133690699D01*
X53680699Y-133840224D01*
X53559411Y-134013442D01*
X53557090Y-134018420D01*
X53557088Y-134018423D01*
X53479059Y-134185757D01*
X53470044Y-134205090D01*
X53468622Y-134210398D01*
X53468621Y-134210400D01*
X53419826Y-134392505D01*
X53415314Y-134409345D01*
X53396884Y-134620000D01*
X53415314Y-134830655D01*
X53416738Y-134835968D01*
X53416738Y-134835970D01*
X53431617Y-134891497D01*
X53470044Y-135034910D01*
X53472366Y-135039891D01*
X53472367Y-135039892D01*
X53539445Y-135183740D01*
X53559411Y-135226558D01*
X53680699Y-135399776D01*
X53830224Y-135549301D01*
X54003442Y-135670589D01*
X54008420Y-135672910D01*
X54008423Y-135672912D01*
X54067035Y-135700243D01*
X54195090Y-135759956D01*
X54200398Y-135761378D01*
X54200400Y-135761379D01*
X54226204Y-135768293D01*
X54286827Y-135805245D01*
X54317848Y-135869106D01*
X54309420Y-135939600D01*
X54264217Y-135994347D01*
X54226204Y-136011707D01*
X54200400Y-136018621D01*
X54200398Y-136018622D01*
X54195090Y-136020044D01*
X54190109Y-136022366D01*
X54190108Y-136022367D01*
X54008423Y-136107088D01*
X54008420Y-136107090D01*
X54003442Y-136109411D01*
X53830224Y-136230699D01*
X53680699Y-136380224D01*
X53559411Y-136553442D01*
X53470044Y-136745090D01*
X53468622Y-136750398D01*
X53468621Y-136750400D01*
X53423820Y-136917599D01*
X53415314Y-136949345D01*
X53396884Y-137160000D01*
X53415314Y-137370655D01*
X53416738Y-137375968D01*
X53416738Y-137375970D01*
X53463197Y-137549355D01*
X53470044Y-137574910D01*
X53472366Y-137579891D01*
X53472367Y-137579892D01*
X53550128Y-137746650D01*
X53559411Y-137766558D01*
X53680699Y-137939776D01*
X53830224Y-138089301D01*
X54003442Y-138210589D01*
X54008420Y-138212910D01*
X54008423Y-138212912D01*
X54126221Y-138267842D01*
X54195090Y-138299956D01*
X54200398Y-138301378D01*
X54200400Y-138301379D01*
X54394030Y-138353262D01*
X54394032Y-138353262D01*
X54399345Y-138354686D01*
X54610000Y-138373116D01*
X54820655Y-138354686D01*
X54825968Y-138353262D01*
X54825970Y-138353262D01*
X55019600Y-138301379D01*
X55019602Y-138301378D01*
X55024910Y-138299956D01*
X55093779Y-138267842D01*
X55211577Y-138212912D01*
X55211580Y-138212910D01*
X55216558Y-138210589D01*
X55389776Y-138089301D01*
X55539301Y-137939776D01*
X55660589Y-137766558D01*
X55669873Y-137746650D01*
X55712139Y-137656009D01*
X55759056Y-137602724D01*
X55827334Y-137583263D01*
X55895294Y-137603805D01*
X55940529Y-137656010D01*
X56020149Y-137826758D01*
X56020153Y-137826764D01*
X56022477Y-137831749D01*
X56084581Y-137920442D01*
X56141471Y-138001689D01*
X56153802Y-138019300D01*
X56315700Y-138181198D01*
X56320208Y-138184355D01*
X56320211Y-138184357D01*
X56360992Y-138212912D01*
X56503251Y-138312523D01*
X56508233Y-138314846D01*
X56508238Y-138314849D01*
X56542457Y-138330805D01*
X56595742Y-138377722D01*
X56615203Y-138445999D01*
X56594661Y-138513959D01*
X56542457Y-138559195D01*
X56508238Y-138575151D01*
X56508233Y-138575154D01*
X56503251Y-138577477D01*
X56401679Y-138648599D01*
X56320211Y-138705643D01*
X56320208Y-138705645D01*
X56315700Y-138708802D01*
X56153802Y-138870700D01*
X56022477Y-139058251D01*
X56020154Y-139063233D01*
X56020151Y-139063238D01*
X55962369Y-139187154D01*
X55925716Y-139265757D01*
X55924294Y-139271065D01*
X55924293Y-139271067D01*
X55871675Y-139467438D01*
X55866457Y-139486913D01*
X55846502Y-139715000D01*
X55866457Y-139943087D01*
X55867881Y-139948400D01*
X55867881Y-139948402D01*
X55917787Y-140134650D01*
X55925716Y-140164243D01*
X55928039Y-140169224D01*
X55928039Y-140169225D01*
X56020151Y-140366762D01*
X56020154Y-140366767D01*
X56022477Y-140371749D01*
X56153802Y-140559300D01*
X56315700Y-140721198D01*
X56320208Y-140724355D01*
X56320211Y-140724357D01*
X56360992Y-140752912D01*
X56503251Y-140852523D01*
X56508233Y-140854846D01*
X56508238Y-140854849D01*
X56542457Y-140870805D01*
X56595742Y-140917722D01*
X56615203Y-140985999D01*
X56594661Y-141053959D01*
X56542457Y-141099195D01*
X56508238Y-141115151D01*
X56508233Y-141115154D01*
X56503251Y-141117477D01*
X56431163Y-141167954D01*
X56320211Y-141245643D01*
X56320208Y-141245645D01*
X56315700Y-141248802D01*
X56153802Y-141410700D01*
X56022477Y-141598251D01*
X56020154Y-141603232D01*
X56020148Y-141603243D01*
X56001031Y-141644240D01*
X55954114Y-141697525D01*
X55885836Y-141716985D01*
X55817877Y-141696443D01*
X55772642Y-141644239D01*
X55764168Y-141626066D01*
X55716216Y-141523232D01*
X55583887Y-141334247D01*
X55420753Y-141171113D01*
X55416245Y-141167956D01*
X55416242Y-141167954D01*
X55288491Y-141078502D01*
X55231768Y-141038784D01*
X55226786Y-141036461D01*
X55226781Y-141036458D01*
X55100228Y-140977446D01*
X55022676Y-140941283D01*
X54799830Y-140881571D01*
X54570000Y-140861464D01*
X54340170Y-140881571D01*
X54117324Y-140941283D01*
X54039772Y-140977446D01*
X53913219Y-141036458D01*
X53913214Y-141036461D01*
X53908232Y-141038784D01*
X53851509Y-141078502D01*
X53723758Y-141167954D01*
X53723755Y-141167956D01*
X53719247Y-141171113D01*
X53556113Y-141334247D01*
X53423784Y-141523232D01*
X53421461Y-141528214D01*
X53421458Y-141528219D01*
X53393471Y-141588238D01*
X53326283Y-141732324D01*
X53266571Y-141955170D01*
X53246464Y-142185000D01*
X53266571Y-142414830D01*
X53326283Y-142637676D01*
X53328608Y-142642661D01*
X53421458Y-142841781D01*
X53421461Y-142841786D01*
X53423784Y-142846768D01*
X53556113Y-143035753D01*
X53719247Y-143198887D01*
X53723755Y-143202044D01*
X53723758Y-143202046D01*
X53736733Y-143211131D01*
X53908232Y-143331216D01*
X53913214Y-143333539D01*
X53913219Y-143333542D01*
X54007538Y-143377523D01*
X54117324Y-143428717D01*
X54340170Y-143488429D01*
X54570000Y-143508536D01*
X54799830Y-143488429D01*
X55022676Y-143428717D01*
X55132462Y-143377523D01*
X55226781Y-143333542D01*
X55226786Y-143333539D01*
X55231768Y-143331216D01*
X55403267Y-143211131D01*
X55416242Y-143202046D01*
X55416245Y-143202044D01*
X55420753Y-143198887D01*
X55583887Y-143035753D01*
X55716216Y-142846768D01*
X55718539Y-142841786D01*
X55718542Y-142841781D01*
X55740001Y-142795761D01*
X55786918Y-142742476D01*
X55855196Y-142723015D01*
X55923156Y-142743557D01*
X55968391Y-142795761D01*
X56020151Y-142906762D01*
X56020154Y-142906767D01*
X56022477Y-142911749D01*
X56025634Y-142916257D01*
X56146028Y-143088197D01*
X56153802Y-143099300D01*
X56315700Y-143261198D01*
X56320208Y-143264355D01*
X56320211Y-143264357D01*
X56357202Y-143290258D01*
X56503251Y-143392523D01*
X56508233Y-143394846D01*
X56508238Y-143394849D01*
X56542457Y-143410805D01*
X56595742Y-143457722D01*
X56615203Y-143525999D01*
X56594661Y-143593959D01*
X56542457Y-143639195D01*
X56508238Y-143655151D01*
X56508233Y-143655154D01*
X56503251Y-143657477D01*
X56398389Y-143730902D01*
X56320211Y-143785643D01*
X56320208Y-143785645D01*
X56315700Y-143788802D01*
X56153802Y-143950700D01*
X56022477Y-144138251D01*
X56020154Y-144143233D01*
X56020151Y-144143238D01*
X55928039Y-144340775D01*
X55925716Y-144345757D01*
X55924294Y-144351065D01*
X55924293Y-144351067D01*
X55867881Y-144561598D01*
X55866457Y-144566913D01*
X55846502Y-144795000D01*
X55866457Y-145023087D01*
X55867881Y-145028400D01*
X55867881Y-145028402D01*
X55916351Y-145209291D01*
X55925716Y-145244243D01*
X55928039Y-145249224D01*
X55928039Y-145249225D01*
X56020151Y-145446762D01*
X56020154Y-145446767D01*
X56022477Y-145451749D01*
X56058317Y-145502933D01*
X56145621Y-145627616D01*
X56153802Y-145639300D01*
X56315700Y-145801198D01*
X56320208Y-145804355D01*
X56320211Y-145804357D01*
X56489318Y-145922767D01*
X56533646Y-145978224D01*
X56540955Y-146048844D01*
X56508924Y-146112204D01*
X56447723Y-146148189D01*
X56417047Y-146151980D01*
X54661851Y-146151980D01*
X54593730Y-146131978D01*
X54572756Y-146115075D01*
X53414902Y-144957221D01*
X53380876Y-144894909D01*
X53378476Y-144857145D01*
X53393057Y-144690475D01*
X53393536Y-144685000D01*
X53373429Y-144455170D01*
X53313717Y-144232324D01*
X53267748Y-144133743D01*
X53218542Y-144028219D01*
X53218539Y-144028214D01*
X53216216Y-144023232D01*
X53083887Y-143834247D01*
X52920753Y-143671113D01*
X52916245Y-143667956D01*
X52916242Y-143667954D01*
X52781946Y-143573919D01*
X52731768Y-143538784D01*
X52726786Y-143536461D01*
X52726781Y-143536458D01*
X52619668Y-143486511D01*
X52522676Y-143441283D01*
X52299830Y-143381571D01*
X52070000Y-143361464D01*
X51840170Y-143381571D01*
X51617324Y-143441283D01*
X51520332Y-143486511D01*
X51413219Y-143536458D01*
X51413214Y-143536461D01*
X51408232Y-143538784D01*
X51358054Y-143573919D01*
X51223758Y-143667954D01*
X51223755Y-143667956D01*
X51219247Y-143671113D01*
X51056113Y-143834247D01*
X50923784Y-144023232D01*
X50921461Y-144028214D01*
X50921458Y-144028219D01*
X50872252Y-144133743D01*
X50826283Y-144232324D01*
X50766571Y-144455170D01*
X50746464Y-144685000D01*
X50766571Y-144914830D01*
X50826283Y-145137676D01*
X50859678Y-145209291D01*
X50921458Y-145341781D01*
X50921461Y-145341786D01*
X50923784Y-145346768D01*
X50930967Y-145357026D01*
X51033811Y-145503902D01*
X51056113Y-145535753D01*
X51219247Y-145698887D01*
X51223755Y-145702044D01*
X51223758Y-145702046D01*
X51279420Y-145741021D01*
X51408232Y-145831216D01*
X51413214Y-145833539D01*
X51413219Y-145833542D01*
X51505784Y-145876705D01*
X51617324Y-145928717D01*
X51840170Y-145988429D01*
X52070000Y-146008536D01*
X52075475Y-146008057D01*
X52242145Y-145993476D01*
X52311750Y-146007466D01*
X52342221Y-146029902D01*
X53711710Y-147399391D01*
X53724096Y-147413803D01*
X53732629Y-147425398D01*
X53732634Y-147425403D01*
X53736972Y-147431298D01*
X53742550Y-147436037D01*
X53742553Y-147436040D01*
X53777248Y-147465515D01*
X53784764Y-147472445D01*
X53790459Y-147478140D01*
X53793341Y-147480420D01*
X53812731Y-147495761D01*
X53816135Y-147498552D01*
X53865803Y-147540748D01*
X53871765Y-147545813D01*
X53878281Y-147549141D01*
X53883330Y-147552508D01*
X53888459Y-147555675D01*
X53894196Y-147560214D01*
X53960355Y-147591135D01*
X53964248Y-147593038D01*
X53964722Y-147593280D01*
X54016298Y-147642070D01*
X54033308Y-147710998D01*
X54010352Y-147778181D01*
X53954719Y-147822289D01*
X53907428Y-147831500D01*
X46184500Y-147831500D01*
X46116379Y-147811498D01*
X46069886Y-147757842D01*
X46058500Y-147705500D01*
X46058500Y-146611866D01*
X46051745Y-146549684D01*
X46000615Y-146413295D01*
X45913261Y-146296739D01*
X45796705Y-146209385D01*
X45660316Y-146158255D01*
X45598134Y-146151500D01*
X43601866Y-146151500D01*
X43539684Y-146158255D01*
X43403295Y-146209385D01*
X43286739Y-146296739D01*
X43199385Y-146413295D01*
X43148255Y-146549684D01*
X43141500Y-146611866D01*
X43141500Y-148608134D01*
X43148255Y-148670316D01*
X43199385Y-148806705D01*
X43286739Y-148923261D01*
X43403295Y-149010615D01*
X43539684Y-149061745D01*
X43601866Y-149068500D01*
X44928402Y-149068500D01*
X44996523Y-149088502D01*
X45018692Y-149107014D01*
X45021492Y-149110818D01*
X45027070Y-149115557D01*
X45027072Y-149115559D01*
X45061768Y-149145035D01*
X45069284Y-149151965D01*
X45074979Y-149157660D01*
X45077861Y-149159940D01*
X45097251Y-149175281D01*
X45100655Y-149178072D01*
X45150703Y-149220591D01*
X45156285Y-149225333D01*
X45162801Y-149228661D01*
X45167850Y-149232028D01*
X45172979Y-149235195D01*
X45178716Y-149239734D01*
X45244875Y-149270655D01*
X45248769Y-149272558D01*
X45313808Y-149305769D01*
X45320916Y-149307508D01*
X45326559Y-149309607D01*
X45332322Y-149311524D01*
X45338950Y-149314622D01*
X45346112Y-149316112D01*
X45346113Y-149316112D01*
X45410412Y-149329486D01*
X45414696Y-149330456D01*
X45485610Y-149347808D01*
X45491212Y-149348156D01*
X45491215Y-149348156D01*
X45496764Y-149348500D01*
X45496762Y-149348536D01*
X45500755Y-149348775D01*
X45504947Y-149349149D01*
X45512115Y-149350640D01*
X45589520Y-149348546D01*
X45592928Y-149348500D01*
X73592930Y-149348500D01*
X73611880Y-149349933D01*
X73626115Y-149352099D01*
X73626119Y-149352099D01*
X73633349Y-149353199D01*
X73640641Y-149352606D01*
X73640644Y-149352606D01*
X73686018Y-149348915D01*
X73696233Y-149348500D01*
X73704293Y-149348500D01*
X73721680Y-149346473D01*
X73732507Y-149345211D01*
X73736882Y-149344778D01*
X73802339Y-149339454D01*
X73802342Y-149339453D01*
X73809637Y-149338860D01*
X73816601Y-149336604D01*
X73822560Y-149335413D01*
X73828415Y-149334029D01*
X73835681Y-149333182D01*
X73904327Y-149308265D01*
X73908455Y-149306848D01*
X73970936Y-149286607D01*
X73970938Y-149286606D01*
X73977899Y-149284351D01*
X73984154Y-149280555D01*
X73989628Y-149278049D01*
X73995058Y-149275330D01*
X74001937Y-149272833D01*
X74008058Y-149268820D01*
X74062976Y-149232814D01*
X74066680Y-149230477D01*
X74129107Y-149192595D01*
X74137484Y-149185197D01*
X74137508Y-149185224D01*
X74140500Y-149182571D01*
X74143733Y-149179868D01*
X74149852Y-149175856D01*
X74203128Y-149119617D01*
X74205506Y-149117175D01*
X75446650Y-147876031D01*
X75452337Y-147870685D01*
X75482092Y-147844406D01*
X75546391Y-147814304D01*
X75616757Y-147823744D01*
X75670850Y-147869728D01*
X75691500Y-147938847D01*
X75691500Y-156845500D01*
X75671498Y-156913621D01*
X75617842Y-156960114D01*
X75565500Y-156971500D01*
X36194500Y-156971500D01*
X36126379Y-156951498D01*
X36079886Y-156897842D01*
X36068500Y-156845500D01*
X36068500Y-154065865D01*
X36088502Y-153997744D01*
X36142158Y-153951251D01*
X36212432Y-153941147D01*
X36259921Y-153959940D01*
X36260571Y-153958828D01*
X36467643Y-154079831D01*
X36691697Y-154165389D01*
X36696763Y-154166420D01*
X36696764Y-154166420D01*
X36753039Y-154177869D01*
X36926716Y-154213204D01*
X37062264Y-154218174D01*
X37161225Y-154221803D01*
X37161229Y-154221803D01*
X37166389Y-154221992D01*
X37171509Y-154221336D01*
X37171511Y-154221336D01*
X37399151Y-154192175D01*
X37399152Y-154192175D01*
X37404279Y-154191518D01*
X37487935Y-154166420D01*
X37629042Y-154124086D01*
X37629047Y-154124084D01*
X37633997Y-154122599D01*
X37849374Y-154017087D01*
X37853579Y-154014087D01*
X37853585Y-154014084D01*
X37955838Y-153941147D01*
X38044627Y-153877815D01*
X38214511Y-153708523D01*
X38220194Y-153700615D01*
X38351445Y-153517958D01*
X38354463Y-153513758D01*
X38389043Y-153443792D01*
X38458433Y-153303392D01*
X38458434Y-153303390D01*
X38460727Y-153298750D01*
X38530447Y-153069274D01*
X38561752Y-152831492D01*
X38563499Y-152760000D01*
X38555152Y-152658475D01*
X38544271Y-152526124D01*
X38544270Y-152526118D01*
X38543847Y-152520973D01*
X38505095Y-152366695D01*
X38501636Y-152352925D01*
X39586645Y-152352925D01*
X39587204Y-152359065D01*
X39601939Y-152520973D01*
X39604570Y-152549888D01*
X39606308Y-152555794D01*
X39606309Y-152555798D01*
X39632154Y-152643611D01*
X39660410Y-152739619D01*
X39663263Y-152745077D01*
X39663265Y-152745081D01*
X39671065Y-152760000D01*
X39752040Y-152914890D01*
X39875968Y-153069025D01*
X39880692Y-153072989D01*
X39882705Y-153074678D01*
X40027474Y-153196154D01*
X40032872Y-153199121D01*
X40032877Y-153199125D01*
X40176180Y-153277905D01*
X40200787Y-153291433D01*
X40206654Y-153293294D01*
X40206656Y-153293295D01*
X40356045Y-153340684D01*
X40389306Y-153351235D01*
X40543227Y-153368500D01*
X40649769Y-153368500D01*
X40652825Y-153368200D01*
X40652832Y-153368200D01*
X40711340Y-153362463D01*
X40796833Y-153354080D01*
X40802734Y-153352298D01*
X40802736Y-153352298D01*
X40902464Y-153322188D01*
X40946476Y-153308900D01*
X43766358Y-153308900D01*
X43769661Y-153313560D01*
X43963399Y-153426771D01*
X43972686Y-153431221D01*
X44187006Y-153513062D01*
X44196908Y-153515939D01*
X44421699Y-153561673D01*
X44431951Y-153562896D01*
X44661202Y-153571302D01*
X44671488Y-153570835D01*
X44899043Y-153541684D01*
X44909129Y-153539541D01*
X45128864Y-153473617D01*
X45138459Y-153469856D01*
X45344466Y-153368935D01*
X45353332Y-153363650D01*
X45420945Y-153315421D01*
X45429346Y-153304721D01*
X45424006Y-153294669D01*
X48172001Y-153294669D01*
X48172371Y-153301490D01*
X48177895Y-153352352D01*
X48181521Y-153367604D01*
X48226676Y-153488054D01*
X48235214Y-153503649D01*
X48311715Y-153605724D01*
X48324276Y-153618285D01*
X48426351Y-153694786D01*
X48441946Y-153703324D01*
X48562394Y-153748478D01*
X48577649Y-153752105D01*
X48628514Y-153757631D01*
X48635328Y-153758000D01*
X49257885Y-153758000D01*
X49273124Y-153753525D01*
X49274329Y-153752135D01*
X49276000Y-153744452D01*
X49276000Y-153739884D01*
X49784000Y-153739884D01*
X49788475Y-153755123D01*
X49789865Y-153756328D01*
X49797548Y-153757999D01*
X50424669Y-153757999D01*
X50431490Y-153757629D01*
X50482352Y-153752105D01*
X50497604Y-153748479D01*
X50618054Y-153703324D01*
X50633649Y-153694786D01*
X50735724Y-153618285D01*
X50748285Y-153605724D01*
X50824786Y-153503649D01*
X50833324Y-153488054D01*
X50874225Y-153378952D01*
X50916867Y-153322188D01*
X50983428Y-153297488D01*
X51052777Y-153312696D01*
X51087444Y-153340684D01*
X51112865Y-153370031D01*
X51112869Y-153370035D01*
X51116250Y-153373938D01*
X51192846Y-153437529D01*
X51279077Y-153509119D01*
X51288126Y-153516632D01*
X51481000Y-153629338D01*
X51689692Y-153709030D01*
X51694760Y-153710061D01*
X51694763Y-153710062D01*
X51789862Y-153729410D01*
X51908597Y-153753567D01*
X51913772Y-153753757D01*
X51913774Y-153753757D01*
X52126673Y-153761564D01*
X52126677Y-153761564D01*
X52131837Y-153761753D01*
X52136957Y-153761097D01*
X52136959Y-153761097D01*
X52348288Y-153734025D01*
X52348289Y-153734025D01*
X52353416Y-153733368D01*
X52358366Y-153731883D01*
X52562429Y-153670661D01*
X52562434Y-153670659D01*
X52567384Y-153669174D01*
X52767994Y-153570896D01*
X52949860Y-153441173D01*
X52964313Y-153426771D01*
X53058607Y-153332805D01*
X53108096Y-153283489D01*
X53167967Y-153200170D01*
X53238453Y-153102077D01*
X53239776Y-153103028D01*
X53286645Y-153059857D01*
X53356580Y-153047625D01*
X53422026Y-153075144D01*
X53449875Y-153106994D01*
X53509987Y-153205088D01*
X53656250Y-153373938D01*
X53732846Y-153437529D01*
X53819077Y-153509119D01*
X53828126Y-153516632D01*
X54021000Y-153629338D01*
X54229692Y-153709030D01*
X54234760Y-153710061D01*
X54234763Y-153710062D01*
X54329862Y-153729410D01*
X54448597Y-153753567D01*
X54453772Y-153753757D01*
X54453774Y-153753757D01*
X54666673Y-153761564D01*
X54666677Y-153761564D01*
X54671837Y-153761753D01*
X54676957Y-153761097D01*
X54676959Y-153761097D01*
X54888288Y-153734025D01*
X54888289Y-153734025D01*
X54893416Y-153733368D01*
X54898366Y-153731883D01*
X55102429Y-153670661D01*
X55102434Y-153670659D01*
X55107384Y-153669174D01*
X55307994Y-153570896D01*
X55489860Y-153441173D01*
X55504313Y-153426771D01*
X55598607Y-153332805D01*
X55648096Y-153283489D01*
X55707967Y-153200170D01*
X55778453Y-153102077D01*
X55779776Y-153103028D01*
X55826645Y-153059857D01*
X55896580Y-153047625D01*
X55962026Y-153075144D01*
X55989875Y-153106994D01*
X56049987Y-153205088D01*
X56196250Y-153373938D01*
X56272846Y-153437529D01*
X56359077Y-153509119D01*
X56368126Y-153516632D01*
X56561000Y-153629338D01*
X56769692Y-153709030D01*
X56774760Y-153710061D01*
X56774763Y-153710062D01*
X56869862Y-153729410D01*
X56988597Y-153753567D01*
X56993772Y-153753757D01*
X56993774Y-153753757D01*
X57206673Y-153761564D01*
X57206677Y-153761564D01*
X57211837Y-153761753D01*
X57216957Y-153761097D01*
X57216959Y-153761097D01*
X57428288Y-153734025D01*
X57428289Y-153734025D01*
X57433416Y-153733368D01*
X57438366Y-153731883D01*
X57642429Y-153670661D01*
X57642434Y-153670659D01*
X57647384Y-153669174D01*
X57847994Y-153570896D01*
X58029860Y-153441173D01*
X58044313Y-153426771D01*
X58138607Y-153332805D01*
X58188096Y-153283489D01*
X58247967Y-153200170D01*
X58318453Y-153102077D01*
X58319776Y-153103028D01*
X58366645Y-153059857D01*
X58436580Y-153047625D01*
X58502026Y-153075144D01*
X58529875Y-153106994D01*
X58589987Y-153205088D01*
X58736250Y-153373938D01*
X58812846Y-153437529D01*
X58899077Y-153509119D01*
X58908126Y-153516632D01*
X59101000Y-153629338D01*
X59309692Y-153709030D01*
X59314760Y-153710061D01*
X59314763Y-153710062D01*
X59409862Y-153729410D01*
X59528597Y-153753567D01*
X59533772Y-153753757D01*
X59533774Y-153753757D01*
X59746673Y-153761564D01*
X59746677Y-153761564D01*
X59751837Y-153761753D01*
X59756957Y-153761097D01*
X59756959Y-153761097D01*
X59968288Y-153734025D01*
X59968289Y-153734025D01*
X59973416Y-153733368D01*
X59978366Y-153731883D01*
X60182429Y-153670661D01*
X60182434Y-153670659D01*
X60187384Y-153669174D01*
X60387994Y-153570896D01*
X60569860Y-153441173D01*
X60584313Y-153426771D01*
X60678607Y-153332805D01*
X60728096Y-153283489D01*
X60787967Y-153200170D01*
X60858453Y-153102077D01*
X60859640Y-153102930D01*
X60906960Y-153059362D01*
X60976897Y-153047145D01*
X61042338Y-153074678D01*
X61070166Y-153106511D01*
X61127694Y-153200388D01*
X61133777Y-153208699D01*
X61273213Y-153369667D01*
X61280580Y-153376883D01*
X61444434Y-153512916D01*
X61452881Y-153518831D01*
X61636756Y-153626279D01*
X61646042Y-153630729D01*
X61845001Y-153706703D01*
X61854899Y-153709579D01*
X61958250Y-153730606D01*
X61972299Y-153729410D01*
X61976000Y-153719065D01*
X61976000Y-153718517D01*
X62484000Y-153718517D01*
X62488064Y-153732359D01*
X62501478Y-153734393D01*
X62508184Y-153733534D01*
X62518262Y-153731392D01*
X62722255Y-153670191D01*
X62731842Y-153666433D01*
X62923095Y-153572739D01*
X62931945Y-153567464D01*
X63105328Y-153443792D01*
X63113193Y-153437145D01*
X63217897Y-153332805D01*
X63280268Y-153298889D01*
X63351075Y-153304077D01*
X63407837Y-153346723D01*
X63424819Y-153377826D01*
X63469385Y-153496705D01*
X63556739Y-153613261D01*
X63673295Y-153700615D01*
X63809684Y-153751745D01*
X63871866Y-153758500D01*
X65668134Y-153758500D01*
X65730316Y-153751745D01*
X65866705Y-153700615D01*
X65983261Y-153613261D01*
X66070615Y-153496705D01*
X66121745Y-153360316D01*
X66128500Y-153298134D01*
X66128500Y-151501866D01*
X66121745Y-151439684D01*
X66070615Y-151303295D01*
X65983261Y-151186739D01*
X65866705Y-151099385D01*
X65730316Y-151048255D01*
X65668134Y-151041500D01*
X63871866Y-151041500D01*
X63809684Y-151048255D01*
X63673295Y-151099385D01*
X63556739Y-151186739D01*
X63469385Y-151303295D01*
X63466233Y-151311703D01*
X63466232Y-151311705D01*
X63424722Y-151422433D01*
X63382081Y-151479198D01*
X63315519Y-151503898D01*
X63246170Y-151488691D01*
X63213546Y-151463004D01*
X63162799Y-151407234D01*
X63155273Y-151400215D01*
X62988139Y-151268222D01*
X62979552Y-151262517D01*
X62793117Y-151159599D01*
X62783705Y-151155369D01*
X62582959Y-151084280D01*
X62572988Y-151081646D01*
X62501837Y-151068972D01*
X62488540Y-151070432D01*
X62484000Y-151084989D01*
X62484000Y-153718517D01*
X61976000Y-153718517D01*
X61976000Y-151083102D01*
X61972082Y-151069758D01*
X61957806Y-151067771D01*
X61919324Y-151073660D01*
X61909288Y-151076051D01*
X61706868Y-151142212D01*
X61697359Y-151146209D01*
X61508463Y-151244542D01*
X61499738Y-151250036D01*
X61329433Y-151377905D01*
X61321726Y-151384748D01*
X61174590Y-151538717D01*
X61168109Y-151546722D01*
X61063498Y-151700074D01*
X61008587Y-151745076D01*
X60938062Y-151753247D01*
X60874315Y-151721993D01*
X60853618Y-151697509D01*
X60772822Y-151572617D01*
X60772820Y-151572614D01*
X60770014Y-151568277D01*
X60619670Y-151403051D01*
X60615619Y-151399852D01*
X60615615Y-151399848D01*
X60448414Y-151267800D01*
X60448410Y-151267798D01*
X60444359Y-151264598D01*
X60408028Y-151244542D01*
X60316970Y-151194276D01*
X60248789Y-151156638D01*
X60243920Y-151154914D01*
X60243916Y-151154912D01*
X60043087Y-151083795D01*
X60043083Y-151083794D01*
X60038212Y-151082069D01*
X60033119Y-151081162D01*
X60033116Y-151081161D01*
X59823373Y-151043800D01*
X59823367Y-151043799D01*
X59818284Y-151042894D01*
X59744452Y-151041992D01*
X59600081Y-151040228D01*
X59600079Y-151040228D01*
X59594911Y-151040165D01*
X59374091Y-151073955D01*
X59161756Y-151143357D01*
X58963607Y-151246507D01*
X58959474Y-151249610D01*
X58959471Y-151249612D01*
X58802190Y-151367702D01*
X58784965Y-151380635D01*
X58630629Y-151542138D01*
X58523201Y-151699621D01*
X58468293Y-151744621D01*
X58397768Y-151752792D01*
X58334021Y-151721538D01*
X58313324Y-151697054D01*
X58232822Y-151572617D01*
X58232820Y-151572614D01*
X58230014Y-151568277D01*
X58079670Y-151403051D01*
X58075619Y-151399852D01*
X58075615Y-151399848D01*
X57908414Y-151267800D01*
X57908410Y-151267798D01*
X57904359Y-151264598D01*
X57868028Y-151244542D01*
X57776970Y-151194276D01*
X57708789Y-151156638D01*
X57703920Y-151154914D01*
X57703916Y-151154912D01*
X57503087Y-151083795D01*
X57503083Y-151083794D01*
X57498212Y-151082069D01*
X57493119Y-151081162D01*
X57493116Y-151081161D01*
X57283373Y-151043800D01*
X57283367Y-151043799D01*
X57278284Y-151042894D01*
X57204452Y-151041992D01*
X57060081Y-151040228D01*
X57060079Y-151040228D01*
X57054911Y-151040165D01*
X56834091Y-151073955D01*
X56621756Y-151143357D01*
X56423607Y-151246507D01*
X56419474Y-151249610D01*
X56419471Y-151249612D01*
X56262190Y-151367702D01*
X56244965Y-151380635D01*
X56090629Y-151542138D01*
X55983201Y-151699621D01*
X55928293Y-151744621D01*
X55857768Y-151752792D01*
X55794021Y-151721538D01*
X55773324Y-151697054D01*
X55692822Y-151572617D01*
X55692820Y-151572614D01*
X55690014Y-151568277D01*
X55539670Y-151403051D01*
X55535619Y-151399852D01*
X55535615Y-151399848D01*
X55368414Y-151267800D01*
X55368410Y-151267798D01*
X55364359Y-151264598D01*
X55328028Y-151244542D01*
X55236970Y-151194276D01*
X55168789Y-151156638D01*
X55163920Y-151154914D01*
X55163916Y-151154912D01*
X54963087Y-151083795D01*
X54963083Y-151083794D01*
X54958212Y-151082069D01*
X54953119Y-151081162D01*
X54953116Y-151081161D01*
X54743373Y-151043800D01*
X54743367Y-151043799D01*
X54738284Y-151042894D01*
X54664452Y-151041992D01*
X54520081Y-151040228D01*
X54520079Y-151040228D01*
X54514911Y-151040165D01*
X54294091Y-151073955D01*
X54081756Y-151143357D01*
X53883607Y-151246507D01*
X53879474Y-151249610D01*
X53879471Y-151249612D01*
X53722190Y-151367702D01*
X53704965Y-151380635D01*
X53550629Y-151542138D01*
X53443201Y-151699621D01*
X53388293Y-151744621D01*
X53317768Y-151752792D01*
X53254021Y-151721538D01*
X53233324Y-151697054D01*
X53152822Y-151572617D01*
X53152820Y-151572614D01*
X53150014Y-151568277D01*
X52999670Y-151403051D01*
X52995619Y-151399852D01*
X52995615Y-151399848D01*
X52828414Y-151267800D01*
X52828410Y-151267798D01*
X52824359Y-151264598D01*
X52788028Y-151244542D01*
X52696970Y-151194276D01*
X52628789Y-151156638D01*
X52623920Y-151154914D01*
X52623916Y-151154912D01*
X52423087Y-151083795D01*
X52423083Y-151083794D01*
X52418212Y-151082069D01*
X52413119Y-151081162D01*
X52413116Y-151081161D01*
X52203373Y-151043800D01*
X52203367Y-151043799D01*
X52198284Y-151042894D01*
X52124452Y-151041992D01*
X51980081Y-151040228D01*
X51980079Y-151040228D01*
X51974911Y-151040165D01*
X51754091Y-151073955D01*
X51541756Y-151143357D01*
X51343607Y-151246507D01*
X51339474Y-151249610D01*
X51339471Y-151249612D01*
X51182190Y-151367702D01*
X51164965Y-151380635D01*
X51161393Y-151384373D01*
X51083898Y-151465466D01*
X51022374Y-151500895D01*
X50951462Y-151497438D01*
X50893676Y-151456192D01*
X50874823Y-151422644D01*
X50833324Y-151311946D01*
X50824786Y-151296351D01*
X50748285Y-151194276D01*
X50735724Y-151181715D01*
X50633649Y-151105214D01*
X50618054Y-151096676D01*
X50497606Y-151051522D01*
X50482351Y-151047895D01*
X50431486Y-151042369D01*
X50424672Y-151042000D01*
X49802115Y-151042000D01*
X49786876Y-151046475D01*
X49785671Y-151047865D01*
X49784000Y-151055548D01*
X49784000Y-153739884D01*
X49276000Y-153739884D01*
X49276000Y-152672115D01*
X49271525Y-152656876D01*
X49270135Y-152655671D01*
X49262452Y-152654000D01*
X48190116Y-152654000D01*
X48174877Y-152658475D01*
X48173672Y-152659865D01*
X48172001Y-152667548D01*
X48172001Y-153294669D01*
X45424006Y-153294669D01*
X45422358Y-153291568D01*
X44612812Y-152482022D01*
X44598868Y-152474408D01*
X44597035Y-152474539D01*
X44590420Y-152478790D01*
X43773635Y-153295575D01*
X43766358Y-153308900D01*
X40946476Y-153308900D01*
X40986169Y-153296916D01*
X41160796Y-153204066D01*
X41285847Y-153102077D01*
X41309287Y-153082960D01*
X41309290Y-153082957D01*
X41314062Y-153079065D01*
X41326344Y-153064219D01*
X41436201Y-152931425D01*
X41436203Y-152931421D01*
X41440130Y-152926675D01*
X41534198Y-152752701D01*
X41592682Y-152563768D01*
X41594786Y-152543749D01*
X41612711Y-152373204D01*
X41612711Y-152373202D01*
X41613355Y-152367075D01*
X41596766Y-152184789D01*
X41595989Y-152176251D01*
X41595988Y-152176248D01*
X41595430Y-152170112D01*
X41586608Y-152140135D01*
X41568736Y-152079412D01*
X43137737Y-152079412D01*
X43150944Y-152308451D01*
X43152377Y-152318653D01*
X43202810Y-152542442D01*
X43205898Y-152552295D01*
X43292204Y-152764840D01*
X43296852Y-152774041D01*
X43393736Y-152932143D01*
X43404192Y-152941604D01*
X43412970Y-152937820D01*
X44227978Y-152122812D01*
X44234356Y-152111132D01*
X44964408Y-152111132D01*
X44964539Y-152112965D01*
X44968790Y-152119580D01*
X45782130Y-152932920D01*
X45794141Y-152939479D01*
X45805880Y-152930511D01*
X45851012Y-152867702D01*
X45856327Y-152858857D01*
X45957966Y-152653206D01*
X45961765Y-152643611D01*
X46028453Y-152424120D01*
X46030632Y-152414039D01*
X46060813Y-152184789D01*
X46061332Y-152178114D01*
X46062560Y-152127885D01*
X48172000Y-152127885D01*
X48176475Y-152143124D01*
X48177865Y-152144329D01*
X48185548Y-152146000D01*
X49257885Y-152146000D01*
X49273124Y-152141525D01*
X49274329Y-152140135D01*
X49276000Y-152132452D01*
X49276000Y-151060116D01*
X49271525Y-151044877D01*
X49270135Y-151043672D01*
X49262452Y-151042001D01*
X48635331Y-151042001D01*
X48628510Y-151042371D01*
X48577648Y-151047895D01*
X48562396Y-151051521D01*
X48441946Y-151096676D01*
X48426351Y-151105214D01*
X48324276Y-151181715D01*
X48311715Y-151194276D01*
X48235214Y-151296351D01*
X48226676Y-151311946D01*
X48181522Y-151432394D01*
X48177895Y-151447649D01*
X48172369Y-151498514D01*
X48172000Y-151505328D01*
X48172000Y-152127885D01*
X46062560Y-152127885D01*
X46062915Y-152113364D01*
X46062721Y-152106647D01*
X46043776Y-151876206D01*
X46042093Y-151866044D01*
X45986204Y-151643539D01*
X45982883Y-151633784D01*
X45891409Y-151423410D01*
X45886531Y-151414312D01*
X45805384Y-151288876D01*
X45794698Y-151279674D01*
X45785133Y-151284077D01*
X44972022Y-152097188D01*
X44964408Y-152111132D01*
X44234356Y-152111132D01*
X44235592Y-152108868D01*
X44235461Y-152107035D01*
X44231210Y-152100420D01*
X43417884Y-151287094D01*
X43406348Y-151280794D01*
X43394065Y-151290418D01*
X43330849Y-151383089D01*
X43325756Y-151392053D01*
X43229163Y-151600145D01*
X43225606Y-151609813D01*
X43164299Y-151830879D01*
X43162368Y-151840999D01*
X43137989Y-152069123D01*
X43137737Y-152079412D01*
X41568736Y-152079412D01*
X41541330Y-151986294D01*
X41539590Y-151980381D01*
X41529919Y-151961881D01*
X41450813Y-151810568D01*
X41447960Y-151805110D01*
X41324032Y-151650975D01*
X41317727Y-151645684D01*
X41244251Y-151584031D01*
X41172526Y-151523846D01*
X41167128Y-151520879D01*
X41167123Y-151520875D01*
X41004608Y-151431533D01*
X41004609Y-151431533D01*
X40999213Y-151428567D01*
X40993346Y-151426706D01*
X40993344Y-151426705D01*
X40816564Y-151370627D01*
X40816563Y-151370627D01*
X40810694Y-151368765D01*
X40656773Y-151351500D01*
X40550231Y-151351500D01*
X40547175Y-151351800D01*
X40547168Y-151351800D01*
X40488660Y-151357537D01*
X40403167Y-151365920D01*
X40397266Y-151367702D01*
X40397264Y-151367702D01*
X40342048Y-151384373D01*
X40213831Y-151423084D01*
X40039204Y-151515934D01*
X39974092Y-151569038D01*
X39890713Y-151637040D01*
X39890710Y-151637043D01*
X39885938Y-151640935D01*
X39882011Y-151645682D01*
X39882009Y-151645684D01*
X39763799Y-151788575D01*
X39763797Y-151788579D01*
X39759870Y-151793325D01*
X39665802Y-151967299D01*
X39607318Y-152156232D01*
X39606674Y-152162357D01*
X39606674Y-152162358D01*
X39593431Y-152288364D01*
X39586645Y-152352925D01*
X38501636Y-152352925D01*
X38486679Y-152293375D01*
X38486678Y-152293371D01*
X38485420Y-152288364D01*
X38483364Y-152283634D01*
X38483361Y-152283627D01*
X38391847Y-152073159D01*
X38391845Y-152073156D01*
X38389787Y-152068422D01*
X38332831Y-151980381D01*
X38262325Y-151871396D01*
X38262323Y-151871393D01*
X38259515Y-151867053D01*
X38208118Y-151810568D01*
X38101582Y-151693487D01*
X38101580Y-151693486D01*
X38098104Y-151689665D01*
X38094053Y-151686466D01*
X38094049Y-151686462D01*
X37913946Y-151544226D01*
X37909888Y-151541021D01*
X37699922Y-151425113D01*
X37538863Y-151368079D01*
X37478720Y-151346781D01*
X37478716Y-151346780D01*
X37473845Y-151345055D01*
X37468752Y-151344148D01*
X37468749Y-151344147D01*
X37242816Y-151303902D01*
X37242810Y-151303901D01*
X37237727Y-151302996D01*
X37150460Y-151301930D01*
X37003081Y-151300129D01*
X37003079Y-151300129D01*
X36997911Y-151300066D01*
X36760837Y-151336343D01*
X36532871Y-151410854D01*
X36491493Y-151432394D01*
X36325302Y-151518908D01*
X36320136Y-151521597D01*
X36270151Y-151559127D01*
X36203668Y-151584031D01*
X36134272Y-151569038D01*
X36083999Y-151518908D01*
X36068500Y-151458365D01*
X36068500Y-150914999D01*
X43769795Y-150914999D01*
X43776540Y-150927330D01*
X44587188Y-151737978D01*
X44601132Y-151745592D01*
X44602965Y-151745461D01*
X44609580Y-151741210D01*
X45424590Y-150926200D01*
X45431611Y-150913343D01*
X45423838Y-150902676D01*
X45413667Y-150894643D01*
X45405083Y-150888940D01*
X45204250Y-150778074D01*
X45194838Y-150773844D01*
X44978591Y-150697266D01*
X44968620Y-150694632D01*
X44742769Y-150654402D01*
X44732516Y-150653433D01*
X44503116Y-150650630D01*
X44492832Y-150651350D01*
X44266067Y-150686050D01*
X44256039Y-150688439D01*
X44037984Y-150759710D01*
X44028475Y-150763707D01*
X43824993Y-150869633D01*
X43816268Y-150875127D01*
X43778248Y-150903674D01*
X43769795Y-150914999D01*
X36068500Y-150914999D01*
X36068500Y-148265865D01*
X36088502Y-148197744D01*
X36142158Y-148151251D01*
X36212432Y-148141147D01*
X36259921Y-148159940D01*
X36260571Y-148158828D01*
X36467643Y-148279831D01*
X36472468Y-148281673D01*
X36472469Y-148281674D01*
X36504811Y-148294024D01*
X36691697Y-148365389D01*
X36696763Y-148366420D01*
X36696764Y-148366420D01*
X36706988Y-148368500D01*
X36926716Y-148413204D01*
X37062264Y-148418174D01*
X37161225Y-148421803D01*
X37161229Y-148421803D01*
X37166389Y-148421992D01*
X37171509Y-148421336D01*
X37171511Y-148421336D01*
X37399151Y-148392175D01*
X37399152Y-148392175D01*
X37404279Y-148391518D01*
X37487935Y-148366420D01*
X37629042Y-148324086D01*
X37629047Y-148324084D01*
X37633997Y-148322599D01*
X37849374Y-148217087D01*
X37853579Y-148214087D01*
X37853585Y-148214084D01*
X37955838Y-148141147D01*
X38044627Y-148077815D01*
X38214511Y-147908523D01*
X38260584Y-147844406D01*
X38351445Y-147717958D01*
X38354463Y-147713758D01*
X38358545Y-147705500D01*
X38458433Y-147503392D01*
X38458434Y-147503390D01*
X38460727Y-147498750D01*
X38505032Y-147352925D01*
X39586645Y-147352925D01*
X39592185Y-147413803D01*
X39603768Y-147541071D01*
X39604570Y-147549888D01*
X39606308Y-147555794D01*
X39606309Y-147555798D01*
X39617341Y-147593280D01*
X39660410Y-147739619D01*
X39663263Y-147745077D01*
X39663265Y-147745081D01*
X39710720Y-147835853D01*
X39752040Y-147914890D01*
X39875968Y-148069025D01*
X39880692Y-148072989D01*
X39886443Y-148077815D01*
X40027474Y-148196154D01*
X40032872Y-148199121D01*
X40032877Y-148199125D01*
X40174941Y-148277224D01*
X40200787Y-148291433D01*
X40206654Y-148293294D01*
X40206656Y-148293295D01*
X40383436Y-148349373D01*
X40389306Y-148351235D01*
X40543227Y-148368500D01*
X40649769Y-148368500D01*
X40652825Y-148368200D01*
X40652832Y-148368200D01*
X40711340Y-148362463D01*
X40796833Y-148354080D01*
X40802734Y-148352298D01*
X40802736Y-148352298D01*
X40908651Y-148320320D01*
X40986169Y-148296916D01*
X41160796Y-148204066D01*
X41247062Y-148133709D01*
X41309287Y-148082960D01*
X41309290Y-148082957D01*
X41314062Y-148079065D01*
X41382017Y-147996922D01*
X41436201Y-147931425D01*
X41436203Y-147931421D01*
X41440130Y-147926675D01*
X41534198Y-147752701D01*
X41592682Y-147563768D01*
X41593783Y-147553294D01*
X41612711Y-147373204D01*
X41612711Y-147373202D01*
X41613355Y-147367075D01*
X41603988Y-147264147D01*
X41595989Y-147176251D01*
X41595988Y-147176248D01*
X41595430Y-147170112D01*
X41539590Y-146980381D01*
X41536061Y-146973629D01*
X41450813Y-146810568D01*
X41447960Y-146805110D01*
X41324032Y-146650975D01*
X41317727Y-146645684D01*
X41273375Y-146608469D01*
X41172526Y-146523846D01*
X41167128Y-146520879D01*
X41167123Y-146520875D01*
X41004608Y-146431533D01*
X41004609Y-146431533D01*
X40999213Y-146428567D01*
X40993346Y-146426706D01*
X40993344Y-146426705D01*
X40816564Y-146370627D01*
X40816563Y-146370627D01*
X40810694Y-146368765D01*
X40656773Y-146351500D01*
X40550231Y-146351500D01*
X40547175Y-146351800D01*
X40547168Y-146351800D01*
X40488660Y-146357537D01*
X40403167Y-146365920D01*
X40397266Y-146367702D01*
X40397264Y-146367702D01*
X40323947Y-146389838D01*
X40213831Y-146423084D01*
X40039204Y-146515934D01*
X39952938Y-146586291D01*
X39890713Y-146637040D01*
X39890710Y-146637043D01*
X39885938Y-146640935D01*
X39882011Y-146645682D01*
X39882009Y-146645684D01*
X39763799Y-146788575D01*
X39763797Y-146788579D01*
X39759870Y-146793325D01*
X39665802Y-146967299D01*
X39607318Y-147156232D01*
X39606674Y-147162357D01*
X39606674Y-147162358D01*
X39594419Y-147278964D01*
X39586645Y-147352925D01*
X38505032Y-147352925D01*
X38530447Y-147269274D01*
X38561752Y-147031492D01*
X38561891Y-147025819D01*
X38563417Y-146963365D01*
X38563417Y-146963361D01*
X38563499Y-146960000D01*
X38551213Y-146810568D01*
X38544271Y-146726124D01*
X38544270Y-146726118D01*
X38543847Y-146720973D01*
X38502796Y-146557540D01*
X38486679Y-146493375D01*
X38486678Y-146493371D01*
X38485420Y-146488364D01*
X38483364Y-146483634D01*
X38483361Y-146483627D01*
X38391847Y-146273159D01*
X38391845Y-146273156D01*
X38389787Y-146268422D01*
X38355079Y-146214771D01*
X38262325Y-146071396D01*
X38262323Y-146071393D01*
X38259515Y-146067053D01*
X38205825Y-146008048D01*
X38101582Y-145893487D01*
X38101580Y-145893486D01*
X38098104Y-145889665D01*
X38094053Y-145886466D01*
X38094049Y-145886462D01*
X37913946Y-145744226D01*
X37909888Y-145741021D01*
X37699922Y-145625113D01*
X37577458Y-145581746D01*
X37478720Y-145546781D01*
X37478716Y-145546780D01*
X37473845Y-145545055D01*
X37468752Y-145544148D01*
X37468749Y-145544147D01*
X37242816Y-145503902D01*
X37242810Y-145503901D01*
X37237727Y-145502996D01*
X37150460Y-145501930D01*
X37003081Y-145500129D01*
X37003079Y-145500129D01*
X36997911Y-145500066D01*
X36760837Y-145536343D01*
X36532871Y-145610854D01*
X36528279Y-145613244D01*
X36528280Y-145613244D01*
X36325302Y-145718908D01*
X36320136Y-145721597D01*
X36270151Y-145759127D01*
X36203668Y-145784031D01*
X36134272Y-145769038D01*
X36083999Y-145718908D01*
X36068500Y-145658365D01*
X36068500Y-143278243D01*
X48841312Y-143278243D01*
X48850608Y-143290258D01*
X48903974Y-143327625D01*
X48913469Y-143333108D01*
X49112513Y-143425923D01*
X49122805Y-143429669D01*
X49334942Y-143486511D01*
X49345737Y-143488414D01*
X49564525Y-143507556D01*
X49575475Y-143507556D01*
X49794263Y-143488414D01*
X49805058Y-143486511D01*
X50017195Y-143429669D01*
X50027487Y-143425923D01*
X50226531Y-143333108D01*
X50236026Y-143327625D01*
X50290230Y-143289671D01*
X50298605Y-143279194D01*
X50291537Y-143265747D01*
X49582812Y-142557022D01*
X49568868Y-142549408D01*
X49567035Y-142549539D01*
X49560420Y-142553790D01*
X48847742Y-143266468D01*
X48841312Y-143278243D01*
X36068500Y-143278243D01*
X36068500Y-142190475D01*
X48247444Y-142190475D01*
X48266586Y-142409263D01*
X48268489Y-142420058D01*
X48325331Y-142632195D01*
X48329077Y-142642487D01*
X48421895Y-142841536D01*
X48427373Y-142851022D01*
X48465328Y-142905229D01*
X48475806Y-142913604D01*
X48489254Y-142906536D01*
X49197978Y-142197812D01*
X49204356Y-142186132D01*
X49934408Y-142186132D01*
X49934539Y-142187965D01*
X49938790Y-142194580D01*
X50651468Y-142907258D01*
X50663242Y-142913688D01*
X50675258Y-142904391D01*
X50712627Y-142851022D01*
X50718105Y-142841536D01*
X50810923Y-142642487D01*
X50814669Y-142632195D01*
X50871511Y-142420058D01*
X50873414Y-142409263D01*
X50892556Y-142190475D01*
X50892556Y-142179525D01*
X50873414Y-141960737D01*
X50871511Y-141949942D01*
X50814669Y-141737805D01*
X50810923Y-141727513D01*
X50718105Y-141528464D01*
X50712627Y-141518978D01*
X50674672Y-141464771D01*
X50664194Y-141456396D01*
X50650746Y-141463464D01*
X49942022Y-142172188D01*
X49934408Y-142186132D01*
X49204356Y-142186132D01*
X49205592Y-142183868D01*
X49205461Y-142182035D01*
X49201210Y-142175420D01*
X48488532Y-141462742D01*
X48476758Y-141456312D01*
X48464742Y-141465609D01*
X48427373Y-141518978D01*
X48421895Y-141528464D01*
X48329077Y-141727513D01*
X48325331Y-141737805D01*
X48268489Y-141949942D01*
X48266586Y-141960737D01*
X48247444Y-142179525D01*
X48247444Y-142190475D01*
X36068500Y-142190475D01*
X36068500Y-140326344D01*
X36088502Y-140258223D01*
X36142158Y-140211730D01*
X36212432Y-140201626D01*
X36259921Y-140220419D01*
X36260571Y-140219307D01*
X36467643Y-140340310D01*
X36691697Y-140425868D01*
X36696763Y-140426899D01*
X36696764Y-140426899D01*
X36753039Y-140438348D01*
X36926716Y-140473683D01*
X37062264Y-140478653D01*
X37161225Y-140482282D01*
X37161229Y-140482282D01*
X37166389Y-140482471D01*
X37171509Y-140481815D01*
X37171511Y-140481815D01*
X37399151Y-140452654D01*
X37399152Y-140452654D01*
X37404279Y-140451997D01*
X37487935Y-140426899D01*
X37629042Y-140384565D01*
X37629047Y-140384563D01*
X37633997Y-140383078D01*
X37849374Y-140277566D01*
X37853579Y-140274566D01*
X37853585Y-140274563D01*
X38001263Y-140169225D01*
X38044627Y-140138294D01*
X38214511Y-139969002D01*
X38235930Y-139939195D01*
X38351445Y-139778437D01*
X38354463Y-139774237D01*
X38388448Y-139705475D01*
X38458433Y-139563871D01*
X38458434Y-139563869D01*
X38460727Y-139559229D01*
X38530447Y-139329753D01*
X38561752Y-139091971D01*
X38563499Y-139020479D01*
X38551185Y-138870700D01*
X38544271Y-138786603D01*
X38544270Y-138786597D01*
X38543847Y-138781452D01*
X38505191Y-138627554D01*
X38501637Y-138613404D01*
X39586645Y-138613404D01*
X39589848Y-138648599D01*
X39601939Y-138781452D01*
X39604570Y-138810367D01*
X39660410Y-139000098D01*
X39663263Y-139005556D01*
X39663265Y-139005560D01*
X39671065Y-139020479D01*
X39752040Y-139175369D01*
X39875968Y-139329504D01*
X39880692Y-139333468D01*
X39887933Y-139339544D01*
X40027474Y-139456633D01*
X40032872Y-139459600D01*
X40032877Y-139459604D01*
X40096945Y-139494825D01*
X40200787Y-139551912D01*
X40206654Y-139553773D01*
X40206656Y-139553774D01*
X40276406Y-139575900D01*
X40389306Y-139611714D01*
X40543227Y-139628979D01*
X40649769Y-139628979D01*
X40652825Y-139628679D01*
X40652832Y-139628679D01*
X40711340Y-139622942D01*
X40796833Y-139614559D01*
X40802734Y-139612777D01*
X40802736Y-139612777D01*
X40876053Y-139590641D01*
X40946476Y-139569379D01*
X43766358Y-139569379D01*
X43769661Y-139574039D01*
X43963399Y-139687250D01*
X43972686Y-139691700D01*
X44187006Y-139773541D01*
X44196908Y-139776418D01*
X44421699Y-139822152D01*
X44431951Y-139823375D01*
X44661202Y-139831781D01*
X44671488Y-139831314D01*
X44899043Y-139802163D01*
X44909129Y-139800020D01*
X45128864Y-139734096D01*
X45138459Y-139730335D01*
X45344466Y-139629414D01*
X45353332Y-139624129D01*
X45420945Y-139575900D01*
X45429346Y-139565200D01*
X45422358Y-139552047D01*
X44612812Y-138742501D01*
X44598868Y-138734887D01*
X44597035Y-138735018D01*
X44590420Y-138739269D01*
X43773635Y-139556054D01*
X43766358Y-139569379D01*
X40946476Y-139569379D01*
X40986169Y-139557395D01*
X41160796Y-139464545D01*
X41247062Y-139394188D01*
X41309287Y-139343439D01*
X41309290Y-139343436D01*
X41314062Y-139339544D01*
X41326344Y-139324698D01*
X41436201Y-139191904D01*
X41436203Y-139191900D01*
X41440130Y-139187154D01*
X41534198Y-139013180D01*
X41592682Y-138824247D01*
X41594786Y-138804228D01*
X41612711Y-138633683D01*
X41612711Y-138633681D01*
X41613355Y-138627554D01*
X41602230Y-138505314D01*
X41595989Y-138436730D01*
X41595988Y-138436727D01*
X41595430Y-138430591D01*
X41579376Y-138376041D01*
X41568736Y-138339891D01*
X43137737Y-138339891D01*
X43150944Y-138568930D01*
X43152377Y-138579132D01*
X43202810Y-138802921D01*
X43205898Y-138812774D01*
X43292204Y-139025319D01*
X43296852Y-139034520D01*
X43393736Y-139192622D01*
X43404192Y-139202083D01*
X43412970Y-139198299D01*
X44227978Y-138383291D01*
X44234356Y-138371611D01*
X44964408Y-138371611D01*
X44964539Y-138373444D01*
X44968790Y-138380059D01*
X45782130Y-139193399D01*
X45794141Y-139199958D01*
X45805880Y-139190990D01*
X45851012Y-139128181D01*
X45856327Y-139119336D01*
X45957966Y-138913685D01*
X45961765Y-138904090D01*
X46028453Y-138684599D01*
X46030632Y-138674518D01*
X46060813Y-138445268D01*
X46061332Y-138438593D01*
X46062915Y-138373843D01*
X46062721Y-138367126D01*
X46043776Y-138136685D01*
X46042093Y-138126523D01*
X45986204Y-137904018D01*
X45982883Y-137894263D01*
X45891409Y-137683889D01*
X45886531Y-137674791D01*
X45805384Y-137549355D01*
X45794698Y-137540153D01*
X45785133Y-137544556D01*
X44972022Y-138357667D01*
X44964408Y-138371611D01*
X44234356Y-138371611D01*
X44235592Y-138369347D01*
X44235461Y-138367514D01*
X44231210Y-138360899D01*
X43417884Y-137547573D01*
X43406348Y-137541273D01*
X43394065Y-137550897D01*
X43330849Y-137643568D01*
X43325756Y-137652532D01*
X43229163Y-137860624D01*
X43225606Y-137870292D01*
X43164299Y-138091358D01*
X43162368Y-138101478D01*
X43137989Y-138329602D01*
X43137737Y-138339891D01*
X41568736Y-138339891D01*
X41541330Y-138246773D01*
X41539590Y-138240860D01*
X41529919Y-138222360D01*
X41485128Y-138136685D01*
X41447960Y-138065589D01*
X41324032Y-137911454D01*
X41317727Y-137906163D01*
X41244251Y-137844510D01*
X41172526Y-137784325D01*
X41167128Y-137781358D01*
X41167123Y-137781354D01*
X41004608Y-137692012D01*
X41004609Y-137692012D01*
X40999213Y-137689046D01*
X40993346Y-137687185D01*
X40993344Y-137687184D01*
X40816564Y-137631106D01*
X40816563Y-137631106D01*
X40810694Y-137629244D01*
X40656773Y-137611979D01*
X40550231Y-137611979D01*
X40547175Y-137612279D01*
X40547168Y-137612279D01*
X40488660Y-137618016D01*
X40403167Y-137626399D01*
X40397266Y-137628181D01*
X40397264Y-137628181D01*
X40328604Y-137648911D01*
X40213831Y-137683563D01*
X40039204Y-137776413D01*
X40004515Y-137804705D01*
X39890713Y-137897519D01*
X39890710Y-137897522D01*
X39885938Y-137901414D01*
X39882011Y-137906161D01*
X39882009Y-137906163D01*
X39763799Y-138049054D01*
X39763797Y-138049058D01*
X39759870Y-138053804D01*
X39665802Y-138227778D01*
X39607318Y-138416711D01*
X39606674Y-138422836D01*
X39606674Y-138422837D01*
X39590666Y-138575151D01*
X39586645Y-138613404D01*
X38501637Y-138613404D01*
X38486679Y-138553854D01*
X38486678Y-138553850D01*
X38485420Y-138548843D01*
X38483364Y-138544113D01*
X38483361Y-138544106D01*
X38391847Y-138333638D01*
X38391845Y-138333635D01*
X38389787Y-138328901D01*
X38380697Y-138314849D01*
X38262325Y-138131875D01*
X38262323Y-138131872D01*
X38259515Y-138127532D01*
X38245643Y-138112286D01*
X38101582Y-137953966D01*
X38101580Y-137953965D01*
X38098104Y-137950144D01*
X38094053Y-137946945D01*
X38094049Y-137946941D01*
X37913946Y-137804705D01*
X37909888Y-137801500D01*
X37699922Y-137685592D01*
X37540800Y-137629244D01*
X37478720Y-137607260D01*
X37478716Y-137607259D01*
X37473845Y-137605534D01*
X37468752Y-137604627D01*
X37468749Y-137604626D01*
X37242816Y-137564381D01*
X37242810Y-137564380D01*
X37237727Y-137563475D01*
X37150460Y-137562409D01*
X37003081Y-137560608D01*
X37003079Y-137560608D01*
X36997911Y-137560545D01*
X36760837Y-137596822D01*
X36532871Y-137671333D01*
X36508797Y-137683865D01*
X36325302Y-137779387D01*
X36320136Y-137782076D01*
X36270151Y-137819606D01*
X36203668Y-137844510D01*
X36134272Y-137829517D01*
X36083999Y-137779387D01*
X36068500Y-137718844D01*
X36068500Y-137175478D01*
X43769795Y-137175478D01*
X43776540Y-137187809D01*
X44587188Y-137998457D01*
X44601132Y-138006071D01*
X44602965Y-138005940D01*
X44609580Y-138001689D01*
X45424590Y-137186679D01*
X45431611Y-137173822D01*
X45423838Y-137163155D01*
X45413667Y-137155122D01*
X45405083Y-137149419D01*
X45204250Y-137038553D01*
X45194838Y-137034323D01*
X44978591Y-136957745D01*
X44968620Y-136955111D01*
X44742769Y-136914881D01*
X44732516Y-136913912D01*
X44503116Y-136911109D01*
X44492832Y-136911829D01*
X44266067Y-136946529D01*
X44256039Y-136948918D01*
X44037984Y-137020189D01*
X44028475Y-137024186D01*
X43824993Y-137130112D01*
X43816268Y-137135606D01*
X43778248Y-137164153D01*
X43769795Y-137175478D01*
X36068500Y-137175478D01*
X36068500Y-134868613D01*
X43141500Y-134868613D01*
X43148255Y-134930795D01*
X43199385Y-135067184D01*
X43286739Y-135183740D01*
X43403295Y-135271094D01*
X43539684Y-135322224D01*
X43601866Y-135328979D01*
X44933629Y-135328979D01*
X45001750Y-135348981D01*
X45022724Y-135365884D01*
X47305751Y-137648911D01*
X47318137Y-137663323D01*
X47326670Y-137674918D01*
X47326675Y-137674923D01*
X47331013Y-137680818D01*
X47336591Y-137685557D01*
X47336594Y-137685560D01*
X47371289Y-137715035D01*
X47378805Y-137721965D01*
X47384500Y-137727660D01*
X47387382Y-137729940D01*
X47406772Y-137745281D01*
X47410176Y-137748072D01*
X47457518Y-137788292D01*
X47465806Y-137795333D01*
X47472322Y-137798661D01*
X47477371Y-137802028D01*
X47482500Y-137805195D01*
X47488237Y-137809734D01*
X47554396Y-137840655D01*
X47558290Y-137842558D01*
X47623329Y-137875769D01*
X47630437Y-137877508D01*
X47636080Y-137879607D01*
X47641843Y-137881524D01*
X47648471Y-137884622D01*
X47655633Y-137886112D01*
X47655634Y-137886112D01*
X47719933Y-137899486D01*
X47724217Y-137900456D01*
X47795131Y-137917808D01*
X47800733Y-137918156D01*
X47800736Y-137918156D01*
X47806285Y-137918500D01*
X47806283Y-137918536D01*
X47810276Y-137918775D01*
X47814468Y-137919149D01*
X47821636Y-137920640D01*
X47899041Y-137918546D01*
X47902449Y-137918500D01*
X48527233Y-137918500D01*
X48595354Y-137938502D01*
X48616328Y-137955405D01*
X48750224Y-138089301D01*
X48783054Y-138112289D01*
X48827381Y-138167743D01*
X48834690Y-138238362D01*
X48802660Y-138301723D01*
X48741459Y-138337708D01*
X48710782Y-138341500D01*
X48631866Y-138341500D01*
X48569684Y-138348255D01*
X48433295Y-138399385D01*
X48316739Y-138486739D01*
X48229385Y-138603295D01*
X48178255Y-138739684D01*
X48171500Y-138801866D01*
X48171500Y-140598134D01*
X48178255Y-140660316D01*
X48229385Y-140796705D01*
X48316739Y-140913261D01*
X48433295Y-141000615D01*
X48569684Y-141051745D01*
X48631866Y-141058500D01*
X48750520Y-141058500D01*
X48818641Y-141078502D01*
X48839615Y-141095405D01*
X49557188Y-141812978D01*
X49571132Y-141820592D01*
X49572965Y-141820461D01*
X49579580Y-141816210D01*
X50300385Y-141095405D01*
X50362697Y-141061379D01*
X50389480Y-141058500D01*
X50428134Y-141058500D01*
X50490316Y-141051745D01*
X50626705Y-141000615D01*
X50743261Y-140913261D01*
X50830615Y-140796705D01*
X50881745Y-140660316D01*
X50888500Y-140598134D01*
X50888500Y-138801866D01*
X50881745Y-138739684D01*
X50830615Y-138603295D01*
X50743261Y-138486739D01*
X50626705Y-138399385D01*
X50490316Y-138348255D01*
X50428134Y-138341500D01*
X50349218Y-138341500D01*
X50281097Y-138321498D01*
X50234604Y-138267842D01*
X50224500Y-138197568D01*
X50253994Y-138132988D01*
X50276942Y-138112292D01*
X50309776Y-138089301D01*
X50459301Y-137939776D01*
X50580589Y-137766558D01*
X50589873Y-137746650D01*
X50667633Y-137579892D01*
X50667634Y-137579891D01*
X50669956Y-137574910D01*
X50676804Y-137549355D01*
X50723262Y-137375970D01*
X50723262Y-137375968D01*
X50724686Y-137370655D01*
X50743116Y-137160000D01*
X50724686Y-136949345D01*
X50716180Y-136917599D01*
X50671379Y-136750400D01*
X50671378Y-136750398D01*
X50669956Y-136745090D01*
X50580589Y-136553442D01*
X50459301Y-136380224D01*
X50309776Y-136230699D01*
X50136558Y-136109411D01*
X50131580Y-136107090D01*
X50131577Y-136107088D01*
X49949892Y-136022367D01*
X49949891Y-136022366D01*
X49944910Y-136020044D01*
X49939603Y-136018622D01*
X49939592Y-136018618D01*
X49912829Y-136011447D01*
X49852207Y-135974496D01*
X49821185Y-135910635D01*
X49829614Y-135840140D01*
X49874818Y-135785394D01*
X49912830Y-135768034D01*
X49939426Y-135760908D01*
X49949723Y-135757159D01*
X50131323Y-135672479D01*
X50140811Y-135667002D01*
X50304942Y-135552075D01*
X50313350Y-135545019D01*
X50455019Y-135403350D01*
X50462075Y-135394942D01*
X50577002Y-135230811D01*
X50582479Y-135221323D01*
X50667158Y-135039727D01*
X50670908Y-135029423D01*
X50707866Y-134891497D01*
X50707530Y-134877401D01*
X50699588Y-134874000D01*
X48365561Y-134874000D01*
X48352030Y-134877973D01*
X48350801Y-134886522D01*
X48389092Y-135029423D01*
X48392842Y-135039727D01*
X48477521Y-135221323D01*
X48482998Y-135230811D01*
X48597925Y-135394942D01*
X48604981Y-135403350D01*
X48746650Y-135545019D01*
X48755058Y-135552075D01*
X48919189Y-135667002D01*
X48928677Y-135672479D01*
X49110277Y-135757159D01*
X49120574Y-135760908D01*
X49147170Y-135768034D01*
X49207793Y-135804986D01*
X49238814Y-135868846D01*
X49230386Y-135939341D01*
X49185183Y-135994088D01*
X49147171Y-136011447D01*
X49120408Y-136018618D01*
X49120397Y-136018622D01*
X49115090Y-136020044D01*
X49110109Y-136022366D01*
X49110108Y-136022367D01*
X48928423Y-136107088D01*
X48928420Y-136107090D01*
X48923442Y-136109411D01*
X48750224Y-136230699D01*
X48616328Y-136364595D01*
X48554016Y-136398621D01*
X48527233Y-136401500D01*
X48255892Y-136401500D01*
X48187771Y-136381498D01*
X48166797Y-136364595D01*
X46150705Y-134348503D01*
X48352134Y-134348503D01*
X48352470Y-134362599D01*
X48360412Y-134366000D01*
X49257885Y-134366000D01*
X49273124Y-134361525D01*
X49274329Y-134360135D01*
X49276000Y-134352452D01*
X49276000Y-134347885D01*
X49784000Y-134347885D01*
X49788475Y-134363124D01*
X49789865Y-134364329D01*
X49797548Y-134366000D01*
X50694439Y-134366000D01*
X50707970Y-134362027D01*
X50709199Y-134353478D01*
X50670908Y-134210577D01*
X50667158Y-134200273D01*
X50582479Y-134018677D01*
X50577002Y-134009189D01*
X50462075Y-133845058D01*
X50455019Y-133836650D01*
X50313350Y-133694981D01*
X50304942Y-133687925D01*
X50140811Y-133572998D01*
X50131323Y-133567521D01*
X49949727Y-133482842D01*
X49939423Y-133479092D01*
X49801497Y-133442134D01*
X49787401Y-133442470D01*
X49784000Y-133450412D01*
X49784000Y-134347885D01*
X49276000Y-134347885D01*
X49276000Y-133455561D01*
X49272027Y-133442030D01*
X49263478Y-133440801D01*
X49120577Y-133479092D01*
X49110273Y-133482842D01*
X48928677Y-133567521D01*
X48919189Y-133572998D01*
X48755058Y-133687925D01*
X48746650Y-133694981D01*
X48604981Y-133836650D01*
X48597925Y-133845058D01*
X48482998Y-134009189D01*
X48477521Y-134018677D01*
X48392842Y-134200273D01*
X48389092Y-134210577D01*
X48352134Y-134348503D01*
X46150705Y-134348503D01*
X46095405Y-134293203D01*
X46061379Y-134230891D01*
X46058500Y-134204108D01*
X46058500Y-132872345D01*
X46051745Y-132810163D01*
X46000615Y-132673774D01*
X45913261Y-132557218D01*
X45796705Y-132469864D01*
X45660316Y-132418734D01*
X45598134Y-132411979D01*
X43601866Y-132411979D01*
X43539684Y-132418734D01*
X43403295Y-132469864D01*
X43286739Y-132557218D01*
X43199385Y-132673774D01*
X43148255Y-132810163D01*
X43141500Y-132872345D01*
X43141500Y-134868613D01*
X36068500Y-134868613D01*
X36068500Y-134526344D01*
X36088502Y-134458223D01*
X36142158Y-134411730D01*
X36212432Y-134401626D01*
X36259921Y-134420419D01*
X36260571Y-134419307D01*
X36467643Y-134540310D01*
X36472468Y-134542152D01*
X36472469Y-134542153D01*
X36504811Y-134554503D01*
X36691697Y-134625868D01*
X36696763Y-134626899D01*
X36696764Y-134626899D01*
X36736582Y-134635000D01*
X36926716Y-134673683D01*
X37062264Y-134678653D01*
X37161225Y-134682282D01*
X37161229Y-134682282D01*
X37166389Y-134682471D01*
X37171509Y-134681815D01*
X37171511Y-134681815D01*
X37399151Y-134652654D01*
X37399152Y-134652654D01*
X37404279Y-134651997D01*
X37487935Y-134626899D01*
X37629042Y-134584565D01*
X37629047Y-134584563D01*
X37633997Y-134583078D01*
X37849374Y-134477566D01*
X37853579Y-134474566D01*
X37853585Y-134474563D01*
X37955878Y-134401598D01*
X38044627Y-134338294D01*
X38214511Y-134169002D01*
X38354463Y-133974237D01*
X38418308Y-133845058D01*
X38458433Y-133763871D01*
X38458434Y-133763869D01*
X38460727Y-133759229D01*
X38505032Y-133613404D01*
X39586645Y-133613404D01*
X39588401Y-133632699D01*
X39603191Y-133795211D01*
X39604570Y-133810367D01*
X39660410Y-134000098D01*
X39663263Y-134005556D01*
X39663265Y-134005560D01*
X39670123Y-134018677D01*
X39752040Y-134175369D01*
X39875968Y-134329504D01*
X39880692Y-134333468D01*
X39886443Y-134338294D01*
X40027474Y-134456633D01*
X40032872Y-134459600D01*
X40032877Y-134459604D01*
X40158459Y-134528642D01*
X40200787Y-134551912D01*
X40206654Y-134553773D01*
X40206656Y-134553774D01*
X40383436Y-134609852D01*
X40389306Y-134611714D01*
X40543227Y-134628979D01*
X40649769Y-134628979D01*
X40652825Y-134628679D01*
X40652832Y-134628679D01*
X40711340Y-134622942D01*
X40796833Y-134614559D01*
X40802734Y-134612777D01*
X40802736Y-134612777D01*
X40908651Y-134580799D01*
X40986169Y-134557395D01*
X41160796Y-134464545D01*
X41283673Y-134364329D01*
X41309287Y-134343439D01*
X41309290Y-134343436D01*
X41314062Y-134339544D01*
X41330710Y-134319420D01*
X41436201Y-134191904D01*
X41436203Y-134191900D01*
X41440130Y-134187154D01*
X41534198Y-134013180D01*
X41592682Y-133824247D01*
X41596208Y-133790700D01*
X41612711Y-133633683D01*
X41612711Y-133633681D01*
X41613355Y-133627554D01*
X41602839Y-133512002D01*
X41595989Y-133436730D01*
X41595988Y-133436727D01*
X41595430Y-133430591D01*
X41586638Y-133400716D01*
X41555609Y-133295289D01*
X41539590Y-133240860D01*
X41535232Y-133232523D01*
X41489280Y-133144626D01*
X41447960Y-133065589D01*
X41324032Y-132911454D01*
X41317727Y-132906163D01*
X41273375Y-132868948D01*
X41172526Y-132784325D01*
X41167128Y-132781358D01*
X41167123Y-132781354D01*
X41004608Y-132692012D01*
X41004609Y-132692012D01*
X40999213Y-132689046D01*
X40993346Y-132687185D01*
X40993344Y-132687184D01*
X40816564Y-132631106D01*
X40816563Y-132631106D01*
X40810694Y-132629244D01*
X40656773Y-132611979D01*
X40550231Y-132611979D01*
X40547175Y-132612279D01*
X40547168Y-132612279D01*
X40488660Y-132618016D01*
X40403167Y-132626399D01*
X40397266Y-132628181D01*
X40397264Y-132628181D01*
X40323947Y-132650317D01*
X40213831Y-132683563D01*
X40039204Y-132776413D01*
X39952938Y-132846770D01*
X39890713Y-132897519D01*
X39890710Y-132897522D01*
X39885938Y-132901414D01*
X39882011Y-132906161D01*
X39882009Y-132906163D01*
X39763799Y-133049054D01*
X39763797Y-133049058D01*
X39759870Y-133053804D01*
X39665802Y-133227778D01*
X39607318Y-133416711D01*
X39606674Y-133422836D01*
X39606674Y-133422837D01*
X39597303Y-133512002D01*
X39586645Y-133613404D01*
X38505032Y-133613404D01*
X38530447Y-133529753D01*
X38561752Y-133291971D01*
X38562758Y-133250805D01*
X38563417Y-133223844D01*
X38563417Y-133223840D01*
X38563499Y-133220479D01*
X38551213Y-133071047D01*
X38544271Y-132986603D01*
X38544270Y-132986597D01*
X38543847Y-132981452D01*
X38502796Y-132818019D01*
X38486679Y-132753854D01*
X38486678Y-132753850D01*
X38485420Y-132748843D01*
X38483364Y-132744113D01*
X38483361Y-132744106D01*
X38391847Y-132533638D01*
X38391845Y-132533635D01*
X38389787Y-132528901D01*
X38365815Y-132491845D01*
X38262325Y-132331875D01*
X38262323Y-132331872D01*
X38259515Y-132327532D01*
X38255471Y-132323087D01*
X38101582Y-132153966D01*
X38101580Y-132153965D01*
X38098104Y-132150144D01*
X38094053Y-132146945D01*
X38094049Y-132146941D01*
X37913946Y-132004705D01*
X37909888Y-132001500D01*
X37699922Y-131885592D01*
X37577458Y-131842225D01*
X37478720Y-131807260D01*
X37478716Y-131807259D01*
X37473845Y-131805534D01*
X37468752Y-131804627D01*
X37468749Y-131804626D01*
X37242816Y-131764381D01*
X37242810Y-131764380D01*
X37237727Y-131763475D01*
X37150460Y-131762409D01*
X37003081Y-131760608D01*
X37003079Y-131760608D01*
X36997911Y-131760545D01*
X36760837Y-131796822D01*
X36532871Y-131871333D01*
X36528279Y-131873723D01*
X36528280Y-131873723D01*
X36325302Y-131979387D01*
X36320136Y-131982076D01*
X36270151Y-132019606D01*
X36203668Y-132044510D01*
X36134272Y-132029517D01*
X36083999Y-131979387D01*
X36068500Y-131918844D01*
X36068500Y-126960000D01*
X48206464Y-126960000D01*
X48226571Y-127189830D01*
X48286283Y-127412676D01*
X48288608Y-127417661D01*
X48381458Y-127616781D01*
X48381461Y-127616786D01*
X48383784Y-127621768D01*
X48386941Y-127626276D01*
X48494423Y-127779776D01*
X48516113Y-127810753D01*
X48679247Y-127973887D01*
X48683755Y-127977044D01*
X48683758Y-127977046D01*
X48741248Y-128017301D01*
X48868232Y-128106216D01*
X48873214Y-128108539D01*
X48873219Y-128108542D01*
X49061827Y-128196491D01*
X49115112Y-128243408D01*
X49134573Y-128311686D01*
X49114031Y-128379646D01*
X49061827Y-128424881D01*
X48928423Y-128487088D01*
X48928420Y-128487090D01*
X48923442Y-128489411D01*
X48750224Y-128610699D01*
X48600699Y-128760224D01*
X48479411Y-128933442D01*
X48390044Y-129125090D01*
X48335314Y-129329345D01*
X48316884Y-129540000D01*
X48335314Y-129750655D01*
X48390044Y-129954910D01*
X48392366Y-129959891D01*
X48392367Y-129959892D01*
X48427862Y-130036010D01*
X48479411Y-130146558D01*
X48600699Y-130319776D01*
X48750224Y-130469301D01*
X48923442Y-130590589D01*
X48928420Y-130592910D01*
X48928423Y-130592912D01*
X49110108Y-130677633D01*
X49115090Y-130679956D01*
X49120398Y-130681378D01*
X49120400Y-130681379D01*
X49314030Y-130733262D01*
X49314032Y-130733262D01*
X49319345Y-130734686D01*
X49530000Y-130753116D01*
X49740655Y-130734686D01*
X49745968Y-130733262D01*
X49745970Y-130733262D01*
X49939600Y-130681379D01*
X49939602Y-130681378D01*
X49944910Y-130679956D01*
X49949892Y-130677633D01*
X50131577Y-130592912D01*
X50131580Y-130592910D01*
X50136558Y-130590589D01*
X50309776Y-130469301D01*
X50459301Y-130319776D01*
X50580589Y-130146558D01*
X50632139Y-130036010D01*
X50667633Y-129959892D01*
X50667634Y-129959891D01*
X50669956Y-129954910D01*
X50724686Y-129750655D01*
X50743116Y-129540000D01*
X50724686Y-129329345D01*
X50669956Y-129125090D01*
X50580589Y-128933442D01*
X50459301Y-128760224D01*
X50309776Y-128610699D01*
X50136558Y-128489411D01*
X50131580Y-128487090D01*
X50131577Y-128487088D01*
X49998173Y-128424881D01*
X49944888Y-128377964D01*
X49925427Y-128309686D01*
X49945969Y-128241726D01*
X49998173Y-128196491D01*
X50186781Y-128108542D01*
X50186786Y-128108539D01*
X50191768Y-128106216D01*
X50318752Y-128017301D01*
X50376242Y-127977046D01*
X50376245Y-127977044D01*
X50380753Y-127973887D01*
X50543887Y-127810753D01*
X50565578Y-127779776D01*
X50673059Y-127626276D01*
X50676216Y-127621768D01*
X50678539Y-127616786D01*
X50678542Y-127616781D01*
X50771392Y-127417661D01*
X50773717Y-127412676D01*
X50833429Y-127189830D01*
X50853536Y-126960000D01*
X50833429Y-126730170D01*
X50773717Y-126507324D01*
X50710686Y-126372153D01*
X50678542Y-126303219D01*
X50678539Y-126303214D01*
X50676216Y-126298232D01*
X50590076Y-126175211D01*
X50547046Y-126113758D01*
X50547044Y-126113755D01*
X50543887Y-126109247D01*
X50380753Y-125946113D01*
X50376245Y-125942956D01*
X50376242Y-125942954D01*
X50279409Y-125875151D01*
X50191768Y-125813784D01*
X50186786Y-125811461D01*
X50186781Y-125811458D01*
X49996825Y-125722881D01*
X49982676Y-125716283D01*
X49759830Y-125656571D01*
X49530000Y-125636464D01*
X49300170Y-125656571D01*
X49077324Y-125716283D01*
X49063175Y-125722881D01*
X48873219Y-125811458D01*
X48873214Y-125811461D01*
X48868232Y-125813784D01*
X48780591Y-125875151D01*
X48683758Y-125942954D01*
X48683755Y-125942956D01*
X48679247Y-125946113D01*
X48516113Y-126109247D01*
X48512956Y-126113755D01*
X48512954Y-126113758D01*
X48469924Y-126175211D01*
X48383784Y-126298232D01*
X48381461Y-126303214D01*
X48381458Y-126303219D01*
X48349314Y-126372153D01*
X48286283Y-126507324D01*
X48226571Y-126730170D01*
X48206464Y-126960000D01*
X36068500Y-126960000D01*
X36068500Y-126356344D01*
X36088502Y-126288223D01*
X36142158Y-126241730D01*
X36212432Y-126231626D01*
X36259921Y-126250419D01*
X36260571Y-126249307D01*
X36467643Y-126370310D01*
X36691697Y-126455868D01*
X36696763Y-126456899D01*
X36696764Y-126456899D01*
X36753039Y-126468348D01*
X36926716Y-126503683D01*
X37062264Y-126508653D01*
X37161225Y-126512282D01*
X37161229Y-126512282D01*
X37166389Y-126512471D01*
X37171509Y-126511815D01*
X37171511Y-126511815D01*
X37399151Y-126482654D01*
X37399152Y-126482654D01*
X37404279Y-126481997D01*
X37487935Y-126456899D01*
X37629042Y-126414565D01*
X37629047Y-126414563D01*
X37633997Y-126413078D01*
X37849374Y-126307566D01*
X37853579Y-126304566D01*
X37853585Y-126304563D01*
X37965498Y-126224736D01*
X38044627Y-126168294D01*
X38214511Y-125999002D01*
X38230535Y-125976703D01*
X38351445Y-125808437D01*
X38354463Y-125804237D01*
X38363040Y-125786884D01*
X38458433Y-125593871D01*
X38458434Y-125593869D01*
X38460727Y-125589229D01*
X38530447Y-125359753D01*
X38561752Y-125121971D01*
X38561879Y-125116781D01*
X38563417Y-125053844D01*
X38563417Y-125053840D01*
X38563499Y-125050479D01*
X38551733Y-124907365D01*
X38544271Y-124816603D01*
X38544270Y-124816597D01*
X38543847Y-124811452D01*
X38505043Y-124656965D01*
X38501637Y-124643404D01*
X39586645Y-124643404D01*
X39587204Y-124649544D01*
X39603287Y-124826264D01*
X39604570Y-124840367D01*
X39606308Y-124846273D01*
X39606309Y-124846277D01*
X39628821Y-124922766D01*
X39660410Y-125030098D01*
X39663263Y-125035556D01*
X39663265Y-125035560D01*
X39692035Y-125090591D01*
X39752040Y-125205369D01*
X39875968Y-125359504D01*
X39880692Y-125363468D01*
X39887933Y-125369544D01*
X40027474Y-125486633D01*
X40032872Y-125489600D01*
X40032877Y-125489604D01*
X40146506Y-125552071D01*
X40200787Y-125581912D01*
X40206654Y-125583773D01*
X40206656Y-125583774D01*
X40284735Y-125608542D01*
X40389306Y-125641714D01*
X40543227Y-125658979D01*
X40649769Y-125658979D01*
X40652825Y-125658679D01*
X40652832Y-125658679D01*
X40711340Y-125652942D01*
X40796833Y-125644559D01*
X40802734Y-125642777D01*
X40802736Y-125642777D01*
X40876053Y-125620641D01*
X40946476Y-125599379D01*
X43766358Y-125599379D01*
X43769661Y-125604039D01*
X43963399Y-125717250D01*
X43972686Y-125721700D01*
X44187006Y-125803541D01*
X44196908Y-125806418D01*
X44421699Y-125852152D01*
X44431951Y-125853375D01*
X44661202Y-125861781D01*
X44671488Y-125861314D01*
X44899043Y-125832163D01*
X44909129Y-125830020D01*
X45128864Y-125764096D01*
X45138459Y-125760335D01*
X45344466Y-125659414D01*
X45353332Y-125654129D01*
X45420945Y-125605900D01*
X45429346Y-125595200D01*
X45422358Y-125582047D01*
X44612812Y-124772501D01*
X44598868Y-124764887D01*
X44597035Y-124765018D01*
X44590420Y-124769269D01*
X43773635Y-125586054D01*
X43766358Y-125599379D01*
X40946476Y-125599379D01*
X40986169Y-125587395D01*
X41160796Y-125494545D01*
X41259593Y-125413968D01*
X41309287Y-125373439D01*
X41309290Y-125373436D01*
X41314062Y-125369544D01*
X41326344Y-125354698D01*
X41436201Y-125221904D01*
X41436203Y-125221900D01*
X41440130Y-125217154D01*
X41534198Y-125043180D01*
X41592682Y-124854247D01*
X41594786Y-124834228D01*
X41612711Y-124663683D01*
X41612711Y-124663681D01*
X41613355Y-124657554D01*
X41602775Y-124541297D01*
X41595989Y-124466730D01*
X41595988Y-124466727D01*
X41595430Y-124460591D01*
X41585254Y-124426013D01*
X41568736Y-124369891D01*
X43137737Y-124369891D01*
X43150944Y-124598930D01*
X43152377Y-124609132D01*
X43202810Y-124832921D01*
X43205898Y-124842774D01*
X43292204Y-125055319D01*
X43296852Y-125064520D01*
X43393736Y-125222622D01*
X43404192Y-125232083D01*
X43412970Y-125228299D01*
X44227978Y-124413291D01*
X44234356Y-124401611D01*
X44964408Y-124401611D01*
X44964539Y-124403444D01*
X44968790Y-124410059D01*
X45782130Y-125223399D01*
X45794141Y-125229958D01*
X45805880Y-125220990D01*
X45851012Y-125158181D01*
X45856327Y-125149336D01*
X45957966Y-124943685D01*
X45961765Y-124934090D01*
X46028453Y-124714599D01*
X46030632Y-124704518D01*
X46060813Y-124475268D01*
X46061332Y-124468593D01*
X46062915Y-124403843D01*
X46062721Y-124397126D01*
X46043776Y-124166685D01*
X46042093Y-124156523D01*
X45986204Y-123934018D01*
X45982883Y-123924263D01*
X45891409Y-123713889D01*
X45886531Y-123704791D01*
X45805384Y-123579355D01*
X45794698Y-123570153D01*
X45785133Y-123574556D01*
X44972022Y-124387667D01*
X44964408Y-124401611D01*
X44234356Y-124401611D01*
X44235592Y-124399347D01*
X44235461Y-124397514D01*
X44231210Y-124390899D01*
X43417884Y-123577573D01*
X43406348Y-123571273D01*
X43394065Y-123580897D01*
X43330849Y-123673568D01*
X43325756Y-123682532D01*
X43229163Y-123890624D01*
X43225606Y-123900292D01*
X43164299Y-124121358D01*
X43162368Y-124131478D01*
X43137989Y-124359602D01*
X43137737Y-124369891D01*
X41568736Y-124369891D01*
X41541330Y-124276773D01*
X41539590Y-124270860D01*
X41529919Y-124252360D01*
X41450813Y-124101047D01*
X41447960Y-124095589D01*
X41324032Y-123941454D01*
X41317727Y-123936163D01*
X41232652Y-123864777D01*
X41172526Y-123814325D01*
X41167128Y-123811358D01*
X41167123Y-123811354D01*
X41004608Y-123722012D01*
X41004609Y-123722012D01*
X40999213Y-123719046D01*
X40993346Y-123717185D01*
X40993344Y-123717184D01*
X40816564Y-123661106D01*
X40816563Y-123661106D01*
X40810694Y-123659244D01*
X40656773Y-123641979D01*
X40550231Y-123641979D01*
X40547175Y-123642279D01*
X40547168Y-123642279D01*
X40488660Y-123648016D01*
X40403167Y-123656399D01*
X40397266Y-123658181D01*
X40397264Y-123658181D01*
X40328859Y-123678834D01*
X40213831Y-123713563D01*
X40039204Y-123806413D01*
X40004515Y-123834705D01*
X39890713Y-123927519D01*
X39890710Y-123927522D01*
X39885938Y-123931414D01*
X39882011Y-123936161D01*
X39882009Y-123936163D01*
X39763799Y-124079054D01*
X39763797Y-124079058D01*
X39759870Y-124083804D01*
X39665802Y-124257778D01*
X39607318Y-124446711D01*
X39606674Y-124452836D01*
X39606674Y-124452837D01*
X39593431Y-124578843D01*
X39586645Y-124643404D01*
X38501637Y-124643404D01*
X38486679Y-124583854D01*
X38486678Y-124583850D01*
X38485420Y-124578843D01*
X38483364Y-124574113D01*
X38483361Y-124574106D01*
X38391847Y-124363638D01*
X38391845Y-124363635D01*
X38389787Y-124358901D01*
X38332831Y-124270860D01*
X38262325Y-124161875D01*
X38262323Y-124161872D01*
X38259515Y-124157532D01*
X38208118Y-124101047D01*
X38101582Y-123983966D01*
X38101580Y-123983965D01*
X38098104Y-123980144D01*
X38094053Y-123976945D01*
X38094049Y-123976941D01*
X37913946Y-123834705D01*
X37909888Y-123831500D01*
X37699922Y-123715592D01*
X37538863Y-123658558D01*
X37478720Y-123637260D01*
X37478716Y-123637259D01*
X37473845Y-123635534D01*
X37468752Y-123634627D01*
X37468749Y-123634626D01*
X37242816Y-123594381D01*
X37242810Y-123594380D01*
X37237727Y-123593475D01*
X37150460Y-123592409D01*
X37003081Y-123590608D01*
X37003079Y-123590608D01*
X36997911Y-123590545D01*
X36760837Y-123626822D01*
X36532871Y-123701333D01*
X36508797Y-123713865D01*
X36325302Y-123809387D01*
X36320136Y-123812076D01*
X36270151Y-123849606D01*
X36203668Y-123874510D01*
X36134272Y-123859517D01*
X36083999Y-123809387D01*
X36068500Y-123748844D01*
X36068500Y-123205478D01*
X43769795Y-123205478D01*
X43776540Y-123217809D01*
X44587188Y-124028457D01*
X44601132Y-124036071D01*
X44602965Y-124035940D01*
X44609580Y-124031689D01*
X45424590Y-123216679D01*
X45431611Y-123203822D01*
X45423838Y-123193155D01*
X45413667Y-123185122D01*
X45405083Y-123179419D01*
X45204250Y-123068553D01*
X45194838Y-123064323D01*
X44978591Y-122987745D01*
X44968620Y-122985111D01*
X44742769Y-122944881D01*
X44732516Y-122943912D01*
X44503116Y-122941109D01*
X44492832Y-122941829D01*
X44266067Y-122976529D01*
X44256039Y-122978918D01*
X44037984Y-123050189D01*
X44028475Y-123054186D01*
X43824993Y-123160112D01*
X43816268Y-123165606D01*
X43778248Y-123194153D01*
X43769795Y-123205478D01*
X36068500Y-123205478D01*
X36068500Y-120556344D01*
X36088502Y-120488223D01*
X36142158Y-120441730D01*
X36212432Y-120431626D01*
X36259921Y-120450419D01*
X36260571Y-120449307D01*
X36467643Y-120570310D01*
X36472468Y-120572152D01*
X36472469Y-120572153D01*
X36551580Y-120602363D01*
X36691697Y-120655868D01*
X36696763Y-120656899D01*
X36696764Y-120656899D01*
X36747976Y-120667318D01*
X36926716Y-120703683D01*
X37062264Y-120708653D01*
X37161225Y-120712282D01*
X37161229Y-120712282D01*
X37166389Y-120712471D01*
X37171509Y-120711815D01*
X37171511Y-120711815D01*
X37399151Y-120682654D01*
X37399152Y-120682654D01*
X37404279Y-120681997D01*
X37426838Y-120675229D01*
X37629042Y-120614565D01*
X37629047Y-120614563D01*
X37633997Y-120613078D01*
X37849374Y-120507566D01*
X37853579Y-120504566D01*
X37853585Y-120504563D01*
X37955838Y-120431626D01*
X38044627Y-120368294D01*
X38214511Y-120199002D01*
X38220439Y-120190753D01*
X38351445Y-120008437D01*
X38354463Y-120004237D01*
X38389057Y-119934243D01*
X38458433Y-119793871D01*
X38458434Y-119793869D01*
X38460727Y-119789229D01*
X38505032Y-119643404D01*
X39586645Y-119643404D01*
X39587204Y-119649544D01*
X39602683Y-119819629D01*
X39604570Y-119840367D01*
X39606308Y-119846273D01*
X39606309Y-119846277D01*
X39637249Y-119951403D01*
X39660410Y-120030098D01*
X39663263Y-120035556D01*
X39663265Y-120035560D01*
X39709406Y-120123819D01*
X39752040Y-120205369D01*
X39875968Y-120359504D01*
X39880692Y-120363468D01*
X39886443Y-120368294D01*
X40027474Y-120486633D01*
X40032872Y-120489600D01*
X40032877Y-120489604D01*
X40172278Y-120566239D01*
X40200787Y-120581912D01*
X40206654Y-120583773D01*
X40206656Y-120583774D01*
X40383436Y-120639852D01*
X40389306Y-120641714D01*
X40543227Y-120658979D01*
X40649769Y-120658979D01*
X40652825Y-120658679D01*
X40652832Y-120658679D01*
X40711340Y-120652942D01*
X40796833Y-120644559D01*
X40802734Y-120642777D01*
X40802736Y-120642777D01*
X40917438Y-120608146D01*
X40986169Y-120587395D01*
X41160796Y-120494545D01*
X41247062Y-120424188D01*
X41309287Y-120373439D01*
X41309290Y-120373436D01*
X41314062Y-120369544D01*
X41322368Y-120359504D01*
X41436201Y-120221904D01*
X41436203Y-120221900D01*
X41440130Y-120217154D01*
X41534198Y-120043180D01*
X41592682Y-119854247D01*
X41594786Y-119834228D01*
X41612711Y-119663683D01*
X41612711Y-119663681D01*
X41613355Y-119657554D01*
X41603988Y-119554626D01*
X41595989Y-119466730D01*
X41595988Y-119466727D01*
X41595430Y-119460591D01*
X41576761Y-119397156D01*
X41555609Y-119325289D01*
X41539590Y-119270860D01*
X41530695Y-119253844D01*
X41458446Y-119115647D01*
X41447960Y-119095589D01*
X41324032Y-118941454D01*
X41317727Y-118936163D01*
X41265852Y-118892635D01*
X41172526Y-118814325D01*
X41167128Y-118811358D01*
X41167123Y-118811354D01*
X41004608Y-118722012D01*
X41004609Y-118722012D01*
X40999213Y-118719046D01*
X40993346Y-118717185D01*
X40993344Y-118717184D01*
X40816564Y-118661106D01*
X40816563Y-118661106D01*
X40810694Y-118659244D01*
X40656773Y-118641979D01*
X40550231Y-118641979D01*
X40547175Y-118642279D01*
X40547168Y-118642279D01*
X40488660Y-118648016D01*
X40403167Y-118656399D01*
X40397266Y-118658181D01*
X40397264Y-118658181D01*
X40345784Y-118673724D01*
X40213831Y-118713563D01*
X40039204Y-118806413D01*
X39952938Y-118876770D01*
X39890713Y-118927519D01*
X39890710Y-118927522D01*
X39885938Y-118931414D01*
X39882011Y-118936161D01*
X39882009Y-118936163D01*
X39763799Y-119079054D01*
X39763797Y-119079058D01*
X39759870Y-119083804D01*
X39665802Y-119257778D01*
X39607318Y-119446711D01*
X39586645Y-119643404D01*
X38505032Y-119643404D01*
X38530447Y-119559753D01*
X38561752Y-119321971D01*
X38561986Y-119312407D01*
X38563417Y-119253844D01*
X38563417Y-119253840D01*
X38563499Y-119250479D01*
X38554607Y-119142323D01*
X38544271Y-119016603D01*
X38544270Y-119016597D01*
X38543847Y-119011452D01*
X38502796Y-118848019D01*
X38486679Y-118783854D01*
X38486678Y-118783850D01*
X38485420Y-118778843D01*
X38483364Y-118774113D01*
X38483361Y-118774106D01*
X38391847Y-118563638D01*
X38391845Y-118563635D01*
X38389787Y-118558901D01*
X38355079Y-118505250D01*
X38262325Y-118361875D01*
X38262323Y-118361872D01*
X38259515Y-118357532D01*
X38228052Y-118322954D01*
X38101582Y-118183966D01*
X38101580Y-118183965D01*
X38098104Y-118180144D01*
X38094053Y-118176945D01*
X38094049Y-118176941D01*
X37937442Y-118053261D01*
X37909888Y-118031500D01*
X37699922Y-117915592D01*
X37534593Y-117857046D01*
X37478720Y-117837260D01*
X37478716Y-117837259D01*
X37473845Y-117835534D01*
X37468752Y-117834627D01*
X37468749Y-117834626D01*
X37242816Y-117794381D01*
X37242810Y-117794380D01*
X37237727Y-117793475D01*
X37150460Y-117792409D01*
X37003081Y-117790608D01*
X37003079Y-117790608D01*
X36997911Y-117790545D01*
X36760837Y-117826822D01*
X36532871Y-117901333D01*
X36528279Y-117903723D01*
X36528280Y-117903723D01*
X36324787Y-118009655D01*
X36320136Y-118012076D01*
X36270151Y-118049606D01*
X36203668Y-118074510D01*
X36134272Y-118059517D01*
X36083999Y-118009387D01*
X36068500Y-117948844D01*
X36068500Y-112155865D01*
X36088502Y-112087744D01*
X36142158Y-112041251D01*
X36212432Y-112031147D01*
X36259921Y-112049940D01*
X36260571Y-112048828D01*
X36467643Y-112169831D01*
X36691697Y-112255389D01*
X36696763Y-112256420D01*
X36696764Y-112256420D01*
X36753039Y-112267869D01*
X36926716Y-112303204D01*
X37062264Y-112308174D01*
X37161225Y-112311803D01*
X37161229Y-112311803D01*
X37166389Y-112311992D01*
X37171509Y-112311336D01*
X37171511Y-112311336D01*
X37399151Y-112282175D01*
X37399152Y-112282175D01*
X37404279Y-112281518D01*
X37487935Y-112256420D01*
X37629042Y-112214086D01*
X37629047Y-112214084D01*
X37633997Y-112212599D01*
X37849374Y-112107087D01*
X37853579Y-112104087D01*
X37853585Y-112104084D01*
X37955838Y-112031147D01*
X38044627Y-111967815D01*
X38214511Y-111798523D01*
X38354463Y-111603758D01*
X38395256Y-111521221D01*
X38458433Y-111393392D01*
X38458434Y-111393390D01*
X38460727Y-111388750D01*
X38530447Y-111159274D01*
X38561752Y-110921492D01*
X38563499Y-110850000D01*
X38553930Y-110733611D01*
X38544271Y-110616124D01*
X38544270Y-110616118D01*
X38543847Y-110610973D01*
X38503710Y-110451181D01*
X38501636Y-110442925D01*
X39586645Y-110442925D01*
X39587933Y-110457075D01*
X39601939Y-110610973D01*
X39604570Y-110639888D01*
X39660410Y-110829619D01*
X39663263Y-110835077D01*
X39663265Y-110835081D01*
X39671065Y-110850000D01*
X39752040Y-111004890D01*
X39875968Y-111159025D01*
X39880692Y-111162989D01*
X39887933Y-111169065D01*
X40027474Y-111286154D01*
X40032872Y-111289121D01*
X40032877Y-111289125D01*
X40176180Y-111367905D01*
X40200787Y-111381433D01*
X40206654Y-111383294D01*
X40206656Y-111383295D01*
X40276406Y-111405421D01*
X40389306Y-111441235D01*
X40543227Y-111458500D01*
X40649769Y-111458500D01*
X40652825Y-111458200D01*
X40652832Y-111458200D01*
X40711340Y-111452463D01*
X40796833Y-111444080D01*
X40802734Y-111442298D01*
X40802736Y-111442298D01*
X40876053Y-111420162D01*
X40946476Y-111398900D01*
X43766358Y-111398900D01*
X43769661Y-111403560D01*
X43963399Y-111516771D01*
X43972686Y-111521221D01*
X44187006Y-111603062D01*
X44196908Y-111605939D01*
X44421699Y-111651673D01*
X44431951Y-111652896D01*
X44661202Y-111661302D01*
X44671488Y-111660835D01*
X44899043Y-111631684D01*
X44909129Y-111629541D01*
X45128864Y-111563617D01*
X45138459Y-111559856D01*
X45344466Y-111458935D01*
X45353332Y-111453650D01*
X45420945Y-111405421D01*
X45429346Y-111394721D01*
X45422358Y-111381568D01*
X44612812Y-110572022D01*
X44598868Y-110564408D01*
X44597035Y-110564539D01*
X44590420Y-110568790D01*
X43773635Y-111385575D01*
X43766358Y-111398900D01*
X40946476Y-111398900D01*
X40986169Y-111386916D01*
X41160796Y-111294066D01*
X41247062Y-111223709D01*
X41309287Y-111172960D01*
X41309290Y-111172957D01*
X41314062Y-111169065D01*
X41326344Y-111154219D01*
X41436201Y-111021425D01*
X41436203Y-111021421D01*
X41440130Y-111016675D01*
X41534198Y-110842701D01*
X41592682Y-110653768D01*
X41594786Y-110633749D01*
X41612711Y-110463204D01*
X41612711Y-110463202D01*
X41613355Y-110457075D01*
X41596766Y-110274789D01*
X41595989Y-110266251D01*
X41595988Y-110266248D01*
X41595430Y-110260112D01*
X41578729Y-110203364D01*
X41568736Y-110169412D01*
X43137737Y-110169412D01*
X43150944Y-110398451D01*
X43152377Y-110408653D01*
X43202810Y-110632442D01*
X43205898Y-110642295D01*
X43292204Y-110854840D01*
X43296852Y-110864041D01*
X43393736Y-111022143D01*
X43404192Y-111031604D01*
X43412970Y-111027820D01*
X44227978Y-110212812D01*
X44234356Y-110201132D01*
X44964408Y-110201132D01*
X44964539Y-110202965D01*
X44968790Y-110209580D01*
X45782130Y-111022920D01*
X45794141Y-111029479D01*
X45805880Y-111020511D01*
X45851012Y-110957702D01*
X45856327Y-110948857D01*
X45957966Y-110743206D01*
X45961765Y-110733611D01*
X46028453Y-110514120D01*
X46030632Y-110504039D01*
X46060813Y-110274789D01*
X46061332Y-110268114D01*
X46062915Y-110203364D01*
X46062721Y-110196647D01*
X46043776Y-109966206D01*
X46042093Y-109956044D01*
X45986204Y-109733539D01*
X45982883Y-109723784D01*
X45891409Y-109513410D01*
X45886531Y-109504312D01*
X45805384Y-109378876D01*
X45794698Y-109369674D01*
X45785133Y-109374077D01*
X44972022Y-110187188D01*
X44964408Y-110201132D01*
X44234356Y-110201132D01*
X44235592Y-110198868D01*
X44235461Y-110197035D01*
X44231210Y-110190420D01*
X43417884Y-109377094D01*
X43406348Y-109370794D01*
X43394065Y-109380418D01*
X43330849Y-109473089D01*
X43325756Y-109482053D01*
X43229163Y-109690145D01*
X43225606Y-109699813D01*
X43164299Y-109920879D01*
X43162368Y-109930999D01*
X43137989Y-110159123D01*
X43137737Y-110169412D01*
X41568736Y-110169412D01*
X41548099Y-110099292D01*
X41539590Y-110070381D01*
X41529919Y-110051881D01*
X41464254Y-109926277D01*
X41447960Y-109895110D01*
X41324032Y-109740975D01*
X41317727Y-109735684D01*
X41244251Y-109674031D01*
X41172526Y-109613846D01*
X41167128Y-109610879D01*
X41167123Y-109610875D01*
X41004608Y-109521533D01*
X41004609Y-109521533D01*
X40999213Y-109518567D01*
X40993346Y-109516706D01*
X40993344Y-109516705D01*
X40816564Y-109460627D01*
X40816563Y-109460627D01*
X40810694Y-109458765D01*
X40656773Y-109441500D01*
X40550231Y-109441500D01*
X40547175Y-109441800D01*
X40547168Y-109441800D01*
X40488660Y-109447537D01*
X40403167Y-109455920D01*
X40397266Y-109457702D01*
X40397264Y-109457702D01*
X40333757Y-109476876D01*
X40213831Y-109513084D01*
X40039204Y-109605934D01*
X40004515Y-109634226D01*
X39890713Y-109727040D01*
X39890710Y-109727043D01*
X39885938Y-109730935D01*
X39882011Y-109735682D01*
X39882009Y-109735684D01*
X39763799Y-109878575D01*
X39763797Y-109878579D01*
X39759870Y-109883325D01*
X39665802Y-110057299D01*
X39607318Y-110246232D01*
X39606674Y-110252357D01*
X39606674Y-110252358D01*
X39593431Y-110378364D01*
X39586645Y-110442925D01*
X38501636Y-110442925D01*
X38486679Y-110383375D01*
X38486678Y-110383371D01*
X38485420Y-110378364D01*
X38483364Y-110373634D01*
X38483361Y-110373627D01*
X38391847Y-110163159D01*
X38391845Y-110163156D01*
X38389787Y-110158422D01*
X38351323Y-110098965D01*
X38262325Y-109961396D01*
X38262323Y-109961393D01*
X38259515Y-109957053D01*
X38231285Y-109926028D01*
X38101582Y-109783487D01*
X38101580Y-109783486D01*
X38098104Y-109779665D01*
X38094053Y-109776466D01*
X38094049Y-109776462D01*
X37913946Y-109634226D01*
X37909888Y-109631021D01*
X37699922Y-109515113D01*
X37538863Y-109458079D01*
X37478720Y-109436781D01*
X37478716Y-109436780D01*
X37473845Y-109435055D01*
X37468752Y-109434148D01*
X37468749Y-109434147D01*
X37242816Y-109393902D01*
X37242810Y-109393901D01*
X37237727Y-109392996D01*
X37150460Y-109391930D01*
X37003081Y-109390129D01*
X37003079Y-109390129D01*
X36997911Y-109390066D01*
X36760837Y-109426343D01*
X36532871Y-109500854D01*
X36508797Y-109513386D01*
X36325302Y-109608908D01*
X36320136Y-109611597D01*
X36270151Y-109649127D01*
X36203668Y-109674031D01*
X36134272Y-109659038D01*
X36083999Y-109608908D01*
X36068500Y-109548365D01*
X36068500Y-109004999D01*
X43769795Y-109004999D01*
X43776540Y-109017330D01*
X44587188Y-109827978D01*
X44601132Y-109835592D01*
X44602965Y-109835461D01*
X44609580Y-109831210D01*
X45254095Y-109186695D01*
X49437251Y-109186695D01*
X49437548Y-109191848D01*
X49437548Y-109191851D01*
X49443011Y-109286590D01*
X49450110Y-109409715D01*
X49451247Y-109414761D01*
X49451248Y-109414767D01*
X49465606Y-109478475D01*
X49499222Y-109627639D01*
X49537461Y-109721811D01*
X49580571Y-109827978D01*
X49583266Y-109834616D01*
X49610686Y-109879362D01*
X49697291Y-110020688D01*
X49699987Y-110025088D01*
X49846250Y-110193938D01*
X50018126Y-110336632D01*
X50211000Y-110449338D01*
X50419692Y-110529030D01*
X50424760Y-110530061D01*
X50424763Y-110530062D01*
X50519862Y-110549410D01*
X50638597Y-110573567D01*
X50643772Y-110573757D01*
X50643774Y-110573757D01*
X50856673Y-110581564D01*
X50856677Y-110581564D01*
X50861837Y-110581753D01*
X50866957Y-110581097D01*
X50866959Y-110581097D01*
X51078288Y-110554025D01*
X51078289Y-110554025D01*
X51083416Y-110553368D01*
X51088366Y-110551883D01*
X51292429Y-110490661D01*
X51292434Y-110490659D01*
X51297384Y-110489174D01*
X51497994Y-110390896D01*
X51679860Y-110261173D01*
X51686856Y-110254202D01*
X51834435Y-110107137D01*
X51838096Y-110103489D01*
X51857638Y-110076294D01*
X51968453Y-109922077D01*
X51969640Y-109922930D01*
X52016960Y-109879362D01*
X52086897Y-109867145D01*
X52152338Y-109894678D01*
X52180166Y-109926511D01*
X52237694Y-110020388D01*
X52243777Y-110028699D01*
X52383213Y-110189667D01*
X52390580Y-110196883D01*
X52554434Y-110332916D01*
X52562881Y-110338831D01*
X52746756Y-110446279D01*
X52756042Y-110450729D01*
X52955001Y-110526703D01*
X52964899Y-110529579D01*
X53068250Y-110550606D01*
X53082299Y-110549410D01*
X53086000Y-110539065D01*
X53086000Y-110538517D01*
X53594000Y-110538517D01*
X53598064Y-110552359D01*
X53611478Y-110554393D01*
X53618184Y-110553534D01*
X53628262Y-110551392D01*
X53832255Y-110490191D01*
X53841842Y-110486433D01*
X54033095Y-110392739D01*
X54041945Y-110387464D01*
X54215328Y-110263792D01*
X54223200Y-110257139D01*
X54374052Y-110106812D01*
X54380730Y-110098965D01*
X54508022Y-109921819D01*
X54509147Y-109922627D01*
X54556669Y-109878876D01*
X54626607Y-109866661D01*
X54692046Y-109894197D01*
X54719870Y-109926028D01*
X54777690Y-110020383D01*
X54783777Y-110028699D01*
X54923213Y-110189667D01*
X54930580Y-110196883D01*
X55094434Y-110332916D01*
X55102881Y-110338831D01*
X55286756Y-110446279D01*
X55296042Y-110450729D01*
X55495001Y-110526703D01*
X55504899Y-110529579D01*
X55608250Y-110550606D01*
X55622299Y-110549410D01*
X55626000Y-110539065D01*
X55626000Y-110538517D01*
X56134000Y-110538517D01*
X56138064Y-110552359D01*
X56151478Y-110554393D01*
X56158184Y-110553534D01*
X56168262Y-110551392D01*
X56372255Y-110490191D01*
X56381842Y-110486433D01*
X56573095Y-110392739D01*
X56581945Y-110387464D01*
X56755328Y-110263792D01*
X56763200Y-110257139D01*
X56914052Y-110106812D01*
X56920730Y-110098965D01*
X57048022Y-109921819D01*
X57049147Y-109922627D01*
X57096669Y-109878876D01*
X57166607Y-109866661D01*
X57232046Y-109894197D01*
X57259870Y-109926028D01*
X57317690Y-110020383D01*
X57323777Y-110028699D01*
X57463213Y-110189667D01*
X57470580Y-110196883D01*
X57634434Y-110332916D01*
X57642881Y-110338831D01*
X57826756Y-110446279D01*
X57836042Y-110450729D01*
X58035001Y-110526703D01*
X58044899Y-110529579D01*
X58148250Y-110550606D01*
X58162299Y-110549410D01*
X58166000Y-110539065D01*
X58166000Y-110538517D01*
X58674000Y-110538517D01*
X58678064Y-110552359D01*
X58691478Y-110554393D01*
X58698184Y-110553534D01*
X58708262Y-110551392D01*
X58912255Y-110490191D01*
X58921842Y-110486433D01*
X59113095Y-110392739D01*
X59121945Y-110387464D01*
X59295328Y-110263792D01*
X59303200Y-110257139D01*
X59454052Y-110106812D01*
X59460730Y-110098965D01*
X59588022Y-109921819D01*
X59589279Y-109922722D01*
X59636373Y-109879362D01*
X59706311Y-109867145D01*
X59771751Y-109894678D01*
X59799579Y-109926511D01*
X59859987Y-110025088D01*
X60006250Y-110193938D01*
X60178126Y-110336632D01*
X60371000Y-110449338D01*
X60579692Y-110529030D01*
X60584760Y-110530061D01*
X60584763Y-110530062D01*
X60679862Y-110549410D01*
X60798597Y-110573567D01*
X60803772Y-110573757D01*
X60803774Y-110573757D01*
X61016673Y-110581564D01*
X61016677Y-110581564D01*
X61021837Y-110581753D01*
X61026957Y-110581097D01*
X61026959Y-110581097D01*
X61238288Y-110554025D01*
X61238289Y-110554025D01*
X61243416Y-110553368D01*
X61248366Y-110551883D01*
X61452429Y-110490661D01*
X61452434Y-110490659D01*
X61457384Y-110489174D01*
X61657994Y-110390896D01*
X61839860Y-110261173D01*
X61846856Y-110254202D01*
X61994435Y-110107137D01*
X61998096Y-110103489D01*
X62017638Y-110076294D01*
X62125435Y-109926277D01*
X62128453Y-109922077D01*
X62139084Y-109900568D01*
X62225136Y-109726453D01*
X62225137Y-109726451D01*
X62227430Y-109721811D01*
X62288279Y-109521533D01*
X62290865Y-109513023D01*
X62290865Y-109513021D01*
X62292370Y-109508069D01*
X62321529Y-109286590D01*
X62323156Y-109220000D01*
X62304852Y-108997361D01*
X62250431Y-108780702D01*
X62161354Y-108575840D01*
X62040014Y-108388277D01*
X61889670Y-108223051D01*
X61885619Y-108219852D01*
X61885615Y-108219848D01*
X61718414Y-108087800D01*
X61718410Y-108087798D01*
X61714359Y-108084598D01*
X61673053Y-108061796D01*
X61623084Y-108011364D01*
X61608312Y-107941921D01*
X61633428Y-107875516D01*
X61660780Y-107848909D01*
X61704603Y-107817650D01*
X61839860Y-107721173D01*
X61998096Y-107563489D01*
X62128453Y-107382077D01*
X62141995Y-107354678D01*
X62225136Y-107186453D01*
X62225137Y-107186451D01*
X62227430Y-107181811D01*
X62278640Y-107013261D01*
X62290865Y-106973023D01*
X62290865Y-106973021D01*
X62292370Y-106968069D01*
X62321529Y-106746590D01*
X62322713Y-106698134D01*
X62323074Y-106683365D01*
X62323074Y-106683361D01*
X62323156Y-106680000D01*
X62304852Y-106457361D01*
X62250431Y-106240702D01*
X62161354Y-106035840D01*
X62040014Y-105848277D01*
X61889670Y-105683051D01*
X61885619Y-105679852D01*
X61885615Y-105679848D01*
X61718414Y-105547800D01*
X61718410Y-105547798D01*
X61714359Y-105544598D01*
X61678028Y-105524542D01*
X61662136Y-105515769D01*
X61518789Y-105436638D01*
X61513920Y-105434914D01*
X61513916Y-105434912D01*
X61313087Y-105363795D01*
X61313083Y-105363794D01*
X61308212Y-105362069D01*
X61303119Y-105361162D01*
X61303116Y-105361161D01*
X61093373Y-105323800D01*
X61093367Y-105323799D01*
X61088284Y-105322894D01*
X61014452Y-105321992D01*
X60870081Y-105320228D01*
X60870079Y-105320228D01*
X60864911Y-105320165D01*
X60644091Y-105353955D01*
X60431756Y-105423357D01*
X60233607Y-105526507D01*
X60229474Y-105529610D01*
X60229471Y-105529612D01*
X60082597Y-105639888D01*
X60054965Y-105660635D01*
X59900629Y-105822138D01*
X59897715Y-105826410D01*
X59897714Y-105826411D01*
X59895526Y-105829619D01*
X59794337Y-105977957D01*
X59792898Y-105980066D01*
X59737987Y-106025069D01*
X59667462Y-106033240D01*
X59603715Y-106001986D01*
X59583018Y-105977502D01*
X59502426Y-105852926D01*
X59496136Y-105844757D01*
X59352806Y-105687240D01*
X59345273Y-105680215D01*
X59178139Y-105548222D01*
X59169552Y-105542517D01*
X58983117Y-105439599D01*
X58973705Y-105435369D01*
X58772959Y-105364280D01*
X58762988Y-105361646D01*
X58691837Y-105348972D01*
X58678540Y-105350432D01*
X58674000Y-105364989D01*
X58674000Y-110538517D01*
X58166000Y-110538517D01*
X58166000Y-109492115D01*
X58161525Y-109476876D01*
X58160135Y-109475671D01*
X58152452Y-109474000D01*
X56152115Y-109474000D01*
X56136876Y-109478475D01*
X56135671Y-109479865D01*
X56134000Y-109487548D01*
X56134000Y-110538517D01*
X55626000Y-110538517D01*
X55626000Y-109492115D01*
X55621525Y-109476876D01*
X55620135Y-109475671D01*
X55612452Y-109474000D01*
X53612115Y-109474000D01*
X53596876Y-109478475D01*
X53595671Y-109479865D01*
X53594000Y-109487548D01*
X53594000Y-110538517D01*
X53086000Y-110538517D01*
X53086000Y-108947885D01*
X53594000Y-108947885D01*
X53598475Y-108963124D01*
X53599865Y-108964329D01*
X53607548Y-108966000D01*
X55607885Y-108966000D01*
X55623124Y-108961525D01*
X55624329Y-108960135D01*
X55626000Y-108952452D01*
X55626000Y-108947885D01*
X56134000Y-108947885D01*
X56138475Y-108963124D01*
X56139865Y-108964329D01*
X56147548Y-108966000D01*
X58147885Y-108966000D01*
X58163124Y-108961525D01*
X58164329Y-108960135D01*
X58166000Y-108952452D01*
X58166000Y-106952115D01*
X58161525Y-106936876D01*
X58160135Y-106935671D01*
X58152452Y-106934000D01*
X56152115Y-106934000D01*
X56136876Y-106938475D01*
X56135671Y-106939865D01*
X56134000Y-106947548D01*
X56134000Y-108947885D01*
X55626000Y-108947885D01*
X55626000Y-106952115D01*
X55621525Y-106936876D01*
X55620135Y-106935671D01*
X55612452Y-106934000D01*
X53612115Y-106934000D01*
X53596876Y-106938475D01*
X53595671Y-106939865D01*
X53594000Y-106947548D01*
X53594000Y-108947885D01*
X53086000Y-108947885D01*
X53086000Y-106407885D01*
X53594000Y-106407885D01*
X53598475Y-106423124D01*
X53599865Y-106424329D01*
X53607548Y-106426000D01*
X55607885Y-106426000D01*
X55623124Y-106421525D01*
X55624329Y-106420135D01*
X55626000Y-106412452D01*
X55626000Y-106407885D01*
X56134000Y-106407885D01*
X56138475Y-106423124D01*
X56139865Y-106424329D01*
X56147548Y-106426000D01*
X58147885Y-106426000D01*
X58163124Y-106421525D01*
X58164329Y-106420135D01*
X58166000Y-106412452D01*
X58166000Y-105363102D01*
X58162082Y-105349758D01*
X58147806Y-105347771D01*
X58109324Y-105353660D01*
X58099288Y-105356051D01*
X57896868Y-105422212D01*
X57887359Y-105426209D01*
X57698463Y-105524542D01*
X57689738Y-105530036D01*
X57519433Y-105657905D01*
X57511726Y-105664748D01*
X57364590Y-105818717D01*
X57358104Y-105826727D01*
X57253193Y-105980521D01*
X57198282Y-106025524D01*
X57127757Y-106033695D01*
X57064010Y-106002441D01*
X57043313Y-105977957D01*
X56962427Y-105852926D01*
X56956136Y-105844757D01*
X56812806Y-105687240D01*
X56805273Y-105680215D01*
X56638139Y-105548222D01*
X56629552Y-105542517D01*
X56443117Y-105439599D01*
X56433705Y-105435369D01*
X56232959Y-105364280D01*
X56222988Y-105361646D01*
X56151837Y-105348972D01*
X56138540Y-105350432D01*
X56134000Y-105364989D01*
X56134000Y-106407885D01*
X55626000Y-106407885D01*
X55626000Y-105363102D01*
X55622082Y-105349758D01*
X55607806Y-105347771D01*
X55569324Y-105353660D01*
X55559288Y-105356051D01*
X55356868Y-105422212D01*
X55347359Y-105426209D01*
X55158463Y-105524542D01*
X55149738Y-105530036D01*
X54979433Y-105657905D01*
X54971726Y-105664748D01*
X54824590Y-105818717D01*
X54818104Y-105826727D01*
X54713193Y-105980521D01*
X54658282Y-106025524D01*
X54587757Y-106033695D01*
X54524010Y-106002441D01*
X54503313Y-105977957D01*
X54422427Y-105852926D01*
X54416136Y-105844757D01*
X54272806Y-105687240D01*
X54265273Y-105680215D01*
X54098139Y-105548222D01*
X54089552Y-105542517D01*
X53903117Y-105439599D01*
X53893705Y-105435369D01*
X53692959Y-105364280D01*
X53682988Y-105361646D01*
X53611837Y-105348972D01*
X53598540Y-105350432D01*
X53594000Y-105364989D01*
X53594000Y-106407885D01*
X53086000Y-106407885D01*
X53086000Y-105363102D01*
X53082082Y-105349758D01*
X53067806Y-105347771D01*
X53029324Y-105353660D01*
X53019288Y-105356051D01*
X52816868Y-105422212D01*
X52807359Y-105426209D01*
X52618463Y-105524542D01*
X52609738Y-105530036D01*
X52439433Y-105657905D01*
X52431726Y-105664748D01*
X52354478Y-105745584D01*
X52292954Y-105781014D01*
X52222042Y-105777557D01*
X52164255Y-105736311D01*
X52145402Y-105702763D01*
X52103767Y-105591703D01*
X52100615Y-105583295D01*
X52013261Y-105466739D01*
X51896705Y-105379385D01*
X51760316Y-105328255D01*
X51698134Y-105321500D01*
X49901866Y-105321500D01*
X49839684Y-105328255D01*
X49703295Y-105379385D01*
X49586739Y-105466739D01*
X49499385Y-105583295D01*
X49448255Y-105719684D01*
X49441500Y-105781866D01*
X49441500Y-107578134D01*
X49448255Y-107640316D01*
X49499385Y-107776705D01*
X49586739Y-107893261D01*
X49703295Y-107980615D01*
X49711704Y-107983767D01*
X49711705Y-107983768D01*
X49820451Y-108024535D01*
X49877216Y-108067176D01*
X49901916Y-108133738D01*
X49886709Y-108203087D01*
X49867316Y-108229568D01*
X49740629Y-108362138D01*
X49737715Y-108366410D01*
X49737714Y-108366411D01*
X49725409Y-108384450D01*
X49614743Y-108546680D01*
X49599003Y-108580590D01*
X49523414Y-108743433D01*
X49520688Y-108749305D01*
X49460989Y-108964570D01*
X49437251Y-109186695D01*
X45254095Y-109186695D01*
X45424590Y-109016200D01*
X45431611Y-109003343D01*
X45423838Y-108992676D01*
X45413667Y-108984643D01*
X45405083Y-108978940D01*
X45204250Y-108868074D01*
X45194838Y-108863844D01*
X44978591Y-108787266D01*
X44968620Y-108784632D01*
X44742769Y-108744402D01*
X44732516Y-108743433D01*
X44503116Y-108740630D01*
X44492832Y-108741350D01*
X44266067Y-108776050D01*
X44256039Y-108778439D01*
X44037984Y-108849710D01*
X44028475Y-108853707D01*
X43824993Y-108959633D01*
X43816268Y-108965127D01*
X43778248Y-108993674D01*
X43769795Y-109004999D01*
X36068500Y-109004999D01*
X36068500Y-106698134D01*
X43141500Y-106698134D01*
X43148255Y-106760316D01*
X43199385Y-106896705D01*
X43286739Y-107013261D01*
X43403295Y-107100615D01*
X43539684Y-107151745D01*
X43601866Y-107158500D01*
X45598134Y-107158500D01*
X45660316Y-107151745D01*
X45796705Y-107100615D01*
X45913261Y-107013261D01*
X46000615Y-106896705D01*
X46022518Y-106838279D01*
X46065160Y-106781515D01*
X46131721Y-106756815D01*
X46201070Y-106772022D01*
X46251188Y-106822308D01*
X46266500Y-106882509D01*
X46266500Y-106943134D01*
X46266869Y-106946531D01*
X46267185Y-106949440D01*
X46273255Y-107005316D01*
X46324385Y-107141705D01*
X46411739Y-107258261D01*
X46528295Y-107345615D01*
X46664684Y-107396745D01*
X46726866Y-107403500D01*
X48523134Y-107403500D01*
X48585316Y-107396745D01*
X48721705Y-107345615D01*
X48838261Y-107258261D01*
X48925615Y-107141705D01*
X48976745Y-107005316D01*
X48982815Y-106949440D01*
X48983131Y-106946531D01*
X48983500Y-106943134D01*
X48983500Y-105146866D01*
X48976745Y-105084684D01*
X48925615Y-104948295D01*
X48838261Y-104831739D01*
X48721705Y-104744385D01*
X48585316Y-104693255D01*
X48523134Y-104686500D01*
X46726866Y-104686500D01*
X46664684Y-104693255D01*
X46528295Y-104744385D01*
X46411739Y-104831739D01*
X46324385Y-104948295D01*
X46321233Y-104956703D01*
X46302482Y-105006721D01*
X46259840Y-105063485D01*
X46193279Y-105088185D01*
X46123930Y-105072978D01*
X46073812Y-105022692D01*
X46058500Y-104962491D01*
X46058500Y-104701866D01*
X46051745Y-104639684D01*
X46000615Y-104503295D01*
X45913261Y-104386739D01*
X45796705Y-104299385D01*
X45660316Y-104248255D01*
X45598134Y-104241500D01*
X43601866Y-104241500D01*
X43539684Y-104248255D01*
X43403295Y-104299385D01*
X43286739Y-104386739D01*
X43199385Y-104503295D01*
X43148255Y-104639684D01*
X43141500Y-104701866D01*
X43141500Y-106698134D01*
X36068500Y-106698134D01*
X36068500Y-106355865D01*
X36088502Y-106287744D01*
X36142158Y-106241251D01*
X36212432Y-106231147D01*
X36259921Y-106249940D01*
X36260571Y-106248828D01*
X36467643Y-106369831D01*
X36472468Y-106371673D01*
X36472469Y-106371674D01*
X36504811Y-106384024D01*
X36691697Y-106455389D01*
X36696763Y-106456420D01*
X36696764Y-106456420D01*
X36706988Y-106458500D01*
X36926716Y-106503204D01*
X37062264Y-106508174D01*
X37161225Y-106511803D01*
X37161229Y-106511803D01*
X37166389Y-106511992D01*
X37171509Y-106511336D01*
X37171511Y-106511336D01*
X37399151Y-106482175D01*
X37399152Y-106482175D01*
X37404279Y-106481518D01*
X37482312Y-106458107D01*
X37629042Y-106414086D01*
X37629047Y-106414084D01*
X37633997Y-106412599D01*
X37849374Y-106307087D01*
X37853579Y-106304087D01*
X37853585Y-106304084D01*
X37986460Y-106209305D01*
X38044627Y-106167815D01*
X38214511Y-105998523D01*
X38354463Y-105803758D01*
X38367413Y-105777557D01*
X38458433Y-105593392D01*
X38458434Y-105593390D01*
X38460727Y-105588750D01*
X38505032Y-105442925D01*
X39586645Y-105442925D01*
X39587204Y-105449065D01*
X39600339Y-105593392D01*
X39604570Y-105639888D01*
X39606308Y-105645794D01*
X39606309Y-105645798D01*
X39617273Y-105683051D01*
X39660410Y-105829619D01*
X39663263Y-105835077D01*
X39663265Y-105835081D01*
X39710720Y-105925853D01*
X39752040Y-106004890D01*
X39875968Y-106159025D01*
X39880692Y-106162989D01*
X39886443Y-106167815D01*
X40027474Y-106286154D01*
X40032872Y-106289121D01*
X40032877Y-106289125D01*
X40174941Y-106367224D01*
X40200787Y-106381433D01*
X40206654Y-106383294D01*
X40206656Y-106383295D01*
X40336771Y-106424570D01*
X40389306Y-106441235D01*
X40543227Y-106458500D01*
X40649769Y-106458500D01*
X40652825Y-106458200D01*
X40652832Y-106458200D01*
X40712572Y-106452342D01*
X40796833Y-106444080D01*
X40802734Y-106442298D01*
X40802736Y-106442298D01*
X40916716Y-106407885D01*
X40986169Y-106386916D01*
X41160796Y-106294066D01*
X41264723Y-106209305D01*
X41309287Y-106172960D01*
X41309290Y-106172957D01*
X41314062Y-106169065D01*
X41420346Y-106040590D01*
X41436201Y-106021425D01*
X41436203Y-106021421D01*
X41440130Y-106016675D01*
X41534198Y-105842701D01*
X41592682Y-105653768D01*
X41605731Y-105529612D01*
X41612711Y-105463204D01*
X41612711Y-105463202D01*
X41613355Y-105457075D01*
X41601884Y-105331029D01*
X41595989Y-105266251D01*
X41595988Y-105266248D01*
X41595430Y-105260112D01*
X41539590Y-105070381D01*
X41530695Y-105053365D01*
X41480160Y-104956703D01*
X41447960Y-104895110D01*
X41324032Y-104740975D01*
X41317727Y-104735684D01*
X41273375Y-104698469D01*
X41172526Y-104613846D01*
X41167128Y-104610879D01*
X41167123Y-104610875D01*
X41004608Y-104521533D01*
X41004609Y-104521533D01*
X40999213Y-104518567D01*
X40993346Y-104516706D01*
X40993344Y-104516705D01*
X40816564Y-104460627D01*
X40816563Y-104460627D01*
X40810694Y-104458765D01*
X40656773Y-104441500D01*
X40550231Y-104441500D01*
X40547175Y-104441800D01*
X40547168Y-104441800D01*
X40488660Y-104447537D01*
X40403167Y-104455920D01*
X40397266Y-104457702D01*
X40397264Y-104457702D01*
X40323947Y-104479838D01*
X40213831Y-104513084D01*
X40039204Y-104605934D01*
X39952938Y-104676291D01*
X39890713Y-104727040D01*
X39890710Y-104727043D01*
X39885938Y-104730935D01*
X39882011Y-104735682D01*
X39882009Y-104735684D01*
X39763799Y-104878575D01*
X39763797Y-104878579D01*
X39759870Y-104883325D01*
X39665802Y-105057299D01*
X39607318Y-105246232D01*
X39606674Y-105252357D01*
X39606674Y-105252358D01*
X39588702Y-105423357D01*
X39586645Y-105442925D01*
X38505032Y-105442925D01*
X38530447Y-105359274D01*
X38561752Y-105121492D01*
X38561834Y-105118142D01*
X38563417Y-105053365D01*
X38563417Y-105053361D01*
X38563499Y-105050000D01*
X38551213Y-104900568D01*
X38544271Y-104816124D01*
X38544270Y-104816118D01*
X38543847Y-104810973D01*
X38502796Y-104647540D01*
X38486679Y-104583375D01*
X38486678Y-104583371D01*
X38485420Y-104578364D01*
X38483364Y-104573634D01*
X38483361Y-104573627D01*
X38391847Y-104363159D01*
X38391845Y-104363156D01*
X38389787Y-104358422D01*
X38355079Y-104304771D01*
X38262325Y-104161396D01*
X38262323Y-104161393D01*
X38259515Y-104157053D01*
X38133189Y-104018222D01*
X38101582Y-103983487D01*
X38101580Y-103983486D01*
X38098104Y-103979665D01*
X38094053Y-103976466D01*
X38094049Y-103976462D01*
X37913946Y-103834226D01*
X37909888Y-103831021D01*
X37699922Y-103715113D01*
X37577458Y-103671746D01*
X37478720Y-103636781D01*
X37478716Y-103636780D01*
X37473845Y-103635055D01*
X37468752Y-103634148D01*
X37468749Y-103634147D01*
X37242816Y-103593902D01*
X37242810Y-103593901D01*
X37237727Y-103592996D01*
X37150460Y-103591930D01*
X37003081Y-103590129D01*
X37003079Y-103590129D01*
X36997911Y-103590066D01*
X36760837Y-103626343D01*
X36532871Y-103700854D01*
X36528279Y-103703244D01*
X36528280Y-103703244D01*
X36325302Y-103808908D01*
X36320136Y-103811597D01*
X36270151Y-103849127D01*
X36203668Y-103874031D01*
X36134272Y-103859038D01*
X36083999Y-103808908D01*
X36068500Y-103748365D01*
X36068500Y-102234500D01*
X36088502Y-102166379D01*
X36142158Y-102119886D01*
X36194500Y-102108500D01*
X75565500Y-102108500D01*
X75633621Y-102128502D01*
G37*
%TD.AperFunction*%
%TD*%
M02*
