%FSLAX45Y45*%
G04 Gerber Fmt 4.5, Leading zero omitted, Abs format (unit mm)*
G04 Created by KiCad (PCBNEW (6.0.5)) date 2023-05-17 00:23:07*
%MOMM*%
%LPD*%
G01*
G04 APERTURE LIST*
%TA.AperFunction,Profile*%
%ADD10C,0.100000*%
%TD*%
%ADD11C,0.200000*%
%ADD12C,0.100000*%
G04 APERTURE END LIST*
D10*
X3556000Y-10160000D02*
X7620000Y-10160000D01*
X7620000Y-10160000D02*
X7620000Y-15748000D01*
X7620000Y-15748000D02*
X3556000Y-15748000D01*
X3556000Y-15748000D02*
X3556000Y-10160000D01*
X3556000Y-10160000D02*
X7620000Y-10160000D01*
X7620000Y-10160000D02*
X7620000Y-15748000D01*
X7620000Y-15748000D02*
X3556000Y-15748000D01*
X3556000Y-15748000D02*
X3556000Y-10160000D01*
D11*
D12*
X4010000Y-10495000D02*
X4110000Y-10595000D01*
X4110000Y-10495000D02*
X4010000Y-10595000D01*
X4010000Y-10995000D02*
X4110000Y-11095000D01*
X4110000Y-10995000D02*
X4010000Y-11095000D01*
X4010000Y-11915048D02*
X4110000Y-12015048D01*
X4110000Y-11915048D02*
X4010000Y-12015048D01*
X4010000Y-12415048D02*
X4110000Y-12515048D01*
X4110000Y-12415048D02*
X4010000Y-12515048D01*
X4010000Y-13312048D02*
X4110000Y-13412048D01*
X4110000Y-13312048D02*
X4010000Y-13412048D01*
X4010000Y-13812048D02*
X4110000Y-13912048D01*
X4110000Y-13812048D02*
X4010000Y-13912048D01*
X4010000Y-14686000D02*
X4110000Y-14786000D01*
X4110000Y-14686000D02*
X4010000Y-14786000D01*
X4010000Y-15186000D02*
X4110000Y-15286000D01*
X4110000Y-15186000D02*
X4010000Y-15286000D01*
D11*
X3808619Y-16063476D02*
X3808619Y-15863476D01*
X3856238Y-15863476D01*
X3884809Y-15873000D01*
X3903857Y-15892048D01*
X3913381Y-15911095D01*
X3922905Y-15949190D01*
X3922905Y-15977762D01*
X3913381Y-16015857D01*
X3903857Y-16034905D01*
X3884809Y-16053952D01*
X3856238Y-16063476D01*
X3808619Y-16063476D01*
X4008619Y-16063476D02*
X4008619Y-15930143D01*
X4008619Y-15968238D02*
X4018143Y-15949190D01*
X4027667Y-15939667D01*
X4046714Y-15930143D01*
X4065762Y-15930143D01*
X4132428Y-16063476D02*
X4132428Y-15930143D01*
X4132428Y-15863476D02*
X4122905Y-15873000D01*
X4132428Y-15882524D01*
X4141952Y-15873000D01*
X4132428Y-15863476D01*
X4132428Y-15882524D01*
X4256238Y-16063476D02*
X4237190Y-16053952D01*
X4227667Y-16034905D01*
X4227667Y-15863476D01*
X4361000Y-16063476D02*
X4341952Y-16053952D01*
X4332429Y-16034905D01*
X4332429Y-15863476D01*
X4589571Y-16063476D02*
X4589571Y-15863476D01*
X4656238Y-16006333D01*
X4722905Y-15863476D01*
X4722905Y-16063476D01*
X4903857Y-16063476D02*
X4903857Y-15958714D01*
X4894333Y-15939667D01*
X4875286Y-15930143D01*
X4837190Y-15930143D01*
X4818143Y-15939667D01*
X4903857Y-16053952D02*
X4884810Y-16063476D01*
X4837190Y-16063476D01*
X4818143Y-16053952D01*
X4808619Y-16034905D01*
X4808619Y-16015857D01*
X4818143Y-15996809D01*
X4837190Y-15987286D01*
X4884810Y-15987286D01*
X4903857Y-15977762D01*
X4999095Y-15930143D02*
X4999095Y-16130143D01*
X4999095Y-15939667D02*
X5018143Y-15930143D01*
X5056238Y-15930143D01*
X5075286Y-15939667D01*
X5084810Y-15949190D01*
X5094333Y-15968238D01*
X5094333Y-16025381D01*
X5084810Y-16044428D01*
X5075286Y-16053952D01*
X5056238Y-16063476D01*
X5018143Y-16063476D01*
X4999095Y-16053952D01*
X5180048Y-16044428D02*
X5189571Y-16053952D01*
X5180048Y-16063476D01*
X5170524Y-16053952D01*
X5180048Y-16044428D01*
X5180048Y-16063476D01*
X5180048Y-15939667D02*
X5189571Y-15949190D01*
X5180048Y-15958714D01*
X5170524Y-15949190D01*
X5180048Y-15939667D01*
X5180048Y-15958714D01*
D12*
X3451000Y-16343000D02*
X3551000Y-16443000D01*
X3551000Y-16343000D02*
X3451000Y-16443000D01*
D11*
X3913381Y-16483476D02*
X3799095Y-16483476D01*
X3856238Y-16483476D02*
X3856238Y-16283476D01*
X3837190Y-16312048D01*
X3818143Y-16331095D01*
X3799095Y-16340619D01*
X3999095Y-16464428D02*
X4008619Y-16473952D01*
X3999095Y-16483476D01*
X3989571Y-16473952D01*
X3999095Y-16464428D01*
X3999095Y-16483476D01*
X4132428Y-16283476D02*
X4151476Y-16283476D01*
X4170524Y-16293000D01*
X4180048Y-16302524D01*
X4189571Y-16321571D01*
X4199095Y-16359667D01*
X4199095Y-16407286D01*
X4189571Y-16445381D01*
X4180048Y-16464428D01*
X4170524Y-16473952D01*
X4151476Y-16483476D01*
X4132428Y-16483476D01*
X4113381Y-16473952D01*
X4103857Y-16464428D01*
X4094333Y-16445381D01*
X4084809Y-16407286D01*
X4084809Y-16359667D01*
X4094333Y-16321571D01*
X4103857Y-16302524D01*
X4113381Y-16293000D01*
X4132428Y-16283476D01*
X4322905Y-16283476D02*
X4341952Y-16283476D01*
X4361000Y-16293000D01*
X4370524Y-16302524D01*
X4380048Y-16321571D01*
X4389571Y-16359667D01*
X4389571Y-16407286D01*
X4380048Y-16445381D01*
X4370524Y-16464428D01*
X4361000Y-16473952D01*
X4341952Y-16483476D01*
X4322905Y-16483476D01*
X4303857Y-16473952D01*
X4294333Y-16464428D01*
X4284810Y-16445381D01*
X4275286Y-16407286D01*
X4275286Y-16359667D01*
X4284810Y-16321571D01*
X4294333Y-16302524D01*
X4303857Y-16293000D01*
X4322905Y-16283476D01*
X4513381Y-16283476D02*
X4532429Y-16283476D01*
X4551476Y-16293000D01*
X4561000Y-16302524D01*
X4570524Y-16321571D01*
X4580048Y-16359667D01*
X4580048Y-16407286D01*
X4570524Y-16445381D01*
X4561000Y-16464428D01*
X4551476Y-16473952D01*
X4532429Y-16483476D01*
X4513381Y-16483476D01*
X4494333Y-16473952D01*
X4484810Y-16464428D01*
X4475286Y-16445381D01*
X4465762Y-16407286D01*
X4465762Y-16359667D01*
X4475286Y-16321571D01*
X4484810Y-16302524D01*
X4494333Y-16293000D01*
X4513381Y-16283476D01*
X4665762Y-16483476D02*
X4665762Y-16350143D01*
X4665762Y-16369190D02*
X4675286Y-16359667D01*
X4694333Y-16350143D01*
X4722905Y-16350143D01*
X4741952Y-16359667D01*
X4751476Y-16378714D01*
X4751476Y-16483476D01*
X4751476Y-16378714D02*
X4761000Y-16359667D01*
X4780048Y-16350143D01*
X4808619Y-16350143D01*
X4827667Y-16359667D01*
X4837190Y-16378714D01*
X4837190Y-16483476D01*
X4932429Y-16483476D02*
X4932429Y-16350143D01*
X4932429Y-16369190D02*
X4941952Y-16359667D01*
X4961000Y-16350143D01*
X4989571Y-16350143D01*
X5008619Y-16359667D01*
X5018143Y-16378714D01*
X5018143Y-16483476D01*
X5018143Y-16378714D02*
X5027667Y-16359667D01*
X5046714Y-16350143D01*
X5075286Y-16350143D01*
X5094333Y-16359667D01*
X5103857Y-16378714D01*
X5103857Y-16483476D01*
X5494333Y-16273952D02*
X5322905Y-16531095D01*
X5751476Y-16283476D02*
X5770524Y-16283476D01*
X5789571Y-16293000D01*
X5799095Y-16302524D01*
X5808619Y-16321571D01*
X5818143Y-16359667D01*
X5818143Y-16407286D01*
X5808619Y-16445381D01*
X5799095Y-16464428D01*
X5789571Y-16473952D01*
X5770524Y-16483476D01*
X5751476Y-16483476D01*
X5732428Y-16473952D01*
X5722905Y-16464428D01*
X5713381Y-16445381D01*
X5703857Y-16407286D01*
X5703857Y-16359667D01*
X5713381Y-16321571D01*
X5722905Y-16302524D01*
X5732428Y-16293000D01*
X5751476Y-16283476D01*
X5903857Y-16464428D02*
X5913381Y-16473952D01*
X5903857Y-16483476D01*
X5894333Y-16473952D01*
X5903857Y-16464428D01*
X5903857Y-16483476D01*
X6037190Y-16283476D02*
X6056238Y-16283476D01*
X6075286Y-16293000D01*
X6084809Y-16302524D01*
X6094333Y-16321571D01*
X6103857Y-16359667D01*
X6103857Y-16407286D01*
X6094333Y-16445381D01*
X6084809Y-16464428D01*
X6075286Y-16473952D01*
X6056238Y-16483476D01*
X6037190Y-16483476D01*
X6018143Y-16473952D01*
X6008619Y-16464428D01*
X5999095Y-16445381D01*
X5989571Y-16407286D01*
X5989571Y-16359667D01*
X5999095Y-16321571D01*
X6008619Y-16302524D01*
X6018143Y-16293000D01*
X6037190Y-16283476D01*
X6170524Y-16283476D02*
X6294333Y-16283476D01*
X6227667Y-16359667D01*
X6256238Y-16359667D01*
X6275286Y-16369190D01*
X6284809Y-16378714D01*
X6294333Y-16397762D01*
X6294333Y-16445381D01*
X6284809Y-16464428D01*
X6275286Y-16473952D01*
X6256238Y-16483476D01*
X6199095Y-16483476D01*
X6180048Y-16473952D01*
X6170524Y-16464428D01*
X6389571Y-16483476D02*
X6427667Y-16483476D01*
X6446714Y-16473952D01*
X6456238Y-16464428D01*
X6475286Y-16435857D01*
X6484809Y-16397762D01*
X6484809Y-16321571D01*
X6475286Y-16302524D01*
X6465762Y-16293000D01*
X6446714Y-16283476D01*
X6408619Y-16283476D01*
X6389571Y-16293000D01*
X6380048Y-16302524D01*
X6370524Y-16321571D01*
X6370524Y-16369190D01*
X6380048Y-16388238D01*
X6389571Y-16397762D01*
X6408619Y-16407286D01*
X6446714Y-16407286D01*
X6465762Y-16397762D01*
X6475286Y-16388238D01*
X6484809Y-16369190D01*
X6656238Y-16350143D02*
X6656238Y-16483476D01*
X6608619Y-16273952D02*
X6561000Y-16416809D01*
X6684809Y-16416809D01*
X6751476Y-16283476D02*
X6751476Y-16321571D01*
X6827667Y-16283476D02*
X6827667Y-16321571D01*
X7122905Y-16559667D02*
X7113381Y-16550143D01*
X7094333Y-16521571D01*
X7084809Y-16502524D01*
X7075286Y-16473952D01*
X7065762Y-16426333D01*
X7065762Y-16388238D01*
X7075286Y-16340619D01*
X7084809Y-16312048D01*
X7094333Y-16293000D01*
X7113381Y-16264428D01*
X7122905Y-16254905D01*
X7227667Y-16369190D02*
X7208619Y-16359667D01*
X7199095Y-16350143D01*
X7189571Y-16331095D01*
X7189571Y-16321571D01*
X7199095Y-16302524D01*
X7208619Y-16293000D01*
X7227667Y-16283476D01*
X7265762Y-16283476D01*
X7284809Y-16293000D01*
X7294333Y-16302524D01*
X7303857Y-16321571D01*
X7303857Y-16331095D01*
X7294333Y-16350143D01*
X7284809Y-16359667D01*
X7265762Y-16369190D01*
X7227667Y-16369190D01*
X7208619Y-16378714D01*
X7199095Y-16388238D01*
X7189571Y-16407286D01*
X7189571Y-16445381D01*
X7199095Y-16464428D01*
X7208619Y-16473952D01*
X7227667Y-16483476D01*
X7265762Y-16483476D01*
X7284809Y-16473952D01*
X7294333Y-16464428D01*
X7303857Y-16445381D01*
X7303857Y-16407286D01*
X7294333Y-16388238D01*
X7284809Y-16378714D01*
X7265762Y-16369190D01*
X7541952Y-16483476D02*
X7541952Y-16283476D01*
X7627667Y-16483476D02*
X7627667Y-16378714D01*
X7618143Y-16359667D01*
X7599095Y-16350143D01*
X7570524Y-16350143D01*
X7551476Y-16359667D01*
X7541952Y-16369190D01*
X7751476Y-16483476D02*
X7732428Y-16473952D01*
X7722905Y-16464428D01*
X7713381Y-16445381D01*
X7713381Y-16388238D01*
X7722905Y-16369190D01*
X7732428Y-16359667D01*
X7751476Y-16350143D01*
X7780048Y-16350143D01*
X7799095Y-16359667D01*
X7808619Y-16369190D01*
X7818143Y-16388238D01*
X7818143Y-16445381D01*
X7808619Y-16464428D01*
X7799095Y-16473952D01*
X7780048Y-16483476D01*
X7751476Y-16483476D01*
X7932428Y-16483476D02*
X7913381Y-16473952D01*
X7903857Y-16454905D01*
X7903857Y-16283476D01*
X8084809Y-16473952D02*
X8065762Y-16483476D01*
X8027667Y-16483476D01*
X8008619Y-16473952D01*
X7999095Y-16454905D01*
X7999095Y-16378714D01*
X8008619Y-16359667D01*
X8027667Y-16350143D01*
X8065762Y-16350143D01*
X8084809Y-16359667D01*
X8094333Y-16378714D01*
X8094333Y-16397762D01*
X7999095Y-16416809D01*
X8170524Y-16473952D02*
X8189571Y-16483476D01*
X8227667Y-16483476D01*
X8246714Y-16473952D01*
X8256238Y-16454905D01*
X8256238Y-16445381D01*
X8246714Y-16426333D01*
X8227667Y-16416809D01*
X8199095Y-16416809D01*
X8180048Y-16407286D01*
X8170524Y-16388238D01*
X8170524Y-16378714D01*
X8180048Y-16359667D01*
X8199095Y-16350143D01*
X8227667Y-16350143D01*
X8246714Y-16359667D01*
X8322905Y-16559667D02*
X8332428Y-16550143D01*
X8351476Y-16521571D01*
X8361000Y-16502524D01*
X8370524Y-16473952D01*
X8380048Y-16426333D01*
X8380048Y-16388238D01*
X8370524Y-16340619D01*
X8361000Y-16312048D01*
X8351476Y-16293000D01*
X8332428Y-16264428D01*
X8322905Y-16254905D01*
X8684810Y-16559667D02*
X8675286Y-16550143D01*
X8656238Y-16521571D01*
X8646714Y-16502524D01*
X8637190Y-16473952D01*
X8627667Y-16426333D01*
X8627667Y-16388238D01*
X8637190Y-16340619D01*
X8646714Y-16312048D01*
X8656238Y-16293000D01*
X8675286Y-16264428D01*
X8684810Y-16254905D01*
X8761000Y-16350143D02*
X8761000Y-16483476D01*
X8761000Y-16369190D02*
X8770524Y-16359667D01*
X8789571Y-16350143D01*
X8818143Y-16350143D01*
X8837190Y-16359667D01*
X8846714Y-16378714D01*
X8846714Y-16483476D01*
X8970524Y-16483476D02*
X8951476Y-16473952D01*
X8941952Y-16464428D01*
X8932429Y-16445381D01*
X8932429Y-16388238D01*
X8941952Y-16369190D01*
X8951476Y-16359667D01*
X8970524Y-16350143D01*
X8999095Y-16350143D01*
X9018143Y-16359667D01*
X9027667Y-16369190D01*
X9037190Y-16388238D01*
X9037190Y-16445381D01*
X9027667Y-16464428D01*
X9018143Y-16473952D01*
X8999095Y-16483476D01*
X8970524Y-16483476D01*
X9094333Y-16350143D02*
X9170524Y-16350143D01*
X9122905Y-16283476D02*
X9122905Y-16454905D01*
X9132429Y-16473952D01*
X9151476Y-16483476D01*
X9170524Y-16483476D01*
X9389571Y-16350143D02*
X9389571Y-16550143D01*
X9389571Y-16359667D02*
X9408619Y-16350143D01*
X9446714Y-16350143D01*
X9465762Y-16359667D01*
X9475286Y-16369190D01*
X9484810Y-16388238D01*
X9484810Y-16445381D01*
X9475286Y-16464428D01*
X9465762Y-16473952D01*
X9446714Y-16483476D01*
X9408619Y-16483476D01*
X9389571Y-16473952D01*
X9599095Y-16483476D02*
X9580048Y-16473952D01*
X9570524Y-16454905D01*
X9570524Y-16283476D01*
X9761000Y-16483476D02*
X9761000Y-16378714D01*
X9751476Y-16359667D01*
X9732429Y-16350143D01*
X9694333Y-16350143D01*
X9675286Y-16359667D01*
X9761000Y-16473952D02*
X9741952Y-16483476D01*
X9694333Y-16483476D01*
X9675286Y-16473952D01*
X9665762Y-16454905D01*
X9665762Y-16435857D01*
X9675286Y-16416809D01*
X9694333Y-16407286D01*
X9741952Y-16407286D01*
X9761000Y-16397762D01*
X9827667Y-16350143D02*
X9903857Y-16350143D01*
X9856238Y-16283476D02*
X9856238Y-16454905D01*
X9865762Y-16473952D01*
X9884810Y-16483476D01*
X9903857Y-16483476D01*
X10046714Y-16473952D02*
X10027667Y-16483476D01*
X9989571Y-16483476D01*
X9970524Y-16473952D01*
X9961000Y-16454905D01*
X9961000Y-16378714D01*
X9970524Y-16359667D01*
X9989571Y-16350143D01*
X10027667Y-16350143D01*
X10046714Y-16359667D01*
X10056238Y-16378714D01*
X10056238Y-16397762D01*
X9961000Y-16416809D01*
X10227667Y-16483476D02*
X10227667Y-16283476D01*
X10227667Y-16473952D02*
X10208619Y-16483476D01*
X10170524Y-16483476D01*
X10151476Y-16473952D01*
X10141952Y-16464428D01*
X10132429Y-16445381D01*
X10132429Y-16388238D01*
X10141952Y-16369190D01*
X10151476Y-16359667D01*
X10170524Y-16350143D01*
X10208619Y-16350143D01*
X10227667Y-16359667D01*
X10303857Y-16559667D02*
X10313381Y-16550143D01*
X10332429Y-16521571D01*
X10341952Y-16502524D01*
X10351476Y-16473952D01*
X10361000Y-16426333D01*
X10361000Y-16388238D01*
X10351476Y-16340619D01*
X10341952Y-16312048D01*
X10332429Y-16293000D01*
X10313381Y-16264428D01*
X10303857Y-16254905D01*
M02*
