%TF.GenerationSoftware,KiCad,Pcbnew,(6.0.5)*%
%TF.CreationDate,2023-05-17T00:23:09-04:00*%
%TF.ProjectId,as3340_no_mux,61733333-3430-45f6-9e6f-5f6d75782e6b,rev?*%
%TF.SameCoordinates,Original*%
%TF.FileFunction,Legend,Top*%
%TF.FilePolarity,Positive*%
%FSLAX46Y46*%
G04 Gerber Fmt 4.6, Leading zero omitted, Abs format (unit mm)*
G04 Created by KiCad (PCBNEW (6.0.5)) date 2023-05-17 00:23:09*
%MOMM*%
%LPD*%
G01*
G04 APERTURE LIST*
%ADD10C,0.150000*%
%ADD11C,0.120000*%
G04 APERTURE END LIST*
D10*
X38006666Y-155932142D02*
X37959047Y-155979761D01*
X37816190Y-156027380D01*
X37720952Y-156027380D01*
X37578095Y-155979761D01*
X37482857Y-155884523D01*
X37435238Y-155789285D01*
X37387619Y-155598809D01*
X37387619Y-155455952D01*
X37435238Y-155265476D01*
X37482857Y-155170238D01*
X37578095Y-155075000D01*
X37720952Y-155027380D01*
X37816190Y-155027380D01*
X37959047Y-155075000D01*
X38006666Y-155122619D01*
X38435238Y-155503571D02*
X38768571Y-155503571D01*
X38911428Y-156027380D02*
X38435238Y-156027380D01*
X38435238Y-155027380D01*
X38911428Y-155027380D01*
X39911428Y-156027380D02*
X39578095Y-155551190D01*
X39340000Y-156027380D02*
X39340000Y-155027380D01*
X39720952Y-155027380D01*
X39816190Y-155075000D01*
X39863809Y-155122619D01*
X39911428Y-155217857D01*
X39911428Y-155360714D01*
X39863809Y-155455952D01*
X39816190Y-155503571D01*
X39720952Y-155551190D01*
X39340000Y-155551190D01*
X40197142Y-155027380D02*
X40768571Y-155027380D01*
X40482857Y-156027380D02*
X40482857Y-155027380D01*
X41816190Y-154979761D02*
X40959047Y-156265476D01*
X42101904Y-155979761D02*
X42244761Y-156027380D01*
X42482857Y-156027380D01*
X42578095Y-155979761D01*
X42625714Y-155932142D01*
X42673333Y-155836904D01*
X42673333Y-155741666D01*
X42625714Y-155646428D01*
X42578095Y-155598809D01*
X42482857Y-155551190D01*
X42292380Y-155503571D01*
X42197142Y-155455952D01*
X42149523Y-155408333D01*
X42101904Y-155313095D01*
X42101904Y-155217857D01*
X42149523Y-155122619D01*
X42197142Y-155075000D01*
X42292380Y-155027380D01*
X42530476Y-155027380D01*
X42673333Y-155075000D01*
X43292380Y-155551190D02*
X43292380Y-156027380D01*
X42959047Y-155027380D02*
X43292380Y-155551190D01*
X43625714Y-155027380D01*
X43959047Y-156027380D02*
X43959047Y-155027380D01*
X44530476Y-156027380D01*
X44530476Y-155027380D01*
X44863809Y-155027380D02*
X45435238Y-155027380D01*
X45149523Y-156027380D02*
X45149523Y-155027380D01*
X45768571Y-156027380D02*
X45768571Y-155027380D01*
X45768571Y-155503571D02*
X46340000Y-155503571D01*
X46340000Y-156027380D02*
X46340000Y-155027380D01*
X47435238Y-155027380D02*
X47768571Y-156027380D01*
X48101904Y-155027380D01*
X49006666Y-155932142D02*
X48959047Y-155979761D01*
X48816190Y-156027380D01*
X48720952Y-156027380D01*
X48578095Y-155979761D01*
X48482857Y-155884523D01*
X48435238Y-155789285D01*
X48387619Y-155598809D01*
X48387619Y-155455952D01*
X48435238Y-155265476D01*
X48482857Y-155170238D01*
X48578095Y-155075000D01*
X48720952Y-155027380D01*
X48816190Y-155027380D01*
X48959047Y-155075000D01*
X49006666Y-155122619D01*
X49625714Y-155027380D02*
X49816190Y-155027380D01*
X49911428Y-155075000D01*
X50006666Y-155170238D01*
X50054285Y-155360714D01*
X50054285Y-155694047D01*
X50006666Y-155884523D01*
X49911428Y-155979761D01*
X49816190Y-156027380D01*
X49625714Y-156027380D01*
X49530476Y-155979761D01*
X49435238Y-155884523D01*
X49387619Y-155694047D01*
X49387619Y-155360714D01*
X49435238Y-155170238D01*
X49530476Y-155075000D01*
X49625714Y-155027380D01*
X50482857Y-155646428D02*
X51244761Y-155646428D01*
X51625714Y-155027380D02*
X52244761Y-155027380D01*
X51911428Y-155408333D01*
X52054285Y-155408333D01*
X52149523Y-155455952D01*
X52197142Y-155503571D01*
X52244761Y-155598809D01*
X52244761Y-155836904D01*
X52197142Y-155932142D01*
X52149523Y-155979761D01*
X52054285Y-156027380D01*
X51768571Y-156027380D01*
X51673333Y-155979761D01*
X51625714Y-155932142D01*
X53435238Y-156027380D02*
X53435238Y-155027380D01*
X53816190Y-155027380D01*
X53911428Y-155075000D01*
X53959047Y-155122619D01*
X54006666Y-155217857D01*
X54006666Y-155360714D01*
X53959047Y-155455952D01*
X53911428Y-155503571D01*
X53816190Y-155551190D01*
X53435238Y-155551190D01*
X55006666Y-155932142D02*
X54959047Y-155979761D01*
X54816190Y-156027380D01*
X54720952Y-156027380D01*
X54578095Y-155979761D01*
X54482857Y-155884523D01*
X54435238Y-155789285D01*
X54387619Y-155598809D01*
X54387619Y-155455952D01*
X54435238Y-155265476D01*
X54482857Y-155170238D01*
X54578095Y-155075000D01*
X54720952Y-155027380D01*
X54816190Y-155027380D01*
X54959047Y-155075000D01*
X55006666Y-155122619D01*
X55768571Y-155503571D02*
X55911428Y-155551190D01*
X55959047Y-155598809D01*
X56006666Y-155694047D01*
X56006666Y-155836904D01*
X55959047Y-155932142D01*
X55911428Y-155979761D01*
X55816190Y-156027380D01*
X55435238Y-156027380D01*
X55435238Y-155027380D01*
X55768571Y-155027380D01*
X55863809Y-155075000D01*
X55911428Y-155122619D01*
X55959047Y-155217857D01*
X55959047Y-155313095D01*
X55911428Y-155408333D01*
X55863809Y-155455952D01*
X55768571Y-155503571D01*
X55435238Y-155503571D01*
X56435238Y-155646428D02*
X57197142Y-155646428D01*
X57625714Y-155741666D02*
X58101904Y-155741666D01*
X57530476Y-156027380D02*
X57863809Y-155027380D01*
X58197142Y-156027380D01*
X59292380Y-156027380D02*
X59292380Y-155027380D01*
X59292380Y-155503571D02*
X59863809Y-155503571D01*
X59863809Y-156027380D02*
X59863809Y-155027380D01*
X60340000Y-155932142D02*
X60387619Y-155979761D01*
X60340000Y-156027380D01*
X60292380Y-155979761D01*
X60340000Y-155932142D01*
X60340000Y-156027380D01*
X61578095Y-156027380D02*
X61578095Y-155027380D01*
X61959047Y-155027380D01*
X62054285Y-155075000D01*
X62101904Y-155122619D01*
X62149523Y-155217857D01*
X62149523Y-155360714D01*
X62101904Y-155455952D01*
X62054285Y-155503571D01*
X61959047Y-155551190D01*
X61578095Y-155551190D01*
X63149523Y-156027380D02*
X62816190Y-155551190D01*
X62578095Y-156027380D02*
X62578095Y-155027380D01*
X62959047Y-155027380D01*
X63054285Y-155075000D01*
X63101904Y-155122619D01*
X63149523Y-155217857D01*
X63149523Y-155360714D01*
X63101904Y-155455952D01*
X63054285Y-155503571D01*
X62959047Y-155551190D01*
X62578095Y-155551190D01*
X63578095Y-156027380D02*
X63578095Y-155027380D01*
X63911428Y-155027380D02*
X64482857Y-155027380D01*
X64197142Y-156027380D02*
X64197142Y-155027380D01*
X65387619Y-155932142D02*
X65340000Y-155979761D01*
X65197142Y-156027380D01*
X65101904Y-156027380D01*
X64959047Y-155979761D01*
X64863809Y-155884523D01*
X64816190Y-155789285D01*
X64768571Y-155598809D01*
X64768571Y-155455952D01*
X64816190Y-155265476D01*
X64863809Y-155170238D01*
X64959047Y-155075000D01*
X65101904Y-155027380D01*
X65197142Y-155027380D01*
X65340000Y-155075000D01*
X65387619Y-155122619D01*
X65816190Y-156027380D02*
X65816190Y-155027380D01*
X65816190Y-155503571D02*
X66387619Y-155503571D01*
X66387619Y-156027380D02*
X66387619Y-155027380D01*
X66816190Y-155741666D02*
X67292380Y-155741666D01*
X66720952Y-156027380D02*
X67054285Y-155027380D01*
X67387619Y-156027380D01*
X68292380Y-156027380D02*
X67959047Y-155551190D01*
X67720952Y-156027380D02*
X67720952Y-155027380D01*
X68101904Y-155027380D01*
X68197142Y-155075000D01*
X68244761Y-155122619D01*
X68292380Y-155217857D01*
X68292380Y-155360714D01*
X68244761Y-155455952D01*
X68197142Y-155503571D01*
X68101904Y-155551190D01*
X67720952Y-155551190D01*
X68720952Y-156027380D02*
X68720952Y-155027380D01*
X68959047Y-155027380D01*
X69101904Y-155075000D01*
X69197142Y-155170238D01*
X69244761Y-155265476D01*
X69292380Y-155455952D01*
X69292380Y-155598809D01*
X69244761Y-155789285D01*
X69197142Y-155884523D01*
X69101904Y-155979761D01*
X68959047Y-156027380D01*
X68720952Y-156027380D01*
%TO.C,R40*%
X51427142Y-137612380D02*
X51093809Y-137136190D01*
X50855714Y-137612380D02*
X50855714Y-136612380D01*
X51236666Y-136612380D01*
X51331904Y-136660000D01*
X51379523Y-136707619D01*
X51427142Y-136802857D01*
X51427142Y-136945714D01*
X51379523Y-137040952D01*
X51331904Y-137088571D01*
X51236666Y-137136190D01*
X50855714Y-137136190D01*
X52284285Y-136945714D02*
X52284285Y-137612380D01*
X52046190Y-136564761D02*
X51808095Y-137279047D01*
X52427142Y-137279047D01*
X52998571Y-136612380D02*
X53093809Y-136612380D01*
X53189047Y-136660000D01*
X53236666Y-136707619D01*
X53284285Y-136802857D01*
X53331904Y-136993333D01*
X53331904Y-137231428D01*
X53284285Y-137421904D01*
X53236666Y-137517142D01*
X53189047Y-137564761D01*
X53093809Y-137612380D01*
X52998571Y-137612380D01*
X52903333Y-137564761D01*
X52855714Y-137517142D01*
X52808095Y-137421904D01*
X52760476Y-137231428D01*
X52760476Y-136993333D01*
X52808095Y-136802857D01*
X52855714Y-136707619D01*
X52903333Y-136660000D01*
X52998571Y-136612380D01*
%TO.C,RV5*%
X52522380Y-144105238D02*
X52046190Y-144438571D01*
X52522380Y-144676666D02*
X51522380Y-144676666D01*
X51522380Y-144295714D01*
X51570000Y-144200476D01*
X51617619Y-144152857D01*
X51712857Y-144105238D01*
X51855714Y-144105238D01*
X51950952Y-144152857D01*
X51998571Y-144200476D01*
X52046190Y-144295714D01*
X52046190Y-144676666D01*
X51522380Y-143819523D02*
X52522380Y-143486190D01*
X51522380Y-143152857D01*
X51522380Y-142343333D02*
X51522380Y-142819523D01*
X51998571Y-142867142D01*
X51950952Y-142819523D01*
X51903333Y-142724285D01*
X51903333Y-142486190D01*
X51950952Y-142390952D01*
X51998571Y-142343333D01*
X52093809Y-142295714D01*
X52331904Y-142295714D01*
X52427142Y-142343333D01*
X52474761Y-142390952D01*
X52522380Y-142486190D01*
X52522380Y-142724285D01*
X52474761Y-142819523D01*
X52427142Y-142867142D01*
%TO.C,R2*%
X51252380Y-118276666D02*
X50776190Y-118610000D01*
X51252380Y-118848095D02*
X50252380Y-118848095D01*
X50252380Y-118467142D01*
X50300000Y-118371904D01*
X50347619Y-118324285D01*
X50442857Y-118276666D01*
X50585714Y-118276666D01*
X50680952Y-118324285D01*
X50728571Y-118371904D01*
X50776190Y-118467142D01*
X50776190Y-118848095D01*
X50347619Y-117895714D02*
X50300000Y-117848095D01*
X50252380Y-117752857D01*
X50252380Y-117514761D01*
X50300000Y-117419523D01*
X50347619Y-117371904D01*
X50442857Y-117324285D01*
X50538095Y-117324285D01*
X50680952Y-117371904D01*
X51252380Y-117943333D01*
X51252380Y-117324285D01*
%TO.C,J21*%
X62690476Y-113752380D02*
X62690476Y-114466666D01*
X62642857Y-114609523D01*
X62547619Y-114704761D01*
X62404761Y-114752380D01*
X62309523Y-114752380D01*
X63119047Y-113847619D02*
X63166666Y-113800000D01*
X63261904Y-113752380D01*
X63500000Y-113752380D01*
X63595238Y-113800000D01*
X63642857Y-113847619D01*
X63690476Y-113942857D01*
X63690476Y-114038095D01*
X63642857Y-114180952D01*
X63071428Y-114752380D01*
X63690476Y-114752380D01*
X64642857Y-114752380D02*
X64071428Y-114752380D01*
X64357142Y-114752380D02*
X64357142Y-113752380D01*
X64261904Y-113895238D01*
X64166666Y-113990476D01*
X64071428Y-114038095D01*
%TO.C,J18*%
X52530476Y-113752380D02*
X52530476Y-114466666D01*
X52482857Y-114609523D01*
X52387619Y-114704761D01*
X52244761Y-114752380D01*
X52149523Y-114752380D01*
X53530476Y-114752380D02*
X52959047Y-114752380D01*
X53244761Y-114752380D02*
X53244761Y-113752380D01*
X53149523Y-113895238D01*
X53054285Y-113990476D01*
X52959047Y-114038095D01*
X54101904Y-114180952D02*
X54006666Y-114133333D01*
X53959047Y-114085714D01*
X53911428Y-113990476D01*
X53911428Y-113942857D01*
X53959047Y-113847619D01*
X54006666Y-113800000D01*
X54101904Y-113752380D01*
X54292380Y-113752380D01*
X54387619Y-113800000D01*
X54435238Y-113847619D01*
X54482857Y-113942857D01*
X54482857Y-113990476D01*
X54435238Y-114085714D01*
X54387619Y-114133333D01*
X54292380Y-114180952D01*
X54101904Y-114180952D01*
X54006666Y-114228571D01*
X53959047Y-114276190D01*
X53911428Y-114371428D01*
X53911428Y-114561904D01*
X53959047Y-114657142D01*
X54006666Y-114704761D01*
X54101904Y-114752380D01*
X54292380Y-114752380D01*
X54387619Y-114704761D01*
X54435238Y-114657142D01*
X54482857Y-114561904D01*
X54482857Y-114371428D01*
X54435238Y-114276190D01*
X54387619Y-114228571D01*
X54292380Y-114180952D01*
%TO.C,J20*%
X60150476Y-113752380D02*
X60150476Y-114466666D01*
X60102857Y-114609523D01*
X60007619Y-114704761D01*
X59864761Y-114752380D01*
X59769523Y-114752380D01*
X60579047Y-113847619D02*
X60626666Y-113800000D01*
X60721904Y-113752380D01*
X60960000Y-113752380D01*
X61055238Y-113800000D01*
X61102857Y-113847619D01*
X61150476Y-113942857D01*
X61150476Y-114038095D01*
X61102857Y-114180952D01*
X60531428Y-114752380D01*
X61150476Y-114752380D01*
X61769523Y-113752380D02*
X61864761Y-113752380D01*
X61960000Y-113800000D01*
X62007619Y-113847619D01*
X62055238Y-113942857D01*
X62102857Y-114133333D01*
X62102857Y-114371428D01*
X62055238Y-114561904D01*
X62007619Y-114657142D01*
X61960000Y-114704761D01*
X61864761Y-114752380D01*
X61769523Y-114752380D01*
X61674285Y-114704761D01*
X61626666Y-114657142D01*
X61579047Y-114561904D01*
X61531428Y-114371428D01*
X61531428Y-114133333D01*
X61579047Y-113942857D01*
X61626666Y-113847619D01*
X61674285Y-113800000D01*
X61769523Y-113752380D01*
%TO.C,J16*%
X49990476Y-113752380D02*
X49990476Y-114466666D01*
X49942857Y-114609523D01*
X49847619Y-114704761D01*
X49704761Y-114752380D01*
X49609523Y-114752380D01*
X50990476Y-114752380D02*
X50419047Y-114752380D01*
X50704761Y-114752380D02*
X50704761Y-113752380D01*
X50609523Y-113895238D01*
X50514285Y-113990476D01*
X50419047Y-114038095D01*
X51847619Y-113752380D02*
X51657142Y-113752380D01*
X51561904Y-113800000D01*
X51514285Y-113847619D01*
X51419047Y-113990476D01*
X51371428Y-114180952D01*
X51371428Y-114561904D01*
X51419047Y-114657142D01*
X51466666Y-114704761D01*
X51561904Y-114752380D01*
X51752380Y-114752380D01*
X51847619Y-114704761D01*
X51895238Y-114657142D01*
X51942857Y-114561904D01*
X51942857Y-114323809D01*
X51895238Y-114228571D01*
X51847619Y-114180952D01*
X51752380Y-114133333D01*
X51561904Y-114133333D01*
X51466666Y-114180952D01*
X51419047Y-114228571D01*
X51371428Y-114323809D01*
%TO.C,R46*%
X67937142Y-132532380D02*
X67603809Y-132056190D01*
X67365714Y-132532380D02*
X67365714Y-131532380D01*
X67746666Y-131532380D01*
X67841904Y-131580000D01*
X67889523Y-131627619D01*
X67937142Y-131722857D01*
X67937142Y-131865714D01*
X67889523Y-131960952D01*
X67841904Y-132008571D01*
X67746666Y-132056190D01*
X67365714Y-132056190D01*
X68794285Y-131865714D02*
X68794285Y-132532380D01*
X68556190Y-131484761D02*
X68318095Y-132199047D01*
X68937142Y-132199047D01*
X69746666Y-131532380D02*
X69556190Y-131532380D01*
X69460952Y-131580000D01*
X69413333Y-131627619D01*
X69318095Y-131770476D01*
X69270476Y-131960952D01*
X69270476Y-132341904D01*
X69318095Y-132437142D01*
X69365714Y-132484761D01*
X69460952Y-132532380D01*
X69651428Y-132532380D01*
X69746666Y-132484761D01*
X69794285Y-132437142D01*
X69841904Y-132341904D01*
X69841904Y-132103809D01*
X69794285Y-132008571D01*
X69746666Y-131960952D01*
X69651428Y-131913333D01*
X69460952Y-131913333D01*
X69365714Y-131960952D01*
X69318095Y-132008571D01*
X69270476Y-132103809D01*
%TO.C,J19*%
X57610476Y-113752380D02*
X57610476Y-114466666D01*
X57562857Y-114609523D01*
X57467619Y-114704761D01*
X57324761Y-114752380D01*
X57229523Y-114752380D01*
X58610476Y-114752380D02*
X58039047Y-114752380D01*
X58324761Y-114752380D02*
X58324761Y-113752380D01*
X58229523Y-113895238D01*
X58134285Y-113990476D01*
X58039047Y-114038095D01*
X59086666Y-114752380D02*
X59277142Y-114752380D01*
X59372380Y-114704761D01*
X59420000Y-114657142D01*
X59515238Y-114514285D01*
X59562857Y-114323809D01*
X59562857Y-113942857D01*
X59515238Y-113847619D01*
X59467619Y-113800000D01*
X59372380Y-113752380D01*
X59181904Y-113752380D01*
X59086666Y-113800000D01*
X59039047Y-113847619D01*
X58991428Y-113942857D01*
X58991428Y-114180952D01*
X59039047Y-114276190D01*
X59086666Y-114323809D01*
X59181904Y-114371428D01*
X59372380Y-114371428D01*
X59467619Y-114323809D01*
X59515238Y-114276190D01*
X59562857Y-114180952D01*
%TO.C,C7*%
X53173333Y-140057142D02*
X53125714Y-140104761D01*
X52982857Y-140152380D01*
X52887619Y-140152380D01*
X52744761Y-140104761D01*
X52649523Y-140009523D01*
X52601904Y-139914285D01*
X52554285Y-139723809D01*
X52554285Y-139580952D01*
X52601904Y-139390476D01*
X52649523Y-139295238D01*
X52744761Y-139200000D01*
X52887619Y-139152380D01*
X52982857Y-139152380D01*
X53125714Y-139200000D01*
X53173333Y-139247619D01*
X53506666Y-139152380D02*
X54173333Y-139152380D01*
X53744761Y-140152380D01*
%TO.C,R48*%
X51427142Y-135072380D02*
X51093809Y-134596190D01*
X50855714Y-135072380D02*
X50855714Y-134072380D01*
X51236666Y-134072380D01*
X51331904Y-134120000D01*
X51379523Y-134167619D01*
X51427142Y-134262857D01*
X51427142Y-134405714D01*
X51379523Y-134500952D01*
X51331904Y-134548571D01*
X51236666Y-134596190D01*
X50855714Y-134596190D01*
X52284285Y-134405714D02*
X52284285Y-135072380D01*
X52046190Y-134024761D02*
X51808095Y-134739047D01*
X52427142Y-134739047D01*
X52950952Y-134500952D02*
X52855714Y-134453333D01*
X52808095Y-134405714D01*
X52760476Y-134310476D01*
X52760476Y-134262857D01*
X52808095Y-134167619D01*
X52855714Y-134120000D01*
X52950952Y-134072380D01*
X53141428Y-134072380D01*
X53236666Y-134120000D01*
X53284285Y-134167619D01*
X53331904Y-134262857D01*
X53331904Y-134310476D01*
X53284285Y-134405714D01*
X53236666Y-134453333D01*
X53141428Y-134500952D01*
X52950952Y-134500952D01*
X52855714Y-134548571D01*
X52808095Y-134596190D01*
X52760476Y-134691428D01*
X52760476Y-134881904D01*
X52808095Y-134977142D01*
X52855714Y-135024761D01*
X52950952Y-135072380D01*
X53141428Y-135072380D01*
X53236666Y-135024761D01*
X53284285Y-134977142D01*
X53331904Y-134881904D01*
X53331904Y-134691428D01*
X53284285Y-134596190D01*
X53236666Y-134548571D01*
X53141428Y-134500952D01*
%TO.C,R16*%
X63952380Y-118752857D02*
X63476190Y-119086190D01*
X63952380Y-119324285D02*
X62952380Y-119324285D01*
X62952380Y-118943333D01*
X63000000Y-118848095D01*
X63047619Y-118800476D01*
X63142857Y-118752857D01*
X63285714Y-118752857D01*
X63380952Y-118800476D01*
X63428571Y-118848095D01*
X63476190Y-118943333D01*
X63476190Y-119324285D01*
X63952380Y-117800476D02*
X63952380Y-118371904D01*
X63952380Y-118086190D02*
X62952380Y-118086190D01*
X63095238Y-118181428D01*
X63190476Y-118276666D01*
X63238095Y-118371904D01*
X62952380Y-116943333D02*
X62952380Y-117133809D01*
X63000000Y-117229047D01*
X63047619Y-117276666D01*
X63190476Y-117371904D01*
X63380952Y-117419523D01*
X63761904Y-117419523D01*
X63857142Y-117371904D01*
X63904761Y-117324285D01*
X63952380Y-117229047D01*
X63952380Y-117038571D01*
X63904761Y-116943333D01*
X63857142Y-116895714D01*
X63761904Y-116848095D01*
X63523809Y-116848095D01*
X63428571Y-116895714D01*
X63380952Y-116943333D01*
X63333333Y-117038571D01*
X63333333Y-117229047D01*
X63380952Y-117324285D01*
X63428571Y-117371904D01*
X63523809Y-117419523D01*
%TO.C,R4*%
X72842380Y-124626666D02*
X72366190Y-124960000D01*
X72842380Y-125198095D02*
X71842380Y-125198095D01*
X71842380Y-124817142D01*
X71890000Y-124721904D01*
X71937619Y-124674285D01*
X72032857Y-124626666D01*
X72175714Y-124626666D01*
X72270952Y-124674285D01*
X72318571Y-124721904D01*
X72366190Y-124817142D01*
X72366190Y-125198095D01*
X72175714Y-123769523D02*
X72842380Y-123769523D01*
X71794761Y-124007619D02*
X72509047Y-124245714D01*
X72509047Y-123626666D01*
%TO.C,C2*%
X70207142Y-141136666D02*
X70254761Y-141184285D01*
X70302380Y-141327142D01*
X70302380Y-141422380D01*
X70254761Y-141565238D01*
X70159523Y-141660476D01*
X70064285Y-141708095D01*
X69873809Y-141755714D01*
X69730952Y-141755714D01*
X69540476Y-141708095D01*
X69445238Y-141660476D01*
X69350000Y-141565238D01*
X69302380Y-141422380D01*
X69302380Y-141327142D01*
X69350000Y-141184285D01*
X69397619Y-141136666D01*
X69397619Y-140755714D02*
X69350000Y-140708095D01*
X69302380Y-140612857D01*
X69302380Y-140374761D01*
X69350000Y-140279523D01*
X69397619Y-140231904D01*
X69492857Y-140184285D01*
X69588095Y-140184285D01*
X69730952Y-140231904D01*
X70302380Y-140803333D01*
X70302380Y-140184285D01*
%TO.C,J4*%
X37966666Y-149312380D02*
X37966666Y-150026666D01*
X37919047Y-150169523D01*
X37823809Y-150264761D01*
X37680952Y-150312380D01*
X37585714Y-150312380D01*
X38871428Y-149645714D02*
X38871428Y-150312380D01*
X38633333Y-149264761D02*
X38395238Y-149979047D01*
X39014285Y-149979047D01*
%TO.C,J1*%
X37966666Y-107402380D02*
X37966666Y-108116666D01*
X37919047Y-108259523D01*
X37823809Y-108354761D01*
X37680952Y-108402380D01*
X37585714Y-108402380D01*
X38966666Y-108402380D02*
X38395238Y-108402380D01*
X38680952Y-108402380D02*
X38680952Y-107402380D01*
X38585714Y-107545238D01*
X38490476Y-107640476D01*
X38395238Y-107688095D01*
%TO.C,J10*%
X71580476Y-144232380D02*
X71580476Y-144946666D01*
X71532857Y-145089523D01*
X71437619Y-145184761D01*
X71294761Y-145232380D01*
X71199523Y-145232380D01*
X72580476Y-145232380D02*
X72009047Y-145232380D01*
X72294761Y-145232380D02*
X72294761Y-144232380D01*
X72199523Y-144375238D01*
X72104285Y-144470476D01*
X72009047Y-144518095D01*
X73199523Y-144232380D02*
X73294761Y-144232380D01*
X73390000Y-144280000D01*
X73437619Y-144327619D01*
X73485238Y-144422857D01*
X73532857Y-144613333D01*
X73532857Y-144851428D01*
X73485238Y-145041904D01*
X73437619Y-145137142D01*
X73390000Y-145184761D01*
X73294761Y-145232380D01*
X73199523Y-145232380D01*
X73104285Y-145184761D01*
X73056666Y-145137142D01*
X73009047Y-145041904D01*
X72961428Y-144851428D01*
X72961428Y-144613333D01*
X73009047Y-144422857D01*
X73056666Y-144327619D01*
X73104285Y-144280000D01*
X73199523Y-144232380D01*
%TO.C,C9*%
X72747142Y-130976666D02*
X72794761Y-131024285D01*
X72842380Y-131167142D01*
X72842380Y-131262380D01*
X72794761Y-131405238D01*
X72699523Y-131500476D01*
X72604285Y-131548095D01*
X72413809Y-131595714D01*
X72270952Y-131595714D01*
X72080476Y-131548095D01*
X71985238Y-131500476D01*
X71890000Y-131405238D01*
X71842380Y-131262380D01*
X71842380Y-131167142D01*
X71890000Y-131024285D01*
X71937619Y-130976666D01*
X72842380Y-130500476D02*
X72842380Y-130310000D01*
X72794761Y-130214761D01*
X72747142Y-130167142D01*
X72604285Y-130071904D01*
X72413809Y-130024285D01*
X72032857Y-130024285D01*
X71937619Y-130071904D01*
X71890000Y-130119523D01*
X71842380Y-130214761D01*
X71842380Y-130405238D01*
X71890000Y-130500476D01*
X71937619Y-130548095D01*
X72032857Y-130595714D01*
X72270952Y-130595714D01*
X72366190Y-130548095D01*
X72413809Y-130500476D01*
X72461428Y-130405238D01*
X72461428Y-130214761D01*
X72413809Y-130119523D01*
X72366190Y-130071904D01*
X72270952Y-130024285D01*
%TO.C,C11*%
X67667142Y-139072857D02*
X67714761Y-139120476D01*
X67762380Y-139263333D01*
X67762380Y-139358571D01*
X67714761Y-139501428D01*
X67619523Y-139596666D01*
X67524285Y-139644285D01*
X67333809Y-139691904D01*
X67190952Y-139691904D01*
X67000476Y-139644285D01*
X66905238Y-139596666D01*
X66810000Y-139501428D01*
X66762380Y-139358571D01*
X66762380Y-139263333D01*
X66810000Y-139120476D01*
X66857619Y-139072857D01*
X67762380Y-138120476D02*
X67762380Y-138691904D01*
X67762380Y-138406190D02*
X66762380Y-138406190D01*
X66905238Y-138501428D01*
X67000476Y-138596666D01*
X67048095Y-138691904D01*
X67762380Y-137168095D02*
X67762380Y-137739523D01*
X67762380Y-137453809D02*
X66762380Y-137453809D01*
X66905238Y-137549047D01*
X67000476Y-137644285D01*
X67048095Y-137739523D01*
%TO.C,R26*%
X70302380Y-126372857D02*
X69826190Y-126706190D01*
X70302380Y-126944285D02*
X69302380Y-126944285D01*
X69302380Y-126563333D01*
X69350000Y-126468095D01*
X69397619Y-126420476D01*
X69492857Y-126372857D01*
X69635714Y-126372857D01*
X69730952Y-126420476D01*
X69778571Y-126468095D01*
X69826190Y-126563333D01*
X69826190Y-126944285D01*
X69397619Y-125991904D02*
X69350000Y-125944285D01*
X69302380Y-125849047D01*
X69302380Y-125610952D01*
X69350000Y-125515714D01*
X69397619Y-125468095D01*
X69492857Y-125420476D01*
X69588095Y-125420476D01*
X69730952Y-125468095D01*
X70302380Y-126039523D01*
X70302380Y-125420476D01*
X69302380Y-124563333D02*
X69302380Y-124753809D01*
X69350000Y-124849047D01*
X69397619Y-124896666D01*
X69540476Y-124991904D01*
X69730952Y-125039523D01*
X70111904Y-125039523D01*
X70207142Y-124991904D01*
X70254761Y-124944285D01*
X70302380Y-124849047D01*
X70302380Y-124658571D01*
X70254761Y-124563333D01*
X70207142Y-124515714D01*
X70111904Y-124468095D01*
X69873809Y-124468095D01*
X69778571Y-124515714D01*
X69730952Y-124563333D01*
X69683333Y-124658571D01*
X69683333Y-124849047D01*
X69730952Y-124944285D01*
X69778571Y-124991904D01*
X69873809Y-125039523D01*
%TO.C,J9*%
X49196666Y-139152380D02*
X49196666Y-139866666D01*
X49149047Y-140009523D01*
X49053809Y-140104761D01*
X48910952Y-140152380D01*
X48815714Y-140152380D01*
X49720476Y-140152380D02*
X49910952Y-140152380D01*
X50006190Y-140104761D01*
X50053809Y-140057142D01*
X50149047Y-139914285D01*
X50196666Y-139723809D01*
X50196666Y-139342857D01*
X50149047Y-139247619D01*
X50101428Y-139200000D01*
X50006190Y-139152380D01*
X49815714Y-139152380D01*
X49720476Y-139200000D01*
X49672857Y-139247619D01*
X49625238Y-139342857D01*
X49625238Y-139580952D01*
X49672857Y-139676190D01*
X49720476Y-139723809D01*
X49815714Y-139771428D01*
X50006190Y-139771428D01*
X50101428Y-139723809D01*
X50149047Y-139676190D01*
X50196666Y-139580952D01*
%TO.C,R19*%
X61412380Y-120022857D02*
X60936190Y-120356190D01*
X61412380Y-120594285D02*
X60412380Y-120594285D01*
X60412380Y-120213333D01*
X60460000Y-120118095D01*
X60507619Y-120070476D01*
X60602857Y-120022857D01*
X60745714Y-120022857D01*
X60840952Y-120070476D01*
X60888571Y-120118095D01*
X60936190Y-120213333D01*
X60936190Y-120594285D01*
X61412380Y-119070476D02*
X61412380Y-119641904D01*
X61412380Y-119356190D02*
X60412380Y-119356190D01*
X60555238Y-119451428D01*
X60650476Y-119546666D01*
X60698095Y-119641904D01*
X61412380Y-118594285D02*
X61412380Y-118403809D01*
X61364761Y-118308571D01*
X61317142Y-118260952D01*
X61174285Y-118165714D01*
X60983809Y-118118095D01*
X60602857Y-118118095D01*
X60507619Y-118165714D01*
X60460000Y-118213333D01*
X60412380Y-118308571D01*
X60412380Y-118499047D01*
X60460000Y-118594285D01*
X60507619Y-118641904D01*
X60602857Y-118689523D01*
X60840952Y-118689523D01*
X60936190Y-118641904D01*
X60983809Y-118594285D01*
X61031428Y-118499047D01*
X61031428Y-118308571D01*
X60983809Y-118213333D01*
X60936190Y-118165714D01*
X60840952Y-118118095D01*
%TO.C,R12*%
X70302380Y-136532857D02*
X69826190Y-136866190D01*
X70302380Y-137104285D02*
X69302380Y-137104285D01*
X69302380Y-136723333D01*
X69350000Y-136628095D01*
X69397619Y-136580476D01*
X69492857Y-136532857D01*
X69635714Y-136532857D01*
X69730952Y-136580476D01*
X69778571Y-136628095D01*
X69826190Y-136723333D01*
X69826190Y-137104285D01*
X70302380Y-135580476D02*
X70302380Y-136151904D01*
X70302380Y-135866190D02*
X69302380Y-135866190D01*
X69445238Y-135961428D01*
X69540476Y-136056666D01*
X69588095Y-136151904D01*
X69397619Y-135199523D02*
X69350000Y-135151904D01*
X69302380Y-135056666D01*
X69302380Y-134818571D01*
X69350000Y-134723333D01*
X69397619Y-134675714D01*
X69492857Y-134628095D01*
X69588095Y-134628095D01*
X69730952Y-134675714D01*
X70302380Y-135247142D01*
X70302380Y-134628095D01*
%TO.C,J3*%
X53006666Y-116292380D02*
X53006666Y-117006666D01*
X52959047Y-117149523D01*
X52863809Y-117244761D01*
X52720952Y-117292380D01*
X52625714Y-117292380D01*
X53387619Y-116292380D02*
X54006666Y-116292380D01*
X53673333Y-116673333D01*
X53816190Y-116673333D01*
X53911428Y-116720952D01*
X53959047Y-116768571D01*
X54006666Y-116863809D01*
X54006666Y-117101904D01*
X53959047Y-117197142D01*
X53911428Y-117244761D01*
X53816190Y-117292380D01*
X53530476Y-117292380D01*
X53435238Y-117244761D01*
X53387619Y-117197142D01*
%TO.C,RV7*%
X70302380Y-117435238D02*
X69826190Y-117768571D01*
X70302380Y-118006666D02*
X69302380Y-118006666D01*
X69302380Y-117625714D01*
X69350000Y-117530476D01*
X69397619Y-117482857D01*
X69492857Y-117435238D01*
X69635714Y-117435238D01*
X69730952Y-117482857D01*
X69778571Y-117530476D01*
X69826190Y-117625714D01*
X69826190Y-118006666D01*
X69302380Y-117149523D02*
X70302380Y-116816190D01*
X69302380Y-116482857D01*
X69302380Y-116244761D02*
X69302380Y-115578095D01*
X70302380Y-116006666D01*
%TO.C,J22*%
X64222380Y-153209523D02*
X64936666Y-153209523D01*
X65079523Y-153257142D01*
X65174761Y-153352380D01*
X65222380Y-153495238D01*
X65222380Y-153590476D01*
X64317619Y-152780952D02*
X64270000Y-152733333D01*
X64222380Y-152638095D01*
X64222380Y-152400000D01*
X64270000Y-152304761D01*
X64317619Y-152257142D01*
X64412857Y-152209523D01*
X64508095Y-152209523D01*
X64650952Y-152257142D01*
X65222380Y-152828571D01*
X65222380Y-152209523D01*
X64317619Y-151828571D02*
X64270000Y-151780952D01*
X64222380Y-151685714D01*
X64222380Y-151447619D01*
X64270000Y-151352380D01*
X64317619Y-151304761D01*
X64412857Y-151257142D01*
X64508095Y-151257142D01*
X64650952Y-151304761D01*
X65222380Y-151876190D01*
X65222380Y-151257142D01*
%TO.C,R17*%
X67762380Y-125102857D02*
X67286190Y-125436190D01*
X67762380Y-125674285D02*
X66762380Y-125674285D01*
X66762380Y-125293333D01*
X66810000Y-125198095D01*
X66857619Y-125150476D01*
X66952857Y-125102857D01*
X67095714Y-125102857D01*
X67190952Y-125150476D01*
X67238571Y-125198095D01*
X67286190Y-125293333D01*
X67286190Y-125674285D01*
X67762380Y-124150476D02*
X67762380Y-124721904D01*
X67762380Y-124436190D02*
X66762380Y-124436190D01*
X66905238Y-124531428D01*
X67000476Y-124626666D01*
X67048095Y-124721904D01*
X66762380Y-123817142D02*
X66762380Y-123150476D01*
X67762380Y-123579047D01*
%TO.C,J27*%
X48720476Y-151852380D02*
X48720476Y-152566666D01*
X48672857Y-152709523D01*
X48577619Y-152804761D01*
X48434761Y-152852380D01*
X48339523Y-152852380D01*
X49149047Y-151947619D02*
X49196666Y-151900000D01*
X49291904Y-151852380D01*
X49530000Y-151852380D01*
X49625238Y-151900000D01*
X49672857Y-151947619D01*
X49720476Y-152042857D01*
X49720476Y-152138095D01*
X49672857Y-152280952D01*
X49101428Y-152852380D01*
X49720476Y-152852380D01*
X50053809Y-151852380D02*
X50720476Y-151852380D01*
X50291904Y-152852380D01*
%TO.C,R8*%
X56332380Y-119546666D02*
X55856190Y-119880000D01*
X56332380Y-120118095D02*
X55332380Y-120118095D01*
X55332380Y-119737142D01*
X55380000Y-119641904D01*
X55427619Y-119594285D01*
X55522857Y-119546666D01*
X55665714Y-119546666D01*
X55760952Y-119594285D01*
X55808571Y-119641904D01*
X55856190Y-119737142D01*
X55856190Y-120118095D01*
X55760952Y-118975238D02*
X55713333Y-119070476D01*
X55665714Y-119118095D01*
X55570476Y-119165714D01*
X55522857Y-119165714D01*
X55427619Y-119118095D01*
X55380000Y-119070476D01*
X55332380Y-118975238D01*
X55332380Y-118784761D01*
X55380000Y-118689523D01*
X55427619Y-118641904D01*
X55522857Y-118594285D01*
X55570476Y-118594285D01*
X55665714Y-118641904D01*
X55713333Y-118689523D01*
X55760952Y-118784761D01*
X55760952Y-118975238D01*
X55808571Y-119070476D01*
X55856190Y-119118095D01*
X55951428Y-119165714D01*
X56141904Y-119165714D01*
X56237142Y-119118095D01*
X56284761Y-119070476D01*
X56332380Y-118975238D01*
X56332380Y-118784761D01*
X56284761Y-118689523D01*
X56237142Y-118641904D01*
X56141904Y-118594285D01*
X55951428Y-118594285D01*
X55856190Y-118641904D01*
X55808571Y-118689523D01*
X55760952Y-118784761D01*
%TO.C,C1*%
X73493333Y-142597142D02*
X73445714Y-142644761D01*
X73302857Y-142692380D01*
X73207619Y-142692380D01*
X73064761Y-142644761D01*
X72969523Y-142549523D01*
X72921904Y-142454285D01*
X72874285Y-142263809D01*
X72874285Y-142120952D01*
X72921904Y-141930476D01*
X72969523Y-141835238D01*
X73064761Y-141740000D01*
X73207619Y-141692380D01*
X73302857Y-141692380D01*
X73445714Y-141740000D01*
X73493333Y-141787619D01*
X74445714Y-142692380D02*
X73874285Y-142692380D01*
X74160000Y-142692380D02*
X74160000Y-141692380D01*
X74064761Y-141835238D01*
X73969523Y-141930476D01*
X73874285Y-141978095D01*
%TO.C,R50*%
X50157142Y-132532380D02*
X49823809Y-132056190D01*
X49585714Y-132532380D02*
X49585714Y-131532380D01*
X49966666Y-131532380D01*
X50061904Y-131580000D01*
X50109523Y-131627619D01*
X50157142Y-131722857D01*
X50157142Y-131865714D01*
X50109523Y-131960952D01*
X50061904Y-132008571D01*
X49966666Y-132056190D01*
X49585714Y-132056190D01*
X51061904Y-131532380D02*
X50585714Y-131532380D01*
X50538095Y-132008571D01*
X50585714Y-131960952D01*
X50680952Y-131913333D01*
X50919047Y-131913333D01*
X51014285Y-131960952D01*
X51061904Y-132008571D01*
X51109523Y-132103809D01*
X51109523Y-132341904D01*
X51061904Y-132437142D01*
X51014285Y-132484761D01*
X50919047Y-132532380D01*
X50680952Y-132532380D01*
X50585714Y-132484761D01*
X50538095Y-132437142D01*
X51728571Y-131532380D02*
X51823809Y-131532380D01*
X51919047Y-131580000D01*
X51966666Y-131627619D01*
X52014285Y-131722857D01*
X52061904Y-131913333D01*
X52061904Y-132151428D01*
X52014285Y-132341904D01*
X51966666Y-132437142D01*
X51919047Y-132484761D01*
X51823809Y-132532380D01*
X51728571Y-132532380D01*
X51633333Y-132484761D01*
X51585714Y-132437142D01*
X51538095Y-132341904D01*
X51490476Y-132151428D01*
X51490476Y-131913333D01*
X51538095Y-131722857D01*
X51585714Y-131627619D01*
X51633333Y-131580000D01*
X51728571Y-131532380D01*
%TO.C,R10*%
X75382380Y-137802857D02*
X74906190Y-138136190D01*
X75382380Y-138374285D02*
X74382380Y-138374285D01*
X74382380Y-137993333D01*
X74430000Y-137898095D01*
X74477619Y-137850476D01*
X74572857Y-137802857D01*
X74715714Y-137802857D01*
X74810952Y-137850476D01*
X74858571Y-137898095D01*
X74906190Y-137993333D01*
X74906190Y-138374285D01*
X75382380Y-136850476D02*
X75382380Y-137421904D01*
X75382380Y-137136190D02*
X74382380Y-137136190D01*
X74525238Y-137231428D01*
X74620476Y-137326666D01*
X74668095Y-137421904D01*
X74382380Y-136231428D02*
X74382380Y-136136190D01*
X74430000Y-136040952D01*
X74477619Y-135993333D01*
X74572857Y-135945714D01*
X74763333Y-135898095D01*
X75001428Y-135898095D01*
X75191904Y-135945714D01*
X75287142Y-135993333D01*
X75334761Y-136040952D01*
X75382380Y-136136190D01*
X75382380Y-136231428D01*
X75334761Y-136326666D01*
X75287142Y-136374285D01*
X75191904Y-136421904D01*
X75001428Y-136469523D01*
X74763333Y-136469523D01*
X74572857Y-136421904D01*
X74477619Y-136374285D01*
X74430000Y-136326666D01*
X74382380Y-136231428D01*
%TO.C,J2*%
X37966666Y-121372380D02*
X37966666Y-122086666D01*
X37919047Y-122229523D01*
X37823809Y-122324761D01*
X37680952Y-122372380D01*
X37585714Y-122372380D01*
X38395238Y-121467619D02*
X38442857Y-121420000D01*
X38538095Y-121372380D01*
X38776190Y-121372380D01*
X38871428Y-121420000D01*
X38919047Y-121467619D01*
X38966666Y-121562857D01*
X38966666Y-121658095D01*
X38919047Y-121800952D01*
X38347619Y-122372380D01*
X38966666Y-122372380D01*
%TO.C,RV9*%
X50204761Y-124912380D02*
X49871428Y-124436190D01*
X49633333Y-124912380D02*
X49633333Y-123912380D01*
X50014285Y-123912380D01*
X50109523Y-123960000D01*
X50157142Y-124007619D01*
X50204761Y-124102857D01*
X50204761Y-124245714D01*
X50157142Y-124340952D01*
X50109523Y-124388571D01*
X50014285Y-124436190D01*
X49633333Y-124436190D01*
X50490476Y-123912380D02*
X50823809Y-124912380D01*
X51157142Y-123912380D01*
X51538095Y-124912380D02*
X51728571Y-124912380D01*
X51823809Y-124864761D01*
X51871428Y-124817142D01*
X51966666Y-124674285D01*
X52014285Y-124483809D01*
X52014285Y-124102857D01*
X51966666Y-124007619D01*
X51919047Y-123960000D01*
X51823809Y-123912380D01*
X51633333Y-123912380D01*
X51538095Y-123960000D01*
X51490476Y-124007619D01*
X51442857Y-124102857D01*
X51442857Y-124340952D01*
X51490476Y-124436190D01*
X51538095Y-124483809D01*
X51633333Y-124531428D01*
X51823809Y-124531428D01*
X51919047Y-124483809D01*
X51966666Y-124436190D01*
X52014285Y-124340952D01*
%TO.C,J17*%
X55070476Y-113752380D02*
X55070476Y-114466666D01*
X55022857Y-114609523D01*
X54927619Y-114704761D01*
X54784761Y-114752380D01*
X54689523Y-114752380D01*
X56070476Y-114752380D02*
X55499047Y-114752380D01*
X55784761Y-114752380D02*
X55784761Y-113752380D01*
X55689523Y-113895238D01*
X55594285Y-113990476D01*
X55499047Y-114038095D01*
X56403809Y-113752380D02*
X57070476Y-113752380D01*
X56641904Y-114752380D01*
%TO.C,R25*%
X67937142Y-129992380D02*
X67603809Y-129516190D01*
X67365714Y-129992380D02*
X67365714Y-128992380D01*
X67746666Y-128992380D01*
X67841904Y-129040000D01*
X67889523Y-129087619D01*
X67937142Y-129182857D01*
X67937142Y-129325714D01*
X67889523Y-129420952D01*
X67841904Y-129468571D01*
X67746666Y-129516190D01*
X67365714Y-129516190D01*
X68318095Y-129087619D02*
X68365714Y-129040000D01*
X68460952Y-128992380D01*
X68699047Y-128992380D01*
X68794285Y-129040000D01*
X68841904Y-129087619D01*
X68889523Y-129182857D01*
X68889523Y-129278095D01*
X68841904Y-129420952D01*
X68270476Y-129992380D01*
X68889523Y-129992380D01*
X69794285Y-128992380D02*
X69318095Y-128992380D01*
X69270476Y-129468571D01*
X69318095Y-129420952D01*
X69413333Y-129373333D01*
X69651428Y-129373333D01*
X69746666Y-129420952D01*
X69794285Y-129468571D01*
X69841904Y-129563809D01*
X69841904Y-129801904D01*
X69794285Y-129897142D01*
X69746666Y-129944761D01*
X69651428Y-129992380D01*
X69413333Y-129992380D01*
X69318095Y-129944761D01*
X69270476Y-129897142D01*
%TO.C,U2*%
X60208095Y-135342380D02*
X60208095Y-136151904D01*
X60255714Y-136247142D01*
X60303333Y-136294761D01*
X60398571Y-136342380D01*
X60589047Y-136342380D01*
X60684285Y-136294761D01*
X60731904Y-136247142D01*
X60779523Y-136151904D01*
X60779523Y-135342380D01*
X61208095Y-135437619D02*
X61255714Y-135390000D01*
X61350952Y-135342380D01*
X61589047Y-135342380D01*
X61684285Y-135390000D01*
X61731904Y-135437619D01*
X61779523Y-135532857D01*
X61779523Y-135628095D01*
X61731904Y-135770952D01*
X61160476Y-136342380D01*
X61779523Y-136342380D01*
%TO.C,R11*%
X72842380Y-137802857D02*
X72366190Y-138136190D01*
X72842380Y-138374285D02*
X71842380Y-138374285D01*
X71842380Y-137993333D01*
X71890000Y-137898095D01*
X71937619Y-137850476D01*
X72032857Y-137802857D01*
X72175714Y-137802857D01*
X72270952Y-137850476D01*
X72318571Y-137898095D01*
X72366190Y-137993333D01*
X72366190Y-138374285D01*
X72842380Y-136850476D02*
X72842380Y-137421904D01*
X72842380Y-137136190D02*
X71842380Y-137136190D01*
X71985238Y-137231428D01*
X72080476Y-137326666D01*
X72128095Y-137421904D01*
X72842380Y-135898095D02*
X72842380Y-136469523D01*
X72842380Y-136183809D02*
X71842380Y-136183809D01*
X71985238Y-136279047D01*
X72080476Y-136374285D01*
X72128095Y-136469523D01*
%TO.C,J6*%
X53006666Y-118832380D02*
X53006666Y-119546666D01*
X52959047Y-119689523D01*
X52863809Y-119784761D01*
X52720952Y-119832380D01*
X52625714Y-119832380D01*
X53911428Y-118832380D02*
X53720952Y-118832380D01*
X53625714Y-118880000D01*
X53578095Y-118927619D01*
X53482857Y-119070476D01*
X53435238Y-119260952D01*
X53435238Y-119641904D01*
X53482857Y-119737142D01*
X53530476Y-119784761D01*
X53625714Y-119832380D01*
X53816190Y-119832380D01*
X53911428Y-119784761D01*
X53959047Y-119737142D01*
X54006666Y-119641904D01*
X54006666Y-119403809D01*
X53959047Y-119308571D01*
X53911428Y-119260952D01*
X53816190Y-119213333D01*
X53625714Y-119213333D01*
X53530476Y-119260952D01*
X53482857Y-119308571D01*
X53435238Y-119403809D01*
%TO.C,C3*%
X68413333Y-145137142D02*
X68365714Y-145184761D01*
X68222857Y-145232380D01*
X68127619Y-145232380D01*
X67984761Y-145184761D01*
X67889523Y-145089523D01*
X67841904Y-144994285D01*
X67794285Y-144803809D01*
X67794285Y-144660952D01*
X67841904Y-144470476D01*
X67889523Y-144375238D01*
X67984761Y-144280000D01*
X68127619Y-144232380D01*
X68222857Y-144232380D01*
X68365714Y-144280000D01*
X68413333Y-144327619D01*
X68746666Y-144232380D02*
X69365714Y-144232380D01*
X69032380Y-144613333D01*
X69175238Y-144613333D01*
X69270476Y-144660952D01*
X69318095Y-144708571D01*
X69365714Y-144803809D01*
X69365714Y-145041904D01*
X69318095Y-145137142D01*
X69270476Y-145184761D01*
X69175238Y-145232380D01*
X68889523Y-145232380D01*
X68794285Y-145184761D01*
X68746666Y-145137142D01*
%TO.C,R38*%
X55062380Y-126372857D02*
X54586190Y-126706190D01*
X55062380Y-126944285D02*
X54062380Y-126944285D01*
X54062380Y-126563333D01*
X54110000Y-126468095D01*
X54157619Y-126420476D01*
X54252857Y-126372857D01*
X54395714Y-126372857D01*
X54490952Y-126420476D01*
X54538571Y-126468095D01*
X54586190Y-126563333D01*
X54586190Y-126944285D01*
X54062380Y-126039523D02*
X54062380Y-125420476D01*
X54443333Y-125753809D01*
X54443333Y-125610952D01*
X54490952Y-125515714D01*
X54538571Y-125468095D01*
X54633809Y-125420476D01*
X54871904Y-125420476D01*
X54967142Y-125468095D01*
X55014761Y-125515714D01*
X55062380Y-125610952D01*
X55062380Y-125896666D01*
X55014761Y-125991904D01*
X54967142Y-126039523D01*
X54490952Y-124849047D02*
X54443333Y-124944285D01*
X54395714Y-124991904D01*
X54300476Y-125039523D01*
X54252857Y-125039523D01*
X54157619Y-124991904D01*
X54110000Y-124944285D01*
X54062380Y-124849047D01*
X54062380Y-124658571D01*
X54110000Y-124563333D01*
X54157619Y-124515714D01*
X54252857Y-124468095D01*
X54300476Y-124468095D01*
X54395714Y-124515714D01*
X54443333Y-124563333D01*
X54490952Y-124658571D01*
X54490952Y-124849047D01*
X54538571Y-124944285D01*
X54586190Y-124991904D01*
X54681428Y-125039523D01*
X54871904Y-125039523D01*
X54967142Y-124991904D01*
X55014761Y-124944285D01*
X55062380Y-124849047D01*
X55062380Y-124658571D01*
X55014761Y-124563333D01*
X54967142Y-124515714D01*
X54871904Y-124468095D01*
X54681428Y-124468095D01*
X54586190Y-124515714D01*
X54538571Y-124563333D01*
X54490952Y-124658571D01*
%TO.C,J5*%
X37966666Y-135342380D02*
X37966666Y-136056666D01*
X37919047Y-136199523D01*
X37823809Y-136294761D01*
X37680952Y-136342380D01*
X37585714Y-136342380D01*
X38919047Y-135342380D02*
X38442857Y-135342380D01*
X38395238Y-135818571D01*
X38442857Y-135770952D01*
X38538095Y-135723333D01*
X38776190Y-135723333D01*
X38871428Y-135770952D01*
X38919047Y-135818571D01*
X38966666Y-135913809D01*
X38966666Y-136151904D01*
X38919047Y-136247142D01*
X38871428Y-136294761D01*
X38776190Y-136342380D01*
X38538095Y-136342380D01*
X38442857Y-136294761D01*
X38395238Y-136247142D01*
%TO.C,R6*%
X58872380Y-118276666D02*
X58396190Y-118610000D01*
X58872380Y-118848095D02*
X57872380Y-118848095D01*
X57872380Y-118467142D01*
X57920000Y-118371904D01*
X57967619Y-118324285D01*
X58062857Y-118276666D01*
X58205714Y-118276666D01*
X58300952Y-118324285D01*
X58348571Y-118371904D01*
X58396190Y-118467142D01*
X58396190Y-118848095D01*
X57872380Y-117419523D02*
X57872380Y-117610000D01*
X57920000Y-117705238D01*
X57967619Y-117752857D01*
X58110476Y-117848095D01*
X58300952Y-117895714D01*
X58681904Y-117895714D01*
X58777142Y-117848095D01*
X58824761Y-117800476D01*
X58872380Y-117705238D01*
X58872380Y-117514761D01*
X58824761Y-117419523D01*
X58777142Y-117371904D01*
X58681904Y-117324285D01*
X58443809Y-117324285D01*
X58348571Y-117371904D01*
X58300952Y-117419523D01*
X58253333Y-117514761D01*
X58253333Y-117705238D01*
X58300952Y-117800476D01*
X58348571Y-117848095D01*
X58443809Y-117895714D01*
%TO.C,R39*%
X51427142Y-129992380D02*
X51093809Y-129516190D01*
X50855714Y-129992380D02*
X50855714Y-128992380D01*
X51236666Y-128992380D01*
X51331904Y-129040000D01*
X51379523Y-129087619D01*
X51427142Y-129182857D01*
X51427142Y-129325714D01*
X51379523Y-129420952D01*
X51331904Y-129468571D01*
X51236666Y-129516190D01*
X50855714Y-129516190D01*
X51760476Y-128992380D02*
X52379523Y-128992380D01*
X52046190Y-129373333D01*
X52189047Y-129373333D01*
X52284285Y-129420952D01*
X52331904Y-129468571D01*
X52379523Y-129563809D01*
X52379523Y-129801904D01*
X52331904Y-129897142D01*
X52284285Y-129944761D01*
X52189047Y-129992380D01*
X51903333Y-129992380D01*
X51808095Y-129944761D01*
X51760476Y-129897142D01*
X52855714Y-129992380D02*
X53046190Y-129992380D01*
X53141428Y-129944761D01*
X53189047Y-129897142D01*
X53284285Y-129754285D01*
X53331904Y-129563809D01*
X53331904Y-129182857D01*
X53284285Y-129087619D01*
X53236666Y-129040000D01*
X53141428Y-128992380D01*
X52950952Y-128992380D01*
X52855714Y-129040000D01*
X52808095Y-129087619D01*
X52760476Y-129182857D01*
X52760476Y-129420952D01*
X52808095Y-129516190D01*
X52855714Y-129563809D01*
X52950952Y-129611428D01*
X53141428Y-129611428D01*
X53236666Y-129563809D01*
X53284285Y-129516190D01*
X53331904Y-129420952D01*
D11*
%TO.C,R40*%
X50150000Y-136240000D02*
X53990000Y-136240000D01*
X50150000Y-138080000D02*
X53990000Y-138080000D01*
%TO.C,RV5*%
X48800000Y-143110000D02*
X48800000Y-145805000D01*
X53190000Y-142064000D02*
X53190000Y-145805000D01*
X53190000Y-142064000D02*
X50950000Y-142064000D01*
X55340000Y-143110000D02*
X55340000Y-145805000D01*
X53190000Y-145805000D02*
X50950000Y-145805000D01*
X50950000Y-142064000D02*
X50950000Y-145805000D01*
X53504000Y-142064000D02*
X50635000Y-142064000D01*
X55340000Y-145805000D02*
X48800000Y-145805000D01*
%TO.C,R2*%
X49890000Y-118837064D02*
X49890000Y-117382936D01*
X51710000Y-118837064D02*
X51710000Y-117382936D01*
%TO.C,J21*%
X62170000Y-115570000D02*
X64830000Y-115570000D01*
X62170000Y-112970000D02*
X63500000Y-112970000D01*
X62170000Y-115630000D02*
X64830000Y-115630000D01*
X62170000Y-115570000D02*
X62170000Y-115630000D01*
X64830000Y-115570000D02*
X64830000Y-115630000D01*
X62170000Y-114300000D02*
X62170000Y-112970000D01*
%TO.C,J18*%
X52010000Y-114300000D02*
X52010000Y-112970000D01*
X52010000Y-115570000D02*
X54670000Y-115570000D01*
X52010000Y-112970000D02*
X53340000Y-112970000D01*
X52010000Y-115630000D02*
X54670000Y-115630000D01*
X52010000Y-115570000D02*
X52010000Y-115630000D01*
X54670000Y-115570000D02*
X54670000Y-115630000D01*
%TO.C,J20*%
X59630000Y-115570000D02*
X59630000Y-115630000D01*
X59630000Y-115630000D02*
X62290000Y-115630000D01*
X59630000Y-114300000D02*
X59630000Y-112970000D01*
X59630000Y-112970000D02*
X60960000Y-112970000D01*
X62290000Y-115570000D02*
X62290000Y-115630000D01*
X59630000Y-115570000D02*
X62290000Y-115570000D01*
%TO.C,J16*%
X49470000Y-112970000D02*
X50800000Y-112970000D01*
X49470000Y-115630000D02*
X52130000Y-115630000D01*
X52130000Y-115570000D02*
X52130000Y-115630000D01*
X49470000Y-115570000D02*
X52130000Y-115570000D01*
X49470000Y-114300000D02*
X49470000Y-112970000D01*
X49470000Y-115570000D02*
X49470000Y-115630000D01*
%TO.C,R46*%
X67852936Y-131170000D02*
X69307064Y-131170000D01*
X67852936Y-132990000D02*
X69307064Y-132990000D01*
%TO.C,J19*%
X57090000Y-114300000D02*
X57090000Y-112970000D01*
X59750000Y-115570000D02*
X59750000Y-115630000D01*
X57090000Y-115570000D02*
X57090000Y-115630000D01*
X57090000Y-112970000D02*
X58420000Y-112970000D01*
X57090000Y-115630000D02*
X59750000Y-115630000D01*
X57090000Y-115570000D02*
X59750000Y-115570000D01*
%TO.C,C7*%
X52628748Y-140610000D02*
X54051252Y-140610000D01*
X52628748Y-138790000D02*
X54051252Y-138790000D01*
%TO.C,R48*%
X53990000Y-133700000D02*
X50150000Y-133700000D01*
X53990000Y-135540000D02*
X50150000Y-135540000D01*
%TO.C,R16*%
X64410000Y-117382936D02*
X64410000Y-118837064D01*
X62590000Y-117382936D02*
X62590000Y-118837064D01*
%TO.C,R4*%
X71480000Y-123732936D02*
X71480000Y-125187064D01*
X73300000Y-123732936D02*
X73300000Y-125187064D01*
%TO.C,C2*%
X70760000Y-141681252D02*
X70760000Y-140258748D01*
X68940000Y-141681252D02*
X68940000Y-140258748D01*
%TO.C,J4*%
X38300000Y-153310000D02*
X45300000Y-153310000D01*
X45300000Y-148810000D02*
X45300000Y-150910000D01*
X33400000Y-147160000D02*
X33400000Y-146410000D01*
X33400000Y-146410000D02*
X35900000Y-146410000D01*
X38300000Y-146410000D02*
X43400000Y-146410000D01*
X33400000Y-153310000D02*
X33400000Y-152560000D01*
X35900000Y-153310000D02*
X33400000Y-153310000D01*
%TO.C,J1*%
X38300000Y-104500000D02*
X43400000Y-104500000D01*
X45300000Y-106900000D02*
X45300000Y-109000000D01*
X38300000Y-111400000D02*
X45300000Y-111400000D01*
X33400000Y-105250000D02*
X33400000Y-104500000D01*
X33400000Y-111400000D02*
X33400000Y-110650000D01*
X33400000Y-104500000D02*
X35900000Y-104500000D01*
X35900000Y-111400000D02*
X33400000Y-111400000D01*
%TO.C,J10*%
X71060000Y-146050000D02*
X73720000Y-146050000D01*
X71060000Y-146110000D02*
X73720000Y-146110000D01*
X71060000Y-146050000D02*
X71060000Y-146110000D01*
X71060000Y-144780000D02*
X71060000Y-143450000D01*
X73720000Y-146050000D02*
X73720000Y-146110000D01*
X71060000Y-143450000D02*
X72390000Y-143450000D01*
%TO.C,C9*%
X73300000Y-130098748D02*
X73300000Y-131521252D01*
X71480000Y-130098748D02*
X71480000Y-131521252D01*
%TO.C,C11*%
X68220000Y-137718748D02*
X68220000Y-139141252D01*
X66400000Y-137718748D02*
X66400000Y-139141252D01*
%TO.C,R26*%
X68940000Y-125002936D02*
X68940000Y-126457064D01*
X70760000Y-125002936D02*
X70760000Y-126457064D01*
%TO.C,J9*%
X48200000Y-140970000D02*
X50860000Y-140970000D01*
X48200000Y-140970000D02*
X48200000Y-141030000D01*
X48200000Y-138370000D02*
X49530000Y-138370000D01*
X50860000Y-140970000D02*
X50860000Y-141030000D01*
X48200000Y-139700000D02*
X48200000Y-138370000D01*
X48200000Y-141030000D02*
X50860000Y-141030000D01*
%TO.C,R19*%
X61880000Y-117460000D02*
X61880000Y-121300000D01*
X60040000Y-117460000D02*
X60040000Y-121300000D01*
%TO.C,J25*%
X46295000Y-106045000D02*
X46295000Y-104715000D01*
X46295000Y-107315000D02*
X46295000Y-107375000D01*
X46295000Y-107375000D02*
X48955000Y-107375000D01*
X46295000Y-104715000D02*
X47625000Y-104715000D01*
X46295000Y-107315000D02*
X48955000Y-107315000D01*
X48955000Y-107315000D02*
X48955000Y-107375000D01*
%TO.C,R12*%
X70760000Y-135162936D02*
X70760000Y-136617064D01*
X68940000Y-135162936D02*
X68940000Y-136617064D01*
%TO.C,J3*%
X52010000Y-115510000D02*
X53340000Y-115510000D01*
X52010000Y-116840000D02*
X52010000Y-115510000D01*
X52010000Y-118110000D02*
X54670000Y-118110000D01*
X52010000Y-118110000D02*
X52010000Y-118170000D01*
X52010000Y-118170000D02*
X54670000Y-118170000D01*
X54670000Y-118110000D02*
X54670000Y-118170000D01*
%TO.C,RV7*%
X73120000Y-117765000D02*
X73120000Y-120460000D01*
X71284000Y-116719000D02*
X68415000Y-116719000D01*
X68730000Y-116719000D02*
X68730000Y-120460000D01*
X66580000Y-117765000D02*
X66580000Y-120460000D01*
X73120000Y-120460000D02*
X66580000Y-120460000D01*
X70970000Y-120460000D02*
X68730000Y-120460000D01*
X70970000Y-116719000D02*
X68730000Y-116719000D01*
X70970000Y-116719000D02*
X70970000Y-120460000D01*
%TO.C,J22*%
X63500000Y-153730000D02*
X50740000Y-153730000D01*
X50740000Y-151070000D02*
X50740000Y-153730000D01*
X64770000Y-151070000D02*
X66100000Y-151070000D01*
X63500000Y-151070000D02*
X63500000Y-153730000D01*
X63500000Y-151070000D02*
X50740000Y-151070000D01*
X66100000Y-151070000D02*
X66100000Y-152400000D01*
%TO.C,R17*%
X66390000Y-126380000D02*
X66390000Y-122540000D01*
X68230000Y-126380000D02*
X68230000Y-122540000D01*
%TO.C,J27*%
X50860000Y-153670000D02*
X50860000Y-153730000D01*
X48200000Y-153670000D02*
X48200000Y-153730000D01*
X48200000Y-151070000D02*
X49530000Y-151070000D01*
X48200000Y-153730000D02*
X50860000Y-153730000D01*
X48200000Y-152400000D02*
X48200000Y-151070000D01*
X48200000Y-153670000D02*
X50860000Y-153670000D01*
%TO.C,R8*%
X54960000Y-117460000D02*
X54960000Y-121300000D01*
X56800000Y-117460000D02*
X56800000Y-121300000D01*
%TO.C,C1*%
X73031000Y-143160000D02*
X74289000Y-143160000D01*
X73031000Y-141320000D02*
X74289000Y-141320000D01*
%TO.C,R50*%
X51527064Y-131170000D02*
X50072936Y-131170000D01*
X51527064Y-132990000D02*
X50072936Y-132990000D01*
%TO.C,R10*%
X75850000Y-139080000D02*
X75850000Y-135240000D01*
X74010000Y-139080000D02*
X74010000Y-135240000D01*
%TO.C,J2*%
X38300000Y-118700479D02*
X43400000Y-118700479D01*
X33400000Y-119450479D02*
X33400000Y-118700479D01*
X33400000Y-125600479D02*
X33400000Y-124850479D01*
X45300000Y-121100479D02*
X45300000Y-123200479D01*
X33400000Y-118700479D02*
X35900000Y-118700479D01*
X35900000Y-125600479D02*
X33400000Y-125600479D01*
X38300000Y-125600479D02*
X45300000Y-125600479D01*
%TO.C,RV9*%
X53150000Y-123340000D02*
X53150000Y-125580000D01*
X50455000Y-127730000D02*
X53150000Y-127730000D01*
X49409000Y-125580000D02*
X53150000Y-125580000D01*
X50455000Y-121190000D02*
X53150000Y-121190000D01*
X49409000Y-123026000D02*
X49409000Y-125895000D01*
X49409000Y-123340000D02*
X49409000Y-125580000D01*
X53150000Y-121190000D02*
X53150000Y-127730000D01*
X49409000Y-123340000D02*
X53150000Y-123340000D01*
%TO.C,J17*%
X54550000Y-115570000D02*
X57210000Y-115570000D01*
X54550000Y-115570000D02*
X54550000Y-115630000D01*
X54550000Y-114300000D02*
X54550000Y-112970000D01*
X57210000Y-115570000D02*
X57210000Y-115630000D01*
X54550000Y-112970000D02*
X55880000Y-112970000D01*
X54550000Y-115630000D02*
X57210000Y-115630000D01*
%TO.C,R25*%
X69307064Y-128630000D02*
X67852936Y-128630000D01*
X69307064Y-130450000D02*
X67852936Y-130450000D01*
%TO.C,U2*%
X58320000Y-125685000D02*
X58320000Y-146125000D01*
X58320000Y-146125000D02*
X63620000Y-146125000D01*
X63620000Y-146125000D02*
X63620000Y-125685000D01*
X59970000Y-125685000D02*
X58320000Y-125685000D01*
X63620000Y-125685000D02*
X61970000Y-125685000D01*
X59970000Y-125685000D02*
G75*
G03*
X61970000Y-125685000I1000000J0D01*
G01*
%TO.C,R11*%
X71470000Y-139080000D02*
X71470000Y-135240000D01*
X73310000Y-139080000D02*
X73310000Y-135240000D01*
%TO.C,J6*%
X52010000Y-120650000D02*
X52010000Y-120710000D01*
X52010000Y-120710000D02*
X54670000Y-120710000D01*
X52010000Y-120650000D02*
X54670000Y-120650000D01*
X52010000Y-118050000D02*
X53340000Y-118050000D01*
X54670000Y-120650000D02*
X54670000Y-120710000D01*
X52010000Y-119380000D02*
X52010000Y-118050000D01*
%TO.C,C3*%
X69291252Y-143870000D02*
X67868748Y-143870000D01*
X69291252Y-145690000D02*
X67868748Y-145690000D01*
%TO.C,R38*%
X53700000Y-125002936D02*
X53700000Y-126457064D01*
X55520000Y-125002936D02*
X55520000Y-126457064D01*
%TO.C,J5*%
X33400000Y-133420479D02*
X33400000Y-132670479D01*
X35900000Y-139570479D02*
X33400000Y-139570479D01*
X33400000Y-139570479D02*
X33400000Y-138820479D01*
X45300000Y-135070479D02*
X45300000Y-137170479D01*
X38300000Y-139570479D02*
X45300000Y-139570479D01*
X38300000Y-132670479D02*
X43400000Y-132670479D01*
X33400000Y-132670479D02*
X35900000Y-132670479D01*
%TO.C,R6*%
X59330000Y-118837064D02*
X59330000Y-117382936D01*
X57510000Y-118837064D02*
X57510000Y-117382936D01*
%TO.C,R39*%
X50150000Y-128620000D02*
X53990000Y-128620000D01*
X50150000Y-130460000D02*
X53990000Y-130460000D01*
%TD*%
M02*
