%TF.GenerationSoftware,KiCad,Pcbnew,(6.0.5)*%
%TF.CreationDate,2023-05-16T23:55:54-04:00*%
%TF.ProjectId,as3340_no_mux,61733333-3430-45f6-9e6f-5f6d75782e6b,rev?*%
%TF.SameCoordinates,Original*%
%TF.FileFunction,Legend,Top*%
%TF.FilePolarity,Positive*%
%FSLAX46Y46*%
G04 Gerber Fmt 4.6, Leading zero omitted, Abs format (unit mm)*
G04 Created by KiCad (PCBNEW (6.0.5)) date 2023-05-16 23:55:54*
%MOMM*%
%LPD*%
G01*
G04 APERTURE LIST*
%ADD10C,0.150000*%
%ADD11C,0.120000*%
G04 APERTURE END LIST*
D10*
X38006666Y-155932142D02*
X37959047Y-155979761D01*
X37816190Y-156027380D01*
X37720952Y-156027380D01*
X37578095Y-155979761D01*
X37482857Y-155884523D01*
X37435238Y-155789285D01*
X37387619Y-155598809D01*
X37387619Y-155455952D01*
X37435238Y-155265476D01*
X37482857Y-155170238D01*
X37578095Y-155075000D01*
X37720952Y-155027380D01*
X37816190Y-155027380D01*
X37959047Y-155075000D01*
X38006666Y-155122619D01*
X38435238Y-155503571D02*
X38768571Y-155503571D01*
X38911428Y-156027380D02*
X38435238Y-156027380D01*
X38435238Y-155027380D01*
X38911428Y-155027380D01*
X39911428Y-156027380D02*
X39578095Y-155551190D01*
X39340000Y-156027380D02*
X39340000Y-155027380D01*
X39720952Y-155027380D01*
X39816190Y-155075000D01*
X39863809Y-155122619D01*
X39911428Y-155217857D01*
X39911428Y-155360714D01*
X39863809Y-155455952D01*
X39816190Y-155503571D01*
X39720952Y-155551190D01*
X39340000Y-155551190D01*
X40197142Y-155027380D02*
X40768571Y-155027380D01*
X40482857Y-156027380D02*
X40482857Y-155027380D01*
X41816190Y-154979761D02*
X40959047Y-156265476D01*
X42101904Y-155979761D02*
X42244761Y-156027380D01*
X42482857Y-156027380D01*
X42578095Y-155979761D01*
X42625714Y-155932142D01*
X42673333Y-155836904D01*
X42673333Y-155741666D01*
X42625714Y-155646428D01*
X42578095Y-155598809D01*
X42482857Y-155551190D01*
X42292380Y-155503571D01*
X42197142Y-155455952D01*
X42149523Y-155408333D01*
X42101904Y-155313095D01*
X42101904Y-155217857D01*
X42149523Y-155122619D01*
X42197142Y-155075000D01*
X42292380Y-155027380D01*
X42530476Y-155027380D01*
X42673333Y-155075000D01*
X43292380Y-155551190D02*
X43292380Y-156027380D01*
X42959047Y-155027380D02*
X43292380Y-155551190D01*
X43625714Y-155027380D01*
X43959047Y-156027380D02*
X43959047Y-155027380D01*
X44530476Y-156027380D01*
X44530476Y-155027380D01*
X44863809Y-155027380D02*
X45435238Y-155027380D01*
X45149523Y-156027380D02*
X45149523Y-155027380D01*
X45768571Y-156027380D02*
X45768571Y-155027380D01*
X45768571Y-155503571D02*
X46340000Y-155503571D01*
X46340000Y-156027380D02*
X46340000Y-155027380D01*
X47435238Y-155027380D02*
X47768571Y-156027380D01*
X48101904Y-155027380D01*
X49006666Y-155932142D02*
X48959047Y-155979761D01*
X48816190Y-156027380D01*
X48720952Y-156027380D01*
X48578095Y-155979761D01*
X48482857Y-155884523D01*
X48435238Y-155789285D01*
X48387619Y-155598809D01*
X48387619Y-155455952D01*
X48435238Y-155265476D01*
X48482857Y-155170238D01*
X48578095Y-155075000D01*
X48720952Y-155027380D01*
X48816190Y-155027380D01*
X48959047Y-155075000D01*
X49006666Y-155122619D01*
X49625714Y-155027380D02*
X49816190Y-155027380D01*
X49911428Y-155075000D01*
X50006666Y-155170238D01*
X50054285Y-155360714D01*
X50054285Y-155694047D01*
X50006666Y-155884523D01*
X49911428Y-155979761D01*
X49816190Y-156027380D01*
X49625714Y-156027380D01*
X49530476Y-155979761D01*
X49435238Y-155884523D01*
X49387619Y-155694047D01*
X49387619Y-155360714D01*
X49435238Y-155170238D01*
X49530476Y-155075000D01*
X49625714Y-155027380D01*
X50482857Y-155646428D02*
X51244761Y-155646428D01*
X51625714Y-155027380D02*
X52244761Y-155027380D01*
X51911428Y-155408333D01*
X52054285Y-155408333D01*
X52149523Y-155455952D01*
X52197142Y-155503571D01*
X52244761Y-155598809D01*
X52244761Y-155836904D01*
X52197142Y-155932142D01*
X52149523Y-155979761D01*
X52054285Y-156027380D01*
X51768571Y-156027380D01*
X51673333Y-155979761D01*
X51625714Y-155932142D01*
X53435238Y-156027380D02*
X53435238Y-155027380D01*
X53816190Y-155027380D01*
X53911428Y-155075000D01*
X53959047Y-155122619D01*
X54006666Y-155217857D01*
X54006666Y-155360714D01*
X53959047Y-155455952D01*
X53911428Y-155503571D01*
X53816190Y-155551190D01*
X53435238Y-155551190D01*
X55006666Y-155932142D02*
X54959047Y-155979761D01*
X54816190Y-156027380D01*
X54720952Y-156027380D01*
X54578095Y-155979761D01*
X54482857Y-155884523D01*
X54435238Y-155789285D01*
X54387619Y-155598809D01*
X54387619Y-155455952D01*
X54435238Y-155265476D01*
X54482857Y-155170238D01*
X54578095Y-155075000D01*
X54720952Y-155027380D01*
X54816190Y-155027380D01*
X54959047Y-155075000D01*
X55006666Y-155122619D01*
X55768571Y-155503571D02*
X55911428Y-155551190D01*
X55959047Y-155598809D01*
X56006666Y-155694047D01*
X56006666Y-155836904D01*
X55959047Y-155932142D01*
X55911428Y-155979761D01*
X55816190Y-156027380D01*
X55435238Y-156027380D01*
X55435238Y-155027380D01*
X55768571Y-155027380D01*
X55863809Y-155075000D01*
X55911428Y-155122619D01*
X55959047Y-155217857D01*
X55959047Y-155313095D01*
X55911428Y-155408333D01*
X55863809Y-155455952D01*
X55768571Y-155503571D01*
X55435238Y-155503571D01*
X56435238Y-155646428D02*
X57197142Y-155646428D01*
X57625714Y-155741666D02*
X58101904Y-155741666D01*
X57530476Y-156027380D02*
X57863809Y-155027380D01*
X58197142Y-156027380D01*
X59292380Y-156027380D02*
X59292380Y-155027380D01*
X59292380Y-155503571D02*
X59863809Y-155503571D01*
X59863809Y-156027380D02*
X59863809Y-155027380D01*
X60340000Y-155932142D02*
X60387619Y-155979761D01*
X60340000Y-156027380D01*
X60292380Y-155979761D01*
X60340000Y-155932142D01*
X60340000Y-156027380D01*
X61578095Y-156027380D02*
X61578095Y-155027380D01*
X61959047Y-155027380D01*
X62054285Y-155075000D01*
X62101904Y-155122619D01*
X62149523Y-155217857D01*
X62149523Y-155360714D01*
X62101904Y-155455952D01*
X62054285Y-155503571D01*
X61959047Y-155551190D01*
X61578095Y-155551190D01*
X63149523Y-156027380D02*
X62816190Y-155551190D01*
X62578095Y-156027380D02*
X62578095Y-155027380D01*
X62959047Y-155027380D01*
X63054285Y-155075000D01*
X63101904Y-155122619D01*
X63149523Y-155217857D01*
X63149523Y-155360714D01*
X63101904Y-155455952D01*
X63054285Y-155503571D01*
X62959047Y-155551190D01*
X62578095Y-155551190D01*
X63578095Y-156027380D02*
X63578095Y-155027380D01*
X63911428Y-155027380D02*
X64482857Y-155027380D01*
X64197142Y-156027380D02*
X64197142Y-155027380D01*
X65387619Y-155932142D02*
X65340000Y-155979761D01*
X65197142Y-156027380D01*
X65101904Y-156027380D01*
X64959047Y-155979761D01*
X64863809Y-155884523D01*
X64816190Y-155789285D01*
X64768571Y-155598809D01*
X64768571Y-155455952D01*
X64816190Y-155265476D01*
X64863809Y-155170238D01*
X64959047Y-155075000D01*
X65101904Y-155027380D01*
X65197142Y-155027380D01*
X65340000Y-155075000D01*
X65387619Y-155122619D01*
X65816190Y-156027380D02*
X65816190Y-155027380D01*
X65816190Y-155503571D02*
X66387619Y-155503571D01*
X66387619Y-156027380D02*
X66387619Y-155027380D01*
X66816190Y-155741666D02*
X67292380Y-155741666D01*
X66720952Y-156027380D02*
X67054285Y-155027380D01*
X67387619Y-156027380D01*
X68292380Y-156027380D02*
X67959047Y-155551190D01*
X67720952Y-156027380D02*
X67720952Y-155027380D01*
X68101904Y-155027380D01*
X68197142Y-155075000D01*
X68244761Y-155122619D01*
X68292380Y-155217857D01*
X68292380Y-155360714D01*
X68244761Y-155455952D01*
X68197142Y-155503571D01*
X68101904Y-155551190D01*
X67720952Y-155551190D01*
X68720952Y-156027380D02*
X68720952Y-155027380D01*
X68959047Y-155027380D01*
X69101904Y-155075000D01*
X69197142Y-155170238D01*
X69244761Y-155265476D01*
X69292380Y-155455952D01*
X69292380Y-155598809D01*
X69244761Y-155789285D01*
X69197142Y-155884523D01*
X69101904Y-155979761D01*
X68959047Y-156027380D01*
X68720952Y-156027380D01*
X95085238Y-155932142D02*
X95037619Y-155979761D01*
X94894761Y-156027380D01*
X94799523Y-156027380D01*
X94656666Y-155979761D01*
X94561428Y-155884523D01*
X94513809Y-155789285D01*
X94466190Y-155598809D01*
X94466190Y-155455952D01*
X94513809Y-155265476D01*
X94561428Y-155170238D01*
X94656666Y-155075000D01*
X94799523Y-155027380D01*
X94894761Y-155027380D01*
X95037619Y-155075000D01*
X95085238Y-155122619D01*
X95513809Y-155503571D02*
X95847142Y-155503571D01*
X95990000Y-156027380D02*
X95513809Y-156027380D01*
X95513809Y-155027380D01*
X95990000Y-155027380D01*
X96990000Y-156027380D02*
X96656666Y-155551190D01*
X96418571Y-156027380D02*
X96418571Y-155027380D01*
X96799523Y-155027380D01*
X96894761Y-155075000D01*
X96942380Y-155122619D01*
X96990000Y-155217857D01*
X96990000Y-155360714D01*
X96942380Y-155455952D01*
X96894761Y-155503571D01*
X96799523Y-155551190D01*
X96418571Y-155551190D01*
X97275714Y-155027380D02*
X97847142Y-155027380D01*
X97561428Y-156027380D02*
X97561428Y-155027380D01*
X98894761Y-154979761D02*
X98037619Y-156265476D01*
X99180476Y-155979761D02*
X99323333Y-156027380D01*
X99561428Y-156027380D01*
X99656666Y-155979761D01*
X99704285Y-155932142D01*
X99751904Y-155836904D01*
X99751904Y-155741666D01*
X99704285Y-155646428D01*
X99656666Y-155598809D01*
X99561428Y-155551190D01*
X99370952Y-155503571D01*
X99275714Y-155455952D01*
X99228095Y-155408333D01*
X99180476Y-155313095D01*
X99180476Y-155217857D01*
X99228095Y-155122619D01*
X99275714Y-155075000D01*
X99370952Y-155027380D01*
X99609047Y-155027380D01*
X99751904Y-155075000D01*
X100370952Y-155551190D02*
X100370952Y-156027380D01*
X100037619Y-155027380D02*
X100370952Y-155551190D01*
X100704285Y-155027380D01*
X101037619Y-156027380D02*
X101037619Y-155027380D01*
X101609047Y-156027380D01*
X101609047Y-155027380D01*
X101942380Y-155027380D02*
X102513809Y-155027380D01*
X102228095Y-156027380D02*
X102228095Y-155027380D01*
X102847142Y-156027380D02*
X102847142Y-155027380D01*
X102847142Y-155503571D02*
X103418571Y-155503571D01*
X103418571Y-156027380D02*
X103418571Y-155027380D01*
X104513809Y-155027380D02*
X104847142Y-156027380D01*
X105180476Y-155027380D01*
X106085238Y-155932142D02*
X106037619Y-155979761D01*
X105894761Y-156027380D01*
X105799523Y-156027380D01*
X105656666Y-155979761D01*
X105561428Y-155884523D01*
X105513809Y-155789285D01*
X105466190Y-155598809D01*
X105466190Y-155455952D01*
X105513809Y-155265476D01*
X105561428Y-155170238D01*
X105656666Y-155075000D01*
X105799523Y-155027380D01*
X105894761Y-155027380D01*
X106037619Y-155075000D01*
X106085238Y-155122619D01*
X106704285Y-155027380D02*
X106894761Y-155027380D01*
X106990000Y-155075000D01*
X107085238Y-155170238D01*
X107132857Y-155360714D01*
X107132857Y-155694047D01*
X107085238Y-155884523D01*
X106990000Y-155979761D01*
X106894761Y-156027380D01*
X106704285Y-156027380D01*
X106609047Y-155979761D01*
X106513809Y-155884523D01*
X106466190Y-155694047D01*
X106466190Y-155360714D01*
X106513809Y-155170238D01*
X106609047Y-155075000D01*
X106704285Y-155027380D01*
X107561428Y-155646428D02*
X108323333Y-155646428D01*
X108704285Y-155027380D02*
X109323333Y-155027380D01*
X108990000Y-155408333D01*
X109132857Y-155408333D01*
X109228095Y-155455952D01*
X109275714Y-155503571D01*
X109323333Y-155598809D01*
X109323333Y-155836904D01*
X109275714Y-155932142D01*
X109228095Y-155979761D01*
X109132857Y-156027380D01*
X108847142Y-156027380D01*
X108751904Y-155979761D01*
X108704285Y-155932142D01*
X110513809Y-156027380D02*
X110513809Y-155027380D01*
X110894761Y-155027380D01*
X110990000Y-155075000D01*
X111037619Y-155122619D01*
X111085238Y-155217857D01*
X111085238Y-155360714D01*
X111037619Y-155455952D01*
X110990000Y-155503571D01*
X110894761Y-155551190D01*
X110513809Y-155551190D01*
X112085238Y-155932142D02*
X112037619Y-155979761D01*
X111894761Y-156027380D01*
X111799523Y-156027380D01*
X111656666Y-155979761D01*
X111561428Y-155884523D01*
X111513809Y-155789285D01*
X111466190Y-155598809D01*
X111466190Y-155455952D01*
X111513809Y-155265476D01*
X111561428Y-155170238D01*
X111656666Y-155075000D01*
X111799523Y-155027380D01*
X111894761Y-155027380D01*
X112037619Y-155075000D01*
X112085238Y-155122619D01*
X112847142Y-155503571D02*
X112990000Y-155551190D01*
X113037619Y-155598809D01*
X113085238Y-155694047D01*
X113085238Y-155836904D01*
X113037619Y-155932142D01*
X112990000Y-155979761D01*
X112894761Y-156027380D01*
X112513809Y-156027380D01*
X112513809Y-155027380D01*
X112847142Y-155027380D01*
X112942380Y-155075000D01*
X112990000Y-155122619D01*
X113037619Y-155217857D01*
X113037619Y-155313095D01*
X112990000Y-155408333D01*
X112942380Y-155455952D01*
X112847142Y-155503571D01*
X112513809Y-155503571D01*
X113513809Y-155646428D02*
X114275714Y-155646428D01*
X115085238Y-155503571D02*
X115228095Y-155551190D01*
X115275714Y-155598809D01*
X115323333Y-155694047D01*
X115323333Y-155836904D01*
X115275714Y-155932142D01*
X115228095Y-155979761D01*
X115132857Y-156027380D01*
X114751904Y-156027380D01*
X114751904Y-155027380D01*
X115085238Y-155027380D01*
X115180476Y-155075000D01*
X115228095Y-155122619D01*
X115275714Y-155217857D01*
X115275714Y-155313095D01*
X115228095Y-155408333D01*
X115180476Y-155455952D01*
X115085238Y-155503571D01*
X114751904Y-155503571D01*
X116513809Y-156027380D02*
X116513809Y-155027380D01*
X116513809Y-155503571D02*
X117085238Y-155503571D01*
X117085238Y-156027380D02*
X117085238Y-155027380D01*
X117561428Y-155932142D02*
X117609047Y-155979761D01*
X117561428Y-156027380D01*
X117513809Y-155979761D01*
X117561428Y-155932142D01*
X117561428Y-156027380D01*
X118799523Y-156027380D02*
X118799523Y-155027380D01*
X119180476Y-155027380D01*
X119275714Y-155075000D01*
X119323333Y-155122619D01*
X119370952Y-155217857D01*
X119370952Y-155360714D01*
X119323333Y-155455952D01*
X119275714Y-155503571D01*
X119180476Y-155551190D01*
X118799523Y-155551190D01*
X120370952Y-156027380D02*
X120037619Y-155551190D01*
X119799523Y-156027380D02*
X119799523Y-155027380D01*
X120180476Y-155027380D01*
X120275714Y-155075000D01*
X120323333Y-155122619D01*
X120370952Y-155217857D01*
X120370952Y-155360714D01*
X120323333Y-155455952D01*
X120275714Y-155503571D01*
X120180476Y-155551190D01*
X119799523Y-155551190D01*
X120799523Y-156027380D02*
X120799523Y-155027380D01*
X121132857Y-155027380D02*
X121704285Y-155027380D01*
X121418571Y-156027380D02*
X121418571Y-155027380D01*
X122609047Y-155932142D02*
X122561428Y-155979761D01*
X122418571Y-156027380D01*
X122323333Y-156027380D01*
X122180476Y-155979761D01*
X122085238Y-155884523D01*
X122037619Y-155789285D01*
X121990000Y-155598809D01*
X121990000Y-155455952D01*
X122037619Y-155265476D01*
X122085238Y-155170238D01*
X122180476Y-155075000D01*
X122323333Y-155027380D01*
X122418571Y-155027380D01*
X122561428Y-155075000D01*
X122609047Y-155122619D01*
X123037619Y-156027380D02*
X123037619Y-155027380D01*
X123037619Y-155503571D02*
X123609047Y-155503571D01*
X123609047Y-156027380D02*
X123609047Y-155027380D01*
X124037619Y-155741666D02*
X124513809Y-155741666D01*
X123942380Y-156027380D02*
X124275714Y-155027380D01*
X124609047Y-156027380D01*
X125513809Y-156027380D02*
X125180476Y-155551190D01*
X124942380Y-156027380D02*
X124942380Y-155027380D01*
X125323333Y-155027380D01*
X125418571Y-155075000D01*
X125466190Y-155122619D01*
X125513809Y-155217857D01*
X125513809Y-155360714D01*
X125466190Y-155455952D01*
X125418571Y-155503571D01*
X125323333Y-155551190D01*
X124942380Y-155551190D01*
X125942380Y-156027380D02*
X125942380Y-155027380D01*
X126180476Y-155027380D01*
X126323333Y-155075000D01*
X126418571Y-155170238D01*
X126466190Y-155265476D01*
X126513809Y-155455952D01*
X126513809Y-155598809D01*
X126466190Y-155789285D01*
X126418571Y-155884523D01*
X126323333Y-155979761D01*
X126180476Y-156027380D01*
X125942380Y-156027380D01*
%TO.C,J18*%
X52530476Y-113752380D02*
X52530476Y-114466666D01*
X52482857Y-114609523D01*
X52387619Y-114704761D01*
X52244761Y-114752380D01*
X52149523Y-114752380D01*
X53530476Y-114752380D02*
X52959047Y-114752380D01*
X53244761Y-114752380D02*
X53244761Y-113752380D01*
X53149523Y-113895238D01*
X53054285Y-113990476D01*
X52959047Y-114038095D01*
X54101904Y-114180952D02*
X54006666Y-114133333D01*
X53959047Y-114085714D01*
X53911428Y-113990476D01*
X53911428Y-113942857D01*
X53959047Y-113847619D01*
X54006666Y-113800000D01*
X54101904Y-113752380D01*
X54292380Y-113752380D01*
X54387619Y-113800000D01*
X54435238Y-113847619D01*
X54482857Y-113942857D01*
X54482857Y-113990476D01*
X54435238Y-114085714D01*
X54387619Y-114133333D01*
X54292380Y-114180952D01*
X54101904Y-114180952D01*
X54006666Y-114228571D01*
X53959047Y-114276190D01*
X53911428Y-114371428D01*
X53911428Y-114561904D01*
X53959047Y-114657142D01*
X54006666Y-114704761D01*
X54101904Y-114752380D01*
X54292380Y-114752380D01*
X54387619Y-114704761D01*
X54435238Y-114657142D01*
X54482857Y-114561904D01*
X54482857Y-114371428D01*
X54435238Y-114276190D01*
X54387619Y-114228571D01*
X54292380Y-114180952D01*
%TO.C,J2*%
X37966666Y-121372380D02*
X37966666Y-122086666D01*
X37919047Y-122229523D01*
X37823809Y-122324761D01*
X37680952Y-122372380D01*
X37585714Y-122372380D01*
X38395238Y-121467619D02*
X38442857Y-121420000D01*
X38538095Y-121372380D01*
X38776190Y-121372380D01*
X38871428Y-121420000D01*
X38919047Y-121467619D01*
X38966666Y-121562857D01*
X38966666Y-121658095D01*
X38919047Y-121800952D01*
X38347619Y-122372380D01*
X38966666Y-122372380D01*
%TO.C,J16*%
X49990476Y-113752380D02*
X49990476Y-114466666D01*
X49942857Y-114609523D01*
X49847619Y-114704761D01*
X49704761Y-114752380D01*
X49609523Y-114752380D01*
X50990476Y-114752380D02*
X50419047Y-114752380D01*
X50704761Y-114752380D02*
X50704761Y-113752380D01*
X50609523Y-113895238D01*
X50514285Y-113990476D01*
X50419047Y-114038095D01*
X51847619Y-113752380D02*
X51657142Y-113752380D01*
X51561904Y-113800000D01*
X51514285Y-113847619D01*
X51419047Y-113990476D01*
X51371428Y-114180952D01*
X51371428Y-114561904D01*
X51419047Y-114657142D01*
X51466666Y-114704761D01*
X51561904Y-114752380D01*
X51752380Y-114752380D01*
X51847619Y-114704761D01*
X51895238Y-114657142D01*
X51942857Y-114561904D01*
X51942857Y-114323809D01*
X51895238Y-114228571D01*
X51847619Y-114180952D01*
X51752380Y-114133333D01*
X51561904Y-114133333D01*
X51466666Y-114180952D01*
X51419047Y-114228571D01*
X51371428Y-114323809D01*
%TO.C,C11*%
X67667142Y-139072857D02*
X67714761Y-139120476D01*
X67762380Y-139263333D01*
X67762380Y-139358571D01*
X67714761Y-139501428D01*
X67619523Y-139596666D01*
X67524285Y-139644285D01*
X67333809Y-139691904D01*
X67190952Y-139691904D01*
X67000476Y-139644285D01*
X66905238Y-139596666D01*
X66810000Y-139501428D01*
X66762380Y-139358571D01*
X66762380Y-139263333D01*
X66810000Y-139120476D01*
X66857619Y-139072857D01*
X67762380Y-138120476D02*
X67762380Y-138691904D01*
X67762380Y-138406190D02*
X66762380Y-138406190D01*
X66905238Y-138501428D01*
X67000476Y-138596666D01*
X67048095Y-138691904D01*
X67762380Y-137168095D02*
X67762380Y-137739523D01*
X67762380Y-137453809D02*
X66762380Y-137453809D01*
X66905238Y-137549047D01*
X67000476Y-137644285D01*
X67048095Y-137739523D01*
%TO.C,J17*%
X55070476Y-113752380D02*
X55070476Y-114466666D01*
X55022857Y-114609523D01*
X54927619Y-114704761D01*
X54784761Y-114752380D01*
X54689523Y-114752380D01*
X56070476Y-114752380D02*
X55499047Y-114752380D01*
X55784761Y-114752380D02*
X55784761Y-113752380D01*
X55689523Y-113895238D01*
X55594285Y-113990476D01*
X55499047Y-114038095D01*
X56403809Y-113752380D02*
X57070476Y-113752380D01*
X56641904Y-114752380D01*
%TO.C,J3*%
X53006666Y-116292380D02*
X53006666Y-117006666D01*
X52959047Y-117149523D01*
X52863809Y-117244761D01*
X52720952Y-117292380D01*
X52625714Y-117292380D01*
X53387619Y-116292380D02*
X54006666Y-116292380D01*
X53673333Y-116673333D01*
X53816190Y-116673333D01*
X53911428Y-116720952D01*
X53959047Y-116768571D01*
X54006666Y-116863809D01*
X54006666Y-117101904D01*
X53959047Y-117197142D01*
X53911428Y-117244761D01*
X53816190Y-117292380D01*
X53530476Y-117292380D01*
X53435238Y-117244761D01*
X53387619Y-117197142D01*
%TO.C,J1*%
X37966666Y-107402380D02*
X37966666Y-108116666D01*
X37919047Y-108259523D01*
X37823809Y-108354761D01*
X37680952Y-108402380D01*
X37585714Y-108402380D01*
X38966666Y-108402380D02*
X38395238Y-108402380D01*
X38680952Y-108402380D02*
X38680952Y-107402380D01*
X38585714Y-107545238D01*
X38490476Y-107640476D01*
X38395238Y-107688095D01*
%TO.C,J6*%
X53006666Y-118832380D02*
X53006666Y-119546666D01*
X52959047Y-119689523D01*
X52863809Y-119784761D01*
X52720952Y-119832380D01*
X52625714Y-119832380D01*
X53911428Y-118832380D02*
X53720952Y-118832380D01*
X53625714Y-118880000D01*
X53578095Y-118927619D01*
X53482857Y-119070476D01*
X53435238Y-119260952D01*
X53435238Y-119641904D01*
X53482857Y-119737142D01*
X53530476Y-119784761D01*
X53625714Y-119832380D01*
X53816190Y-119832380D01*
X53911428Y-119784761D01*
X53959047Y-119737142D01*
X54006666Y-119641904D01*
X54006666Y-119403809D01*
X53959047Y-119308571D01*
X53911428Y-119260952D01*
X53816190Y-119213333D01*
X53625714Y-119213333D01*
X53530476Y-119260952D01*
X53482857Y-119308571D01*
X53435238Y-119403809D01*
%TO.C,J9*%
X49196666Y-139152380D02*
X49196666Y-139866666D01*
X49149047Y-140009523D01*
X49053809Y-140104761D01*
X48910952Y-140152380D01*
X48815714Y-140152380D01*
X49720476Y-140152380D02*
X49910952Y-140152380D01*
X50006190Y-140104761D01*
X50053809Y-140057142D01*
X50149047Y-139914285D01*
X50196666Y-139723809D01*
X50196666Y-139342857D01*
X50149047Y-139247619D01*
X50101428Y-139200000D01*
X50006190Y-139152380D01*
X49815714Y-139152380D01*
X49720476Y-139200000D01*
X49672857Y-139247619D01*
X49625238Y-139342857D01*
X49625238Y-139580952D01*
X49672857Y-139676190D01*
X49720476Y-139723809D01*
X49815714Y-139771428D01*
X50006190Y-139771428D01*
X50101428Y-139723809D01*
X50149047Y-139676190D01*
X50196666Y-139580952D01*
%TO.C,J10*%
X71580476Y-144232380D02*
X71580476Y-144946666D01*
X71532857Y-145089523D01*
X71437619Y-145184761D01*
X71294761Y-145232380D01*
X71199523Y-145232380D01*
X72580476Y-145232380D02*
X72009047Y-145232380D01*
X72294761Y-145232380D02*
X72294761Y-144232380D01*
X72199523Y-144375238D01*
X72104285Y-144470476D01*
X72009047Y-144518095D01*
X73199523Y-144232380D02*
X73294761Y-144232380D01*
X73390000Y-144280000D01*
X73437619Y-144327619D01*
X73485238Y-144422857D01*
X73532857Y-144613333D01*
X73532857Y-144851428D01*
X73485238Y-145041904D01*
X73437619Y-145137142D01*
X73390000Y-145184761D01*
X73294761Y-145232380D01*
X73199523Y-145232380D01*
X73104285Y-145184761D01*
X73056666Y-145137142D01*
X73009047Y-145041904D01*
X72961428Y-144851428D01*
X72961428Y-144613333D01*
X73009047Y-144422857D01*
X73056666Y-144327619D01*
X73104285Y-144280000D01*
X73199523Y-144232380D01*
%TO.C,J5*%
X37966666Y-135342380D02*
X37966666Y-136056666D01*
X37919047Y-136199523D01*
X37823809Y-136294761D01*
X37680952Y-136342380D01*
X37585714Y-136342380D01*
X38919047Y-135342380D02*
X38442857Y-135342380D01*
X38395238Y-135818571D01*
X38442857Y-135770952D01*
X38538095Y-135723333D01*
X38776190Y-135723333D01*
X38871428Y-135770952D01*
X38919047Y-135818571D01*
X38966666Y-135913809D01*
X38966666Y-136151904D01*
X38919047Y-136247142D01*
X38871428Y-136294761D01*
X38776190Y-136342380D01*
X38538095Y-136342380D01*
X38442857Y-136294761D01*
X38395238Y-136247142D01*
%TO.C,J4*%
X37966666Y-149312380D02*
X37966666Y-150026666D01*
X37919047Y-150169523D01*
X37823809Y-150264761D01*
X37680952Y-150312380D01*
X37585714Y-150312380D01*
X38871428Y-149645714D02*
X38871428Y-150312380D01*
X38633333Y-149264761D02*
X38395238Y-149979047D01*
X39014285Y-149979047D01*
%TO.C,J19*%
X57610476Y-113752380D02*
X57610476Y-114466666D01*
X57562857Y-114609523D01*
X57467619Y-114704761D01*
X57324761Y-114752380D01*
X57229523Y-114752380D01*
X58610476Y-114752380D02*
X58039047Y-114752380D01*
X58324761Y-114752380D02*
X58324761Y-113752380D01*
X58229523Y-113895238D01*
X58134285Y-113990476D01*
X58039047Y-114038095D01*
X59086666Y-114752380D02*
X59277142Y-114752380D01*
X59372380Y-114704761D01*
X59420000Y-114657142D01*
X59515238Y-114514285D01*
X59562857Y-114323809D01*
X59562857Y-113942857D01*
X59515238Y-113847619D01*
X59467619Y-113800000D01*
X59372380Y-113752380D01*
X59181904Y-113752380D01*
X59086666Y-113800000D01*
X59039047Y-113847619D01*
X58991428Y-113942857D01*
X58991428Y-114180952D01*
X59039047Y-114276190D01*
X59086666Y-114323809D01*
X59181904Y-114371428D01*
X59372380Y-114371428D01*
X59467619Y-114323809D01*
X59515238Y-114276190D01*
X59562857Y-114180952D01*
%TO.C,J20*%
X60150476Y-113752380D02*
X60150476Y-114466666D01*
X60102857Y-114609523D01*
X60007619Y-114704761D01*
X59864761Y-114752380D01*
X59769523Y-114752380D01*
X60579047Y-113847619D02*
X60626666Y-113800000D01*
X60721904Y-113752380D01*
X60960000Y-113752380D01*
X61055238Y-113800000D01*
X61102857Y-113847619D01*
X61150476Y-113942857D01*
X61150476Y-114038095D01*
X61102857Y-114180952D01*
X60531428Y-114752380D01*
X61150476Y-114752380D01*
X61769523Y-113752380D02*
X61864761Y-113752380D01*
X61960000Y-113800000D01*
X62007619Y-113847619D01*
X62055238Y-113942857D01*
X62102857Y-114133333D01*
X62102857Y-114371428D01*
X62055238Y-114561904D01*
X62007619Y-114657142D01*
X61960000Y-114704761D01*
X61864761Y-114752380D01*
X61769523Y-114752380D01*
X61674285Y-114704761D01*
X61626666Y-114657142D01*
X61579047Y-114561904D01*
X61531428Y-114371428D01*
X61531428Y-114133333D01*
X61579047Y-113942857D01*
X61626666Y-113847619D01*
X61674285Y-113800000D01*
X61769523Y-113752380D01*
%TO.C,J21*%
X62690476Y-113752380D02*
X62690476Y-114466666D01*
X62642857Y-114609523D01*
X62547619Y-114704761D01*
X62404761Y-114752380D01*
X62309523Y-114752380D01*
X63119047Y-113847619D02*
X63166666Y-113800000D01*
X63261904Y-113752380D01*
X63500000Y-113752380D01*
X63595238Y-113800000D01*
X63642857Y-113847619D01*
X63690476Y-113942857D01*
X63690476Y-114038095D01*
X63642857Y-114180952D01*
X63071428Y-114752380D01*
X63690476Y-114752380D01*
X64642857Y-114752380D02*
X64071428Y-114752380D01*
X64357142Y-114752380D02*
X64357142Y-113752380D01*
X64261904Y-113895238D01*
X64166666Y-113990476D01*
X64071428Y-114038095D01*
%TO.C,R2*%
X51252380Y-118276666D02*
X50776190Y-118610000D01*
X51252380Y-118848095D02*
X50252380Y-118848095D01*
X50252380Y-118467142D01*
X50300000Y-118371904D01*
X50347619Y-118324285D01*
X50442857Y-118276666D01*
X50585714Y-118276666D01*
X50680952Y-118324285D01*
X50728571Y-118371904D01*
X50776190Y-118467142D01*
X50776190Y-118848095D01*
X50347619Y-117895714D02*
X50300000Y-117848095D01*
X50252380Y-117752857D01*
X50252380Y-117514761D01*
X50300000Y-117419523D01*
X50347619Y-117371904D01*
X50442857Y-117324285D01*
X50538095Y-117324285D01*
X50680952Y-117371904D01*
X51252380Y-117943333D01*
X51252380Y-117324285D01*
%TO.C,R8*%
X56332380Y-119546666D02*
X55856190Y-119880000D01*
X56332380Y-120118095D02*
X55332380Y-120118095D01*
X55332380Y-119737142D01*
X55380000Y-119641904D01*
X55427619Y-119594285D01*
X55522857Y-119546666D01*
X55665714Y-119546666D01*
X55760952Y-119594285D01*
X55808571Y-119641904D01*
X55856190Y-119737142D01*
X55856190Y-120118095D01*
X55760952Y-118975238D02*
X55713333Y-119070476D01*
X55665714Y-119118095D01*
X55570476Y-119165714D01*
X55522857Y-119165714D01*
X55427619Y-119118095D01*
X55380000Y-119070476D01*
X55332380Y-118975238D01*
X55332380Y-118784761D01*
X55380000Y-118689523D01*
X55427619Y-118641904D01*
X55522857Y-118594285D01*
X55570476Y-118594285D01*
X55665714Y-118641904D01*
X55713333Y-118689523D01*
X55760952Y-118784761D01*
X55760952Y-118975238D01*
X55808571Y-119070476D01*
X55856190Y-119118095D01*
X55951428Y-119165714D01*
X56141904Y-119165714D01*
X56237142Y-119118095D01*
X56284761Y-119070476D01*
X56332380Y-118975238D01*
X56332380Y-118784761D01*
X56284761Y-118689523D01*
X56237142Y-118641904D01*
X56141904Y-118594285D01*
X55951428Y-118594285D01*
X55856190Y-118641904D01*
X55808571Y-118689523D01*
X55760952Y-118784761D01*
%TO.C,R50*%
X50157142Y-132532380D02*
X49823809Y-132056190D01*
X49585714Y-132532380D02*
X49585714Y-131532380D01*
X49966666Y-131532380D01*
X50061904Y-131580000D01*
X50109523Y-131627619D01*
X50157142Y-131722857D01*
X50157142Y-131865714D01*
X50109523Y-131960952D01*
X50061904Y-132008571D01*
X49966666Y-132056190D01*
X49585714Y-132056190D01*
X51061904Y-131532380D02*
X50585714Y-131532380D01*
X50538095Y-132008571D01*
X50585714Y-131960952D01*
X50680952Y-131913333D01*
X50919047Y-131913333D01*
X51014285Y-131960952D01*
X51061904Y-132008571D01*
X51109523Y-132103809D01*
X51109523Y-132341904D01*
X51061904Y-132437142D01*
X51014285Y-132484761D01*
X50919047Y-132532380D01*
X50680952Y-132532380D01*
X50585714Y-132484761D01*
X50538095Y-132437142D01*
X51728571Y-131532380D02*
X51823809Y-131532380D01*
X51919047Y-131580000D01*
X51966666Y-131627619D01*
X52014285Y-131722857D01*
X52061904Y-131913333D01*
X52061904Y-132151428D01*
X52014285Y-132341904D01*
X51966666Y-132437142D01*
X51919047Y-132484761D01*
X51823809Y-132532380D01*
X51728571Y-132532380D01*
X51633333Y-132484761D01*
X51585714Y-132437142D01*
X51538095Y-132341904D01*
X51490476Y-132151428D01*
X51490476Y-131913333D01*
X51538095Y-131722857D01*
X51585714Y-131627619D01*
X51633333Y-131580000D01*
X51728571Y-131532380D01*
%TO.C,R16*%
X63952380Y-118752857D02*
X63476190Y-119086190D01*
X63952380Y-119324285D02*
X62952380Y-119324285D01*
X62952380Y-118943333D01*
X63000000Y-118848095D01*
X63047619Y-118800476D01*
X63142857Y-118752857D01*
X63285714Y-118752857D01*
X63380952Y-118800476D01*
X63428571Y-118848095D01*
X63476190Y-118943333D01*
X63476190Y-119324285D01*
X63952380Y-117800476D02*
X63952380Y-118371904D01*
X63952380Y-118086190D02*
X62952380Y-118086190D01*
X63095238Y-118181428D01*
X63190476Y-118276666D01*
X63238095Y-118371904D01*
X62952380Y-116943333D02*
X62952380Y-117133809D01*
X63000000Y-117229047D01*
X63047619Y-117276666D01*
X63190476Y-117371904D01*
X63380952Y-117419523D01*
X63761904Y-117419523D01*
X63857142Y-117371904D01*
X63904761Y-117324285D01*
X63952380Y-117229047D01*
X63952380Y-117038571D01*
X63904761Y-116943333D01*
X63857142Y-116895714D01*
X63761904Y-116848095D01*
X63523809Y-116848095D01*
X63428571Y-116895714D01*
X63380952Y-116943333D01*
X63333333Y-117038571D01*
X63333333Y-117229047D01*
X63380952Y-117324285D01*
X63428571Y-117371904D01*
X63523809Y-117419523D01*
%TO.C,R38*%
X55062380Y-126372857D02*
X54586190Y-126706190D01*
X55062380Y-126944285D02*
X54062380Y-126944285D01*
X54062380Y-126563333D01*
X54110000Y-126468095D01*
X54157619Y-126420476D01*
X54252857Y-126372857D01*
X54395714Y-126372857D01*
X54490952Y-126420476D01*
X54538571Y-126468095D01*
X54586190Y-126563333D01*
X54586190Y-126944285D01*
X54062380Y-126039523D02*
X54062380Y-125420476D01*
X54443333Y-125753809D01*
X54443333Y-125610952D01*
X54490952Y-125515714D01*
X54538571Y-125468095D01*
X54633809Y-125420476D01*
X54871904Y-125420476D01*
X54967142Y-125468095D01*
X55014761Y-125515714D01*
X55062380Y-125610952D01*
X55062380Y-125896666D01*
X55014761Y-125991904D01*
X54967142Y-126039523D01*
X54490952Y-124849047D02*
X54443333Y-124944285D01*
X54395714Y-124991904D01*
X54300476Y-125039523D01*
X54252857Y-125039523D01*
X54157619Y-124991904D01*
X54110000Y-124944285D01*
X54062380Y-124849047D01*
X54062380Y-124658571D01*
X54110000Y-124563333D01*
X54157619Y-124515714D01*
X54252857Y-124468095D01*
X54300476Y-124468095D01*
X54395714Y-124515714D01*
X54443333Y-124563333D01*
X54490952Y-124658571D01*
X54490952Y-124849047D01*
X54538571Y-124944285D01*
X54586190Y-124991904D01*
X54681428Y-125039523D01*
X54871904Y-125039523D01*
X54967142Y-124991904D01*
X55014761Y-124944285D01*
X55062380Y-124849047D01*
X55062380Y-124658571D01*
X55014761Y-124563333D01*
X54967142Y-124515714D01*
X54871904Y-124468095D01*
X54681428Y-124468095D01*
X54586190Y-124515714D01*
X54538571Y-124563333D01*
X54490952Y-124658571D01*
%TO.C,R11*%
X72842380Y-137802857D02*
X72366190Y-138136190D01*
X72842380Y-138374285D02*
X71842380Y-138374285D01*
X71842380Y-137993333D01*
X71890000Y-137898095D01*
X71937619Y-137850476D01*
X72032857Y-137802857D01*
X72175714Y-137802857D01*
X72270952Y-137850476D01*
X72318571Y-137898095D01*
X72366190Y-137993333D01*
X72366190Y-138374285D01*
X72842380Y-136850476D02*
X72842380Y-137421904D01*
X72842380Y-137136190D02*
X71842380Y-137136190D01*
X71985238Y-137231428D01*
X72080476Y-137326666D01*
X72128095Y-137421904D01*
X72842380Y-135898095D02*
X72842380Y-136469523D01*
X72842380Y-136183809D02*
X71842380Y-136183809D01*
X71985238Y-136279047D01*
X72080476Y-136374285D01*
X72128095Y-136469523D01*
%TO.C,R4*%
X72842380Y-124626666D02*
X72366190Y-124960000D01*
X72842380Y-125198095D02*
X71842380Y-125198095D01*
X71842380Y-124817142D01*
X71890000Y-124721904D01*
X71937619Y-124674285D01*
X72032857Y-124626666D01*
X72175714Y-124626666D01*
X72270952Y-124674285D01*
X72318571Y-124721904D01*
X72366190Y-124817142D01*
X72366190Y-125198095D01*
X72175714Y-123769523D02*
X72842380Y-123769523D01*
X71794761Y-124007619D02*
X72509047Y-124245714D01*
X72509047Y-123626666D01*
%TO.C,R25*%
X67937142Y-129992380D02*
X67603809Y-129516190D01*
X67365714Y-129992380D02*
X67365714Y-128992380D01*
X67746666Y-128992380D01*
X67841904Y-129040000D01*
X67889523Y-129087619D01*
X67937142Y-129182857D01*
X67937142Y-129325714D01*
X67889523Y-129420952D01*
X67841904Y-129468571D01*
X67746666Y-129516190D01*
X67365714Y-129516190D01*
X68318095Y-129087619D02*
X68365714Y-129040000D01*
X68460952Y-128992380D01*
X68699047Y-128992380D01*
X68794285Y-129040000D01*
X68841904Y-129087619D01*
X68889523Y-129182857D01*
X68889523Y-129278095D01*
X68841904Y-129420952D01*
X68270476Y-129992380D01*
X68889523Y-129992380D01*
X69794285Y-128992380D02*
X69318095Y-128992380D01*
X69270476Y-129468571D01*
X69318095Y-129420952D01*
X69413333Y-129373333D01*
X69651428Y-129373333D01*
X69746666Y-129420952D01*
X69794285Y-129468571D01*
X69841904Y-129563809D01*
X69841904Y-129801904D01*
X69794285Y-129897142D01*
X69746666Y-129944761D01*
X69651428Y-129992380D01*
X69413333Y-129992380D01*
X69318095Y-129944761D01*
X69270476Y-129897142D01*
%TO.C,R26*%
X70302380Y-126372857D02*
X69826190Y-126706190D01*
X70302380Y-126944285D02*
X69302380Y-126944285D01*
X69302380Y-126563333D01*
X69350000Y-126468095D01*
X69397619Y-126420476D01*
X69492857Y-126372857D01*
X69635714Y-126372857D01*
X69730952Y-126420476D01*
X69778571Y-126468095D01*
X69826190Y-126563333D01*
X69826190Y-126944285D01*
X69397619Y-125991904D02*
X69350000Y-125944285D01*
X69302380Y-125849047D01*
X69302380Y-125610952D01*
X69350000Y-125515714D01*
X69397619Y-125468095D01*
X69492857Y-125420476D01*
X69588095Y-125420476D01*
X69730952Y-125468095D01*
X70302380Y-126039523D01*
X70302380Y-125420476D01*
X69302380Y-124563333D02*
X69302380Y-124753809D01*
X69350000Y-124849047D01*
X69397619Y-124896666D01*
X69540476Y-124991904D01*
X69730952Y-125039523D01*
X70111904Y-125039523D01*
X70207142Y-124991904D01*
X70254761Y-124944285D01*
X70302380Y-124849047D01*
X70302380Y-124658571D01*
X70254761Y-124563333D01*
X70207142Y-124515714D01*
X70111904Y-124468095D01*
X69873809Y-124468095D01*
X69778571Y-124515714D01*
X69730952Y-124563333D01*
X69683333Y-124658571D01*
X69683333Y-124849047D01*
X69730952Y-124944285D01*
X69778571Y-124991904D01*
X69873809Y-125039523D01*
%TO.C,R10*%
X75382380Y-137802857D02*
X74906190Y-138136190D01*
X75382380Y-138374285D02*
X74382380Y-138374285D01*
X74382380Y-137993333D01*
X74430000Y-137898095D01*
X74477619Y-137850476D01*
X74572857Y-137802857D01*
X74715714Y-137802857D01*
X74810952Y-137850476D01*
X74858571Y-137898095D01*
X74906190Y-137993333D01*
X74906190Y-138374285D01*
X75382380Y-136850476D02*
X75382380Y-137421904D01*
X75382380Y-137136190D02*
X74382380Y-137136190D01*
X74525238Y-137231428D01*
X74620476Y-137326666D01*
X74668095Y-137421904D01*
X74382380Y-136231428D02*
X74382380Y-136136190D01*
X74430000Y-136040952D01*
X74477619Y-135993333D01*
X74572857Y-135945714D01*
X74763333Y-135898095D01*
X75001428Y-135898095D01*
X75191904Y-135945714D01*
X75287142Y-135993333D01*
X75334761Y-136040952D01*
X75382380Y-136136190D01*
X75382380Y-136231428D01*
X75334761Y-136326666D01*
X75287142Y-136374285D01*
X75191904Y-136421904D01*
X75001428Y-136469523D01*
X74763333Y-136469523D01*
X74572857Y-136421904D01*
X74477619Y-136374285D01*
X74430000Y-136326666D01*
X74382380Y-136231428D01*
%TO.C,R40*%
X51427142Y-137612380D02*
X51093809Y-137136190D01*
X50855714Y-137612380D02*
X50855714Y-136612380D01*
X51236666Y-136612380D01*
X51331904Y-136660000D01*
X51379523Y-136707619D01*
X51427142Y-136802857D01*
X51427142Y-136945714D01*
X51379523Y-137040952D01*
X51331904Y-137088571D01*
X51236666Y-137136190D01*
X50855714Y-137136190D01*
X52284285Y-136945714D02*
X52284285Y-137612380D01*
X52046190Y-136564761D02*
X51808095Y-137279047D01*
X52427142Y-137279047D01*
X52998571Y-136612380D02*
X53093809Y-136612380D01*
X53189047Y-136660000D01*
X53236666Y-136707619D01*
X53284285Y-136802857D01*
X53331904Y-136993333D01*
X53331904Y-137231428D01*
X53284285Y-137421904D01*
X53236666Y-137517142D01*
X53189047Y-137564761D01*
X53093809Y-137612380D01*
X52998571Y-137612380D01*
X52903333Y-137564761D01*
X52855714Y-137517142D01*
X52808095Y-137421904D01*
X52760476Y-137231428D01*
X52760476Y-136993333D01*
X52808095Y-136802857D01*
X52855714Y-136707619D01*
X52903333Y-136660000D01*
X52998571Y-136612380D01*
%TO.C,R17*%
X67762380Y-125102857D02*
X67286190Y-125436190D01*
X67762380Y-125674285D02*
X66762380Y-125674285D01*
X66762380Y-125293333D01*
X66810000Y-125198095D01*
X66857619Y-125150476D01*
X66952857Y-125102857D01*
X67095714Y-125102857D01*
X67190952Y-125150476D01*
X67238571Y-125198095D01*
X67286190Y-125293333D01*
X67286190Y-125674285D01*
X67762380Y-124150476D02*
X67762380Y-124721904D01*
X67762380Y-124436190D02*
X66762380Y-124436190D01*
X66905238Y-124531428D01*
X67000476Y-124626666D01*
X67048095Y-124721904D01*
X66762380Y-123817142D02*
X66762380Y-123150476D01*
X67762380Y-123579047D01*
%TO.C,R19*%
X61412380Y-120022857D02*
X60936190Y-120356190D01*
X61412380Y-120594285D02*
X60412380Y-120594285D01*
X60412380Y-120213333D01*
X60460000Y-120118095D01*
X60507619Y-120070476D01*
X60602857Y-120022857D01*
X60745714Y-120022857D01*
X60840952Y-120070476D01*
X60888571Y-120118095D01*
X60936190Y-120213333D01*
X60936190Y-120594285D01*
X61412380Y-119070476D02*
X61412380Y-119641904D01*
X61412380Y-119356190D02*
X60412380Y-119356190D01*
X60555238Y-119451428D01*
X60650476Y-119546666D01*
X60698095Y-119641904D01*
X61412380Y-118594285D02*
X61412380Y-118403809D01*
X61364761Y-118308571D01*
X61317142Y-118260952D01*
X61174285Y-118165714D01*
X60983809Y-118118095D01*
X60602857Y-118118095D01*
X60507619Y-118165714D01*
X60460000Y-118213333D01*
X60412380Y-118308571D01*
X60412380Y-118499047D01*
X60460000Y-118594285D01*
X60507619Y-118641904D01*
X60602857Y-118689523D01*
X60840952Y-118689523D01*
X60936190Y-118641904D01*
X60983809Y-118594285D01*
X61031428Y-118499047D01*
X61031428Y-118308571D01*
X60983809Y-118213333D01*
X60936190Y-118165714D01*
X60840952Y-118118095D01*
%TO.C,R39*%
X51427142Y-129992380D02*
X51093809Y-129516190D01*
X50855714Y-129992380D02*
X50855714Y-128992380D01*
X51236666Y-128992380D01*
X51331904Y-129040000D01*
X51379523Y-129087619D01*
X51427142Y-129182857D01*
X51427142Y-129325714D01*
X51379523Y-129420952D01*
X51331904Y-129468571D01*
X51236666Y-129516190D01*
X50855714Y-129516190D01*
X51760476Y-128992380D02*
X52379523Y-128992380D01*
X52046190Y-129373333D01*
X52189047Y-129373333D01*
X52284285Y-129420952D01*
X52331904Y-129468571D01*
X52379523Y-129563809D01*
X52379523Y-129801904D01*
X52331904Y-129897142D01*
X52284285Y-129944761D01*
X52189047Y-129992380D01*
X51903333Y-129992380D01*
X51808095Y-129944761D01*
X51760476Y-129897142D01*
X52855714Y-129992380D02*
X53046190Y-129992380D01*
X53141428Y-129944761D01*
X53189047Y-129897142D01*
X53284285Y-129754285D01*
X53331904Y-129563809D01*
X53331904Y-129182857D01*
X53284285Y-129087619D01*
X53236666Y-129040000D01*
X53141428Y-128992380D01*
X52950952Y-128992380D01*
X52855714Y-129040000D01*
X52808095Y-129087619D01*
X52760476Y-129182857D01*
X52760476Y-129420952D01*
X52808095Y-129516190D01*
X52855714Y-129563809D01*
X52950952Y-129611428D01*
X53141428Y-129611428D01*
X53236666Y-129563809D01*
X53284285Y-129516190D01*
X53331904Y-129420952D01*
%TO.C,R46*%
X67937142Y-132532380D02*
X67603809Y-132056190D01*
X67365714Y-132532380D02*
X67365714Y-131532380D01*
X67746666Y-131532380D01*
X67841904Y-131580000D01*
X67889523Y-131627619D01*
X67937142Y-131722857D01*
X67937142Y-131865714D01*
X67889523Y-131960952D01*
X67841904Y-132008571D01*
X67746666Y-132056190D01*
X67365714Y-132056190D01*
X68794285Y-131865714D02*
X68794285Y-132532380D01*
X68556190Y-131484761D02*
X68318095Y-132199047D01*
X68937142Y-132199047D01*
X69746666Y-131532380D02*
X69556190Y-131532380D01*
X69460952Y-131580000D01*
X69413333Y-131627619D01*
X69318095Y-131770476D01*
X69270476Y-131960952D01*
X69270476Y-132341904D01*
X69318095Y-132437142D01*
X69365714Y-132484761D01*
X69460952Y-132532380D01*
X69651428Y-132532380D01*
X69746666Y-132484761D01*
X69794285Y-132437142D01*
X69841904Y-132341904D01*
X69841904Y-132103809D01*
X69794285Y-132008571D01*
X69746666Y-131960952D01*
X69651428Y-131913333D01*
X69460952Y-131913333D01*
X69365714Y-131960952D01*
X69318095Y-132008571D01*
X69270476Y-132103809D01*
%TO.C,R12*%
X70302380Y-136532857D02*
X69826190Y-136866190D01*
X70302380Y-137104285D02*
X69302380Y-137104285D01*
X69302380Y-136723333D01*
X69350000Y-136628095D01*
X69397619Y-136580476D01*
X69492857Y-136532857D01*
X69635714Y-136532857D01*
X69730952Y-136580476D01*
X69778571Y-136628095D01*
X69826190Y-136723333D01*
X69826190Y-137104285D01*
X70302380Y-135580476D02*
X70302380Y-136151904D01*
X70302380Y-135866190D02*
X69302380Y-135866190D01*
X69445238Y-135961428D01*
X69540476Y-136056666D01*
X69588095Y-136151904D01*
X69397619Y-135199523D02*
X69350000Y-135151904D01*
X69302380Y-135056666D01*
X69302380Y-134818571D01*
X69350000Y-134723333D01*
X69397619Y-134675714D01*
X69492857Y-134628095D01*
X69588095Y-134628095D01*
X69730952Y-134675714D01*
X70302380Y-135247142D01*
X70302380Y-134628095D01*
%TO.C,R48*%
X51427142Y-135072380D02*
X51093809Y-134596190D01*
X50855714Y-135072380D02*
X50855714Y-134072380D01*
X51236666Y-134072380D01*
X51331904Y-134120000D01*
X51379523Y-134167619D01*
X51427142Y-134262857D01*
X51427142Y-134405714D01*
X51379523Y-134500952D01*
X51331904Y-134548571D01*
X51236666Y-134596190D01*
X50855714Y-134596190D01*
X52284285Y-134405714D02*
X52284285Y-135072380D01*
X52046190Y-134024761D02*
X51808095Y-134739047D01*
X52427142Y-134739047D01*
X52950952Y-134500952D02*
X52855714Y-134453333D01*
X52808095Y-134405714D01*
X52760476Y-134310476D01*
X52760476Y-134262857D01*
X52808095Y-134167619D01*
X52855714Y-134120000D01*
X52950952Y-134072380D01*
X53141428Y-134072380D01*
X53236666Y-134120000D01*
X53284285Y-134167619D01*
X53331904Y-134262857D01*
X53331904Y-134310476D01*
X53284285Y-134405714D01*
X53236666Y-134453333D01*
X53141428Y-134500952D01*
X52950952Y-134500952D01*
X52855714Y-134548571D01*
X52808095Y-134596190D01*
X52760476Y-134691428D01*
X52760476Y-134881904D01*
X52808095Y-134977142D01*
X52855714Y-135024761D01*
X52950952Y-135072380D01*
X53141428Y-135072380D01*
X53236666Y-135024761D01*
X53284285Y-134977142D01*
X53331904Y-134881904D01*
X53331904Y-134691428D01*
X53284285Y-134596190D01*
X53236666Y-134548571D01*
X53141428Y-134500952D01*
%TO.C,RV5*%
X52522380Y-144105238D02*
X52046190Y-144438571D01*
X52522380Y-144676666D02*
X51522380Y-144676666D01*
X51522380Y-144295714D01*
X51570000Y-144200476D01*
X51617619Y-144152857D01*
X51712857Y-144105238D01*
X51855714Y-144105238D01*
X51950952Y-144152857D01*
X51998571Y-144200476D01*
X52046190Y-144295714D01*
X52046190Y-144676666D01*
X51522380Y-143819523D02*
X52522380Y-143486190D01*
X51522380Y-143152857D01*
X51522380Y-142343333D02*
X51522380Y-142819523D01*
X51998571Y-142867142D01*
X51950952Y-142819523D01*
X51903333Y-142724285D01*
X51903333Y-142486190D01*
X51950952Y-142390952D01*
X51998571Y-142343333D01*
X52093809Y-142295714D01*
X52331904Y-142295714D01*
X52427142Y-142343333D01*
X52474761Y-142390952D01*
X52522380Y-142486190D01*
X52522380Y-142724285D01*
X52474761Y-142819523D01*
X52427142Y-142867142D01*
%TO.C,RV9*%
X50204761Y-124912380D02*
X49871428Y-124436190D01*
X49633333Y-124912380D02*
X49633333Y-123912380D01*
X50014285Y-123912380D01*
X50109523Y-123960000D01*
X50157142Y-124007619D01*
X50204761Y-124102857D01*
X50204761Y-124245714D01*
X50157142Y-124340952D01*
X50109523Y-124388571D01*
X50014285Y-124436190D01*
X49633333Y-124436190D01*
X50490476Y-123912380D02*
X50823809Y-124912380D01*
X51157142Y-123912380D01*
X51538095Y-124912380D02*
X51728571Y-124912380D01*
X51823809Y-124864761D01*
X51871428Y-124817142D01*
X51966666Y-124674285D01*
X52014285Y-124483809D01*
X52014285Y-124102857D01*
X51966666Y-124007619D01*
X51919047Y-123960000D01*
X51823809Y-123912380D01*
X51633333Y-123912380D01*
X51538095Y-123960000D01*
X51490476Y-124007619D01*
X51442857Y-124102857D01*
X51442857Y-124340952D01*
X51490476Y-124436190D01*
X51538095Y-124483809D01*
X51633333Y-124531428D01*
X51823809Y-124531428D01*
X51919047Y-124483809D01*
X51966666Y-124436190D01*
X52014285Y-124340952D01*
%TO.C,RV7*%
X70302380Y-117435238D02*
X69826190Y-117768571D01*
X70302380Y-118006666D02*
X69302380Y-118006666D01*
X69302380Y-117625714D01*
X69350000Y-117530476D01*
X69397619Y-117482857D01*
X69492857Y-117435238D01*
X69635714Y-117435238D01*
X69730952Y-117482857D01*
X69778571Y-117530476D01*
X69826190Y-117625714D01*
X69826190Y-118006666D01*
X69302380Y-117149523D02*
X70302380Y-116816190D01*
X69302380Y-116482857D01*
X69302380Y-116244761D02*
X69302380Y-115578095D01*
X70302380Y-116006666D01*
%TO.C,C2*%
X70207142Y-141136666D02*
X70254761Y-141184285D01*
X70302380Y-141327142D01*
X70302380Y-141422380D01*
X70254761Y-141565238D01*
X70159523Y-141660476D01*
X70064285Y-141708095D01*
X69873809Y-141755714D01*
X69730952Y-141755714D01*
X69540476Y-141708095D01*
X69445238Y-141660476D01*
X69350000Y-141565238D01*
X69302380Y-141422380D01*
X69302380Y-141327142D01*
X69350000Y-141184285D01*
X69397619Y-141136666D01*
X69397619Y-140755714D02*
X69350000Y-140708095D01*
X69302380Y-140612857D01*
X69302380Y-140374761D01*
X69350000Y-140279523D01*
X69397619Y-140231904D01*
X69492857Y-140184285D01*
X69588095Y-140184285D01*
X69730952Y-140231904D01*
X70302380Y-140803333D01*
X70302380Y-140184285D01*
%TO.C,C3*%
X68413333Y-145137142D02*
X68365714Y-145184761D01*
X68222857Y-145232380D01*
X68127619Y-145232380D01*
X67984761Y-145184761D01*
X67889523Y-145089523D01*
X67841904Y-144994285D01*
X67794285Y-144803809D01*
X67794285Y-144660952D01*
X67841904Y-144470476D01*
X67889523Y-144375238D01*
X67984761Y-144280000D01*
X68127619Y-144232380D01*
X68222857Y-144232380D01*
X68365714Y-144280000D01*
X68413333Y-144327619D01*
X68746666Y-144232380D02*
X69365714Y-144232380D01*
X69032380Y-144613333D01*
X69175238Y-144613333D01*
X69270476Y-144660952D01*
X69318095Y-144708571D01*
X69365714Y-144803809D01*
X69365714Y-145041904D01*
X69318095Y-145137142D01*
X69270476Y-145184761D01*
X69175238Y-145232380D01*
X68889523Y-145232380D01*
X68794285Y-145184761D01*
X68746666Y-145137142D01*
%TO.C,C7*%
X53173333Y-140057142D02*
X53125714Y-140104761D01*
X52982857Y-140152380D01*
X52887619Y-140152380D01*
X52744761Y-140104761D01*
X52649523Y-140009523D01*
X52601904Y-139914285D01*
X52554285Y-139723809D01*
X52554285Y-139580952D01*
X52601904Y-139390476D01*
X52649523Y-139295238D01*
X52744761Y-139200000D01*
X52887619Y-139152380D01*
X52982857Y-139152380D01*
X53125714Y-139200000D01*
X53173333Y-139247619D01*
X53506666Y-139152380D02*
X54173333Y-139152380D01*
X53744761Y-140152380D01*
%TO.C,C9*%
X72747142Y-130976666D02*
X72794761Y-131024285D01*
X72842380Y-131167142D01*
X72842380Y-131262380D01*
X72794761Y-131405238D01*
X72699523Y-131500476D01*
X72604285Y-131548095D01*
X72413809Y-131595714D01*
X72270952Y-131595714D01*
X72080476Y-131548095D01*
X71985238Y-131500476D01*
X71890000Y-131405238D01*
X71842380Y-131262380D01*
X71842380Y-131167142D01*
X71890000Y-131024285D01*
X71937619Y-130976666D01*
X72842380Y-130500476D02*
X72842380Y-130310000D01*
X72794761Y-130214761D01*
X72747142Y-130167142D01*
X72604285Y-130071904D01*
X72413809Y-130024285D01*
X72032857Y-130024285D01*
X71937619Y-130071904D01*
X71890000Y-130119523D01*
X71842380Y-130214761D01*
X71842380Y-130405238D01*
X71890000Y-130500476D01*
X71937619Y-130548095D01*
X72032857Y-130595714D01*
X72270952Y-130595714D01*
X72366190Y-130548095D01*
X72413809Y-130500476D01*
X72461428Y-130405238D01*
X72461428Y-130214761D01*
X72413809Y-130119523D01*
X72366190Y-130071904D01*
X72270952Y-130024285D01*
%TO.C,C1*%
X73493333Y-142597142D02*
X73445714Y-142644761D01*
X73302857Y-142692380D01*
X73207619Y-142692380D01*
X73064761Y-142644761D01*
X72969523Y-142549523D01*
X72921904Y-142454285D01*
X72874285Y-142263809D01*
X72874285Y-142120952D01*
X72921904Y-141930476D01*
X72969523Y-141835238D01*
X73064761Y-141740000D01*
X73207619Y-141692380D01*
X73302857Y-141692380D01*
X73445714Y-141740000D01*
X73493333Y-141787619D01*
X74445714Y-142692380D02*
X73874285Y-142692380D01*
X74160000Y-142692380D02*
X74160000Y-141692380D01*
X74064761Y-141835238D01*
X73969523Y-141930476D01*
X73874285Y-141978095D01*
%TO.C,J22*%
X64222380Y-153209523D02*
X64936666Y-153209523D01*
X65079523Y-153257142D01*
X65174761Y-153352380D01*
X65222380Y-153495238D01*
X65222380Y-153590476D01*
X64317619Y-152780952D02*
X64270000Y-152733333D01*
X64222380Y-152638095D01*
X64222380Y-152400000D01*
X64270000Y-152304761D01*
X64317619Y-152257142D01*
X64412857Y-152209523D01*
X64508095Y-152209523D01*
X64650952Y-152257142D01*
X65222380Y-152828571D01*
X65222380Y-152209523D01*
X64317619Y-151828571D02*
X64270000Y-151780952D01*
X64222380Y-151685714D01*
X64222380Y-151447619D01*
X64270000Y-151352380D01*
X64317619Y-151304761D01*
X64412857Y-151257142D01*
X64508095Y-151257142D01*
X64650952Y-151304761D01*
X65222380Y-151876190D01*
X65222380Y-151257142D01*
%TO.C,J27*%
X48720476Y-151852380D02*
X48720476Y-152566666D01*
X48672857Y-152709523D01*
X48577619Y-152804761D01*
X48434761Y-152852380D01*
X48339523Y-152852380D01*
X49149047Y-151947619D02*
X49196666Y-151900000D01*
X49291904Y-151852380D01*
X49530000Y-151852380D01*
X49625238Y-151900000D01*
X49672857Y-151947619D01*
X49720476Y-152042857D01*
X49720476Y-152138095D01*
X49672857Y-152280952D01*
X49101428Y-152852380D01*
X49720476Y-152852380D01*
X50053809Y-151852380D02*
X50720476Y-151852380D01*
X50291904Y-152852380D01*
%TO.C,U2*%
X60208095Y-135342380D02*
X60208095Y-136151904D01*
X60255714Y-136247142D01*
X60303333Y-136294761D01*
X60398571Y-136342380D01*
X60589047Y-136342380D01*
X60684285Y-136294761D01*
X60731904Y-136247142D01*
X60779523Y-136151904D01*
X60779523Y-135342380D01*
X61208095Y-135437619D02*
X61255714Y-135390000D01*
X61350952Y-135342380D01*
X61589047Y-135342380D01*
X61684285Y-135390000D01*
X61731904Y-135437619D01*
X61779523Y-135532857D01*
X61779523Y-135628095D01*
X61731904Y-135770952D01*
X61160476Y-136342380D01*
X61779523Y-136342380D01*
%TO.C,R6*%
X58872380Y-118276666D02*
X58396190Y-118610000D01*
X58872380Y-118848095D02*
X57872380Y-118848095D01*
X57872380Y-118467142D01*
X57920000Y-118371904D01*
X57967619Y-118324285D01*
X58062857Y-118276666D01*
X58205714Y-118276666D01*
X58300952Y-118324285D01*
X58348571Y-118371904D01*
X58396190Y-118467142D01*
X58396190Y-118848095D01*
X57872380Y-117419523D02*
X57872380Y-117610000D01*
X57920000Y-117705238D01*
X57967619Y-117752857D01*
X58110476Y-117848095D01*
X58300952Y-117895714D01*
X58681904Y-117895714D01*
X58777142Y-117848095D01*
X58824761Y-117800476D01*
X58872380Y-117705238D01*
X58872380Y-117514761D01*
X58824761Y-117419523D01*
X58777142Y-117371904D01*
X58681904Y-117324285D01*
X58443809Y-117324285D01*
X58348571Y-117371904D01*
X58300952Y-117419523D01*
X58253333Y-117514761D01*
X58253333Y-117705238D01*
X58300952Y-117800476D01*
X58348571Y-117848095D01*
X58443809Y-117895714D01*
%TO.C,J26*%
X105870476Y-151852380D02*
X105870476Y-152566666D01*
X105822857Y-152709523D01*
X105727619Y-152804761D01*
X105584761Y-152852380D01*
X105489523Y-152852380D01*
X106299047Y-151947619D02*
X106346666Y-151900000D01*
X106441904Y-151852380D01*
X106680000Y-151852380D01*
X106775238Y-151900000D01*
X106822857Y-151947619D01*
X106870476Y-152042857D01*
X106870476Y-152138095D01*
X106822857Y-152280952D01*
X106251428Y-152852380D01*
X106870476Y-152852380D01*
X107727619Y-151852380D02*
X107537142Y-151852380D01*
X107441904Y-151900000D01*
X107394285Y-151947619D01*
X107299047Y-152090476D01*
X107251428Y-152280952D01*
X107251428Y-152661904D01*
X107299047Y-152757142D01*
X107346666Y-152804761D01*
X107441904Y-152852380D01*
X107632380Y-152852380D01*
X107727619Y-152804761D01*
X107775238Y-152757142D01*
X107822857Y-152661904D01*
X107822857Y-152423809D01*
X107775238Y-152328571D01*
X107727619Y-152280952D01*
X107632380Y-152233333D01*
X107441904Y-152233333D01*
X107346666Y-152280952D01*
X107299047Y-152328571D01*
X107251428Y-152423809D01*
%TO.C,R58*%
X125087142Y-142692380D02*
X124753809Y-142216190D01*
X124515714Y-142692380D02*
X124515714Y-141692380D01*
X124896666Y-141692380D01*
X124991904Y-141740000D01*
X125039523Y-141787619D01*
X125087142Y-141882857D01*
X125087142Y-142025714D01*
X125039523Y-142120952D01*
X124991904Y-142168571D01*
X124896666Y-142216190D01*
X124515714Y-142216190D01*
X125991904Y-141692380D02*
X125515714Y-141692380D01*
X125468095Y-142168571D01*
X125515714Y-142120952D01*
X125610952Y-142073333D01*
X125849047Y-142073333D01*
X125944285Y-142120952D01*
X125991904Y-142168571D01*
X126039523Y-142263809D01*
X126039523Y-142501904D01*
X125991904Y-142597142D01*
X125944285Y-142644761D01*
X125849047Y-142692380D01*
X125610952Y-142692380D01*
X125515714Y-142644761D01*
X125468095Y-142597142D01*
X126610952Y-142120952D02*
X126515714Y-142073333D01*
X126468095Y-142025714D01*
X126420476Y-141930476D01*
X126420476Y-141882857D01*
X126468095Y-141787619D01*
X126515714Y-141740000D01*
X126610952Y-141692380D01*
X126801428Y-141692380D01*
X126896666Y-141740000D01*
X126944285Y-141787619D01*
X126991904Y-141882857D01*
X126991904Y-141930476D01*
X126944285Y-142025714D01*
X126896666Y-142073333D01*
X126801428Y-142120952D01*
X126610952Y-142120952D01*
X126515714Y-142168571D01*
X126468095Y-142216190D01*
X126420476Y-142311428D01*
X126420476Y-142501904D01*
X126468095Y-142597142D01*
X126515714Y-142644761D01*
X126610952Y-142692380D01*
X126801428Y-142692380D01*
X126896666Y-142644761D01*
X126944285Y-142597142D01*
X126991904Y-142501904D01*
X126991904Y-142311428D01*
X126944285Y-142216190D01*
X126896666Y-142168571D01*
X126801428Y-142120952D01*
%TO.C,J23*%
X121372380Y-153209523D02*
X122086666Y-153209523D01*
X122229523Y-153257142D01*
X122324761Y-153352380D01*
X122372380Y-153495238D01*
X122372380Y-153590476D01*
X121467619Y-152780952D02*
X121420000Y-152733333D01*
X121372380Y-152638095D01*
X121372380Y-152400000D01*
X121420000Y-152304761D01*
X121467619Y-152257142D01*
X121562857Y-152209523D01*
X121658095Y-152209523D01*
X121800952Y-152257142D01*
X122372380Y-152828571D01*
X122372380Y-152209523D01*
X121372380Y-151876190D02*
X121372380Y-151257142D01*
X121753333Y-151590476D01*
X121753333Y-151447619D01*
X121800952Y-151352380D01*
X121848571Y-151304761D01*
X121943809Y-151257142D01*
X122181904Y-151257142D01*
X122277142Y-151304761D01*
X122324761Y-151352380D01*
X122372380Y-151447619D01*
X122372380Y-151733333D01*
X122324761Y-151828571D01*
X122277142Y-151876190D01*
%TO.C,D1*%
X125011904Y-145232380D02*
X125011904Y-144232380D01*
X125250000Y-144232380D01*
X125392857Y-144280000D01*
X125488095Y-144375238D01*
X125535714Y-144470476D01*
X125583333Y-144660952D01*
X125583333Y-144803809D01*
X125535714Y-144994285D01*
X125488095Y-145089523D01*
X125392857Y-145184761D01*
X125250000Y-145232380D01*
X125011904Y-145232380D01*
X126535714Y-145232380D02*
X125964285Y-145232380D01*
X126250000Y-145232380D02*
X126250000Y-144232380D01*
X126154761Y-144375238D01*
X126059523Y-144470476D01*
X125964285Y-144518095D01*
%TO.C,U4*%
X117348095Y-139152380D02*
X117348095Y-139961904D01*
X117395714Y-140057142D01*
X117443333Y-140104761D01*
X117538571Y-140152380D01*
X117729047Y-140152380D01*
X117824285Y-140104761D01*
X117871904Y-140057142D01*
X117919523Y-139961904D01*
X117919523Y-139152380D01*
X118824285Y-139485714D02*
X118824285Y-140152380D01*
X118586190Y-139104761D02*
X118348095Y-139819047D01*
X118967142Y-139819047D01*
%TO.C,U1*%
X117358095Y-117562380D02*
X117358095Y-118371904D01*
X117405714Y-118467142D01*
X117453333Y-118514761D01*
X117548571Y-118562380D01*
X117739047Y-118562380D01*
X117834285Y-118514761D01*
X117881904Y-118467142D01*
X117929523Y-118371904D01*
X117929523Y-117562380D01*
X118929523Y-118562380D02*
X118358095Y-118562380D01*
X118643809Y-118562380D02*
X118643809Y-117562380D01*
X118548571Y-117705238D01*
X118453333Y-117800476D01*
X118358095Y-117848095D01*
%TO.C,SineShapeTrim1*%
X104292904Y-124864261D02*
X104435761Y-124911880D01*
X104673857Y-124911880D01*
X104769095Y-124864261D01*
X104816714Y-124816642D01*
X104864333Y-124721404D01*
X104864333Y-124626166D01*
X104816714Y-124530928D01*
X104769095Y-124483309D01*
X104673857Y-124435690D01*
X104483380Y-124388071D01*
X104388142Y-124340452D01*
X104340523Y-124292833D01*
X104292904Y-124197595D01*
X104292904Y-124102357D01*
X104340523Y-124007119D01*
X104388142Y-123959500D01*
X104483380Y-123911880D01*
X104721476Y-123911880D01*
X104864333Y-123959500D01*
X105292904Y-124911880D02*
X105292904Y-124245214D01*
X105292904Y-123911880D02*
X105245285Y-123959500D01*
X105292904Y-124007119D01*
X105340523Y-123959500D01*
X105292904Y-123911880D01*
X105292904Y-124007119D01*
X105769095Y-124245214D02*
X105769095Y-124911880D01*
X105769095Y-124340452D02*
X105816714Y-124292833D01*
X105911952Y-124245214D01*
X106054809Y-124245214D01*
X106150047Y-124292833D01*
X106197666Y-124388071D01*
X106197666Y-124911880D01*
X107054809Y-124864261D02*
X106959571Y-124911880D01*
X106769095Y-124911880D01*
X106673857Y-124864261D01*
X106626238Y-124769023D01*
X106626238Y-124388071D01*
X106673857Y-124292833D01*
X106769095Y-124245214D01*
X106959571Y-124245214D01*
X107054809Y-124292833D01*
X107102428Y-124388071D01*
X107102428Y-124483309D01*
X106626238Y-124578547D01*
X107483380Y-124864261D02*
X107626238Y-124911880D01*
X107864333Y-124911880D01*
X107959571Y-124864261D01*
X108007190Y-124816642D01*
X108054809Y-124721404D01*
X108054809Y-124626166D01*
X108007190Y-124530928D01*
X107959571Y-124483309D01*
X107864333Y-124435690D01*
X107673857Y-124388071D01*
X107578619Y-124340452D01*
X107531000Y-124292833D01*
X107483380Y-124197595D01*
X107483380Y-124102357D01*
X107531000Y-124007119D01*
X107578619Y-123959500D01*
X107673857Y-123911880D01*
X107911952Y-123911880D01*
X108054809Y-123959500D01*
X108483380Y-124911880D02*
X108483380Y-123911880D01*
X108911952Y-124911880D02*
X108911952Y-124388071D01*
X108864333Y-124292833D01*
X108769095Y-124245214D01*
X108626238Y-124245214D01*
X108531000Y-124292833D01*
X108483380Y-124340452D01*
X109816714Y-124911880D02*
X109816714Y-124388071D01*
X109769095Y-124292833D01*
X109673857Y-124245214D01*
X109483380Y-124245214D01*
X109388142Y-124292833D01*
X109816714Y-124864261D02*
X109721476Y-124911880D01*
X109483380Y-124911880D01*
X109388142Y-124864261D01*
X109340523Y-124769023D01*
X109340523Y-124673785D01*
X109388142Y-124578547D01*
X109483380Y-124530928D01*
X109721476Y-124530928D01*
X109816714Y-124483309D01*
X110292904Y-124245214D02*
X110292904Y-125245214D01*
X110292904Y-124292833D02*
X110388142Y-124245214D01*
X110578619Y-124245214D01*
X110673857Y-124292833D01*
X110721476Y-124340452D01*
X110769095Y-124435690D01*
X110769095Y-124721404D01*
X110721476Y-124816642D01*
X110673857Y-124864261D01*
X110578619Y-124911880D01*
X110388142Y-124911880D01*
X110292904Y-124864261D01*
X111578619Y-124864261D02*
X111483380Y-124911880D01*
X111292904Y-124911880D01*
X111197666Y-124864261D01*
X111150047Y-124769023D01*
X111150047Y-124388071D01*
X111197666Y-124292833D01*
X111292904Y-124245214D01*
X111483380Y-124245214D01*
X111578619Y-124292833D01*
X111626238Y-124388071D01*
X111626238Y-124483309D01*
X111150047Y-124578547D01*
X111911952Y-123911880D02*
X112483380Y-123911880D01*
X112197666Y-124911880D02*
X112197666Y-123911880D01*
X112816714Y-124911880D02*
X112816714Y-124245214D01*
X112816714Y-124435690D02*
X112864333Y-124340452D01*
X112911952Y-124292833D01*
X113007190Y-124245214D01*
X113102428Y-124245214D01*
X113435761Y-124911880D02*
X113435761Y-124245214D01*
X113435761Y-123911880D02*
X113388142Y-123959500D01*
X113435761Y-124007119D01*
X113483380Y-123959500D01*
X113435761Y-123911880D01*
X113435761Y-124007119D01*
X113911952Y-124911880D02*
X113911952Y-124245214D01*
X113911952Y-124340452D02*
X113959571Y-124292833D01*
X114054809Y-124245214D01*
X114197666Y-124245214D01*
X114292904Y-124292833D01*
X114340523Y-124388071D01*
X114340523Y-124911880D01*
X114340523Y-124388071D02*
X114388142Y-124292833D01*
X114483380Y-124245214D01*
X114626238Y-124245214D01*
X114721476Y-124292833D01*
X114769095Y-124388071D01*
X114769095Y-124911880D01*
X115769095Y-124911880D02*
X115197666Y-124911880D01*
X115483380Y-124911880D02*
X115483380Y-123911880D01*
X115388142Y-124054738D01*
X115292904Y-124149976D01*
X115197666Y-124197595D01*
%TO.C,SineLevelTrim1*%
X120349047Y-107084761D02*
X120491904Y-107132380D01*
X120730000Y-107132380D01*
X120825238Y-107084761D01*
X120872857Y-107037142D01*
X120920476Y-106941904D01*
X120920476Y-106846666D01*
X120872857Y-106751428D01*
X120825238Y-106703809D01*
X120730000Y-106656190D01*
X120539523Y-106608571D01*
X120444285Y-106560952D01*
X120396666Y-106513333D01*
X120349047Y-106418095D01*
X120349047Y-106322857D01*
X120396666Y-106227619D01*
X120444285Y-106180000D01*
X120539523Y-106132380D01*
X120777619Y-106132380D01*
X120920476Y-106180000D01*
X121349047Y-107132380D02*
X121349047Y-106465714D01*
X121349047Y-106132380D02*
X121301428Y-106180000D01*
X121349047Y-106227619D01*
X121396666Y-106180000D01*
X121349047Y-106132380D01*
X121349047Y-106227619D01*
X121825238Y-106465714D02*
X121825238Y-107132380D01*
X121825238Y-106560952D02*
X121872857Y-106513333D01*
X121968095Y-106465714D01*
X122110952Y-106465714D01*
X122206190Y-106513333D01*
X122253809Y-106608571D01*
X122253809Y-107132380D01*
X123110952Y-107084761D02*
X123015714Y-107132380D01*
X122825238Y-107132380D01*
X122730000Y-107084761D01*
X122682380Y-106989523D01*
X122682380Y-106608571D01*
X122730000Y-106513333D01*
X122825238Y-106465714D01*
X123015714Y-106465714D01*
X123110952Y-106513333D01*
X123158571Y-106608571D01*
X123158571Y-106703809D01*
X122682380Y-106799047D01*
X124063333Y-107132380D02*
X123587142Y-107132380D01*
X123587142Y-106132380D01*
X124777619Y-107084761D02*
X124682380Y-107132380D01*
X124491904Y-107132380D01*
X124396666Y-107084761D01*
X124349047Y-106989523D01*
X124349047Y-106608571D01*
X124396666Y-106513333D01*
X124491904Y-106465714D01*
X124682380Y-106465714D01*
X124777619Y-106513333D01*
X124825238Y-106608571D01*
X124825238Y-106703809D01*
X124349047Y-106799047D01*
X125158571Y-106465714D02*
X125396666Y-107132380D01*
X125634761Y-106465714D01*
X126396666Y-107084761D02*
X126301428Y-107132380D01*
X126110952Y-107132380D01*
X126015714Y-107084761D01*
X125968095Y-106989523D01*
X125968095Y-106608571D01*
X126015714Y-106513333D01*
X126110952Y-106465714D01*
X126301428Y-106465714D01*
X126396666Y-106513333D01*
X126444285Y-106608571D01*
X126444285Y-106703809D01*
X125968095Y-106799047D01*
X127015714Y-107132380D02*
X126920476Y-107084761D01*
X126872857Y-106989523D01*
X126872857Y-106132380D01*
X127253809Y-106132380D02*
X127825238Y-106132380D01*
X127539523Y-107132380D02*
X127539523Y-106132380D01*
X128158571Y-107132380D02*
X128158571Y-106465714D01*
X128158571Y-106656190D02*
X128206190Y-106560952D01*
X128253809Y-106513333D01*
X128349047Y-106465714D01*
X128444285Y-106465714D01*
X128777619Y-107132380D02*
X128777619Y-106465714D01*
X128777619Y-106132380D02*
X128730000Y-106180000D01*
X128777619Y-106227619D01*
X128825238Y-106180000D01*
X128777619Y-106132380D01*
X128777619Y-106227619D01*
X129253809Y-107132380D02*
X129253809Y-106465714D01*
X129253809Y-106560952D02*
X129301428Y-106513333D01*
X129396666Y-106465714D01*
X129539523Y-106465714D01*
X129634761Y-106513333D01*
X129682380Y-106608571D01*
X129682380Y-107132380D01*
X129682380Y-106608571D02*
X129730000Y-106513333D01*
X129825238Y-106465714D01*
X129968095Y-106465714D01*
X130063333Y-106513333D01*
X130110952Y-106608571D01*
X130110952Y-107132380D01*
X131110952Y-107132380D02*
X130539523Y-107132380D01*
X130825238Y-107132380D02*
X130825238Y-106132380D01*
X130730000Y-106275238D01*
X130634761Y-106370476D01*
X130539523Y-106418095D01*
%TO.C,SineBiasTrim1*%
X102878571Y-107084761D02*
X103021428Y-107132380D01*
X103259523Y-107132380D01*
X103354761Y-107084761D01*
X103402380Y-107037142D01*
X103450000Y-106941904D01*
X103450000Y-106846666D01*
X103402380Y-106751428D01*
X103354761Y-106703809D01*
X103259523Y-106656190D01*
X103069047Y-106608571D01*
X102973809Y-106560952D01*
X102926190Y-106513333D01*
X102878571Y-106418095D01*
X102878571Y-106322857D01*
X102926190Y-106227619D01*
X102973809Y-106180000D01*
X103069047Y-106132380D01*
X103307142Y-106132380D01*
X103450000Y-106180000D01*
X103878571Y-107132380D02*
X103878571Y-106465714D01*
X103878571Y-106132380D02*
X103830952Y-106180000D01*
X103878571Y-106227619D01*
X103926190Y-106180000D01*
X103878571Y-106132380D01*
X103878571Y-106227619D01*
X104354761Y-106465714D02*
X104354761Y-107132380D01*
X104354761Y-106560952D02*
X104402380Y-106513333D01*
X104497619Y-106465714D01*
X104640476Y-106465714D01*
X104735714Y-106513333D01*
X104783333Y-106608571D01*
X104783333Y-107132380D01*
X105640476Y-107084761D02*
X105545238Y-107132380D01*
X105354761Y-107132380D01*
X105259523Y-107084761D01*
X105211904Y-106989523D01*
X105211904Y-106608571D01*
X105259523Y-106513333D01*
X105354761Y-106465714D01*
X105545238Y-106465714D01*
X105640476Y-106513333D01*
X105688095Y-106608571D01*
X105688095Y-106703809D01*
X105211904Y-106799047D01*
X106450000Y-106608571D02*
X106592857Y-106656190D01*
X106640476Y-106703809D01*
X106688095Y-106799047D01*
X106688095Y-106941904D01*
X106640476Y-107037142D01*
X106592857Y-107084761D01*
X106497619Y-107132380D01*
X106116666Y-107132380D01*
X106116666Y-106132380D01*
X106450000Y-106132380D01*
X106545238Y-106180000D01*
X106592857Y-106227619D01*
X106640476Y-106322857D01*
X106640476Y-106418095D01*
X106592857Y-106513333D01*
X106545238Y-106560952D01*
X106450000Y-106608571D01*
X106116666Y-106608571D01*
X107116666Y-107132380D02*
X107116666Y-106465714D01*
X107116666Y-106132380D02*
X107069047Y-106180000D01*
X107116666Y-106227619D01*
X107164285Y-106180000D01*
X107116666Y-106132380D01*
X107116666Y-106227619D01*
X108021428Y-107132380D02*
X108021428Y-106608571D01*
X107973809Y-106513333D01*
X107878571Y-106465714D01*
X107688095Y-106465714D01*
X107592857Y-106513333D01*
X108021428Y-107084761D02*
X107926190Y-107132380D01*
X107688095Y-107132380D01*
X107592857Y-107084761D01*
X107545238Y-106989523D01*
X107545238Y-106894285D01*
X107592857Y-106799047D01*
X107688095Y-106751428D01*
X107926190Y-106751428D01*
X108021428Y-106703809D01*
X108450000Y-107084761D02*
X108545238Y-107132380D01*
X108735714Y-107132380D01*
X108830952Y-107084761D01*
X108878571Y-106989523D01*
X108878571Y-106941904D01*
X108830952Y-106846666D01*
X108735714Y-106799047D01*
X108592857Y-106799047D01*
X108497619Y-106751428D01*
X108450000Y-106656190D01*
X108450000Y-106608571D01*
X108497619Y-106513333D01*
X108592857Y-106465714D01*
X108735714Y-106465714D01*
X108830952Y-106513333D01*
X109164285Y-106132380D02*
X109735714Y-106132380D01*
X109450000Y-107132380D02*
X109450000Y-106132380D01*
X110069047Y-107132380D02*
X110069047Y-106465714D01*
X110069047Y-106656190D02*
X110116666Y-106560952D01*
X110164285Y-106513333D01*
X110259523Y-106465714D01*
X110354761Y-106465714D01*
X110688095Y-107132380D02*
X110688095Y-106465714D01*
X110688095Y-106132380D02*
X110640476Y-106180000D01*
X110688095Y-106227619D01*
X110735714Y-106180000D01*
X110688095Y-106132380D01*
X110688095Y-106227619D01*
X111164285Y-107132380D02*
X111164285Y-106465714D01*
X111164285Y-106560952D02*
X111211904Y-106513333D01*
X111307142Y-106465714D01*
X111450000Y-106465714D01*
X111545238Y-106513333D01*
X111592857Y-106608571D01*
X111592857Y-107132380D01*
X111592857Y-106608571D02*
X111640476Y-106513333D01*
X111735714Y-106465714D01*
X111878571Y-106465714D01*
X111973809Y-106513333D01*
X112021428Y-106608571D01*
X112021428Y-107132380D01*
X113021428Y-107132380D02*
X112450000Y-107132380D01*
X112735714Y-107132380D02*
X112735714Y-106132380D01*
X112640476Y-106275238D01*
X112545238Y-106370476D01*
X112450000Y-106418095D01*
%TO.C,R69*%
X109847142Y-132532380D02*
X109513809Y-132056190D01*
X109275714Y-132532380D02*
X109275714Y-131532380D01*
X109656666Y-131532380D01*
X109751904Y-131580000D01*
X109799523Y-131627619D01*
X109847142Y-131722857D01*
X109847142Y-131865714D01*
X109799523Y-131960952D01*
X109751904Y-132008571D01*
X109656666Y-132056190D01*
X109275714Y-132056190D01*
X110704285Y-131532380D02*
X110513809Y-131532380D01*
X110418571Y-131580000D01*
X110370952Y-131627619D01*
X110275714Y-131770476D01*
X110228095Y-131960952D01*
X110228095Y-132341904D01*
X110275714Y-132437142D01*
X110323333Y-132484761D01*
X110418571Y-132532380D01*
X110609047Y-132532380D01*
X110704285Y-132484761D01*
X110751904Y-132437142D01*
X110799523Y-132341904D01*
X110799523Y-132103809D01*
X110751904Y-132008571D01*
X110704285Y-131960952D01*
X110609047Y-131913333D01*
X110418571Y-131913333D01*
X110323333Y-131960952D01*
X110275714Y-132008571D01*
X110228095Y-132103809D01*
X111275714Y-132532380D02*
X111466190Y-132532380D01*
X111561428Y-132484761D01*
X111609047Y-132437142D01*
X111704285Y-132294285D01*
X111751904Y-132103809D01*
X111751904Y-131722857D01*
X111704285Y-131627619D01*
X111656666Y-131580000D01*
X111561428Y-131532380D01*
X111370952Y-131532380D01*
X111275714Y-131580000D01*
X111228095Y-131627619D01*
X111180476Y-131722857D01*
X111180476Y-131960952D01*
X111228095Y-132056190D01*
X111275714Y-132103809D01*
X111370952Y-132151428D01*
X111561428Y-132151428D01*
X111656666Y-132103809D01*
X111704285Y-132056190D01*
X111751904Y-131960952D01*
%TO.C,R68*%
X107307142Y-147772380D02*
X106973809Y-147296190D01*
X106735714Y-147772380D02*
X106735714Y-146772380D01*
X107116666Y-146772380D01*
X107211904Y-146820000D01*
X107259523Y-146867619D01*
X107307142Y-146962857D01*
X107307142Y-147105714D01*
X107259523Y-147200952D01*
X107211904Y-147248571D01*
X107116666Y-147296190D01*
X106735714Y-147296190D01*
X108164285Y-146772380D02*
X107973809Y-146772380D01*
X107878571Y-146820000D01*
X107830952Y-146867619D01*
X107735714Y-147010476D01*
X107688095Y-147200952D01*
X107688095Y-147581904D01*
X107735714Y-147677142D01*
X107783333Y-147724761D01*
X107878571Y-147772380D01*
X108069047Y-147772380D01*
X108164285Y-147724761D01*
X108211904Y-147677142D01*
X108259523Y-147581904D01*
X108259523Y-147343809D01*
X108211904Y-147248571D01*
X108164285Y-147200952D01*
X108069047Y-147153333D01*
X107878571Y-147153333D01*
X107783333Y-147200952D01*
X107735714Y-147248571D01*
X107688095Y-147343809D01*
X108830952Y-147200952D02*
X108735714Y-147153333D01*
X108688095Y-147105714D01*
X108640476Y-147010476D01*
X108640476Y-146962857D01*
X108688095Y-146867619D01*
X108735714Y-146820000D01*
X108830952Y-146772380D01*
X109021428Y-146772380D01*
X109116666Y-146820000D01*
X109164285Y-146867619D01*
X109211904Y-146962857D01*
X109211904Y-147010476D01*
X109164285Y-147105714D01*
X109116666Y-147153333D01*
X109021428Y-147200952D01*
X108830952Y-147200952D01*
X108735714Y-147248571D01*
X108688095Y-147296190D01*
X108640476Y-147391428D01*
X108640476Y-147581904D01*
X108688095Y-147677142D01*
X108735714Y-147724761D01*
X108830952Y-147772380D01*
X109021428Y-147772380D01*
X109116666Y-147724761D01*
X109164285Y-147677142D01*
X109211904Y-147581904D01*
X109211904Y-147391428D01*
X109164285Y-147296190D01*
X109116666Y-147248571D01*
X109021428Y-147200952D01*
%TO.C,R66*%
X125087142Y-147772380D02*
X124753809Y-147296190D01*
X124515714Y-147772380D02*
X124515714Y-146772380D01*
X124896666Y-146772380D01*
X124991904Y-146820000D01*
X125039523Y-146867619D01*
X125087142Y-146962857D01*
X125087142Y-147105714D01*
X125039523Y-147200952D01*
X124991904Y-147248571D01*
X124896666Y-147296190D01*
X124515714Y-147296190D01*
X125944285Y-146772380D02*
X125753809Y-146772380D01*
X125658571Y-146820000D01*
X125610952Y-146867619D01*
X125515714Y-147010476D01*
X125468095Y-147200952D01*
X125468095Y-147581904D01*
X125515714Y-147677142D01*
X125563333Y-147724761D01*
X125658571Y-147772380D01*
X125849047Y-147772380D01*
X125944285Y-147724761D01*
X125991904Y-147677142D01*
X126039523Y-147581904D01*
X126039523Y-147343809D01*
X125991904Y-147248571D01*
X125944285Y-147200952D01*
X125849047Y-147153333D01*
X125658571Y-147153333D01*
X125563333Y-147200952D01*
X125515714Y-147248571D01*
X125468095Y-147343809D01*
X126896666Y-146772380D02*
X126706190Y-146772380D01*
X126610952Y-146820000D01*
X126563333Y-146867619D01*
X126468095Y-147010476D01*
X126420476Y-147200952D01*
X126420476Y-147581904D01*
X126468095Y-147677142D01*
X126515714Y-147724761D01*
X126610952Y-147772380D01*
X126801428Y-147772380D01*
X126896666Y-147724761D01*
X126944285Y-147677142D01*
X126991904Y-147581904D01*
X126991904Y-147343809D01*
X126944285Y-147248571D01*
X126896666Y-147200952D01*
X126801428Y-147153333D01*
X126610952Y-147153333D01*
X126515714Y-147200952D01*
X126468095Y-147248571D01*
X126420476Y-147343809D01*
%TO.C,R64*%
X112212380Y-146692857D02*
X111736190Y-147026190D01*
X112212380Y-147264285D02*
X111212380Y-147264285D01*
X111212380Y-146883333D01*
X111260000Y-146788095D01*
X111307619Y-146740476D01*
X111402857Y-146692857D01*
X111545714Y-146692857D01*
X111640952Y-146740476D01*
X111688571Y-146788095D01*
X111736190Y-146883333D01*
X111736190Y-147264285D01*
X111212380Y-145835714D02*
X111212380Y-146026190D01*
X111260000Y-146121428D01*
X111307619Y-146169047D01*
X111450476Y-146264285D01*
X111640952Y-146311904D01*
X112021904Y-146311904D01*
X112117142Y-146264285D01*
X112164761Y-146216666D01*
X112212380Y-146121428D01*
X112212380Y-145930952D01*
X112164761Y-145835714D01*
X112117142Y-145788095D01*
X112021904Y-145740476D01*
X111783809Y-145740476D01*
X111688571Y-145788095D01*
X111640952Y-145835714D01*
X111593333Y-145930952D01*
X111593333Y-146121428D01*
X111640952Y-146216666D01*
X111688571Y-146264285D01*
X111783809Y-146311904D01*
X111545714Y-144883333D02*
X112212380Y-144883333D01*
X111164761Y-145121428D02*
X111879047Y-145359523D01*
X111879047Y-144740476D01*
%TO.C,R62*%
X107307142Y-145232380D02*
X106973809Y-144756190D01*
X106735714Y-145232380D02*
X106735714Y-144232380D01*
X107116666Y-144232380D01*
X107211904Y-144280000D01*
X107259523Y-144327619D01*
X107307142Y-144422857D01*
X107307142Y-144565714D01*
X107259523Y-144660952D01*
X107211904Y-144708571D01*
X107116666Y-144756190D01*
X106735714Y-144756190D01*
X108164285Y-144232380D02*
X107973809Y-144232380D01*
X107878571Y-144280000D01*
X107830952Y-144327619D01*
X107735714Y-144470476D01*
X107688095Y-144660952D01*
X107688095Y-145041904D01*
X107735714Y-145137142D01*
X107783333Y-145184761D01*
X107878571Y-145232380D01*
X108069047Y-145232380D01*
X108164285Y-145184761D01*
X108211904Y-145137142D01*
X108259523Y-145041904D01*
X108259523Y-144803809D01*
X108211904Y-144708571D01*
X108164285Y-144660952D01*
X108069047Y-144613333D01*
X107878571Y-144613333D01*
X107783333Y-144660952D01*
X107735714Y-144708571D01*
X107688095Y-144803809D01*
X108640476Y-144327619D02*
X108688095Y-144280000D01*
X108783333Y-144232380D01*
X109021428Y-144232380D01*
X109116666Y-144280000D01*
X109164285Y-144327619D01*
X109211904Y-144422857D01*
X109211904Y-144518095D01*
X109164285Y-144660952D01*
X108592857Y-145232380D01*
X109211904Y-145232380D01*
%TO.C,R60*%
X126357142Y-140152380D02*
X126023809Y-139676190D01*
X125785714Y-140152380D02*
X125785714Y-139152380D01*
X126166666Y-139152380D01*
X126261904Y-139200000D01*
X126309523Y-139247619D01*
X126357142Y-139342857D01*
X126357142Y-139485714D01*
X126309523Y-139580952D01*
X126261904Y-139628571D01*
X126166666Y-139676190D01*
X125785714Y-139676190D01*
X127214285Y-139152380D02*
X127023809Y-139152380D01*
X126928571Y-139200000D01*
X126880952Y-139247619D01*
X126785714Y-139390476D01*
X126738095Y-139580952D01*
X126738095Y-139961904D01*
X126785714Y-140057142D01*
X126833333Y-140104761D01*
X126928571Y-140152380D01*
X127119047Y-140152380D01*
X127214285Y-140104761D01*
X127261904Y-140057142D01*
X127309523Y-139961904D01*
X127309523Y-139723809D01*
X127261904Y-139628571D01*
X127214285Y-139580952D01*
X127119047Y-139533333D01*
X126928571Y-139533333D01*
X126833333Y-139580952D01*
X126785714Y-139628571D01*
X126738095Y-139723809D01*
X127928571Y-139152380D02*
X128023809Y-139152380D01*
X128119047Y-139200000D01*
X128166666Y-139247619D01*
X128214285Y-139342857D01*
X128261904Y-139533333D01*
X128261904Y-139771428D01*
X128214285Y-139961904D01*
X128166666Y-140057142D01*
X128119047Y-140104761D01*
X128023809Y-140152380D01*
X127928571Y-140152380D01*
X127833333Y-140104761D01*
X127785714Y-140057142D01*
X127738095Y-139961904D01*
X127690476Y-139771428D01*
X127690476Y-139533333D01*
X127738095Y-139342857D01*
X127785714Y-139247619D01*
X127833333Y-139200000D01*
X127928571Y-139152380D01*
%TO.C,R55*%
X110942380Y-113672857D02*
X110466190Y-114006190D01*
X110942380Y-114244285D02*
X109942380Y-114244285D01*
X109942380Y-113863333D01*
X109990000Y-113768095D01*
X110037619Y-113720476D01*
X110132857Y-113672857D01*
X110275714Y-113672857D01*
X110370952Y-113720476D01*
X110418571Y-113768095D01*
X110466190Y-113863333D01*
X110466190Y-114244285D01*
X109942380Y-112768095D02*
X109942380Y-113244285D01*
X110418571Y-113291904D01*
X110370952Y-113244285D01*
X110323333Y-113149047D01*
X110323333Y-112910952D01*
X110370952Y-112815714D01*
X110418571Y-112768095D01*
X110513809Y-112720476D01*
X110751904Y-112720476D01*
X110847142Y-112768095D01*
X110894761Y-112815714D01*
X110942380Y-112910952D01*
X110942380Y-113149047D01*
X110894761Y-113244285D01*
X110847142Y-113291904D01*
X109942380Y-111815714D02*
X109942380Y-112291904D01*
X110418571Y-112339523D01*
X110370952Y-112291904D01*
X110323333Y-112196666D01*
X110323333Y-111958571D01*
X110370952Y-111863333D01*
X110418571Y-111815714D01*
X110513809Y-111768095D01*
X110751904Y-111768095D01*
X110847142Y-111815714D01*
X110894761Y-111863333D01*
X110942380Y-111958571D01*
X110942380Y-112196666D01*
X110894761Y-112291904D01*
X110847142Y-112339523D01*
%TO.C,R54*%
X110942380Y-118752857D02*
X110466190Y-119086190D01*
X110942380Y-119324285D02*
X109942380Y-119324285D01*
X109942380Y-118943333D01*
X109990000Y-118848095D01*
X110037619Y-118800476D01*
X110132857Y-118752857D01*
X110275714Y-118752857D01*
X110370952Y-118800476D01*
X110418571Y-118848095D01*
X110466190Y-118943333D01*
X110466190Y-119324285D01*
X109942380Y-117848095D02*
X109942380Y-118324285D01*
X110418571Y-118371904D01*
X110370952Y-118324285D01*
X110323333Y-118229047D01*
X110323333Y-117990952D01*
X110370952Y-117895714D01*
X110418571Y-117848095D01*
X110513809Y-117800476D01*
X110751904Y-117800476D01*
X110847142Y-117848095D01*
X110894761Y-117895714D01*
X110942380Y-117990952D01*
X110942380Y-118229047D01*
X110894761Y-118324285D01*
X110847142Y-118371904D01*
X110275714Y-116943333D02*
X110942380Y-116943333D01*
X109894761Y-117181428D02*
X110609047Y-117419523D01*
X110609047Y-116800476D01*
%TO.C,R51*%
X125087142Y-114752380D02*
X124753809Y-114276190D01*
X124515714Y-114752380D02*
X124515714Y-113752380D01*
X124896666Y-113752380D01*
X124991904Y-113800000D01*
X125039523Y-113847619D01*
X125087142Y-113942857D01*
X125087142Y-114085714D01*
X125039523Y-114180952D01*
X124991904Y-114228571D01*
X124896666Y-114276190D01*
X124515714Y-114276190D01*
X125991904Y-113752380D02*
X125515714Y-113752380D01*
X125468095Y-114228571D01*
X125515714Y-114180952D01*
X125610952Y-114133333D01*
X125849047Y-114133333D01*
X125944285Y-114180952D01*
X125991904Y-114228571D01*
X126039523Y-114323809D01*
X126039523Y-114561904D01*
X125991904Y-114657142D01*
X125944285Y-114704761D01*
X125849047Y-114752380D01*
X125610952Y-114752380D01*
X125515714Y-114704761D01*
X125468095Y-114657142D01*
X126991904Y-114752380D02*
X126420476Y-114752380D01*
X126706190Y-114752380D02*
X126706190Y-113752380D01*
X126610952Y-113895238D01*
X126515714Y-113990476D01*
X126420476Y-114038095D01*
%TO.C,R37*%
X126357142Y-122372380D02*
X126023809Y-121896190D01*
X125785714Y-122372380D02*
X125785714Y-121372380D01*
X126166666Y-121372380D01*
X126261904Y-121420000D01*
X126309523Y-121467619D01*
X126357142Y-121562857D01*
X126357142Y-121705714D01*
X126309523Y-121800952D01*
X126261904Y-121848571D01*
X126166666Y-121896190D01*
X125785714Y-121896190D01*
X126690476Y-121372380D02*
X127309523Y-121372380D01*
X126976190Y-121753333D01*
X127119047Y-121753333D01*
X127214285Y-121800952D01*
X127261904Y-121848571D01*
X127309523Y-121943809D01*
X127309523Y-122181904D01*
X127261904Y-122277142D01*
X127214285Y-122324761D01*
X127119047Y-122372380D01*
X126833333Y-122372380D01*
X126738095Y-122324761D01*
X126690476Y-122277142D01*
X127642857Y-121372380D02*
X128309523Y-121372380D01*
X127880952Y-122372380D01*
%TO.C,R36*%
X122372380Y-105417857D02*
X121896190Y-105751190D01*
X122372380Y-105989285D02*
X121372380Y-105989285D01*
X121372380Y-105608333D01*
X121420000Y-105513095D01*
X121467619Y-105465476D01*
X121562857Y-105417857D01*
X121705714Y-105417857D01*
X121800952Y-105465476D01*
X121848571Y-105513095D01*
X121896190Y-105608333D01*
X121896190Y-105989285D01*
X121372380Y-105084523D02*
X121372380Y-104465476D01*
X121753333Y-104798809D01*
X121753333Y-104655952D01*
X121800952Y-104560714D01*
X121848571Y-104513095D01*
X121943809Y-104465476D01*
X122181904Y-104465476D01*
X122277142Y-104513095D01*
X122324761Y-104560714D01*
X122372380Y-104655952D01*
X122372380Y-104941666D01*
X122324761Y-105036904D01*
X122277142Y-105084523D01*
X121372380Y-103608333D02*
X121372380Y-103798809D01*
X121420000Y-103894047D01*
X121467619Y-103941666D01*
X121610476Y-104036904D01*
X121800952Y-104084523D01*
X122181904Y-104084523D01*
X122277142Y-104036904D01*
X122324761Y-103989285D01*
X122372380Y-103894047D01*
X122372380Y-103703571D01*
X122324761Y-103608333D01*
X122277142Y-103560714D01*
X122181904Y-103513095D01*
X121943809Y-103513095D01*
X121848571Y-103560714D01*
X121800952Y-103608333D01*
X121753333Y-103703571D01*
X121753333Y-103894047D01*
X121800952Y-103989285D01*
X121848571Y-104036904D01*
X121943809Y-104084523D01*
%TO.C,R1*%
X125563333Y-119832380D02*
X125230000Y-119356190D01*
X124991904Y-119832380D02*
X124991904Y-118832380D01*
X125372857Y-118832380D01*
X125468095Y-118880000D01*
X125515714Y-118927619D01*
X125563333Y-119022857D01*
X125563333Y-119165714D01*
X125515714Y-119260952D01*
X125468095Y-119308571D01*
X125372857Y-119356190D01*
X124991904Y-119356190D01*
X126515714Y-119832380D02*
X125944285Y-119832380D01*
X126230000Y-119832380D02*
X126230000Y-118832380D01*
X126134761Y-118975238D01*
X126039523Y-119070476D01*
X125944285Y-119118095D01*
%TO.C,J15*%
X94640476Y-149312380D02*
X94640476Y-150026666D01*
X94592857Y-150169523D01*
X94497619Y-150264761D01*
X94354761Y-150312380D01*
X94259523Y-150312380D01*
X95640476Y-150312380D02*
X95069047Y-150312380D01*
X95354761Y-150312380D02*
X95354761Y-149312380D01*
X95259523Y-149455238D01*
X95164285Y-149550476D01*
X95069047Y-149598095D01*
X96545238Y-149312380D02*
X96069047Y-149312380D01*
X96021428Y-149788571D01*
X96069047Y-149740952D01*
X96164285Y-149693333D01*
X96402380Y-149693333D01*
X96497619Y-149740952D01*
X96545238Y-149788571D01*
X96592857Y-149883809D01*
X96592857Y-150121904D01*
X96545238Y-150217142D01*
X96497619Y-150264761D01*
X96402380Y-150312380D01*
X96164285Y-150312380D01*
X96069047Y-150264761D01*
X96021428Y-150217142D01*
%TO.C,J13*%
X94640476Y-121372380D02*
X94640476Y-122086666D01*
X94592857Y-122229523D01*
X94497619Y-122324761D01*
X94354761Y-122372380D01*
X94259523Y-122372380D01*
X95640476Y-122372380D02*
X95069047Y-122372380D01*
X95354761Y-122372380D02*
X95354761Y-121372380D01*
X95259523Y-121515238D01*
X95164285Y-121610476D01*
X95069047Y-121658095D01*
X95973809Y-121372380D02*
X96592857Y-121372380D01*
X96259523Y-121753333D01*
X96402380Y-121753333D01*
X96497619Y-121800952D01*
X96545238Y-121848571D01*
X96592857Y-121943809D01*
X96592857Y-122181904D01*
X96545238Y-122277142D01*
X96497619Y-122324761D01*
X96402380Y-122372380D01*
X96116666Y-122372380D01*
X96021428Y-122324761D01*
X95973809Y-122277142D01*
%TO.C,J12*%
X94640476Y-135342380D02*
X94640476Y-136056666D01*
X94592857Y-136199523D01*
X94497619Y-136294761D01*
X94354761Y-136342380D01*
X94259523Y-136342380D01*
X95640476Y-136342380D02*
X95069047Y-136342380D01*
X95354761Y-136342380D02*
X95354761Y-135342380D01*
X95259523Y-135485238D01*
X95164285Y-135580476D01*
X95069047Y-135628095D01*
X96021428Y-135437619D02*
X96069047Y-135390000D01*
X96164285Y-135342380D01*
X96402380Y-135342380D01*
X96497619Y-135390000D01*
X96545238Y-135437619D01*
X96592857Y-135532857D01*
X96592857Y-135628095D01*
X96545238Y-135770952D01*
X95973809Y-136342380D01*
X96592857Y-136342380D01*
D11*
%TO.C,J18*%
X52010000Y-112970000D02*
X53340000Y-112970000D01*
X52010000Y-115570000D02*
X54670000Y-115570000D01*
X52010000Y-115630000D02*
X54670000Y-115630000D01*
X54670000Y-115570000D02*
X54670000Y-115630000D01*
X52010000Y-115570000D02*
X52010000Y-115630000D01*
X52010000Y-114300000D02*
X52010000Y-112970000D01*
%TO.C,J2*%
X38300000Y-118700479D02*
X43400000Y-118700479D01*
X33400000Y-118700479D02*
X35900000Y-118700479D01*
X33400000Y-125600479D02*
X33400000Y-124850479D01*
X35900000Y-125600479D02*
X33400000Y-125600479D01*
X33400000Y-119450479D02*
X33400000Y-118700479D01*
X38300000Y-125600479D02*
X45300000Y-125600479D01*
X45300000Y-121100479D02*
X45300000Y-123200479D01*
%TO.C,J16*%
X49470000Y-112970000D02*
X50800000Y-112970000D01*
X49470000Y-115570000D02*
X52130000Y-115570000D01*
X49470000Y-115630000D02*
X52130000Y-115630000D01*
X52130000Y-115570000D02*
X52130000Y-115630000D01*
X49470000Y-115570000D02*
X49470000Y-115630000D01*
X49470000Y-114300000D02*
X49470000Y-112970000D01*
%TO.C,C11*%
X68220000Y-137718748D02*
X68220000Y-139141252D01*
X66400000Y-137718748D02*
X66400000Y-139141252D01*
%TO.C,J17*%
X54550000Y-112970000D02*
X55880000Y-112970000D01*
X54550000Y-115570000D02*
X57210000Y-115570000D01*
X54550000Y-115630000D02*
X57210000Y-115630000D01*
X57210000Y-115570000D02*
X57210000Y-115630000D01*
X54550000Y-115570000D02*
X54550000Y-115630000D01*
X54550000Y-114300000D02*
X54550000Y-112970000D01*
%TO.C,J3*%
X52010000Y-115510000D02*
X53340000Y-115510000D01*
X52010000Y-118110000D02*
X54670000Y-118110000D01*
X52010000Y-118170000D02*
X54670000Y-118170000D01*
X54670000Y-118110000D02*
X54670000Y-118170000D01*
X52010000Y-118110000D02*
X52010000Y-118170000D01*
X52010000Y-116840000D02*
X52010000Y-115510000D01*
%TO.C,J1*%
X38300000Y-104500000D02*
X43400000Y-104500000D01*
X33400000Y-104500000D02*
X35900000Y-104500000D01*
X33400000Y-111400000D02*
X33400000Y-110650000D01*
X35900000Y-111400000D02*
X33400000Y-111400000D01*
X33400000Y-105250000D02*
X33400000Y-104500000D01*
X38300000Y-111400000D02*
X45300000Y-111400000D01*
X45300000Y-106900000D02*
X45300000Y-109000000D01*
%TO.C,J6*%
X52010000Y-118050000D02*
X53340000Y-118050000D01*
X52010000Y-120650000D02*
X54670000Y-120650000D01*
X52010000Y-120710000D02*
X54670000Y-120710000D01*
X54670000Y-120650000D02*
X54670000Y-120710000D01*
X52010000Y-120650000D02*
X52010000Y-120710000D01*
X52010000Y-119380000D02*
X52010000Y-118050000D01*
%TO.C,J9*%
X48200000Y-138370000D02*
X49530000Y-138370000D01*
X48200000Y-140970000D02*
X50860000Y-140970000D01*
X48200000Y-141030000D02*
X50860000Y-141030000D01*
X50860000Y-140970000D02*
X50860000Y-141030000D01*
X48200000Y-140970000D02*
X48200000Y-141030000D01*
X48200000Y-139700000D02*
X48200000Y-138370000D01*
%TO.C,J10*%
X71060000Y-144780000D02*
X71060000Y-143450000D01*
X71060000Y-146050000D02*
X71060000Y-146110000D01*
X73720000Y-146050000D02*
X73720000Y-146110000D01*
X71060000Y-146110000D02*
X73720000Y-146110000D01*
X71060000Y-146050000D02*
X73720000Y-146050000D01*
X71060000Y-143450000D02*
X72390000Y-143450000D01*
%TO.C,J5*%
X38300000Y-132670479D02*
X43400000Y-132670479D01*
X33400000Y-132670479D02*
X35900000Y-132670479D01*
X33400000Y-139570479D02*
X33400000Y-138820479D01*
X35900000Y-139570479D02*
X33400000Y-139570479D01*
X33400000Y-133420479D02*
X33400000Y-132670479D01*
X38300000Y-139570479D02*
X45300000Y-139570479D01*
X45300000Y-135070479D02*
X45300000Y-137170479D01*
%TO.C,J4*%
X45300000Y-148810000D02*
X45300000Y-150910000D01*
X38300000Y-153310000D02*
X45300000Y-153310000D01*
X33400000Y-147160000D02*
X33400000Y-146410000D01*
X35900000Y-153310000D02*
X33400000Y-153310000D01*
X33400000Y-153310000D02*
X33400000Y-152560000D01*
X33400000Y-146410000D02*
X35900000Y-146410000D01*
X38300000Y-146410000D02*
X43400000Y-146410000D01*
%TO.C,J19*%
X57090000Y-112970000D02*
X58420000Y-112970000D01*
X57090000Y-115570000D02*
X59750000Y-115570000D01*
X57090000Y-115630000D02*
X59750000Y-115630000D01*
X59750000Y-115570000D02*
X59750000Y-115630000D01*
X57090000Y-115570000D02*
X57090000Y-115630000D01*
X57090000Y-114300000D02*
X57090000Y-112970000D01*
%TO.C,J20*%
X59630000Y-112970000D02*
X60960000Y-112970000D01*
X59630000Y-115570000D02*
X62290000Y-115570000D01*
X59630000Y-115630000D02*
X62290000Y-115630000D01*
X62290000Y-115570000D02*
X62290000Y-115630000D01*
X59630000Y-115570000D02*
X59630000Y-115630000D01*
X59630000Y-114300000D02*
X59630000Y-112970000D01*
%TO.C,J21*%
X62170000Y-112970000D02*
X63500000Y-112970000D01*
X62170000Y-115570000D02*
X64830000Y-115570000D01*
X62170000Y-115630000D02*
X64830000Y-115630000D01*
X64830000Y-115570000D02*
X64830000Y-115630000D01*
X62170000Y-115570000D02*
X62170000Y-115630000D01*
X62170000Y-114300000D02*
X62170000Y-112970000D01*
%TO.C,R2*%
X49890000Y-118837064D02*
X49890000Y-117382936D01*
X51710000Y-118837064D02*
X51710000Y-117382936D01*
%TO.C,R8*%
X54960000Y-117460000D02*
X54960000Y-121300000D01*
X56800000Y-117460000D02*
X56800000Y-121300000D01*
%TO.C,R50*%
X51527064Y-131170000D02*
X50072936Y-131170000D01*
X51527064Y-132990000D02*
X50072936Y-132990000D01*
%TO.C,R16*%
X64410000Y-117382936D02*
X64410000Y-118837064D01*
X62590000Y-117382936D02*
X62590000Y-118837064D01*
%TO.C,R38*%
X53700000Y-125002936D02*
X53700000Y-126457064D01*
X55520000Y-125002936D02*
X55520000Y-126457064D01*
%TO.C,R11*%
X71470000Y-139080000D02*
X71470000Y-135240000D01*
X73310000Y-139080000D02*
X73310000Y-135240000D01*
%TO.C,R4*%
X73300000Y-123732936D02*
X73300000Y-125187064D01*
X71480000Y-123732936D02*
X71480000Y-125187064D01*
%TO.C,R25*%
X69307064Y-130450000D02*
X67852936Y-130450000D01*
X69307064Y-128630000D02*
X67852936Y-128630000D01*
%TO.C,R26*%
X70760000Y-125002936D02*
X70760000Y-126457064D01*
X68940000Y-125002936D02*
X68940000Y-126457064D01*
%TO.C,R10*%
X74010000Y-139080000D02*
X74010000Y-135240000D01*
X75850000Y-139080000D02*
X75850000Y-135240000D01*
%TO.C,R40*%
X50150000Y-136240000D02*
X53990000Y-136240000D01*
X50150000Y-138080000D02*
X53990000Y-138080000D01*
%TO.C,R17*%
X68230000Y-126380000D02*
X68230000Y-122540000D01*
X66390000Y-126380000D02*
X66390000Y-122540000D01*
%TO.C,R19*%
X61880000Y-117460000D02*
X61880000Y-121300000D01*
X60040000Y-117460000D02*
X60040000Y-121300000D01*
%TO.C,R39*%
X50150000Y-128620000D02*
X53990000Y-128620000D01*
X50150000Y-130460000D02*
X53990000Y-130460000D01*
%TO.C,R46*%
X67852936Y-131170000D02*
X69307064Y-131170000D01*
X67852936Y-132990000D02*
X69307064Y-132990000D01*
%TO.C,R12*%
X68940000Y-135162936D02*
X68940000Y-136617064D01*
X70760000Y-135162936D02*
X70760000Y-136617064D01*
%TO.C,R48*%
X53990000Y-133700000D02*
X50150000Y-133700000D01*
X53990000Y-135540000D02*
X50150000Y-135540000D01*
%TO.C,RV5*%
X48800000Y-143110000D02*
X48800000Y-145805000D01*
X53190000Y-145805000D02*
X50950000Y-145805000D01*
X55340000Y-145805000D02*
X48800000Y-145805000D01*
X53504000Y-142064000D02*
X50635000Y-142064000D01*
X53190000Y-142064000D02*
X53190000Y-145805000D01*
X50950000Y-142064000D02*
X50950000Y-145805000D01*
X53190000Y-142064000D02*
X50950000Y-142064000D01*
X55340000Y-143110000D02*
X55340000Y-145805000D01*
%TO.C,RV9*%
X50455000Y-127730000D02*
X53150000Y-127730000D01*
X53150000Y-123340000D02*
X53150000Y-125580000D01*
X53150000Y-121190000D02*
X53150000Y-127730000D01*
X49409000Y-123026000D02*
X49409000Y-125895000D01*
X49409000Y-123340000D02*
X53150000Y-123340000D01*
X49409000Y-125580000D02*
X53150000Y-125580000D01*
X49409000Y-123340000D02*
X49409000Y-125580000D01*
X50455000Y-121190000D02*
X53150000Y-121190000D01*
%TO.C,RV7*%
X66580000Y-117765000D02*
X66580000Y-120460000D01*
X70970000Y-120460000D02*
X68730000Y-120460000D01*
X73120000Y-120460000D02*
X66580000Y-120460000D01*
X71284000Y-116719000D02*
X68415000Y-116719000D01*
X70970000Y-116719000D02*
X70970000Y-120460000D01*
X68730000Y-116719000D02*
X68730000Y-120460000D01*
X70970000Y-116719000D02*
X68730000Y-116719000D01*
X73120000Y-117765000D02*
X73120000Y-120460000D01*
%TO.C,C2*%
X68940000Y-141681252D02*
X68940000Y-140258748D01*
X70760000Y-141681252D02*
X70760000Y-140258748D01*
%TO.C,C3*%
X69291252Y-145690000D02*
X67868748Y-145690000D01*
X69291252Y-143870000D02*
X67868748Y-143870000D01*
%TO.C,C7*%
X52628748Y-140610000D02*
X54051252Y-140610000D01*
X52628748Y-138790000D02*
X54051252Y-138790000D01*
%TO.C,C9*%
X71480000Y-130098748D02*
X71480000Y-131521252D01*
X73300000Y-130098748D02*
X73300000Y-131521252D01*
%TO.C,C1*%
X73031000Y-141320000D02*
X74289000Y-141320000D01*
X73031000Y-143160000D02*
X74289000Y-143160000D01*
%TO.C,J22*%
X63500000Y-151070000D02*
X50740000Y-151070000D01*
X64770000Y-151070000D02*
X66100000Y-151070000D01*
X66100000Y-151070000D02*
X66100000Y-152400000D01*
X63500000Y-151070000D02*
X63500000Y-153730000D01*
X50740000Y-151070000D02*
X50740000Y-153730000D01*
X63500000Y-153730000D02*
X50740000Y-153730000D01*
%TO.C,J25*%
X46295000Y-104715000D02*
X47625000Y-104715000D01*
X46295000Y-107315000D02*
X48955000Y-107315000D01*
X46295000Y-107375000D02*
X48955000Y-107375000D01*
X48955000Y-107315000D02*
X48955000Y-107375000D01*
X46295000Y-107315000D02*
X46295000Y-107375000D01*
X46295000Y-106045000D02*
X46295000Y-104715000D01*
%TO.C,J27*%
X48200000Y-152400000D02*
X48200000Y-151070000D01*
X48200000Y-153670000D02*
X48200000Y-153730000D01*
X50860000Y-153670000D02*
X50860000Y-153730000D01*
X48200000Y-153730000D02*
X50860000Y-153730000D01*
X48200000Y-153670000D02*
X50860000Y-153670000D01*
X48200000Y-151070000D02*
X49530000Y-151070000D01*
%TO.C,U2*%
X63620000Y-125685000D02*
X61970000Y-125685000D01*
X58320000Y-125685000D02*
X58320000Y-146125000D01*
X63620000Y-146125000D02*
X63620000Y-125685000D01*
X58320000Y-146125000D02*
X63620000Y-146125000D01*
X59970000Y-125685000D02*
X58320000Y-125685000D01*
X59970000Y-125685000D02*
G75*
G03*
X61970000Y-125685000I1000000J0D01*
G01*
%TO.C,R6*%
X57510000Y-118837064D02*
X57510000Y-117382936D01*
X59330000Y-118837064D02*
X59330000Y-117382936D01*
%TO.C,J26*%
X105350000Y-151070000D02*
X106680000Y-151070000D01*
X105350000Y-153670000D02*
X108010000Y-153670000D01*
X105350000Y-153730000D02*
X108010000Y-153730000D01*
X108010000Y-153670000D02*
X108010000Y-153730000D01*
X105350000Y-153670000D02*
X105350000Y-153730000D01*
X105350000Y-152400000D02*
X105350000Y-151070000D01*
%TO.C,R58*%
X126457064Y-143150000D02*
X125002936Y-143150000D01*
X126457064Y-141330000D02*
X125002936Y-141330000D01*
%TO.C,J23*%
X120650000Y-151070000D02*
X107890000Y-151070000D01*
X121920000Y-151070000D02*
X123250000Y-151070000D01*
X123250000Y-151070000D02*
X123250000Y-152400000D01*
X120650000Y-151070000D02*
X120650000Y-153730000D01*
X107890000Y-151070000D02*
X107890000Y-153730000D01*
X120650000Y-153730000D02*
X107890000Y-153730000D01*
%TO.C,D1*%
X126379000Y-143860000D02*
X125121000Y-143860000D01*
X126379000Y-145700000D02*
X125121000Y-145700000D01*
%TO.C,U4*%
X117120000Y-130745000D02*
G75*
G03*
X119120000Y-130745000I1000000J0D01*
G01*
X117120000Y-130745000D02*
X115470000Y-130745000D01*
X120770000Y-148645000D02*
X120770000Y-130745000D01*
X115470000Y-148645000D02*
X120770000Y-148645000D01*
X120770000Y-130745000D02*
X119120000Y-130745000D01*
X115470000Y-130745000D02*
X115470000Y-148645000D01*
%TO.C,U1*%
X120770000Y-107905000D02*
X119120000Y-107905000D01*
X115470000Y-107905000D02*
X115470000Y-128345000D01*
X120770000Y-128345000D02*
X120770000Y-107905000D01*
X115470000Y-128345000D02*
X120770000Y-128345000D01*
X117120000Y-107905000D02*
X115470000Y-107905000D01*
X117120000Y-107905000D02*
G75*
G03*
X119120000Y-107905000I1000000J0D01*
G01*
%TO.C,SineShapeTrim1*%
X108985000Y-121190000D02*
X106290000Y-121190000D01*
X106290000Y-125580000D02*
X106290000Y-123340000D01*
X106290000Y-127730000D02*
X106290000Y-121190000D01*
X110031000Y-125894000D02*
X110031000Y-123025000D01*
X110031000Y-125580000D02*
X106290000Y-125580000D01*
X110031000Y-123340000D02*
X106290000Y-123340000D01*
X110031000Y-125580000D02*
X110031000Y-123340000D01*
X108985000Y-127730000D02*
X106290000Y-127730000D01*
%TO.C,SineLevelTrim1*%
X125385000Y-109950000D02*
X128080000Y-109950000D01*
X128080000Y-105560000D02*
X128080000Y-107800000D01*
X128080000Y-103410000D02*
X128080000Y-109950000D01*
X124339000Y-105246000D02*
X124339000Y-108115000D01*
X124339000Y-105560000D02*
X128080000Y-105560000D01*
X124339000Y-107800000D02*
X128080000Y-107800000D01*
X124339000Y-105560000D02*
X124339000Y-107800000D01*
X125385000Y-103410000D02*
X128080000Y-103410000D01*
%TO.C,SineBiasTrim1*%
X108185000Y-103410000D02*
X110880000Y-103410000D01*
X107139000Y-105560000D02*
X107139000Y-107800000D01*
X107139000Y-107800000D02*
X110880000Y-107800000D01*
X107139000Y-105560000D02*
X110880000Y-105560000D01*
X107139000Y-105246000D02*
X107139000Y-108115000D01*
X110880000Y-103410000D02*
X110880000Y-109950000D01*
X110880000Y-105560000D02*
X110880000Y-107800000D01*
X108185000Y-109950000D02*
X110880000Y-109950000D01*
%TO.C,R69*%
X111217064Y-132990000D02*
X109762936Y-132990000D01*
X111217064Y-131170000D02*
X109762936Y-131170000D01*
%TO.C,R68*%
X108677064Y-148230000D02*
X107222936Y-148230000D01*
X108677064Y-146410000D02*
X107222936Y-146410000D01*
%TO.C,R66*%
X125002936Y-146410000D02*
X126457064Y-146410000D01*
X125002936Y-148230000D02*
X126457064Y-148230000D01*
%TO.C,R64*%
X110850000Y-145322936D02*
X110850000Y-146777064D01*
X112670000Y-145322936D02*
X112670000Y-146777064D01*
%TO.C,R62*%
X107222936Y-145690000D02*
X108677064Y-145690000D01*
X107222936Y-143870000D02*
X108677064Y-143870000D01*
%TO.C,R60*%
X125080000Y-140620000D02*
X128920000Y-140620000D01*
X125080000Y-138780000D02*
X128920000Y-138780000D01*
%TO.C,R55*%
X110765000Y-113757064D02*
X110765000Y-112302936D01*
X108945000Y-113757064D02*
X108945000Y-112302936D01*
%TO.C,R54*%
X110765000Y-117382936D02*
X110765000Y-118837064D01*
X108945000Y-117382936D02*
X108945000Y-118837064D01*
%TO.C,R51*%
X126457064Y-113390000D02*
X125002936Y-113390000D01*
X126457064Y-115210000D02*
X125002936Y-115210000D01*
%TO.C,R37*%
X128920000Y-121000000D02*
X125080000Y-121000000D01*
X128920000Y-122840000D02*
X125080000Y-122840000D01*
%TO.C,R36*%
X122830000Y-104047936D02*
X122830000Y-105502064D01*
X121010000Y-104047936D02*
X121010000Y-105502064D01*
%TO.C,R1*%
X126457064Y-120290000D02*
X125002936Y-120290000D01*
X126457064Y-118470000D02*
X125002936Y-118470000D01*
%TO.C,J15*%
X102450000Y-148810000D02*
X102450000Y-150910000D01*
X95450000Y-153310000D02*
X102450000Y-153310000D01*
X90550000Y-147160000D02*
X90550000Y-146410000D01*
X93050000Y-153310000D02*
X90550000Y-153310000D01*
X90550000Y-153310000D02*
X90550000Y-152560000D01*
X90550000Y-146410000D02*
X93050000Y-146410000D01*
X95450000Y-146410000D02*
X100550000Y-146410000D01*
%TO.C,J14*%
X102450000Y-106900000D02*
X102450000Y-109000000D01*
X95450000Y-111400000D02*
X102450000Y-111400000D01*
X90550000Y-105250000D02*
X90550000Y-104500000D01*
X93050000Y-111400000D02*
X90550000Y-111400000D01*
X90550000Y-111400000D02*
X90550000Y-110650000D01*
X90550000Y-104500000D02*
X93050000Y-104500000D01*
X95450000Y-104500000D02*
X100550000Y-104500000D01*
%TO.C,J13*%
X102450000Y-120870000D02*
X102450000Y-122970000D01*
X95450000Y-125370000D02*
X102450000Y-125370000D01*
X90550000Y-119220000D02*
X90550000Y-118470000D01*
X93050000Y-125370000D02*
X90550000Y-125370000D01*
X90550000Y-125370000D02*
X90550000Y-124620000D01*
X90550000Y-118470000D02*
X93050000Y-118470000D01*
X95450000Y-118470000D02*
X100550000Y-118470000D01*
%TO.C,J12*%
X102450000Y-134840000D02*
X102450000Y-136940000D01*
X95450000Y-139340000D02*
X102450000Y-139340000D01*
X90550000Y-133190000D02*
X90550000Y-132440000D01*
X93050000Y-139340000D02*
X90550000Y-139340000D01*
X90550000Y-139340000D02*
X90550000Y-138590000D01*
X90550000Y-132440000D02*
X93050000Y-132440000D01*
X95450000Y-132440000D02*
X100550000Y-132440000D01*
%TD*%
M02*
