M48
; DRILL file {KiCad (6.0.5)} date Tue May 16 23:55:51 2023
; FORMAT={-:-/ absolute / inch / decimal}
; #@! TF.CreationDate,2023-05-16T23:55:51-04:00
; #@! TF.GenerationSoftware,Kicad,Pcbnew,(6.0.5)
; #@! TF.FileFunction,Plated,1,2,PTH
FMAT,2
INCH
; #@! TA.AperFunction,Plated,PTH,ViaDrill
T1C0.0157
; #@! TA.AperFunction,Plated,PTH,ComponentDrill
T2C0.0276
; #@! TA.AperFunction,Plated,PTH,ComponentDrill
T3C0.0315
; #@! TA.AperFunction,Plated,PTH,ComponentDrill
T4C0.0354
; #@! TA.AperFunction,Plated,PTH,ComponentDrill
T5C0.0394
; #@! TA.AperFunction,Plated,PTH,ComponentDrill
T6C0.0472
; #@! TA.AperFunction,Plated,PTH,ViaDrill
T7C0.1181
%
G90
G05
T1
X2.575Y-4.825
X4.52Y-5.87
X4.64Y-5.75
X4.675Y-5.175
X4.68Y-5.83
X4.7Y-4.6
X4.725Y-5.575
T2
X1.95Y-5.1
X1.95Y-5.3
X1.95Y-5.4
X2.15Y-5.1
X2.15Y-5.3
X2.15Y-5.4
X2.2Y-4.6
X2.2Y-4.8
X2.4Y-4.6
X2.4Y-4.8
X2.65Y-4.8
X2.65Y-5.0
X2.85Y-5.3
X2.85Y-5.5
X2.95Y-5.3
X2.95Y-5.5
X4.9Y-4.8
X4.9Y-5.5
X5.1Y-4.8
X5.1Y-5.5
T3
X2.2504Y-5.0006
X2.2504Y-5.1006
X2.2504Y-5.2006
X2.2504Y-5.3006
X2.2504Y-5.4006
X2.2504Y-5.5006
X2.2504Y-5.6006
X2.2504Y-5.7006
X2.5504Y-5.0006
X2.5504Y-5.1006
X2.5504Y-5.2006
X2.5504Y-5.3006
X2.5504Y-5.4006
X2.5504Y-5.5006
X2.5504Y-5.6006
X2.5504Y-5.7006
X2.8508Y-5.6
X2.9492Y-5.6
X4.5004Y-4.3006
X4.5004Y-4.4006
X4.5004Y-4.5006
X4.5004Y-4.6006
X4.5004Y-4.7006
X4.5004Y-4.8006
X4.5004Y-4.9006
X4.5004Y-5.0006
X4.5004Y-5.1998
X4.5004Y-5.2998
X4.5004Y-5.3998
X4.5004Y-5.4998
X4.5004Y-5.5998
X4.5004Y-5.6998
X4.5004Y-5.7998
X4.8004Y-4.3006
X4.8004Y-4.4006
X4.8004Y-4.5006
X4.8004Y-4.6006
X4.8004Y-4.7006
X4.8004Y-4.8006
X4.8004Y-4.9006
X4.8004Y-5.0006
X4.8004Y-5.1998
X4.8004Y-5.2998
X4.8004Y-5.3998
X4.8004Y-5.4998
X4.8004Y-5.5998
X4.8004Y-5.6998
X4.8004Y-5.7998
X4.9016Y-5.7
X5.0Y-5.7
T4
X1.95Y-4.8016
X1.95Y-4.9984
X1.9516Y-5.5978
X2.0484Y-4.9
X2.05Y-5.6963
X2.1484Y-5.5978
X2.6516Y-4.6
X2.75Y-4.6984
X2.8484Y-4.6
X4.2228Y-4.1016
X4.2228Y-4.2984
X4.2287Y-4.9
X4.3213Y-4.2
X4.3272Y-4.8016
X4.3272Y-4.9984
X4.9Y-4.1016
X4.9Y-4.2984
X4.9984Y-4.2
T5
X1.875Y-4.175
X1.95Y-5.5
X1.95Y-6.0
X2.0Y-4.2
X2.0Y-4.3
X2.0Y-4.5
X2.05Y-6.0
X2.1Y-4.2
X2.1Y-4.3
X2.1Y-4.5
X2.1Y-4.6
X2.1Y-4.7
X2.15Y-6.0
X2.2Y-4.2
X2.2Y-4.3
X2.2Y-4.5
X2.25Y-6.0
X2.3Y-4.2
X2.3Y-4.3
X2.3Y-4.5
X2.35Y-6.0
X2.4Y-4.2
X2.4Y-4.3
X2.4Y-4.5
X2.45Y-6.0
X2.5Y-4.5
X2.55Y-6.0
X2.85Y-5.7
X4.2Y-6.0
X4.3Y-6.0
X4.4Y-6.0
X4.5Y-6.0
X4.6Y-6.0
X4.7Y-6.0
X4.8Y-6.0
T6
X1.4606Y-4.1358
X1.4606Y-4.3642
X1.4606Y-4.6949
X1.4606Y-4.9232
X1.4606Y-5.2449
X1.4606Y-5.4732
X1.4606Y-5.7858
X1.4606Y-6.0142
X1.7559Y-4.1614
X1.7559Y-4.3386
X1.7559Y-4.7205
X1.7559Y-4.8977
X1.7559Y-5.2705
X1.7559Y-5.4477
X1.7559Y-5.8114
X1.7559Y-5.9886
X3.7106Y-4.1358
X3.7106Y-4.3642
X3.7106Y-4.6858
X3.7106Y-4.9142
X3.7106Y-5.2358
X3.7106Y-5.4642
X3.7106Y-5.7858
X3.7106Y-6.0142
X4.0059Y-4.1614
X4.0059Y-4.3386
X4.0059Y-4.7114
X4.0059Y-4.8886
X4.0059Y-5.2614
X4.0059Y-5.4386
X4.0059Y-5.8114
X4.0059Y-5.9886
T7
X2.9Y-4.1
X2.9Y-6.1
X5.15Y-4.1
X5.15Y-6.1
T0
M30
