M48
; DRILL file {KiCad (6.0.5)} date Wed May 17 00:25:02 2023
; FORMAT={-:-/ absolute / inch / decimal}
; #@! TF.CreationDate,2023-05-17T00:25:02-04:00
; #@! TF.GenerationSoftware,Kicad,Pcbnew,(6.0.5)
; #@! TF.FileFunction,Plated,1,2,PTH
FMAT,2
INCH
; #@! TA.AperFunction,Plated,PTH,ViaDrill
T1C0.0157
; #@! TA.AperFunction,Plated,PTH,ComponentDrill
T2C0.0276
; #@! TA.AperFunction,Plated,PTH,ComponentDrill
T3C0.0315
; #@! TA.AperFunction,Plated,PTH,ComponentDrill
T4C0.0354
; #@! TA.AperFunction,Plated,PTH,ComponentDrill
T5C0.0394
; #@! TA.AperFunction,Plated,PTH,ComponentDrill
T6C0.0472
; #@! TA.AperFunction,Plated,PTH,ViaDrill
T7C0.1181
%
G90
G05
T1
X4.52Y-5.87
X4.64Y-5.75
X4.675Y-5.175
X4.68Y-5.83
X4.7Y-4.6
X4.725Y-5.575
T2
X4.9Y-4.8
X4.9Y-5.5
X5.1Y-4.8
X5.1Y-5.5
T3
X4.5004Y-4.3006
X4.5004Y-4.4006
X4.5004Y-4.5006
X4.5004Y-4.6006
X4.5004Y-4.7006
X4.5004Y-4.8006
X4.5004Y-4.9006
X4.5004Y-5.0006
X4.5004Y-5.1998
X4.5004Y-5.2998
X4.5004Y-5.3998
X4.5004Y-5.4998
X4.5004Y-5.5998
X4.5004Y-5.6998
X4.5004Y-5.7998
X4.8004Y-4.3006
X4.8004Y-4.4006
X4.8004Y-4.5006
X4.8004Y-4.6006
X4.8004Y-4.7006
X4.8004Y-4.8006
X4.8004Y-4.9006
X4.8004Y-5.0006
X4.8004Y-5.1998
X4.8004Y-5.2998
X4.8004Y-5.3998
X4.8004Y-5.4998
X4.8004Y-5.5998
X4.8004Y-5.6998
X4.8004Y-5.7998
X4.9016Y-5.7
X5.0Y-5.7
T4
X4.2228Y-4.1016
X4.2228Y-4.2984
X4.2287Y-4.9
X4.3213Y-4.2
X4.3272Y-4.8016
X4.3272Y-4.9984
X4.9Y-4.1016
X4.9Y-4.2984
X4.9984Y-4.2
T5
X4.2Y-6.0
X4.3Y-6.0
X4.4Y-6.0
X4.5Y-6.0
X4.6Y-6.0
X4.7Y-6.0
X4.8Y-6.0
T6
X3.7106Y-4.1358
X3.7106Y-4.3642
X3.7106Y-4.6858
X3.7106Y-4.9142
X3.7106Y-5.2358
X3.7106Y-5.4642
X3.7106Y-5.7858
X3.7106Y-6.0142
X4.0059Y-4.1614
X4.0059Y-4.3386
X4.0059Y-4.7114
X4.0059Y-4.8886
X4.0059Y-5.2614
X4.0059Y-5.4386
X4.0059Y-5.8114
X4.0059Y-5.9886
T7
X5.15Y-4.1
X5.15Y-6.1
T0
M30
