%FSLAX45Y45*%
G04 Gerber Fmt 4.5, Leading zero omitted, Abs format (unit mm)*
G04 Created by KiCad (PCBNEW (6.0.5)) date 2023-05-16 23:55:52*
%MOMM*%
%LPD*%
G01*
G04 APERTURE LIST*
%TA.AperFunction,Profile*%
%ADD10C,0.100000*%
%TD*%
%ADD11C,0.200000*%
%ADD12C,0.040000*%
%ADD13C,0.070000*%
%ADD14C,0.080000*%
%ADD15C,0.090000*%
%ADD16C,0.100000*%
%ADD17C,0.120000*%
%ADD18C,0.300000*%
G04 APERTURE END LIST*
D10*
X3556000Y-10160000D02*
X7620000Y-10160000D01*
X7620000Y-10160000D02*
X7620000Y-15748000D01*
X7620000Y-15748000D02*
X3556000Y-15748000D01*
X3556000Y-15748000D02*
X3556000Y-10160000D01*
X9271000Y-10160000D02*
X13335000Y-10160000D01*
X13335000Y-10160000D02*
X13335000Y-15748000D01*
X13335000Y-15748000D02*
X9271000Y-15748000D01*
X9271000Y-15748000D02*
X9271000Y-10160000D01*
X3556000Y-10160000D02*
X7620000Y-10160000D01*
X7620000Y-10160000D02*
X7620000Y-15748000D01*
X7620000Y-15748000D02*
X3556000Y-15748000D01*
X3556000Y-15748000D02*
X3556000Y-10160000D01*
X9271000Y-10160000D02*
X13335000Y-10160000D01*
X13335000Y-10160000D02*
X13335000Y-15748000D01*
X13335000Y-15748000D02*
X9271000Y-15748000D01*
X9271000Y-15748000D02*
X9271000Y-10160000D01*
D11*
D12*
X6520500Y-12235500D02*
X6560500Y-12275500D01*
X6560500Y-12235500D02*
X6520500Y-12275500D01*
X11460800Y-14889800D02*
X11500800Y-14929800D01*
X11500800Y-14889800D02*
X11460800Y-14929800D01*
X11765600Y-14585000D02*
X11805600Y-14625000D01*
X11805600Y-14585000D02*
X11765600Y-14625000D01*
X11854500Y-13124500D02*
X11894500Y-13164500D01*
X11894500Y-13124500D02*
X11854500Y-13164500D01*
X11867200Y-14788200D02*
X11907200Y-14828200D01*
X11907200Y-14788200D02*
X11867200Y-14828200D01*
X11918000Y-11664000D02*
X11958000Y-11704000D01*
X11958000Y-11664000D02*
X11918000Y-11704000D01*
X11981500Y-14140500D02*
X12021500Y-14180500D01*
X12021500Y-14140500D02*
X11981500Y-14180500D01*
D13*
X4988000Y-12954000D02*
G75*
G03*
X4988000Y-12954000I-35000J0D01*
G01*
X4988000Y-13462000D02*
G75*
G03*
X4988000Y-13462000I-35000J0D01*
G01*
X4988000Y-13716000D02*
G75*
G03*
X4988000Y-13716000I-35000J0D01*
G01*
X5496000Y-12954000D02*
G75*
G03*
X5496000Y-12954000I-35000J0D01*
G01*
X5496000Y-13462000D02*
G75*
G03*
X5496000Y-13462000I-35000J0D01*
G01*
X5496000Y-13716000D02*
G75*
G03*
X5496000Y-13716000I-35000J0D01*
G01*
X5623000Y-11684000D02*
G75*
G03*
X5623000Y-11684000I-35000J0D01*
G01*
X5623000Y-12192000D02*
G75*
G03*
X5623000Y-12192000I-35000J0D01*
G01*
X6131000Y-11684000D02*
G75*
G03*
X6131000Y-11684000I-35000J0D01*
G01*
X6131000Y-12192000D02*
G75*
G03*
X6131000Y-12192000I-35000J0D01*
G01*
X6766000Y-12192000D02*
G75*
G03*
X6766000Y-12192000I-35000J0D01*
G01*
X6766000Y-12700000D02*
G75*
G03*
X6766000Y-12700000I-35000J0D01*
G01*
X7274000Y-13462000D02*
G75*
G03*
X7274000Y-13462000I-35000J0D01*
G01*
X7274000Y-13970000D02*
G75*
G03*
X7274000Y-13970000I-35000J0D01*
G01*
X7528000Y-13462000D02*
G75*
G03*
X7528000Y-13462000I-35000J0D01*
G01*
X7528000Y-13970000D02*
G75*
G03*
X7528000Y-13970000I-35000J0D01*
G01*
X12481000Y-12192000D02*
G75*
G03*
X12481000Y-12192000I-35000J0D01*
G01*
X12481000Y-13970000D02*
G75*
G03*
X12481000Y-13970000I-35000J0D01*
G01*
X12989000Y-12192000D02*
G75*
G03*
X12989000Y-12192000I-35000J0D01*
G01*
X12989000Y-13970000D02*
G75*
G03*
X12989000Y-13970000I-35000J0D01*
G01*
D14*
X5716000Y-12661500D02*
X5716000Y-12741500D01*
X5676000Y-12701500D02*
X5756000Y-12701500D01*
X5716000Y-12915500D02*
X5716000Y-12995500D01*
X5676000Y-12955500D02*
X5756000Y-12955500D01*
X5716000Y-13169500D02*
X5716000Y-13249500D01*
X5676000Y-13209500D02*
X5756000Y-13209500D01*
X5716000Y-13423500D02*
X5716000Y-13503500D01*
X5676000Y-13463500D02*
X5756000Y-13463500D01*
X5716000Y-13677500D02*
X5716000Y-13757500D01*
X5676000Y-13717500D02*
X5756000Y-13717500D01*
X5716000Y-13931500D02*
X5716000Y-14011500D01*
X5676000Y-13971500D02*
X5756000Y-13971500D01*
X5716000Y-14185500D02*
X5716000Y-14265500D01*
X5676000Y-14225500D02*
X5756000Y-14225500D01*
X5716000Y-14439500D02*
X5716000Y-14519500D01*
X5676000Y-14479500D02*
X5756000Y-14479500D01*
X6478000Y-12661500D02*
X6478000Y-12741500D01*
X6438000Y-12701500D02*
X6518000Y-12701500D01*
X6478000Y-12915500D02*
X6478000Y-12995500D01*
X6438000Y-12955500D02*
X6518000Y-12955500D01*
X6478000Y-13169500D02*
X6478000Y-13249500D01*
X6438000Y-13209500D02*
X6518000Y-13209500D01*
X6478000Y-13423500D02*
X6478000Y-13503500D01*
X6438000Y-13463500D02*
X6518000Y-13463500D01*
X6478000Y-13677500D02*
X6478000Y-13757500D01*
X6438000Y-13717500D02*
X6518000Y-13717500D01*
X6478000Y-13931500D02*
X6478000Y-14011500D01*
X6438000Y-13971500D02*
X6518000Y-13971500D01*
X6478000Y-14185500D02*
X6478000Y-14265500D01*
X6438000Y-14225500D02*
X6518000Y-14225500D01*
X6478000Y-14439500D02*
X6478000Y-14519500D01*
X6438000Y-14479500D02*
X6518000Y-14479500D01*
X7241000Y-14184000D02*
X7241000Y-14264000D01*
X7201000Y-14224000D02*
X7281000Y-14224000D01*
X7491000Y-14184000D02*
X7491000Y-14264000D01*
X7451000Y-14224000D02*
X7531000Y-14224000D01*
X11431000Y-10883500D02*
X11431000Y-10963500D01*
X11391000Y-10923500D02*
X11471000Y-10923500D01*
X11431000Y-11137500D02*
X11431000Y-11217500D01*
X11391000Y-11177500D02*
X11471000Y-11177500D01*
X11431000Y-11391500D02*
X11431000Y-11471500D01*
X11391000Y-11431500D02*
X11471000Y-11431500D01*
X11431000Y-11645500D02*
X11431000Y-11725500D01*
X11391000Y-11685500D02*
X11471000Y-11685500D01*
X11431000Y-11899500D02*
X11431000Y-11979500D01*
X11391000Y-11939500D02*
X11471000Y-11939500D01*
X11431000Y-12153500D02*
X11431000Y-12233500D01*
X11391000Y-12193500D02*
X11471000Y-12193500D01*
X11431000Y-12407500D02*
X11431000Y-12487500D01*
X11391000Y-12447500D02*
X11471000Y-12447500D01*
X11431000Y-12661500D02*
X11431000Y-12741500D01*
X11391000Y-12701500D02*
X11471000Y-12701500D01*
X11431000Y-13167500D02*
X11431000Y-13247500D01*
X11391000Y-13207500D02*
X11471000Y-13207500D01*
X11431000Y-13421500D02*
X11431000Y-13501500D01*
X11391000Y-13461500D02*
X11471000Y-13461500D01*
X11431000Y-13675500D02*
X11431000Y-13755500D01*
X11391000Y-13715500D02*
X11471000Y-13715500D01*
X11431000Y-13929500D02*
X11431000Y-14009500D01*
X11391000Y-13969500D02*
X11471000Y-13969500D01*
X11431000Y-14183500D02*
X11431000Y-14263500D01*
X11391000Y-14223500D02*
X11471000Y-14223500D01*
X11431000Y-14437500D02*
X11431000Y-14517500D01*
X11391000Y-14477500D02*
X11471000Y-14477500D01*
X11431000Y-14691500D02*
X11431000Y-14771500D01*
X11391000Y-14731500D02*
X11471000Y-14731500D01*
X12193000Y-10883500D02*
X12193000Y-10963500D01*
X12153000Y-10923500D02*
X12233000Y-10923500D01*
X12193000Y-11137500D02*
X12193000Y-11217500D01*
X12153000Y-11177500D02*
X12233000Y-11177500D01*
X12193000Y-11391500D02*
X12193000Y-11471500D01*
X12153000Y-11431500D02*
X12233000Y-11431500D01*
X12193000Y-11645500D02*
X12193000Y-11725500D01*
X12153000Y-11685500D02*
X12233000Y-11685500D01*
X12193000Y-11899500D02*
X12193000Y-11979500D01*
X12153000Y-11939500D02*
X12233000Y-11939500D01*
X12193000Y-12153500D02*
X12193000Y-12233500D01*
X12153000Y-12193500D02*
X12233000Y-12193500D01*
X12193000Y-12407500D02*
X12193000Y-12487500D01*
X12153000Y-12447500D02*
X12233000Y-12447500D01*
X12193000Y-12661500D02*
X12193000Y-12741500D01*
X12153000Y-12701500D02*
X12233000Y-12701500D01*
X12193000Y-13167500D02*
X12193000Y-13247500D01*
X12153000Y-13207500D02*
X12233000Y-13207500D01*
X12193000Y-13421500D02*
X12193000Y-13501500D01*
X12153000Y-13461500D02*
X12233000Y-13461500D01*
X12193000Y-13675500D02*
X12193000Y-13755500D01*
X12153000Y-13715500D02*
X12233000Y-13715500D01*
X12193000Y-13929500D02*
X12193000Y-14009500D01*
X12153000Y-13969500D02*
X12233000Y-13969500D01*
X12193000Y-14183500D02*
X12193000Y-14263500D01*
X12153000Y-14223500D02*
X12233000Y-14223500D01*
X12193000Y-14437500D02*
X12193000Y-14517500D01*
X12153000Y-14477500D02*
X12233000Y-14477500D01*
X12193000Y-14691500D02*
X12193000Y-14771500D01*
X12153000Y-14731500D02*
X12233000Y-14731500D01*
X12450000Y-14438000D02*
X12450000Y-14518000D01*
X12410000Y-14478000D02*
X12490000Y-14478000D01*
X12700000Y-14438000D02*
X12700000Y-14518000D01*
X12660000Y-14478000D02*
X12740000Y-14478000D01*
D15*
X4984820Y-12227820D02*
X4984820Y-12164180D01*
X4921180Y-12164180D01*
X4921180Y-12227820D01*
X4984820Y-12227820D01*
X4984820Y-12727820D02*
X4984820Y-12664180D01*
X4921180Y-12664180D01*
X4921180Y-12727820D01*
X4984820Y-12727820D01*
X4988820Y-14250320D02*
X4988820Y-14186680D01*
X4925180Y-14186680D01*
X4925180Y-14250320D01*
X4988820Y-14250320D01*
X5234820Y-12477820D02*
X5234820Y-12414180D01*
X5171180Y-12414180D01*
X5171180Y-12477820D01*
X5234820Y-12477820D01*
X5238820Y-14500320D02*
X5238820Y-14436680D01*
X5175180Y-14436680D01*
X5175180Y-14500320D01*
X5238820Y-14500320D01*
X5488820Y-14250320D02*
X5488820Y-14186680D01*
X5425180Y-14186680D01*
X5425180Y-14250320D01*
X5488820Y-14250320D01*
X6766820Y-11715820D02*
X6766820Y-11652180D01*
X6703180Y-11652180D01*
X6703180Y-11715820D01*
X6766820Y-11715820D01*
X7016820Y-11965820D02*
X7016820Y-11902180D01*
X6953180Y-11902180D01*
X6953180Y-11965820D01*
X7016820Y-11965820D01*
X7266820Y-11715820D02*
X7266820Y-11652180D01*
X7203180Y-11652180D01*
X7203180Y-11715820D01*
X7266820Y-11715820D01*
X10757820Y-10449820D02*
X10757820Y-10386180D01*
X10694180Y-10386180D01*
X10694180Y-10449820D01*
X10757820Y-10449820D01*
X10757820Y-10949820D02*
X10757820Y-10886180D01*
X10694180Y-10886180D01*
X10694180Y-10949820D01*
X10757820Y-10949820D01*
X10772820Y-12477820D02*
X10772820Y-12414180D01*
X10709180Y-12414180D01*
X10709180Y-12477820D01*
X10772820Y-12477820D01*
X11007820Y-10699820D02*
X11007820Y-10636180D01*
X10944180Y-10636180D01*
X10944180Y-10699820D01*
X11007820Y-10699820D01*
X11022820Y-12227820D02*
X11022820Y-12164180D01*
X10959180Y-12164180D01*
X10959180Y-12227820D01*
X11022820Y-12227820D01*
X11022820Y-12727820D02*
X11022820Y-12664180D01*
X10959180Y-12664180D01*
X10959180Y-12727820D01*
X11022820Y-12727820D01*
X12477820Y-10449820D02*
X12477820Y-10386180D01*
X12414180Y-10386180D01*
X12414180Y-10449820D01*
X12477820Y-10449820D01*
X12477820Y-10949820D02*
X12477820Y-10886180D01*
X12414180Y-10886180D01*
X12414180Y-10949820D01*
X12477820Y-10949820D01*
X12727820Y-10699820D02*
X12727820Y-10636180D01*
X12664180Y-10636180D01*
X12664180Y-10699820D01*
X12727820Y-10699820D01*
D16*
X4762500Y-10654500D02*
X4812500Y-10604500D01*
X4762500Y-10554500D01*
X4712500Y-10604500D01*
X4762500Y-10654500D01*
X4953000Y-14020000D02*
X5003000Y-13970000D01*
X4953000Y-13920000D01*
X4903000Y-13970000D01*
X4953000Y-14020000D01*
X4953000Y-15290000D02*
X5003000Y-15240000D01*
X4953000Y-15190000D01*
X4903000Y-15240000D01*
X4953000Y-15290000D01*
X5080000Y-10718000D02*
X5130000Y-10668000D01*
X5080000Y-10618000D01*
X5030000Y-10668000D01*
X5080000Y-10718000D01*
X5080000Y-10972000D02*
X5130000Y-10922000D01*
X5080000Y-10872000D01*
X5030000Y-10922000D01*
X5080000Y-10972000D01*
X5080000Y-11480000D02*
X5130000Y-11430000D01*
X5080000Y-11380000D01*
X5030000Y-11430000D01*
X5080000Y-11480000D01*
X5207000Y-15290000D02*
X5257000Y-15240000D01*
X5207000Y-15190000D01*
X5157000Y-15240000D01*
X5207000Y-15290000D01*
X5334000Y-10718000D02*
X5384000Y-10668000D01*
X5334000Y-10618000D01*
X5284000Y-10668000D01*
X5334000Y-10718000D01*
X5334000Y-10972000D02*
X5384000Y-10922000D01*
X5334000Y-10872000D01*
X5284000Y-10922000D01*
X5334000Y-10972000D01*
X5334000Y-11480000D02*
X5384000Y-11430000D01*
X5334000Y-11380000D01*
X5284000Y-11430000D01*
X5334000Y-11480000D01*
X5334000Y-11734000D02*
X5384000Y-11684000D01*
X5334000Y-11634000D01*
X5284000Y-11684000D01*
X5334000Y-11734000D01*
X5334000Y-11988000D02*
X5384000Y-11938000D01*
X5334000Y-11888000D01*
X5284000Y-11938000D01*
X5334000Y-11988000D01*
X5461000Y-15290000D02*
X5511000Y-15240000D01*
X5461000Y-15190000D01*
X5411000Y-15240000D01*
X5461000Y-15290000D01*
X5588000Y-10718000D02*
X5638000Y-10668000D01*
X5588000Y-10618000D01*
X5538000Y-10668000D01*
X5588000Y-10718000D01*
X5588000Y-10972000D02*
X5638000Y-10922000D01*
X5588000Y-10872000D01*
X5538000Y-10922000D01*
X5588000Y-10972000D01*
X5588000Y-11480000D02*
X5638000Y-11430000D01*
X5588000Y-11380000D01*
X5538000Y-11430000D01*
X5588000Y-11480000D01*
X5715000Y-15290000D02*
X5765000Y-15240000D01*
X5715000Y-15190000D01*
X5665000Y-15240000D01*
X5715000Y-15290000D01*
X5842000Y-10718000D02*
X5892000Y-10668000D01*
X5842000Y-10618000D01*
X5792000Y-10668000D01*
X5842000Y-10718000D01*
X5842000Y-10972000D02*
X5892000Y-10922000D01*
X5842000Y-10872000D01*
X5792000Y-10922000D01*
X5842000Y-10972000D01*
X5842000Y-11480000D02*
X5892000Y-11430000D01*
X5842000Y-11380000D01*
X5792000Y-11430000D01*
X5842000Y-11480000D01*
X5969000Y-15290000D02*
X6019000Y-15240000D01*
X5969000Y-15190000D01*
X5919000Y-15240000D01*
X5969000Y-15290000D01*
X6096000Y-10718000D02*
X6146000Y-10668000D01*
X6096000Y-10618000D01*
X6046000Y-10668000D01*
X6096000Y-10718000D01*
X6096000Y-10972000D02*
X6146000Y-10922000D01*
X6096000Y-10872000D01*
X6046000Y-10922000D01*
X6096000Y-10972000D01*
X6096000Y-11480000D02*
X6146000Y-11430000D01*
X6096000Y-11380000D01*
X6046000Y-11430000D01*
X6096000Y-11480000D01*
X6223000Y-15290000D02*
X6273000Y-15240000D01*
X6223000Y-15190000D01*
X6173000Y-15240000D01*
X6223000Y-15290000D01*
X6350000Y-11480000D02*
X6400000Y-11430000D01*
X6350000Y-11380000D01*
X6300000Y-11430000D01*
X6350000Y-11480000D01*
X6477000Y-15290000D02*
X6527000Y-15240000D01*
X6477000Y-15190000D01*
X6427000Y-15240000D01*
X6477000Y-15290000D01*
X7239000Y-14528000D02*
X7289000Y-14478000D01*
X7239000Y-14428000D01*
X7189000Y-14478000D01*
X7239000Y-14528000D01*
X10668000Y-15290000D02*
X10718000Y-15240000D01*
X10668000Y-15190000D01*
X10618000Y-15240000D01*
X10668000Y-15290000D01*
X10922000Y-15290000D02*
X10972000Y-15240000D01*
X10922000Y-15190000D01*
X10872000Y-15240000D01*
X10922000Y-15290000D01*
X11176000Y-15290000D02*
X11226000Y-15240000D01*
X11176000Y-15190000D01*
X11126000Y-15240000D01*
X11176000Y-15290000D01*
X11430000Y-15290000D02*
X11480000Y-15240000D01*
X11430000Y-15190000D01*
X11380000Y-15240000D01*
X11430000Y-15290000D01*
X11684000Y-15290000D02*
X11734000Y-15240000D01*
X11684000Y-15190000D01*
X11634000Y-15240000D01*
X11684000Y-15290000D01*
X11938000Y-15290000D02*
X11988000Y-15240000D01*
X11938000Y-15190000D01*
X11888000Y-15240000D01*
X11938000Y-15290000D01*
X12192000Y-15290000D02*
X12242000Y-15240000D01*
X12192000Y-15190000D01*
X12142000Y-15240000D01*
X12192000Y-15290000D01*
D17*
X3650000Y-10445000D02*
X3770000Y-10565000D01*
X3770000Y-10445000D02*
X3650000Y-10565000D01*
X3770000Y-10505000D02*
G75*
G03*
X3770000Y-10505000I-60000J0D01*
G01*
X3650000Y-11025000D02*
X3770000Y-11145000D01*
X3770000Y-11025000D02*
X3650000Y-11145000D01*
X3770000Y-11085000D02*
G75*
G03*
X3770000Y-11085000I-60000J0D01*
G01*
X3650000Y-11865048D02*
X3770000Y-11985048D01*
X3770000Y-11865048D02*
X3650000Y-11985048D01*
X3770000Y-11925048D02*
G75*
G03*
X3770000Y-11925048I-60000J0D01*
G01*
X3650000Y-12445048D02*
X3770000Y-12565048D01*
X3770000Y-12445048D02*
X3650000Y-12565048D01*
X3770000Y-12505048D02*
G75*
G03*
X3770000Y-12505048I-60000J0D01*
G01*
X3650000Y-13262048D02*
X3770000Y-13382048D01*
X3770000Y-13262048D02*
X3650000Y-13382048D01*
X3770000Y-13322048D02*
G75*
G03*
X3770000Y-13322048I-60000J0D01*
G01*
X3650000Y-13842048D02*
X3770000Y-13962048D01*
X3770000Y-13842048D02*
X3650000Y-13962048D01*
X3770000Y-13902048D02*
G75*
G03*
X3770000Y-13902048I-60000J0D01*
G01*
X3650000Y-14636000D02*
X3770000Y-14756000D01*
X3770000Y-14636000D02*
X3650000Y-14756000D01*
X3770000Y-14696000D02*
G75*
G03*
X3770000Y-14696000I-60000J0D01*
G01*
X3650000Y-15216000D02*
X3770000Y-15336000D01*
X3770000Y-15216000D02*
X3650000Y-15336000D01*
X3770000Y-15276000D02*
G75*
G03*
X3770000Y-15276000I-60000J0D01*
G01*
X4400000Y-10510000D02*
X4520000Y-10630000D01*
X4520000Y-10510000D02*
X4400000Y-10630000D01*
X4520000Y-10570000D02*
G75*
G03*
X4520000Y-10570000I-60000J0D01*
G01*
X4400000Y-10960000D02*
X4520000Y-11080000D01*
X4520000Y-10960000D02*
X4400000Y-11080000D01*
X4520000Y-11020000D02*
G75*
G03*
X4520000Y-11020000I-60000J0D01*
G01*
X4400000Y-11930048D02*
X4520000Y-12050048D01*
X4520000Y-11930048D02*
X4400000Y-12050048D01*
X4520000Y-11990048D02*
G75*
G03*
X4520000Y-11990048I-60000J0D01*
G01*
X4400000Y-12380048D02*
X4520000Y-12500048D01*
X4520000Y-12380048D02*
X4400000Y-12500048D01*
X4520000Y-12440048D02*
G75*
G03*
X4520000Y-12440048I-60000J0D01*
G01*
X4400000Y-13327048D02*
X4520000Y-13447048D01*
X4520000Y-13327048D02*
X4400000Y-13447048D01*
X4520000Y-13387048D02*
G75*
G03*
X4520000Y-13387048I-60000J0D01*
G01*
X4400000Y-13777048D02*
X4520000Y-13897048D01*
X4520000Y-13777048D02*
X4400000Y-13897048D01*
X4520000Y-13837048D02*
G75*
G03*
X4520000Y-13837048I-60000J0D01*
G01*
X4400000Y-14701000D02*
X4520000Y-14821000D01*
X4520000Y-14701000D02*
X4400000Y-14821000D01*
X4520000Y-14761000D02*
G75*
G03*
X4520000Y-14761000I-60000J0D01*
G01*
X4400000Y-15151000D02*
X4520000Y-15271000D01*
X4520000Y-15151000D02*
X4400000Y-15271000D01*
X4520000Y-15211000D02*
G75*
G03*
X4520000Y-15211000I-60000J0D01*
G01*
X9365000Y-10445000D02*
X9485000Y-10565000D01*
X9485000Y-10445000D02*
X9365000Y-10565000D01*
X9485000Y-10505000D02*
G75*
G03*
X9485000Y-10505000I-60000J0D01*
G01*
X9365000Y-11025000D02*
X9485000Y-11145000D01*
X9485000Y-11025000D02*
X9365000Y-11145000D01*
X9485000Y-11085000D02*
G75*
G03*
X9485000Y-11085000I-60000J0D01*
G01*
X9365000Y-11842000D02*
X9485000Y-11962000D01*
X9485000Y-11842000D02*
X9365000Y-11962000D01*
X9485000Y-11902000D02*
G75*
G03*
X9485000Y-11902000I-60000J0D01*
G01*
X9365000Y-12422000D02*
X9485000Y-12542000D01*
X9485000Y-12422000D02*
X9365000Y-12542000D01*
X9485000Y-12482000D02*
G75*
G03*
X9485000Y-12482000I-60000J0D01*
G01*
X9365000Y-13239000D02*
X9485000Y-13359000D01*
X9485000Y-13239000D02*
X9365000Y-13359000D01*
X9485000Y-13299000D02*
G75*
G03*
X9485000Y-13299000I-60000J0D01*
G01*
X9365000Y-13819000D02*
X9485000Y-13939000D01*
X9485000Y-13819000D02*
X9365000Y-13939000D01*
X9485000Y-13879000D02*
G75*
G03*
X9485000Y-13879000I-60000J0D01*
G01*
X9365000Y-14636000D02*
X9485000Y-14756000D01*
X9485000Y-14636000D02*
X9365000Y-14756000D01*
X9485000Y-14696000D02*
G75*
G03*
X9485000Y-14696000I-60000J0D01*
G01*
X9365000Y-15216000D02*
X9485000Y-15336000D01*
X9485000Y-15216000D02*
X9365000Y-15336000D01*
X9485000Y-15276000D02*
G75*
G03*
X9485000Y-15276000I-60000J0D01*
G01*
X10115000Y-10510000D02*
X10235000Y-10630000D01*
X10235000Y-10510000D02*
X10115000Y-10630000D01*
X10235000Y-10570000D02*
G75*
G03*
X10235000Y-10570000I-60000J0D01*
G01*
X10115000Y-10960000D02*
X10235000Y-11080000D01*
X10235000Y-10960000D02*
X10115000Y-11080000D01*
X10235000Y-11020000D02*
G75*
G03*
X10235000Y-11020000I-60000J0D01*
G01*
X10115000Y-11907000D02*
X10235000Y-12027000D01*
X10235000Y-11907000D02*
X10115000Y-12027000D01*
X10235000Y-11967000D02*
G75*
G03*
X10235000Y-11967000I-60000J0D01*
G01*
X10115000Y-12357000D02*
X10235000Y-12477000D01*
X10235000Y-12357000D02*
X10115000Y-12477000D01*
X10235000Y-12417000D02*
G75*
G03*
X10235000Y-12417000I-60000J0D01*
G01*
X10115000Y-13304000D02*
X10235000Y-13424000D01*
X10235000Y-13304000D02*
X10115000Y-13424000D01*
X10235000Y-13364000D02*
G75*
G03*
X10235000Y-13364000I-60000J0D01*
G01*
X10115000Y-13754000D02*
X10235000Y-13874000D01*
X10235000Y-13754000D02*
X10115000Y-13874000D01*
X10235000Y-13814000D02*
G75*
G03*
X10235000Y-13814000I-60000J0D01*
G01*
X10115000Y-14701000D02*
X10235000Y-14821000D01*
X10235000Y-14701000D02*
X10115000Y-14821000D01*
X10235000Y-14761000D02*
G75*
G03*
X10235000Y-14761000I-60000J0D01*
G01*
X10115000Y-15151000D02*
X10235000Y-15271000D01*
X10235000Y-15151000D02*
X10115000Y-15271000D01*
X10235000Y-15211000D02*
G75*
G03*
X10235000Y-15211000I-60000J0D01*
G01*
D18*
X7216000Y-10264000D02*
X7516000Y-10564000D01*
X7516000Y-10264000D02*
X7216000Y-10564000D01*
X7366000Y-10264000D02*
X7366000Y-10564000D01*
X7216000Y-10414000D02*
X7516000Y-10414000D01*
X7216000Y-15344000D02*
X7516000Y-15644000D01*
X7516000Y-15344000D02*
X7216000Y-15644000D01*
X7366000Y-15344000D02*
X7366000Y-15644000D01*
X7216000Y-15494000D02*
X7516000Y-15494000D01*
X12931000Y-10264000D02*
X13231000Y-10564000D01*
X13231000Y-10264000D02*
X12931000Y-10564000D01*
X13081000Y-10264000D02*
X13081000Y-10564000D01*
X12931000Y-10414000D02*
X13231000Y-10414000D01*
X12931000Y-15344000D02*
X13231000Y-15644000D01*
X13231000Y-15344000D02*
X12931000Y-15644000D01*
X13081000Y-15344000D02*
X13081000Y-15644000D01*
X12931000Y-15494000D02*
X13231000Y-15494000D01*
D11*
X3808619Y-16063476D02*
X3808619Y-15863476D01*
X3856238Y-15863476D01*
X3884809Y-15873000D01*
X3903857Y-15892048D01*
X3913381Y-15911095D01*
X3922905Y-15949190D01*
X3922905Y-15977762D01*
X3913381Y-16015857D01*
X3903857Y-16034905D01*
X3884809Y-16053952D01*
X3856238Y-16063476D01*
X3808619Y-16063476D01*
X4008619Y-16063476D02*
X4008619Y-15930143D01*
X4008619Y-15968238D02*
X4018143Y-15949190D01*
X4027667Y-15939667D01*
X4046714Y-15930143D01*
X4065762Y-15930143D01*
X4132428Y-16063476D02*
X4132428Y-15930143D01*
X4132428Y-15863476D02*
X4122905Y-15873000D01*
X4132428Y-15882524D01*
X4141952Y-15873000D01*
X4132428Y-15863476D01*
X4132428Y-15882524D01*
X4256238Y-16063476D02*
X4237190Y-16053952D01*
X4227667Y-16034905D01*
X4227667Y-15863476D01*
X4361000Y-16063476D02*
X4341952Y-16053952D01*
X4332429Y-16034905D01*
X4332429Y-15863476D01*
X4589571Y-16063476D02*
X4589571Y-15863476D01*
X4656238Y-16006333D01*
X4722905Y-15863476D01*
X4722905Y-16063476D01*
X4903857Y-16063476D02*
X4903857Y-15958714D01*
X4894333Y-15939667D01*
X4875286Y-15930143D01*
X4837190Y-15930143D01*
X4818143Y-15939667D01*
X4903857Y-16053952D02*
X4884810Y-16063476D01*
X4837190Y-16063476D01*
X4818143Y-16053952D01*
X4808619Y-16034905D01*
X4808619Y-16015857D01*
X4818143Y-15996809D01*
X4837190Y-15987286D01*
X4884810Y-15987286D01*
X4903857Y-15977762D01*
X4999095Y-15930143D02*
X4999095Y-16130143D01*
X4999095Y-15939667D02*
X5018143Y-15930143D01*
X5056238Y-15930143D01*
X5075286Y-15939667D01*
X5084810Y-15949190D01*
X5094333Y-15968238D01*
X5094333Y-16025381D01*
X5084810Y-16044428D01*
X5075286Y-16053952D01*
X5056238Y-16063476D01*
X5018143Y-16063476D01*
X4999095Y-16053952D01*
X5180048Y-16044428D02*
X5189571Y-16053952D01*
X5180048Y-16063476D01*
X5170524Y-16053952D01*
X5180048Y-16044428D01*
X5180048Y-16063476D01*
X5180048Y-15939667D02*
X5189571Y-15949190D01*
X5180048Y-15958714D01*
X5170524Y-15949190D01*
X5180048Y-15939667D01*
X5180048Y-15958714D01*
D12*
X3511000Y-16373000D02*
X3551000Y-16413000D01*
X3551000Y-16373000D02*
X3511000Y-16413000D01*
D11*
X3846714Y-16283476D02*
X3865762Y-16283476D01*
X3884809Y-16293000D01*
X3894333Y-16302524D01*
X3903857Y-16321571D01*
X3913381Y-16359667D01*
X3913381Y-16407286D01*
X3903857Y-16445381D01*
X3894333Y-16464428D01*
X3884809Y-16473952D01*
X3865762Y-16483476D01*
X3846714Y-16483476D01*
X3827667Y-16473952D01*
X3818143Y-16464428D01*
X3808619Y-16445381D01*
X3799095Y-16407286D01*
X3799095Y-16359667D01*
X3808619Y-16321571D01*
X3818143Y-16302524D01*
X3827667Y-16293000D01*
X3846714Y-16283476D01*
X3999095Y-16464428D02*
X4008619Y-16473952D01*
X3999095Y-16483476D01*
X3989571Y-16473952D01*
X3999095Y-16464428D01*
X3999095Y-16483476D01*
X4180048Y-16350143D02*
X4180048Y-16483476D01*
X4132428Y-16273952D02*
X4084809Y-16416809D01*
X4208619Y-16416809D01*
X4322905Y-16283476D02*
X4341952Y-16283476D01*
X4361000Y-16293000D01*
X4370524Y-16302524D01*
X4380048Y-16321571D01*
X4389571Y-16359667D01*
X4389571Y-16407286D01*
X4380048Y-16445381D01*
X4370524Y-16464428D01*
X4361000Y-16473952D01*
X4341952Y-16483476D01*
X4322905Y-16483476D01*
X4303857Y-16473952D01*
X4294333Y-16464428D01*
X4284810Y-16445381D01*
X4275286Y-16407286D01*
X4275286Y-16359667D01*
X4284810Y-16321571D01*
X4294333Y-16302524D01*
X4303857Y-16293000D01*
X4322905Y-16283476D01*
X4513381Y-16283476D02*
X4532429Y-16283476D01*
X4551476Y-16293000D01*
X4561000Y-16302524D01*
X4570524Y-16321571D01*
X4580048Y-16359667D01*
X4580048Y-16407286D01*
X4570524Y-16445381D01*
X4561000Y-16464428D01*
X4551476Y-16473952D01*
X4532429Y-16483476D01*
X4513381Y-16483476D01*
X4494333Y-16473952D01*
X4484810Y-16464428D01*
X4475286Y-16445381D01*
X4465762Y-16407286D01*
X4465762Y-16359667D01*
X4475286Y-16321571D01*
X4484810Y-16302524D01*
X4494333Y-16293000D01*
X4513381Y-16283476D01*
X4665762Y-16483476D02*
X4665762Y-16350143D01*
X4665762Y-16369190D02*
X4675286Y-16359667D01*
X4694333Y-16350143D01*
X4722905Y-16350143D01*
X4741952Y-16359667D01*
X4751476Y-16378714D01*
X4751476Y-16483476D01*
X4751476Y-16378714D02*
X4761000Y-16359667D01*
X4780048Y-16350143D01*
X4808619Y-16350143D01*
X4827667Y-16359667D01*
X4837190Y-16378714D01*
X4837190Y-16483476D01*
X4932429Y-16483476D02*
X4932429Y-16350143D01*
X4932429Y-16369190D02*
X4941952Y-16359667D01*
X4961000Y-16350143D01*
X4989571Y-16350143D01*
X5008619Y-16359667D01*
X5018143Y-16378714D01*
X5018143Y-16483476D01*
X5018143Y-16378714D02*
X5027667Y-16359667D01*
X5046714Y-16350143D01*
X5075286Y-16350143D01*
X5094333Y-16359667D01*
X5103857Y-16378714D01*
X5103857Y-16483476D01*
X5494333Y-16273952D02*
X5322905Y-16531095D01*
X5751476Y-16283476D02*
X5770524Y-16283476D01*
X5789571Y-16293000D01*
X5799095Y-16302524D01*
X5808619Y-16321571D01*
X5818143Y-16359667D01*
X5818143Y-16407286D01*
X5808619Y-16445381D01*
X5799095Y-16464428D01*
X5789571Y-16473952D01*
X5770524Y-16483476D01*
X5751476Y-16483476D01*
X5732428Y-16473952D01*
X5722905Y-16464428D01*
X5713381Y-16445381D01*
X5703857Y-16407286D01*
X5703857Y-16359667D01*
X5713381Y-16321571D01*
X5722905Y-16302524D01*
X5732428Y-16293000D01*
X5751476Y-16283476D01*
X5903857Y-16464428D02*
X5913381Y-16473952D01*
X5903857Y-16483476D01*
X5894333Y-16473952D01*
X5903857Y-16464428D01*
X5903857Y-16483476D01*
X6037190Y-16283476D02*
X6056238Y-16283476D01*
X6075286Y-16293000D01*
X6084809Y-16302524D01*
X6094333Y-16321571D01*
X6103857Y-16359667D01*
X6103857Y-16407286D01*
X6094333Y-16445381D01*
X6084809Y-16464428D01*
X6075286Y-16473952D01*
X6056238Y-16483476D01*
X6037190Y-16483476D01*
X6018143Y-16473952D01*
X6008619Y-16464428D01*
X5999095Y-16445381D01*
X5989571Y-16407286D01*
X5989571Y-16359667D01*
X5999095Y-16321571D01*
X6008619Y-16302524D01*
X6018143Y-16293000D01*
X6037190Y-16283476D01*
X6294333Y-16483476D02*
X6180048Y-16483476D01*
X6237190Y-16483476D02*
X6237190Y-16283476D01*
X6218143Y-16312048D01*
X6199095Y-16331095D01*
X6180048Y-16340619D01*
X6475286Y-16283476D02*
X6380048Y-16283476D01*
X6370524Y-16378714D01*
X6380048Y-16369190D01*
X6399095Y-16359667D01*
X6446714Y-16359667D01*
X6465762Y-16369190D01*
X6475286Y-16378714D01*
X6484809Y-16397762D01*
X6484809Y-16445381D01*
X6475286Y-16464428D01*
X6465762Y-16473952D01*
X6446714Y-16483476D01*
X6399095Y-16483476D01*
X6380048Y-16473952D01*
X6370524Y-16464428D01*
X6551476Y-16283476D02*
X6684809Y-16283476D01*
X6599095Y-16483476D01*
X6751476Y-16283476D02*
X6751476Y-16321571D01*
X6827667Y-16283476D02*
X6827667Y-16321571D01*
X7122905Y-16559667D02*
X7113381Y-16550143D01*
X7094333Y-16521571D01*
X7084809Y-16502524D01*
X7075286Y-16473952D01*
X7065762Y-16426333D01*
X7065762Y-16388238D01*
X7075286Y-16340619D01*
X7084809Y-16312048D01*
X7094333Y-16293000D01*
X7113381Y-16264428D01*
X7122905Y-16254905D01*
X7180048Y-16283476D02*
X7313381Y-16283476D01*
X7227667Y-16483476D01*
X7541952Y-16483476D02*
X7541952Y-16283476D01*
X7627667Y-16483476D02*
X7627667Y-16378714D01*
X7618143Y-16359667D01*
X7599095Y-16350143D01*
X7570524Y-16350143D01*
X7551476Y-16359667D01*
X7541952Y-16369190D01*
X7751476Y-16483476D02*
X7732428Y-16473952D01*
X7722905Y-16464428D01*
X7713381Y-16445381D01*
X7713381Y-16388238D01*
X7722905Y-16369190D01*
X7732428Y-16359667D01*
X7751476Y-16350143D01*
X7780048Y-16350143D01*
X7799095Y-16359667D01*
X7808619Y-16369190D01*
X7818143Y-16388238D01*
X7818143Y-16445381D01*
X7808619Y-16464428D01*
X7799095Y-16473952D01*
X7780048Y-16483476D01*
X7751476Y-16483476D01*
X7932428Y-16483476D02*
X7913381Y-16473952D01*
X7903857Y-16454905D01*
X7903857Y-16283476D01*
X8084809Y-16473952D02*
X8065762Y-16483476D01*
X8027667Y-16483476D01*
X8008619Y-16473952D01*
X7999095Y-16454905D01*
X7999095Y-16378714D01*
X8008619Y-16359667D01*
X8027667Y-16350143D01*
X8065762Y-16350143D01*
X8084809Y-16359667D01*
X8094333Y-16378714D01*
X8094333Y-16397762D01*
X7999095Y-16416809D01*
X8170524Y-16473952D02*
X8189571Y-16483476D01*
X8227667Y-16483476D01*
X8246714Y-16473952D01*
X8256238Y-16454905D01*
X8256238Y-16445381D01*
X8246714Y-16426333D01*
X8227667Y-16416809D01*
X8199095Y-16416809D01*
X8180048Y-16407286D01*
X8170524Y-16388238D01*
X8170524Y-16378714D01*
X8180048Y-16359667D01*
X8199095Y-16350143D01*
X8227667Y-16350143D01*
X8246714Y-16359667D01*
X8322905Y-16559667D02*
X8332428Y-16550143D01*
X8351476Y-16521571D01*
X8361000Y-16502524D01*
X8370524Y-16473952D01*
X8380048Y-16426333D01*
X8380048Y-16388238D01*
X8370524Y-16340619D01*
X8361000Y-16312048D01*
X8351476Y-16293000D01*
X8332428Y-16264428D01*
X8322905Y-16254905D01*
D13*
X3551000Y-16657000D02*
G75*
G03*
X3551000Y-16657000I-35000J0D01*
G01*
D11*
X3846714Y-16547476D02*
X3865762Y-16547476D01*
X3884809Y-16557000D01*
X3894333Y-16566524D01*
X3903857Y-16585571D01*
X3913381Y-16623667D01*
X3913381Y-16671286D01*
X3903857Y-16709381D01*
X3894333Y-16728428D01*
X3884809Y-16737952D01*
X3865762Y-16747476D01*
X3846714Y-16747476D01*
X3827667Y-16737952D01*
X3818143Y-16728428D01*
X3808619Y-16709381D01*
X3799095Y-16671286D01*
X3799095Y-16623667D01*
X3808619Y-16585571D01*
X3818143Y-16566524D01*
X3827667Y-16557000D01*
X3846714Y-16547476D01*
X3999095Y-16728428D02*
X4008619Y-16737952D01*
X3999095Y-16747476D01*
X3989571Y-16737952D01*
X3999095Y-16728428D01*
X3999095Y-16747476D01*
X4075286Y-16547476D02*
X4208619Y-16547476D01*
X4122905Y-16747476D01*
X4322905Y-16547476D02*
X4341952Y-16547476D01*
X4361000Y-16557000D01*
X4370524Y-16566524D01*
X4380048Y-16585571D01*
X4389571Y-16623667D01*
X4389571Y-16671286D01*
X4380048Y-16709381D01*
X4370524Y-16728428D01*
X4361000Y-16737952D01*
X4341952Y-16747476D01*
X4322905Y-16747476D01*
X4303857Y-16737952D01*
X4294333Y-16728428D01*
X4284810Y-16709381D01*
X4275286Y-16671286D01*
X4275286Y-16623667D01*
X4284810Y-16585571D01*
X4294333Y-16566524D01*
X4303857Y-16557000D01*
X4322905Y-16547476D01*
X4513381Y-16547476D02*
X4532429Y-16547476D01*
X4551476Y-16557000D01*
X4561000Y-16566524D01*
X4570524Y-16585571D01*
X4580048Y-16623667D01*
X4580048Y-16671286D01*
X4570524Y-16709381D01*
X4561000Y-16728428D01*
X4551476Y-16737952D01*
X4532429Y-16747476D01*
X4513381Y-16747476D01*
X4494333Y-16737952D01*
X4484810Y-16728428D01*
X4475286Y-16709381D01*
X4465762Y-16671286D01*
X4465762Y-16623667D01*
X4475286Y-16585571D01*
X4484810Y-16566524D01*
X4494333Y-16557000D01*
X4513381Y-16547476D01*
X4665762Y-16747476D02*
X4665762Y-16614143D01*
X4665762Y-16633190D02*
X4675286Y-16623667D01*
X4694333Y-16614143D01*
X4722905Y-16614143D01*
X4741952Y-16623667D01*
X4751476Y-16642714D01*
X4751476Y-16747476D01*
X4751476Y-16642714D02*
X4761000Y-16623667D01*
X4780048Y-16614143D01*
X4808619Y-16614143D01*
X4827667Y-16623667D01*
X4837190Y-16642714D01*
X4837190Y-16747476D01*
X4932429Y-16747476D02*
X4932429Y-16614143D01*
X4932429Y-16633190D02*
X4941952Y-16623667D01*
X4961000Y-16614143D01*
X4989571Y-16614143D01*
X5008619Y-16623667D01*
X5018143Y-16642714D01*
X5018143Y-16747476D01*
X5018143Y-16642714D02*
X5027667Y-16623667D01*
X5046714Y-16614143D01*
X5075286Y-16614143D01*
X5094333Y-16623667D01*
X5103857Y-16642714D01*
X5103857Y-16747476D01*
X5494333Y-16537952D02*
X5322905Y-16795095D01*
X5751476Y-16547476D02*
X5770524Y-16547476D01*
X5789571Y-16557000D01*
X5799095Y-16566524D01*
X5808619Y-16585571D01*
X5818143Y-16623667D01*
X5818143Y-16671286D01*
X5808619Y-16709381D01*
X5799095Y-16728428D01*
X5789571Y-16737952D01*
X5770524Y-16747476D01*
X5751476Y-16747476D01*
X5732428Y-16737952D01*
X5722905Y-16728428D01*
X5713381Y-16709381D01*
X5703857Y-16671286D01*
X5703857Y-16623667D01*
X5713381Y-16585571D01*
X5722905Y-16566524D01*
X5732428Y-16557000D01*
X5751476Y-16547476D01*
X5903857Y-16728428D02*
X5913381Y-16737952D01*
X5903857Y-16747476D01*
X5894333Y-16737952D01*
X5903857Y-16728428D01*
X5903857Y-16747476D01*
X6037190Y-16547476D02*
X6056238Y-16547476D01*
X6075286Y-16557000D01*
X6084809Y-16566524D01*
X6094333Y-16585571D01*
X6103857Y-16623667D01*
X6103857Y-16671286D01*
X6094333Y-16709381D01*
X6084809Y-16728428D01*
X6075286Y-16737952D01*
X6056238Y-16747476D01*
X6037190Y-16747476D01*
X6018143Y-16737952D01*
X6008619Y-16728428D01*
X5999095Y-16709381D01*
X5989571Y-16671286D01*
X5989571Y-16623667D01*
X5999095Y-16585571D01*
X6008619Y-16566524D01*
X6018143Y-16557000D01*
X6037190Y-16547476D01*
X6180048Y-16566524D02*
X6189571Y-16557000D01*
X6208619Y-16547476D01*
X6256238Y-16547476D01*
X6275286Y-16557000D01*
X6284809Y-16566524D01*
X6294333Y-16585571D01*
X6294333Y-16604619D01*
X6284809Y-16633190D01*
X6170524Y-16747476D01*
X6294333Y-16747476D01*
X6361000Y-16547476D02*
X6494333Y-16547476D01*
X6408619Y-16747476D01*
X6656238Y-16547476D02*
X6618143Y-16547476D01*
X6599095Y-16557000D01*
X6589571Y-16566524D01*
X6570524Y-16595095D01*
X6561000Y-16633190D01*
X6561000Y-16709381D01*
X6570524Y-16728428D01*
X6580048Y-16737952D01*
X6599095Y-16747476D01*
X6637190Y-16747476D01*
X6656238Y-16737952D01*
X6665762Y-16728428D01*
X6675286Y-16709381D01*
X6675286Y-16661762D01*
X6665762Y-16642714D01*
X6656238Y-16633190D01*
X6637190Y-16623667D01*
X6599095Y-16623667D01*
X6580048Y-16633190D01*
X6570524Y-16642714D01*
X6561000Y-16661762D01*
X6751476Y-16547476D02*
X6751476Y-16585571D01*
X6827667Y-16547476D02*
X6827667Y-16585571D01*
X7122905Y-16823667D02*
X7113381Y-16814143D01*
X7094333Y-16785571D01*
X7084809Y-16766524D01*
X7075286Y-16737952D01*
X7065762Y-16690333D01*
X7065762Y-16652238D01*
X7075286Y-16604619D01*
X7084809Y-16576048D01*
X7094333Y-16557000D01*
X7113381Y-16528428D01*
X7122905Y-16518905D01*
X7189571Y-16566524D02*
X7199095Y-16557000D01*
X7218143Y-16547476D01*
X7265762Y-16547476D01*
X7284809Y-16557000D01*
X7294333Y-16566524D01*
X7303857Y-16585571D01*
X7303857Y-16604619D01*
X7294333Y-16633190D01*
X7180048Y-16747476D01*
X7303857Y-16747476D01*
X7427667Y-16547476D02*
X7446714Y-16547476D01*
X7465762Y-16557000D01*
X7475286Y-16566524D01*
X7484809Y-16585571D01*
X7494333Y-16623667D01*
X7494333Y-16671286D01*
X7484809Y-16709381D01*
X7475286Y-16728428D01*
X7465762Y-16737952D01*
X7446714Y-16747476D01*
X7427667Y-16747476D01*
X7408619Y-16737952D01*
X7399095Y-16728428D01*
X7389571Y-16709381D01*
X7380048Y-16671286D01*
X7380048Y-16623667D01*
X7389571Y-16585571D01*
X7399095Y-16566524D01*
X7408619Y-16557000D01*
X7427667Y-16547476D01*
X7732428Y-16747476D02*
X7732428Y-16547476D01*
X7818143Y-16747476D02*
X7818143Y-16642714D01*
X7808619Y-16623667D01*
X7789571Y-16614143D01*
X7761000Y-16614143D01*
X7741952Y-16623667D01*
X7732428Y-16633190D01*
X7941952Y-16747476D02*
X7922905Y-16737952D01*
X7913381Y-16728428D01*
X7903857Y-16709381D01*
X7903857Y-16652238D01*
X7913381Y-16633190D01*
X7922905Y-16623667D01*
X7941952Y-16614143D01*
X7970524Y-16614143D01*
X7989571Y-16623667D01*
X7999095Y-16633190D01*
X8008619Y-16652238D01*
X8008619Y-16709381D01*
X7999095Y-16728428D01*
X7989571Y-16737952D01*
X7970524Y-16747476D01*
X7941952Y-16747476D01*
X8122905Y-16747476D02*
X8103857Y-16737952D01*
X8094333Y-16718905D01*
X8094333Y-16547476D01*
X8275286Y-16737952D02*
X8256238Y-16747476D01*
X8218143Y-16747476D01*
X8199095Y-16737952D01*
X8189571Y-16718905D01*
X8189571Y-16642714D01*
X8199095Y-16623667D01*
X8218143Y-16614143D01*
X8256238Y-16614143D01*
X8275286Y-16623667D01*
X8284809Y-16642714D01*
X8284809Y-16661762D01*
X8189571Y-16680809D01*
X8361000Y-16737952D02*
X8380048Y-16747476D01*
X8418143Y-16747476D01*
X8437190Y-16737952D01*
X8446714Y-16718905D01*
X8446714Y-16709381D01*
X8437190Y-16690333D01*
X8418143Y-16680809D01*
X8389571Y-16680809D01*
X8370524Y-16671286D01*
X8361000Y-16652238D01*
X8361000Y-16642714D01*
X8370524Y-16623667D01*
X8389571Y-16614143D01*
X8418143Y-16614143D01*
X8437190Y-16623667D01*
X8513381Y-16823667D02*
X8522905Y-16814143D01*
X8541952Y-16785571D01*
X8551476Y-16766524D01*
X8561000Y-16737952D01*
X8570524Y-16690333D01*
X8570524Y-16652238D01*
X8561000Y-16604619D01*
X8551476Y-16576048D01*
X8541952Y-16557000D01*
X8522905Y-16528428D01*
X8513381Y-16518905D01*
D14*
X3511000Y-16881000D02*
X3511000Y-16961000D01*
X3471000Y-16921000D02*
X3551000Y-16921000D01*
D11*
X3846714Y-16811476D02*
X3865762Y-16811476D01*
X3884809Y-16821000D01*
X3894333Y-16830524D01*
X3903857Y-16849571D01*
X3913381Y-16887667D01*
X3913381Y-16935286D01*
X3903857Y-16973381D01*
X3894333Y-16992429D01*
X3884809Y-17001952D01*
X3865762Y-17011476D01*
X3846714Y-17011476D01*
X3827667Y-17001952D01*
X3818143Y-16992429D01*
X3808619Y-16973381D01*
X3799095Y-16935286D01*
X3799095Y-16887667D01*
X3808619Y-16849571D01*
X3818143Y-16830524D01*
X3827667Y-16821000D01*
X3846714Y-16811476D01*
X3999095Y-16992429D02*
X4008619Y-17001952D01*
X3999095Y-17011476D01*
X3989571Y-17001952D01*
X3999095Y-16992429D01*
X3999095Y-17011476D01*
X4122905Y-16897190D02*
X4103857Y-16887667D01*
X4094333Y-16878143D01*
X4084809Y-16859095D01*
X4084809Y-16849571D01*
X4094333Y-16830524D01*
X4103857Y-16821000D01*
X4122905Y-16811476D01*
X4161000Y-16811476D01*
X4180048Y-16821000D01*
X4189571Y-16830524D01*
X4199095Y-16849571D01*
X4199095Y-16859095D01*
X4189571Y-16878143D01*
X4180048Y-16887667D01*
X4161000Y-16897190D01*
X4122905Y-16897190D01*
X4103857Y-16906714D01*
X4094333Y-16916238D01*
X4084809Y-16935286D01*
X4084809Y-16973381D01*
X4094333Y-16992429D01*
X4103857Y-17001952D01*
X4122905Y-17011476D01*
X4161000Y-17011476D01*
X4180048Y-17001952D01*
X4189571Y-16992429D01*
X4199095Y-16973381D01*
X4199095Y-16935286D01*
X4189571Y-16916238D01*
X4180048Y-16906714D01*
X4161000Y-16897190D01*
X4322905Y-16811476D02*
X4341952Y-16811476D01*
X4361000Y-16821000D01*
X4370524Y-16830524D01*
X4380048Y-16849571D01*
X4389571Y-16887667D01*
X4389571Y-16935286D01*
X4380048Y-16973381D01*
X4370524Y-16992429D01*
X4361000Y-17001952D01*
X4341952Y-17011476D01*
X4322905Y-17011476D01*
X4303857Y-17001952D01*
X4294333Y-16992429D01*
X4284810Y-16973381D01*
X4275286Y-16935286D01*
X4275286Y-16887667D01*
X4284810Y-16849571D01*
X4294333Y-16830524D01*
X4303857Y-16821000D01*
X4322905Y-16811476D01*
X4513381Y-16811476D02*
X4532429Y-16811476D01*
X4551476Y-16821000D01*
X4561000Y-16830524D01*
X4570524Y-16849571D01*
X4580048Y-16887667D01*
X4580048Y-16935286D01*
X4570524Y-16973381D01*
X4561000Y-16992429D01*
X4551476Y-17001952D01*
X4532429Y-17011476D01*
X4513381Y-17011476D01*
X4494333Y-17001952D01*
X4484810Y-16992429D01*
X4475286Y-16973381D01*
X4465762Y-16935286D01*
X4465762Y-16887667D01*
X4475286Y-16849571D01*
X4484810Y-16830524D01*
X4494333Y-16821000D01*
X4513381Y-16811476D01*
X4665762Y-17011476D02*
X4665762Y-16878143D01*
X4665762Y-16897190D02*
X4675286Y-16887667D01*
X4694333Y-16878143D01*
X4722905Y-16878143D01*
X4741952Y-16887667D01*
X4751476Y-16906714D01*
X4751476Y-17011476D01*
X4751476Y-16906714D02*
X4761000Y-16887667D01*
X4780048Y-16878143D01*
X4808619Y-16878143D01*
X4827667Y-16887667D01*
X4837190Y-16906714D01*
X4837190Y-17011476D01*
X4932429Y-17011476D02*
X4932429Y-16878143D01*
X4932429Y-16897190D02*
X4941952Y-16887667D01*
X4961000Y-16878143D01*
X4989571Y-16878143D01*
X5008619Y-16887667D01*
X5018143Y-16906714D01*
X5018143Y-17011476D01*
X5018143Y-16906714D02*
X5027667Y-16887667D01*
X5046714Y-16878143D01*
X5075286Y-16878143D01*
X5094333Y-16887667D01*
X5103857Y-16906714D01*
X5103857Y-17011476D01*
X5494333Y-16801952D02*
X5322905Y-17059095D01*
X5751476Y-16811476D02*
X5770524Y-16811476D01*
X5789571Y-16821000D01*
X5799095Y-16830524D01*
X5808619Y-16849571D01*
X5818143Y-16887667D01*
X5818143Y-16935286D01*
X5808619Y-16973381D01*
X5799095Y-16992429D01*
X5789571Y-17001952D01*
X5770524Y-17011476D01*
X5751476Y-17011476D01*
X5732428Y-17001952D01*
X5722905Y-16992429D01*
X5713381Y-16973381D01*
X5703857Y-16935286D01*
X5703857Y-16887667D01*
X5713381Y-16849571D01*
X5722905Y-16830524D01*
X5732428Y-16821000D01*
X5751476Y-16811476D01*
X5903857Y-16992429D02*
X5913381Y-17001952D01*
X5903857Y-17011476D01*
X5894333Y-17001952D01*
X5903857Y-16992429D01*
X5903857Y-17011476D01*
X6037190Y-16811476D02*
X6056238Y-16811476D01*
X6075286Y-16821000D01*
X6084809Y-16830524D01*
X6094333Y-16849571D01*
X6103857Y-16887667D01*
X6103857Y-16935286D01*
X6094333Y-16973381D01*
X6084809Y-16992429D01*
X6075286Y-17001952D01*
X6056238Y-17011476D01*
X6037190Y-17011476D01*
X6018143Y-17001952D01*
X6008619Y-16992429D01*
X5999095Y-16973381D01*
X5989571Y-16935286D01*
X5989571Y-16887667D01*
X5999095Y-16849571D01*
X6008619Y-16830524D01*
X6018143Y-16821000D01*
X6037190Y-16811476D01*
X6170524Y-16811476D02*
X6294333Y-16811476D01*
X6227667Y-16887667D01*
X6256238Y-16887667D01*
X6275286Y-16897190D01*
X6284809Y-16906714D01*
X6294333Y-16925762D01*
X6294333Y-16973381D01*
X6284809Y-16992429D01*
X6275286Y-17001952D01*
X6256238Y-17011476D01*
X6199095Y-17011476D01*
X6180048Y-17001952D01*
X6170524Y-16992429D01*
X6484809Y-17011476D02*
X6370524Y-17011476D01*
X6427667Y-17011476D02*
X6427667Y-16811476D01*
X6408619Y-16840048D01*
X6389571Y-16859095D01*
X6370524Y-16868619D01*
X6665762Y-16811476D02*
X6570524Y-16811476D01*
X6561000Y-16906714D01*
X6570524Y-16897190D01*
X6589571Y-16887667D01*
X6637190Y-16887667D01*
X6656238Y-16897190D01*
X6665762Y-16906714D01*
X6675286Y-16925762D01*
X6675286Y-16973381D01*
X6665762Y-16992429D01*
X6656238Y-17001952D01*
X6637190Y-17011476D01*
X6589571Y-17011476D01*
X6570524Y-17001952D01*
X6561000Y-16992429D01*
X6751476Y-16811476D02*
X6751476Y-16849571D01*
X6827667Y-16811476D02*
X6827667Y-16849571D01*
X7122905Y-17087667D02*
X7113381Y-17078143D01*
X7094333Y-17049571D01*
X7084809Y-17030524D01*
X7075286Y-17001952D01*
X7065762Y-16954333D01*
X7065762Y-16916238D01*
X7075286Y-16868619D01*
X7084809Y-16840048D01*
X7094333Y-16821000D01*
X7113381Y-16792429D01*
X7122905Y-16782905D01*
X7294333Y-16811476D02*
X7199095Y-16811476D01*
X7189571Y-16906714D01*
X7199095Y-16897190D01*
X7218143Y-16887667D01*
X7265762Y-16887667D01*
X7284809Y-16897190D01*
X7294333Y-16906714D01*
X7303857Y-16925762D01*
X7303857Y-16973381D01*
X7294333Y-16992429D01*
X7284809Y-17001952D01*
X7265762Y-17011476D01*
X7218143Y-17011476D01*
X7199095Y-17001952D01*
X7189571Y-16992429D01*
X7427667Y-16811476D02*
X7446714Y-16811476D01*
X7465762Y-16821000D01*
X7475286Y-16830524D01*
X7484809Y-16849571D01*
X7494333Y-16887667D01*
X7494333Y-16935286D01*
X7484809Y-16973381D01*
X7475286Y-16992429D01*
X7465762Y-17001952D01*
X7446714Y-17011476D01*
X7427667Y-17011476D01*
X7408619Y-17001952D01*
X7399095Y-16992429D01*
X7389571Y-16973381D01*
X7380048Y-16935286D01*
X7380048Y-16887667D01*
X7389571Y-16849571D01*
X7399095Y-16830524D01*
X7408619Y-16821000D01*
X7427667Y-16811476D01*
X7732428Y-17011476D02*
X7732428Y-16811476D01*
X7818143Y-17011476D02*
X7818143Y-16906714D01*
X7808619Y-16887667D01*
X7789571Y-16878143D01*
X7761000Y-16878143D01*
X7741952Y-16887667D01*
X7732428Y-16897190D01*
X7941952Y-17011476D02*
X7922905Y-17001952D01*
X7913381Y-16992429D01*
X7903857Y-16973381D01*
X7903857Y-16916238D01*
X7913381Y-16897190D01*
X7922905Y-16887667D01*
X7941952Y-16878143D01*
X7970524Y-16878143D01*
X7989571Y-16887667D01*
X7999095Y-16897190D01*
X8008619Y-16916238D01*
X8008619Y-16973381D01*
X7999095Y-16992429D01*
X7989571Y-17001952D01*
X7970524Y-17011476D01*
X7941952Y-17011476D01*
X8122905Y-17011476D02*
X8103857Y-17001952D01*
X8094333Y-16982905D01*
X8094333Y-16811476D01*
X8275286Y-17001952D02*
X8256238Y-17011476D01*
X8218143Y-17011476D01*
X8199095Y-17001952D01*
X8189571Y-16982905D01*
X8189571Y-16906714D01*
X8199095Y-16887667D01*
X8218143Y-16878143D01*
X8256238Y-16878143D01*
X8275286Y-16887667D01*
X8284809Y-16906714D01*
X8284809Y-16925762D01*
X8189571Y-16944810D01*
X8361000Y-17001952D02*
X8380048Y-17011476D01*
X8418143Y-17011476D01*
X8437190Y-17001952D01*
X8446714Y-16982905D01*
X8446714Y-16973381D01*
X8437190Y-16954333D01*
X8418143Y-16944810D01*
X8389571Y-16944810D01*
X8370524Y-16935286D01*
X8361000Y-16916238D01*
X8361000Y-16906714D01*
X8370524Y-16887667D01*
X8389571Y-16878143D01*
X8418143Y-16878143D01*
X8437190Y-16887667D01*
X8513381Y-17087667D02*
X8522905Y-17078143D01*
X8541952Y-17049571D01*
X8551476Y-17030524D01*
X8561000Y-17001952D01*
X8570524Y-16954333D01*
X8570524Y-16916238D01*
X8561000Y-16868619D01*
X8551476Y-16840048D01*
X8541952Y-16821000D01*
X8522905Y-16792429D01*
X8513381Y-16782905D01*
D15*
X3537820Y-17216820D02*
X3537820Y-17153180D01*
X3474180Y-17153180D01*
X3474180Y-17216820D01*
X3537820Y-17216820D01*
D11*
X3846714Y-17075476D02*
X3865762Y-17075476D01*
X3884809Y-17085000D01*
X3894333Y-17094524D01*
X3903857Y-17113571D01*
X3913381Y-17151667D01*
X3913381Y-17199286D01*
X3903857Y-17237381D01*
X3894333Y-17256429D01*
X3884809Y-17265952D01*
X3865762Y-17275476D01*
X3846714Y-17275476D01*
X3827667Y-17265952D01*
X3818143Y-17256429D01*
X3808619Y-17237381D01*
X3799095Y-17199286D01*
X3799095Y-17151667D01*
X3808619Y-17113571D01*
X3818143Y-17094524D01*
X3827667Y-17085000D01*
X3846714Y-17075476D01*
X3999095Y-17256429D02*
X4008619Y-17265952D01*
X3999095Y-17275476D01*
X3989571Y-17265952D01*
X3999095Y-17256429D01*
X3999095Y-17275476D01*
X4103857Y-17275476D02*
X4141952Y-17275476D01*
X4161000Y-17265952D01*
X4170524Y-17256429D01*
X4189571Y-17227857D01*
X4199095Y-17189762D01*
X4199095Y-17113571D01*
X4189571Y-17094524D01*
X4180048Y-17085000D01*
X4161000Y-17075476D01*
X4122905Y-17075476D01*
X4103857Y-17085000D01*
X4094333Y-17094524D01*
X4084809Y-17113571D01*
X4084809Y-17161190D01*
X4094333Y-17180238D01*
X4103857Y-17189762D01*
X4122905Y-17199286D01*
X4161000Y-17199286D01*
X4180048Y-17189762D01*
X4189571Y-17180238D01*
X4199095Y-17161190D01*
X4322905Y-17075476D02*
X4341952Y-17075476D01*
X4361000Y-17085000D01*
X4370524Y-17094524D01*
X4380048Y-17113571D01*
X4389571Y-17151667D01*
X4389571Y-17199286D01*
X4380048Y-17237381D01*
X4370524Y-17256429D01*
X4361000Y-17265952D01*
X4341952Y-17275476D01*
X4322905Y-17275476D01*
X4303857Y-17265952D01*
X4294333Y-17256429D01*
X4284810Y-17237381D01*
X4275286Y-17199286D01*
X4275286Y-17151667D01*
X4284810Y-17113571D01*
X4294333Y-17094524D01*
X4303857Y-17085000D01*
X4322905Y-17075476D01*
X4513381Y-17075476D02*
X4532429Y-17075476D01*
X4551476Y-17085000D01*
X4561000Y-17094524D01*
X4570524Y-17113571D01*
X4580048Y-17151667D01*
X4580048Y-17199286D01*
X4570524Y-17237381D01*
X4561000Y-17256429D01*
X4551476Y-17265952D01*
X4532429Y-17275476D01*
X4513381Y-17275476D01*
X4494333Y-17265952D01*
X4484810Y-17256429D01*
X4475286Y-17237381D01*
X4465762Y-17199286D01*
X4465762Y-17151667D01*
X4475286Y-17113571D01*
X4484810Y-17094524D01*
X4494333Y-17085000D01*
X4513381Y-17075476D01*
X4665762Y-17275476D02*
X4665762Y-17142143D01*
X4665762Y-17161190D02*
X4675286Y-17151667D01*
X4694333Y-17142143D01*
X4722905Y-17142143D01*
X4741952Y-17151667D01*
X4751476Y-17170714D01*
X4751476Y-17275476D01*
X4751476Y-17170714D02*
X4761000Y-17151667D01*
X4780048Y-17142143D01*
X4808619Y-17142143D01*
X4827667Y-17151667D01*
X4837190Y-17170714D01*
X4837190Y-17275476D01*
X4932429Y-17275476D02*
X4932429Y-17142143D01*
X4932429Y-17161190D02*
X4941952Y-17151667D01*
X4961000Y-17142143D01*
X4989571Y-17142143D01*
X5008619Y-17151667D01*
X5018143Y-17170714D01*
X5018143Y-17275476D01*
X5018143Y-17170714D02*
X5027667Y-17151667D01*
X5046714Y-17142143D01*
X5075286Y-17142143D01*
X5094333Y-17151667D01*
X5103857Y-17170714D01*
X5103857Y-17275476D01*
X5494333Y-17065952D02*
X5322905Y-17323095D01*
X5751476Y-17075476D02*
X5770524Y-17075476D01*
X5789571Y-17085000D01*
X5799095Y-17094524D01*
X5808619Y-17113571D01*
X5818143Y-17151667D01*
X5818143Y-17199286D01*
X5808619Y-17237381D01*
X5799095Y-17256429D01*
X5789571Y-17265952D01*
X5770524Y-17275476D01*
X5751476Y-17275476D01*
X5732428Y-17265952D01*
X5722905Y-17256429D01*
X5713381Y-17237381D01*
X5703857Y-17199286D01*
X5703857Y-17151667D01*
X5713381Y-17113571D01*
X5722905Y-17094524D01*
X5732428Y-17085000D01*
X5751476Y-17075476D01*
X5903857Y-17256429D02*
X5913381Y-17265952D01*
X5903857Y-17275476D01*
X5894333Y-17265952D01*
X5903857Y-17256429D01*
X5903857Y-17275476D01*
X6037190Y-17075476D02*
X6056238Y-17075476D01*
X6075286Y-17085000D01*
X6084809Y-17094524D01*
X6094333Y-17113571D01*
X6103857Y-17151667D01*
X6103857Y-17199286D01*
X6094333Y-17237381D01*
X6084809Y-17256429D01*
X6075286Y-17265952D01*
X6056238Y-17275476D01*
X6037190Y-17275476D01*
X6018143Y-17265952D01*
X6008619Y-17256429D01*
X5999095Y-17237381D01*
X5989571Y-17199286D01*
X5989571Y-17151667D01*
X5999095Y-17113571D01*
X6008619Y-17094524D01*
X6018143Y-17085000D01*
X6037190Y-17075476D01*
X6170524Y-17075476D02*
X6294333Y-17075476D01*
X6227667Y-17151667D01*
X6256238Y-17151667D01*
X6275286Y-17161190D01*
X6284809Y-17170714D01*
X6294333Y-17189762D01*
X6294333Y-17237381D01*
X6284809Y-17256429D01*
X6275286Y-17265952D01*
X6256238Y-17275476D01*
X6199095Y-17275476D01*
X6180048Y-17265952D01*
X6170524Y-17256429D01*
X6475286Y-17075476D02*
X6380048Y-17075476D01*
X6370524Y-17170714D01*
X6380048Y-17161190D01*
X6399095Y-17151667D01*
X6446714Y-17151667D01*
X6465762Y-17161190D01*
X6475286Y-17170714D01*
X6484809Y-17189762D01*
X6484809Y-17237381D01*
X6475286Y-17256429D01*
X6465762Y-17265952D01*
X6446714Y-17275476D01*
X6399095Y-17275476D01*
X6380048Y-17265952D01*
X6370524Y-17256429D01*
X6656238Y-17142143D02*
X6656238Y-17275476D01*
X6608619Y-17065952D02*
X6561000Y-17208810D01*
X6684809Y-17208810D01*
X6751476Y-17075476D02*
X6751476Y-17113571D01*
X6827667Y-17075476D02*
X6827667Y-17113571D01*
X7122905Y-17351667D02*
X7113381Y-17342143D01*
X7094333Y-17313571D01*
X7084809Y-17294524D01*
X7075286Y-17265952D01*
X7065762Y-17218333D01*
X7065762Y-17180238D01*
X7075286Y-17132619D01*
X7084809Y-17104048D01*
X7094333Y-17085000D01*
X7113381Y-17056429D01*
X7122905Y-17046905D01*
X7303857Y-17275476D02*
X7189571Y-17275476D01*
X7246714Y-17275476D02*
X7246714Y-17075476D01*
X7227667Y-17104048D01*
X7208619Y-17123095D01*
X7189571Y-17132619D01*
X7418143Y-17161190D02*
X7399095Y-17151667D01*
X7389571Y-17142143D01*
X7380048Y-17123095D01*
X7380048Y-17113571D01*
X7389571Y-17094524D01*
X7399095Y-17085000D01*
X7418143Y-17075476D01*
X7456238Y-17075476D01*
X7475286Y-17085000D01*
X7484809Y-17094524D01*
X7494333Y-17113571D01*
X7494333Y-17123095D01*
X7484809Y-17142143D01*
X7475286Y-17151667D01*
X7456238Y-17161190D01*
X7418143Y-17161190D01*
X7399095Y-17170714D01*
X7389571Y-17180238D01*
X7380048Y-17199286D01*
X7380048Y-17237381D01*
X7389571Y-17256429D01*
X7399095Y-17265952D01*
X7418143Y-17275476D01*
X7456238Y-17275476D01*
X7475286Y-17265952D01*
X7484809Y-17256429D01*
X7494333Y-17237381D01*
X7494333Y-17199286D01*
X7484809Y-17180238D01*
X7475286Y-17170714D01*
X7456238Y-17161190D01*
X7732428Y-17275476D02*
X7732428Y-17075476D01*
X7818143Y-17275476D02*
X7818143Y-17170714D01*
X7808619Y-17151667D01*
X7789571Y-17142143D01*
X7761000Y-17142143D01*
X7741952Y-17151667D01*
X7732428Y-17161190D01*
X7941952Y-17275476D02*
X7922905Y-17265952D01*
X7913381Y-17256429D01*
X7903857Y-17237381D01*
X7903857Y-17180238D01*
X7913381Y-17161190D01*
X7922905Y-17151667D01*
X7941952Y-17142143D01*
X7970524Y-17142143D01*
X7989571Y-17151667D01*
X7999095Y-17161190D01*
X8008619Y-17180238D01*
X8008619Y-17237381D01*
X7999095Y-17256429D01*
X7989571Y-17265952D01*
X7970524Y-17275476D01*
X7941952Y-17275476D01*
X8122905Y-17275476D02*
X8103857Y-17265952D01*
X8094333Y-17246905D01*
X8094333Y-17075476D01*
X8275286Y-17265952D02*
X8256238Y-17275476D01*
X8218143Y-17275476D01*
X8199095Y-17265952D01*
X8189571Y-17246905D01*
X8189571Y-17170714D01*
X8199095Y-17151667D01*
X8218143Y-17142143D01*
X8256238Y-17142143D01*
X8275286Y-17151667D01*
X8284809Y-17170714D01*
X8284809Y-17189762D01*
X8189571Y-17208810D01*
X8361000Y-17265952D02*
X8380048Y-17275476D01*
X8418143Y-17275476D01*
X8437190Y-17265952D01*
X8446714Y-17246905D01*
X8446714Y-17237381D01*
X8437190Y-17218333D01*
X8418143Y-17208810D01*
X8389571Y-17208810D01*
X8370524Y-17199286D01*
X8361000Y-17180238D01*
X8361000Y-17170714D01*
X8370524Y-17151667D01*
X8389571Y-17142143D01*
X8418143Y-17142143D01*
X8437190Y-17151667D01*
X8513381Y-17351667D02*
X8522905Y-17342143D01*
X8541952Y-17313571D01*
X8551476Y-17294524D01*
X8561000Y-17265952D01*
X8570524Y-17218333D01*
X8570524Y-17180238D01*
X8561000Y-17132619D01*
X8551476Y-17104048D01*
X8541952Y-17085000D01*
X8522905Y-17056429D01*
X8513381Y-17046905D01*
D16*
X3501000Y-17499000D02*
X3551000Y-17449000D01*
X3501000Y-17399000D01*
X3451000Y-17449000D01*
X3501000Y-17499000D01*
D11*
X3913381Y-17539476D02*
X3799095Y-17539476D01*
X3856238Y-17539476D02*
X3856238Y-17339476D01*
X3837190Y-17368048D01*
X3818143Y-17387095D01*
X3799095Y-17396619D01*
X3999095Y-17520429D02*
X4008619Y-17529952D01*
X3999095Y-17539476D01*
X3989571Y-17529952D01*
X3999095Y-17520429D01*
X3999095Y-17539476D01*
X4132428Y-17339476D02*
X4151476Y-17339476D01*
X4170524Y-17349000D01*
X4180048Y-17358524D01*
X4189571Y-17377571D01*
X4199095Y-17415667D01*
X4199095Y-17463286D01*
X4189571Y-17501381D01*
X4180048Y-17520429D01*
X4170524Y-17529952D01*
X4151476Y-17539476D01*
X4132428Y-17539476D01*
X4113381Y-17529952D01*
X4103857Y-17520429D01*
X4094333Y-17501381D01*
X4084809Y-17463286D01*
X4084809Y-17415667D01*
X4094333Y-17377571D01*
X4103857Y-17358524D01*
X4113381Y-17349000D01*
X4132428Y-17339476D01*
X4322905Y-17339476D02*
X4341952Y-17339476D01*
X4361000Y-17349000D01*
X4370524Y-17358524D01*
X4380048Y-17377571D01*
X4389571Y-17415667D01*
X4389571Y-17463286D01*
X4380048Y-17501381D01*
X4370524Y-17520429D01*
X4361000Y-17529952D01*
X4341952Y-17539476D01*
X4322905Y-17539476D01*
X4303857Y-17529952D01*
X4294333Y-17520429D01*
X4284810Y-17501381D01*
X4275286Y-17463286D01*
X4275286Y-17415667D01*
X4284810Y-17377571D01*
X4294333Y-17358524D01*
X4303857Y-17349000D01*
X4322905Y-17339476D01*
X4513381Y-17339476D02*
X4532429Y-17339476D01*
X4551476Y-17349000D01*
X4561000Y-17358524D01*
X4570524Y-17377571D01*
X4580048Y-17415667D01*
X4580048Y-17463286D01*
X4570524Y-17501381D01*
X4561000Y-17520429D01*
X4551476Y-17529952D01*
X4532429Y-17539476D01*
X4513381Y-17539476D01*
X4494333Y-17529952D01*
X4484810Y-17520429D01*
X4475286Y-17501381D01*
X4465762Y-17463286D01*
X4465762Y-17415667D01*
X4475286Y-17377571D01*
X4484810Y-17358524D01*
X4494333Y-17349000D01*
X4513381Y-17339476D01*
X4665762Y-17539476D02*
X4665762Y-17406143D01*
X4665762Y-17425190D02*
X4675286Y-17415667D01*
X4694333Y-17406143D01*
X4722905Y-17406143D01*
X4741952Y-17415667D01*
X4751476Y-17434714D01*
X4751476Y-17539476D01*
X4751476Y-17434714D02*
X4761000Y-17415667D01*
X4780048Y-17406143D01*
X4808619Y-17406143D01*
X4827667Y-17415667D01*
X4837190Y-17434714D01*
X4837190Y-17539476D01*
X4932429Y-17539476D02*
X4932429Y-17406143D01*
X4932429Y-17425190D02*
X4941952Y-17415667D01*
X4961000Y-17406143D01*
X4989571Y-17406143D01*
X5008619Y-17415667D01*
X5018143Y-17434714D01*
X5018143Y-17539476D01*
X5018143Y-17434714D02*
X5027667Y-17415667D01*
X5046714Y-17406143D01*
X5075286Y-17406143D01*
X5094333Y-17415667D01*
X5103857Y-17434714D01*
X5103857Y-17539476D01*
X5494333Y-17329952D02*
X5322905Y-17587095D01*
X5751476Y-17339476D02*
X5770524Y-17339476D01*
X5789571Y-17349000D01*
X5799095Y-17358524D01*
X5808619Y-17377571D01*
X5818143Y-17415667D01*
X5818143Y-17463286D01*
X5808619Y-17501381D01*
X5799095Y-17520429D01*
X5789571Y-17529952D01*
X5770524Y-17539476D01*
X5751476Y-17539476D01*
X5732428Y-17529952D01*
X5722905Y-17520429D01*
X5713381Y-17501381D01*
X5703857Y-17463286D01*
X5703857Y-17415667D01*
X5713381Y-17377571D01*
X5722905Y-17358524D01*
X5732428Y-17349000D01*
X5751476Y-17339476D01*
X5903857Y-17520429D02*
X5913381Y-17529952D01*
X5903857Y-17539476D01*
X5894333Y-17529952D01*
X5903857Y-17520429D01*
X5903857Y-17539476D01*
X6037190Y-17339476D02*
X6056238Y-17339476D01*
X6075286Y-17349000D01*
X6084809Y-17358524D01*
X6094333Y-17377571D01*
X6103857Y-17415667D01*
X6103857Y-17463286D01*
X6094333Y-17501381D01*
X6084809Y-17520429D01*
X6075286Y-17529952D01*
X6056238Y-17539476D01*
X6037190Y-17539476D01*
X6018143Y-17529952D01*
X6008619Y-17520429D01*
X5999095Y-17501381D01*
X5989571Y-17463286D01*
X5989571Y-17415667D01*
X5999095Y-17377571D01*
X6008619Y-17358524D01*
X6018143Y-17349000D01*
X6037190Y-17339476D01*
X6170524Y-17339476D02*
X6294333Y-17339476D01*
X6227667Y-17415667D01*
X6256238Y-17415667D01*
X6275286Y-17425190D01*
X6284809Y-17434714D01*
X6294333Y-17453762D01*
X6294333Y-17501381D01*
X6284809Y-17520429D01*
X6275286Y-17529952D01*
X6256238Y-17539476D01*
X6199095Y-17539476D01*
X6180048Y-17529952D01*
X6170524Y-17520429D01*
X6389571Y-17539476D02*
X6427667Y-17539476D01*
X6446714Y-17529952D01*
X6456238Y-17520429D01*
X6475286Y-17491857D01*
X6484809Y-17453762D01*
X6484809Y-17377571D01*
X6475286Y-17358524D01*
X6465762Y-17349000D01*
X6446714Y-17339476D01*
X6408619Y-17339476D01*
X6389571Y-17349000D01*
X6380048Y-17358524D01*
X6370524Y-17377571D01*
X6370524Y-17425190D01*
X6380048Y-17444238D01*
X6389571Y-17453762D01*
X6408619Y-17463286D01*
X6446714Y-17463286D01*
X6465762Y-17453762D01*
X6475286Y-17444238D01*
X6484809Y-17425190D01*
X6656238Y-17406143D02*
X6656238Y-17539476D01*
X6608619Y-17329952D02*
X6561000Y-17472810D01*
X6684809Y-17472810D01*
X6751476Y-17339476D02*
X6751476Y-17377571D01*
X6827667Y-17339476D02*
X6827667Y-17377571D01*
X7122905Y-17615667D02*
X7113381Y-17606143D01*
X7094333Y-17577571D01*
X7084809Y-17558524D01*
X7075286Y-17529952D01*
X7065762Y-17482333D01*
X7065762Y-17444238D01*
X7075286Y-17396619D01*
X7084809Y-17368048D01*
X7094333Y-17349000D01*
X7113381Y-17320429D01*
X7122905Y-17310905D01*
X7180048Y-17339476D02*
X7303857Y-17339476D01*
X7237190Y-17415667D01*
X7265762Y-17415667D01*
X7284809Y-17425190D01*
X7294333Y-17434714D01*
X7303857Y-17453762D01*
X7303857Y-17501381D01*
X7294333Y-17520429D01*
X7284809Y-17529952D01*
X7265762Y-17539476D01*
X7208619Y-17539476D01*
X7189571Y-17529952D01*
X7180048Y-17520429D01*
X7484809Y-17339476D02*
X7389571Y-17339476D01*
X7380048Y-17434714D01*
X7389571Y-17425190D01*
X7408619Y-17415667D01*
X7456238Y-17415667D01*
X7475286Y-17425190D01*
X7484809Y-17434714D01*
X7494333Y-17453762D01*
X7494333Y-17501381D01*
X7484809Y-17520429D01*
X7475286Y-17529952D01*
X7456238Y-17539476D01*
X7408619Y-17539476D01*
X7389571Y-17529952D01*
X7380048Y-17520429D01*
X7732428Y-17539476D02*
X7732428Y-17339476D01*
X7818143Y-17539476D02*
X7818143Y-17434714D01*
X7808619Y-17415667D01*
X7789571Y-17406143D01*
X7761000Y-17406143D01*
X7741952Y-17415667D01*
X7732428Y-17425190D01*
X7941952Y-17539476D02*
X7922905Y-17529952D01*
X7913381Y-17520429D01*
X7903857Y-17501381D01*
X7903857Y-17444238D01*
X7913381Y-17425190D01*
X7922905Y-17415667D01*
X7941952Y-17406143D01*
X7970524Y-17406143D01*
X7989571Y-17415667D01*
X7999095Y-17425190D01*
X8008619Y-17444238D01*
X8008619Y-17501381D01*
X7999095Y-17520429D01*
X7989571Y-17529952D01*
X7970524Y-17539476D01*
X7941952Y-17539476D01*
X8122905Y-17539476D02*
X8103857Y-17529952D01*
X8094333Y-17510905D01*
X8094333Y-17339476D01*
X8275286Y-17529952D02*
X8256238Y-17539476D01*
X8218143Y-17539476D01*
X8199095Y-17529952D01*
X8189571Y-17510905D01*
X8189571Y-17434714D01*
X8199095Y-17415667D01*
X8218143Y-17406143D01*
X8256238Y-17406143D01*
X8275286Y-17415667D01*
X8284809Y-17434714D01*
X8284809Y-17453762D01*
X8189571Y-17472810D01*
X8361000Y-17529952D02*
X8380048Y-17539476D01*
X8418143Y-17539476D01*
X8437190Y-17529952D01*
X8446714Y-17510905D01*
X8446714Y-17501381D01*
X8437190Y-17482333D01*
X8418143Y-17472810D01*
X8389571Y-17472810D01*
X8370524Y-17463286D01*
X8361000Y-17444238D01*
X8361000Y-17434714D01*
X8370524Y-17415667D01*
X8389571Y-17406143D01*
X8418143Y-17406143D01*
X8437190Y-17415667D01*
X8513381Y-17615667D02*
X8522905Y-17606143D01*
X8541952Y-17577571D01*
X8551476Y-17558524D01*
X8561000Y-17529952D01*
X8570524Y-17482333D01*
X8570524Y-17444238D01*
X8561000Y-17396619D01*
X8551476Y-17368048D01*
X8541952Y-17349000D01*
X8522905Y-17320429D01*
X8513381Y-17310905D01*
D17*
X3431000Y-17653000D02*
X3551000Y-17773000D01*
X3551000Y-17653000D02*
X3431000Y-17773000D01*
X3551000Y-17713000D02*
G75*
G03*
X3551000Y-17713000I-60000J0D01*
G01*
D11*
X3913381Y-17803476D02*
X3799095Y-17803476D01*
X3856238Y-17803476D02*
X3856238Y-17603476D01*
X3837190Y-17632048D01*
X3818143Y-17651095D01*
X3799095Y-17660619D01*
X3999095Y-17784429D02*
X4008619Y-17793952D01*
X3999095Y-17803476D01*
X3989571Y-17793952D01*
X3999095Y-17784429D01*
X3999095Y-17803476D01*
X4084809Y-17622524D02*
X4094333Y-17613000D01*
X4113381Y-17603476D01*
X4161000Y-17603476D01*
X4180048Y-17613000D01*
X4189571Y-17622524D01*
X4199095Y-17641571D01*
X4199095Y-17660619D01*
X4189571Y-17689190D01*
X4075286Y-17803476D01*
X4199095Y-17803476D01*
X4322905Y-17603476D02*
X4341952Y-17603476D01*
X4361000Y-17613000D01*
X4370524Y-17622524D01*
X4380048Y-17641571D01*
X4389571Y-17679667D01*
X4389571Y-17727286D01*
X4380048Y-17765381D01*
X4370524Y-17784429D01*
X4361000Y-17793952D01*
X4341952Y-17803476D01*
X4322905Y-17803476D01*
X4303857Y-17793952D01*
X4294333Y-17784429D01*
X4284810Y-17765381D01*
X4275286Y-17727286D01*
X4275286Y-17679667D01*
X4284810Y-17641571D01*
X4294333Y-17622524D01*
X4303857Y-17613000D01*
X4322905Y-17603476D01*
X4513381Y-17603476D02*
X4532429Y-17603476D01*
X4551476Y-17613000D01*
X4561000Y-17622524D01*
X4570524Y-17641571D01*
X4580048Y-17679667D01*
X4580048Y-17727286D01*
X4570524Y-17765381D01*
X4561000Y-17784429D01*
X4551476Y-17793952D01*
X4532429Y-17803476D01*
X4513381Y-17803476D01*
X4494333Y-17793952D01*
X4484810Y-17784429D01*
X4475286Y-17765381D01*
X4465762Y-17727286D01*
X4465762Y-17679667D01*
X4475286Y-17641571D01*
X4484810Y-17622524D01*
X4494333Y-17613000D01*
X4513381Y-17603476D01*
X4665762Y-17803476D02*
X4665762Y-17670143D01*
X4665762Y-17689190D02*
X4675286Y-17679667D01*
X4694333Y-17670143D01*
X4722905Y-17670143D01*
X4741952Y-17679667D01*
X4751476Y-17698714D01*
X4751476Y-17803476D01*
X4751476Y-17698714D02*
X4761000Y-17679667D01*
X4780048Y-17670143D01*
X4808619Y-17670143D01*
X4827667Y-17679667D01*
X4837190Y-17698714D01*
X4837190Y-17803476D01*
X4932429Y-17803476D02*
X4932429Y-17670143D01*
X4932429Y-17689190D02*
X4941952Y-17679667D01*
X4961000Y-17670143D01*
X4989571Y-17670143D01*
X5008619Y-17679667D01*
X5018143Y-17698714D01*
X5018143Y-17803476D01*
X5018143Y-17698714D02*
X5027667Y-17679667D01*
X5046714Y-17670143D01*
X5075286Y-17670143D01*
X5094333Y-17679667D01*
X5103857Y-17698714D01*
X5103857Y-17803476D01*
X5494333Y-17593952D02*
X5322905Y-17851095D01*
X5751476Y-17603476D02*
X5770524Y-17603476D01*
X5789571Y-17613000D01*
X5799095Y-17622524D01*
X5808619Y-17641571D01*
X5818143Y-17679667D01*
X5818143Y-17727286D01*
X5808619Y-17765381D01*
X5799095Y-17784429D01*
X5789571Y-17793952D01*
X5770524Y-17803476D01*
X5751476Y-17803476D01*
X5732428Y-17793952D01*
X5722905Y-17784429D01*
X5713381Y-17765381D01*
X5703857Y-17727286D01*
X5703857Y-17679667D01*
X5713381Y-17641571D01*
X5722905Y-17622524D01*
X5732428Y-17613000D01*
X5751476Y-17603476D01*
X5903857Y-17784429D02*
X5913381Y-17793952D01*
X5903857Y-17803476D01*
X5894333Y-17793952D01*
X5903857Y-17784429D01*
X5903857Y-17803476D01*
X6037190Y-17603476D02*
X6056238Y-17603476D01*
X6075286Y-17613000D01*
X6084809Y-17622524D01*
X6094333Y-17641571D01*
X6103857Y-17679667D01*
X6103857Y-17727286D01*
X6094333Y-17765381D01*
X6084809Y-17784429D01*
X6075286Y-17793952D01*
X6056238Y-17803476D01*
X6037190Y-17803476D01*
X6018143Y-17793952D01*
X6008619Y-17784429D01*
X5999095Y-17765381D01*
X5989571Y-17727286D01*
X5989571Y-17679667D01*
X5999095Y-17641571D01*
X6008619Y-17622524D01*
X6018143Y-17613000D01*
X6037190Y-17603476D01*
X6275286Y-17670143D02*
X6275286Y-17803476D01*
X6227667Y-17593952D02*
X6180048Y-17736810D01*
X6303857Y-17736810D01*
X6361000Y-17603476D02*
X6494333Y-17603476D01*
X6408619Y-17803476D01*
X6561000Y-17622524D02*
X6570524Y-17613000D01*
X6589571Y-17603476D01*
X6637190Y-17603476D01*
X6656238Y-17613000D01*
X6665762Y-17622524D01*
X6675286Y-17641571D01*
X6675286Y-17660619D01*
X6665762Y-17689190D01*
X6551476Y-17803476D01*
X6675286Y-17803476D01*
X6751476Y-17603476D02*
X6751476Y-17641571D01*
X6827667Y-17603476D02*
X6827667Y-17641571D01*
X7122905Y-17879667D02*
X7113381Y-17870143D01*
X7094333Y-17841571D01*
X7084809Y-17822524D01*
X7075286Y-17793952D01*
X7065762Y-17746333D01*
X7065762Y-17708238D01*
X7075286Y-17660619D01*
X7084809Y-17632048D01*
X7094333Y-17613000D01*
X7113381Y-17584429D01*
X7122905Y-17574905D01*
X7180048Y-17603476D02*
X7303857Y-17603476D01*
X7237190Y-17679667D01*
X7265762Y-17679667D01*
X7284809Y-17689190D01*
X7294333Y-17698714D01*
X7303857Y-17717762D01*
X7303857Y-17765381D01*
X7294333Y-17784429D01*
X7284809Y-17793952D01*
X7265762Y-17803476D01*
X7208619Y-17803476D01*
X7189571Y-17793952D01*
X7180048Y-17784429D01*
X7380048Y-17622524D02*
X7389571Y-17613000D01*
X7408619Y-17603476D01*
X7456238Y-17603476D01*
X7475286Y-17613000D01*
X7484809Y-17622524D01*
X7494333Y-17641571D01*
X7494333Y-17660619D01*
X7484809Y-17689190D01*
X7370524Y-17803476D01*
X7494333Y-17803476D01*
X7732428Y-17803476D02*
X7732428Y-17603476D01*
X7818143Y-17803476D02*
X7818143Y-17698714D01*
X7808619Y-17679667D01*
X7789571Y-17670143D01*
X7761000Y-17670143D01*
X7741952Y-17679667D01*
X7732428Y-17689190D01*
X7941952Y-17803476D02*
X7922905Y-17793952D01*
X7913381Y-17784429D01*
X7903857Y-17765381D01*
X7903857Y-17708238D01*
X7913381Y-17689190D01*
X7922905Y-17679667D01*
X7941952Y-17670143D01*
X7970524Y-17670143D01*
X7989571Y-17679667D01*
X7999095Y-17689190D01*
X8008619Y-17708238D01*
X8008619Y-17765381D01*
X7999095Y-17784429D01*
X7989571Y-17793952D01*
X7970524Y-17803476D01*
X7941952Y-17803476D01*
X8122905Y-17803476D02*
X8103857Y-17793952D01*
X8094333Y-17774905D01*
X8094333Y-17603476D01*
X8275286Y-17793952D02*
X8256238Y-17803476D01*
X8218143Y-17803476D01*
X8199095Y-17793952D01*
X8189571Y-17774905D01*
X8189571Y-17698714D01*
X8199095Y-17679667D01*
X8218143Y-17670143D01*
X8256238Y-17670143D01*
X8275286Y-17679667D01*
X8284809Y-17698714D01*
X8284809Y-17717762D01*
X8189571Y-17736810D01*
X8361000Y-17793952D02*
X8380048Y-17803476D01*
X8418143Y-17803476D01*
X8437190Y-17793952D01*
X8446714Y-17774905D01*
X8446714Y-17765381D01*
X8437190Y-17746333D01*
X8418143Y-17736810D01*
X8389571Y-17736810D01*
X8370524Y-17727286D01*
X8361000Y-17708238D01*
X8361000Y-17698714D01*
X8370524Y-17679667D01*
X8389571Y-17670143D01*
X8418143Y-17670143D01*
X8437190Y-17679667D01*
X8513381Y-17879667D02*
X8522905Y-17870143D01*
X8541952Y-17841571D01*
X8551476Y-17822524D01*
X8561000Y-17793952D01*
X8570524Y-17746333D01*
X8570524Y-17708238D01*
X8561000Y-17660619D01*
X8551476Y-17632048D01*
X8541952Y-17613000D01*
X8522905Y-17584429D01*
X8513381Y-17574905D01*
X3351000Y-17877000D02*
X3551000Y-18077000D01*
X3551000Y-17877000D02*
X3351000Y-18077000D01*
X3451000Y-17877000D02*
X3451000Y-18077000D01*
X3351000Y-17977000D02*
X3551000Y-17977000D01*
X3789571Y-17867476D02*
X3913381Y-17867476D01*
X3846714Y-17943667D01*
X3875286Y-17943667D01*
X3894333Y-17953190D01*
X3903857Y-17962714D01*
X3913381Y-17981762D01*
X3913381Y-18029381D01*
X3903857Y-18048429D01*
X3894333Y-18057952D01*
X3875286Y-18067476D01*
X3818143Y-18067476D01*
X3799095Y-18057952D01*
X3789571Y-18048429D01*
X3999095Y-18048429D02*
X4008619Y-18057952D01*
X3999095Y-18067476D01*
X3989571Y-18057952D01*
X3999095Y-18048429D01*
X3999095Y-18067476D01*
X4132428Y-17867476D02*
X4151476Y-17867476D01*
X4170524Y-17877000D01*
X4180048Y-17886524D01*
X4189571Y-17905571D01*
X4199095Y-17943667D01*
X4199095Y-17991286D01*
X4189571Y-18029381D01*
X4180048Y-18048429D01*
X4170524Y-18057952D01*
X4151476Y-18067476D01*
X4132428Y-18067476D01*
X4113381Y-18057952D01*
X4103857Y-18048429D01*
X4094333Y-18029381D01*
X4084809Y-17991286D01*
X4084809Y-17943667D01*
X4094333Y-17905571D01*
X4103857Y-17886524D01*
X4113381Y-17877000D01*
X4132428Y-17867476D01*
X4322905Y-17867476D02*
X4341952Y-17867476D01*
X4361000Y-17877000D01*
X4370524Y-17886524D01*
X4380048Y-17905571D01*
X4389571Y-17943667D01*
X4389571Y-17991286D01*
X4380048Y-18029381D01*
X4370524Y-18048429D01*
X4361000Y-18057952D01*
X4341952Y-18067476D01*
X4322905Y-18067476D01*
X4303857Y-18057952D01*
X4294333Y-18048429D01*
X4284810Y-18029381D01*
X4275286Y-17991286D01*
X4275286Y-17943667D01*
X4284810Y-17905571D01*
X4294333Y-17886524D01*
X4303857Y-17877000D01*
X4322905Y-17867476D01*
X4513381Y-17867476D02*
X4532429Y-17867476D01*
X4551476Y-17877000D01*
X4561000Y-17886524D01*
X4570524Y-17905571D01*
X4580048Y-17943667D01*
X4580048Y-17991286D01*
X4570524Y-18029381D01*
X4561000Y-18048429D01*
X4551476Y-18057952D01*
X4532429Y-18067476D01*
X4513381Y-18067476D01*
X4494333Y-18057952D01*
X4484810Y-18048429D01*
X4475286Y-18029381D01*
X4465762Y-17991286D01*
X4465762Y-17943667D01*
X4475286Y-17905571D01*
X4484810Y-17886524D01*
X4494333Y-17877000D01*
X4513381Y-17867476D01*
X4665762Y-18067476D02*
X4665762Y-17934143D01*
X4665762Y-17953190D02*
X4675286Y-17943667D01*
X4694333Y-17934143D01*
X4722905Y-17934143D01*
X4741952Y-17943667D01*
X4751476Y-17962714D01*
X4751476Y-18067476D01*
X4751476Y-17962714D02*
X4761000Y-17943667D01*
X4780048Y-17934143D01*
X4808619Y-17934143D01*
X4827667Y-17943667D01*
X4837190Y-17962714D01*
X4837190Y-18067476D01*
X4932429Y-18067476D02*
X4932429Y-17934143D01*
X4932429Y-17953190D02*
X4941952Y-17943667D01*
X4961000Y-17934143D01*
X4989571Y-17934143D01*
X5008619Y-17943667D01*
X5018143Y-17962714D01*
X5018143Y-18067476D01*
X5018143Y-17962714D02*
X5027667Y-17943667D01*
X5046714Y-17934143D01*
X5075286Y-17934143D01*
X5094333Y-17943667D01*
X5103857Y-17962714D01*
X5103857Y-18067476D01*
X5494333Y-17857952D02*
X5322905Y-18115095D01*
X5751476Y-17867476D02*
X5770524Y-17867476D01*
X5789571Y-17877000D01*
X5799095Y-17886524D01*
X5808619Y-17905571D01*
X5818143Y-17943667D01*
X5818143Y-17991286D01*
X5808619Y-18029381D01*
X5799095Y-18048429D01*
X5789571Y-18057952D01*
X5770524Y-18067476D01*
X5751476Y-18067476D01*
X5732428Y-18057952D01*
X5722905Y-18048429D01*
X5713381Y-18029381D01*
X5703857Y-17991286D01*
X5703857Y-17943667D01*
X5713381Y-17905571D01*
X5722905Y-17886524D01*
X5732428Y-17877000D01*
X5751476Y-17867476D01*
X5903857Y-18048429D02*
X5913381Y-18057952D01*
X5903857Y-18067476D01*
X5894333Y-18057952D01*
X5903857Y-18048429D01*
X5903857Y-18067476D01*
X6103857Y-18067476D02*
X5989571Y-18067476D01*
X6046714Y-18067476D02*
X6046714Y-17867476D01*
X6027667Y-17896048D01*
X6008619Y-17915095D01*
X5989571Y-17924619D01*
X6294333Y-18067476D02*
X6180048Y-18067476D01*
X6237190Y-18067476D02*
X6237190Y-17867476D01*
X6218143Y-17896048D01*
X6199095Y-17915095D01*
X6180048Y-17924619D01*
X6408619Y-17953190D02*
X6389571Y-17943667D01*
X6380048Y-17934143D01*
X6370524Y-17915095D01*
X6370524Y-17905571D01*
X6380048Y-17886524D01*
X6389571Y-17877000D01*
X6408619Y-17867476D01*
X6446714Y-17867476D01*
X6465762Y-17877000D01*
X6475286Y-17886524D01*
X6484809Y-17905571D01*
X6484809Y-17915095D01*
X6475286Y-17934143D01*
X6465762Y-17943667D01*
X6446714Y-17953190D01*
X6408619Y-17953190D01*
X6389571Y-17962714D01*
X6380048Y-17972238D01*
X6370524Y-17991286D01*
X6370524Y-18029381D01*
X6380048Y-18048429D01*
X6389571Y-18057952D01*
X6408619Y-18067476D01*
X6446714Y-18067476D01*
X6465762Y-18057952D01*
X6475286Y-18048429D01*
X6484809Y-18029381D01*
X6484809Y-17991286D01*
X6475286Y-17972238D01*
X6465762Y-17962714D01*
X6446714Y-17953190D01*
X6675286Y-18067476D02*
X6561000Y-18067476D01*
X6618143Y-18067476D02*
X6618143Y-17867476D01*
X6599095Y-17896048D01*
X6580048Y-17915095D01*
X6561000Y-17924619D01*
X6751476Y-17867476D02*
X6751476Y-17905571D01*
X6827667Y-17867476D02*
X6827667Y-17905571D01*
X7122905Y-18143667D02*
X7113381Y-18134143D01*
X7094333Y-18105571D01*
X7084809Y-18086524D01*
X7075286Y-18057952D01*
X7065762Y-18010333D01*
X7065762Y-17972238D01*
X7075286Y-17924619D01*
X7084809Y-17896048D01*
X7094333Y-17877000D01*
X7113381Y-17848429D01*
X7122905Y-17838905D01*
X7284809Y-17934143D02*
X7284809Y-18067476D01*
X7237190Y-17857952D02*
X7189571Y-18000810D01*
X7313381Y-18000810D01*
X7541952Y-18067476D02*
X7541952Y-17867476D01*
X7627667Y-18067476D02*
X7627667Y-17962714D01*
X7618143Y-17943667D01*
X7599095Y-17934143D01*
X7570524Y-17934143D01*
X7551476Y-17943667D01*
X7541952Y-17953190D01*
X7751476Y-18067476D02*
X7732428Y-18057952D01*
X7722905Y-18048429D01*
X7713381Y-18029381D01*
X7713381Y-17972238D01*
X7722905Y-17953190D01*
X7732428Y-17943667D01*
X7751476Y-17934143D01*
X7780048Y-17934143D01*
X7799095Y-17943667D01*
X7808619Y-17953190D01*
X7818143Y-17972238D01*
X7818143Y-18029381D01*
X7808619Y-18048429D01*
X7799095Y-18057952D01*
X7780048Y-18067476D01*
X7751476Y-18067476D01*
X7932428Y-18067476D02*
X7913381Y-18057952D01*
X7903857Y-18038905D01*
X7903857Y-17867476D01*
X8084809Y-18057952D02*
X8065762Y-18067476D01*
X8027667Y-18067476D01*
X8008619Y-18057952D01*
X7999095Y-18038905D01*
X7999095Y-17962714D01*
X8008619Y-17943667D01*
X8027667Y-17934143D01*
X8065762Y-17934143D01*
X8084809Y-17943667D01*
X8094333Y-17962714D01*
X8094333Y-17981762D01*
X7999095Y-18000810D01*
X8170524Y-18057952D02*
X8189571Y-18067476D01*
X8227667Y-18067476D01*
X8246714Y-18057952D01*
X8256238Y-18038905D01*
X8256238Y-18029381D01*
X8246714Y-18010333D01*
X8227667Y-18000810D01*
X8199095Y-18000810D01*
X8180048Y-17991286D01*
X8170524Y-17972238D01*
X8170524Y-17962714D01*
X8180048Y-17943667D01*
X8199095Y-17934143D01*
X8227667Y-17934143D01*
X8246714Y-17943667D01*
X8322905Y-18143667D02*
X8332428Y-18134143D01*
X8351476Y-18105571D01*
X8361000Y-18086524D01*
X8370524Y-18057952D01*
X8380048Y-18010333D01*
X8380048Y-17972238D01*
X8370524Y-17924619D01*
X8361000Y-17896048D01*
X8351476Y-17877000D01*
X8332428Y-17848429D01*
X8322905Y-17838905D01*
M02*
