%TF.GenerationSoftware,KiCad,Pcbnew,7.0.2*%
%TF.CreationDate,2023-06-27T14:21:51-04:00*%
%TF.ProjectId,as3340_no_mux,61733333-3430-45f6-9e6f-5f6d75782e6b,rev?*%
%TF.SameCoordinates,Original*%
%TF.FileFunction,Soldermask,Bot*%
%TF.FilePolarity,Negative*%
%FSLAX46Y46*%
G04 Gerber Fmt 4.6, Leading zero omitted, Abs format (unit mm)*
G04 Created by KiCad (PCBNEW 7.0.2) date 2023-06-27 14:21:51*
%MOMM*%
%LPD*%
G01*
G04 APERTURE LIST*
G04 Aperture macros list*
%AMRoundRect*
0 Rectangle with rounded corners*
0 $1 Rounding radius*
0 $2 $3 $4 $5 $6 $7 $8 $9 X,Y pos of 4 corners*
0 Add a 4 corners polygon primitive as box body*
4,1,4,$2,$3,$4,$5,$6,$7,$8,$9,$2,$3,0*
0 Add four circle primitives for the rounded corners*
1,1,$1+$1,$2,$3*
1,1,$1+$1,$4,$5*
1,1,$1+$1,$6,$7*
1,1,$1+$1,$8,$9*
0 Add four rect primitives between the rounded corners*
20,1,$1+$1,$2,$3,$4,$5,0*
20,1,$1+$1,$4,$5,$6,$7,0*
20,1,$1+$1,$6,$7,$8,$9,0*
20,1,$1+$1,$8,$9,$2,$3,0*%
G04 Aperture macros list end*
%ADD10RoundRect,0.250000X-0.262500X-0.450000X0.262500X-0.450000X0.262500X0.450000X-0.262500X0.450000X0*%
%ADD11O,3.100000X2.300000*%
%ADD12RoundRect,0.650000X-0.650000X-0.650000X0.650000X-0.650000X0.650000X0.650000X-0.650000X0.650000X0*%
%ADD13C,1.600000*%
%ADD14R,1.800000X1.800000*%
%ADD15C,1.800000*%
%ADD16RoundRect,0.750000X0.750000X-1.250000X0.750000X1.250000X-0.750000X1.250000X-0.750000X-1.250000X0*%
%ADD17C,1.700000*%
%ADD18RoundRect,0.250000X0.325000X0.650000X-0.325000X0.650000X-0.325000X-0.650000X0.325000X-0.650000X0*%
%ADD19C,1.620000*%
%ADD20RoundRect,0.250000X0.450000X-0.262500X0.450000X0.262500X-0.450000X0.262500X-0.450000X-0.262500X0*%
%ADD21RoundRect,0.250000X0.625000X-0.312500X0.625000X0.312500X-0.625000X0.312500X-0.625000X-0.312500X0*%
%ADD22RoundRect,0.250000X-0.312500X-0.625000X0.312500X-0.625000X0.312500X0.625000X-0.312500X0.625000X0*%
%ADD23RoundRect,0.250000X-0.450000X0.262500X-0.450000X-0.262500X0.450000X-0.262500X0.450000X0.262500X0*%
%ADD24RoundRect,0.250000X-0.625000X0.312500X-0.625000X-0.312500X0.625000X-0.312500X0.625000X0.312500X0*%
%ADD25RoundRect,0.250000X0.312500X0.625000X-0.312500X0.625000X-0.312500X-0.625000X0.312500X-0.625000X0*%
%ADD26R,1.600000X1.600000*%
%ADD27O,1.600000X1.600000*%
%ADD28RoundRect,0.200000X-0.275000X0.200000X-0.275000X-0.200000X0.275000X-0.200000X0.275000X0.200000X0*%
%ADD29RoundRect,0.150000X-0.150000X0.825000X-0.150000X-0.825000X0.150000X-0.825000X0.150000X0.825000X0*%
%ADD30RoundRect,0.250000X0.262500X0.450000X-0.262500X0.450000X-0.262500X-0.450000X0.262500X-0.450000X0*%
%ADD31RoundRect,0.250000X0.650000X-0.325000X0.650000X0.325000X-0.650000X0.325000X-0.650000X-0.325000X0*%
%ADD32R,1.700000X1.700000*%
%ADD33O,1.700000X1.700000*%
%ADD34RoundRect,0.250000X-0.650000X0.325000X-0.650000X-0.325000X0.650000X-0.325000X0.650000X0.325000X0*%
%ADD35RoundRect,0.200000X0.275000X-0.200000X0.275000X0.200000X-0.275000X0.200000X-0.275000X-0.200000X0*%
%ADD36C,1.200000*%
G04 APERTURE END LIST*
D10*
%TO.C,R12*%
X187860300Y-100584000D03*
X189685300Y-100584000D03*
%TD*%
D11*
%TO.C,J15*%
X193040000Y-126290000D03*
D12*
X193040000Y-114890000D03*
X193040000Y-123190000D03*
%TD*%
D11*
%TO.C,J1*%
X182880000Y-95810000D03*
D12*
X182880000Y-84410000D03*
X182880000Y-92710000D03*
%TD*%
D11*
%TO.C,J5*%
X182880000Y-126290000D03*
D12*
X182880000Y-114890000D03*
X182880000Y-123190000D03*
%TD*%
D13*
%TO.C,D1*%
X179070000Y-146538000D03*
X179070000Y-144038000D03*
%TD*%
D11*
%TO.C,J2*%
X182880000Y-140940000D03*
D12*
X182880000Y-129540000D03*
X182880000Y-137840000D03*
%TD*%
D11*
%TO.C,J12*%
X193040000Y-95810000D03*
D12*
X193040000Y-84410000D03*
X193040000Y-92710000D03*
%TD*%
D14*
%TO.C,THONKY_FINE_CV1*%
X185500000Y-58420000D03*
D15*
X188000000Y-58420000D03*
X190500000Y-58420000D03*
D16*
X183600000Y-51420000D03*
X192400000Y-51420000D03*
%TD*%
D17*
%TO.C,SW1*%
X179450000Y-78486000D03*
X184150000Y-78486000D03*
X188850000Y-78486000D03*
%TD*%
D11*
%TO.C,J13*%
X193040000Y-111050000D03*
D12*
X193040000Y-99650000D03*
X193040000Y-107950000D03*
%TD*%
D11*
%TO.C,J4*%
X182880000Y-111050000D03*
D12*
X182880000Y-99650000D03*
X182880000Y-107950000D03*
%TD*%
D14*
%TO.C,THONKY_COURSE_CV1*%
X185500000Y-43775000D03*
D15*
X188000000Y-43775000D03*
X190500000Y-43775000D03*
D16*
X183600000Y-36775000D03*
X192400000Y-36775000D03*
%TD*%
D14*
%TO.C,THONKY_PWM1*%
X185505000Y-73040000D03*
D15*
X188005000Y-73040000D03*
X190505000Y-73040000D03*
D16*
X183605000Y-66040000D03*
X192405000Y-66040000D03*
%TD*%
D11*
%TO.C,J14*%
X193040000Y-140940000D03*
D12*
X193040000Y-129540000D03*
X193040000Y-137840000D03*
%TD*%
D10*
%TO.C,R46*%
X190095500Y-134493000D03*
X191920500Y-134493000D03*
%TD*%
D18*
%TO.C,C1*%
X190247800Y-98145600D03*
X187297800Y-98145600D03*
%TD*%
D19*
%TO.C,NOT_THOONKY_SineBiasTrim1*%
X178943000Y-80986000D03*
X181443000Y-78486000D03*
X178943000Y-75986000D03*
%TD*%
D20*
%TO.C,R60*%
X179120800Y-105103300D03*
X179120800Y-103278300D03*
%TD*%
D19*
%TO.C,NOT_THONKY_HF_TRACK1*%
X181665000Y-42712000D03*
X179165000Y-45212000D03*
X181665000Y-47712000D03*
%TD*%
D21*
%TO.C,R69*%
X196900800Y-101284500D03*
X196900800Y-98359500D03*
%TD*%
D22*
%TO.C,R6*%
X187665900Y-61366400D03*
X190590900Y-61366400D03*
%TD*%
D23*
%TO.C,R55*%
X179222400Y-83567900D03*
X179222400Y-85392900D03*
%TD*%
D22*
%TO.C,R34*%
X189139100Y-70307200D03*
X192064100Y-70307200D03*
%TD*%
D24*
%TO.C,R4*%
X196900800Y-140117100D03*
X196900800Y-143042100D03*
%TD*%
D21*
%TO.C,R58*%
X179120800Y-110377700D03*
X179120800Y-107452700D03*
%TD*%
D25*
%TO.C,R11*%
X190286100Y-103022400D03*
X187361100Y-103022400D03*
%TD*%
D24*
%TO.C,R37*%
X196951600Y-87996300D03*
X196951600Y-90921300D03*
%TD*%
D22*
%TO.C,R16*%
X185278300Y-55981600D03*
X188203300Y-55981600D03*
%TD*%
D26*
%TO.C,U4*%
X189230000Y-128270000D03*
D27*
X189230000Y-125730000D03*
X189230000Y-123190000D03*
X189230000Y-120650000D03*
X189230000Y-118110000D03*
X189230000Y-115570000D03*
X189230000Y-113030000D03*
X196850000Y-113030000D03*
X196850000Y-115570000D03*
X196850000Y-118110000D03*
X196850000Y-120650000D03*
X196850000Y-123190000D03*
X196850000Y-125730000D03*
X196850000Y-128270000D03*
%TD*%
D28*
%TO.C,R10*%
X196850000Y-83757000D03*
X196850000Y-85407000D03*
%TD*%
D24*
%TO.C,R20*%
X186055000Y-83820000D03*
X186055000Y-86745000D03*
%TD*%
D21*
%TO.C,R67*%
X196850000Y-133644100D03*
X196850000Y-130719100D03*
%TD*%
D29*
%TO.C,U1*%
X183515000Y-75822000D03*
X184785000Y-75822000D03*
X186055000Y-75822000D03*
X187325000Y-75822000D03*
X188595000Y-75822000D03*
X189865000Y-75822000D03*
X191135000Y-75822000D03*
X192405000Y-75822000D03*
X192405000Y-80772000D03*
X191135000Y-80772000D03*
X189865000Y-80772000D03*
X188595000Y-80772000D03*
X187325000Y-80772000D03*
X186055000Y-80772000D03*
X184785000Y-80772000D03*
X183515000Y-80772000D03*
%TD*%
D23*
%TO.C,R9*%
X186385200Y-133961500D03*
X186385200Y-135786500D03*
%TD*%
D21*
%TO.C,R26*%
X196951600Y-138368500D03*
X196951600Y-135443500D03*
%TD*%
D22*
%TO.C,R64*%
X187411900Y-105460800D03*
X190336900Y-105460800D03*
%TD*%
D24*
%TO.C,R19*%
X179222400Y-138237500D03*
X179222400Y-141162500D03*
%TD*%
%TO.C,R3*%
X190296800Y-83525900D03*
X190296800Y-86450900D03*
%TD*%
D19*
%TO.C,NOT_THINK_SineLevelTrim1*%
X194310000Y-81026000D03*
X196810000Y-78526000D03*
X194310000Y-76026000D03*
%TD*%
D23*
%TO.C,R54*%
X179070000Y-66560600D03*
X179070000Y-68385600D03*
%TD*%
D30*
%TO.C,R7*%
X189888500Y-88747600D03*
X188063500Y-88747600D03*
%TD*%
D24*
%TO.C,R2*%
X189280800Y-38567900D03*
X189280800Y-41492900D03*
%TD*%
D10*
%TO.C,R8*%
X186082300Y-46634400D03*
X187907300Y-46634400D03*
%TD*%
D19*
%TO.C,NOT_THONKY_SineShapeTrim1*%
X181610000Y-56428000D03*
X179110000Y-58928000D03*
X181610000Y-61428000D03*
%TD*%
D24*
%TO.C,R24*%
X182245000Y-87245000D03*
X182245000Y-90170000D03*
%TD*%
D31*
%TO.C,C2*%
X179324000Y-95861400D03*
X179324000Y-92911400D03*
%TD*%
D21*
%TO.C,R17*%
X194564000Y-135193500D03*
X194564000Y-132268500D03*
%TD*%
D32*
%TO.C,J11*%
X193035000Y-146685000D03*
D33*
X193035000Y-144145000D03*
X190495000Y-146685000D03*
X190495000Y-144145000D03*
X187955000Y-146685000D03*
X187955000Y-144145000D03*
X185415000Y-146685000D03*
X185415000Y-144145000D03*
X182875000Y-146685000D03*
X182875000Y-144145000D03*
%TD*%
D34*
%TO.C,C7*%
X182880000Y-102438200D03*
X182880000Y-105388200D03*
%TD*%
D24*
%TO.C,R51*%
X178917600Y-70825900D03*
X178917600Y-73750900D03*
%TD*%
D25*
%TO.C,R36*%
X187187300Y-70307200D03*
X184262300Y-70307200D03*
%TD*%
D26*
%TO.C,U2*%
X179324000Y-130810000D03*
D27*
X179324000Y-128270000D03*
X179324000Y-125730000D03*
X179324000Y-123190000D03*
X179324000Y-120650000D03*
X179324000Y-118110000D03*
X179324000Y-115570000D03*
X179324000Y-113030000D03*
X186944000Y-113030000D03*
X186944000Y-115570000D03*
X186944000Y-118110000D03*
X186944000Y-120650000D03*
X186944000Y-123190000D03*
X186944000Y-125730000D03*
X186944000Y-128270000D03*
X186944000Y-130810000D03*
%TD*%
D10*
%TO.C,R40*%
X190095500Y-132080000D03*
X191920500Y-132080000D03*
%TD*%
D20*
%TO.C,R5*%
X196900800Y-52372900D03*
X196900800Y-50547900D03*
%TD*%
D19*
%TO.C,NOT+THINKY_CV1*%
X196905000Y-42966000D03*
X194405000Y-45466000D03*
X196905000Y-47966000D03*
%TD*%
D30*
%TO.C,R39*%
X183741700Y-133654800D03*
X181916700Y-133654800D03*
%TD*%
D24*
%TO.C,R68*%
X190093600Y-107503500D03*
X190093600Y-110428500D03*
%TD*%
D23*
%TO.C,R38*%
X179324000Y-133910700D03*
X179324000Y-135735700D03*
%TD*%
D34*
%TO.C,C9*%
X188620400Y-90981000D03*
X188620400Y-93931000D03*
%TD*%
D24*
%TO.C,R62*%
X187706000Y-107503500D03*
X187706000Y-110428500D03*
%TD*%
D19*
%TO.C,NOT_THINKY_TEMKO1*%
X196850000Y-57698000D03*
X194350000Y-60198000D03*
X196850000Y-62698000D03*
%TD*%
D34*
%TO.C,C3*%
X197002400Y-103020600D03*
X197002400Y-105970600D03*
%TD*%
D21*
%TO.C,R66*%
X196900800Y-110784100D03*
X196900800Y-107859100D03*
%TD*%
D35*
%TO.C,R1*%
X196900800Y-94957400D03*
X196900800Y-93307400D03*
%TD*%
D24*
%TO.C,R50*%
X187756800Y-63917100D03*
X187756800Y-66842100D03*
%TD*%
D36*
%TO.C,PolyStirene!C11*%
X189611000Y-139700000D03*
X187611000Y-139700000D03*
%TD*%
M02*
