M48
; DRILL file {KiCad 7.0.2} date Tue Jun 27 14:21:53 2023
; FORMAT={-:-/ absolute / inch / decimal}
; #@! TF.CreationDate,2023-06-27T14:21:53-04:00
; #@! TF.GenerationSoftware,Kicad,Pcbnew,7.0.2
; #@! TF.FileFunction,Plated,1,2,PTH
FMAT,2
INCH
; #@! TA.AperFunction,Plated,PTH,ViaDrill
T1C0.0157
; #@! TA.AperFunction,Plated,PTH,ComponentDrill
T2C0.0236
; #@! TA.AperFunction,Plated,PTH,ComponentDrill
T3C0.0315
; #@! TA.AperFunction,Plated,PTH,ComponentDrill
T4C0.0354
; #@! TA.AperFunction,Plated,PTH,ComponentDrill
T5C0.0394
; #@! TA.AperFunction,Plated,PTH,ComponentDrill
T6C0.0709
%
G90
G05
T1
X7.0551Y-4.3977
X7.1126Y-2.857
X7.1147Y-4.2344
X7.1159Y-5.3534
X7.1207Y-3.9537
X7.1338Y-2.732
X7.3121Y-3.2563
X7.3149Y-5.4548
X7.3264Y-3.4812
X7.3503Y-2.6907
X7.3771Y-3.6156
X7.42Y-4.0508
X7.4612Y-3.3604
X7.4936Y-4.2886
X7.5406Y-3.4355
X7.6156Y-4.0137
X7.676Y-5.1633
X7.7015Y-5.4788
X7.7475Y-5.3841
T2
X7.3863Y-5.5
X7.465Y-5.5
T3
X7.05Y-5.6708
X7.05Y-5.7692
X7.06Y-4.45
X7.06Y-4.55
X7.06Y-4.65
X7.06Y-4.75
X7.06Y-4.85
X7.06Y-4.95
X7.06Y-5.05
X7.06Y-5.15
X7.36Y-4.45
X7.36Y-4.55
X7.36Y-4.65
X7.36Y-4.75
X7.36Y-4.85
X7.36Y-4.95
X7.36Y-5.05
X7.36Y-5.15
X7.45Y-4.45
X7.45Y-4.55
X7.45Y-4.65
X7.45Y-4.75
X7.45Y-4.85
X7.45Y-4.95
X7.45Y-5.05
X7.75Y-4.45
X7.75Y-4.55
X7.75Y-4.65
X7.75Y-4.75
X7.75Y-4.85
X7.75Y-4.95
X7.75Y-5.05
T4
X7.045Y-2.9916
X7.045Y-3.1884
X7.0516Y-2.32
X7.0537Y-1.78
X7.065Y-3.09
X7.1434Y-3.09
X7.15Y-2.2216
X7.15Y-2.4184
X7.1522Y-1.6816
X7.1522Y-1.8784
X7.25Y-3.09
X7.435Y-3.09
X7.65Y-2.9931
X7.65Y-3.19
X7.6516Y-2.37
X7.6537Y-1.79
X7.7484Y-3.0916
X7.75Y-2.2716
X7.75Y-2.4684
X7.7522Y-1.6916
X7.7522Y-1.8884
T5
X7.1998Y-5.675
X7.1998Y-5.775
X7.2998Y-5.675
X7.2998Y-5.775
X7.3031Y-1.7234
X7.3031Y-2.3
X7.3033Y-2.8756
X7.3998Y-5.675
X7.3998Y-5.775
X7.4016Y-1.7234
X7.4016Y-2.3
X7.4018Y-2.8756
X7.4998Y-5.675
X7.4998Y-5.775
X7.5Y-1.7234
X7.5Y-2.3
X7.5002Y-2.8756
X7.5998Y-5.675
X7.5998Y-5.775
T2
G00X7.1803Y-3.3232
M15
G01X7.2197Y-3.3232
M16
G05
G00X7.1803Y-3.65
M15
G01X7.2197Y-3.65
M16
G05
G00X7.1803Y-3.772
M15
G01X7.2197Y-3.772
M16
G05
G00X7.1803Y-3.9232
M15
G01X7.2197Y-3.9232
M16
G05
G00X7.1803Y-4.25
M15
G01X7.2197Y-4.25
M16
G05
G00X7.1803Y-4.372
M15
G01X7.2197Y-4.372
M16
G05
G00X7.1803Y-4.5232
M15
G01X7.2197Y-4.5232
M16
G05
G00X7.1803Y-4.85
M15
G01X7.2197Y-4.85
M16
G05
G00X7.1803Y-4.972
M15
G01X7.2197Y-4.972
M16
G05
G00X7.1803Y-5.1
M15
G01X7.2197Y-5.1
M16
G05
G00X7.1803Y-5.4268
M15
G01X7.2197Y-5.4268
M16
G05
G00X7.1803Y-5.5488
M15
G01X7.2197Y-5.5488
M16
G05
G00X7.5803Y-3.3232
M15
G01X7.6197Y-3.3232
M16
G05
G00X7.5803Y-3.65
M15
G01X7.6197Y-3.65
M16
G05
G00X7.5803Y-3.772
M15
G01X7.6197Y-3.772
M16
G05
G00X7.5803Y-3.9232
M15
G01X7.6197Y-3.9232
M16
G05
G00X7.5803Y-4.25
M15
G01X7.6197Y-4.25
M16
G05
G00X7.5803Y-4.372
M15
G01X7.6197Y-4.372
M16
G05
G00X7.5803Y-4.5232
M15
G01X7.6197Y-4.5232
M16
G05
G00X7.5803Y-4.85
M15
G01X7.6197Y-4.85
M16
G05
G00X7.5803Y-4.972
M15
G01X7.6197Y-4.972
M16
G05
G00X7.5803Y-5.1
M15
G01X7.6197Y-5.1
M16
G05
G00X7.5803Y-5.4268
M15
G01X7.6197Y-5.4268
M16
G05
G00X7.5803Y-5.5488
M15
G01X7.6197Y-5.5488
M16
G05
T6
G00X7.2283Y-1.4537
M15
G01X7.2283Y-1.4419
M16
G05
G00X7.2283Y-2.0303
M15
G01X7.2283Y-2.0185
M16
G05
G00X7.2285Y-2.6059
M15
G01X7.2285Y-2.5941
M16
G05
G00X7.5748Y-1.4537
M15
G01X7.5748Y-1.4419
M16
G05
G00X7.5748Y-2.0303
M15
G01X7.5748Y-2.0185
M16
G05
G00X7.575Y-2.6059
M15
G01X7.575Y-2.5941
M16
G05
T0
M30
