%TF.GenerationSoftware,KiCad,Pcbnew,(6.0.5)*%
%TF.CreationDate,2023-05-17T00:25:04-04:00*%
%TF.ProjectId,as3340_no_mux,61733333-3430-45f6-9e6f-5f6d75782e6b,rev?*%
%TF.SameCoordinates,Original*%
%TF.FileFunction,Legend,Bot*%
%TF.FilePolarity,Positive*%
%FSLAX46Y46*%
G04 Gerber Fmt 4.6, Leading zero omitted, Abs format (unit mm)*
G04 Created by KiCad (PCBNEW (6.0.5)) date 2023-05-17 00:25:04*
%MOMM*%
%LPD*%
G01*
G04 APERTURE LIST*
%ADD10C,0.150000*%
%ADD11C,0.120000*%
G04 APERTURE END LIST*
D10*
%TO.C,R3*%
X125896666Y-127452380D02*
X126230000Y-126976190D01*
X126468095Y-127452380D02*
X126468095Y-126452380D01*
X126087142Y-126452380D01*
X125991904Y-126500000D01*
X125944285Y-126547619D01*
X125896666Y-126642857D01*
X125896666Y-126785714D01*
X125944285Y-126880952D01*
X125991904Y-126928571D01*
X126087142Y-126976190D01*
X126468095Y-126976190D01*
X125563333Y-126452380D02*
X124944285Y-126452380D01*
X125277619Y-126833333D01*
X125134761Y-126833333D01*
X125039523Y-126880952D01*
X124991904Y-126928571D01*
X124944285Y-127023809D01*
X124944285Y-127261904D01*
X124991904Y-127357142D01*
X125039523Y-127404761D01*
X125134761Y-127452380D01*
X125420476Y-127452380D01*
X125515714Y-127404761D01*
X125563333Y-127357142D01*
%TO.C,R67*%
X126372857Y-132532380D02*
X126706190Y-132056190D01*
X126944285Y-132532380D02*
X126944285Y-131532380D01*
X126563333Y-131532380D01*
X126468095Y-131580000D01*
X126420476Y-131627619D01*
X126372857Y-131722857D01*
X126372857Y-131865714D01*
X126420476Y-131960952D01*
X126468095Y-132008571D01*
X126563333Y-132056190D01*
X126944285Y-132056190D01*
X125515714Y-131532380D02*
X125706190Y-131532380D01*
X125801428Y-131580000D01*
X125849047Y-131627619D01*
X125944285Y-131770476D01*
X125991904Y-131960952D01*
X125991904Y-132341904D01*
X125944285Y-132437142D01*
X125896666Y-132484761D01*
X125801428Y-132532380D01*
X125610952Y-132532380D01*
X125515714Y-132484761D01*
X125468095Y-132437142D01*
X125420476Y-132341904D01*
X125420476Y-132103809D01*
X125468095Y-132008571D01*
X125515714Y-131960952D01*
X125610952Y-131913333D01*
X125801428Y-131913333D01*
X125896666Y-131960952D01*
X125944285Y-132008571D01*
X125991904Y-132103809D01*
X125087142Y-131532380D02*
X124420476Y-131532380D01*
X124849047Y-132532380D01*
%TO.C,R34*%
X119832380Y-125087142D02*
X119356190Y-124753809D01*
X119832380Y-124515714D02*
X118832380Y-124515714D01*
X118832380Y-124896666D01*
X118880000Y-124991904D01*
X118927619Y-125039523D01*
X119022857Y-125087142D01*
X119165714Y-125087142D01*
X119260952Y-125039523D01*
X119308571Y-124991904D01*
X119356190Y-124896666D01*
X119356190Y-124515714D01*
X118832380Y-125420476D02*
X118832380Y-126039523D01*
X119213333Y-125706190D01*
X119213333Y-125849047D01*
X119260952Y-125944285D01*
X119308571Y-125991904D01*
X119403809Y-126039523D01*
X119641904Y-126039523D01*
X119737142Y-125991904D01*
X119784761Y-125944285D01*
X119832380Y-125849047D01*
X119832380Y-125563333D01*
X119784761Y-125468095D01*
X119737142Y-125420476D01*
X119165714Y-126896666D02*
X119832380Y-126896666D01*
X118784761Y-126658571D02*
X119499047Y-126420476D01*
X119499047Y-127039523D01*
D11*
%TO.C,R3*%
X125002936Y-127910000D02*
X126457064Y-127910000D01*
X125002936Y-126090000D02*
X126457064Y-126090000D01*
%TO.C,R67*%
X125002936Y-132990000D02*
X126457064Y-132990000D01*
X125002936Y-131170000D02*
X126457064Y-131170000D01*
%TO.C,R34*%
X120290000Y-125002936D02*
X120290000Y-126457064D01*
X118470000Y-125002936D02*
X118470000Y-126457064D01*
%TD*%
M02*
