%FSLAX45Y45*%
G04 Gerber Fmt 4.5, Leading zero omitted, Abs format (unit mm)*
G04 Created by KiCad (PCBNEW (6.0.5)) date 2023-05-17 00:25:02*
%MOMM*%
%LPD*%
G01*
G04 APERTURE LIST*
%TA.AperFunction,Profile*%
%ADD10C,0.100000*%
%TD*%
%ADD11C,0.200000*%
%ADD12C,0.100000*%
G04 APERTURE END LIST*
D10*
X9271000Y-10160000D02*
X13335000Y-10160000D01*
X13335000Y-10160000D02*
X13335000Y-15748000D01*
X13335000Y-15748000D02*
X9271000Y-15748000D01*
X9271000Y-15748000D02*
X9271000Y-10160000D01*
X9271000Y-10160000D02*
X13335000Y-10160000D01*
X13335000Y-10160000D02*
X13335000Y-15748000D01*
X13335000Y-15748000D02*
X9271000Y-15748000D01*
X9271000Y-15748000D02*
X9271000Y-10160000D01*
D11*
D12*
X9725000Y-10495000D02*
X9825000Y-10595000D01*
X9825000Y-10495000D02*
X9725000Y-10595000D01*
X9725000Y-10995000D02*
X9825000Y-11095000D01*
X9825000Y-10995000D02*
X9725000Y-11095000D01*
X9725000Y-11892000D02*
X9825000Y-11992000D01*
X9825000Y-11892000D02*
X9725000Y-11992000D01*
X9725000Y-12392000D02*
X9825000Y-12492000D01*
X9825000Y-12392000D02*
X9725000Y-12492000D01*
X9725000Y-13289000D02*
X9825000Y-13389000D01*
X9825000Y-13289000D02*
X9725000Y-13389000D01*
X9725000Y-13789000D02*
X9825000Y-13889000D01*
X9825000Y-13789000D02*
X9725000Y-13889000D01*
X9725000Y-14686000D02*
X9825000Y-14786000D01*
X9825000Y-14686000D02*
X9725000Y-14786000D01*
X9725000Y-15186000D02*
X9825000Y-15286000D01*
X9825000Y-15186000D02*
X9725000Y-15286000D01*
D11*
X9523619Y-16063476D02*
X9523619Y-15863476D01*
X9571238Y-15863476D01*
X9599810Y-15873000D01*
X9618857Y-15892048D01*
X9628381Y-15911095D01*
X9637905Y-15949190D01*
X9637905Y-15977762D01*
X9628381Y-16015857D01*
X9618857Y-16034905D01*
X9599810Y-16053952D01*
X9571238Y-16063476D01*
X9523619Y-16063476D01*
X9723619Y-16063476D02*
X9723619Y-15930143D01*
X9723619Y-15968238D02*
X9733143Y-15949190D01*
X9742667Y-15939667D01*
X9761714Y-15930143D01*
X9780762Y-15930143D01*
X9847429Y-16063476D02*
X9847429Y-15930143D01*
X9847429Y-15863476D02*
X9837905Y-15873000D01*
X9847429Y-15882524D01*
X9856952Y-15873000D01*
X9847429Y-15863476D01*
X9847429Y-15882524D01*
X9971238Y-16063476D02*
X9952190Y-16053952D01*
X9942667Y-16034905D01*
X9942667Y-15863476D01*
X10076000Y-16063476D02*
X10056952Y-16053952D01*
X10047429Y-16034905D01*
X10047429Y-15863476D01*
X10304571Y-16063476D02*
X10304571Y-15863476D01*
X10371238Y-16006333D01*
X10437905Y-15863476D01*
X10437905Y-16063476D01*
X10618857Y-16063476D02*
X10618857Y-15958714D01*
X10609333Y-15939667D01*
X10590286Y-15930143D01*
X10552190Y-15930143D01*
X10533143Y-15939667D01*
X10618857Y-16053952D02*
X10599810Y-16063476D01*
X10552190Y-16063476D01*
X10533143Y-16053952D01*
X10523619Y-16034905D01*
X10523619Y-16015857D01*
X10533143Y-15996809D01*
X10552190Y-15987286D01*
X10599810Y-15987286D01*
X10618857Y-15977762D01*
X10714095Y-15930143D02*
X10714095Y-16130143D01*
X10714095Y-15939667D02*
X10733143Y-15930143D01*
X10771238Y-15930143D01*
X10790286Y-15939667D01*
X10799810Y-15949190D01*
X10809333Y-15968238D01*
X10809333Y-16025381D01*
X10799810Y-16044428D01*
X10790286Y-16053952D01*
X10771238Y-16063476D01*
X10733143Y-16063476D01*
X10714095Y-16053952D01*
X10895048Y-16044428D02*
X10904571Y-16053952D01*
X10895048Y-16063476D01*
X10885524Y-16053952D01*
X10895048Y-16044428D01*
X10895048Y-16063476D01*
X10895048Y-15939667D02*
X10904571Y-15949190D01*
X10895048Y-15958714D01*
X10885524Y-15949190D01*
X10895048Y-15939667D01*
X10895048Y-15958714D01*
D12*
X9166000Y-16343000D02*
X9266000Y-16443000D01*
X9266000Y-16343000D02*
X9166000Y-16443000D01*
D11*
X9628381Y-16483476D02*
X9514095Y-16483476D01*
X9571238Y-16483476D02*
X9571238Y-16283476D01*
X9552190Y-16312048D01*
X9533143Y-16331095D01*
X9514095Y-16340619D01*
X9714095Y-16464428D02*
X9723619Y-16473952D01*
X9714095Y-16483476D01*
X9704571Y-16473952D01*
X9714095Y-16464428D01*
X9714095Y-16483476D01*
X9847429Y-16283476D02*
X9866476Y-16283476D01*
X9885524Y-16293000D01*
X9895048Y-16302524D01*
X9904571Y-16321571D01*
X9914095Y-16359667D01*
X9914095Y-16407286D01*
X9904571Y-16445381D01*
X9895048Y-16464428D01*
X9885524Y-16473952D01*
X9866476Y-16483476D01*
X9847429Y-16483476D01*
X9828381Y-16473952D01*
X9818857Y-16464428D01*
X9809333Y-16445381D01*
X9799810Y-16407286D01*
X9799810Y-16359667D01*
X9809333Y-16321571D01*
X9818857Y-16302524D01*
X9828381Y-16293000D01*
X9847429Y-16283476D01*
X10037905Y-16283476D02*
X10056952Y-16283476D01*
X10076000Y-16293000D01*
X10085524Y-16302524D01*
X10095048Y-16321571D01*
X10104571Y-16359667D01*
X10104571Y-16407286D01*
X10095048Y-16445381D01*
X10085524Y-16464428D01*
X10076000Y-16473952D01*
X10056952Y-16483476D01*
X10037905Y-16483476D01*
X10018857Y-16473952D01*
X10009333Y-16464428D01*
X9999810Y-16445381D01*
X9990286Y-16407286D01*
X9990286Y-16359667D01*
X9999810Y-16321571D01*
X10009333Y-16302524D01*
X10018857Y-16293000D01*
X10037905Y-16283476D01*
X10228381Y-16283476D02*
X10247429Y-16283476D01*
X10266476Y-16293000D01*
X10276000Y-16302524D01*
X10285524Y-16321571D01*
X10295048Y-16359667D01*
X10295048Y-16407286D01*
X10285524Y-16445381D01*
X10276000Y-16464428D01*
X10266476Y-16473952D01*
X10247429Y-16483476D01*
X10228381Y-16483476D01*
X10209333Y-16473952D01*
X10199810Y-16464428D01*
X10190286Y-16445381D01*
X10180762Y-16407286D01*
X10180762Y-16359667D01*
X10190286Y-16321571D01*
X10199810Y-16302524D01*
X10209333Y-16293000D01*
X10228381Y-16283476D01*
X10380762Y-16483476D02*
X10380762Y-16350143D01*
X10380762Y-16369190D02*
X10390286Y-16359667D01*
X10409333Y-16350143D01*
X10437905Y-16350143D01*
X10456952Y-16359667D01*
X10466476Y-16378714D01*
X10466476Y-16483476D01*
X10466476Y-16378714D02*
X10476000Y-16359667D01*
X10495048Y-16350143D01*
X10523619Y-16350143D01*
X10542667Y-16359667D01*
X10552190Y-16378714D01*
X10552190Y-16483476D01*
X10647429Y-16483476D02*
X10647429Y-16350143D01*
X10647429Y-16369190D02*
X10656952Y-16359667D01*
X10676000Y-16350143D01*
X10704571Y-16350143D01*
X10723619Y-16359667D01*
X10733143Y-16378714D01*
X10733143Y-16483476D01*
X10733143Y-16378714D02*
X10742667Y-16359667D01*
X10761714Y-16350143D01*
X10790286Y-16350143D01*
X10809333Y-16359667D01*
X10818857Y-16378714D01*
X10818857Y-16483476D01*
X11209333Y-16273952D02*
X11037905Y-16531095D01*
X11466476Y-16283476D02*
X11485524Y-16283476D01*
X11504571Y-16293000D01*
X11514095Y-16302524D01*
X11523619Y-16321571D01*
X11533143Y-16359667D01*
X11533143Y-16407286D01*
X11523619Y-16445381D01*
X11514095Y-16464428D01*
X11504571Y-16473952D01*
X11485524Y-16483476D01*
X11466476Y-16483476D01*
X11447428Y-16473952D01*
X11437905Y-16464428D01*
X11428381Y-16445381D01*
X11418857Y-16407286D01*
X11418857Y-16359667D01*
X11428381Y-16321571D01*
X11437905Y-16302524D01*
X11447428Y-16293000D01*
X11466476Y-16283476D01*
X11618857Y-16464428D02*
X11628381Y-16473952D01*
X11618857Y-16483476D01*
X11609333Y-16473952D01*
X11618857Y-16464428D01*
X11618857Y-16483476D01*
X11752190Y-16283476D02*
X11771238Y-16283476D01*
X11790286Y-16293000D01*
X11799809Y-16302524D01*
X11809333Y-16321571D01*
X11818857Y-16359667D01*
X11818857Y-16407286D01*
X11809333Y-16445381D01*
X11799809Y-16464428D01*
X11790286Y-16473952D01*
X11771238Y-16483476D01*
X11752190Y-16483476D01*
X11733143Y-16473952D01*
X11723619Y-16464428D01*
X11714095Y-16445381D01*
X11704571Y-16407286D01*
X11704571Y-16359667D01*
X11714095Y-16321571D01*
X11723619Y-16302524D01*
X11733143Y-16293000D01*
X11752190Y-16283476D01*
X11885524Y-16283476D02*
X12009333Y-16283476D01*
X11942667Y-16359667D01*
X11971238Y-16359667D01*
X11990286Y-16369190D01*
X11999809Y-16378714D01*
X12009333Y-16397762D01*
X12009333Y-16445381D01*
X11999809Y-16464428D01*
X11990286Y-16473952D01*
X11971238Y-16483476D01*
X11914095Y-16483476D01*
X11895048Y-16473952D01*
X11885524Y-16464428D01*
X12104571Y-16483476D02*
X12142667Y-16483476D01*
X12161714Y-16473952D01*
X12171238Y-16464428D01*
X12190286Y-16435857D01*
X12199809Y-16397762D01*
X12199809Y-16321571D01*
X12190286Y-16302524D01*
X12180762Y-16293000D01*
X12161714Y-16283476D01*
X12123619Y-16283476D01*
X12104571Y-16293000D01*
X12095048Y-16302524D01*
X12085524Y-16321571D01*
X12085524Y-16369190D01*
X12095048Y-16388238D01*
X12104571Y-16397762D01*
X12123619Y-16407286D01*
X12161714Y-16407286D01*
X12180762Y-16397762D01*
X12190286Y-16388238D01*
X12199809Y-16369190D01*
X12371238Y-16350143D02*
X12371238Y-16483476D01*
X12323619Y-16273952D02*
X12276000Y-16416809D01*
X12399809Y-16416809D01*
X12466476Y-16283476D02*
X12466476Y-16321571D01*
X12542667Y-16283476D02*
X12542667Y-16321571D01*
X12837905Y-16559667D02*
X12828381Y-16550143D01*
X12809333Y-16521571D01*
X12799809Y-16502524D01*
X12790286Y-16473952D01*
X12780762Y-16426333D01*
X12780762Y-16388238D01*
X12790286Y-16340619D01*
X12799809Y-16312048D01*
X12809333Y-16293000D01*
X12828381Y-16264428D01*
X12837905Y-16254905D01*
X12942667Y-16369190D02*
X12923619Y-16359667D01*
X12914095Y-16350143D01*
X12904571Y-16331095D01*
X12904571Y-16321571D01*
X12914095Y-16302524D01*
X12923619Y-16293000D01*
X12942667Y-16283476D01*
X12980762Y-16283476D01*
X12999809Y-16293000D01*
X13009333Y-16302524D01*
X13018857Y-16321571D01*
X13018857Y-16331095D01*
X13009333Y-16350143D01*
X12999809Y-16359667D01*
X12980762Y-16369190D01*
X12942667Y-16369190D01*
X12923619Y-16378714D01*
X12914095Y-16388238D01*
X12904571Y-16407286D01*
X12904571Y-16445381D01*
X12914095Y-16464428D01*
X12923619Y-16473952D01*
X12942667Y-16483476D01*
X12980762Y-16483476D01*
X12999809Y-16473952D01*
X13009333Y-16464428D01*
X13018857Y-16445381D01*
X13018857Y-16407286D01*
X13009333Y-16388238D01*
X12999809Y-16378714D01*
X12980762Y-16369190D01*
X13256952Y-16483476D02*
X13256952Y-16283476D01*
X13342667Y-16483476D02*
X13342667Y-16378714D01*
X13333143Y-16359667D01*
X13314095Y-16350143D01*
X13285524Y-16350143D01*
X13266476Y-16359667D01*
X13256952Y-16369190D01*
X13466476Y-16483476D02*
X13447428Y-16473952D01*
X13437905Y-16464428D01*
X13428381Y-16445381D01*
X13428381Y-16388238D01*
X13437905Y-16369190D01*
X13447428Y-16359667D01*
X13466476Y-16350143D01*
X13495048Y-16350143D01*
X13514095Y-16359667D01*
X13523619Y-16369190D01*
X13533143Y-16388238D01*
X13533143Y-16445381D01*
X13523619Y-16464428D01*
X13514095Y-16473952D01*
X13495048Y-16483476D01*
X13466476Y-16483476D01*
X13647428Y-16483476D02*
X13628381Y-16473952D01*
X13618857Y-16454905D01*
X13618857Y-16283476D01*
X13799809Y-16473952D02*
X13780762Y-16483476D01*
X13742667Y-16483476D01*
X13723619Y-16473952D01*
X13714095Y-16454905D01*
X13714095Y-16378714D01*
X13723619Y-16359667D01*
X13742667Y-16350143D01*
X13780762Y-16350143D01*
X13799809Y-16359667D01*
X13809333Y-16378714D01*
X13809333Y-16397762D01*
X13714095Y-16416809D01*
X13885524Y-16473952D02*
X13904571Y-16483476D01*
X13942667Y-16483476D01*
X13961714Y-16473952D01*
X13971238Y-16454905D01*
X13971238Y-16445381D01*
X13961714Y-16426333D01*
X13942667Y-16416809D01*
X13914095Y-16416809D01*
X13895048Y-16407286D01*
X13885524Y-16388238D01*
X13885524Y-16378714D01*
X13895048Y-16359667D01*
X13914095Y-16350143D01*
X13942667Y-16350143D01*
X13961714Y-16359667D01*
X14037905Y-16559667D02*
X14047428Y-16550143D01*
X14066476Y-16521571D01*
X14076000Y-16502524D01*
X14085524Y-16473952D01*
X14095048Y-16426333D01*
X14095048Y-16388238D01*
X14085524Y-16340619D01*
X14076000Y-16312048D01*
X14066476Y-16293000D01*
X14047428Y-16264428D01*
X14037905Y-16254905D01*
X14399809Y-16559667D02*
X14390286Y-16550143D01*
X14371238Y-16521571D01*
X14361714Y-16502524D01*
X14352190Y-16473952D01*
X14342667Y-16426333D01*
X14342667Y-16388238D01*
X14352190Y-16340619D01*
X14361714Y-16312048D01*
X14371238Y-16293000D01*
X14390286Y-16264428D01*
X14399809Y-16254905D01*
X14476000Y-16350143D02*
X14476000Y-16483476D01*
X14476000Y-16369190D02*
X14485524Y-16359667D01*
X14504571Y-16350143D01*
X14533143Y-16350143D01*
X14552190Y-16359667D01*
X14561714Y-16378714D01*
X14561714Y-16483476D01*
X14685524Y-16483476D02*
X14666476Y-16473952D01*
X14656952Y-16464428D01*
X14647428Y-16445381D01*
X14647428Y-16388238D01*
X14656952Y-16369190D01*
X14666476Y-16359667D01*
X14685524Y-16350143D01*
X14714095Y-16350143D01*
X14733143Y-16359667D01*
X14742667Y-16369190D01*
X14752190Y-16388238D01*
X14752190Y-16445381D01*
X14742667Y-16464428D01*
X14733143Y-16473952D01*
X14714095Y-16483476D01*
X14685524Y-16483476D01*
X14809333Y-16350143D02*
X14885524Y-16350143D01*
X14837905Y-16283476D02*
X14837905Y-16454905D01*
X14847428Y-16473952D01*
X14866476Y-16483476D01*
X14885524Y-16483476D01*
X15104571Y-16350143D02*
X15104571Y-16550143D01*
X15104571Y-16359667D02*
X15123619Y-16350143D01*
X15161714Y-16350143D01*
X15180762Y-16359667D01*
X15190286Y-16369190D01*
X15199809Y-16388238D01*
X15199809Y-16445381D01*
X15190286Y-16464428D01*
X15180762Y-16473952D01*
X15161714Y-16483476D01*
X15123619Y-16483476D01*
X15104571Y-16473952D01*
X15314095Y-16483476D02*
X15295048Y-16473952D01*
X15285524Y-16454905D01*
X15285524Y-16283476D01*
X15476000Y-16483476D02*
X15476000Y-16378714D01*
X15466476Y-16359667D01*
X15447428Y-16350143D01*
X15409333Y-16350143D01*
X15390286Y-16359667D01*
X15476000Y-16473952D02*
X15456952Y-16483476D01*
X15409333Y-16483476D01*
X15390286Y-16473952D01*
X15380762Y-16454905D01*
X15380762Y-16435857D01*
X15390286Y-16416809D01*
X15409333Y-16407286D01*
X15456952Y-16407286D01*
X15476000Y-16397762D01*
X15542667Y-16350143D02*
X15618857Y-16350143D01*
X15571238Y-16283476D02*
X15571238Y-16454905D01*
X15580762Y-16473952D01*
X15599809Y-16483476D01*
X15618857Y-16483476D01*
X15761714Y-16473952D02*
X15742667Y-16483476D01*
X15704571Y-16483476D01*
X15685524Y-16473952D01*
X15676000Y-16454905D01*
X15676000Y-16378714D01*
X15685524Y-16359667D01*
X15704571Y-16350143D01*
X15742667Y-16350143D01*
X15761714Y-16359667D01*
X15771238Y-16378714D01*
X15771238Y-16397762D01*
X15676000Y-16416809D01*
X15942667Y-16483476D02*
X15942667Y-16283476D01*
X15942667Y-16473952D02*
X15923619Y-16483476D01*
X15885524Y-16483476D01*
X15866476Y-16473952D01*
X15856952Y-16464428D01*
X15847428Y-16445381D01*
X15847428Y-16388238D01*
X15856952Y-16369190D01*
X15866476Y-16359667D01*
X15885524Y-16350143D01*
X15923619Y-16350143D01*
X15942667Y-16359667D01*
X16018857Y-16559667D02*
X16028381Y-16550143D01*
X16047428Y-16521571D01*
X16056952Y-16502524D01*
X16066476Y-16473952D01*
X16076000Y-16426333D01*
X16076000Y-16388238D01*
X16066476Y-16340619D01*
X16056952Y-16312048D01*
X16047428Y-16293000D01*
X16028381Y-16264428D01*
X16018857Y-16254905D01*
M02*
