%TF.GenerationSoftware,KiCad,Pcbnew,7.0.2*%
%TF.CreationDate,2023-06-12T17:36:46-04:00*%
%TF.ProjectId,as3340_no_mux,61733333-3430-45f6-9e6f-5f6d75782e6b,rev?*%
%TF.SameCoordinates,Original*%
%TF.FileFunction,Paste,Bot*%
%TF.FilePolarity,Positive*%
%FSLAX46Y46*%
G04 Gerber Fmt 4.6, Leading zero omitted, Abs format (unit mm)*
G04 Created by KiCad (PCBNEW 7.0.2) date 2023-06-12 17:36:46*
%MOMM*%
%LPD*%
G01*
G04 APERTURE LIST*
G04 Aperture macros list*
%AMRoundRect*
0 Rectangle with rounded corners*
0 $1 Rounding radius*
0 $2 $3 $4 $5 $6 $7 $8 $9 X,Y pos of 4 corners*
0 Add a 4 corners polygon primitive as box body*
4,1,4,$2,$3,$4,$5,$6,$7,$8,$9,$2,$3,0*
0 Add four circle primitives for the rounded corners*
1,1,$1+$1,$2,$3*
1,1,$1+$1,$4,$5*
1,1,$1+$1,$6,$7*
1,1,$1+$1,$8,$9*
0 Add four rect primitives between the rounded corners*
20,1,$1+$1,$2,$3,$4,$5,0*
20,1,$1+$1,$4,$5,$6,$7,0*
20,1,$1+$1,$6,$7,$8,$9,0*
20,1,$1+$1,$8,$9,$2,$3,0*%
G04 Aperture macros list end*
%ADD10RoundRect,0.250000X-0.312500X-0.625000X0.312500X-0.625000X0.312500X0.625000X-0.312500X0.625000X0*%
%ADD11RoundRect,0.250000X0.325000X0.650000X-0.325000X0.650000X-0.325000X-0.650000X0.325000X-0.650000X0*%
%ADD12RoundRect,0.250000X0.625000X-0.312500X0.625000X0.312500X-0.625000X0.312500X-0.625000X-0.312500X0*%
%ADD13RoundRect,0.250000X-0.625000X0.312500X-0.625000X-0.312500X0.625000X-0.312500X0.625000X0.312500X0*%
%ADD14RoundRect,0.250000X0.312500X0.625000X-0.312500X0.625000X-0.312500X-0.625000X0.312500X-0.625000X0*%
%ADD15RoundRect,0.150000X-0.150000X0.825000X-0.150000X-0.825000X0.150000X-0.825000X0.150000X0.825000X0*%
%ADD16RoundRect,0.250000X0.650000X-0.325000X0.650000X0.325000X-0.650000X0.325000X-0.650000X-0.325000X0*%
%ADD17RoundRect,0.250000X-0.650000X0.325000X-0.650000X-0.325000X0.650000X-0.325000X0.650000X0.325000X0*%
G04 APERTURE END LIST*
D10*
%TO.C,R46*%
X189545500Y-134493000D03*
X192470500Y-134493000D03*
%TD*%
D11*
%TO.C,C1*%
X190247800Y-98145600D03*
X187297800Y-98145600D03*
%TD*%
D12*
%TO.C,R60*%
X179120800Y-105653300D03*
X179120800Y-102728300D03*
%TD*%
%TO.C,R69*%
X196900800Y-101284500D03*
X196900800Y-98359500D03*
%TD*%
D10*
%TO.C,R6*%
X187665900Y-61366400D03*
X190590900Y-61366400D03*
%TD*%
D13*
%TO.C,R55*%
X179222400Y-83017900D03*
X179222400Y-85942900D03*
%TD*%
D10*
%TO.C,R34*%
X189139100Y-70307200D03*
X192064100Y-70307200D03*
%TD*%
D13*
%TO.C,R4*%
X196900800Y-140117100D03*
X196900800Y-143042100D03*
%TD*%
D12*
%TO.C,R58*%
X179120800Y-110377700D03*
X179120800Y-107452700D03*
%TD*%
D14*
%TO.C,R11*%
X190286100Y-103022400D03*
X187361100Y-103022400D03*
%TD*%
D13*
%TO.C,R25*%
X185826400Y-90942700D03*
X185826400Y-93867700D03*
%TD*%
%TO.C,R48*%
X179222400Y-98003900D03*
X179222400Y-100928900D03*
%TD*%
%TO.C,R37*%
X196951600Y-87996300D03*
X196951600Y-90921300D03*
%TD*%
D10*
%TO.C,R16*%
X185278300Y-55981600D03*
X188203300Y-55981600D03*
%TD*%
D13*
%TO.C,R10*%
X196850000Y-83119500D03*
X196850000Y-86044500D03*
%TD*%
%TO.C,R20*%
X185369200Y-86167500D03*
X185369200Y-89092500D03*
%TD*%
D12*
%TO.C,R67*%
X196850000Y-133644100D03*
X196850000Y-130719100D03*
%TD*%
D15*
%TO.C,U1*%
X183388000Y-75822000D03*
X184658000Y-75822000D03*
X185928000Y-75822000D03*
X187198000Y-75822000D03*
X188468000Y-75822000D03*
X189738000Y-75822000D03*
X191008000Y-75822000D03*
X192278000Y-75822000D03*
X192278000Y-80772000D03*
X191008000Y-80772000D03*
X189738000Y-80772000D03*
X188468000Y-80772000D03*
X187198000Y-80772000D03*
X185928000Y-80772000D03*
X184658000Y-80772000D03*
X183388000Y-80772000D03*
%TD*%
D13*
%TO.C,R9*%
X186385200Y-133411500D03*
X186385200Y-136336500D03*
%TD*%
D12*
%TO.C,R26*%
X196951600Y-138368500D03*
X196951600Y-135443500D03*
%TD*%
D10*
%TO.C,R64*%
X187411900Y-105460800D03*
X190336900Y-105460800D03*
%TD*%
D13*
%TO.C,R19*%
X179222400Y-138237500D03*
X179222400Y-141162500D03*
%TD*%
%TO.C,R3*%
X190296800Y-83525900D03*
X190296800Y-86450900D03*
%TD*%
%TO.C,R54*%
X179070000Y-66010600D03*
X179070000Y-68935600D03*
%TD*%
D14*
%TO.C,R7*%
X190438500Y-88747600D03*
X187513500Y-88747600D03*
%TD*%
D13*
%TO.C,R2*%
X189280800Y-38567900D03*
X189280800Y-41492900D03*
%TD*%
D10*
%TO.C,R8*%
X185532300Y-46634400D03*
X188457300Y-46634400D03*
%TD*%
D13*
%TO.C,R24*%
X182930800Y-86167500D03*
X182930800Y-89092500D03*
%TD*%
D16*
%TO.C,C2*%
X179324000Y-95861400D03*
X179324000Y-92911400D03*
%TD*%
D12*
%TO.C,R17*%
X194564000Y-135193500D03*
X194564000Y-132268500D03*
%TD*%
D10*
%TO.C,R12*%
X187310300Y-100584000D03*
X190235300Y-100584000D03*
%TD*%
D17*
%TO.C,C7*%
X183083200Y-101496600D03*
X183083200Y-104446600D03*
%TD*%
D13*
%TO.C,R51*%
X178917600Y-70825900D03*
X178917600Y-73750900D03*
%TD*%
D14*
%TO.C,R36*%
X187187300Y-70307200D03*
X184262300Y-70307200D03*
%TD*%
D10*
%TO.C,R40*%
X189545500Y-132080000D03*
X192470500Y-132080000D03*
%TD*%
D12*
%TO.C,R5*%
X196900800Y-52922900D03*
X196900800Y-49997900D03*
%TD*%
D14*
%TO.C,R39*%
X184291700Y-133654800D03*
X181366700Y-133654800D03*
%TD*%
D13*
%TO.C,R68*%
X190093600Y-107503500D03*
X190093600Y-110428500D03*
%TD*%
%TO.C,R38*%
X179324000Y-133360700D03*
X179324000Y-136285700D03*
%TD*%
D17*
%TO.C,C9*%
X188620400Y-90981000D03*
X188620400Y-93931000D03*
%TD*%
D13*
%TO.C,R62*%
X187706000Y-107503500D03*
X187706000Y-110428500D03*
%TD*%
D17*
%TO.C,C3*%
X197002400Y-103020600D03*
X197002400Y-105970600D03*
%TD*%
D12*
%TO.C,R66*%
X196900800Y-110784100D03*
X196900800Y-107859100D03*
%TD*%
%TO.C,R1*%
X196900800Y-95594900D03*
X196900800Y-92669900D03*
%TD*%
D13*
%TO.C,R50*%
X187756800Y-63917100D03*
X187756800Y-66842100D03*
%TD*%
M02*
