%TF.GenerationSoftware,KiCad,Pcbnew,7.0.2*%
%TF.CreationDate,2023-06-12T17:36:46-04:00*%
%TF.ProjectId,as3340_no_mux,61733333-3430-45f6-9e6f-5f6d75782e6b,rev?*%
%TF.SameCoordinates,Original*%
%TF.FileFunction,Legend,Bot*%
%TF.FilePolarity,Positive*%
%FSLAX46Y46*%
G04 Gerber Fmt 4.6, Leading zero omitted, Abs format (unit mm)*
G04 Created by KiCad (PCBNEW 7.0.2) date 2023-06-12 17:36:46*
%MOMM*%
%LPD*%
G01*
G04 APERTURE LIST*
%ADD10C,0.150000*%
%ADD11C,0.120000*%
G04 APERTURE END LIST*
D10*
%TO.C,R46*%
X191650857Y-136775619D02*
X191984190Y-136299428D01*
X192222285Y-136775619D02*
X192222285Y-135775619D01*
X192222285Y-135775619D02*
X191841333Y-135775619D01*
X191841333Y-135775619D02*
X191746095Y-135823238D01*
X191746095Y-135823238D02*
X191698476Y-135870857D01*
X191698476Y-135870857D02*
X191650857Y-135966095D01*
X191650857Y-135966095D02*
X191650857Y-136108952D01*
X191650857Y-136108952D02*
X191698476Y-136204190D01*
X191698476Y-136204190D02*
X191746095Y-136251809D01*
X191746095Y-136251809D02*
X191841333Y-136299428D01*
X191841333Y-136299428D02*
X192222285Y-136299428D01*
X190793714Y-136108952D02*
X190793714Y-136775619D01*
X191031809Y-135728000D02*
X191269904Y-136442285D01*
X191269904Y-136442285D02*
X190650857Y-136442285D01*
X189841333Y-135775619D02*
X190031809Y-135775619D01*
X190031809Y-135775619D02*
X190127047Y-135823238D01*
X190127047Y-135823238D02*
X190174666Y-135870857D01*
X190174666Y-135870857D02*
X190269904Y-136013714D01*
X190269904Y-136013714D02*
X190317523Y-136204190D01*
X190317523Y-136204190D02*
X190317523Y-136585142D01*
X190317523Y-136585142D02*
X190269904Y-136680380D01*
X190269904Y-136680380D02*
X190222285Y-136728000D01*
X190222285Y-136728000D02*
X190127047Y-136775619D01*
X190127047Y-136775619D02*
X189936571Y-136775619D01*
X189936571Y-136775619D02*
X189841333Y-136728000D01*
X189841333Y-136728000D02*
X189793714Y-136680380D01*
X189793714Y-136680380D02*
X189746095Y-136585142D01*
X189746095Y-136585142D02*
X189746095Y-136347047D01*
X189746095Y-136347047D02*
X189793714Y-136251809D01*
X189793714Y-136251809D02*
X189841333Y-136204190D01*
X189841333Y-136204190D02*
X189936571Y-136156571D01*
X189936571Y-136156571D02*
X190127047Y-136156571D01*
X190127047Y-136156571D02*
X190222285Y-136204190D01*
X190222285Y-136204190D02*
X190269904Y-136251809D01*
X190269904Y-136251809D02*
X190317523Y-136347047D01*
%TO.C,C1*%
X188939466Y-96662980D02*
X188987085Y-96710600D01*
X188987085Y-96710600D02*
X189129942Y-96758219D01*
X189129942Y-96758219D02*
X189225180Y-96758219D01*
X189225180Y-96758219D02*
X189368037Y-96710600D01*
X189368037Y-96710600D02*
X189463275Y-96615361D01*
X189463275Y-96615361D02*
X189510894Y-96520123D01*
X189510894Y-96520123D02*
X189558513Y-96329647D01*
X189558513Y-96329647D02*
X189558513Y-96186790D01*
X189558513Y-96186790D02*
X189510894Y-95996314D01*
X189510894Y-95996314D02*
X189463275Y-95901076D01*
X189463275Y-95901076D02*
X189368037Y-95805838D01*
X189368037Y-95805838D02*
X189225180Y-95758219D01*
X189225180Y-95758219D02*
X189129942Y-95758219D01*
X189129942Y-95758219D02*
X188987085Y-95805838D01*
X188987085Y-95805838D02*
X188939466Y-95853457D01*
X187987085Y-96758219D02*
X188558513Y-96758219D01*
X188272799Y-96758219D02*
X188272799Y-95758219D01*
X188272799Y-95758219D02*
X188368037Y-95901076D01*
X188368037Y-95901076D02*
X188463275Y-95996314D01*
X188463275Y-95996314D02*
X188558513Y-96043933D01*
%TO.C,R60*%
X181403419Y-103547942D02*
X180927228Y-103214609D01*
X181403419Y-102976514D02*
X180403419Y-102976514D01*
X180403419Y-102976514D02*
X180403419Y-103357466D01*
X180403419Y-103357466D02*
X180451038Y-103452704D01*
X180451038Y-103452704D02*
X180498657Y-103500323D01*
X180498657Y-103500323D02*
X180593895Y-103547942D01*
X180593895Y-103547942D02*
X180736752Y-103547942D01*
X180736752Y-103547942D02*
X180831990Y-103500323D01*
X180831990Y-103500323D02*
X180879609Y-103452704D01*
X180879609Y-103452704D02*
X180927228Y-103357466D01*
X180927228Y-103357466D02*
X180927228Y-102976514D01*
X180403419Y-104405085D02*
X180403419Y-104214609D01*
X180403419Y-104214609D02*
X180451038Y-104119371D01*
X180451038Y-104119371D02*
X180498657Y-104071752D01*
X180498657Y-104071752D02*
X180641514Y-103976514D01*
X180641514Y-103976514D02*
X180831990Y-103928895D01*
X180831990Y-103928895D02*
X181212942Y-103928895D01*
X181212942Y-103928895D02*
X181308180Y-103976514D01*
X181308180Y-103976514D02*
X181355800Y-104024133D01*
X181355800Y-104024133D02*
X181403419Y-104119371D01*
X181403419Y-104119371D02*
X181403419Y-104309847D01*
X181403419Y-104309847D02*
X181355800Y-104405085D01*
X181355800Y-104405085D02*
X181308180Y-104452704D01*
X181308180Y-104452704D02*
X181212942Y-104500323D01*
X181212942Y-104500323D02*
X180974847Y-104500323D01*
X180974847Y-104500323D02*
X180879609Y-104452704D01*
X180879609Y-104452704D02*
X180831990Y-104405085D01*
X180831990Y-104405085D02*
X180784371Y-104309847D01*
X180784371Y-104309847D02*
X180784371Y-104119371D01*
X180784371Y-104119371D02*
X180831990Y-104024133D01*
X180831990Y-104024133D02*
X180879609Y-103976514D01*
X180879609Y-103976514D02*
X180974847Y-103928895D01*
X180403419Y-105119371D02*
X180403419Y-105214609D01*
X180403419Y-105214609D02*
X180451038Y-105309847D01*
X180451038Y-105309847D02*
X180498657Y-105357466D01*
X180498657Y-105357466D02*
X180593895Y-105405085D01*
X180593895Y-105405085D02*
X180784371Y-105452704D01*
X180784371Y-105452704D02*
X181022466Y-105452704D01*
X181022466Y-105452704D02*
X181212942Y-105405085D01*
X181212942Y-105405085D02*
X181308180Y-105357466D01*
X181308180Y-105357466D02*
X181355800Y-105309847D01*
X181355800Y-105309847D02*
X181403419Y-105214609D01*
X181403419Y-105214609D02*
X181403419Y-105119371D01*
X181403419Y-105119371D02*
X181355800Y-105024133D01*
X181355800Y-105024133D02*
X181308180Y-104976514D01*
X181308180Y-104976514D02*
X181212942Y-104928895D01*
X181212942Y-104928895D02*
X181022466Y-104881276D01*
X181022466Y-104881276D02*
X180784371Y-104881276D01*
X180784371Y-104881276D02*
X180593895Y-104928895D01*
X180593895Y-104928895D02*
X180498657Y-104976514D01*
X180498657Y-104976514D02*
X180451038Y-105024133D01*
X180451038Y-105024133D02*
X180403419Y-105119371D01*
%TO.C,NOT_THONKY_HF_TRACK1*%
X190617381Y-41114619D02*
X190617381Y-40114619D01*
X190617381Y-40114619D02*
X190045953Y-41114619D01*
X190045953Y-41114619D02*
X190045953Y-40114619D01*
X189379286Y-40114619D02*
X189188810Y-40114619D01*
X189188810Y-40114619D02*
X189093572Y-40162238D01*
X189093572Y-40162238D02*
X188998334Y-40257476D01*
X188998334Y-40257476D02*
X188950715Y-40447952D01*
X188950715Y-40447952D02*
X188950715Y-40781285D01*
X188950715Y-40781285D02*
X188998334Y-40971761D01*
X188998334Y-40971761D02*
X189093572Y-41067000D01*
X189093572Y-41067000D02*
X189188810Y-41114619D01*
X189188810Y-41114619D02*
X189379286Y-41114619D01*
X189379286Y-41114619D02*
X189474524Y-41067000D01*
X189474524Y-41067000D02*
X189569762Y-40971761D01*
X189569762Y-40971761D02*
X189617381Y-40781285D01*
X189617381Y-40781285D02*
X189617381Y-40447952D01*
X189617381Y-40447952D02*
X189569762Y-40257476D01*
X189569762Y-40257476D02*
X189474524Y-40162238D01*
X189474524Y-40162238D02*
X189379286Y-40114619D01*
X188665000Y-40114619D02*
X188093572Y-40114619D01*
X188379286Y-41114619D02*
X188379286Y-40114619D01*
X187998334Y-41209857D02*
X187236429Y-41209857D01*
X187141190Y-40114619D02*
X186569762Y-40114619D01*
X186855476Y-41114619D02*
X186855476Y-40114619D01*
X186236428Y-41114619D02*
X186236428Y-40114619D01*
X186236428Y-40590809D02*
X185665000Y-40590809D01*
X185665000Y-41114619D02*
X185665000Y-40114619D01*
X184998333Y-40114619D02*
X184807857Y-40114619D01*
X184807857Y-40114619D02*
X184712619Y-40162238D01*
X184712619Y-40162238D02*
X184617381Y-40257476D01*
X184617381Y-40257476D02*
X184569762Y-40447952D01*
X184569762Y-40447952D02*
X184569762Y-40781285D01*
X184569762Y-40781285D02*
X184617381Y-40971761D01*
X184617381Y-40971761D02*
X184712619Y-41067000D01*
X184712619Y-41067000D02*
X184807857Y-41114619D01*
X184807857Y-41114619D02*
X184998333Y-41114619D01*
X184998333Y-41114619D02*
X185093571Y-41067000D01*
X185093571Y-41067000D02*
X185188809Y-40971761D01*
X185188809Y-40971761D02*
X185236428Y-40781285D01*
X185236428Y-40781285D02*
X185236428Y-40447952D01*
X185236428Y-40447952D02*
X185188809Y-40257476D01*
X185188809Y-40257476D02*
X185093571Y-40162238D01*
X185093571Y-40162238D02*
X184998333Y-40114619D01*
X184141190Y-41114619D02*
X184141190Y-40114619D01*
X184141190Y-40114619D02*
X183569762Y-41114619D01*
X183569762Y-41114619D02*
X183569762Y-40114619D01*
X183093571Y-41114619D02*
X183093571Y-40114619D01*
X182522143Y-41114619D02*
X182950714Y-40543190D01*
X182522143Y-40114619D02*
X183093571Y-40686047D01*
X181903095Y-40638428D02*
X181903095Y-41114619D01*
X182236428Y-40114619D02*
X181903095Y-40638428D01*
X181903095Y-40638428D02*
X181569762Y-40114619D01*
X181474524Y-41209857D02*
X180712619Y-41209857D01*
X180474523Y-41114619D02*
X180474523Y-40114619D01*
X180474523Y-40590809D02*
X179903095Y-40590809D01*
X179903095Y-41114619D02*
X179903095Y-40114619D01*
X179093571Y-40590809D02*
X179426904Y-40590809D01*
X179426904Y-41114619D02*
X179426904Y-40114619D01*
X179426904Y-40114619D02*
X178950714Y-40114619D01*
X178807857Y-41209857D02*
X178045952Y-41209857D01*
X177950713Y-40114619D02*
X177379285Y-40114619D01*
X177664999Y-41114619D02*
X177664999Y-40114619D01*
X176474523Y-41114619D02*
X176807856Y-40638428D01*
X177045951Y-41114619D02*
X177045951Y-40114619D01*
X177045951Y-40114619D02*
X176664999Y-40114619D01*
X176664999Y-40114619D02*
X176569761Y-40162238D01*
X176569761Y-40162238D02*
X176522142Y-40209857D01*
X176522142Y-40209857D02*
X176474523Y-40305095D01*
X176474523Y-40305095D02*
X176474523Y-40447952D01*
X176474523Y-40447952D02*
X176522142Y-40543190D01*
X176522142Y-40543190D02*
X176569761Y-40590809D01*
X176569761Y-40590809D02*
X176664999Y-40638428D01*
X176664999Y-40638428D02*
X177045951Y-40638428D01*
X176093570Y-40828904D02*
X175617380Y-40828904D01*
X176188808Y-41114619D02*
X175855475Y-40114619D01*
X175855475Y-40114619D02*
X175522142Y-41114619D01*
X174617380Y-41019380D02*
X174664999Y-41067000D01*
X174664999Y-41067000D02*
X174807856Y-41114619D01*
X174807856Y-41114619D02*
X174903094Y-41114619D01*
X174903094Y-41114619D02*
X175045951Y-41067000D01*
X175045951Y-41067000D02*
X175141189Y-40971761D01*
X175141189Y-40971761D02*
X175188808Y-40876523D01*
X175188808Y-40876523D02*
X175236427Y-40686047D01*
X175236427Y-40686047D02*
X175236427Y-40543190D01*
X175236427Y-40543190D02*
X175188808Y-40352714D01*
X175188808Y-40352714D02*
X175141189Y-40257476D01*
X175141189Y-40257476D02*
X175045951Y-40162238D01*
X175045951Y-40162238D02*
X174903094Y-40114619D01*
X174903094Y-40114619D02*
X174807856Y-40114619D01*
X174807856Y-40114619D02*
X174664999Y-40162238D01*
X174664999Y-40162238D02*
X174617380Y-40209857D01*
X174188808Y-41114619D02*
X174188808Y-40114619D01*
X173617380Y-41114619D02*
X174045951Y-40543190D01*
X173617380Y-40114619D02*
X174188808Y-40686047D01*
X172664999Y-41114619D02*
X173236427Y-41114619D01*
X172950713Y-41114619D02*
X172950713Y-40114619D01*
X172950713Y-40114619D02*
X173045951Y-40257476D01*
X173045951Y-40257476D02*
X173141189Y-40352714D01*
X173141189Y-40352714D02*
X173236427Y-40400333D01*
%TO.C,R69*%
X199183419Y-99179142D02*
X198707228Y-98845809D01*
X199183419Y-98607714D02*
X198183419Y-98607714D01*
X198183419Y-98607714D02*
X198183419Y-98988666D01*
X198183419Y-98988666D02*
X198231038Y-99083904D01*
X198231038Y-99083904D02*
X198278657Y-99131523D01*
X198278657Y-99131523D02*
X198373895Y-99179142D01*
X198373895Y-99179142D02*
X198516752Y-99179142D01*
X198516752Y-99179142D02*
X198611990Y-99131523D01*
X198611990Y-99131523D02*
X198659609Y-99083904D01*
X198659609Y-99083904D02*
X198707228Y-98988666D01*
X198707228Y-98988666D02*
X198707228Y-98607714D01*
X198183419Y-100036285D02*
X198183419Y-99845809D01*
X198183419Y-99845809D02*
X198231038Y-99750571D01*
X198231038Y-99750571D02*
X198278657Y-99702952D01*
X198278657Y-99702952D02*
X198421514Y-99607714D01*
X198421514Y-99607714D02*
X198611990Y-99560095D01*
X198611990Y-99560095D02*
X198992942Y-99560095D01*
X198992942Y-99560095D02*
X199088180Y-99607714D01*
X199088180Y-99607714D02*
X199135800Y-99655333D01*
X199135800Y-99655333D02*
X199183419Y-99750571D01*
X199183419Y-99750571D02*
X199183419Y-99941047D01*
X199183419Y-99941047D02*
X199135800Y-100036285D01*
X199135800Y-100036285D02*
X199088180Y-100083904D01*
X199088180Y-100083904D02*
X198992942Y-100131523D01*
X198992942Y-100131523D02*
X198754847Y-100131523D01*
X198754847Y-100131523D02*
X198659609Y-100083904D01*
X198659609Y-100083904D02*
X198611990Y-100036285D01*
X198611990Y-100036285D02*
X198564371Y-99941047D01*
X198564371Y-99941047D02*
X198564371Y-99750571D01*
X198564371Y-99750571D02*
X198611990Y-99655333D01*
X198611990Y-99655333D02*
X198659609Y-99607714D01*
X198659609Y-99607714D02*
X198754847Y-99560095D01*
X199183419Y-100607714D02*
X199183419Y-100798190D01*
X199183419Y-100798190D02*
X199135800Y-100893428D01*
X199135800Y-100893428D02*
X199088180Y-100941047D01*
X199088180Y-100941047D02*
X198945323Y-101036285D01*
X198945323Y-101036285D02*
X198754847Y-101083904D01*
X198754847Y-101083904D02*
X198373895Y-101083904D01*
X198373895Y-101083904D02*
X198278657Y-101036285D01*
X198278657Y-101036285D02*
X198231038Y-100988666D01*
X198231038Y-100988666D02*
X198183419Y-100893428D01*
X198183419Y-100893428D02*
X198183419Y-100702952D01*
X198183419Y-100702952D02*
X198231038Y-100607714D01*
X198231038Y-100607714D02*
X198278657Y-100560095D01*
X198278657Y-100560095D02*
X198373895Y-100512476D01*
X198373895Y-100512476D02*
X198611990Y-100512476D01*
X198611990Y-100512476D02*
X198707228Y-100560095D01*
X198707228Y-100560095D02*
X198754847Y-100607714D01*
X198754847Y-100607714D02*
X198802466Y-100702952D01*
X198802466Y-100702952D02*
X198802466Y-100893428D01*
X198802466Y-100893428D02*
X198754847Y-100988666D01*
X198754847Y-100988666D02*
X198707228Y-101036285D01*
X198707228Y-101036285D02*
X198611990Y-101083904D01*
%TO.C,R6*%
X189295066Y-63649019D02*
X189628399Y-63172828D01*
X189866494Y-63649019D02*
X189866494Y-62649019D01*
X189866494Y-62649019D02*
X189485542Y-62649019D01*
X189485542Y-62649019D02*
X189390304Y-62696638D01*
X189390304Y-62696638D02*
X189342685Y-62744257D01*
X189342685Y-62744257D02*
X189295066Y-62839495D01*
X189295066Y-62839495D02*
X189295066Y-62982352D01*
X189295066Y-62982352D02*
X189342685Y-63077590D01*
X189342685Y-63077590D02*
X189390304Y-63125209D01*
X189390304Y-63125209D02*
X189485542Y-63172828D01*
X189485542Y-63172828D02*
X189866494Y-63172828D01*
X188437923Y-62649019D02*
X188628399Y-62649019D01*
X188628399Y-62649019D02*
X188723637Y-62696638D01*
X188723637Y-62696638D02*
X188771256Y-62744257D01*
X188771256Y-62744257D02*
X188866494Y-62887114D01*
X188866494Y-62887114D02*
X188914113Y-63077590D01*
X188914113Y-63077590D02*
X188914113Y-63458542D01*
X188914113Y-63458542D02*
X188866494Y-63553780D01*
X188866494Y-63553780D02*
X188818875Y-63601400D01*
X188818875Y-63601400D02*
X188723637Y-63649019D01*
X188723637Y-63649019D02*
X188533161Y-63649019D01*
X188533161Y-63649019D02*
X188437923Y-63601400D01*
X188437923Y-63601400D02*
X188390304Y-63553780D01*
X188390304Y-63553780D02*
X188342685Y-63458542D01*
X188342685Y-63458542D02*
X188342685Y-63220447D01*
X188342685Y-63220447D02*
X188390304Y-63125209D01*
X188390304Y-63125209D02*
X188437923Y-63077590D01*
X188437923Y-63077590D02*
X188533161Y-63029971D01*
X188533161Y-63029971D02*
X188723637Y-63029971D01*
X188723637Y-63029971D02*
X188818875Y-63077590D01*
X188818875Y-63077590D02*
X188866494Y-63125209D01*
X188866494Y-63125209D02*
X188914113Y-63220447D01*
%TO.C,R55*%
X177865019Y-83837542D02*
X177388828Y-83504209D01*
X177865019Y-83266114D02*
X176865019Y-83266114D01*
X176865019Y-83266114D02*
X176865019Y-83647066D01*
X176865019Y-83647066D02*
X176912638Y-83742304D01*
X176912638Y-83742304D02*
X176960257Y-83789923D01*
X176960257Y-83789923D02*
X177055495Y-83837542D01*
X177055495Y-83837542D02*
X177198352Y-83837542D01*
X177198352Y-83837542D02*
X177293590Y-83789923D01*
X177293590Y-83789923D02*
X177341209Y-83742304D01*
X177341209Y-83742304D02*
X177388828Y-83647066D01*
X177388828Y-83647066D02*
X177388828Y-83266114D01*
X176865019Y-84742304D02*
X176865019Y-84266114D01*
X176865019Y-84266114D02*
X177341209Y-84218495D01*
X177341209Y-84218495D02*
X177293590Y-84266114D01*
X177293590Y-84266114D02*
X177245971Y-84361352D01*
X177245971Y-84361352D02*
X177245971Y-84599447D01*
X177245971Y-84599447D02*
X177293590Y-84694685D01*
X177293590Y-84694685D02*
X177341209Y-84742304D01*
X177341209Y-84742304D02*
X177436447Y-84789923D01*
X177436447Y-84789923D02*
X177674542Y-84789923D01*
X177674542Y-84789923D02*
X177769780Y-84742304D01*
X177769780Y-84742304D02*
X177817400Y-84694685D01*
X177817400Y-84694685D02*
X177865019Y-84599447D01*
X177865019Y-84599447D02*
X177865019Y-84361352D01*
X177865019Y-84361352D02*
X177817400Y-84266114D01*
X177817400Y-84266114D02*
X177769780Y-84218495D01*
X176865019Y-85694685D02*
X176865019Y-85218495D01*
X176865019Y-85218495D02*
X177341209Y-85170876D01*
X177341209Y-85170876D02*
X177293590Y-85218495D01*
X177293590Y-85218495D02*
X177245971Y-85313733D01*
X177245971Y-85313733D02*
X177245971Y-85551828D01*
X177245971Y-85551828D02*
X177293590Y-85647066D01*
X177293590Y-85647066D02*
X177341209Y-85694685D01*
X177341209Y-85694685D02*
X177436447Y-85742304D01*
X177436447Y-85742304D02*
X177674542Y-85742304D01*
X177674542Y-85742304D02*
X177769780Y-85694685D01*
X177769780Y-85694685D02*
X177817400Y-85647066D01*
X177817400Y-85647066D02*
X177865019Y-85551828D01*
X177865019Y-85551828D02*
X177865019Y-85313733D01*
X177865019Y-85313733D02*
X177817400Y-85218495D01*
X177817400Y-85218495D02*
X177769780Y-85170876D01*
%TO.C,R34*%
X191244457Y-72589819D02*
X191577790Y-72113628D01*
X191815885Y-72589819D02*
X191815885Y-71589819D01*
X191815885Y-71589819D02*
X191434933Y-71589819D01*
X191434933Y-71589819D02*
X191339695Y-71637438D01*
X191339695Y-71637438D02*
X191292076Y-71685057D01*
X191292076Y-71685057D02*
X191244457Y-71780295D01*
X191244457Y-71780295D02*
X191244457Y-71923152D01*
X191244457Y-71923152D02*
X191292076Y-72018390D01*
X191292076Y-72018390D02*
X191339695Y-72066009D01*
X191339695Y-72066009D02*
X191434933Y-72113628D01*
X191434933Y-72113628D02*
X191815885Y-72113628D01*
X190911123Y-71589819D02*
X190292076Y-71589819D01*
X190292076Y-71589819D02*
X190625409Y-71970771D01*
X190625409Y-71970771D02*
X190482552Y-71970771D01*
X190482552Y-71970771D02*
X190387314Y-72018390D01*
X190387314Y-72018390D02*
X190339695Y-72066009D01*
X190339695Y-72066009D02*
X190292076Y-72161247D01*
X190292076Y-72161247D02*
X190292076Y-72399342D01*
X190292076Y-72399342D02*
X190339695Y-72494580D01*
X190339695Y-72494580D02*
X190387314Y-72542200D01*
X190387314Y-72542200D02*
X190482552Y-72589819D01*
X190482552Y-72589819D02*
X190768266Y-72589819D01*
X190768266Y-72589819D02*
X190863504Y-72542200D01*
X190863504Y-72542200D02*
X190911123Y-72494580D01*
X189434933Y-71923152D02*
X189434933Y-72589819D01*
X189673028Y-71542200D02*
X189911123Y-72256485D01*
X189911123Y-72256485D02*
X189292076Y-72256485D01*
%TO.C,R4*%
X195543419Y-141412933D02*
X195067228Y-141079600D01*
X195543419Y-140841505D02*
X194543419Y-140841505D01*
X194543419Y-140841505D02*
X194543419Y-141222457D01*
X194543419Y-141222457D02*
X194591038Y-141317695D01*
X194591038Y-141317695D02*
X194638657Y-141365314D01*
X194638657Y-141365314D02*
X194733895Y-141412933D01*
X194733895Y-141412933D02*
X194876752Y-141412933D01*
X194876752Y-141412933D02*
X194971990Y-141365314D01*
X194971990Y-141365314D02*
X195019609Y-141317695D01*
X195019609Y-141317695D02*
X195067228Y-141222457D01*
X195067228Y-141222457D02*
X195067228Y-140841505D01*
X194876752Y-142270076D02*
X195543419Y-142270076D01*
X194495800Y-142031981D02*
X195210085Y-141793886D01*
X195210085Y-141793886D02*
X195210085Y-142412933D01*
%TO.C,R58*%
X181403419Y-108272342D02*
X180927228Y-107939009D01*
X181403419Y-107700914D02*
X180403419Y-107700914D01*
X180403419Y-107700914D02*
X180403419Y-108081866D01*
X180403419Y-108081866D02*
X180451038Y-108177104D01*
X180451038Y-108177104D02*
X180498657Y-108224723D01*
X180498657Y-108224723D02*
X180593895Y-108272342D01*
X180593895Y-108272342D02*
X180736752Y-108272342D01*
X180736752Y-108272342D02*
X180831990Y-108224723D01*
X180831990Y-108224723D02*
X180879609Y-108177104D01*
X180879609Y-108177104D02*
X180927228Y-108081866D01*
X180927228Y-108081866D02*
X180927228Y-107700914D01*
X180403419Y-109177104D02*
X180403419Y-108700914D01*
X180403419Y-108700914D02*
X180879609Y-108653295D01*
X180879609Y-108653295D02*
X180831990Y-108700914D01*
X180831990Y-108700914D02*
X180784371Y-108796152D01*
X180784371Y-108796152D02*
X180784371Y-109034247D01*
X180784371Y-109034247D02*
X180831990Y-109129485D01*
X180831990Y-109129485D02*
X180879609Y-109177104D01*
X180879609Y-109177104D02*
X180974847Y-109224723D01*
X180974847Y-109224723D02*
X181212942Y-109224723D01*
X181212942Y-109224723D02*
X181308180Y-109177104D01*
X181308180Y-109177104D02*
X181355800Y-109129485D01*
X181355800Y-109129485D02*
X181403419Y-109034247D01*
X181403419Y-109034247D02*
X181403419Y-108796152D01*
X181403419Y-108796152D02*
X181355800Y-108700914D01*
X181355800Y-108700914D02*
X181308180Y-108653295D01*
X180831990Y-109796152D02*
X180784371Y-109700914D01*
X180784371Y-109700914D02*
X180736752Y-109653295D01*
X180736752Y-109653295D02*
X180641514Y-109605676D01*
X180641514Y-109605676D02*
X180593895Y-109605676D01*
X180593895Y-109605676D02*
X180498657Y-109653295D01*
X180498657Y-109653295D02*
X180451038Y-109700914D01*
X180451038Y-109700914D02*
X180403419Y-109796152D01*
X180403419Y-109796152D02*
X180403419Y-109986628D01*
X180403419Y-109986628D02*
X180451038Y-110081866D01*
X180451038Y-110081866D02*
X180498657Y-110129485D01*
X180498657Y-110129485D02*
X180593895Y-110177104D01*
X180593895Y-110177104D02*
X180641514Y-110177104D01*
X180641514Y-110177104D02*
X180736752Y-110129485D01*
X180736752Y-110129485D02*
X180784371Y-110081866D01*
X180784371Y-110081866D02*
X180831990Y-109986628D01*
X180831990Y-109986628D02*
X180831990Y-109796152D01*
X180831990Y-109796152D02*
X180879609Y-109700914D01*
X180879609Y-109700914D02*
X180927228Y-109653295D01*
X180927228Y-109653295D02*
X181022466Y-109605676D01*
X181022466Y-109605676D02*
X181212942Y-109605676D01*
X181212942Y-109605676D02*
X181308180Y-109653295D01*
X181308180Y-109653295D02*
X181355800Y-109700914D01*
X181355800Y-109700914D02*
X181403419Y-109796152D01*
X181403419Y-109796152D02*
X181403419Y-109986628D01*
X181403419Y-109986628D02*
X181355800Y-110081866D01*
X181355800Y-110081866D02*
X181308180Y-110129485D01*
X181308180Y-110129485D02*
X181212942Y-110177104D01*
X181212942Y-110177104D02*
X181022466Y-110177104D01*
X181022466Y-110177104D02*
X180927228Y-110129485D01*
X180927228Y-110129485D02*
X180879609Y-110081866D01*
X180879609Y-110081866D02*
X180831990Y-109986628D01*
%TO.C,R11*%
X189466457Y-101453019D02*
X189799790Y-100976828D01*
X190037885Y-101453019D02*
X190037885Y-100453019D01*
X190037885Y-100453019D02*
X189656933Y-100453019D01*
X189656933Y-100453019D02*
X189561695Y-100500638D01*
X189561695Y-100500638D02*
X189514076Y-100548257D01*
X189514076Y-100548257D02*
X189466457Y-100643495D01*
X189466457Y-100643495D02*
X189466457Y-100786352D01*
X189466457Y-100786352D02*
X189514076Y-100881590D01*
X189514076Y-100881590D02*
X189561695Y-100929209D01*
X189561695Y-100929209D02*
X189656933Y-100976828D01*
X189656933Y-100976828D02*
X190037885Y-100976828D01*
X188514076Y-101453019D02*
X189085504Y-101453019D01*
X188799790Y-101453019D02*
X188799790Y-100453019D01*
X188799790Y-100453019D02*
X188895028Y-100595876D01*
X188895028Y-100595876D02*
X188990266Y-100691114D01*
X188990266Y-100691114D02*
X189085504Y-100738733D01*
X187561695Y-101453019D02*
X188133123Y-101453019D01*
X187847409Y-101453019D02*
X187847409Y-100453019D01*
X187847409Y-100453019D02*
X187942647Y-100595876D01*
X187942647Y-100595876D02*
X188037885Y-100691114D01*
X188037885Y-100691114D02*
X188133123Y-100738733D01*
%TO.C,R25*%
X184469019Y-91762342D02*
X183992828Y-91429009D01*
X184469019Y-91190914D02*
X183469019Y-91190914D01*
X183469019Y-91190914D02*
X183469019Y-91571866D01*
X183469019Y-91571866D02*
X183516638Y-91667104D01*
X183516638Y-91667104D02*
X183564257Y-91714723D01*
X183564257Y-91714723D02*
X183659495Y-91762342D01*
X183659495Y-91762342D02*
X183802352Y-91762342D01*
X183802352Y-91762342D02*
X183897590Y-91714723D01*
X183897590Y-91714723D02*
X183945209Y-91667104D01*
X183945209Y-91667104D02*
X183992828Y-91571866D01*
X183992828Y-91571866D02*
X183992828Y-91190914D01*
X183564257Y-92143295D02*
X183516638Y-92190914D01*
X183516638Y-92190914D02*
X183469019Y-92286152D01*
X183469019Y-92286152D02*
X183469019Y-92524247D01*
X183469019Y-92524247D02*
X183516638Y-92619485D01*
X183516638Y-92619485D02*
X183564257Y-92667104D01*
X183564257Y-92667104D02*
X183659495Y-92714723D01*
X183659495Y-92714723D02*
X183754733Y-92714723D01*
X183754733Y-92714723D02*
X183897590Y-92667104D01*
X183897590Y-92667104D02*
X184469019Y-92095676D01*
X184469019Y-92095676D02*
X184469019Y-92714723D01*
X183469019Y-93619485D02*
X183469019Y-93143295D01*
X183469019Y-93143295D02*
X183945209Y-93095676D01*
X183945209Y-93095676D02*
X183897590Y-93143295D01*
X183897590Y-93143295D02*
X183849971Y-93238533D01*
X183849971Y-93238533D02*
X183849971Y-93476628D01*
X183849971Y-93476628D02*
X183897590Y-93571866D01*
X183897590Y-93571866D02*
X183945209Y-93619485D01*
X183945209Y-93619485D02*
X184040447Y-93667104D01*
X184040447Y-93667104D02*
X184278542Y-93667104D01*
X184278542Y-93667104D02*
X184373780Y-93619485D01*
X184373780Y-93619485D02*
X184421400Y-93571866D01*
X184421400Y-93571866D02*
X184469019Y-93476628D01*
X184469019Y-93476628D02*
X184469019Y-93238533D01*
X184469019Y-93238533D02*
X184421400Y-93143295D01*
X184421400Y-93143295D02*
X184373780Y-93095676D01*
%TO.C,R48*%
X177865019Y-98823542D02*
X177388828Y-98490209D01*
X177865019Y-98252114D02*
X176865019Y-98252114D01*
X176865019Y-98252114D02*
X176865019Y-98633066D01*
X176865019Y-98633066D02*
X176912638Y-98728304D01*
X176912638Y-98728304D02*
X176960257Y-98775923D01*
X176960257Y-98775923D02*
X177055495Y-98823542D01*
X177055495Y-98823542D02*
X177198352Y-98823542D01*
X177198352Y-98823542D02*
X177293590Y-98775923D01*
X177293590Y-98775923D02*
X177341209Y-98728304D01*
X177341209Y-98728304D02*
X177388828Y-98633066D01*
X177388828Y-98633066D02*
X177388828Y-98252114D01*
X177198352Y-99680685D02*
X177865019Y-99680685D01*
X176817400Y-99442590D02*
X177531685Y-99204495D01*
X177531685Y-99204495D02*
X177531685Y-99823542D01*
X177293590Y-100347352D02*
X177245971Y-100252114D01*
X177245971Y-100252114D02*
X177198352Y-100204495D01*
X177198352Y-100204495D02*
X177103114Y-100156876D01*
X177103114Y-100156876D02*
X177055495Y-100156876D01*
X177055495Y-100156876D02*
X176960257Y-100204495D01*
X176960257Y-100204495D02*
X176912638Y-100252114D01*
X176912638Y-100252114D02*
X176865019Y-100347352D01*
X176865019Y-100347352D02*
X176865019Y-100537828D01*
X176865019Y-100537828D02*
X176912638Y-100633066D01*
X176912638Y-100633066D02*
X176960257Y-100680685D01*
X176960257Y-100680685D02*
X177055495Y-100728304D01*
X177055495Y-100728304D02*
X177103114Y-100728304D01*
X177103114Y-100728304D02*
X177198352Y-100680685D01*
X177198352Y-100680685D02*
X177245971Y-100633066D01*
X177245971Y-100633066D02*
X177293590Y-100537828D01*
X177293590Y-100537828D02*
X177293590Y-100347352D01*
X177293590Y-100347352D02*
X177341209Y-100252114D01*
X177341209Y-100252114D02*
X177388828Y-100204495D01*
X177388828Y-100204495D02*
X177484066Y-100156876D01*
X177484066Y-100156876D02*
X177674542Y-100156876D01*
X177674542Y-100156876D02*
X177769780Y-100204495D01*
X177769780Y-100204495D02*
X177817400Y-100252114D01*
X177817400Y-100252114D02*
X177865019Y-100347352D01*
X177865019Y-100347352D02*
X177865019Y-100537828D01*
X177865019Y-100537828D02*
X177817400Y-100633066D01*
X177817400Y-100633066D02*
X177769780Y-100680685D01*
X177769780Y-100680685D02*
X177674542Y-100728304D01*
X177674542Y-100728304D02*
X177484066Y-100728304D01*
X177484066Y-100728304D02*
X177388828Y-100680685D01*
X177388828Y-100680685D02*
X177341209Y-100633066D01*
X177341209Y-100633066D02*
X177293590Y-100537828D01*
%TO.C,R37*%
X195594219Y-88815942D02*
X195118028Y-88482609D01*
X195594219Y-88244514D02*
X194594219Y-88244514D01*
X194594219Y-88244514D02*
X194594219Y-88625466D01*
X194594219Y-88625466D02*
X194641838Y-88720704D01*
X194641838Y-88720704D02*
X194689457Y-88768323D01*
X194689457Y-88768323D02*
X194784695Y-88815942D01*
X194784695Y-88815942D02*
X194927552Y-88815942D01*
X194927552Y-88815942D02*
X195022790Y-88768323D01*
X195022790Y-88768323D02*
X195070409Y-88720704D01*
X195070409Y-88720704D02*
X195118028Y-88625466D01*
X195118028Y-88625466D02*
X195118028Y-88244514D01*
X194594219Y-89149276D02*
X194594219Y-89768323D01*
X194594219Y-89768323D02*
X194975171Y-89434990D01*
X194975171Y-89434990D02*
X194975171Y-89577847D01*
X194975171Y-89577847D02*
X195022790Y-89673085D01*
X195022790Y-89673085D02*
X195070409Y-89720704D01*
X195070409Y-89720704D02*
X195165647Y-89768323D01*
X195165647Y-89768323D02*
X195403742Y-89768323D01*
X195403742Y-89768323D02*
X195498980Y-89720704D01*
X195498980Y-89720704D02*
X195546600Y-89673085D01*
X195546600Y-89673085D02*
X195594219Y-89577847D01*
X195594219Y-89577847D02*
X195594219Y-89292133D01*
X195594219Y-89292133D02*
X195546600Y-89196895D01*
X195546600Y-89196895D02*
X195498980Y-89149276D01*
X194594219Y-90101657D02*
X194594219Y-90768323D01*
X194594219Y-90768323D02*
X195594219Y-90339752D01*
%TO.C,R16*%
X187383657Y-58264219D02*
X187716990Y-57788028D01*
X187955085Y-58264219D02*
X187955085Y-57264219D01*
X187955085Y-57264219D02*
X187574133Y-57264219D01*
X187574133Y-57264219D02*
X187478895Y-57311838D01*
X187478895Y-57311838D02*
X187431276Y-57359457D01*
X187431276Y-57359457D02*
X187383657Y-57454695D01*
X187383657Y-57454695D02*
X187383657Y-57597552D01*
X187383657Y-57597552D02*
X187431276Y-57692790D01*
X187431276Y-57692790D02*
X187478895Y-57740409D01*
X187478895Y-57740409D02*
X187574133Y-57788028D01*
X187574133Y-57788028D02*
X187955085Y-57788028D01*
X186431276Y-58264219D02*
X187002704Y-58264219D01*
X186716990Y-58264219D02*
X186716990Y-57264219D01*
X186716990Y-57264219D02*
X186812228Y-57407076D01*
X186812228Y-57407076D02*
X186907466Y-57502314D01*
X186907466Y-57502314D02*
X187002704Y-57549933D01*
X185574133Y-57264219D02*
X185764609Y-57264219D01*
X185764609Y-57264219D02*
X185859847Y-57311838D01*
X185859847Y-57311838D02*
X185907466Y-57359457D01*
X185907466Y-57359457D02*
X186002704Y-57502314D01*
X186002704Y-57502314D02*
X186050323Y-57692790D01*
X186050323Y-57692790D02*
X186050323Y-58073742D01*
X186050323Y-58073742D02*
X186002704Y-58168980D01*
X186002704Y-58168980D02*
X185955085Y-58216600D01*
X185955085Y-58216600D02*
X185859847Y-58264219D01*
X185859847Y-58264219D02*
X185669371Y-58264219D01*
X185669371Y-58264219D02*
X185574133Y-58216600D01*
X185574133Y-58216600D02*
X185526514Y-58168980D01*
X185526514Y-58168980D02*
X185478895Y-58073742D01*
X185478895Y-58073742D02*
X185478895Y-57835647D01*
X185478895Y-57835647D02*
X185526514Y-57740409D01*
X185526514Y-57740409D02*
X185574133Y-57692790D01*
X185574133Y-57692790D02*
X185669371Y-57645171D01*
X185669371Y-57645171D02*
X185859847Y-57645171D01*
X185859847Y-57645171D02*
X185955085Y-57692790D01*
X185955085Y-57692790D02*
X186002704Y-57740409D01*
X186002704Y-57740409D02*
X186050323Y-57835647D01*
%TO.C,U4*%
X193801904Y-130062619D02*
X193801904Y-130872142D01*
X193801904Y-130872142D02*
X193754285Y-130967380D01*
X193754285Y-130967380D02*
X193706666Y-131015000D01*
X193706666Y-131015000D02*
X193611428Y-131062619D01*
X193611428Y-131062619D02*
X193420952Y-131062619D01*
X193420952Y-131062619D02*
X193325714Y-131015000D01*
X193325714Y-131015000D02*
X193278095Y-130967380D01*
X193278095Y-130967380D02*
X193230476Y-130872142D01*
X193230476Y-130872142D02*
X193230476Y-130062619D01*
X192325714Y-130395952D02*
X192325714Y-131062619D01*
X192563809Y-130015000D02*
X192801904Y-130729285D01*
X192801904Y-130729285D02*
X192182857Y-130729285D01*
%TO.C,R10*%
X195492619Y-83939142D02*
X195016428Y-83605809D01*
X195492619Y-83367714D02*
X194492619Y-83367714D01*
X194492619Y-83367714D02*
X194492619Y-83748666D01*
X194492619Y-83748666D02*
X194540238Y-83843904D01*
X194540238Y-83843904D02*
X194587857Y-83891523D01*
X194587857Y-83891523D02*
X194683095Y-83939142D01*
X194683095Y-83939142D02*
X194825952Y-83939142D01*
X194825952Y-83939142D02*
X194921190Y-83891523D01*
X194921190Y-83891523D02*
X194968809Y-83843904D01*
X194968809Y-83843904D02*
X195016428Y-83748666D01*
X195016428Y-83748666D02*
X195016428Y-83367714D01*
X195492619Y-84891523D02*
X195492619Y-84320095D01*
X195492619Y-84605809D02*
X194492619Y-84605809D01*
X194492619Y-84605809D02*
X194635476Y-84510571D01*
X194635476Y-84510571D02*
X194730714Y-84415333D01*
X194730714Y-84415333D02*
X194778333Y-84320095D01*
X194492619Y-85510571D02*
X194492619Y-85605809D01*
X194492619Y-85605809D02*
X194540238Y-85701047D01*
X194540238Y-85701047D02*
X194587857Y-85748666D01*
X194587857Y-85748666D02*
X194683095Y-85796285D01*
X194683095Y-85796285D02*
X194873571Y-85843904D01*
X194873571Y-85843904D02*
X195111666Y-85843904D01*
X195111666Y-85843904D02*
X195302142Y-85796285D01*
X195302142Y-85796285D02*
X195397380Y-85748666D01*
X195397380Y-85748666D02*
X195445000Y-85701047D01*
X195445000Y-85701047D02*
X195492619Y-85605809D01*
X195492619Y-85605809D02*
X195492619Y-85510571D01*
X195492619Y-85510571D02*
X195445000Y-85415333D01*
X195445000Y-85415333D02*
X195397380Y-85367714D01*
X195397380Y-85367714D02*
X195302142Y-85320095D01*
X195302142Y-85320095D02*
X195111666Y-85272476D01*
X195111666Y-85272476D02*
X194873571Y-85272476D01*
X194873571Y-85272476D02*
X194683095Y-85320095D01*
X194683095Y-85320095D02*
X194587857Y-85367714D01*
X194587857Y-85367714D02*
X194540238Y-85415333D01*
X194540238Y-85415333D02*
X194492619Y-85510571D01*
%TO.C,R20*%
X184011819Y-86987142D02*
X183535628Y-86653809D01*
X184011819Y-86415714D02*
X183011819Y-86415714D01*
X183011819Y-86415714D02*
X183011819Y-86796666D01*
X183011819Y-86796666D02*
X183059438Y-86891904D01*
X183059438Y-86891904D02*
X183107057Y-86939523D01*
X183107057Y-86939523D02*
X183202295Y-86987142D01*
X183202295Y-86987142D02*
X183345152Y-86987142D01*
X183345152Y-86987142D02*
X183440390Y-86939523D01*
X183440390Y-86939523D02*
X183488009Y-86891904D01*
X183488009Y-86891904D02*
X183535628Y-86796666D01*
X183535628Y-86796666D02*
X183535628Y-86415714D01*
X183107057Y-87368095D02*
X183059438Y-87415714D01*
X183059438Y-87415714D02*
X183011819Y-87510952D01*
X183011819Y-87510952D02*
X183011819Y-87749047D01*
X183011819Y-87749047D02*
X183059438Y-87844285D01*
X183059438Y-87844285D02*
X183107057Y-87891904D01*
X183107057Y-87891904D02*
X183202295Y-87939523D01*
X183202295Y-87939523D02*
X183297533Y-87939523D01*
X183297533Y-87939523D02*
X183440390Y-87891904D01*
X183440390Y-87891904D02*
X184011819Y-87320476D01*
X184011819Y-87320476D02*
X184011819Y-87939523D01*
X183011819Y-88558571D02*
X183011819Y-88653809D01*
X183011819Y-88653809D02*
X183059438Y-88749047D01*
X183059438Y-88749047D02*
X183107057Y-88796666D01*
X183107057Y-88796666D02*
X183202295Y-88844285D01*
X183202295Y-88844285D02*
X183392771Y-88891904D01*
X183392771Y-88891904D02*
X183630866Y-88891904D01*
X183630866Y-88891904D02*
X183821342Y-88844285D01*
X183821342Y-88844285D02*
X183916580Y-88796666D01*
X183916580Y-88796666D02*
X183964200Y-88749047D01*
X183964200Y-88749047D02*
X184011819Y-88653809D01*
X184011819Y-88653809D02*
X184011819Y-88558571D01*
X184011819Y-88558571D02*
X183964200Y-88463333D01*
X183964200Y-88463333D02*
X183916580Y-88415714D01*
X183916580Y-88415714D02*
X183821342Y-88368095D01*
X183821342Y-88368095D02*
X183630866Y-88320476D01*
X183630866Y-88320476D02*
X183392771Y-88320476D01*
X183392771Y-88320476D02*
X183202295Y-88368095D01*
X183202295Y-88368095D02*
X183107057Y-88415714D01*
X183107057Y-88415714D02*
X183059438Y-88463333D01*
X183059438Y-88463333D02*
X183011819Y-88558571D01*
%TO.C,R67*%
X199132619Y-131538742D02*
X198656428Y-131205409D01*
X199132619Y-130967314D02*
X198132619Y-130967314D01*
X198132619Y-130967314D02*
X198132619Y-131348266D01*
X198132619Y-131348266D02*
X198180238Y-131443504D01*
X198180238Y-131443504D02*
X198227857Y-131491123D01*
X198227857Y-131491123D02*
X198323095Y-131538742D01*
X198323095Y-131538742D02*
X198465952Y-131538742D01*
X198465952Y-131538742D02*
X198561190Y-131491123D01*
X198561190Y-131491123D02*
X198608809Y-131443504D01*
X198608809Y-131443504D02*
X198656428Y-131348266D01*
X198656428Y-131348266D02*
X198656428Y-130967314D01*
X198132619Y-132395885D02*
X198132619Y-132205409D01*
X198132619Y-132205409D02*
X198180238Y-132110171D01*
X198180238Y-132110171D02*
X198227857Y-132062552D01*
X198227857Y-132062552D02*
X198370714Y-131967314D01*
X198370714Y-131967314D02*
X198561190Y-131919695D01*
X198561190Y-131919695D02*
X198942142Y-131919695D01*
X198942142Y-131919695D02*
X199037380Y-131967314D01*
X199037380Y-131967314D02*
X199085000Y-132014933D01*
X199085000Y-132014933D02*
X199132619Y-132110171D01*
X199132619Y-132110171D02*
X199132619Y-132300647D01*
X199132619Y-132300647D02*
X199085000Y-132395885D01*
X199085000Y-132395885D02*
X199037380Y-132443504D01*
X199037380Y-132443504D02*
X198942142Y-132491123D01*
X198942142Y-132491123D02*
X198704047Y-132491123D01*
X198704047Y-132491123D02*
X198608809Y-132443504D01*
X198608809Y-132443504D02*
X198561190Y-132395885D01*
X198561190Y-132395885D02*
X198513571Y-132300647D01*
X198513571Y-132300647D02*
X198513571Y-132110171D01*
X198513571Y-132110171D02*
X198561190Y-132014933D01*
X198561190Y-132014933D02*
X198608809Y-131967314D01*
X198608809Y-131967314D02*
X198704047Y-131919695D01*
X198132619Y-132824457D02*
X198132619Y-133491123D01*
X198132619Y-133491123D02*
X199132619Y-133062552D01*
%TO.C,U1*%
X181395619Y-77535095D02*
X182205142Y-77535095D01*
X182205142Y-77535095D02*
X182300380Y-77582714D01*
X182300380Y-77582714D02*
X182348000Y-77630333D01*
X182348000Y-77630333D02*
X182395619Y-77725571D01*
X182395619Y-77725571D02*
X182395619Y-77916047D01*
X182395619Y-77916047D02*
X182348000Y-78011285D01*
X182348000Y-78011285D02*
X182300380Y-78058904D01*
X182300380Y-78058904D02*
X182205142Y-78106523D01*
X182205142Y-78106523D02*
X181395619Y-78106523D01*
X182395619Y-79106523D02*
X182395619Y-78535095D01*
X182395619Y-78820809D02*
X181395619Y-78820809D01*
X181395619Y-78820809D02*
X181538476Y-78725571D01*
X181538476Y-78725571D02*
X181633714Y-78630333D01*
X181633714Y-78630333D02*
X181681333Y-78535095D01*
%TO.C,R9*%
X185027819Y-134707333D02*
X184551628Y-134374000D01*
X185027819Y-134135905D02*
X184027819Y-134135905D01*
X184027819Y-134135905D02*
X184027819Y-134516857D01*
X184027819Y-134516857D02*
X184075438Y-134612095D01*
X184075438Y-134612095D02*
X184123057Y-134659714D01*
X184123057Y-134659714D02*
X184218295Y-134707333D01*
X184218295Y-134707333D02*
X184361152Y-134707333D01*
X184361152Y-134707333D02*
X184456390Y-134659714D01*
X184456390Y-134659714D02*
X184504009Y-134612095D01*
X184504009Y-134612095D02*
X184551628Y-134516857D01*
X184551628Y-134516857D02*
X184551628Y-134135905D01*
X185027819Y-135183524D02*
X185027819Y-135374000D01*
X185027819Y-135374000D02*
X184980200Y-135469238D01*
X184980200Y-135469238D02*
X184932580Y-135516857D01*
X184932580Y-135516857D02*
X184789723Y-135612095D01*
X184789723Y-135612095D02*
X184599247Y-135659714D01*
X184599247Y-135659714D02*
X184218295Y-135659714D01*
X184218295Y-135659714D02*
X184123057Y-135612095D01*
X184123057Y-135612095D02*
X184075438Y-135564476D01*
X184075438Y-135564476D02*
X184027819Y-135469238D01*
X184027819Y-135469238D02*
X184027819Y-135278762D01*
X184027819Y-135278762D02*
X184075438Y-135183524D01*
X184075438Y-135183524D02*
X184123057Y-135135905D01*
X184123057Y-135135905D02*
X184218295Y-135088286D01*
X184218295Y-135088286D02*
X184456390Y-135088286D01*
X184456390Y-135088286D02*
X184551628Y-135135905D01*
X184551628Y-135135905D02*
X184599247Y-135183524D01*
X184599247Y-135183524D02*
X184646866Y-135278762D01*
X184646866Y-135278762D02*
X184646866Y-135469238D01*
X184646866Y-135469238D02*
X184599247Y-135564476D01*
X184599247Y-135564476D02*
X184551628Y-135612095D01*
X184551628Y-135612095D02*
X184456390Y-135659714D01*
%TO.C,R26*%
X199234219Y-136263142D02*
X198758028Y-135929809D01*
X199234219Y-135691714D02*
X198234219Y-135691714D01*
X198234219Y-135691714D02*
X198234219Y-136072666D01*
X198234219Y-136072666D02*
X198281838Y-136167904D01*
X198281838Y-136167904D02*
X198329457Y-136215523D01*
X198329457Y-136215523D02*
X198424695Y-136263142D01*
X198424695Y-136263142D02*
X198567552Y-136263142D01*
X198567552Y-136263142D02*
X198662790Y-136215523D01*
X198662790Y-136215523D02*
X198710409Y-136167904D01*
X198710409Y-136167904D02*
X198758028Y-136072666D01*
X198758028Y-136072666D02*
X198758028Y-135691714D01*
X198329457Y-136644095D02*
X198281838Y-136691714D01*
X198281838Y-136691714D02*
X198234219Y-136786952D01*
X198234219Y-136786952D02*
X198234219Y-137025047D01*
X198234219Y-137025047D02*
X198281838Y-137120285D01*
X198281838Y-137120285D02*
X198329457Y-137167904D01*
X198329457Y-137167904D02*
X198424695Y-137215523D01*
X198424695Y-137215523D02*
X198519933Y-137215523D01*
X198519933Y-137215523D02*
X198662790Y-137167904D01*
X198662790Y-137167904D02*
X199234219Y-136596476D01*
X199234219Y-136596476D02*
X199234219Y-137215523D01*
X198234219Y-138072666D02*
X198234219Y-137882190D01*
X198234219Y-137882190D02*
X198281838Y-137786952D01*
X198281838Y-137786952D02*
X198329457Y-137739333D01*
X198329457Y-137739333D02*
X198472314Y-137644095D01*
X198472314Y-137644095D02*
X198662790Y-137596476D01*
X198662790Y-137596476D02*
X199043742Y-137596476D01*
X199043742Y-137596476D02*
X199138980Y-137644095D01*
X199138980Y-137644095D02*
X199186600Y-137691714D01*
X199186600Y-137691714D02*
X199234219Y-137786952D01*
X199234219Y-137786952D02*
X199234219Y-137977428D01*
X199234219Y-137977428D02*
X199186600Y-138072666D01*
X199186600Y-138072666D02*
X199138980Y-138120285D01*
X199138980Y-138120285D02*
X199043742Y-138167904D01*
X199043742Y-138167904D02*
X198805647Y-138167904D01*
X198805647Y-138167904D02*
X198710409Y-138120285D01*
X198710409Y-138120285D02*
X198662790Y-138072666D01*
X198662790Y-138072666D02*
X198615171Y-137977428D01*
X198615171Y-137977428D02*
X198615171Y-137786952D01*
X198615171Y-137786952D02*
X198662790Y-137691714D01*
X198662790Y-137691714D02*
X198710409Y-137644095D01*
X198710409Y-137644095D02*
X198805647Y-137596476D01*
%TO.C,R64*%
X189517257Y-107743419D02*
X189850590Y-107267228D01*
X190088685Y-107743419D02*
X190088685Y-106743419D01*
X190088685Y-106743419D02*
X189707733Y-106743419D01*
X189707733Y-106743419D02*
X189612495Y-106791038D01*
X189612495Y-106791038D02*
X189564876Y-106838657D01*
X189564876Y-106838657D02*
X189517257Y-106933895D01*
X189517257Y-106933895D02*
X189517257Y-107076752D01*
X189517257Y-107076752D02*
X189564876Y-107171990D01*
X189564876Y-107171990D02*
X189612495Y-107219609D01*
X189612495Y-107219609D02*
X189707733Y-107267228D01*
X189707733Y-107267228D02*
X190088685Y-107267228D01*
X188660114Y-106743419D02*
X188850590Y-106743419D01*
X188850590Y-106743419D02*
X188945828Y-106791038D01*
X188945828Y-106791038D02*
X188993447Y-106838657D01*
X188993447Y-106838657D02*
X189088685Y-106981514D01*
X189088685Y-106981514D02*
X189136304Y-107171990D01*
X189136304Y-107171990D02*
X189136304Y-107552942D01*
X189136304Y-107552942D02*
X189088685Y-107648180D01*
X189088685Y-107648180D02*
X189041066Y-107695800D01*
X189041066Y-107695800D02*
X188945828Y-107743419D01*
X188945828Y-107743419D02*
X188755352Y-107743419D01*
X188755352Y-107743419D02*
X188660114Y-107695800D01*
X188660114Y-107695800D02*
X188612495Y-107648180D01*
X188612495Y-107648180D02*
X188564876Y-107552942D01*
X188564876Y-107552942D02*
X188564876Y-107314847D01*
X188564876Y-107314847D02*
X188612495Y-107219609D01*
X188612495Y-107219609D02*
X188660114Y-107171990D01*
X188660114Y-107171990D02*
X188755352Y-107124371D01*
X188755352Y-107124371D02*
X188945828Y-107124371D01*
X188945828Y-107124371D02*
X189041066Y-107171990D01*
X189041066Y-107171990D02*
X189088685Y-107219609D01*
X189088685Y-107219609D02*
X189136304Y-107314847D01*
X187707733Y-107076752D02*
X187707733Y-107743419D01*
X187945828Y-106695800D02*
X188183923Y-107410085D01*
X188183923Y-107410085D02*
X187564876Y-107410085D01*
%TO.C,R19*%
X158917257Y-111539119D02*
X159250590Y-111062928D01*
X159488685Y-111539119D02*
X159488685Y-110539119D01*
X159488685Y-110539119D02*
X159107733Y-110539119D01*
X159107733Y-110539119D02*
X159012495Y-110586738D01*
X159012495Y-110586738D02*
X158964876Y-110634357D01*
X158964876Y-110634357D02*
X158917257Y-110729595D01*
X158917257Y-110729595D02*
X158917257Y-110872452D01*
X158917257Y-110872452D02*
X158964876Y-110967690D01*
X158964876Y-110967690D02*
X159012495Y-111015309D01*
X159012495Y-111015309D02*
X159107733Y-111062928D01*
X159107733Y-111062928D02*
X159488685Y-111062928D01*
X157964876Y-111539119D02*
X158536304Y-111539119D01*
X158250590Y-111539119D02*
X158250590Y-110539119D01*
X158250590Y-110539119D02*
X158345828Y-110681976D01*
X158345828Y-110681976D02*
X158441066Y-110777214D01*
X158441066Y-110777214D02*
X158536304Y-110824833D01*
X157488685Y-111539119D02*
X157298209Y-111539119D01*
X157298209Y-111539119D02*
X157202971Y-111491500D01*
X157202971Y-111491500D02*
X157155352Y-111443880D01*
X157155352Y-111443880D02*
X157060114Y-111301023D01*
X157060114Y-111301023D02*
X157012495Y-111110547D01*
X157012495Y-111110547D02*
X157012495Y-110729595D01*
X157012495Y-110729595D02*
X157060114Y-110634357D01*
X157060114Y-110634357D02*
X157107733Y-110586738D01*
X157107733Y-110586738D02*
X157202971Y-110539119D01*
X157202971Y-110539119D02*
X157393447Y-110539119D01*
X157393447Y-110539119D02*
X157488685Y-110586738D01*
X157488685Y-110586738D02*
X157536304Y-110634357D01*
X157536304Y-110634357D02*
X157583923Y-110729595D01*
X157583923Y-110729595D02*
X157583923Y-110967690D01*
X157583923Y-110967690D02*
X157536304Y-111062928D01*
X157536304Y-111062928D02*
X157488685Y-111110547D01*
X157488685Y-111110547D02*
X157393447Y-111158166D01*
X157393447Y-111158166D02*
X157202971Y-111158166D01*
X157202971Y-111158166D02*
X157107733Y-111110547D01*
X157107733Y-111110547D02*
X157060114Y-111062928D01*
X157060114Y-111062928D02*
X157012495Y-110967690D01*
%TO.C,R3*%
X188939419Y-84821733D02*
X188463228Y-84488400D01*
X188939419Y-84250305D02*
X187939419Y-84250305D01*
X187939419Y-84250305D02*
X187939419Y-84631257D01*
X187939419Y-84631257D02*
X187987038Y-84726495D01*
X187987038Y-84726495D02*
X188034657Y-84774114D01*
X188034657Y-84774114D02*
X188129895Y-84821733D01*
X188129895Y-84821733D02*
X188272752Y-84821733D01*
X188272752Y-84821733D02*
X188367990Y-84774114D01*
X188367990Y-84774114D02*
X188415609Y-84726495D01*
X188415609Y-84726495D02*
X188463228Y-84631257D01*
X188463228Y-84631257D02*
X188463228Y-84250305D01*
X187939419Y-85155067D02*
X187939419Y-85774114D01*
X187939419Y-85774114D02*
X188320371Y-85440781D01*
X188320371Y-85440781D02*
X188320371Y-85583638D01*
X188320371Y-85583638D02*
X188367990Y-85678876D01*
X188367990Y-85678876D02*
X188415609Y-85726495D01*
X188415609Y-85726495D02*
X188510847Y-85774114D01*
X188510847Y-85774114D02*
X188748942Y-85774114D01*
X188748942Y-85774114D02*
X188844180Y-85726495D01*
X188844180Y-85726495D02*
X188891800Y-85678876D01*
X188891800Y-85678876D02*
X188939419Y-85583638D01*
X188939419Y-85583638D02*
X188939419Y-85297924D01*
X188939419Y-85297924D02*
X188891800Y-85202686D01*
X188891800Y-85202686D02*
X188844180Y-85155067D01*
%TO.C,NOT_THINK_SineLevelTrim1*%
X206595476Y-74388619D02*
X206595476Y-73388619D01*
X206595476Y-73388619D02*
X206024048Y-74388619D01*
X206024048Y-74388619D02*
X206024048Y-73388619D01*
X205357381Y-73388619D02*
X205166905Y-73388619D01*
X205166905Y-73388619D02*
X205071667Y-73436238D01*
X205071667Y-73436238D02*
X204976429Y-73531476D01*
X204976429Y-73531476D02*
X204928810Y-73721952D01*
X204928810Y-73721952D02*
X204928810Y-74055285D01*
X204928810Y-74055285D02*
X204976429Y-74245761D01*
X204976429Y-74245761D02*
X205071667Y-74341000D01*
X205071667Y-74341000D02*
X205166905Y-74388619D01*
X205166905Y-74388619D02*
X205357381Y-74388619D01*
X205357381Y-74388619D02*
X205452619Y-74341000D01*
X205452619Y-74341000D02*
X205547857Y-74245761D01*
X205547857Y-74245761D02*
X205595476Y-74055285D01*
X205595476Y-74055285D02*
X205595476Y-73721952D01*
X205595476Y-73721952D02*
X205547857Y-73531476D01*
X205547857Y-73531476D02*
X205452619Y-73436238D01*
X205452619Y-73436238D02*
X205357381Y-73388619D01*
X204643095Y-73388619D02*
X204071667Y-73388619D01*
X204357381Y-74388619D02*
X204357381Y-73388619D01*
X203976429Y-74483857D02*
X203214524Y-74483857D01*
X203119285Y-73388619D02*
X202547857Y-73388619D01*
X202833571Y-74388619D02*
X202833571Y-73388619D01*
X202214523Y-74388619D02*
X202214523Y-73388619D01*
X202214523Y-73864809D02*
X201643095Y-73864809D01*
X201643095Y-74388619D02*
X201643095Y-73388619D01*
X201166904Y-74388619D02*
X201166904Y-73388619D01*
X200690714Y-74388619D02*
X200690714Y-73388619D01*
X200690714Y-73388619D02*
X200119286Y-74388619D01*
X200119286Y-74388619D02*
X200119286Y-73388619D01*
X199643095Y-74388619D02*
X199643095Y-73388619D01*
X199071667Y-74388619D02*
X199500238Y-73817190D01*
X199071667Y-73388619D02*
X199643095Y-73960047D01*
X198881191Y-74483857D02*
X198119286Y-74483857D01*
X197928809Y-74341000D02*
X197785952Y-74388619D01*
X197785952Y-74388619D02*
X197547857Y-74388619D01*
X197547857Y-74388619D02*
X197452619Y-74341000D01*
X197452619Y-74341000D02*
X197405000Y-74293380D01*
X197405000Y-74293380D02*
X197357381Y-74198142D01*
X197357381Y-74198142D02*
X197357381Y-74102904D01*
X197357381Y-74102904D02*
X197405000Y-74007666D01*
X197405000Y-74007666D02*
X197452619Y-73960047D01*
X197452619Y-73960047D02*
X197547857Y-73912428D01*
X197547857Y-73912428D02*
X197738333Y-73864809D01*
X197738333Y-73864809D02*
X197833571Y-73817190D01*
X197833571Y-73817190D02*
X197881190Y-73769571D01*
X197881190Y-73769571D02*
X197928809Y-73674333D01*
X197928809Y-73674333D02*
X197928809Y-73579095D01*
X197928809Y-73579095D02*
X197881190Y-73483857D01*
X197881190Y-73483857D02*
X197833571Y-73436238D01*
X197833571Y-73436238D02*
X197738333Y-73388619D01*
X197738333Y-73388619D02*
X197500238Y-73388619D01*
X197500238Y-73388619D02*
X197357381Y-73436238D01*
X196928809Y-74388619D02*
X196928809Y-73721952D01*
X196928809Y-73388619D02*
X196976428Y-73436238D01*
X196976428Y-73436238D02*
X196928809Y-73483857D01*
X196928809Y-73483857D02*
X196881190Y-73436238D01*
X196881190Y-73436238D02*
X196928809Y-73388619D01*
X196928809Y-73388619D02*
X196928809Y-73483857D01*
X196452619Y-73721952D02*
X196452619Y-74388619D01*
X196452619Y-73817190D02*
X196405000Y-73769571D01*
X196405000Y-73769571D02*
X196309762Y-73721952D01*
X196309762Y-73721952D02*
X196166905Y-73721952D01*
X196166905Y-73721952D02*
X196071667Y-73769571D01*
X196071667Y-73769571D02*
X196024048Y-73864809D01*
X196024048Y-73864809D02*
X196024048Y-74388619D01*
X195166905Y-74341000D02*
X195262143Y-74388619D01*
X195262143Y-74388619D02*
X195452619Y-74388619D01*
X195452619Y-74388619D02*
X195547857Y-74341000D01*
X195547857Y-74341000D02*
X195595476Y-74245761D01*
X195595476Y-74245761D02*
X195595476Y-73864809D01*
X195595476Y-73864809D02*
X195547857Y-73769571D01*
X195547857Y-73769571D02*
X195452619Y-73721952D01*
X195452619Y-73721952D02*
X195262143Y-73721952D01*
X195262143Y-73721952D02*
X195166905Y-73769571D01*
X195166905Y-73769571D02*
X195119286Y-73864809D01*
X195119286Y-73864809D02*
X195119286Y-73960047D01*
X195119286Y-73960047D02*
X195595476Y-74055285D01*
X194214524Y-74388619D02*
X194690714Y-74388619D01*
X194690714Y-74388619D02*
X194690714Y-73388619D01*
X193500238Y-74341000D02*
X193595476Y-74388619D01*
X193595476Y-74388619D02*
X193785952Y-74388619D01*
X193785952Y-74388619D02*
X193881190Y-74341000D01*
X193881190Y-74341000D02*
X193928809Y-74245761D01*
X193928809Y-74245761D02*
X193928809Y-73864809D01*
X193928809Y-73864809D02*
X193881190Y-73769571D01*
X193881190Y-73769571D02*
X193785952Y-73721952D01*
X193785952Y-73721952D02*
X193595476Y-73721952D01*
X193595476Y-73721952D02*
X193500238Y-73769571D01*
X193500238Y-73769571D02*
X193452619Y-73864809D01*
X193452619Y-73864809D02*
X193452619Y-73960047D01*
X193452619Y-73960047D02*
X193928809Y-74055285D01*
X193119285Y-73721952D02*
X192881190Y-74388619D01*
X192881190Y-74388619D02*
X192643095Y-73721952D01*
X191881190Y-74341000D02*
X191976428Y-74388619D01*
X191976428Y-74388619D02*
X192166904Y-74388619D01*
X192166904Y-74388619D02*
X192262142Y-74341000D01*
X192262142Y-74341000D02*
X192309761Y-74245761D01*
X192309761Y-74245761D02*
X192309761Y-73864809D01*
X192309761Y-73864809D02*
X192262142Y-73769571D01*
X192262142Y-73769571D02*
X192166904Y-73721952D01*
X192166904Y-73721952D02*
X191976428Y-73721952D01*
X191976428Y-73721952D02*
X191881190Y-73769571D01*
X191881190Y-73769571D02*
X191833571Y-73864809D01*
X191833571Y-73864809D02*
X191833571Y-73960047D01*
X191833571Y-73960047D02*
X192309761Y-74055285D01*
X191262142Y-74388619D02*
X191357380Y-74341000D01*
X191357380Y-74341000D02*
X191404999Y-74245761D01*
X191404999Y-74245761D02*
X191404999Y-73388619D01*
X191024046Y-73388619D02*
X190452618Y-73388619D01*
X190738332Y-74388619D02*
X190738332Y-73388619D01*
X190119284Y-74388619D02*
X190119284Y-73721952D01*
X190119284Y-73912428D02*
X190071665Y-73817190D01*
X190071665Y-73817190D02*
X190024046Y-73769571D01*
X190024046Y-73769571D02*
X189928808Y-73721952D01*
X189928808Y-73721952D02*
X189833570Y-73721952D01*
X189500236Y-74388619D02*
X189500236Y-73721952D01*
X189500236Y-73388619D02*
X189547855Y-73436238D01*
X189547855Y-73436238D02*
X189500236Y-73483857D01*
X189500236Y-73483857D02*
X189452617Y-73436238D01*
X189452617Y-73436238D02*
X189500236Y-73388619D01*
X189500236Y-73388619D02*
X189500236Y-73483857D01*
X189024046Y-74388619D02*
X189024046Y-73721952D01*
X189024046Y-73817190D02*
X188976427Y-73769571D01*
X188976427Y-73769571D02*
X188881189Y-73721952D01*
X188881189Y-73721952D02*
X188738332Y-73721952D01*
X188738332Y-73721952D02*
X188643094Y-73769571D01*
X188643094Y-73769571D02*
X188595475Y-73864809D01*
X188595475Y-73864809D02*
X188595475Y-74388619D01*
X188595475Y-73864809D02*
X188547856Y-73769571D01*
X188547856Y-73769571D02*
X188452618Y-73721952D01*
X188452618Y-73721952D02*
X188309761Y-73721952D01*
X188309761Y-73721952D02*
X188214522Y-73769571D01*
X188214522Y-73769571D02*
X188166903Y-73864809D01*
X188166903Y-73864809D02*
X188166903Y-74388619D01*
X187166904Y-74388619D02*
X187738332Y-74388619D01*
X187452618Y-74388619D02*
X187452618Y-73388619D01*
X187452618Y-73388619D02*
X187547856Y-73531476D01*
X187547856Y-73531476D02*
X187643094Y-73626714D01*
X187643094Y-73626714D02*
X187738332Y-73674333D01*
%TO.C,R54*%
X177712619Y-66830242D02*
X177236428Y-66496909D01*
X177712619Y-66258814D02*
X176712619Y-66258814D01*
X176712619Y-66258814D02*
X176712619Y-66639766D01*
X176712619Y-66639766D02*
X176760238Y-66735004D01*
X176760238Y-66735004D02*
X176807857Y-66782623D01*
X176807857Y-66782623D02*
X176903095Y-66830242D01*
X176903095Y-66830242D02*
X177045952Y-66830242D01*
X177045952Y-66830242D02*
X177141190Y-66782623D01*
X177141190Y-66782623D02*
X177188809Y-66735004D01*
X177188809Y-66735004D02*
X177236428Y-66639766D01*
X177236428Y-66639766D02*
X177236428Y-66258814D01*
X176712619Y-67735004D02*
X176712619Y-67258814D01*
X176712619Y-67258814D02*
X177188809Y-67211195D01*
X177188809Y-67211195D02*
X177141190Y-67258814D01*
X177141190Y-67258814D02*
X177093571Y-67354052D01*
X177093571Y-67354052D02*
X177093571Y-67592147D01*
X177093571Y-67592147D02*
X177141190Y-67687385D01*
X177141190Y-67687385D02*
X177188809Y-67735004D01*
X177188809Y-67735004D02*
X177284047Y-67782623D01*
X177284047Y-67782623D02*
X177522142Y-67782623D01*
X177522142Y-67782623D02*
X177617380Y-67735004D01*
X177617380Y-67735004D02*
X177665000Y-67687385D01*
X177665000Y-67687385D02*
X177712619Y-67592147D01*
X177712619Y-67592147D02*
X177712619Y-67354052D01*
X177712619Y-67354052D02*
X177665000Y-67258814D01*
X177665000Y-67258814D02*
X177617380Y-67211195D01*
X177045952Y-68639766D02*
X177712619Y-68639766D01*
X176665000Y-68401671D02*
X177379285Y-68163576D01*
X177379285Y-68163576D02*
X177379285Y-68782623D01*
%TO.C,R7*%
X189142666Y-87390219D02*
X189475999Y-86914028D01*
X189714094Y-87390219D02*
X189714094Y-86390219D01*
X189714094Y-86390219D02*
X189333142Y-86390219D01*
X189333142Y-86390219D02*
X189237904Y-86437838D01*
X189237904Y-86437838D02*
X189190285Y-86485457D01*
X189190285Y-86485457D02*
X189142666Y-86580695D01*
X189142666Y-86580695D02*
X189142666Y-86723552D01*
X189142666Y-86723552D02*
X189190285Y-86818790D01*
X189190285Y-86818790D02*
X189237904Y-86866409D01*
X189237904Y-86866409D02*
X189333142Y-86914028D01*
X189333142Y-86914028D02*
X189714094Y-86914028D01*
X188809332Y-86390219D02*
X188142666Y-86390219D01*
X188142666Y-86390219D02*
X188571237Y-87390219D01*
%TO.C,R2*%
X191987466Y-41509019D02*
X192320799Y-41032828D01*
X192558894Y-41509019D02*
X192558894Y-40509019D01*
X192558894Y-40509019D02*
X192177942Y-40509019D01*
X192177942Y-40509019D02*
X192082704Y-40556638D01*
X192082704Y-40556638D02*
X192035085Y-40604257D01*
X192035085Y-40604257D02*
X191987466Y-40699495D01*
X191987466Y-40699495D02*
X191987466Y-40842352D01*
X191987466Y-40842352D02*
X192035085Y-40937590D01*
X192035085Y-40937590D02*
X192082704Y-40985209D01*
X192082704Y-40985209D02*
X192177942Y-41032828D01*
X192177942Y-41032828D02*
X192558894Y-41032828D01*
X191606513Y-40604257D02*
X191558894Y-40556638D01*
X191558894Y-40556638D02*
X191463656Y-40509019D01*
X191463656Y-40509019D02*
X191225561Y-40509019D01*
X191225561Y-40509019D02*
X191130323Y-40556638D01*
X191130323Y-40556638D02*
X191082704Y-40604257D01*
X191082704Y-40604257D02*
X191035085Y-40699495D01*
X191035085Y-40699495D02*
X191035085Y-40794733D01*
X191035085Y-40794733D02*
X191082704Y-40937590D01*
X191082704Y-40937590D02*
X191654132Y-41509019D01*
X191654132Y-41509019D02*
X191035085Y-41509019D01*
%TO.C,R8*%
X187161466Y-48917019D02*
X187494799Y-48440828D01*
X187732894Y-48917019D02*
X187732894Y-47917019D01*
X187732894Y-47917019D02*
X187351942Y-47917019D01*
X187351942Y-47917019D02*
X187256704Y-47964638D01*
X187256704Y-47964638D02*
X187209085Y-48012257D01*
X187209085Y-48012257D02*
X187161466Y-48107495D01*
X187161466Y-48107495D02*
X187161466Y-48250352D01*
X187161466Y-48250352D02*
X187209085Y-48345590D01*
X187209085Y-48345590D02*
X187256704Y-48393209D01*
X187256704Y-48393209D02*
X187351942Y-48440828D01*
X187351942Y-48440828D02*
X187732894Y-48440828D01*
X186590037Y-48345590D02*
X186685275Y-48297971D01*
X186685275Y-48297971D02*
X186732894Y-48250352D01*
X186732894Y-48250352D02*
X186780513Y-48155114D01*
X186780513Y-48155114D02*
X186780513Y-48107495D01*
X186780513Y-48107495D02*
X186732894Y-48012257D01*
X186732894Y-48012257D02*
X186685275Y-47964638D01*
X186685275Y-47964638D02*
X186590037Y-47917019D01*
X186590037Y-47917019D02*
X186399561Y-47917019D01*
X186399561Y-47917019D02*
X186304323Y-47964638D01*
X186304323Y-47964638D02*
X186256704Y-48012257D01*
X186256704Y-48012257D02*
X186209085Y-48107495D01*
X186209085Y-48107495D02*
X186209085Y-48155114D01*
X186209085Y-48155114D02*
X186256704Y-48250352D01*
X186256704Y-48250352D02*
X186304323Y-48297971D01*
X186304323Y-48297971D02*
X186399561Y-48345590D01*
X186399561Y-48345590D02*
X186590037Y-48345590D01*
X186590037Y-48345590D02*
X186685275Y-48393209D01*
X186685275Y-48393209D02*
X186732894Y-48440828D01*
X186732894Y-48440828D02*
X186780513Y-48536066D01*
X186780513Y-48536066D02*
X186780513Y-48726542D01*
X186780513Y-48726542D02*
X186732894Y-48821780D01*
X186732894Y-48821780D02*
X186685275Y-48869400D01*
X186685275Y-48869400D02*
X186590037Y-48917019D01*
X186590037Y-48917019D02*
X186399561Y-48917019D01*
X186399561Y-48917019D02*
X186304323Y-48869400D01*
X186304323Y-48869400D02*
X186256704Y-48821780D01*
X186256704Y-48821780D02*
X186209085Y-48726542D01*
X186209085Y-48726542D02*
X186209085Y-48536066D01*
X186209085Y-48536066D02*
X186256704Y-48440828D01*
X186256704Y-48440828D02*
X186304323Y-48393209D01*
X186304323Y-48393209D02*
X186399561Y-48345590D01*
%TO.C,SW1*%
X198295732Y-67076600D02*
X198152875Y-67124219D01*
X198152875Y-67124219D02*
X197914780Y-67124219D01*
X197914780Y-67124219D02*
X197819542Y-67076600D01*
X197819542Y-67076600D02*
X197771923Y-67028980D01*
X197771923Y-67028980D02*
X197724304Y-66933742D01*
X197724304Y-66933742D02*
X197724304Y-66838504D01*
X197724304Y-66838504D02*
X197771923Y-66743266D01*
X197771923Y-66743266D02*
X197819542Y-66695647D01*
X197819542Y-66695647D02*
X197914780Y-66648028D01*
X197914780Y-66648028D02*
X198105256Y-66600409D01*
X198105256Y-66600409D02*
X198200494Y-66552790D01*
X198200494Y-66552790D02*
X198248113Y-66505171D01*
X198248113Y-66505171D02*
X198295732Y-66409933D01*
X198295732Y-66409933D02*
X198295732Y-66314695D01*
X198295732Y-66314695D02*
X198248113Y-66219457D01*
X198248113Y-66219457D02*
X198200494Y-66171838D01*
X198200494Y-66171838D02*
X198105256Y-66124219D01*
X198105256Y-66124219D02*
X197867161Y-66124219D01*
X197867161Y-66124219D02*
X197724304Y-66171838D01*
X197390970Y-66124219D02*
X197152875Y-67124219D01*
X197152875Y-67124219D02*
X196962399Y-66409933D01*
X196962399Y-66409933D02*
X196771923Y-67124219D01*
X196771923Y-67124219D02*
X196533828Y-66124219D01*
X195629066Y-67124219D02*
X196200494Y-67124219D01*
X195914780Y-67124219D02*
X195914780Y-66124219D01*
X195914780Y-66124219D02*
X196010018Y-66267076D01*
X196010018Y-66267076D02*
X196105256Y-66362314D01*
X196105256Y-66362314D02*
X196200494Y-66409933D01*
%TO.C,NOT_THONKY_SineShapeTrim1*%
X192371904Y-54830619D02*
X192371904Y-53830619D01*
X192371904Y-53830619D02*
X191800476Y-54830619D01*
X191800476Y-54830619D02*
X191800476Y-53830619D01*
X191133809Y-53830619D02*
X190943333Y-53830619D01*
X190943333Y-53830619D02*
X190848095Y-53878238D01*
X190848095Y-53878238D02*
X190752857Y-53973476D01*
X190752857Y-53973476D02*
X190705238Y-54163952D01*
X190705238Y-54163952D02*
X190705238Y-54497285D01*
X190705238Y-54497285D02*
X190752857Y-54687761D01*
X190752857Y-54687761D02*
X190848095Y-54783000D01*
X190848095Y-54783000D02*
X190943333Y-54830619D01*
X190943333Y-54830619D02*
X191133809Y-54830619D01*
X191133809Y-54830619D02*
X191229047Y-54783000D01*
X191229047Y-54783000D02*
X191324285Y-54687761D01*
X191324285Y-54687761D02*
X191371904Y-54497285D01*
X191371904Y-54497285D02*
X191371904Y-54163952D01*
X191371904Y-54163952D02*
X191324285Y-53973476D01*
X191324285Y-53973476D02*
X191229047Y-53878238D01*
X191229047Y-53878238D02*
X191133809Y-53830619D01*
X190419523Y-53830619D02*
X189848095Y-53830619D01*
X190133809Y-54830619D02*
X190133809Y-53830619D01*
X189752857Y-54925857D02*
X188990952Y-54925857D01*
X188895713Y-53830619D02*
X188324285Y-53830619D01*
X188609999Y-54830619D02*
X188609999Y-53830619D01*
X187990951Y-54830619D02*
X187990951Y-53830619D01*
X187990951Y-54306809D02*
X187419523Y-54306809D01*
X187419523Y-54830619D02*
X187419523Y-53830619D01*
X186752856Y-53830619D02*
X186562380Y-53830619D01*
X186562380Y-53830619D02*
X186467142Y-53878238D01*
X186467142Y-53878238D02*
X186371904Y-53973476D01*
X186371904Y-53973476D02*
X186324285Y-54163952D01*
X186324285Y-54163952D02*
X186324285Y-54497285D01*
X186324285Y-54497285D02*
X186371904Y-54687761D01*
X186371904Y-54687761D02*
X186467142Y-54783000D01*
X186467142Y-54783000D02*
X186562380Y-54830619D01*
X186562380Y-54830619D02*
X186752856Y-54830619D01*
X186752856Y-54830619D02*
X186848094Y-54783000D01*
X186848094Y-54783000D02*
X186943332Y-54687761D01*
X186943332Y-54687761D02*
X186990951Y-54497285D01*
X186990951Y-54497285D02*
X186990951Y-54163952D01*
X186990951Y-54163952D02*
X186943332Y-53973476D01*
X186943332Y-53973476D02*
X186848094Y-53878238D01*
X186848094Y-53878238D02*
X186752856Y-53830619D01*
X185895713Y-54830619D02*
X185895713Y-53830619D01*
X185895713Y-53830619D02*
X185324285Y-54830619D01*
X185324285Y-54830619D02*
X185324285Y-53830619D01*
X184848094Y-54830619D02*
X184848094Y-53830619D01*
X184276666Y-54830619D02*
X184705237Y-54259190D01*
X184276666Y-53830619D02*
X184848094Y-54402047D01*
X183657618Y-54354428D02*
X183657618Y-54830619D01*
X183990951Y-53830619D02*
X183657618Y-54354428D01*
X183657618Y-54354428D02*
X183324285Y-53830619D01*
X183229047Y-54925857D02*
X182467142Y-54925857D01*
X182276665Y-54783000D02*
X182133808Y-54830619D01*
X182133808Y-54830619D02*
X181895713Y-54830619D01*
X181895713Y-54830619D02*
X181800475Y-54783000D01*
X181800475Y-54783000D02*
X181752856Y-54735380D01*
X181752856Y-54735380D02*
X181705237Y-54640142D01*
X181705237Y-54640142D02*
X181705237Y-54544904D01*
X181705237Y-54544904D02*
X181752856Y-54449666D01*
X181752856Y-54449666D02*
X181800475Y-54402047D01*
X181800475Y-54402047D02*
X181895713Y-54354428D01*
X181895713Y-54354428D02*
X182086189Y-54306809D01*
X182086189Y-54306809D02*
X182181427Y-54259190D01*
X182181427Y-54259190D02*
X182229046Y-54211571D01*
X182229046Y-54211571D02*
X182276665Y-54116333D01*
X182276665Y-54116333D02*
X182276665Y-54021095D01*
X182276665Y-54021095D02*
X182229046Y-53925857D01*
X182229046Y-53925857D02*
X182181427Y-53878238D01*
X182181427Y-53878238D02*
X182086189Y-53830619D01*
X182086189Y-53830619D02*
X181848094Y-53830619D01*
X181848094Y-53830619D02*
X181705237Y-53878238D01*
X181276665Y-54830619D02*
X181276665Y-54163952D01*
X181276665Y-53830619D02*
X181324284Y-53878238D01*
X181324284Y-53878238D02*
X181276665Y-53925857D01*
X181276665Y-53925857D02*
X181229046Y-53878238D01*
X181229046Y-53878238D02*
X181276665Y-53830619D01*
X181276665Y-53830619D02*
X181276665Y-53925857D01*
X180800475Y-54163952D02*
X180800475Y-54830619D01*
X180800475Y-54259190D02*
X180752856Y-54211571D01*
X180752856Y-54211571D02*
X180657618Y-54163952D01*
X180657618Y-54163952D02*
X180514761Y-54163952D01*
X180514761Y-54163952D02*
X180419523Y-54211571D01*
X180419523Y-54211571D02*
X180371904Y-54306809D01*
X180371904Y-54306809D02*
X180371904Y-54830619D01*
X179514761Y-54783000D02*
X179609999Y-54830619D01*
X179609999Y-54830619D02*
X179800475Y-54830619D01*
X179800475Y-54830619D02*
X179895713Y-54783000D01*
X179895713Y-54783000D02*
X179943332Y-54687761D01*
X179943332Y-54687761D02*
X179943332Y-54306809D01*
X179943332Y-54306809D02*
X179895713Y-54211571D01*
X179895713Y-54211571D02*
X179800475Y-54163952D01*
X179800475Y-54163952D02*
X179609999Y-54163952D01*
X179609999Y-54163952D02*
X179514761Y-54211571D01*
X179514761Y-54211571D02*
X179467142Y-54306809D01*
X179467142Y-54306809D02*
X179467142Y-54402047D01*
X179467142Y-54402047D02*
X179943332Y-54497285D01*
X179086189Y-54783000D02*
X178943332Y-54830619D01*
X178943332Y-54830619D02*
X178705237Y-54830619D01*
X178705237Y-54830619D02*
X178609999Y-54783000D01*
X178609999Y-54783000D02*
X178562380Y-54735380D01*
X178562380Y-54735380D02*
X178514761Y-54640142D01*
X178514761Y-54640142D02*
X178514761Y-54544904D01*
X178514761Y-54544904D02*
X178562380Y-54449666D01*
X178562380Y-54449666D02*
X178609999Y-54402047D01*
X178609999Y-54402047D02*
X178705237Y-54354428D01*
X178705237Y-54354428D02*
X178895713Y-54306809D01*
X178895713Y-54306809D02*
X178990951Y-54259190D01*
X178990951Y-54259190D02*
X179038570Y-54211571D01*
X179038570Y-54211571D02*
X179086189Y-54116333D01*
X179086189Y-54116333D02*
X179086189Y-54021095D01*
X179086189Y-54021095D02*
X179038570Y-53925857D01*
X179038570Y-53925857D02*
X178990951Y-53878238D01*
X178990951Y-53878238D02*
X178895713Y-53830619D01*
X178895713Y-53830619D02*
X178657618Y-53830619D01*
X178657618Y-53830619D02*
X178514761Y-53878238D01*
X178086189Y-54830619D02*
X178086189Y-53830619D01*
X177657618Y-54830619D02*
X177657618Y-54306809D01*
X177657618Y-54306809D02*
X177705237Y-54211571D01*
X177705237Y-54211571D02*
X177800475Y-54163952D01*
X177800475Y-54163952D02*
X177943332Y-54163952D01*
X177943332Y-54163952D02*
X178038570Y-54211571D01*
X178038570Y-54211571D02*
X178086189Y-54259190D01*
X176752856Y-54830619D02*
X176752856Y-54306809D01*
X176752856Y-54306809D02*
X176800475Y-54211571D01*
X176800475Y-54211571D02*
X176895713Y-54163952D01*
X176895713Y-54163952D02*
X177086189Y-54163952D01*
X177086189Y-54163952D02*
X177181427Y-54211571D01*
X176752856Y-54783000D02*
X176848094Y-54830619D01*
X176848094Y-54830619D02*
X177086189Y-54830619D01*
X177086189Y-54830619D02*
X177181427Y-54783000D01*
X177181427Y-54783000D02*
X177229046Y-54687761D01*
X177229046Y-54687761D02*
X177229046Y-54592523D01*
X177229046Y-54592523D02*
X177181427Y-54497285D01*
X177181427Y-54497285D02*
X177086189Y-54449666D01*
X177086189Y-54449666D02*
X176848094Y-54449666D01*
X176848094Y-54449666D02*
X176752856Y-54402047D01*
X176276665Y-54163952D02*
X176276665Y-55163952D01*
X176276665Y-54211571D02*
X176181427Y-54163952D01*
X176181427Y-54163952D02*
X175990951Y-54163952D01*
X175990951Y-54163952D02*
X175895713Y-54211571D01*
X175895713Y-54211571D02*
X175848094Y-54259190D01*
X175848094Y-54259190D02*
X175800475Y-54354428D01*
X175800475Y-54354428D02*
X175800475Y-54640142D01*
X175800475Y-54640142D02*
X175848094Y-54735380D01*
X175848094Y-54735380D02*
X175895713Y-54783000D01*
X175895713Y-54783000D02*
X175990951Y-54830619D01*
X175990951Y-54830619D02*
X176181427Y-54830619D01*
X176181427Y-54830619D02*
X176276665Y-54783000D01*
X174990951Y-54783000D02*
X175086189Y-54830619D01*
X175086189Y-54830619D02*
X175276665Y-54830619D01*
X175276665Y-54830619D02*
X175371903Y-54783000D01*
X175371903Y-54783000D02*
X175419522Y-54687761D01*
X175419522Y-54687761D02*
X175419522Y-54306809D01*
X175419522Y-54306809D02*
X175371903Y-54211571D01*
X175371903Y-54211571D02*
X175276665Y-54163952D01*
X175276665Y-54163952D02*
X175086189Y-54163952D01*
X175086189Y-54163952D02*
X174990951Y-54211571D01*
X174990951Y-54211571D02*
X174943332Y-54306809D01*
X174943332Y-54306809D02*
X174943332Y-54402047D01*
X174943332Y-54402047D02*
X175419522Y-54497285D01*
X174657617Y-53830619D02*
X174086189Y-53830619D01*
X174371903Y-54830619D02*
X174371903Y-53830619D01*
X173752855Y-54830619D02*
X173752855Y-54163952D01*
X173752855Y-54354428D02*
X173705236Y-54259190D01*
X173705236Y-54259190D02*
X173657617Y-54211571D01*
X173657617Y-54211571D02*
X173562379Y-54163952D01*
X173562379Y-54163952D02*
X173467141Y-54163952D01*
X173133807Y-54830619D02*
X173133807Y-54163952D01*
X173133807Y-53830619D02*
X173181426Y-53878238D01*
X173181426Y-53878238D02*
X173133807Y-53925857D01*
X173133807Y-53925857D02*
X173086188Y-53878238D01*
X173086188Y-53878238D02*
X173133807Y-53830619D01*
X173133807Y-53830619D02*
X173133807Y-53925857D01*
X172657617Y-54830619D02*
X172657617Y-54163952D01*
X172657617Y-54259190D02*
X172609998Y-54211571D01*
X172609998Y-54211571D02*
X172514760Y-54163952D01*
X172514760Y-54163952D02*
X172371903Y-54163952D01*
X172371903Y-54163952D02*
X172276665Y-54211571D01*
X172276665Y-54211571D02*
X172229046Y-54306809D01*
X172229046Y-54306809D02*
X172229046Y-54830619D01*
X172229046Y-54306809D02*
X172181427Y-54211571D01*
X172181427Y-54211571D02*
X172086189Y-54163952D01*
X172086189Y-54163952D02*
X171943332Y-54163952D01*
X171943332Y-54163952D02*
X171848093Y-54211571D01*
X171848093Y-54211571D02*
X171800474Y-54306809D01*
X171800474Y-54306809D02*
X171800474Y-54830619D01*
X170800475Y-54830619D02*
X171371903Y-54830619D01*
X171086189Y-54830619D02*
X171086189Y-53830619D01*
X171086189Y-53830619D02*
X171181427Y-53973476D01*
X171181427Y-53973476D02*
X171276665Y-54068714D01*
X171276665Y-54068714D02*
X171371903Y-54116333D01*
%TO.C,R24*%
X181573419Y-86987142D02*
X181097228Y-86653809D01*
X181573419Y-86415714D02*
X180573419Y-86415714D01*
X180573419Y-86415714D02*
X180573419Y-86796666D01*
X180573419Y-86796666D02*
X180621038Y-86891904D01*
X180621038Y-86891904D02*
X180668657Y-86939523D01*
X180668657Y-86939523D02*
X180763895Y-86987142D01*
X180763895Y-86987142D02*
X180906752Y-86987142D01*
X180906752Y-86987142D02*
X181001990Y-86939523D01*
X181001990Y-86939523D02*
X181049609Y-86891904D01*
X181049609Y-86891904D02*
X181097228Y-86796666D01*
X181097228Y-86796666D02*
X181097228Y-86415714D01*
X180668657Y-87368095D02*
X180621038Y-87415714D01*
X180621038Y-87415714D02*
X180573419Y-87510952D01*
X180573419Y-87510952D02*
X180573419Y-87749047D01*
X180573419Y-87749047D02*
X180621038Y-87844285D01*
X180621038Y-87844285D02*
X180668657Y-87891904D01*
X180668657Y-87891904D02*
X180763895Y-87939523D01*
X180763895Y-87939523D02*
X180859133Y-87939523D01*
X180859133Y-87939523D02*
X181001990Y-87891904D01*
X181001990Y-87891904D02*
X181573419Y-87320476D01*
X181573419Y-87320476D02*
X181573419Y-87939523D01*
X180906752Y-88796666D02*
X181573419Y-88796666D01*
X180525800Y-88558571D02*
X181240085Y-88320476D01*
X181240085Y-88320476D02*
X181240085Y-88939523D01*
%TO.C,C2*%
X181541380Y-94219733D02*
X181589000Y-94172114D01*
X181589000Y-94172114D02*
X181636619Y-94029257D01*
X181636619Y-94029257D02*
X181636619Y-93934019D01*
X181636619Y-93934019D02*
X181589000Y-93791162D01*
X181589000Y-93791162D02*
X181493761Y-93695924D01*
X181493761Y-93695924D02*
X181398523Y-93648305D01*
X181398523Y-93648305D02*
X181208047Y-93600686D01*
X181208047Y-93600686D02*
X181065190Y-93600686D01*
X181065190Y-93600686D02*
X180874714Y-93648305D01*
X180874714Y-93648305D02*
X180779476Y-93695924D01*
X180779476Y-93695924D02*
X180684238Y-93791162D01*
X180684238Y-93791162D02*
X180636619Y-93934019D01*
X180636619Y-93934019D02*
X180636619Y-94029257D01*
X180636619Y-94029257D02*
X180684238Y-94172114D01*
X180684238Y-94172114D02*
X180731857Y-94219733D01*
X180731857Y-94600686D02*
X180684238Y-94648305D01*
X180684238Y-94648305D02*
X180636619Y-94743543D01*
X180636619Y-94743543D02*
X180636619Y-94981638D01*
X180636619Y-94981638D02*
X180684238Y-95076876D01*
X180684238Y-95076876D02*
X180731857Y-95124495D01*
X180731857Y-95124495D02*
X180827095Y-95172114D01*
X180827095Y-95172114D02*
X180922333Y-95172114D01*
X180922333Y-95172114D02*
X181065190Y-95124495D01*
X181065190Y-95124495D02*
X181636619Y-94553067D01*
X181636619Y-94553067D02*
X181636619Y-95172114D01*
%TO.C,R17*%
X196846619Y-133088142D02*
X196370428Y-132754809D01*
X196846619Y-132516714D02*
X195846619Y-132516714D01*
X195846619Y-132516714D02*
X195846619Y-132897666D01*
X195846619Y-132897666D02*
X195894238Y-132992904D01*
X195894238Y-132992904D02*
X195941857Y-133040523D01*
X195941857Y-133040523D02*
X196037095Y-133088142D01*
X196037095Y-133088142D02*
X196179952Y-133088142D01*
X196179952Y-133088142D02*
X196275190Y-133040523D01*
X196275190Y-133040523D02*
X196322809Y-132992904D01*
X196322809Y-132992904D02*
X196370428Y-132897666D01*
X196370428Y-132897666D02*
X196370428Y-132516714D01*
X196846619Y-134040523D02*
X196846619Y-133469095D01*
X196846619Y-133754809D02*
X195846619Y-133754809D01*
X195846619Y-133754809D02*
X195989476Y-133659571D01*
X195989476Y-133659571D02*
X196084714Y-133564333D01*
X196084714Y-133564333D02*
X196132333Y-133469095D01*
X195846619Y-134373857D02*
X195846619Y-135040523D01*
X195846619Y-135040523D02*
X196846619Y-134611952D01*
%TO.C,R12*%
X189415657Y-102866619D02*
X189748990Y-102390428D01*
X189987085Y-102866619D02*
X189987085Y-101866619D01*
X189987085Y-101866619D02*
X189606133Y-101866619D01*
X189606133Y-101866619D02*
X189510895Y-101914238D01*
X189510895Y-101914238D02*
X189463276Y-101961857D01*
X189463276Y-101961857D02*
X189415657Y-102057095D01*
X189415657Y-102057095D02*
X189415657Y-102199952D01*
X189415657Y-102199952D02*
X189463276Y-102295190D01*
X189463276Y-102295190D02*
X189510895Y-102342809D01*
X189510895Y-102342809D02*
X189606133Y-102390428D01*
X189606133Y-102390428D02*
X189987085Y-102390428D01*
X188463276Y-102866619D02*
X189034704Y-102866619D01*
X188748990Y-102866619D02*
X188748990Y-101866619D01*
X188748990Y-101866619D02*
X188844228Y-102009476D01*
X188844228Y-102009476D02*
X188939466Y-102104714D01*
X188939466Y-102104714D02*
X189034704Y-102152333D01*
X188082323Y-101961857D02*
X188034704Y-101914238D01*
X188034704Y-101914238D02*
X187939466Y-101866619D01*
X187939466Y-101866619D02*
X187701371Y-101866619D01*
X187701371Y-101866619D02*
X187606133Y-101914238D01*
X187606133Y-101914238D02*
X187558514Y-101961857D01*
X187558514Y-101961857D02*
X187510895Y-102057095D01*
X187510895Y-102057095D02*
X187510895Y-102152333D01*
X187510895Y-102152333D02*
X187558514Y-102295190D01*
X187558514Y-102295190D02*
X188129942Y-102866619D01*
X188129942Y-102866619D02*
X187510895Y-102866619D01*
%TO.C,J11*%
X194827619Y-144605476D02*
X195541904Y-144605476D01*
X195541904Y-144605476D02*
X195684761Y-144557857D01*
X195684761Y-144557857D02*
X195780000Y-144462619D01*
X195780000Y-144462619D02*
X195827619Y-144319762D01*
X195827619Y-144319762D02*
X195827619Y-144224524D01*
X195827619Y-145605476D02*
X195827619Y-145034048D01*
X195827619Y-145319762D02*
X194827619Y-145319762D01*
X194827619Y-145319762D02*
X194970476Y-145224524D01*
X194970476Y-145224524D02*
X195065714Y-145129286D01*
X195065714Y-145129286D02*
X195113333Y-145034048D01*
X195827619Y-146557857D02*
X195827619Y-145986429D01*
X195827619Y-146272143D02*
X194827619Y-146272143D01*
X194827619Y-146272143D02*
X194970476Y-146176905D01*
X194970476Y-146176905D02*
X195065714Y-146081667D01*
X195065714Y-146081667D02*
X195113333Y-145986429D01*
%TO.C,C7*%
X181600580Y-102804933D02*
X181648200Y-102757314D01*
X181648200Y-102757314D02*
X181695819Y-102614457D01*
X181695819Y-102614457D02*
X181695819Y-102519219D01*
X181695819Y-102519219D02*
X181648200Y-102376362D01*
X181648200Y-102376362D02*
X181552961Y-102281124D01*
X181552961Y-102281124D02*
X181457723Y-102233505D01*
X181457723Y-102233505D02*
X181267247Y-102185886D01*
X181267247Y-102185886D02*
X181124390Y-102185886D01*
X181124390Y-102185886D02*
X180933914Y-102233505D01*
X180933914Y-102233505D02*
X180838676Y-102281124D01*
X180838676Y-102281124D02*
X180743438Y-102376362D01*
X180743438Y-102376362D02*
X180695819Y-102519219D01*
X180695819Y-102519219D02*
X180695819Y-102614457D01*
X180695819Y-102614457D02*
X180743438Y-102757314D01*
X180743438Y-102757314D02*
X180791057Y-102804933D01*
X180695819Y-103138267D02*
X180695819Y-103804933D01*
X180695819Y-103804933D02*
X181695819Y-103376362D01*
%TO.C,R51*%
X177560219Y-71645542D02*
X177084028Y-71312209D01*
X177560219Y-71074114D02*
X176560219Y-71074114D01*
X176560219Y-71074114D02*
X176560219Y-71455066D01*
X176560219Y-71455066D02*
X176607838Y-71550304D01*
X176607838Y-71550304D02*
X176655457Y-71597923D01*
X176655457Y-71597923D02*
X176750695Y-71645542D01*
X176750695Y-71645542D02*
X176893552Y-71645542D01*
X176893552Y-71645542D02*
X176988790Y-71597923D01*
X176988790Y-71597923D02*
X177036409Y-71550304D01*
X177036409Y-71550304D02*
X177084028Y-71455066D01*
X177084028Y-71455066D02*
X177084028Y-71074114D01*
X176560219Y-72550304D02*
X176560219Y-72074114D01*
X176560219Y-72074114D02*
X177036409Y-72026495D01*
X177036409Y-72026495D02*
X176988790Y-72074114D01*
X176988790Y-72074114D02*
X176941171Y-72169352D01*
X176941171Y-72169352D02*
X176941171Y-72407447D01*
X176941171Y-72407447D02*
X176988790Y-72502685D01*
X176988790Y-72502685D02*
X177036409Y-72550304D01*
X177036409Y-72550304D02*
X177131647Y-72597923D01*
X177131647Y-72597923D02*
X177369742Y-72597923D01*
X177369742Y-72597923D02*
X177464980Y-72550304D01*
X177464980Y-72550304D02*
X177512600Y-72502685D01*
X177512600Y-72502685D02*
X177560219Y-72407447D01*
X177560219Y-72407447D02*
X177560219Y-72169352D01*
X177560219Y-72169352D02*
X177512600Y-72074114D01*
X177512600Y-72074114D02*
X177464980Y-72026495D01*
X177560219Y-73550304D02*
X177560219Y-72978876D01*
X177560219Y-73264590D02*
X176560219Y-73264590D01*
X176560219Y-73264590D02*
X176703076Y-73169352D01*
X176703076Y-73169352D02*
X176798314Y-73074114D01*
X176798314Y-73074114D02*
X176845933Y-72978876D01*
%TO.C,R36*%
X186367657Y-68949819D02*
X186700990Y-68473628D01*
X186939085Y-68949819D02*
X186939085Y-67949819D01*
X186939085Y-67949819D02*
X186558133Y-67949819D01*
X186558133Y-67949819D02*
X186462895Y-67997438D01*
X186462895Y-67997438D02*
X186415276Y-68045057D01*
X186415276Y-68045057D02*
X186367657Y-68140295D01*
X186367657Y-68140295D02*
X186367657Y-68283152D01*
X186367657Y-68283152D02*
X186415276Y-68378390D01*
X186415276Y-68378390D02*
X186462895Y-68426009D01*
X186462895Y-68426009D02*
X186558133Y-68473628D01*
X186558133Y-68473628D02*
X186939085Y-68473628D01*
X186034323Y-67949819D02*
X185415276Y-67949819D01*
X185415276Y-67949819D02*
X185748609Y-68330771D01*
X185748609Y-68330771D02*
X185605752Y-68330771D01*
X185605752Y-68330771D02*
X185510514Y-68378390D01*
X185510514Y-68378390D02*
X185462895Y-68426009D01*
X185462895Y-68426009D02*
X185415276Y-68521247D01*
X185415276Y-68521247D02*
X185415276Y-68759342D01*
X185415276Y-68759342D02*
X185462895Y-68854580D01*
X185462895Y-68854580D02*
X185510514Y-68902200D01*
X185510514Y-68902200D02*
X185605752Y-68949819D01*
X185605752Y-68949819D02*
X185891466Y-68949819D01*
X185891466Y-68949819D02*
X185986704Y-68902200D01*
X185986704Y-68902200D02*
X186034323Y-68854580D01*
X184558133Y-67949819D02*
X184748609Y-67949819D01*
X184748609Y-67949819D02*
X184843847Y-67997438D01*
X184843847Y-67997438D02*
X184891466Y-68045057D01*
X184891466Y-68045057D02*
X184986704Y-68187914D01*
X184986704Y-68187914D02*
X185034323Y-68378390D01*
X185034323Y-68378390D02*
X185034323Y-68759342D01*
X185034323Y-68759342D02*
X184986704Y-68854580D01*
X184986704Y-68854580D02*
X184939085Y-68902200D01*
X184939085Y-68902200D02*
X184843847Y-68949819D01*
X184843847Y-68949819D02*
X184653371Y-68949819D01*
X184653371Y-68949819D02*
X184558133Y-68902200D01*
X184558133Y-68902200D02*
X184510514Y-68854580D01*
X184510514Y-68854580D02*
X184462895Y-68759342D01*
X184462895Y-68759342D02*
X184462895Y-68521247D01*
X184462895Y-68521247D02*
X184510514Y-68426009D01*
X184510514Y-68426009D02*
X184558133Y-68378390D01*
X184558133Y-68378390D02*
X184653371Y-68330771D01*
X184653371Y-68330771D02*
X184843847Y-68330771D01*
X184843847Y-68330771D02*
X184939085Y-68378390D01*
X184939085Y-68378390D02*
X184986704Y-68426009D01*
X184986704Y-68426009D02*
X185034323Y-68521247D01*
%TO.C,U2*%
X183895904Y-132602619D02*
X183895904Y-133412142D01*
X183895904Y-133412142D02*
X183848285Y-133507380D01*
X183848285Y-133507380D02*
X183800666Y-133555000D01*
X183800666Y-133555000D02*
X183705428Y-133602619D01*
X183705428Y-133602619D02*
X183514952Y-133602619D01*
X183514952Y-133602619D02*
X183419714Y-133555000D01*
X183419714Y-133555000D02*
X183372095Y-133507380D01*
X183372095Y-133507380D02*
X183324476Y-133412142D01*
X183324476Y-133412142D02*
X183324476Y-132602619D01*
X182895904Y-132697857D02*
X182848285Y-132650238D01*
X182848285Y-132650238D02*
X182753047Y-132602619D01*
X182753047Y-132602619D02*
X182514952Y-132602619D01*
X182514952Y-132602619D02*
X182419714Y-132650238D01*
X182419714Y-132650238D02*
X182372095Y-132697857D01*
X182372095Y-132697857D02*
X182324476Y-132793095D01*
X182324476Y-132793095D02*
X182324476Y-132888333D01*
X182324476Y-132888333D02*
X182372095Y-133031190D01*
X182372095Y-133031190D02*
X182943523Y-133602619D01*
X182943523Y-133602619D02*
X182324476Y-133602619D01*
%TO.C,R40*%
X191650857Y-134362619D02*
X191984190Y-133886428D01*
X192222285Y-134362619D02*
X192222285Y-133362619D01*
X192222285Y-133362619D02*
X191841333Y-133362619D01*
X191841333Y-133362619D02*
X191746095Y-133410238D01*
X191746095Y-133410238D02*
X191698476Y-133457857D01*
X191698476Y-133457857D02*
X191650857Y-133553095D01*
X191650857Y-133553095D02*
X191650857Y-133695952D01*
X191650857Y-133695952D02*
X191698476Y-133791190D01*
X191698476Y-133791190D02*
X191746095Y-133838809D01*
X191746095Y-133838809D02*
X191841333Y-133886428D01*
X191841333Y-133886428D02*
X192222285Y-133886428D01*
X190793714Y-133695952D02*
X190793714Y-134362619D01*
X191031809Y-133315000D02*
X191269904Y-134029285D01*
X191269904Y-134029285D02*
X190650857Y-134029285D01*
X190079428Y-133362619D02*
X189984190Y-133362619D01*
X189984190Y-133362619D02*
X189888952Y-133410238D01*
X189888952Y-133410238D02*
X189841333Y-133457857D01*
X189841333Y-133457857D02*
X189793714Y-133553095D01*
X189793714Y-133553095D02*
X189746095Y-133743571D01*
X189746095Y-133743571D02*
X189746095Y-133981666D01*
X189746095Y-133981666D02*
X189793714Y-134172142D01*
X189793714Y-134172142D02*
X189841333Y-134267380D01*
X189841333Y-134267380D02*
X189888952Y-134315000D01*
X189888952Y-134315000D02*
X189984190Y-134362619D01*
X189984190Y-134362619D02*
X190079428Y-134362619D01*
X190079428Y-134362619D02*
X190174666Y-134315000D01*
X190174666Y-134315000D02*
X190222285Y-134267380D01*
X190222285Y-134267380D02*
X190269904Y-134172142D01*
X190269904Y-134172142D02*
X190317523Y-133981666D01*
X190317523Y-133981666D02*
X190317523Y-133743571D01*
X190317523Y-133743571D02*
X190269904Y-133553095D01*
X190269904Y-133553095D02*
X190222285Y-133457857D01*
X190222285Y-133457857D02*
X190174666Y-133410238D01*
X190174666Y-133410238D02*
X190079428Y-133362619D01*
%TO.C,R5*%
X199183419Y-51293733D02*
X198707228Y-50960400D01*
X199183419Y-50722305D02*
X198183419Y-50722305D01*
X198183419Y-50722305D02*
X198183419Y-51103257D01*
X198183419Y-51103257D02*
X198231038Y-51198495D01*
X198231038Y-51198495D02*
X198278657Y-51246114D01*
X198278657Y-51246114D02*
X198373895Y-51293733D01*
X198373895Y-51293733D02*
X198516752Y-51293733D01*
X198516752Y-51293733D02*
X198611990Y-51246114D01*
X198611990Y-51246114D02*
X198659609Y-51198495D01*
X198659609Y-51198495D02*
X198707228Y-51103257D01*
X198707228Y-51103257D02*
X198707228Y-50722305D01*
X198183419Y-52198495D02*
X198183419Y-51722305D01*
X198183419Y-51722305D02*
X198659609Y-51674686D01*
X198659609Y-51674686D02*
X198611990Y-51722305D01*
X198611990Y-51722305D02*
X198564371Y-51817543D01*
X198564371Y-51817543D02*
X198564371Y-52055638D01*
X198564371Y-52055638D02*
X198611990Y-52150876D01*
X198611990Y-52150876D02*
X198659609Y-52198495D01*
X198659609Y-52198495D02*
X198754847Y-52246114D01*
X198754847Y-52246114D02*
X198992942Y-52246114D01*
X198992942Y-52246114D02*
X199088180Y-52198495D01*
X199088180Y-52198495D02*
X199135800Y-52150876D01*
X199135800Y-52150876D02*
X199183419Y-52055638D01*
X199183419Y-52055638D02*
X199183419Y-51817543D01*
X199183419Y-51817543D02*
X199135800Y-51722305D01*
X199135800Y-51722305D02*
X199088180Y-51674686D01*
%TO.C,NOT+THINKY_CV1*%
X203095475Y-41368619D02*
X203095475Y-40368619D01*
X203095475Y-40368619D02*
X202524047Y-41368619D01*
X202524047Y-41368619D02*
X202524047Y-40368619D01*
X201857380Y-40368619D02*
X201666904Y-40368619D01*
X201666904Y-40368619D02*
X201571666Y-40416238D01*
X201571666Y-40416238D02*
X201476428Y-40511476D01*
X201476428Y-40511476D02*
X201428809Y-40701952D01*
X201428809Y-40701952D02*
X201428809Y-41035285D01*
X201428809Y-41035285D02*
X201476428Y-41225761D01*
X201476428Y-41225761D02*
X201571666Y-41321000D01*
X201571666Y-41321000D02*
X201666904Y-41368619D01*
X201666904Y-41368619D02*
X201857380Y-41368619D01*
X201857380Y-41368619D02*
X201952618Y-41321000D01*
X201952618Y-41321000D02*
X202047856Y-41225761D01*
X202047856Y-41225761D02*
X202095475Y-41035285D01*
X202095475Y-41035285D02*
X202095475Y-40701952D01*
X202095475Y-40701952D02*
X202047856Y-40511476D01*
X202047856Y-40511476D02*
X201952618Y-40416238D01*
X201952618Y-40416238D02*
X201857380Y-40368619D01*
X201143094Y-40368619D02*
X200571666Y-40368619D01*
X200857380Y-41368619D02*
X200857380Y-40368619D01*
X200238332Y-40987666D02*
X199476428Y-40987666D01*
X199857380Y-41368619D02*
X199857380Y-40606714D01*
X199143094Y-40368619D02*
X198571666Y-40368619D01*
X198857380Y-41368619D02*
X198857380Y-40368619D01*
X198238332Y-41368619D02*
X198238332Y-40368619D01*
X198238332Y-40844809D02*
X197666904Y-40844809D01*
X197666904Y-41368619D02*
X197666904Y-40368619D01*
X197190713Y-41368619D02*
X197190713Y-40368619D01*
X196714523Y-41368619D02*
X196714523Y-40368619D01*
X196714523Y-40368619D02*
X196143095Y-41368619D01*
X196143095Y-41368619D02*
X196143095Y-40368619D01*
X195666904Y-41368619D02*
X195666904Y-40368619D01*
X195095476Y-41368619D02*
X195524047Y-40797190D01*
X195095476Y-40368619D02*
X195666904Y-40940047D01*
X194476428Y-40892428D02*
X194476428Y-41368619D01*
X194809761Y-40368619D02*
X194476428Y-40892428D01*
X194476428Y-40892428D02*
X194143095Y-40368619D01*
X194047857Y-41463857D02*
X193285952Y-41463857D01*
X192476428Y-41273380D02*
X192524047Y-41321000D01*
X192524047Y-41321000D02*
X192666904Y-41368619D01*
X192666904Y-41368619D02*
X192762142Y-41368619D01*
X192762142Y-41368619D02*
X192904999Y-41321000D01*
X192904999Y-41321000D02*
X193000237Y-41225761D01*
X193000237Y-41225761D02*
X193047856Y-41130523D01*
X193047856Y-41130523D02*
X193095475Y-40940047D01*
X193095475Y-40940047D02*
X193095475Y-40797190D01*
X193095475Y-40797190D02*
X193047856Y-40606714D01*
X193047856Y-40606714D02*
X193000237Y-40511476D01*
X193000237Y-40511476D02*
X192904999Y-40416238D01*
X192904999Y-40416238D02*
X192762142Y-40368619D01*
X192762142Y-40368619D02*
X192666904Y-40368619D01*
X192666904Y-40368619D02*
X192524047Y-40416238D01*
X192524047Y-40416238D02*
X192476428Y-40463857D01*
X192190713Y-40368619D02*
X191857380Y-41368619D01*
X191857380Y-41368619D02*
X191524047Y-40368619D01*
X190666904Y-41368619D02*
X191238332Y-41368619D01*
X190952618Y-41368619D02*
X190952618Y-40368619D01*
X190952618Y-40368619D02*
X191047856Y-40511476D01*
X191047856Y-40511476D02*
X191143094Y-40606714D01*
X191143094Y-40606714D02*
X191238332Y-40654333D01*
%TO.C,R39*%
X179408057Y-134371419D02*
X179741390Y-133895228D01*
X179979485Y-134371419D02*
X179979485Y-133371419D01*
X179979485Y-133371419D02*
X179598533Y-133371419D01*
X179598533Y-133371419D02*
X179503295Y-133419038D01*
X179503295Y-133419038D02*
X179455676Y-133466657D01*
X179455676Y-133466657D02*
X179408057Y-133561895D01*
X179408057Y-133561895D02*
X179408057Y-133704752D01*
X179408057Y-133704752D02*
X179455676Y-133799990D01*
X179455676Y-133799990D02*
X179503295Y-133847609D01*
X179503295Y-133847609D02*
X179598533Y-133895228D01*
X179598533Y-133895228D02*
X179979485Y-133895228D01*
X179074723Y-133371419D02*
X178455676Y-133371419D01*
X178455676Y-133371419D02*
X178789009Y-133752371D01*
X178789009Y-133752371D02*
X178646152Y-133752371D01*
X178646152Y-133752371D02*
X178550914Y-133799990D01*
X178550914Y-133799990D02*
X178503295Y-133847609D01*
X178503295Y-133847609D02*
X178455676Y-133942847D01*
X178455676Y-133942847D02*
X178455676Y-134180942D01*
X178455676Y-134180942D02*
X178503295Y-134276180D01*
X178503295Y-134276180D02*
X178550914Y-134323800D01*
X178550914Y-134323800D02*
X178646152Y-134371419D01*
X178646152Y-134371419D02*
X178931866Y-134371419D01*
X178931866Y-134371419D02*
X179027104Y-134323800D01*
X179027104Y-134323800D02*
X179074723Y-134276180D01*
X177979485Y-134371419D02*
X177789009Y-134371419D01*
X177789009Y-134371419D02*
X177693771Y-134323800D01*
X177693771Y-134323800D02*
X177646152Y-134276180D01*
X177646152Y-134276180D02*
X177550914Y-134133323D01*
X177550914Y-134133323D02*
X177503295Y-133942847D01*
X177503295Y-133942847D02*
X177503295Y-133561895D01*
X177503295Y-133561895D02*
X177550914Y-133466657D01*
X177550914Y-133466657D02*
X177598533Y-133419038D01*
X177598533Y-133419038D02*
X177693771Y-133371419D01*
X177693771Y-133371419D02*
X177884247Y-133371419D01*
X177884247Y-133371419D02*
X177979485Y-133419038D01*
X177979485Y-133419038D02*
X178027104Y-133466657D01*
X178027104Y-133466657D02*
X178074723Y-133561895D01*
X178074723Y-133561895D02*
X178074723Y-133799990D01*
X178074723Y-133799990D02*
X178027104Y-133895228D01*
X178027104Y-133895228D02*
X177979485Y-133942847D01*
X177979485Y-133942847D02*
X177884247Y-133990466D01*
X177884247Y-133990466D02*
X177693771Y-133990466D01*
X177693771Y-133990466D02*
X177598533Y-133942847D01*
X177598533Y-133942847D02*
X177550914Y-133895228D01*
X177550914Y-133895228D02*
X177503295Y-133799990D01*
%TO.C,R68*%
X188736219Y-108323142D02*
X188260028Y-107989809D01*
X188736219Y-107751714D02*
X187736219Y-107751714D01*
X187736219Y-107751714D02*
X187736219Y-108132666D01*
X187736219Y-108132666D02*
X187783838Y-108227904D01*
X187783838Y-108227904D02*
X187831457Y-108275523D01*
X187831457Y-108275523D02*
X187926695Y-108323142D01*
X187926695Y-108323142D02*
X188069552Y-108323142D01*
X188069552Y-108323142D02*
X188164790Y-108275523D01*
X188164790Y-108275523D02*
X188212409Y-108227904D01*
X188212409Y-108227904D02*
X188260028Y-108132666D01*
X188260028Y-108132666D02*
X188260028Y-107751714D01*
X187736219Y-109180285D02*
X187736219Y-108989809D01*
X187736219Y-108989809D02*
X187783838Y-108894571D01*
X187783838Y-108894571D02*
X187831457Y-108846952D01*
X187831457Y-108846952D02*
X187974314Y-108751714D01*
X187974314Y-108751714D02*
X188164790Y-108704095D01*
X188164790Y-108704095D02*
X188545742Y-108704095D01*
X188545742Y-108704095D02*
X188640980Y-108751714D01*
X188640980Y-108751714D02*
X188688600Y-108799333D01*
X188688600Y-108799333D02*
X188736219Y-108894571D01*
X188736219Y-108894571D02*
X188736219Y-109085047D01*
X188736219Y-109085047D02*
X188688600Y-109180285D01*
X188688600Y-109180285D02*
X188640980Y-109227904D01*
X188640980Y-109227904D02*
X188545742Y-109275523D01*
X188545742Y-109275523D02*
X188307647Y-109275523D01*
X188307647Y-109275523D02*
X188212409Y-109227904D01*
X188212409Y-109227904D02*
X188164790Y-109180285D01*
X188164790Y-109180285D02*
X188117171Y-109085047D01*
X188117171Y-109085047D02*
X188117171Y-108894571D01*
X188117171Y-108894571D02*
X188164790Y-108799333D01*
X188164790Y-108799333D02*
X188212409Y-108751714D01*
X188212409Y-108751714D02*
X188307647Y-108704095D01*
X188164790Y-109846952D02*
X188117171Y-109751714D01*
X188117171Y-109751714D02*
X188069552Y-109704095D01*
X188069552Y-109704095D02*
X187974314Y-109656476D01*
X187974314Y-109656476D02*
X187926695Y-109656476D01*
X187926695Y-109656476D02*
X187831457Y-109704095D01*
X187831457Y-109704095D02*
X187783838Y-109751714D01*
X187783838Y-109751714D02*
X187736219Y-109846952D01*
X187736219Y-109846952D02*
X187736219Y-110037428D01*
X187736219Y-110037428D02*
X187783838Y-110132666D01*
X187783838Y-110132666D02*
X187831457Y-110180285D01*
X187831457Y-110180285D02*
X187926695Y-110227904D01*
X187926695Y-110227904D02*
X187974314Y-110227904D01*
X187974314Y-110227904D02*
X188069552Y-110180285D01*
X188069552Y-110180285D02*
X188117171Y-110132666D01*
X188117171Y-110132666D02*
X188164790Y-110037428D01*
X188164790Y-110037428D02*
X188164790Y-109846952D01*
X188164790Y-109846952D02*
X188212409Y-109751714D01*
X188212409Y-109751714D02*
X188260028Y-109704095D01*
X188260028Y-109704095D02*
X188355266Y-109656476D01*
X188355266Y-109656476D02*
X188545742Y-109656476D01*
X188545742Y-109656476D02*
X188640980Y-109704095D01*
X188640980Y-109704095D02*
X188688600Y-109751714D01*
X188688600Y-109751714D02*
X188736219Y-109846952D01*
X188736219Y-109846952D02*
X188736219Y-110037428D01*
X188736219Y-110037428D02*
X188688600Y-110132666D01*
X188688600Y-110132666D02*
X188640980Y-110180285D01*
X188640980Y-110180285D02*
X188545742Y-110227904D01*
X188545742Y-110227904D02*
X188355266Y-110227904D01*
X188355266Y-110227904D02*
X188260028Y-110180285D01*
X188260028Y-110180285D02*
X188212409Y-110132666D01*
X188212409Y-110132666D02*
X188164790Y-110037428D01*
%TO.C,R38*%
X177966619Y-134180342D02*
X177490428Y-133847009D01*
X177966619Y-133608914D02*
X176966619Y-133608914D01*
X176966619Y-133608914D02*
X176966619Y-133989866D01*
X176966619Y-133989866D02*
X177014238Y-134085104D01*
X177014238Y-134085104D02*
X177061857Y-134132723D01*
X177061857Y-134132723D02*
X177157095Y-134180342D01*
X177157095Y-134180342D02*
X177299952Y-134180342D01*
X177299952Y-134180342D02*
X177395190Y-134132723D01*
X177395190Y-134132723D02*
X177442809Y-134085104D01*
X177442809Y-134085104D02*
X177490428Y-133989866D01*
X177490428Y-133989866D02*
X177490428Y-133608914D01*
X176966619Y-134513676D02*
X176966619Y-135132723D01*
X176966619Y-135132723D02*
X177347571Y-134799390D01*
X177347571Y-134799390D02*
X177347571Y-134942247D01*
X177347571Y-134942247D02*
X177395190Y-135037485D01*
X177395190Y-135037485D02*
X177442809Y-135085104D01*
X177442809Y-135085104D02*
X177538047Y-135132723D01*
X177538047Y-135132723D02*
X177776142Y-135132723D01*
X177776142Y-135132723D02*
X177871380Y-135085104D01*
X177871380Y-135085104D02*
X177919000Y-135037485D01*
X177919000Y-135037485D02*
X177966619Y-134942247D01*
X177966619Y-134942247D02*
X177966619Y-134656533D01*
X177966619Y-134656533D02*
X177919000Y-134561295D01*
X177919000Y-134561295D02*
X177871380Y-134513676D01*
X177395190Y-135704152D02*
X177347571Y-135608914D01*
X177347571Y-135608914D02*
X177299952Y-135561295D01*
X177299952Y-135561295D02*
X177204714Y-135513676D01*
X177204714Y-135513676D02*
X177157095Y-135513676D01*
X177157095Y-135513676D02*
X177061857Y-135561295D01*
X177061857Y-135561295D02*
X177014238Y-135608914D01*
X177014238Y-135608914D02*
X176966619Y-135704152D01*
X176966619Y-135704152D02*
X176966619Y-135894628D01*
X176966619Y-135894628D02*
X177014238Y-135989866D01*
X177014238Y-135989866D02*
X177061857Y-136037485D01*
X177061857Y-136037485D02*
X177157095Y-136085104D01*
X177157095Y-136085104D02*
X177204714Y-136085104D01*
X177204714Y-136085104D02*
X177299952Y-136037485D01*
X177299952Y-136037485D02*
X177347571Y-135989866D01*
X177347571Y-135989866D02*
X177395190Y-135894628D01*
X177395190Y-135894628D02*
X177395190Y-135704152D01*
X177395190Y-135704152D02*
X177442809Y-135608914D01*
X177442809Y-135608914D02*
X177490428Y-135561295D01*
X177490428Y-135561295D02*
X177585666Y-135513676D01*
X177585666Y-135513676D02*
X177776142Y-135513676D01*
X177776142Y-135513676D02*
X177871380Y-135561295D01*
X177871380Y-135561295D02*
X177919000Y-135608914D01*
X177919000Y-135608914D02*
X177966619Y-135704152D01*
X177966619Y-135704152D02*
X177966619Y-135894628D01*
X177966619Y-135894628D02*
X177919000Y-135989866D01*
X177919000Y-135989866D02*
X177871380Y-136037485D01*
X177871380Y-136037485D02*
X177776142Y-136085104D01*
X177776142Y-136085104D02*
X177585666Y-136085104D01*
X177585666Y-136085104D02*
X177490428Y-136037485D01*
X177490428Y-136037485D02*
X177442809Y-135989866D01*
X177442809Y-135989866D02*
X177395190Y-135894628D01*
%TO.C,C9*%
X187137780Y-92289333D02*
X187185400Y-92241714D01*
X187185400Y-92241714D02*
X187233019Y-92098857D01*
X187233019Y-92098857D02*
X187233019Y-92003619D01*
X187233019Y-92003619D02*
X187185400Y-91860762D01*
X187185400Y-91860762D02*
X187090161Y-91765524D01*
X187090161Y-91765524D02*
X186994923Y-91717905D01*
X186994923Y-91717905D02*
X186804447Y-91670286D01*
X186804447Y-91670286D02*
X186661590Y-91670286D01*
X186661590Y-91670286D02*
X186471114Y-91717905D01*
X186471114Y-91717905D02*
X186375876Y-91765524D01*
X186375876Y-91765524D02*
X186280638Y-91860762D01*
X186280638Y-91860762D02*
X186233019Y-92003619D01*
X186233019Y-92003619D02*
X186233019Y-92098857D01*
X186233019Y-92098857D02*
X186280638Y-92241714D01*
X186280638Y-92241714D02*
X186328257Y-92289333D01*
X187233019Y-92765524D02*
X187233019Y-92956000D01*
X187233019Y-92956000D02*
X187185400Y-93051238D01*
X187185400Y-93051238D02*
X187137780Y-93098857D01*
X187137780Y-93098857D02*
X186994923Y-93194095D01*
X186994923Y-93194095D02*
X186804447Y-93241714D01*
X186804447Y-93241714D02*
X186423495Y-93241714D01*
X186423495Y-93241714D02*
X186328257Y-93194095D01*
X186328257Y-93194095D02*
X186280638Y-93146476D01*
X186280638Y-93146476D02*
X186233019Y-93051238D01*
X186233019Y-93051238D02*
X186233019Y-92860762D01*
X186233019Y-92860762D02*
X186280638Y-92765524D01*
X186280638Y-92765524D02*
X186328257Y-92717905D01*
X186328257Y-92717905D02*
X186423495Y-92670286D01*
X186423495Y-92670286D02*
X186661590Y-92670286D01*
X186661590Y-92670286D02*
X186756828Y-92717905D01*
X186756828Y-92717905D02*
X186804447Y-92765524D01*
X186804447Y-92765524D02*
X186852066Y-92860762D01*
X186852066Y-92860762D02*
X186852066Y-93051238D01*
X186852066Y-93051238D02*
X186804447Y-93146476D01*
X186804447Y-93146476D02*
X186756828Y-93194095D01*
X186756828Y-93194095D02*
X186661590Y-93241714D01*
%TO.C,R62*%
X186348619Y-108323142D02*
X185872428Y-107989809D01*
X186348619Y-107751714D02*
X185348619Y-107751714D01*
X185348619Y-107751714D02*
X185348619Y-108132666D01*
X185348619Y-108132666D02*
X185396238Y-108227904D01*
X185396238Y-108227904D02*
X185443857Y-108275523D01*
X185443857Y-108275523D02*
X185539095Y-108323142D01*
X185539095Y-108323142D02*
X185681952Y-108323142D01*
X185681952Y-108323142D02*
X185777190Y-108275523D01*
X185777190Y-108275523D02*
X185824809Y-108227904D01*
X185824809Y-108227904D02*
X185872428Y-108132666D01*
X185872428Y-108132666D02*
X185872428Y-107751714D01*
X185348619Y-109180285D02*
X185348619Y-108989809D01*
X185348619Y-108989809D02*
X185396238Y-108894571D01*
X185396238Y-108894571D02*
X185443857Y-108846952D01*
X185443857Y-108846952D02*
X185586714Y-108751714D01*
X185586714Y-108751714D02*
X185777190Y-108704095D01*
X185777190Y-108704095D02*
X186158142Y-108704095D01*
X186158142Y-108704095D02*
X186253380Y-108751714D01*
X186253380Y-108751714D02*
X186301000Y-108799333D01*
X186301000Y-108799333D02*
X186348619Y-108894571D01*
X186348619Y-108894571D02*
X186348619Y-109085047D01*
X186348619Y-109085047D02*
X186301000Y-109180285D01*
X186301000Y-109180285D02*
X186253380Y-109227904D01*
X186253380Y-109227904D02*
X186158142Y-109275523D01*
X186158142Y-109275523D02*
X185920047Y-109275523D01*
X185920047Y-109275523D02*
X185824809Y-109227904D01*
X185824809Y-109227904D02*
X185777190Y-109180285D01*
X185777190Y-109180285D02*
X185729571Y-109085047D01*
X185729571Y-109085047D02*
X185729571Y-108894571D01*
X185729571Y-108894571D02*
X185777190Y-108799333D01*
X185777190Y-108799333D02*
X185824809Y-108751714D01*
X185824809Y-108751714D02*
X185920047Y-108704095D01*
X185443857Y-109656476D02*
X185396238Y-109704095D01*
X185396238Y-109704095D02*
X185348619Y-109799333D01*
X185348619Y-109799333D02*
X185348619Y-110037428D01*
X185348619Y-110037428D02*
X185396238Y-110132666D01*
X185396238Y-110132666D02*
X185443857Y-110180285D01*
X185443857Y-110180285D02*
X185539095Y-110227904D01*
X185539095Y-110227904D02*
X185634333Y-110227904D01*
X185634333Y-110227904D02*
X185777190Y-110180285D01*
X185777190Y-110180285D02*
X186348619Y-109608857D01*
X186348619Y-109608857D02*
X186348619Y-110227904D01*
%TO.C,NOT_THINKY_TEMKO1*%
X204302380Y-56100619D02*
X204302380Y-55100619D01*
X204302380Y-55100619D02*
X203730952Y-56100619D01*
X203730952Y-56100619D02*
X203730952Y-55100619D01*
X203064285Y-55100619D02*
X202873809Y-55100619D01*
X202873809Y-55100619D02*
X202778571Y-55148238D01*
X202778571Y-55148238D02*
X202683333Y-55243476D01*
X202683333Y-55243476D02*
X202635714Y-55433952D01*
X202635714Y-55433952D02*
X202635714Y-55767285D01*
X202635714Y-55767285D02*
X202683333Y-55957761D01*
X202683333Y-55957761D02*
X202778571Y-56053000D01*
X202778571Y-56053000D02*
X202873809Y-56100619D01*
X202873809Y-56100619D02*
X203064285Y-56100619D01*
X203064285Y-56100619D02*
X203159523Y-56053000D01*
X203159523Y-56053000D02*
X203254761Y-55957761D01*
X203254761Y-55957761D02*
X203302380Y-55767285D01*
X203302380Y-55767285D02*
X203302380Y-55433952D01*
X203302380Y-55433952D02*
X203254761Y-55243476D01*
X203254761Y-55243476D02*
X203159523Y-55148238D01*
X203159523Y-55148238D02*
X203064285Y-55100619D01*
X202349999Y-55100619D02*
X201778571Y-55100619D01*
X202064285Y-56100619D02*
X202064285Y-55100619D01*
X201683333Y-56195857D02*
X200921428Y-56195857D01*
X200826189Y-55100619D02*
X200254761Y-55100619D01*
X200540475Y-56100619D02*
X200540475Y-55100619D01*
X199921427Y-56100619D02*
X199921427Y-55100619D01*
X199921427Y-55576809D02*
X199349999Y-55576809D01*
X199349999Y-56100619D02*
X199349999Y-55100619D01*
X198873808Y-56100619D02*
X198873808Y-55100619D01*
X198397618Y-56100619D02*
X198397618Y-55100619D01*
X198397618Y-55100619D02*
X197826190Y-56100619D01*
X197826190Y-56100619D02*
X197826190Y-55100619D01*
X197349999Y-56100619D02*
X197349999Y-55100619D01*
X196778571Y-56100619D02*
X197207142Y-55529190D01*
X196778571Y-55100619D02*
X197349999Y-55672047D01*
X196159523Y-55624428D02*
X196159523Y-56100619D01*
X196492856Y-55100619D02*
X196159523Y-55624428D01*
X196159523Y-55624428D02*
X195826190Y-55100619D01*
X195730952Y-56195857D02*
X194969047Y-56195857D01*
X194873808Y-55100619D02*
X194302380Y-55100619D01*
X194588094Y-56100619D02*
X194588094Y-55100619D01*
X193969046Y-55576809D02*
X193635713Y-55576809D01*
X193492856Y-56100619D02*
X193969046Y-56100619D01*
X193969046Y-56100619D02*
X193969046Y-55100619D01*
X193969046Y-55100619D02*
X193492856Y-55100619D01*
X193064284Y-56100619D02*
X193064284Y-55100619D01*
X193064284Y-55100619D02*
X192730951Y-55814904D01*
X192730951Y-55814904D02*
X192397618Y-55100619D01*
X192397618Y-55100619D02*
X192397618Y-56100619D01*
X191921427Y-56100619D02*
X191921427Y-55100619D01*
X191349999Y-56100619D02*
X191778570Y-55529190D01*
X191349999Y-55100619D02*
X191921427Y-55672047D01*
X190730951Y-55100619D02*
X190540475Y-55100619D01*
X190540475Y-55100619D02*
X190445237Y-55148238D01*
X190445237Y-55148238D02*
X190349999Y-55243476D01*
X190349999Y-55243476D02*
X190302380Y-55433952D01*
X190302380Y-55433952D02*
X190302380Y-55767285D01*
X190302380Y-55767285D02*
X190349999Y-55957761D01*
X190349999Y-55957761D02*
X190445237Y-56053000D01*
X190445237Y-56053000D02*
X190540475Y-56100619D01*
X190540475Y-56100619D02*
X190730951Y-56100619D01*
X190730951Y-56100619D02*
X190826189Y-56053000D01*
X190826189Y-56053000D02*
X190921427Y-55957761D01*
X190921427Y-55957761D02*
X190969046Y-55767285D01*
X190969046Y-55767285D02*
X190969046Y-55433952D01*
X190969046Y-55433952D02*
X190921427Y-55243476D01*
X190921427Y-55243476D02*
X190826189Y-55148238D01*
X190826189Y-55148238D02*
X190730951Y-55100619D01*
X189349999Y-56100619D02*
X189921427Y-56100619D01*
X189635713Y-56100619D02*
X189635713Y-55100619D01*
X189635713Y-55100619D02*
X189730951Y-55243476D01*
X189730951Y-55243476D02*
X189826189Y-55338714D01*
X189826189Y-55338714D02*
X189921427Y-55386333D01*
%TO.C,C3*%
X195519780Y-104328933D02*
X195567400Y-104281314D01*
X195567400Y-104281314D02*
X195615019Y-104138457D01*
X195615019Y-104138457D02*
X195615019Y-104043219D01*
X195615019Y-104043219D02*
X195567400Y-103900362D01*
X195567400Y-103900362D02*
X195472161Y-103805124D01*
X195472161Y-103805124D02*
X195376923Y-103757505D01*
X195376923Y-103757505D02*
X195186447Y-103709886D01*
X195186447Y-103709886D02*
X195043590Y-103709886D01*
X195043590Y-103709886D02*
X194853114Y-103757505D01*
X194853114Y-103757505D02*
X194757876Y-103805124D01*
X194757876Y-103805124D02*
X194662638Y-103900362D01*
X194662638Y-103900362D02*
X194615019Y-104043219D01*
X194615019Y-104043219D02*
X194615019Y-104138457D01*
X194615019Y-104138457D02*
X194662638Y-104281314D01*
X194662638Y-104281314D02*
X194710257Y-104328933D01*
X194615019Y-104662267D02*
X194615019Y-105281314D01*
X194615019Y-105281314D02*
X194995971Y-104947981D01*
X194995971Y-104947981D02*
X194995971Y-105090838D01*
X194995971Y-105090838D02*
X195043590Y-105186076D01*
X195043590Y-105186076D02*
X195091209Y-105233695D01*
X195091209Y-105233695D02*
X195186447Y-105281314D01*
X195186447Y-105281314D02*
X195424542Y-105281314D01*
X195424542Y-105281314D02*
X195519780Y-105233695D01*
X195519780Y-105233695D02*
X195567400Y-105186076D01*
X195567400Y-105186076D02*
X195615019Y-105090838D01*
X195615019Y-105090838D02*
X195615019Y-104805124D01*
X195615019Y-104805124D02*
X195567400Y-104709886D01*
X195567400Y-104709886D02*
X195519780Y-104662267D01*
%TO.C,R66*%
X199183419Y-108678742D02*
X198707228Y-108345409D01*
X199183419Y-108107314D02*
X198183419Y-108107314D01*
X198183419Y-108107314D02*
X198183419Y-108488266D01*
X198183419Y-108488266D02*
X198231038Y-108583504D01*
X198231038Y-108583504D02*
X198278657Y-108631123D01*
X198278657Y-108631123D02*
X198373895Y-108678742D01*
X198373895Y-108678742D02*
X198516752Y-108678742D01*
X198516752Y-108678742D02*
X198611990Y-108631123D01*
X198611990Y-108631123D02*
X198659609Y-108583504D01*
X198659609Y-108583504D02*
X198707228Y-108488266D01*
X198707228Y-108488266D02*
X198707228Y-108107314D01*
X198183419Y-109535885D02*
X198183419Y-109345409D01*
X198183419Y-109345409D02*
X198231038Y-109250171D01*
X198231038Y-109250171D02*
X198278657Y-109202552D01*
X198278657Y-109202552D02*
X198421514Y-109107314D01*
X198421514Y-109107314D02*
X198611990Y-109059695D01*
X198611990Y-109059695D02*
X198992942Y-109059695D01*
X198992942Y-109059695D02*
X199088180Y-109107314D01*
X199088180Y-109107314D02*
X199135800Y-109154933D01*
X199135800Y-109154933D02*
X199183419Y-109250171D01*
X199183419Y-109250171D02*
X199183419Y-109440647D01*
X199183419Y-109440647D02*
X199135800Y-109535885D01*
X199135800Y-109535885D02*
X199088180Y-109583504D01*
X199088180Y-109583504D02*
X198992942Y-109631123D01*
X198992942Y-109631123D02*
X198754847Y-109631123D01*
X198754847Y-109631123D02*
X198659609Y-109583504D01*
X198659609Y-109583504D02*
X198611990Y-109535885D01*
X198611990Y-109535885D02*
X198564371Y-109440647D01*
X198564371Y-109440647D02*
X198564371Y-109250171D01*
X198564371Y-109250171D02*
X198611990Y-109154933D01*
X198611990Y-109154933D02*
X198659609Y-109107314D01*
X198659609Y-109107314D02*
X198754847Y-109059695D01*
X198183419Y-110488266D02*
X198183419Y-110297790D01*
X198183419Y-110297790D02*
X198231038Y-110202552D01*
X198231038Y-110202552D02*
X198278657Y-110154933D01*
X198278657Y-110154933D02*
X198421514Y-110059695D01*
X198421514Y-110059695D02*
X198611990Y-110012076D01*
X198611990Y-110012076D02*
X198992942Y-110012076D01*
X198992942Y-110012076D02*
X199088180Y-110059695D01*
X199088180Y-110059695D02*
X199135800Y-110107314D01*
X199135800Y-110107314D02*
X199183419Y-110202552D01*
X199183419Y-110202552D02*
X199183419Y-110393028D01*
X199183419Y-110393028D02*
X199135800Y-110488266D01*
X199135800Y-110488266D02*
X199088180Y-110535885D01*
X199088180Y-110535885D02*
X198992942Y-110583504D01*
X198992942Y-110583504D02*
X198754847Y-110583504D01*
X198754847Y-110583504D02*
X198659609Y-110535885D01*
X198659609Y-110535885D02*
X198611990Y-110488266D01*
X198611990Y-110488266D02*
X198564371Y-110393028D01*
X198564371Y-110393028D02*
X198564371Y-110202552D01*
X198564371Y-110202552D02*
X198611990Y-110107314D01*
X198611990Y-110107314D02*
X198659609Y-110059695D01*
X198659609Y-110059695D02*
X198754847Y-110012076D01*
%TO.C,R1*%
X199183419Y-93965733D02*
X198707228Y-93632400D01*
X199183419Y-93394305D02*
X198183419Y-93394305D01*
X198183419Y-93394305D02*
X198183419Y-93775257D01*
X198183419Y-93775257D02*
X198231038Y-93870495D01*
X198231038Y-93870495D02*
X198278657Y-93918114D01*
X198278657Y-93918114D02*
X198373895Y-93965733D01*
X198373895Y-93965733D02*
X198516752Y-93965733D01*
X198516752Y-93965733D02*
X198611990Y-93918114D01*
X198611990Y-93918114D02*
X198659609Y-93870495D01*
X198659609Y-93870495D02*
X198707228Y-93775257D01*
X198707228Y-93775257D02*
X198707228Y-93394305D01*
X199183419Y-94918114D02*
X199183419Y-94346686D01*
X199183419Y-94632400D02*
X198183419Y-94632400D01*
X198183419Y-94632400D02*
X198326276Y-94537162D01*
X198326276Y-94537162D02*
X198421514Y-94441924D01*
X198421514Y-94441924D02*
X198469133Y-94346686D01*
%TO.C,R50*%
X186399419Y-64736742D02*
X185923228Y-64403409D01*
X186399419Y-64165314D02*
X185399419Y-64165314D01*
X185399419Y-64165314D02*
X185399419Y-64546266D01*
X185399419Y-64546266D02*
X185447038Y-64641504D01*
X185447038Y-64641504D02*
X185494657Y-64689123D01*
X185494657Y-64689123D02*
X185589895Y-64736742D01*
X185589895Y-64736742D02*
X185732752Y-64736742D01*
X185732752Y-64736742D02*
X185827990Y-64689123D01*
X185827990Y-64689123D02*
X185875609Y-64641504D01*
X185875609Y-64641504D02*
X185923228Y-64546266D01*
X185923228Y-64546266D02*
X185923228Y-64165314D01*
X185399419Y-65641504D02*
X185399419Y-65165314D01*
X185399419Y-65165314D02*
X185875609Y-65117695D01*
X185875609Y-65117695D02*
X185827990Y-65165314D01*
X185827990Y-65165314D02*
X185780371Y-65260552D01*
X185780371Y-65260552D02*
X185780371Y-65498647D01*
X185780371Y-65498647D02*
X185827990Y-65593885D01*
X185827990Y-65593885D02*
X185875609Y-65641504D01*
X185875609Y-65641504D02*
X185970847Y-65689123D01*
X185970847Y-65689123D02*
X186208942Y-65689123D01*
X186208942Y-65689123D02*
X186304180Y-65641504D01*
X186304180Y-65641504D02*
X186351800Y-65593885D01*
X186351800Y-65593885D02*
X186399419Y-65498647D01*
X186399419Y-65498647D02*
X186399419Y-65260552D01*
X186399419Y-65260552D02*
X186351800Y-65165314D01*
X186351800Y-65165314D02*
X186304180Y-65117695D01*
X185399419Y-66308171D02*
X185399419Y-66403409D01*
X185399419Y-66403409D02*
X185447038Y-66498647D01*
X185447038Y-66498647D02*
X185494657Y-66546266D01*
X185494657Y-66546266D02*
X185589895Y-66593885D01*
X185589895Y-66593885D02*
X185780371Y-66641504D01*
X185780371Y-66641504D02*
X186018466Y-66641504D01*
X186018466Y-66641504D02*
X186208942Y-66593885D01*
X186208942Y-66593885D02*
X186304180Y-66546266D01*
X186304180Y-66546266D02*
X186351800Y-66498647D01*
X186351800Y-66498647D02*
X186399419Y-66403409D01*
X186399419Y-66403409D02*
X186399419Y-66308171D01*
X186399419Y-66308171D02*
X186351800Y-66212933D01*
X186351800Y-66212933D02*
X186304180Y-66165314D01*
X186304180Y-66165314D02*
X186208942Y-66117695D01*
X186208942Y-66117695D02*
X186018466Y-66070076D01*
X186018466Y-66070076D02*
X185780371Y-66070076D01*
X185780371Y-66070076D02*
X185589895Y-66117695D01*
X185589895Y-66117695D02*
X185494657Y-66165314D01*
X185494657Y-66165314D02*
X185447038Y-66212933D01*
X185447038Y-66212933D02*
X185399419Y-66308171D01*
%TO.C,PolyStirene!C11*%
X194277666Y-136412619D02*
X194277666Y-135412619D01*
X194277666Y-135412619D02*
X193896714Y-135412619D01*
X193896714Y-135412619D02*
X193801476Y-135460238D01*
X193801476Y-135460238D02*
X193753857Y-135507857D01*
X193753857Y-135507857D02*
X193706238Y-135603095D01*
X193706238Y-135603095D02*
X193706238Y-135745952D01*
X193706238Y-135745952D02*
X193753857Y-135841190D01*
X193753857Y-135841190D02*
X193801476Y-135888809D01*
X193801476Y-135888809D02*
X193896714Y-135936428D01*
X193896714Y-135936428D02*
X194277666Y-135936428D01*
X193134809Y-136412619D02*
X193230047Y-136365000D01*
X193230047Y-136365000D02*
X193277666Y-136317380D01*
X193277666Y-136317380D02*
X193325285Y-136222142D01*
X193325285Y-136222142D02*
X193325285Y-135936428D01*
X193325285Y-135936428D02*
X193277666Y-135841190D01*
X193277666Y-135841190D02*
X193230047Y-135793571D01*
X193230047Y-135793571D02*
X193134809Y-135745952D01*
X193134809Y-135745952D02*
X192991952Y-135745952D01*
X192991952Y-135745952D02*
X192896714Y-135793571D01*
X192896714Y-135793571D02*
X192849095Y-135841190D01*
X192849095Y-135841190D02*
X192801476Y-135936428D01*
X192801476Y-135936428D02*
X192801476Y-136222142D01*
X192801476Y-136222142D02*
X192849095Y-136317380D01*
X192849095Y-136317380D02*
X192896714Y-136365000D01*
X192896714Y-136365000D02*
X192991952Y-136412619D01*
X192991952Y-136412619D02*
X193134809Y-136412619D01*
X192230047Y-136412619D02*
X192325285Y-136365000D01*
X192325285Y-136365000D02*
X192372904Y-136269761D01*
X192372904Y-136269761D02*
X192372904Y-135412619D01*
X191944332Y-135745952D02*
X191706237Y-136412619D01*
X191468142Y-135745952D02*
X191706237Y-136412619D01*
X191706237Y-136412619D02*
X191801475Y-136650714D01*
X191801475Y-136650714D02*
X191849094Y-136698333D01*
X191849094Y-136698333D02*
X191944332Y-136745952D01*
X191134808Y-136365000D02*
X190991951Y-136412619D01*
X190991951Y-136412619D02*
X190753856Y-136412619D01*
X190753856Y-136412619D02*
X190658618Y-136365000D01*
X190658618Y-136365000D02*
X190610999Y-136317380D01*
X190610999Y-136317380D02*
X190563380Y-136222142D01*
X190563380Y-136222142D02*
X190563380Y-136126904D01*
X190563380Y-136126904D02*
X190610999Y-136031666D01*
X190610999Y-136031666D02*
X190658618Y-135984047D01*
X190658618Y-135984047D02*
X190753856Y-135936428D01*
X190753856Y-135936428D02*
X190944332Y-135888809D01*
X190944332Y-135888809D02*
X191039570Y-135841190D01*
X191039570Y-135841190D02*
X191087189Y-135793571D01*
X191087189Y-135793571D02*
X191134808Y-135698333D01*
X191134808Y-135698333D02*
X191134808Y-135603095D01*
X191134808Y-135603095D02*
X191087189Y-135507857D01*
X191087189Y-135507857D02*
X191039570Y-135460238D01*
X191039570Y-135460238D02*
X190944332Y-135412619D01*
X190944332Y-135412619D02*
X190706237Y-135412619D01*
X190706237Y-135412619D02*
X190563380Y-135460238D01*
X190277665Y-135745952D02*
X189896713Y-135745952D01*
X190134808Y-135412619D02*
X190134808Y-136269761D01*
X190134808Y-136269761D02*
X190087189Y-136365000D01*
X190087189Y-136365000D02*
X189991951Y-136412619D01*
X189991951Y-136412619D02*
X189896713Y-136412619D01*
X189563379Y-136412619D02*
X189563379Y-135745952D01*
X189563379Y-135412619D02*
X189610998Y-135460238D01*
X189610998Y-135460238D02*
X189563379Y-135507857D01*
X189563379Y-135507857D02*
X189515760Y-135460238D01*
X189515760Y-135460238D02*
X189563379Y-135412619D01*
X189563379Y-135412619D02*
X189563379Y-135507857D01*
X189087189Y-136412619D02*
X189087189Y-135745952D01*
X189087189Y-135936428D02*
X189039570Y-135841190D01*
X189039570Y-135841190D02*
X188991951Y-135793571D01*
X188991951Y-135793571D02*
X188896713Y-135745952D01*
X188896713Y-135745952D02*
X188801475Y-135745952D01*
X188087189Y-136365000D02*
X188182427Y-136412619D01*
X188182427Y-136412619D02*
X188372903Y-136412619D01*
X188372903Y-136412619D02*
X188468141Y-136365000D01*
X188468141Y-136365000D02*
X188515760Y-136269761D01*
X188515760Y-136269761D02*
X188515760Y-135888809D01*
X188515760Y-135888809D02*
X188468141Y-135793571D01*
X188468141Y-135793571D02*
X188372903Y-135745952D01*
X188372903Y-135745952D02*
X188182427Y-135745952D01*
X188182427Y-135745952D02*
X188087189Y-135793571D01*
X188087189Y-135793571D02*
X188039570Y-135888809D01*
X188039570Y-135888809D02*
X188039570Y-135984047D01*
X188039570Y-135984047D02*
X188515760Y-136079285D01*
X187610998Y-135745952D02*
X187610998Y-136412619D01*
X187610998Y-135841190D02*
X187563379Y-135793571D01*
X187563379Y-135793571D02*
X187468141Y-135745952D01*
X187468141Y-135745952D02*
X187325284Y-135745952D01*
X187325284Y-135745952D02*
X187230046Y-135793571D01*
X187230046Y-135793571D02*
X187182427Y-135888809D01*
X187182427Y-135888809D02*
X187182427Y-136412619D01*
X186325284Y-136365000D02*
X186420522Y-136412619D01*
X186420522Y-136412619D02*
X186610998Y-136412619D01*
X186610998Y-136412619D02*
X186706236Y-136365000D01*
X186706236Y-136365000D02*
X186753855Y-136269761D01*
X186753855Y-136269761D02*
X186753855Y-135888809D01*
X186753855Y-135888809D02*
X186706236Y-135793571D01*
X186706236Y-135793571D02*
X186610998Y-135745952D01*
X186610998Y-135745952D02*
X186420522Y-135745952D01*
X186420522Y-135745952D02*
X186325284Y-135793571D01*
X186325284Y-135793571D02*
X186277665Y-135888809D01*
X186277665Y-135888809D02*
X186277665Y-135984047D01*
X186277665Y-135984047D02*
X186753855Y-136079285D01*
X185849093Y-136317380D02*
X185801474Y-136365000D01*
X185801474Y-136365000D02*
X185849093Y-136412619D01*
X185849093Y-136412619D02*
X185896712Y-136365000D01*
X185896712Y-136365000D02*
X185849093Y-136317380D01*
X185849093Y-136317380D02*
X185849093Y-136412619D01*
X185849093Y-136031666D02*
X185896712Y-135460238D01*
X185896712Y-135460238D02*
X185849093Y-135412619D01*
X185849093Y-135412619D02*
X185801474Y-135460238D01*
X185801474Y-135460238D02*
X185849093Y-136031666D01*
X185849093Y-136031666D02*
X185849093Y-135412619D01*
X184801475Y-136317380D02*
X184849094Y-136365000D01*
X184849094Y-136365000D02*
X184991951Y-136412619D01*
X184991951Y-136412619D02*
X185087189Y-136412619D01*
X185087189Y-136412619D02*
X185230046Y-136365000D01*
X185230046Y-136365000D02*
X185325284Y-136269761D01*
X185325284Y-136269761D02*
X185372903Y-136174523D01*
X185372903Y-136174523D02*
X185420522Y-135984047D01*
X185420522Y-135984047D02*
X185420522Y-135841190D01*
X185420522Y-135841190D02*
X185372903Y-135650714D01*
X185372903Y-135650714D02*
X185325284Y-135555476D01*
X185325284Y-135555476D02*
X185230046Y-135460238D01*
X185230046Y-135460238D02*
X185087189Y-135412619D01*
X185087189Y-135412619D02*
X184991951Y-135412619D01*
X184991951Y-135412619D02*
X184849094Y-135460238D01*
X184849094Y-135460238D02*
X184801475Y-135507857D01*
X183849094Y-136412619D02*
X184420522Y-136412619D01*
X184134808Y-136412619D02*
X184134808Y-135412619D01*
X184134808Y-135412619D02*
X184230046Y-135555476D01*
X184230046Y-135555476D02*
X184325284Y-135650714D01*
X184325284Y-135650714D02*
X184420522Y-135698333D01*
X182896713Y-136412619D02*
X183468141Y-136412619D01*
X183182427Y-136412619D02*
X183182427Y-135412619D01*
X183182427Y-135412619D02*
X183277665Y-135555476D01*
X183277665Y-135555476D02*
X183372903Y-135650714D01*
X183372903Y-135650714D02*
X183468141Y-135698333D01*
D11*
%TO.C,R46*%
X190280936Y-133583000D02*
X191735064Y-133583000D01*
X190280936Y-135403000D02*
X191735064Y-135403000D01*
%TO.C,C1*%
X189484052Y-99055600D02*
X188061548Y-99055600D01*
X189484052Y-97235600D02*
X188061548Y-97235600D01*
%TO.C,NOT_THOONKY_SineBiasTrim1*%
X181731000Y-79606000D02*
X177990000Y-79606000D01*
X181731000Y-77366000D02*
X181731000Y-79606000D01*
X181731000Y-77366000D02*
X177990000Y-77366000D01*
X181731000Y-77052000D02*
X181731000Y-79921000D01*
X180685000Y-81756000D02*
X177990000Y-81756000D01*
X180685000Y-75216000D02*
X177990000Y-75216000D01*
X177990000Y-77366000D02*
X177990000Y-79606000D01*
X177990000Y-75216000D02*
X177990000Y-81756000D01*
%TO.C,R60*%
X178210800Y-104917864D02*
X178210800Y-103463736D01*
X180030800Y-104917864D02*
X180030800Y-103463736D01*
%TO.C,NOT_THONKY_HF_TRACK1*%
X181786000Y-46332000D02*
X178045000Y-46332000D01*
X181786000Y-44092000D02*
X181786000Y-46332000D01*
X181786000Y-44092000D02*
X178045000Y-44092000D01*
X181786000Y-43778000D02*
X181786000Y-46647000D01*
X180740000Y-48482000D02*
X178045000Y-48482000D01*
X180740000Y-41942000D02*
X178045000Y-41942000D01*
X178045000Y-44092000D02*
X178045000Y-46332000D01*
X178045000Y-41942000D02*
X178045000Y-48482000D01*
%TO.C,R69*%
X195990800Y-100549064D02*
X195990800Y-99094936D01*
X197810800Y-100549064D02*
X197810800Y-99094936D01*
%TO.C,R6*%
X188401336Y-60456400D02*
X189855464Y-60456400D01*
X188401336Y-62276400D02*
X189855464Y-62276400D01*
%TO.C,R55*%
X180132400Y-83753336D02*
X180132400Y-85207464D01*
X178312400Y-83753336D02*
X178312400Y-85207464D01*
%TO.C,R34*%
X189874536Y-69397200D02*
X191328664Y-69397200D01*
X189874536Y-71217200D02*
X191328664Y-71217200D01*
%TO.C,R4*%
X197810800Y-140852536D02*
X197810800Y-142306664D01*
X195990800Y-140852536D02*
X195990800Y-142306664D01*
%TO.C,R58*%
X178210800Y-109642264D02*
X178210800Y-108188136D01*
X180030800Y-109642264D02*
X180030800Y-108188136D01*
%TO.C,R11*%
X189550664Y-103932400D02*
X188096536Y-103932400D01*
X189550664Y-102112400D02*
X188096536Y-102112400D01*
%TO.C,R25*%
X186736400Y-91678136D02*
X186736400Y-93132264D01*
X184916400Y-91678136D02*
X184916400Y-93132264D01*
%TO.C,R48*%
X180132400Y-98739336D02*
X180132400Y-100193464D01*
X178312400Y-98739336D02*
X178312400Y-100193464D01*
%TO.C,R37*%
X197861600Y-88731736D02*
X197861600Y-90185864D01*
X196041600Y-88731736D02*
X196041600Y-90185864D01*
%TO.C,R16*%
X186013736Y-55071600D02*
X187467864Y-55071600D01*
X186013736Y-56891600D02*
X187467864Y-56891600D01*
%TO.C,U4*%
X190390000Y-111700000D02*
X195690000Y-111700000D01*
X190390000Y-129600000D02*
X190390000Y-111700000D01*
X192040000Y-129600000D02*
X190390000Y-129600000D01*
X195690000Y-111700000D02*
X195690000Y-129600000D01*
X195690000Y-129600000D02*
X194040000Y-129600000D01*
X194040000Y-129600000D02*
G75*
G03*
X192040000Y-129600000I-1000000J0D01*
G01*
%TO.C,R10*%
X197760000Y-83854936D02*
X197760000Y-85309064D01*
X195940000Y-83854936D02*
X195940000Y-85309064D01*
%TO.C,R20*%
X186279200Y-86902936D02*
X186279200Y-88357064D01*
X184459200Y-86902936D02*
X184459200Y-88357064D01*
%TO.C,R67*%
X195940000Y-132908664D02*
X195940000Y-131454536D01*
X197760000Y-132908664D02*
X197760000Y-131454536D01*
%TO.C,U1*%
X192893000Y-78297000D02*
X192893000Y-76347000D01*
X192893000Y-78297000D02*
X192893000Y-80247000D01*
X182773000Y-78297000D02*
X182773000Y-74847000D01*
X182773000Y-78297000D02*
X182773000Y-80247000D01*
%TO.C,R9*%
X187295200Y-134146936D02*
X187295200Y-135601064D01*
X185475200Y-134146936D02*
X185475200Y-135601064D01*
%TO.C,R26*%
X196041600Y-137633064D02*
X196041600Y-136178936D01*
X197861600Y-137633064D02*
X197861600Y-136178936D01*
%TO.C,R64*%
X188147336Y-104550800D02*
X189601464Y-104550800D01*
X188147336Y-106370800D02*
X189601464Y-106370800D01*
%TO.C,R19*%
X180132400Y-138972936D02*
X180132400Y-140427064D01*
X178312400Y-138972936D02*
X178312400Y-140427064D01*
%TO.C,R3*%
X191206800Y-84261336D02*
X191206800Y-85715464D01*
X189386800Y-84261336D02*
X189386800Y-85715464D01*
%TO.C,NOT_THINK_SineLevelTrim1*%
X197026000Y-79606000D02*
X193285000Y-79606000D01*
X197026000Y-77366000D02*
X197026000Y-79606000D01*
X197026000Y-77366000D02*
X193285000Y-77366000D01*
X197026000Y-77052000D02*
X197026000Y-79921000D01*
X195980000Y-81756000D02*
X193285000Y-81756000D01*
X195980000Y-75216000D02*
X193285000Y-75216000D01*
X193285000Y-77366000D02*
X193285000Y-79606000D01*
X193285000Y-75216000D02*
X193285000Y-81756000D01*
%TO.C,R54*%
X179980000Y-66746036D02*
X179980000Y-68200164D01*
X178160000Y-66746036D02*
X178160000Y-68200164D01*
%TO.C,R7*%
X189703064Y-89657600D02*
X188248936Y-89657600D01*
X189703064Y-87837600D02*
X188248936Y-87837600D01*
%TO.C,R2*%
X190190800Y-39303336D02*
X190190800Y-40757464D01*
X188370800Y-39303336D02*
X188370800Y-40757464D01*
%TO.C,R8*%
X186267736Y-45724400D02*
X187721864Y-45724400D01*
X186267736Y-47544400D02*
X187721864Y-47544400D01*
%TO.C,SW1*%
X197083400Y-72341600D02*
X193342400Y-72341600D01*
X197083400Y-70101600D02*
X197083400Y-72341600D01*
X197083400Y-70101600D02*
X193342400Y-70101600D01*
X197083400Y-69787600D02*
X197083400Y-72656600D01*
X196037400Y-74491600D02*
X193342400Y-74491600D01*
X196037400Y-67951600D02*
X193342400Y-67951600D01*
X193342400Y-70101600D02*
X193342400Y-72341600D01*
X193342400Y-67951600D02*
X193342400Y-74491600D01*
%TO.C,NOT_THONKY_SineShapeTrim1*%
X181731000Y-60048000D02*
X177990000Y-60048000D01*
X181731000Y-57808000D02*
X181731000Y-60048000D01*
X181731000Y-57808000D02*
X177990000Y-57808000D01*
X181731000Y-57494000D02*
X181731000Y-60363000D01*
X180685000Y-62198000D02*
X177990000Y-62198000D01*
X180685000Y-55658000D02*
X177990000Y-55658000D01*
X177990000Y-57808000D02*
X177990000Y-60048000D01*
X177990000Y-55658000D02*
X177990000Y-62198000D01*
%TO.C,R24*%
X183840800Y-86902936D02*
X183840800Y-88357064D01*
X182020800Y-86902936D02*
X182020800Y-88357064D01*
%TO.C,C2*%
X178414000Y-95097652D02*
X178414000Y-93675148D01*
X180234000Y-95097652D02*
X180234000Y-93675148D01*
%TO.C,R17*%
X193654000Y-134458064D02*
X193654000Y-133003936D01*
X195474000Y-134458064D02*
X195474000Y-133003936D01*
%TO.C,R12*%
X188045736Y-99674000D02*
X189499864Y-99674000D01*
X188045736Y-101494000D02*
X189499864Y-101494000D01*
%TO.C,J11*%
X181545000Y-148015000D02*
X181545000Y-142815000D01*
X191765000Y-148015000D02*
X181545000Y-148015000D01*
X191765000Y-148015000D02*
X191765000Y-145415000D01*
X193035000Y-148015000D02*
X194365000Y-148015000D01*
X194365000Y-148015000D02*
X194365000Y-146685000D01*
X191765000Y-145415000D02*
X194365000Y-145415000D01*
X194365000Y-145415000D02*
X194365000Y-142815000D01*
X194365000Y-142815000D02*
X181545000Y-142815000D01*
%TO.C,C7*%
X183993200Y-102260348D02*
X183993200Y-103682852D01*
X182173200Y-102260348D02*
X182173200Y-103682852D01*
%TO.C,R51*%
X179827600Y-71561336D02*
X179827600Y-73015464D01*
X178007600Y-71561336D02*
X178007600Y-73015464D01*
%TO.C,R36*%
X186451864Y-71217200D02*
X184997736Y-71217200D01*
X186451864Y-69397200D02*
X184997736Y-69397200D01*
%TO.C,U2*%
X180484000Y-111700000D02*
X185784000Y-111700000D01*
X180484000Y-132140000D02*
X180484000Y-111700000D01*
X182134000Y-132140000D02*
X180484000Y-132140000D01*
X185784000Y-111700000D02*
X185784000Y-132140000D01*
X185784000Y-132140000D02*
X184134000Y-132140000D01*
X184134000Y-132140000D02*
G75*
G03*
X182134000Y-132140000I-1000000J0D01*
G01*
%TO.C,R40*%
X190280936Y-131170000D02*
X191735064Y-131170000D01*
X190280936Y-132990000D02*
X191735064Y-132990000D01*
%TO.C,R5*%
X195990800Y-52187464D02*
X195990800Y-50733336D01*
X197810800Y-52187464D02*
X197810800Y-50733336D01*
%TO.C,NOT+THINKY_CV1*%
X197026000Y-46586000D02*
X193285000Y-46586000D01*
X197026000Y-44346000D02*
X197026000Y-46586000D01*
X197026000Y-44346000D02*
X193285000Y-44346000D01*
X197026000Y-44032000D02*
X197026000Y-46901000D01*
X195980000Y-48736000D02*
X193285000Y-48736000D01*
X195980000Y-42196000D02*
X193285000Y-42196000D01*
X193285000Y-44346000D02*
X193285000Y-46586000D01*
X193285000Y-42196000D02*
X193285000Y-48736000D01*
%TO.C,R39*%
X183556264Y-134564800D02*
X182102136Y-134564800D01*
X183556264Y-132744800D02*
X182102136Y-132744800D01*
%TO.C,R68*%
X191003600Y-108238936D02*
X191003600Y-109693064D01*
X189183600Y-108238936D02*
X189183600Y-109693064D01*
%TO.C,R38*%
X180234000Y-134096136D02*
X180234000Y-135550264D01*
X178414000Y-134096136D02*
X178414000Y-135550264D01*
%TO.C,C9*%
X189530400Y-91744748D02*
X189530400Y-93167252D01*
X187710400Y-91744748D02*
X187710400Y-93167252D01*
%TO.C,R62*%
X188616000Y-108238936D02*
X188616000Y-109693064D01*
X186796000Y-108238936D02*
X186796000Y-109693064D01*
%TO.C,NOT_THINKY_TEMKO1*%
X196971000Y-61318000D02*
X193230000Y-61318000D01*
X196971000Y-59078000D02*
X196971000Y-61318000D01*
X196971000Y-59078000D02*
X193230000Y-59078000D01*
X196971000Y-58764000D02*
X196971000Y-61633000D01*
X195925000Y-63468000D02*
X193230000Y-63468000D01*
X195925000Y-56928000D02*
X193230000Y-56928000D01*
X193230000Y-59078000D02*
X193230000Y-61318000D01*
X193230000Y-56928000D02*
X193230000Y-63468000D01*
%TO.C,C3*%
X197912400Y-103784348D02*
X197912400Y-105206852D01*
X196092400Y-103784348D02*
X196092400Y-105206852D01*
%TO.C,R66*%
X195990800Y-110048664D02*
X195990800Y-108594536D01*
X197810800Y-110048664D02*
X197810800Y-108594536D01*
%TO.C,R1*%
X195990800Y-94859464D02*
X195990800Y-93405336D01*
X197810800Y-94859464D02*
X197810800Y-93405336D01*
%TO.C,R50*%
X188666800Y-64652536D02*
X188666800Y-66106664D01*
X186846800Y-64652536D02*
X186846800Y-66106664D01*
%TO.C,PolyStirene!C11*%
X191231000Y-139700000D02*
G75*
G03*
X191231000Y-139700000I-2620000J0D01*
G01*
%TD*%
M02*
