%TF.GenerationSoftware,KiCad,Pcbnew,7.0.2*%
%TF.CreationDate,2023-06-20T09:22:34-04:00*%
%TF.ProjectId,Power supply,506f7765-7220-4737-9570-706c792e6b69,rev?*%
%TF.SameCoordinates,Original*%
%TF.FileFunction,Soldermask,Top*%
%TF.FilePolarity,Negative*%
%FSLAX46Y46*%
G04 Gerber Fmt 4.6, Leading zero omitted, Abs format (unit mm)*
G04 Created by KiCad (PCBNEW 7.0.2) date 2023-06-20 09:22:34*
%MOMM*%
%LPD*%
G01*
G04 APERTURE LIST*
%ADD10R,1.700000X1.700000*%
%ADD11R,2.200000X2.200000*%
%ADD12O,2.200000X2.200000*%
%ADD13R,2.400000X2.400000*%
%ADD14C,2.400000*%
%ADD15R,1.905000X2.000000*%
%ADD16O,1.905000X2.000000*%
%ADD17C,1.700000*%
%ADD18O,1.700000X1.700000*%
%ADD19R,1.600000X1.600000*%
%ADD20C,1.600000*%
%ADD21C,2.600000*%
%ADD22C,3.800000*%
%ADD23R,2.000000X4.000000*%
%ADD24O,2.000000X3.300000*%
G04 APERTURE END LIST*
D10*
%TO.C,J5*%
X78740000Y-104140000D03*
%TD*%
D11*
%TO.C,D6*%
X157480000Y-99060000D03*
D12*
X147320000Y-99060000D03*
%TD*%
D13*
%TO.C,C5*%
X101600000Y-83940000D03*
D14*
X101600000Y-91440000D03*
%TD*%
D15*
%TO.C,U1*%
X149860000Y-82550000D03*
D16*
X152400000Y-82550000D03*
X154940000Y-82550000D03*
%TD*%
D11*
%TO.C,D2*%
X93345000Y-80645000D03*
D12*
X83185000Y-80645000D03*
%TD*%
D11*
%TO.C,D4*%
X83185000Y-112395000D03*
D12*
X93345000Y-112395000D03*
%TD*%
D15*
%TO.C,U2*%
X154940000Y-110815000D03*
D16*
X152400000Y-110815000D03*
X149860000Y-110815000D03*
%TD*%
D11*
%TO.C,D5*%
X165100000Y-101600000D03*
D12*
X165100000Y-111760000D03*
%TD*%
D17*
%TO.C,REF\u002A\u002A*%
X172720000Y-91440000D03*
D18*
X170180000Y-91440000D03*
X172720000Y-93980000D03*
X170180000Y-93980000D03*
X172720000Y-96520000D03*
X170180000Y-96520000D03*
X172720000Y-99060000D03*
X170180000Y-99060000D03*
X172720000Y-101600000D03*
X170180000Y-101600000D03*
%TD*%
D19*
%TO.C,C10*%
X155060000Y-104775000D03*
D20*
X160060000Y-104775000D03*
%TD*%
D13*
%TO.C,C3*%
X137160000Y-83940000D03*
D14*
X137160000Y-91440000D03*
%TD*%
D21*
%TO.C,REF\u002A\u002A*%
X78740000Y-111760000D03*
D22*
X78740000Y-111760000D03*
%TD*%
D13*
%TO.C,C7*%
X119380000Y-101720000D03*
D14*
X119380000Y-109220000D03*
%TD*%
D13*
%TO.C,C8*%
X137160000Y-101720000D03*
D14*
X137160000Y-109220000D03*
%TD*%
D19*
%TO.C,C9*%
X152360000Y-104775000D03*
D20*
X147360000Y-104775000D03*
%TD*%
D13*
%TO.C,C4*%
X119610000Y-83940000D03*
D14*
X119610000Y-91440000D03*
%TD*%
D10*
%TO.C,J4*%
X78740000Y-87630000D03*
%TD*%
D13*
%TO.C,C6*%
X101600000Y-101720000D03*
D14*
X101600000Y-109220000D03*
%TD*%
D11*
%TO.C,D1*%
X147320000Y-93980000D03*
D12*
X157480000Y-93980000D03*
%TD*%
D21*
%TO.C,REF\u002A\u002A*%
X172720000Y-81280000D03*
D22*
X172720000Y-81280000D03*
%TD*%
D19*
%TO.C,C2*%
X147360000Y-88265000D03*
D20*
X152360000Y-88265000D03*
%TD*%
D21*
%TO.C,REF\u002A\u002A*%
X172720000Y-111760000D03*
D22*
X172720000Y-111760000D03*
%TD*%
D19*
%TO.C,C1*%
X159980000Y-88265000D03*
D20*
X154980000Y-88265000D03*
%TD*%
D11*
%TO.C,D3*%
X165100000Y-83820000D03*
D12*
X165100000Y-93980000D03*
%TD*%
D20*
%TO.C,REF\u002A\u002A*%
X79915000Y-95885000D03*
D23*
X88915000Y-95885000D03*
D24*
X82915000Y-95885000D03*
%TD*%
D21*
%TO.C,REF\u002A\u002A*%
X78740000Y-81280000D03*
D22*
X78740000Y-81280000D03*
%TD*%
M02*
