%TF.GenerationSoftware,KiCad,Pcbnew,7.0.2*%
%TF.CreationDate,2023-06-20T09:22:34-04:00*%
%TF.ProjectId,Power supply,506f7765-7220-4737-9570-706c792e6b69,rev?*%
%TF.SameCoordinates,Original*%
%TF.FileFunction,Copper,L2,Bot*%
%TF.FilePolarity,Positive*%
%FSLAX46Y46*%
G04 Gerber Fmt 4.6, Leading zero omitted, Abs format (unit mm)*
G04 Created by KiCad (PCBNEW 7.0.2) date 2023-06-20 09:22:34*
%MOMM*%
%LPD*%
G01*
G04 APERTURE LIST*
%TA.AperFunction,ComponentPad*%
%ADD10R,1.700000X1.700000*%
%TD*%
%TA.AperFunction,ComponentPad*%
%ADD11R,2.200000X2.200000*%
%TD*%
%TA.AperFunction,ComponentPad*%
%ADD12O,2.200000X2.200000*%
%TD*%
%TA.AperFunction,ComponentPad*%
%ADD13R,2.400000X2.400000*%
%TD*%
%TA.AperFunction,ComponentPad*%
%ADD14C,2.400000*%
%TD*%
%TA.AperFunction,ComponentPad*%
%ADD15R,1.905000X2.000000*%
%TD*%
%TA.AperFunction,ComponentPad*%
%ADD16O,1.905000X2.000000*%
%TD*%
%TA.AperFunction,ComponentPad*%
%ADD17C,1.700000*%
%TD*%
%TA.AperFunction,ComponentPad*%
%ADD18O,1.700000X1.700000*%
%TD*%
%TA.AperFunction,ComponentPad*%
%ADD19R,1.600000X1.600000*%
%TD*%
%TA.AperFunction,ComponentPad*%
%ADD20C,1.600000*%
%TD*%
%TA.AperFunction,ComponentPad*%
%ADD21C,2.600000*%
%TD*%
%TA.AperFunction,ConnectorPad*%
%ADD22C,3.800000*%
%TD*%
%TA.AperFunction,ComponentPad*%
%ADD23R,2.000000X4.000000*%
%TD*%
%TA.AperFunction,ComponentPad*%
%ADD24O,2.000000X3.300000*%
%TD*%
G04 APERTURE END LIST*
D10*
%TO.P,J5,1,Pin_1*%
%TO.N,GND*%
X78740000Y-104140000D03*
%TD*%
D11*
%TO.P,D6,1,K*%
%TO.N,-12V*%
X157480000Y-99060000D03*
D12*
%TO.P,D6,2,A*%
%TO.N,Net-(D4-A)*%
X147320000Y-99060000D03*
%TD*%
D13*
%TO.P,C5,1*%
%TO.N,Net-(D1-K)*%
X101600000Y-83940000D03*
D14*
%TO.P,C5,2*%
%TO.N,GND*%
X101600000Y-91440000D03*
%TD*%
D15*
%TO.P,U1,1,VI*%
%TO.N,Net-(D1-K)*%
X149860000Y-82550000D03*
D16*
%TO.P,U1,2,GND*%
%TO.N,GND*%
X152400000Y-82550000D03*
%TO.P,U1,3,VO*%
%TO.N,+12V*%
X154940000Y-82550000D03*
%TD*%
D11*
%TO.P,D2,1,K*%
%TO.N,Net-(D1-K)*%
X93345000Y-80645000D03*
D12*
%TO.P,D2,2,A*%
%TO.N,+12VA*%
X83185000Y-80645000D03*
%TD*%
D11*
%TO.P,D4,1,K*%
%TO.N,+12VA*%
X83185000Y-112395000D03*
D12*
%TO.P,D4,2,A*%
%TO.N,Net-(D4-A)*%
X93345000Y-112395000D03*
%TD*%
D15*
%TO.P,U2,1,GND*%
%TO.N,GND*%
X154940000Y-110815000D03*
D16*
%TO.P,U2,2,VI*%
%TO.N,Net-(D4-A)*%
X152400000Y-110815000D03*
%TO.P,U2,3,VO*%
%TO.N,-12V*%
X149860000Y-110815000D03*
%TD*%
D11*
%TO.P,D5,1,K*%
%TO.N,GND*%
X165100000Y-101600000D03*
D12*
%TO.P,D5,2,A*%
%TO.N,-12V*%
X165100000Y-111760000D03*
%TD*%
D17*
%TO.P,REF\u002A\u002A,1*%
%TO.N,+12V*%
X172720000Y-91440000D03*
D18*
%TO.P,REF\u002A\u002A,2*%
X170180000Y-91440000D03*
%TO.P,REF\u002A\u002A,3*%
%TO.N,GND*%
X172720000Y-93980000D03*
%TO.P,REF\u002A\u002A,4*%
X170180000Y-93980000D03*
%TO.P,REF\u002A\u002A,5*%
X172720000Y-96520000D03*
%TO.P,REF\u002A\u002A,6*%
X170180000Y-96520000D03*
%TO.P,REF\u002A\u002A,7*%
X172720000Y-99060000D03*
%TO.P,REF\u002A\u002A,8*%
X170180000Y-99060000D03*
%TO.P,REF\u002A\u002A,9*%
%TO.N,-12V*%
X172720000Y-101600000D03*
%TO.P,REF\u002A\u002A,10*%
X170180000Y-101600000D03*
%TD*%
D19*
%TO.P,C10,1*%
%TO.N,GND*%
X155060000Y-104775000D03*
D20*
%TO.P,C10,2*%
%TO.N,-12V*%
X160060000Y-104775000D03*
%TD*%
D13*
%TO.P,C3,1*%
%TO.N,Net-(D1-K)*%
X137160000Y-83940000D03*
D14*
%TO.P,C3,2*%
%TO.N,GND*%
X137160000Y-91440000D03*
%TD*%
D21*
%TO.P,REF\u002A\u002A,1*%
%TO.N,N/C*%
X78740000Y-111760000D03*
D22*
X78740000Y-111760000D03*
%TD*%
D13*
%TO.P,C7,1*%
%TO.N,GND*%
X119380000Y-101720000D03*
D14*
%TO.P,C7,2*%
%TO.N,Net-(D4-A)*%
X119380000Y-109220000D03*
%TD*%
D13*
%TO.P,C8,1*%
%TO.N,GND*%
X137160000Y-101720000D03*
D14*
%TO.P,C8,2*%
%TO.N,Net-(D4-A)*%
X137160000Y-109220000D03*
%TD*%
D19*
%TO.P,C9,1*%
%TO.N,GND*%
X152360000Y-104775000D03*
D20*
%TO.P,C9,2*%
%TO.N,Net-(D4-A)*%
X147360000Y-104775000D03*
%TD*%
D13*
%TO.P,C4,1*%
%TO.N,Net-(D1-K)*%
X119610000Y-83940000D03*
D14*
%TO.P,C4,2*%
%TO.N,GND*%
X119610000Y-91440000D03*
%TD*%
D10*
%TO.P,J4,1,Pin_1*%
%TO.N,+12VA*%
X78740000Y-87630000D03*
%TD*%
D13*
%TO.P,C6,1*%
%TO.N,GND*%
X101600000Y-101720000D03*
D14*
%TO.P,C6,2*%
%TO.N,Net-(D4-A)*%
X101600000Y-109220000D03*
%TD*%
D11*
%TO.P,D1,1,K*%
%TO.N,Net-(D1-K)*%
X147320000Y-93980000D03*
D12*
%TO.P,D1,2,A*%
%TO.N,+12V*%
X157480000Y-93980000D03*
%TD*%
D21*
%TO.P,REF\u002A\u002A,1*%
%TO.N,N/C*%
X172720000Y-81280000D03*
D22*
X172720000Y-81280000D03*
%TD*%
D19*
%TO.P,C2,1*%
%TO.N,Net-(D1-K)*%
X147360000Y-88265000D03*
D20*
%TO.P,C2,2*%
%TO.N,GND*%
X152360000Y-88265000D03*
%TD*%
D21*
%TO.P,REF\u002A\u002A,1*%
%TO.N,N/C*%
X172720000Y-111760000D03*
D22*
X172720000Y-111760000D03*
%TD*%
D19*
%TO.P,C1,1*%
%TO.N,+12V*%
X159980000Y-88265000D03*
D20*
%TO.P,C1,2*%
%TO.N,GND*%
X154980000Y-88265000D03*
%TD*%
D11*
%TO.P,D3,1,K*%
%TO.N,+12V*%
X165100000Y-83820000D03*
D12*
%TO.P,D3,2,A*%
%TO.N,GND*%
X165100000Y-93980000D03*
%TD*%
D23*
%TO.P,REF\u002A\u002A,1*%
%TO.N,+12VA*%
X88915000Y-95885000D03*
D24*
%TO.P,REF\u002A\u002A,2*%
%TO.N,GND*%
X82915000Y-95885000D03*
%TD*%
D21*
%TO.P,REF\u002A\u002A,1*%
%TO.N,N/C*%
X78740000Y-81280000D03*
D22*
X78740000Y-81280000D03*
%TD*%
%TA.AperFunction,Conductor*%
%TO.N,GND*%
G36*
X172043596Y-78760185D02*
G01*
X172089351Y-78812989D01*
X172099295Y-78882147D01*
X172070270Y-78945703D01*
X172011492Y-78983477D01*
X172007394Y-78984604D01*
X171980518Y-78991504D01*
X171980511Y-78991506D01*
X171976738Y-78992475D01*
X171973120Y-78993907D01*
X171973109Y-78993911D01*
X171699526Y-79102230D01*
X171699515Y-79102234D01*
X171695896Y-79103668D01*
X171692491Y-79105539D01*
X171692478Y-79105546D01*
X171434612Y-79247310D01*
X171434600Y-79247317D01*
X171431205Y-79249184D01*
X171428061Y-79251467D01*
X171428055Y-79251472D01*
X171189994Y-79424432D01*
X171189983Y-79424440D01*
X171186838Y-79426726D01*
X171184003Y-79429387D01*
X171183996Y-79429394D01*
X170969488Y-79630831D01*
X170969481Y-79630838D01*
X170966651Y-79633496D01*
X170964176Y-79636487D01*
X170964172Y-79636492D01*
X170776598Y-79863229D01*
X170776588Y-79863241D01*
X170774115Y-79866232D01*
X170772033Y-79869511D01*
X170772024Y-79869525D01*
X170614352Y-80117977D01*
X170614345Y-80117988D01*
X170612267Y-80121264D01*
X170610614Y-80124774D01*
X170610611Y-80124782D01*
X170485315Y-80391050D01*
X170483659Y-80394570D01*
X170482457Y-80398267D01*
X170482455Y-80398274D01*
X170391524Y-80678130D01*
X170390319Y-80681840D01*
X170389590Y-80685660D01*
X170389588Y-80685669D01*
X170334449Y-80974716D01*
X170334446Y-80974732D01*
X170333720Y-80978543D01*
X170333475Y-80982434D01*
X170333475Y-80982436D01*
X170326762Y-81089134D01*
X170314754Y-81280000D01*
X170333720Y-81581457D01*
X170334447Y-81585269D01*
X170334449Y-81585283D01*
X170385421Y-81852484D01*
X170390319Y-81878160D01*
X170391523Y-81881867D01*
X170391524Y-81881869D01*
X170425790Y-81987330D01*
X170483659Y-82165430D01*
X170612267Y-82438736D01*
X170614349Y-82442017D01*
X170614352Y-82442022D01*
X170772024Y-82690474D01*
X170772028Y-82690480D01*
X170774115Y-82693768D01*
X170966651Y-82926504D01*
X171186838Y-83133274D01*
X171431205Y-83310816D01*
X171695896Y-83456332D01*
X171976738Y-83567525D01*
X172269302Y-83642642D01*
X172568973Y-83680500D01*
X172572867Y-83680500D01*
X172867133Y-83680500D01*
X172871027Y-83680500D01*
X173170698Y-83642642D01*
X173463262Y-83567525D01*
X173744104Y-83456332D01*
X174008795Y-83310816D01*
X174253162Y-83133274D01*
X174473349Y-82926504D01*
X174665885Y-82693768D01*
X174827733Y-82438736D01*
X174956341Y-82165430D01*
X175017569Y-81976989D01*
X175057007Y-81919314D01*
X175121365Y-81892116D01*
X175190211Y-81904031D01*
X175241687Y-81951275D01*
X175259500Y-82015308D01*
X175259500Y-111024691D01*
X175239815Y-111091730D01*
X175187011Y-111137485D01*
X175117853Y-111147429D01*
X175054297Y-111118404D01*
X175017569Y-111063009D01*
X174997832Y-111002268D01*
X174956341Y-110874570D01*
X174827733Y-110601264D01*
X174665885Y-110346232D01*
X174473349Y-110113496D01*
X174253162Y-109906726D01*
X174238302Y-109895930D01*
X174011944Y-109731472D01*
X174011945Y-109731472D01*
X174008795Y-109729184D01*
X174005391Y-109727313D01*
X174005387Y-109727310D01*
X173747521Y-109585546D01*
X173747514Y-109585542D01*
X173744104Y-109583668D01*
X173740478Y-109582232D01*
X173740473Y-109582230D01*
X173466890Y-109473911D01*
X173466884Y-109473909D01*
X173463262Y-109472475D01*
X173459484Y-109471505D01*
X173459481Y-109471504D01*
X173174476Y-109398328D01*
X173174475Y-109398327D01*
X173170698Y-109397358D01*
X173166835Y-109396870D01*
X173166830Y-109396869D01*
X172874891Y-109359988D01*
X172874888Y-109359987D01*
X172871027Y-109359500D01*
X172568973Y-109359500D01*
X172565112Y-109359987D01*
X172565108Y-109359988D01*
X172273169Y-109396869D01*
X172273161Y-109396870D01*
X172269302Y-109397358D01*
X172265527Y-109398327D01*
X172265523Y-109398328D01*
X171980518Y-109471504D01*
X171980511Y-109471506D01*
X171976738Y-109472475D01*
X171973120Y-109473907D01*
X171973109Y-109473911D01*
X171699526Y-109582230D01*
X171699515Y-109582234D01*
X171695896Y-109583668D01*
X171692491Y-109585539D01*
X171692478Y-109585546D01*
X171434612Y-109727310D01*
X171434600Y-109727317D01*
X171431205Y-109729184D01*
X171428061Y-109731467D01*
X171428055Y-109731472D01*
X171189994Y-109904432D01*
X171189983Y-109904440D01*
X171186838Y-109906726D01*
X171184003Y-109909387D01*
X171183996Y-109909394D01*
X170969488Y-110110831D01*
X170969481Y-110110838D01*
X170966651Y-110113496D01*
X170964176Y-110116487D01*
X170964172Y-110116492D01*
X170776598Y-110343229D01*
X170776588Y-110343241D01*
X170774115Y-110346232D01*
X170772033Y-110349511D01*
X170772024Y-110349525D01*
X170614352Y-110597977D01*
X170614345Y-110597988D01*
X170612267Y-110601264D01*
X170610614Y-110604774D01*
X170610611Y-110604782D01*
X170485315Y-110871050D01*
X170483659Y-110874570D01*
X170482457Y-110878267D01*
X170482455Y-110878274D01*
X170391524Y-111158130D01*
X170390319Y-111161840D01*
X170389590Y-111165660D01*
X170389588Y-111165669D01*
X170334449Y-111454716D01*
X170334446Y-111454732D01*
X170333720Y-111458543D01*
X170314754Y-111760000D01*
X170333720Y-112061457D01*
X170334447Y-112065269D01*
X170334449Y-112065283D01*
X170382181Y-112315500D01*
X170390319Y-112358160D01*
X170391523Y-112361867D01*
X170391524Y-112361869D01*
X170414075Y-112431275D01*
X170483659Y-112645430D01*
X170612267Y-112918736D01*
X170614349Y-112922017D01*
X170614352Y-112922022D01*
X170772024Y-113170474D01*
X170772028Y-113170480D01*
X170774115Y-113173768D01*
X170776594Y-113176765D01*
X170776598Y-113176770D01*
X170867684Y-113286873D01*
X170966651Y-113406504D01*
X171186838Y-113613274D01*
X171431205Y-113790816D01*
X171695896Y-113936332D01*
X171976738Y-114047525D01*
X172007394Y-114055396D01*
X172067432Y-114091134D01*
X172098618Y-114153657D01*
X172091050Y-114223116D01*
X172047132Y-114277457D01*
X171980806Y-114299427D01*
X171976557Y-114299500D01*
X79483443Y-114299500D01*
X79416404Y-114279815D01*
X79370649Y-114227011D01*
X79360705Y-114157853D01*
X79389730Y-114094297D01*
X79448508Y-114056523D01*
X79452606Y-114055396D01*
X79483262Y-114047525D01*
X79764104Y-113936332D01*
X80028795Y-113790816D01*
X80273162Y-113613274D01*
X80351640Y-113539578D01*
X81584500Y-113539578D01*
X81584501Y-113542872D01*
X81584853Y-113546152D01*
X81584854Y-113546159D01*
X81590909Y-113602484D01*
X81595789Y-113615567D01*
X81641204Y-113737331D01*
X81727454Y-113852546D01*
X81842669Y-113938796D01*
X81977517Y-113989091D01*
X82037127Y-113995500D01*
X84332872Y-113995499D01*
X84392483Y-113989091D01*
X84527331Y-113938796D01*
X84642546Y-113852546D01*
X84728796Y-113737331D01*
X84779091Y-113602483D01*
X84785500Y-113542873D01*
X84785499Y-112395000D01*
X91739551Y-112395000D01*
X91759317Y-112646149D01*
X91818126Y-112891110D01*
X91866330Y-113007485D01*
X91914534Y-113123859D01*
X92046164Y-113338659D01*
X92209776Y-113530224D01*
X92401341Y-113693836D01*
X92616141Y-113825466D01*
X92848889Y-113921873D01*
X93093852Y-113980683D01*
X93345000Y-114000449D01*
X93596148Y-113980683D01*
X93841111Y-113921873D01*
X94073859Y-113825466D01*
X94288659Y-113693836D01*
X94480224Y-113530224D01*
X94643836Y-113338659D01*
X94775466Y-113123859D01*
X94871873Y-112891111D01*
X94930683Y-112646148D01*
X94950449Y-112395000D01*
X94930683Y-112143852D01*
X94871873Y-111898889D01*
X94775466Y-111666141D01*
X94643836Y-111451341D01*
X94480224Y-111259776D01*
X94288659Y-111096164D01*
X94073859Y-110964534D01*
X93972621Y-110922600D01*
X148407000Y-110922600D01*
X148407211Y-110925142D01*
X148421905Y-111102477D01*
X148481017Y-111335906D01*
X148533132Y-111454716D01*
X148577745Y-111556422D01*
X148709449Y-111758010D01*
X148872537Y-111935171D01*
X149062561Y-112083072D01*
X149274336Y-112197679D01*
X149502087Y-112275866D01*
X149739601Y-112315500D01*
X149980399Y-112315500D01*
X150217913Y-112275866D01*
X150445664Y-112197679D01*
X150657439Y-112083072D01*
X150847463Y-111935171D01*
X151010551Y-111758010D01*
X151026191Y-111734070D01*
X151079337Y-111688714D01*
X151148569Y-111679290D01*
X151211905Y-111708792D01*
X151233808Y-111734070D01*
X151249449Y-111758010D01*
X151412537Y-111935171D01*
X151602561Y-112083072D01*
X151814336Y-112197679D01*
X152042087Y-112275866D01*
X152279601Y-112315500D01*
X152520399Y-112315500D01*
X152757913Y-112275866D01*
X152985664Y-112197679D01*
X153197439Y-112083072D01*
X153387463Y-111935171D01*
X153548719Y-111760000D01*
X163494551Y-111760000D01*
X163514317Y-112011149D01*
X163573126Y-112256110D01*
X163613810Y-112354330D01*
X163669534Y-112488859D01*
X163801164Y-112703659D01*
X163964776Y-112895224D01*
X164156341Y-113058836D01*
X164371141Y-113190466D01*
X164603889Y-113286873D01*
X164848852Y-113345683D01*
X165100000Y-113365449D01*
X165351148Y-113345683D01*
X165596111Y-113286873D01*
X165828859Y-113190466D01*
X166043659Y-113058836D01*
X166235224Y-112895224D01*
X166398836Y-112703659D01*
X166530466Y-112488859D01*
X166626873Y-112256111D01*
X166685683Y-112011148D01*
X166705449Y-111760000D01*
X166685683Y-111508852D01*
X166626873Y-111263889D01*
X166530466Y-111031141D01*
X166398836Y-110816341D01*
X166235224Y-110624776D01*
X166043659Y-110461164D01*
X165828859Y-110329534D01*
X165712485Y-110281330D01*
X165596110Y-110233126D01*
X165351149Y-110174317D01*
X165100000Y-110154551D01*
X164848850Y-110174317D01*
X164603889Y-110233126D01*
X164371139Y-110329535D01*
X164156342Y-110461163D01*
X163964776Y-110624776D01*
X163801163Y-110816342D01*
X163669535Y-111031139D01*
X163573126Y-111263889D01*
X163514317Y-111508850D01*
X163494551Y-111760000D01*
X153548719Y-111760000D01*
X153550551Y-111758010D01*
X153682255Y-111556422D01*
X153778983Y-111335905D01*
X153838095Y-111102476D01*
X153853000Y-110922600D01*
X153853000Y-110707400D01*
X153838095Y-110527524D01*
X153778983Y-110294095D01*
X153682255Y-110073578D01*
X153550551Y-109871990D01*
X153387463Y-109694829D01*
X153197439Y-109546928D01*
X152985664Y-109432321D01*
X152985660Y-109432319D01*
X152985659Y-109432319D01*
X152757915Y-109354134D01*
X152520399Y-109314500D01*
X152279601Y-109314500D01*
X152042084Y-109354134D01*
X151814340Y-109432319D01*
X151814336Y-109432320D01*
X151814336Y-109432321D01*
X151737030Y-109474157D01*
X151602559Y-109546929D01*
X151412536Y-109694829D01*
X151249448Y-109871991D01*
X151233808Y-109895930D01*
X151180661Y-109941286D01*
X151111430Y-109950709D01*
X151048094Y-109921206D01*
X151026192Y-109895930D01*
X151022649Y-109890508D01*
X151010551Y-109871990D01*
X150847463Y-109694829D01*
X150657439Y-109546928D01*
X150445664Y-109432321D01*
X150445660Y-109432319D01*
X150445659Y-109432319D01*
X150217915Y-109354134D01*
X149980399Y-109314500D01*
X149739601Y-109314500D01*
X149502084Y-109354134D01*
X149274340Y-109432319D01*
X149274336Y-109432320D01*
X149274336Y-109432321D01*
X149197030Y-109474157D01*
X149062559Y-109546929D01*
X148872536Y-109694829D01*
X148709448Y-109871991D01*
X148577745Y-110073577D01*
X148481017Y-110294093D01*
X148421905Y-110527522D01*
X148421904Y-110527524D01*
X148421905Y-110527524D01*
X148407000Y-110707400D01*
X148407000Y-110922600D01*
X93972621Y-110922600D01*
X93957484Y-110916330D01*
X93841110Y-110868126D01*
X93596149Y-110809317D01*
X93345000Y-110789551D01*
X93093850Y-110809317D01*
X92848889Y-110868126D01*
X92616139Y-110964535D01*
X92401342Y-111096163D01*
X92209776Y-111259776D01*
X92046163Y-111451342D01*
X91914535Y-111666139D01*
X91818126Y-111898889D01*
X91759317Y-112143850D01*
X91739551Y-112395000D01*
X84785499Y-112395000D01*
X84785499Y-111247128D01*
X84779091Y-111187517D01*
X84728796Y-111052669D01*
X84642546Y-110937454D01*
X84527331Y-110851204D01*
X84392483Y-110800909D01*
X84332873Y-110794500D01*
X84329550Y-110794500D01*
X82040439Y-110794500D01*
X82040420Y-110794500D01*
X82037128Y-110794501D01*
X82033848Y-110794853D01*
X82033840Y-110794854D01*
X81977515Y-110800909D01*
X81842669Y-110851204D01*
X81727454Y-110937454D01*
X81641204Y-111052668D01*
X81590910Y-111187515D01*
X81590909Y-111187517D01*
X81584500Y-111247127D01*
X81584500Y-111250448D01*
X81584500Y-111250449D01*
X81584500Y-113539560D01*
X81584500Y-113539578D01*
X80351640Y-113539578D01*
X80493349Y-113406504D01*
X80685885Y-113173768D01*
X80847733Y-112918736D01*
X80976341Y-112645430D01*
X81069681Y-112358160D01*
X81126280Y-112061457D01*
X81145246Y-111760000D01*
X81126280Y-111458543D01*
X81069681Y-111161840D01*
X80976341Y-110874570D01*
X80847733Y-110601264D01*
X80685885Y-110346232D01*
X80493349Y-110113496D01*
X80273162Y-109906726D01*
X80258302Y-109895930D01*
X80031944Y-109731472D01*
X80031945Y-109731472D01*
X80028795Y-109729184D01*
X80025391Y-109727313D01*
X80025387Y-109727310D01*
X79767521Y-109585546D01*
X79767514Y-109585542D01*
X79764104Y-109583668D01*
X79760478Y-109582232D01*
X79760473Y-109582230D01*
X79486890Y-109473911D01*
X79486884Y-109473909D01*
X79483262Y-109472475D01*
X79479484Y-109471505D01*
X79479481Y-109471504D01*
X79194476Y-109398328D01*
X79194475Y-109398327D01*
X79190698Y-109397358D01*
X79186835Y-109396870D01*
X79186830Y-109396869D01*
X78894891Y-109359988D01*
X78894888Y-109359987D01*
X78891027Y-109359500D01*
X78588973Y-109359500D01*
X78585112Y-109359987D01*
X78585108Y-109359988D01*
X78293169Y-109396869D01*
X78293161Y-109396870D01*
X78289302Y-109397358D01*
X78285527Y-109398327D01*
X78285523Y-109398328D01*
X78000518Y-109471504D01*
X78000511Y-109471506D01*
X77996738Y-109472475D01*
X77993120Y-109473907D01*
X77993109Y-109473911D01*
X77719526Y-109582230D01*
X77719515Y-109582234D01*
X77715896Y-109583668D01*
X77712491Y-109585539D01*
X77712478Y-109585546D01*
X77454612Y-109727310D01*
X77454600Y-109727317D01*
X77451205Y-109729184D01*
X77448061Y-109731467D01*
X77448055Y-109731472D01*
X77209994Y-109904432D01*
X77209983Y-109904440D01*
X77206838Y-109906726D01*
X77204003Y-109909387D01*
X77203996Y-109909394D01*
X76989488Y-110110831D01*
X76989481Y-110110838D01*
X76986651Y-110113496D01*
X76984176Y-110116487D01*
X76984172Y-110116492D01*
X76796598Y-110343229D01*
X76796588Y-110343241D01*
X76794115Y-110346232D01*
X76792033Y-110349511D01*
X76792024Y-110349525D01*
X76634352Y-110597977D01*
X76634345Y-110597988D01*
X76632267Y-110601264D01*
X76630614Y-110604774D01*
X76630611Y-110604782D01*
X76505315Y-110871050D01*
X76503659Y-110874570D01*
X76502457Y-110878267D01*
X76502455Y-110878274D01*
X76442431Y-111063009D01*
X76402993Y-111120685D01*
X76338635Y-111147883D01*
X76269788Y-111135968D01*
X76218313Y-111088724D01*
X76200500Y-111024691D01*
X76200500Y-109220000D01*
X99894731Y-109220000D01*
X99913777Y-109474154D01*
X99970492Y-109722637D01*
X100063608Y-109959891D01*
X100191038Y-110180607D01*
X100191041Y-110180612D01*
X100349950Y-110379877D01*
X100536783Y-110553232D01*
X100747366Y-110696805D01*
X100976996Y-110807389D01*
X101220542Y-110882513D01*
X101472565Y-110920500D01*
X101727435Y-110920500D01*
X101979458Y-110882513D01*
X102223004Y-110807389D01*
X102452634Y-110696805D01*
X102663217Y-110553232D01*
X102850050Y-110379877D01*
X103008959Y-110180612D01*
X103136393Y-109959888D01*
X103229508Y-109722637D01*
X103286222Y-109474157D01*
X103305268Y-109220000D01*
X103305268Y-109219999D01*
X117674731Y-109219999D01*
X117693777Y-109474154D01*
X117750492Y-109722637D01*
X117843608Y-109959891D01*
X117971038Y-110180607D01*
X117971041Y-110180612D01*
X118129950Y-110379877D01*
X118316783Y-110553232D01*
X118527366Y-110696805D01*
X118756996Y-110807389D01*
X119000542Y-110882513D01*
X119252565Y-110920500D01*
X119507435Y-110920500D01*
X119759458Y-110882513D01*
X120003004Y-110807389D01*
X120232634Y-110696805D01*
X120443217Y-110553232D01*
X120630050Y-110379877D01*
X120788959Y-110180612D01*
X120916393Y-109959888D01*
X121009508Y-109722637D01*
X121066222Y-109474157D01*
X121085268Y-109220000D01*
X135454731Y-109220000D01*
X135473777Y-109474154D01*
X135530492Y-109722637D01*
X135623608Y-109959891D01*
X135751038Y-110180607D01*
X135751041Y-110180612D01*
X135909950Y-110379877D01*
X136096783Y-110553232D01*
X136307366Y-110696805D01*
X136536996Y-110807389D01*
X136780542Y-110882513D01*
X137032565Y-110920500D01*
X137287435Y-110920500D01*
X137539458Y-110882513D01*
X137783004Y-110807389D01*
X138012634Y-110696805D01*
X138223217Y-110553232D01*
X138410050Y-110379877D01*
X138568959Y-110180612D01*
X138696393Y-109959888D01*
X138789508Y-109722637D01*
X138846222Y-109474157D01*
X138865268Y-109220000D01*
X138846222Y-108965843D01*
X138789508Y-108717363D01*
X138696393Y-108480112D01*
X138568959Y-108259388D01*
X138410050Y-108060123D01*
X138223217Y-107886768D01*
X138012634Y-107743195D01*
X137783004Y-107632611D01*
X137539458Y-107557487D01*
X137287435Y-107519500D01*
X137032565Y-107519500D01*
X136780542Y-107557487D01*
X136536996Y-107632611D01*
X136307366Y-107743195D01*
X136202074Y-107814981D01*
X136096781Y-107886769D01*
X135909950Y-108060123D01*
X135751038Y-108259392D01*
X135623608Y-108480108D01*
X135530492Y-108717362D01*
X135473777Y-108965845D01*
X135454731Y-109220000D01*
X121085268Y-109220000D01*
X121066222Y-108965843D01*
X121009508Y-108717363D01*
X120916393Y-108480112D01*
X120788959Y-108259388D01*
X120630050Y-108060123D01*
X120443217Y-107886768D01*
X120232634Y-107743195D01*
X120003004Y-107632611D01*
X119759458Y-107557487D01*
X119507435Y-107519500D01*
X119252565Y-107519500D01*
X119000542Y-107557487D01*
X118756996Y-107632611D01*
X118527366Y-107743195D01*
X118422074Y-107814981D01*
X118316781Y-107886769D01*
X118129950Y-108060123D01*
X117971038Y-108259392D01*
X117843608Y-108480108D01*
X117750492Y-108717362D01*
X117693777Y-108965845D01*
X117674731Y-109219999D01*
X103305268Y-109219999D01*
X103286222Y-108965843D01*
X103229508Y-108717363D01*
X103136393Y-108480112D01*
X103008959Y-108259388D01*
X102850050Y-108060123D01*
X102663217Y-107886768D01*
X102452634Y-107743195D01*
X102223004Y-107632611D01*
X101979458Y-107557487D01*
X101727435Y-107519500D01*
X101472565Y-107519500D01*
X101220542Y-107557487D01*
X100976996Y-107632611D01*
X100747366Y-107743195D01*
X100642074Y-107814981D01*
X100536781Y-107886769D01*
X100349950Y-108060123D01*
X100191038Y-108259392D01*
X100063608Y-108480108D01*
X99970492Y-108717362D01*
X99913777Y-108965845D01*
X99894731Y-109220000D01*
X76200500Y-109220000D01*
X76200500Y-104775000D01*
X146054531Y-104775000D01*
X146074364Y-105001689D01*
X146133261Y-105221497D01*
X146229432Y-105427735D01*
X146359953Y-105614140D01*
X146520859Y-105775046D01*
X146707264Y-105905567D01*
X146707265Y-105905567D01*
X146707266Y-105905568D01*
X146913504Y-106001739D01*
X147133308Y-106060635D01*
X147360000Y-106080468D01*
X147586692Y-106060635D01*
X147806496Y-106001739D01*
X148012734Y-105905568D01*
X148199139Y-105775047D01*
X148360047Y-105614139D01*
X148490568Y-105427734D01*
X148586739Y-105221496D01*
X148645635Y-105001692D01*
X148665468Y-104775000D01*
X158754531Y-104775000D01*
X158774364Y-105001689D01*
X158833261Y-105221497D01*
X158929432Y-105427735D01*
X159059953Y-105614140D01*
X159220859Y-105775046D01*
X159407264Y-105905567D01*
X159407265Y-105905567D01*
X159407266Y-105905568D01*
X159613504Y-106001739D01*
X159833308Y-106060635D01*
X160060000Y-106080468D01*
X160286692Y-106060635D01*
X160506496Y-106001739D01*
X160712734Y-105905568D01*
X160899139Y-105775047D01*
X161060047Y-105614139D01*
X161190568Y-105427734D01*
X161286739Y-105221496D01*
X161345635Y-105001692D01*
X161365468Y-104775000D01*
X161345635Y-104548308D01*
X161286739Y-104328504D01*
X161190568Y-104122266D01*
X161060047Y-103935861D01*
X161060046Y-103935859D01*
X160899140Y-103774953D01*
X160712735Y-103644432D01*
X160506497Y-103548261D01*
X160286689Y-103489364D01*
X160060000Y-103469531D01*
X159833310Y-103489364D01*
X159613502Y-103548261D01*
X159407264Y-103644432D01*
X159220859Y-103774953D01*
X159059953Y-103935859D01*
X158929432Y-104122264D01*
X158833261Y-104328502D01*
X158774364Y-104548310D01*
X158754531Y-104775000D01*
X148665468Y-104775000D01*
X148645635Y-104548308D01*
X148586739Y-104328504D01*
X148490568Y-104122266D01*
X148360047Y-103935861D01*
X148360046Y-103935859D01*
X148199140Y-103774953D01*
X148012735Y-103644432D01*
X147806497Y-103548261D01*
X147586689Y-103489364D01*
X147360000Y-103469531D01*
X147133310Y-103489364D01*
X146913502Y-103548261D01*
X146707264Y-103644432D01*
X146520859Y-103774953D01*
X146359953Y-103935859D01*
X146229432Y-104122264D01*
X146133261Y-104328502D01*
X146074364Y-104548310D01*
X146054531Y-104775000D01*
X76200500Y-104775000D01*
X76200500Y-101600000D01*
X168824340Y-101600000D01*
X168844936Y-101835407D01*
X168889709Y-102002502D01*
X168906097Y-102063663D01*
X169005965Y-102277830D01*
X169141505Y-102471401D01*
X169308599Y-102638495D01*
X169502170Y-102774035D01*
X169716337Y-102873903D01*
X169944592Y-102935063D01*
X170179999Y-102955659D01*
X170179999Y-102955658D01*
X170180000Y-102955659D01*
X170415408Y-102935063D01*
X170643663Y-102873903D01*
X170857830Y-102774035D01*
X171051401Y-102638495D01*
X171218495Y-102471401D01*
X171348426Y-102285839D01*
X171403002Y-102242216D01*
X171472500Y-102235022D01*
X171534855Y-102266545D01*
X171551571Y-102285837D01*
X171681505Y-102471401D01*
X171848599Y-102638495D01*
X172042170Y-102774035D01*
X172256337Y-102873903D01*
X172484592Y-102935063D01*
X172720000Y-102955659D01*
X172955408Y-102935063D01*
X173183663Y-102873903D01*
X173397830Y-102774035D01*
X173591401Y-102638495D01*
X173758495Y-102471401D01*
X173894035Y-102277830D01*
X173993903Y-102063663D01*
X174055063Y-101835408D01*
X174075659Y-101600000D01*
X174055063Y-101364592D01*
X173993903Y-101136337D01*
X173894035Y-100922171D01*
X173758495Y-100728599D01*
X173591401Y-100561505D01*
X173397830Y-100425965D01*
X173183663Y-100326097D01*
X173122502Y-100309709D01*
X172955407Y-100264936D01*
X172720000Y-100244340D01*
X172484592Y-100264936D01*
X172256336Y-100326097D01*
X172042170Y-100425965D01*
X171848598Y-100561505D01*
X171681505Y-100728598D01*
X171551575Y-100914159D01*
X171496998Y-100957784D01*
X171427500Y-100964978D01*
X171365145Y-100933455D01*
X171348425Y-100914159D01*
X171218494Y-100728598D01*
X171051404Y-100561508D01*
X171051404Y-100561507D01*
X171051401Y-100561505D01*
X170857830Y-100425965D01*
X170643663Y-100326097D01*
X170582502Y-100309709D01*
X170415407Y-100264936D01*
X170179999Y-100244340D01*
X169944592Y-100264936D01*
X169716336Y-100326097D01*
X169502170Y-100425965D01*
X169308598Y-100561505D01*
X169141505Y-100728598D01*
X169005965Y-100922170D01*
X168906097Y-101136336D01*
X168844936Y-101364592D01*
X168824340Y-101600000D01*
X76200500Y-101600000D01*
X76200500Y-99060000D01*
X145714551Y-99060000D01*
X145734317Y-99311149D01*
X145793126Y-99556110D01*
X145841330Y-99672485D01*
X145889534Y-99788859D01*
X146021164Y-100003659D01*
X146184776Y-100195224D01*
X146376341Y-100358836D01*
X146591141Y-100490466D01*
X146823889Y-100586873D01*
X147068852Y-100645683D01*
X147320000Y-100665449D01*
X147571148Y-100645683D01*
X147816111Y-100586873D01*
X148048859Y-100490466D01*
X148263659Y-100358836D01*
X148444272Y-100204578D01*
X155879500Y-100204578D01*
X155879501Y-100207872D01*
X155885909Y-100267483D01*
X155936204Y-100402331D01*
X156022454Y-100517546D01*
X156137669Y-100603796D01*
X156272517Y-100654091D01*
X156332127Y-100660500D01*
X158627872Y-100660499D01*
X158687483Y-100654091D01*
X158822331Y-100603796D01*
X158937546Y-100517546D01*
X159023796Y-100402331D01*
X159074091Y-100267483D01*
X159080500Y-100207873D01*
X159080499Y-97912128D01*
X159074091Y-97852517D01*
X159023796Y-97717669D01*
X158937546Y-97602454D01*
X158822331Y-97516204D01*
X158687483Y-97465909D01*
X158627873Y-97459500D01*
X158624550Y-97459500D01*
X156335439Y-97459500D01*
X156335420Y-97459500D01*
X156332128Y-97459501D01*
X156328848Y-97459853D01*
X156328840Y-97459854D01*
X156272515Y-97465909D01*
X156137669Y-97516204D01*
X156022454Y-97602454D01*
X155936204Y-97717668D01*
X155885910Y-97852515D01*
X155885909Y-97852517D01*
X155879500Y-97912127D01*
X155879500Y-97915448D01*
X155879500Y-97915449D01*
X155879500Y-100204560D01*
X155879500Y-100204578D01*
X148444272Y-100204578D01*
X148455224Y-100195224D01*
X148618836Y-100003659D01*
X148750466Y-99788859D01*
X148846873Y-99556111D01*
X148905683Y-99311148D01*
X148925449Y-99060000D01*
X148905683Y-98808852D01*
X148846873Y-98563889D01*
X148750466Y-98331141D01*
X148618836Y-98116341D01*
X148455224Y-97924776D01*
X148263659Y-97761164D01*
X148048859Y-97629534D01*
X147932484Y-97581330D01*
X147816110Y-97533126D01*
X147571149Y-97474317D01*
X147382882Y-97459500D01*
X147320000Y-97454551D01*
X147319999Y-97454551D01*
X147068850Y-97474317D01*
X146823889Y-97533126D01*
X146591139Y-97629535D01*
X146376342Y-97761163D01*
X146184776Y-97924776D01*
X146021163Y-98116342D01*
X145889535Y-98331139D01*
X145793126Y-98563889D01*
X145734317Y-98808850D01*
X145714551Y-99060000D01*
X76200500Y-99060000D01*
X76200500Y-97929578D01*
X87414500Y-97929578D01*
X87414501Y-97932872D01*
X87420909Y-97992483D01*
X87471204Y-98127331D01*
X87557454Y-98242546D01*
X87672669Y-98328796D01*
X87807517Y-98379091D01*
X87867127Y-98385500D01*
X89962872Y-98385499D01*
X90022483Y-98379091D01*
X90157331Y-98328796D01*
X90272546Y-98242546D01*
X90358796Y-98127331D01*
X90409091Y-97992483D01*
X90415500Y-97932873D01*
X90415499Y-95124578D01*
X145719500Y-95124578D01*
X145719501Y-95127872D01*
X145725909Y-95187483D01*
X145776204Y-95322331D01*
X145862454Y-95437546D01*
X145977669Y-95523796D01*
X146112517Y-95574091D01*
X146172127Y-95580500D01*
X148467872Y-95580499D01*
X148527483Y-95574091D01*
X148662331Y-95523796D01*
X148777546Y-95437546D01*
X148863796Y-95322331D01*
X148914091Y-95187483D01*
X148920500Y-95127873D01*
X148920499Y-93980000D01*
X155874551Y-93980000D01*
X155894317Y-94231149D01*
X155953126Y-94476110D01*
X156001330Y-94592484D01*
X156049534Y-94708859D01*
X156181164Y-94923659D01*
X156344776Y-95115224D01*
X156536341Y-95278836D01*
X156751141Y-95410466D01*
X156983889Y-95506873D01*
X157228852Y-95565683D01*
X157480000Y-95585449D01*
X157731148Y-95565683D01*
X157976111Y-95506873D01*
X158208859Y-95410466D01*
X158423659Y-95278836D01*
X158615224Y-95115224D01*
X158778836Y-94923659D01*
X158910466Y-94708859D01*
X159006873Y-94476111D01*
X159065683Y-94231148D01*
X159085449Y-93980000D01*
X159065683Y-93728852D01*
X159006873Y-93483889D01*
X158910466Y-93251141D01*
X158778836Y-93036341D01*
X158615224Y-92844776D01*
X158423659Y-92681164D01*
X158208859Y-92549534D01*
X158092484Y-92501330D01*
X157976110Y-92453126D01*
X157731149Y-92394317D01*
X157542882Y-92379500D01*
X157480000Y-92374551D01*
X157479999Y-92374551D01*
X157228850Y-92394317D01*
X156983889Y-92453126D01*
X156751139Y-92549535D01*
X156536342Y-92681163D01*
X156344776Y-92844776D01*
X156181163Y-93036342D01*
X156049535Y-93251139D01*
X155953126Y-93483889D01*
X155894317Y-93728850D01*
X155874551Y-93980000D01*
X148920499Y-93980000D01*
X148920499Y-92832128D01*
X148914091Y-92772517D01*
X148863796Y-92637669D01*
X148777546Y-92522454D01*
X148662331Y-92436204D01*
X148527483Y-92385909D01*
X148467873Y-92379500D01*
X148464550Y-92379500D01*
X146175439Y-92379500D01*
X146175420Y-92379500D01*
X146172128Y-92379501D01*
X146168848Y-92379853D01*
X146168840Y-92379854D01*
X146112515Y-92385909D01*
X145977669Y-92436204D01*
X145862454Y-92522454D01*
X145776204Y-92637668D01*
X145725910Y-92772515D01*
X145725909Y-92772517D01*
X145719500Y-92832127D01*
X145719500Y-92835448D01*
X145719500Y-92835449D01*
X145719500Y-95124560D01*
X145719500Y-95124578D01*
X90415499Y-95124578D01*
X90415499Y-93837128D01*
X90409091Y-93777517D01*
X90358796Y-93642669D01*
X90272546Y-93527454D01*
X90157331Y-93441204D01*
X90022483Y-93390909D01*
X89962873Y-93384500D01*
X89959550Y-93384500D01*
X87870439Y-93384500D01*
X87870420Y-93384500D01*
X87867128Y-93384501D01*
X87863848Y-93384853D01*
X87863840Y-93384854D01*
X87807515Y-93390909D01*
X87672669Y-93441204D01*
X87557454Y-93527454D01*
X87471204Y-93642668D01*
X87420910Y-93777515D01*
X87420909Y-93777517D01*
X87414500Y-93837127D01*
X87414500Y-93840448D01*
X87414500Y-93840449D01*
X87414500Y-97929560D01*
X87414500Y-97929578D01*
X76200500Y-97929578D01*
X76200500Y-95885000D01*
X78859417Y-95885000D01*
X78879699Y-96090932D01*
X78879700Y-96090934D01*
X78939768Y-96288954D01*
X79037315Y-96471450D01*
X79088609Y-96533952D01*
X79168589Y-96631410D01*
X79248570Y-96697047D01*
X79328550Y-96762685D01*
X79511046Y-96860232D01*
X79709066Y-96920300D01*
X79863392Y-96935500D01*
X79866442Y-96935500D01*
X79963558Y-96935500D01*
X79966608Y-96935500D01*
X80120934Y-96920300D01*
X80318954Y-96860232D01*
X80501450Y-96762685D01*
X80661410Y-96631410D01*
X80792685Y-96471450D01*
X80890232Y-96288954D01*
X80950300Y-96090934D01*
X80970583Y-95885000D01*
X80950300Y-95679066D01*
X80890232Y-95481046D01*
X80792685Y-95298550D01*
X80701536Y-95187484D01*
X80661410Y-95138589D01*
X80563952Y-95058608D01*
X80501450Y-95007315D01*
X80318954Y-94909768D01*
X80219943Y-94879734D01*
X80120932Y-94849699D01*
X79969641Y-94834798D01*
X79969626Y-94834797D01*
X79966608Y-94834500D01*
X79863392Y-94834500D01*
X79860374Y-94834797D01*
X79860358Y-94834798D01*
X79709067Y-94849699D01*
X79511043Y-94909769D01*
X79328551Y-95007314D01*
X79168589Y-95138589D01*
X79037314Y-95298551D01*
X78939769Y-95481043D01*
X78879699Y-95679067D01*
X78859417Y-95885000D01*
X76200500Y-95885000D01*
X76200500Y-91440000D01*
X168824340Y-91440000D01*
X168844936Y-91675407D01*
X168889709Y-91842502D01*
X168906097Y-91903663D01*
X169005965Y-92117830D01*
X169141505Y-92311401D01*
X169308599Y-92478495D01*
X169502170Y-92614035D01*
X169716337Y-92713903D01*
X169944592Y-92775063D01*
X170180000Y-92795659D01*
X170415408Y-92775063D01*
X170643663Y-92713903D01*
X170857830Y-92614035D01*
X171051401Y-92478495D01*
X171218495Y-92311401D01*
X171348426Y-92125839D01*
X171403002Y-92082216D01*
X171472500Y-92075022D01*
X171534855Y-92106545D01*
X171551571Y-92125837D01*
X171681505Y-92311401D01*
X171848599Y-92478495D01*
X172042170Y-92614035D01*
X172256337Y-92713903D01*
X172484592Y-92775063D01*
X172720000Y-92795659D01*
X172955408Y-92775063D01*
X173183663Y-92713903D01*
X173397830Y-92614035D01*
X173591401Y-92478495D01*
X173758495Y-92311401D01*
X173894035Y-92117830D01*
X173993903Y-91903663D01*
X174055063Y-91675408D01*
X174075659Y-91440000D01*
X174055063Y-91204592D01*
X173993903Y-90976337D01*
X173894035Y-90762171D01*
X173758495Y-90568599D01*
X173591401Y-90401505D01*
X173397830Y-90265965D01*
X173183663Y-90166097D01*
X173122502Y-90149709D01*
X172955407Y-90104936D01*
X172720000Y-90084340D01*
X172484592Y-90104936D01*
X172256336Y-90166097D01*
X172042170Y-90265965D01*
X171848598Y-90401505D01*
X171681505Y-90568598D01*
X171551575Y-90754159D01*
X171496998Y-90797784D01*
X171427500Y-90804978D01*
X171365145Y-90773455D01*
X171348425Y-90754159D01*
X171218494Y-90568598D01*
X171051404Y-90401508D01*
X171051403Y-90401507D01*
X171051401Y-90401505D01*
X170857830Y-90265965D01*
X170643663Y-90166097D01*
X170582502Y-90149709D01*
X170415407Y-90104936D01*
X170179999Y-90084340D01*
X169944592Y-90104936D01*
X169716336Y-90166097D01*
X169502170Y-90265965D01*
X169308598Y-90401505D01*
X169141505Y-90568598D01*
X169005965Y-90762170D01*
X168906097Y-90976336D01*
X168844936Y-91204592D01*
X168824340Y-91440000D01*
X76200500Y-91440000D01*
X76200500Y-89109578D01*
X146059500Y-89109578D01*
X146059501Y-89112872D01*
X146065909Y-89172483D01*
X146116204Y-89307331D01*
X146202454Y-89422546D01*
X146317669Y-89508796D01*
X146452517Y-89559091D01*
X146512127Y-89565500D01*
X148207872Y-89565499D01*
X148267483Y-89559091D01*
X148402331Y-89508796D01*
X148517546Y-89422546D01*
X148603796Y-89307331D01*
X148654091Y-89172483D01*
X148660500Y-89112873D01*
X148660500Y-89109578D01*
X158679500Y-89109578D01*
X158679501Y-89112872D01*
X158685909Y-89172483D01*
X158736204Y-89307331D01*
X158822454Y-89422546D01*
X158937669Y-89508796D01*
X159072517Y-89559091D01*
X159132127Y-89565500D01*
X160827872Y-89565499D01*
X160887483Y-89559091D01*
X161022331Y-89508796D01*
X161137546Y-89422546D01*
X161223796Y-89307331D01*
X161274091Y-89172483D01*
X161280500Y-89112873D01*
X161280499Y-87417128D01*
X161274091Y-87357517D01*
X161223796Y-87222669D01*
X161137546Y-87107454D01*
X161022331Y-87021204D01*
X160887483Y-86970909D01*
X160827873Y-86964500D01*
X160824550Y-86964500D01*
X159135439Y-86964500D01*
X159135420Y-86964500D01*
X159132128Y-86964501D01*
X159128848Y-86964853D01*
X159128840Y-86964854D01*
X159072515Y-86970909D01*
X158937669Y-87021204D01*
X158822454Y-87107454D01*
X158736204Y-87222668D01*
X158685910Y-87357515D01*
X158685909Y-87357517D01*
X158679500Y-87417127D01*
X158679500Y-87420448D01*
X158679500Y-87420449D01*
X158679500Y-89109560D01*
X158679500Y-89109578D01*
X148660500Y-89109578D01*
X148660499Y-87417128D01*
X148654091Y-87357517D01*
X148603796Y-87222669D01*
X148517546Y-87107454D01*
X148402331Y-87021204D01*
X148267483Y-86970909D01*
X148207873Y-86964500D01*
X148204550Y-86964500D01*
X146515439Y-86964500D01*
X146515420Y-86964500D01*
X146512128Y-86964501D01*
X146508848Y-86964853D01*
X146508840Y-86964854D01*
X146452515Y-86970909D01*
X146317669Y-87021204D01*
X146202454Y-87107454D01*
X146116204Y-87222668D01*
X146065910Y-87357515D01*
X146065909Y-87357517D01*
X146059500Y-87417127D01*
X146059500Y-87420448D01*
X146059500Y-87420449D01*
X146059500Y-89109560D01*
X146059500Y-89109578D01*
X76200500Y-89109578D01*
X76200500Y-88524578D01*
X77389500Y-88524578D01*
X77389501Y-88527872D01*
X77395909Y-88587483D01*
X77446204Y-88722331D01*
X77532454Y-88837546D01*
X77647669Y-88923796D01*
X77782517Y-88974091D01*
X77842127Y-88980500D01*
X79637872Y-88980499D01*
X79697483Y-88974091D01*
X79832331Y-88923796D01*
X79947546Y-88837546D01*
X80033796Y-88722331D01*
X80084091Y-88587483D01*
X80090500Y-88527873D01*
X80090499Y-86732128D01*
X80084091Y-86672517D01*
X80033796Y-86537669D01*
X79947546Y-86422454D01*
X79832331Y-86336204D01*
X79697483Y-86285909D01*
X79637873Y-86279500D01*
X79634550Y-86279500D01*
X77845439Y-86279500D01*
X77845420Y-86279500D01*
X77842128Y-86279501D01*
X77838848Y-86279853D01*
X77838840Y-86279854D01*
X77782515Y-86285909D01*
X77647669Y-86336204D01*
X77532454Y-86422454D01*
X77446204Y-86537668D01*
X77395910Y-86672515D01*
X77395909Y-86672517D01*
X77389500Y-86732127D01*
X77389500Y-86735448D01*
X77389500Y-86735449D01*
X77389500Y-88524560D01*
X77389500Y-88524578D01*
X76200500Y-88524578D01*
X76200500Y-85184578D01*
X99899500Y-85184578D01*
X99899501Y-85187872D01*
X99905909Y-85247483D01*
X99956204Y-85382331D01*
X100042454Y-85497546D01*
X100157669Y-85583796D01*
X100292517Y-85634091D01*
X100352127Y-85640500D01*
X102847872Y-85640499D01*
X102907483Y-85634091D01*
X103042331Y-85583796D01*
X103157546Y-85497546D01*
X103243796Y-85382331D01*
X103294091Y-85247483D01*
X103300500Y-85187873D01*
X103300500Y-85184578D01*
X117909500Y-85184578D01*
X117909501Y-85187872D01*
X117915909Y-85247483D01*
X117966204Y-85382331D01*
X118052454Y-85497546D01*
X118167669Y-85583796D01*
X118302517Y-85634091D01*
X118362127Y-85640500D01*
X120857872Y-85640499D01*
X120917483Y-85634091D01*
X121052331Y-85583796D01*
X121167546Y-85497546D01*
X121253796Y-85382331D01*
X121304091Y-85247483D01*
X121310500Y-85187873D01*
X121310500Y-85184578D01*
X135459500Y-85184578D01*
X135459501Y-85187872D01*
X135465909Y-85247483D01*
X135516204Y-85382331D01*
X135602454Y-85497546D01*
X135717669Y-85583796D01*
X135852517Y-85634091D01*
X135912127Y-85640500D01*
X138407872Y-85640499D01*
X138467483Y-85634091D01*
X138602331Y-85583796D01*
X138717546Y-85497546D01*
X138803796Y-85382331D01*
X138854091Y-85247483D01*
X138860500Y-85187873D01*
X138860500Y-84964578D01*
X163499500Y-84964578D01*
X163499501Y-84967872D01*
X163505909Y-85027483D01*
X163556204Y-85162331D01*
X163642454Y-85277546D01*
X163757669Y-85363796D01*
X163892517Y-85414091D01*
X163952127Y-85420500D01*
X166247872Y-85420499D01*
X166307483Y-85414091D01*
X166442331Y-85363796D01*
X166557546Y-85277546D01*
X166643796Y-85162331D01*
X166694091Y-85027483D01*
X166700500Y-84967873D01*
X166700499Y-82672128D01*
X166694091Y-82612517D01*
X166643796Y-82477669D01*
X166557546Y-82362454D01*
X166442331Y-82276204D01*
X166307483Y-82225909D01*
X166247873Y-82219500D01*
X166244550Y-82219500D01*
X163955439Y-82219500D01*
X163955420Y-82219500D01*
X163952128Y-82219501D01*
X163948848Y-82219853D01*
X163948840Y-82219854D01*
X163892515Y-82225909D01*
X163757669Y-82276204D01*
X163642454Y-82362454D01*
X163556204Y-82477668D01*
X163505909Y-82612516D01*
X163500789Y-82660142D01*
X163499500Y-82672127D01*
X163499500Y-82675448D01*
X163499500Y-82675449D01*
X163499500Y-84964560D01*
X163499500Y-84964578D01*
X138860500Y-84964578D01*
X138860499Y-83594578D01*
X148407000Y-83594578D01*
X148407001Y-83597872D01*
X148407353Y-83601152D01*
X148407354Y-83601159D01*
X148411866Y-83643130D01*
X148413409Y-83657483D01*
X148463704Y-83792331D01*
X148549954Y-83907546D01*
X148665169Y-83993796D01*
X148800017Y-84044091D01*
X148859627Y-84050500D01*
X150860372Y-84050499D01*
X150919983Y-84044091D01*
X151054831Y-83993796D01*
X151170046Y-83907546D01*
X151256296Y-83792331D01*
X151306591Y-83657483D01*
X151313000Y-83597873D01*
X151313000Y-82657600D01*
X153487000Y-82657600D01*
X153490246Y-82696770D01*
X153501905Y-82837477D01*
X153561017Y-83070906D01*
X153589380Y-83135567D01*
X153657745Y-83291422D01*
X153789449Y-83493010D01*
X153952537Y-83670171D01*
X154142561Y-83818072D01*
X154354336Y-83932679D01*
X154582087Y-84010866D01*
X154819601Y-84050500D01*
X155060399Y-84050500D01*
X155297913Y-84010866D01*
X155525664Y-83932679D01*
X155737439Y-83818072D01*
X155927463Y-83670171D01*
X156090551Y-83493010D01*
X156222255Y-83291422D01*
X156318983Y-83070905D01*
X156378095Y-82837476D01*
X156393000Y-82657600D01*
X156393000Y-82442400D01*
X156378095Y-82262524D01*
X156318983Y-82029095D01*
X156222255Y-81808578D01*
X156090551Y-81606990D01*
X155927463Y-81429829D01*
X155737439Y-81281928D01*
X155525664Y-81167321D01*
X155525660Y-81167319D01*
X155525659Y-81167319D01*
X155297915Y-81089134D01*
X155060399Y-81049500D01*
X154819601Y-81049500D01*
X154582084Y-81089134D01*
X154354340Y-81167319D01*
X154354336Y-81167320D01*
X154354336Y-81167321D01*
X154213152Y-81243725D01*
X154142559Y-81281929D01*
X153952536Y-81429829D01*
X153789448Y-81606991D01*
X153657745Y-81808577D01*
X153561017Y-82029093D01*
X153501905Y-82262522D01*
X153501904Y-82262524D01*
X153501905Y-82262524D01*
X153487000Y-82442400D01*
X153487000Y-82657600D01*
X151313000Y-82657600D01*
X151312999Y-81502128D01*
X151306591Y-81442517D01*
X151256296Y-81307669D01*
X151170046Y-81192454D01*
X151054831Y-81106204D01*
X150919983Y-81055909D01*
X150860373Y-81049500D01*
X150857050Y-81049500D01*
X148862939Y-81049500D01*
X148862920Y-81049500D01*
X148859628Y-81049501D01*
X148856348Y-81049853D01*
X148856340Y-81049854D01*
X148800015Y-81055909D01*
X148665169Y-81106204D01*
X148549954Y-81192454D01*
X148463704Y-81307668D01*
X148413410Y-81442515D01*
X148413409Y-81442517D01*
X148407000Y-81502127D01*
X148407000Y-81505448D01*
X148407000Y-81505449D01*
X148407000Y-83594560D01*
X148407000Y-83594578D01*
X138860499Y-83594578D01*
X138860499Y-82692128D01*
X138854091Y-82632517D01*
X138803796Y-82497669D01*
X138717546Y-82382454D01*
X138602331Y-82296204D01*
X138467483Y-82245909D01*
X138407873Y-82239500D01*
X138404550Y-82239500D01*
X135915439Y-82239500D01*
X135915420Y-82239500D01*
X135912128Y-82239501D01*
X135908848Y-82239853D01*
X135908840Y-82239854D01*
X135852515Y-82245909D01*
X135717669Y-82296204D01*
X135602454Y-82382454D01*
X135516204Y-82497668D01*
X135465909Y-82632516D01*
X135463489Y-82655030D01*
X135459500Y-82692127D01*
X135459500Y-82695448D01*
X135459500Y-82695449D01*
X135459500Y-85184560D01*
X135459500Y-85184578D01*
X121310500Y-85184578D01*
X121310499Y-82692128D01*
X121304091Y-82632517D01*
X121253796Y-82497669D01*
X121167546Y-82382454D01*
X121052331Y-82296204D01*
X120917483Y-82245909D01*
X120857873Y-82239500D01*
X120854550Y-82239500D01*
X118365439Y-82239500D01*
X118365420Y-82239500D01*
X118362128Y-82239501D01*
X118358848Y-82239853D01*
X118358840Y-82239854D01*
X118302515Y-82245909D01*
X118167669Y-82296204D01*
X118052454Y-82382454D01*
X117966204Y-82497668D01*
X117915909Y-82632516D01*
X117913489Y-82655030D01*
X117909500Y-82692127D01*
X117909500Y-82695448D01*
X117909500Y-82695449D01*
X117909500Y-85184560D01*
X117909500Y-85184578D01*
X103300500Y-85184578D01*
X103300499Y-82692128D01*
X103294091Y-82632517D01*
X103243796Y-82497669D01*
X103157546Y-82382454D01*
X103042331Y-82296204D01*
X102907483Y-82245909D01*
X102847873Y-82239500D01*
X102844550Y-82239500D01*
X100355439Y-82239500D01*
X100355420Y-82239500D01*
X100352128Y-82239501D01*
X100348848Y-82239853D01*
X100348840Y-82239854D01*
X100292515Y-82245909D01*
X100157669Y-82296204D01*
X100042454Y-82382454D01*
X99956204Y-82497668D01*
X99905909Y-82632516D01*
X99903489Y-82655030D01*
X99899500Y-82692127D01*
X99899500Y-82695448D01*
X99899500Y-82695449D01*
X99899500Y-85184560D01*
X99899500Y-85184578D01*
X76200500Y-85184578D01*
X76200500Y-82015308D01*
X76220185Y-81948269D01*
X76272989Y-81902514D01*
X76342147Y-81892570D01*
X76405703Y-81921595D01*
X76442430Y-81976989D01*
X76503659Y-82165430D01*
X76632267Y-82438736D01*
X76634349Y-82442017D01*
X76634352Y-82442022D01*
X76792024Y-82690474D01*
X76792028Y-82690480D01*
X76794115Y-82693768D01*
X76986651Y-82926504D01*
X77206838Y-83133274D01*
X77451205Y-83310816D01*
X77715896Y-83456332D01*
X77996738Y-83567525D01*
X78289302Y-83642642D01*
X78588973Y-83680500D01*
X78592867Y-83680500D01*
X78887133Y-83680500D01*
X78891027Y-83680500D01*
X79190698Y-83642642D01*
X79483262Y-83567525D01*
X79764104Y-83456332D01*
X80028795Y-83310816D01*
X80273162Y-83133274D01*
X80493349Y-82926504D01*
X80685885Y-82693768D01*
X80847733Y-82438736D01*
X80976341Y-82165430D01*
X81069681Y-81878160D01*
X81126280Y-81581457D01*
X81145246Y-81280000D01*
X81126280Y-80978543D01*
X81069681Y-80681840D01*
X81057711Y-80645000D01*
X81579551Y-80645000D01*
X81599317Y-80896149D01*
X81658126Y-81141110D01*
X81668983Y-81167321D01*
X81754534Y-81373859D01*
X81886164Y-81588659D01*
X82049776Y-81780224D01*
X82241341Y-81943836D01*
X82456141Y-82075466D01*
X82688889Y-82171873D01*
X82933852Y-82230683D01*
X83185000Y-82250449D01*
X83436148Y-82230683D01*
X83681111Y-82171873D01*
X83913859Y-82075466D01*
X84128659Y-81943836D01*
X84309272Y-81789578D01*
X91744500Y-81789578D01*
X91744501Y-81792872D01*
X91750909Y-81852483D01*
X91801204Y-81987331D01*
X91887454Y-82102546D01*
X92002669Y-82188796D01*
X92137517Y-82239091D01*
X92197127Y-82245500D01*
X94492872Y-82245499D01*
X94552483Y-82239091D01*
X94687331Y-82188796D01*
X94802546Y-82102546D01*
X94888796Y-81987331D01*
X94939091Y-81852483D01*
X94945500Y-81792873D01*
X94945499Y-79497128D01*
X94939091Y-79437517D01*
X94888796Y-79302669D01*
X94802546Y-79187454D01*
X94687331Y-79101204D01*
X94552483Y-79050909D01*
X94492873Y-79044500D01*
X94489550Y-79044500D01*
X92200439Y-79044500D01*
X92200420Y-79044500D01*
X92197128Y-79044501D01*
X92193848Y-79044853D01*
X92193840Y-79044854D01*
X92137515Y-79050909D01*
X92002669Y-79101204D01*
X91887454Y-79187454D01*
X91801204Y-79302668D01*
X91750910Y-79437515D01*
X91750909Y-79437517D01*
X91744500Y-79497127D01*
X91744500Y-79500448D01*
X91744500Y-79500449D01*
X91744500Y-81789560D01*
X91744500Y-81789578D01*
X84309272Y-81789578D01*
X84320224Y-81780224D01*
X84483836Y-81588659D01*
X84615466Y-81373859D01*
X84711873Y-81141111D01*
X84770683Y-80896148D01*
X84790449Y-80645000D01*
X84770683Y-80393852D01*
X84711873Y-80148889D01*
X84615466Y-79916141D01*
X84483836Y-79701341D01*
X84320224Y-79509776D01*
X84128659Y-79346164D01*
X83913859Y-79214534D01*
X83797485Y-79166330D01*
X83681110Y-79118126D01*
X83436149Y-79059317D01*
X83247882Y-79044500D01*
X83185000Y-79039551D01*
X83184999Y-79039551D01*
X82933850Y-79059317D01*
X82688889Y-79118126D01*
X82456139Y-79214535D01*
X82241342Y-79346163D01*
X82049776Y-79509776D01*
X81886163Y-79701342D01*
X81754535Y-79916139D01*
X81658126Y-80148889D01*
X81599317Y-80393850D01*
X81579551Y-80645000D01*
X81057711Y-80645000D01*
X80976341Y-80394570D01*
X80847733Y-80121264D01*
X80685885Y-79866232D01*
X80493349Y-79633496D01*
X80273162Y-79426726D01*
X80028795Y-79249184D01*
X80025391Y-79247313D01*
X80025387Y-79247310D01*
X79767521Y-79105546D01*
X79767514Y-79105542D01*
X79764104Y-79103668D01*
X79760478Y-79102232D01*
X79760473Y-79102230D01*
X79486890Y-78993911D01*
X79486884Y-78993909D01*
X79483262Y-78992475D01*
X79479484Y-78991505D01*
X79479481Y-78991504D01*
X79452606Y-78984604D01*
X79392568Y-78948866D01*
X79361382Y-78886343D01*
X79368950Y-78816884D01*
X79412868Y-78762543D01*
X79479194Y-78740573D01*
X79483443Y-78740500D01*
X171976557Y-78740500D01*
X172043596Y-78760185D01*
G37*
%TD.AperFunction*%
%TD*%
M02*
