%TF.GenerationSoftware,KiCad,Pcbnew,7.0.2*%
%TF.CreationDate,2023-06-20T09:22:34-04:00*%
%TF.ProjectId,Power supply,506f7765-7220-4737-9570-706c792e6b69,rev?*%
%TF.SameCoordinates,Original*%
%TF.FileFunction,Copper,L1,Top*%
%TF.FilePolarity,Positive*%
%FSLAX46Y46*%
G04 Gerber Fmt 4.6, Leading zero omitted, Abs format (unit mm)*
G04 Created by KiCad (PCBNEW 7.0.2) date 2023-06-20 09:22:34*
%MOMM*%
%LPD*%
G01*
G04 APERTURE LIST*
%TA.AperFunction,ComponentPad*%
%ADD10R,1.700000X1.700000*%
%TD*%
%TA.AperFunction,ComponentPad*%
%ADD11R,2.200000X2.200000*%
%TD*%
%TA.AperFunction,ComponentPad*%
%ADD12O,2.200000X2.200000*%
%TD*%
%TA.AperFunction,ComponentPad*%
%ADD13R,2.400000X2.400000*%
%TD*%
%TA.AperFunction,ComponentPad*%
%ADD14C,2.400000*%
%TD*%
%TA.AperFunction,ComponentPad*%
%ADD15R,1.905000X2.000000*%
%TD*%
%TA.AperFunction,ComponentPad*%
%ADD16O,1.905000X2.000000*%
%TD*%
%TA.AperFunction,ComponentPad*%
%ADD17C,1.700000*%
%TD*%
%TA.AperFunction,ComponentPad*%
%ADD18O,1.700000X1.700000*%
%TD*%
%TA.AperFunction,ComponentPad*%
%ADD19R,1.600000X1.600000*%
%TD*%
%TA.AperFunction,ComponentPad*%
%ADD20C,1.600000*%
%TD*%
%TA.AperFunction,ComponentPad*%
%ADD21C,2.600000*%
%TD*%
%TA.AperFunction,ConnectorPad*%
%ADD22C,3.800000*%
%TD*%
%TA.AperFunction,ComponentPad*%
%ADD23R,2.000000X4.000000*%
%TD*%
%TA.AperFunction,ComponentPad*%
%ADD24O,2.000000X3.300000*%
%TD*%
%TA.AperFunction,Conductor*%
%ADD25C,2.000000*%
%TD*%
%TA.AperFunction,Conductor*%
%ADD26C,3.000000*%
%TD*%
G04 APERTURE END LIST*
D10*
%TO.P,J5,1,Pin_1*%
%TO.N,GND*%
X78740000Y-104140000D03*
%TD*%
D11*
%TO.P,D6,1,K*%
%TO.N,-12V*%
X157480000Y-99060000D03*
D12*
%TO.P,D6,2,A*%
%TO.N,Net-(D4-A)*%
X147320000Y-99060000D03*
%TD*%
D13*
%TO.P,C5,1*%
%TO.N,Net-(D1-K)*%
X101600000Y-83940000D03*
D14*
%TO.P,C5,2*%
%TO.N,GND*%
X101600000Y-91440000D03*
%TD*%
D15*
%TO.P,U1,1,VI*%
%TO.N,Net-(D1-K)*%
X149860000Y-82550000D03*
D16*
%TO.P,U1,2,GND*%
%TO.N,GND*%
X152400000Y-82550000D03*
%TO.P,U1,3,VO*%
%TO.N,+12V*%
X154940000Y-82550000D03*
%TD*%
D11*
%TO.P,D2,1,K*%
%TO.N,Net-(D1-K)*%
X93345000Y-80645000D03*
D12*
%TO.P,D2,2,A*%
%TO.N,+12VA*%
X83185000Y-80645000D03*
%TD*%
D11*
%TO.P,D4,1,K*%
%TO.N,+12VA*%
X83185000Y-112395000D03*
D12*
%TO.P,D4,2,A*%
%TO.N,Net-(D4-A)*%
X93345000Y-112395000D03*
%TD*%
D15*
%TO.P,U2,1,GND*%
%TO.N,GND*%
X154940000Y-110815000D03*
D16*
%TO.P,U2,2,VI*%
%TO.N,Net-(D4-A)*%
X152400000Y-110815000D03*
%TO.P,U2,3,VO*%
%TO.N,-12V*%
X149860000Y-110815000D03*
%TD*%
D11*
%TO.P,D5,1,K*%
%TO.N,GND*%
X165100000Y-101600000D03*
D12*
%TO.P,D5,2,A*%
%TO.N,-12V*%
X165100000Y-111760000D03*
%TD*%
D17*
%TO.P,REF\u002A\u002A,1*%
%TO.N,+12V*%
X172720000Y-91440000D03*
D18*
%TO.P,REF\u002A\u002A,2*%
X170180000Y-91440000D03*
%TO.P,REF\u002A\u002A,3*%
%TO.N,GND*%
X172720000Y-93980000D03*
%TO.P,REF\u002A\u002A,4*%
X170180000Y-93980000D03*
%TO.P,REF\u002A\u002A,5*%
X172720000Y-96520000D03*
%TO.P,REF\u002A\u002A,6*%
X170180000Y-96520000D03*
%TO.P,REF\u002A\u002A,7*%
X172720000Y-99060000D03*
%TO.P,REF\u002A\u002A,8*%
X170180000Y-99060000D03*
%TO.P,REF\u002A\u002A,9*%
%TO.N,-12V*%
X172720000Y-101600000D03*
%TO.P,REF\u002A\u002A,10*%
X170180000Y-101600000D03*
%TD*%
D19*
%TO.P,C10,1*%
%TO.N,GND*%
X155060000Y-104775000D03*
D20*
%TO.P,C10,2*%
%TO.N,-12V*%
X160060000Y-104775000D03*
%TD*%
D13*
%TO.P,C3,1*%
%TO.N,Net-(D1-K)*%
X137160000Y-83940000D03*
D14*
%TO.P,C3,2*%
%TO.N,GND*%
X137160000Y-91440000D03*
%TD*%
D21*
%TO.P,REF\u002A\u002A,1*%
%TO.N,N/C*%
X78740000Y-111760000D03*
D22*
X78740000Y-111760000D03*
%TD*%
D13*
%TO.P,C7,1*%
%TO.N,GND*%
X119380000Y-101720000D03*
D14*
%TO.P,C7,2*%
%TO.N,Net-(D4-A)*%
X119380000Y-109220000D03*
%TD*%
D13*
%TO.P,C8,1*%
%TO.N,GND*%
X137160000Y-101720000D03*
D14*
%TO.P,C8,2*%
%TO.N,Net-(D4-A)*%
X137160000Y-109220000D03*
%TD*%
D19*
%TO.P,C9,1*%
%TO.N,GND*%
X152360000Y-104775000D03*
D20*
%TO.P,C9,2*%
%TO.N,Net-(D4-A)*%
X147360000Y-104775000D03*
%TD*%
D13*
%TO.P,C4,1*%
%TO.N,Net-(D1-K)*%
X119610000Y-83940000D03*
D14*
%TO.P,C4,2*%
%TO.N,GND*%
X119610000Y-91440000D03*
%TD*%
D10*
%TO.P,J4,1,Pin_1*%
%TO.N,+12VA*%
X78740000Y-87630000D03*
%TD*%
D13*
%TO.P,C6,1*%
%TO.N,GND*%
X101600000Y-101720000D03*
D14*
%TO.P,C6,2*%
%TO.N,Net-(D4-A)*%
X101600000Y-109220000D03*
%TD*%
D11*
%TO.P,D1,1,K*%
%TO.N,Net-(D1-K)*%
X147320000Y-93980000D03*
D12*
%TO.P,D1,2,A*%
%TO.N,+12V*%
X157480000Y-93980000D03*
%TD*%
D21*
%TO.P,REF\u002A\u002A,1*%
%TO.N,N/C*%
X172720000Y-81280000D03*
D22*
X172720000Y-81280000D03*
%TD*%
D19*
%TO.P,C2,1*%
%TO.N,Net-(D1-K)*%
X147360000Y-88265000D03*
D20*
%TO.P,C2,2*%
%TO.N,GND*%
X152360000Y-88265000D03*
%TD*%
D21*
%TO.P,REF\u002A\u002A,1*%
%TO.N,N/C*%
X172720000Y-111760000D03*
D22*
X172720000Y-111760000D03*
%TD*%
D19*
%TO.P,C1,1*%
%TO.N,+12V*%
X159980000Y-88265000D03*
D20*
%TO.P,C1,2*%
%TO.N,GND*%
X154980000Y-88265000D03*
%TD*%
D11*
%TO.P,D3,1,K*%
%TO.N,+12V*%
X165100000Y-83820000D03*
D12*
%TO.P,D3,2,A*%
%TO.N,GND*%
X165100000Y-93980000D03*
%TD*%
D23*
%TO.P,REF\u002A\u002A,1*%
%TO.N,+12VA*%
X88915000Y-95885000D03*
D24*
%TO.P,REF\u002A\u002A,2*%
%TO.N,GND*%
X82915000Y-95885000D03*
%TD*%
D21*
%TO.P,REF\u002A\u002A,1*%
%TO.N,N/C*%
X78740000Y-81280000D03*
D22*
X78740000Y-81280000D03*
%TD*%
D25*
%TO.N,+12V*%
X170180000Y-91440000D02*
X172720000Y-91440000D01*
X160655000Y-88265000D02*
X165100000Y-83820000D01*
X154940000Y-83225000D02*
X159980000Y-88265000D01*
D26*
X170180000Y-88900000D02*
X170180000Y-91430000D01*
D25*
X159980000Y-88265000D02*
X159980000Y-91480000D01*
D26*
X165100000Y-83820000D02*
X170180000Y-88900000D01*
D25*
X154940000Y-82550000D02*
X154940000Y-83225000D01*
X159980000Y-91480000D02*
X157480000Y-93980000D01*
X159980000Y-88265000D02*
X160655000Y-88265000D01*
D26*
%TO.N,Net-(D1-K)*%
X147360000Y-88265000D02*
X149747500Y-85877500D01*
X101600000Y-83940000D02*
X96640000Y-83940000D01*
X119610000Y-83940000D02*
X137160000Y-83940000D01*
X101600000Y-83940000D02*
X119610000Y-83940000D01*
X149747500Y-85877500D02*
X149747500Y-82550000D01*
X147360000Y-93940000D02*
X147320000Y-93980000D01*
X147360000Y-88265000D02*
X147360000Y-93940000D01*
X143035000Y-83940000D02*
X147360000Y-88265000D01*
X137160000Y-83940000D02*
X143035000Y-83940000D01*
X101480000Y-83820000D02*
X101600000Y-83940000D01*
X96640000Y-83940000D02*
X93345000Y-80645000D01*
%TO.N,Net-(D4-A)*%
X93345000Y-112395000D02*
X98425000Y-112395000D01*
D25*
X146725000Y-113030000D02*
X142915000Y-109220000D01*
D26*
X147360000Y-99100000D02*
X147320000Y-99060000D01*
D25*
X150736595Y-113030000D02*
X146725000Y-113030000D01*
X152400000Y-111366595D02*
X150736595Y-113030000D01*
D26*
X137160000Y-109220000D02*
X142915000Y-109220000D01*
X142915000Y-109220000D02*
X147360000Y-104775000D01*
X101600000Y-109220000D02*
X119380000Y-109220000D01*
X147360000Y-104775000D02*
X147360000Y-99100000D01*
X137160000Y-109220000D02*
X119380000Y-109220000D01*
D25*
X152400000Y-110815000D02*
X152400000Y-111366595D01*
D26*
X98425000Y-112395000D02*
X101600000Y-109220000D01*
D25*
%TO.N,-12V*%
X157480000Y-99060000D02*
X157480000Y-102195000D01*
X160060000Y-104775000D02*
X163185000Y-104775000D01*
X157480000Y-102195000D02*
X160060000Y-104775000D01*
X157520000Y-107315000D02*
X149860000Y-107315000D01*
X160060000Y-104775000D02*
X157520000Y-107315000D01*
X163185000Y-104775000D02*
X165100000Y-106690000D01*
X149860000Y-110795325D02*
X149850162Y-110805163D01*
X170180000Y-101600000D02*
X172720000Y-101600000D01*
D26*
X165100000Y-106690000D02*
X170180000Y-101610000D01*
X165100000Y-111760000D02*
X165100000Y-106690000D01*
D25*
X149860000Y-107315000D02*
X149860000Y-110795325D01*
D26*
%TO.N,+12VA*%
X83185000Y-112395000D02*
X83185000Y-101615000D01*
X83185000Y-80645000D02*
X83185000Y-83185000D01*
X80660000Y-87630000D02*
X78740000Y-87630000D01*
X83185000Y-83185000D02*
X78740000Y-87630000D01*
X88915000Y-95885000D02*
X80660000Y-87630000D01*
X83185000Y-101615000D02*
X88915000Y-95885000D01*
%TD*%
%TA.AperFunction,Conductor*%
%TO.N,GND*%
G36*
X92252954Y-78760185D02*
G01*
X92298709Y-78812989D01*
X92308653Y-78882147D01*
X92279628Y-78945703D01*
X92252955Y-78968815D01*
X92143080Y-79039427D01*
X92140925Y-79041295D01*
X92103061Y-79063760D01*
X92002669Y-79101204D01*
X91887454Y-79187454D01*
X91801204Y-79302669D01*
X91763760Y-79403061D01*
X91741295Y-79440925D01*
X91739424Y-79443083D01*
X91584718Y-79683811D01*
X91465843Y-79944110D01*
X91385225Y-80218674D01*
X91344500Y-80501921D01*
X91344500Y-80788078D01*
X91385225Y-81071325D01*
X91465843Y-81345889D01*
X91584716Y-81606184D01*
X91739425Y-81846916D01*
X91741291Y-81849069D01*
X91763759Y-81886937D01*
X91801204Y-81987331D01*
X91887454Y-82102546D01*
X92002669Y-82188796D01*
X92068290Y-82213271D01*
X92112636Y-82241770D01*
X93756754Y-83885889D01*
X95275954Y-85405089D01*
X95275968Y-85405102D01*
X95326601Y-85455736D01*
X95380399Y-85496008D01*
X95387292Y-85501563D01*
X95438083Y-85545574D01*
X95494651Y-85581928D01*
X95501870Y-85586941D01*
X95555685Y-85627226D01*
X95599586Y-85651198D01*
X95614671Y-85659435D01*
X95622267Y-85663941D01*
X95678814Y-85700282D01*
X95727883Y-85722690D01*
X95739946Y-85728200D01*
X95747845Y-85732153D01*
X95806839Y-85764367D01*
X95806842Y-85764368D01*
X95869808Y-85787854D01*
X95877982Y-85791239D01*
X95939112Y-85819156D01*
X96003605Y-85838092D01*
X96011963Y-85840874D01*
X96074954Y-85864369D01*
X96140648Y-85878659D01*
X96149169Y-85880834D01*
X96213678Y-85899776D01*
X96213681Y-85899776D01*
X96213683Y-85899777D01*
X96245907Y-85904409D01*
X96280199Y-85909339D01*
X96288881Y-85910905D01*
X96354572Y-85925196D01*
X96354577Y-85925197D01*
X96397330Y-85928253D01*
X96421601Y-85929989D01*
X96430379Y-85930932D01*
X96496921Y-85940500D01*
X96568552Y-85940500D01*
X101456921Y-85940500D01*
X101528552Y-85940500D01*
X119538552Y-85940500D01*
X137088552Y-85940500D01*
X142155004Y-85940500D01*
X142222043Y-85960185D01*
X142242685Y-85976818D01*
X145323182Y-89057316D01*
X145356666Y-89118637D01*
X145359500Y-89144995D01*
X145359500Y-93549850D01*
X145358238Y-93567497D01*
X145319500Y-93836921D01*
X145319500Y-94123078D01*
X145360225Y-94406325D01*
X145440843Y-94680889D01*
X145559716Y-94941184D01*
X145714425Y-95181916D01*
X145716291Y-95184069D01*
X145738760Y-95221938D01*
X145776204Y-95322331D01*
X145862454Y-95437546D01*
X145977670Y-95523797D01*
X146069047Y-95557877D01*
X146078052Y-95561236D01*
X146078058Y-95561238D01*
X146115928Y-95583707D01*
X146118083Y-95585574D01*
X146263561Y-95679067D01*
X146358815Y-95740283D01*
X146619110Y-95859156D01*
X146893674Y-95939774D01*
X146893675Y-95939774D01*
X146893678Y-95939775D01*
X147176921Y-95980500D01*
X147176922Y-95980500D01*
X147463078Y-95980500D01*
X147463079Y-95980500D01*
X147746322Y-95939775D01*
X147825570Y-95916505D01*
X148020889Y-95859156D01*
X148164674Y-95793491D01*
X148281187Y-95740282D01*
X148521917Y-95585574D01*
X148524064Y-95583712D01*
X148561939Y-95561238D01*
X148662331Y-95523796D01*
X148777546Y-95437546D01*
X148863796Y-95322331D01*
X148896949Y-95233440D01*
X148913857Y-95202473D01*
X148916018Y-95199586D01*
X148921562Y-95192708D01*
X148965574Y-95141917D01*
X149001926Y-95085350D01*
X149006932Y-95078139D01*
X149047226Y-95024315D01*
X149079438Y-94965321D01*
X149083945Y-94957728D01*
X149120283Y-94901186D01*
X149148207Y-94840037D01*
X149152151Y-94832157D01*
X149184367Y-94773161D01*
X149207855Y-94710183D01*
X149211236Y-94702022D01*
X149219886Y-94683082D01*
X149239156Y-94640888D01*
X149258095Y-94576384D01*
X149260871Y-94568043D01*
X149284369Y-94505046D01*
X149290663Y-94476110D01*
X149298655Y-94439373D01*
X149300839Y-94430812D01*
X149319776Y-94366322D01*
X149329340Y-94299791D01*
X149330902Y-94291129D01*
X149345196Y-94225428D01*
X149349991Y-94158376D01*
X149350931Y-94149627D01*
X149360500Y-94083078D01*
X149360500Y-93796921D01*
X149360500Y-93796920D01*
X149360500Y-89144995D01*
X149380185Y-89077957D01*
X149396819Y-89057315D01*
X151218808Y-87235327D01*
X151218818Y-87235314D01*
X151263239Y-87190895D01*
X151303526Y-87137074D01*
X151309045Y-87130226D01*
X151353074Y-87079417D01*
X151389417Y-87022864D01*
X151394457Y-87015607D01*
X151404653Y-87001987D01*
X151434726Y-86961815D01*
X151466935Y-86902826D01*
X151471452Y-86895215D01*
X151507782Y-86838686D01*
X151535694Y-86777565D01*
X151539658Y-86769645D01*
X151571867Y-86710661D01*
X151595358Y-86647678D01*
X151598734Y-86639528D01*
X151626656Y-86578388D01*
X151645595Y-86513884D01*
X151648371Y-86505543D01*
X151671869Y-86442546D01*
X151675408Y-86426275D01*
X151686155Y-86376873D01*
X151688339Y-86368312D01*
X151707276Y-86303822D01*
X151716840Y-86237292D01*
X151718410Y-86228594D01*
X151732696Y-86162928D01*
X151737488Y-86095909D01*
X151738432Y-86087116D01*
X151748000Y-86020579D01*
X151748000Y-85734421D01*
X151748000Y-83162780D01*
X153435642Y-83162780D01*
X153439394Y-83253471D01*
X153439500Y-83258596D01*
X153439500Y-83287067D01*
X153439709Y-83289594D01*
X153439710Y-83289609D01*
X153441851Y-83315448D01*
X153442168Y-83320559D01*
X153445919Y-83411235D01*
X153450738Y-83434220D01*
X153452952Y-83449421D01*
X153454891Y-83472819D01*
X153477171Y-83560803D01*
X153478325Y-83565793D01*
X153496950Y-83654614D01*
X153505484Y-83676485D01*
X153510171Y-83691114D01*
X153515936Y-83713880D01*
X153552393Y-83796993D01*
X153554349Y-83801717D01*
X153566928Y-83833953D01*
X153587344Y-83886275D01*
X153599364Y-83906448D01*
X153606395Y-83920107D01*
X153615824Y-83941603D01*
X153615827Y-83941607D01*
X153665481Y-84017609D01*
X153668153Y-84021890D01*
X153714634Y-84099894D01*
X153729808Y-84117811D01*
X153738991Y-84130125D01*
X153751837Y-84149788D01*
X153813293Y-84216546D01*
X153816687Y-84220388D01*
X153835098Y-84242126D01*
X153836911Y-84243939D01*
X153855227Y-84262255D01*
X153858776Y-84265953D01*
X153920258Y-84332740D01*
X153938787Y-84347162D01*
X153950307Y-84357335D01*
X156205244Y-86612272D01*
X158443181Y-88850208D01*
X158476666Y-88911531D01*
X158479500Y-88937889D01*
X158479500Y-90807109D01*
X158459815Y-90874148D01*
X158443181Y-90894790D01*
X156832251Y-92505719D01*
X156792026Y-92532598D01*
X156751139Y-92549535D01*
X156536342Y-92681163D01*
X156344776Y-92844776D01*
X156181163Y-93036342D01*
X156049535Y-93251139D01*
X155953126Y-93483889D01*
X155894317Y-93728850D01*
X155874551Y-93980000D01*
X155894317Y-94231149D01*
X155953126Y-94476110D01*
X156001330Y-94592484D01*
X156049534Y-94708859D01*
X156181164Y-94923659D01*
X156344776Y-95115224D01*
X156536341Y-95278836D01*
X156751141Y-95410466D01*
X156983889Y-95506873D01*
X157228852Y-95565683D01*
X157480000Y-95585449D01*
X157731148Y-95565683D01*
X157976111Y-95506873D01*
X158208859Y-95410466D01*
X158423659Y-95278836D01*
X158615224Y-95115224D01*
X158778836Y-94923659D01*
X158910466Y-94708859D01*
X158927399Y-94667976D01*
X158954277Y-94627749D01*
X160969701Y-92612325D01*
X160981203Y-92602167D01*
X160999744Y-92587738D01*
X161061235Y-92520939D01*
X161064714Y-92517313D01*
X161084902Y-92497126D01*
X161103315Y-92475383D01*
X161106701Y-92471551D01*
X161168160Y-92404789D01*
X161168164Y-92404785D01*
X161181006Y-92385126D01*
X161190188Y-92372813D01*
X161205366Y-92354894D01*
X161251848Y-92276884D01*
X161254505Y-92272627D01*
X161304173Y-92196607D01*
X161313607Y-92175099D01*
X161320631Y-92161452D01*
X161332656Y-92141273D01*
X161365667Y-92056669D01*
X161367587Y-92052034D01*
X161404063Y-91968881D01*
X161409827Y-91946117D01*
X161414515Y-91931484D01*
X161415428Y-91929143D01*
X161423049Y-91909614D01*
X161441680Y-91820754D01*
X161442818Y-91815838D01*
X161465108Y-91727821D01*
X161467047Y-91704413D01*
X161469264Y-91689207D01*
X161474081Y-91666237D01*
X161477831Y-91575549D01*
X161478149Y-91570427D01*
X161478654Y-91564334D01*
X161480500Y-91542067D01*
X161480500Y-91513596D01*
X161480606Y-91508471D01*
X161480897Y-91501448D01*
X161484357Y-91417779D01*
X161481451Y-91394472D01*
X161480500Y-91379135D01*
X161480500Y-89589677D01*
X161500185Y-89522638D01*
X161524353Y-89495059D01*
X161529891Y-89490367D01*
X161529894Y-89490366D01*
X161547820Y-89475181D01*
X161560121Y-89466010D01*
X161579785Y-89453164D01*
X161579789Y-89453160D01*
X161579791Y-89453159D01*
X161646551Y-89391701D01*
X161650383Y-89388315D01*
X161672126Y-89369902D01*
X161692313Y-89349714D01*
X161695939Y-89346235D01*
X161762738Y-89284744D01*
X161777167Y-89266203D01*
X161787325Y-89254701D01*
X164658767Y-86383259D01*
X164720088Y-86349776D01*
X164789780Y-86354760D01*
X164834124Y-86383259D01*
X166507188Y-88056322D01*
X168143181Y-89692315D01*
X168176666Y-89753638D01*
X168179500Y-89779996D01*
X168179500Y-91501448D01*
X168179657Y-91503656D01*
X168179658Y-91503658D01*
X168194804Y-91715429D01*
X168255629Y-91995041D01*
X168355634Y-92263163D01*
X168492772Y-92514313D01*
X168519139Y-92549535D01*
X168664261Y-92743395D01*
X168866605Y-92945739D01*
X168987635Y-93036341D01*
X169095686Y-93117227D01*
X169235435Y-93193535D01*
X169346839Y-93254367D01*
X169614954Y-93354369D01*
X169614957Y-93354369D01*
X169614958Y-93354370D01*
X169662974Y-93364815D01*
X169894572Y-93415196D01*
X170180000Y-93435610D01*
X170465428Y-93415196D01*
X170745046Y-93354369D01*
X171013161Y-93254367D01*
X171264315Y-93117226D01*
X171467355Y-92965232D01*
X171532818Y-92940816D01*
X171541664Y-92940500D01*
X172779497Y-92940500D01*
X172782067Y-92940500D01*
X172967821Y-92925108D01*
X173208881Y-92864063D01*
X173436607Y-92764173D01*
X173644785Y-92628164D01*
X173827738Y-92459744D01*
X173980474Y-92263509D01*
X174098828Y-92044810D01*
X174179571Y-91809614D01*
X174220500Y-91564335D01*
X174220500Y-91315665D01*
X174179571Y-91070386D01*
X174098828Y-90835190D01*
X173980474Y-90616491D01*
X173980471Y-90616487D01*
X173980470Y-90616485D01*
X173827740Y-90420259D01*
X173827738Y-90420256D01*
X173644785Y-90251836D01*
X173436607Y-90115827D01*
X173436604Y-90115825D01*
X173311523Y-90060960D01*
X173208881Y-90015937D01*
X173028867Y-89970351D01*
X172967822Y-89954892D01*
X172933854Y-89952077D01*
X172782067Y-89939500D01*
X172779497Y-89939500D01*
X172304500Y-89939500D01*
X172237461Y-89919815D01*
X172191706Y-89867011D01*
X172180500Y-89815500D01*
X172180500Y-88756924D01*
X172180500Y-88756921D01*
X172170932Y-88690379D01*
X172169988Y-88681591D01*
X172165197Y-88614577D01*
X172165196Y-88614572D01*
X172150905Y-88548881D01*
X172149338Y-88540191D01*
X172147881Y-88530058D01*
X172139776Y-88473678D01*
X172120834Y-88409169D01*
X172118659Y-88400648D01*
X172104369Y-88334954D01*
X172080874Y-88271963D01*
X172078092Y-88263605D01*
X172059156Y-88199112D01*
X172031239Y-88137982D01*
X172027854Y-88129808D01*
X172004368Y-88066842D01*
X172004367Y-88066839D01*
X171972153Y-88007845D01*
X171968200Y-87999946D01*
X171959591Y-87981096D01*
X171940282Y-87938814D01*
X171903941Y-87882267D01*
X171899435Y-87874671D01*
X171880281Y-87839594D01*
X171867226Y-87815685D01*
X171826941Y-87761870D01*
X171821928Y-87754651D01*
X171785574Y-87698083D01*
X171741563Y-87647292D01*
X171736008Y-87640399D01*
X171695736Y-87586601D01*
X171645096Y-87535962D01*
X171645089Y-87535954D01*
X166696771Y-82587637D01*
X166668270Y-82543289D01*
X166643796Y-82477669D01*
X166557546Y-82362454D01*
X166442331Y-82276204D01*
X166341937Y-82238759D01*
X166304069Y-82216291D01*
X166301916Y-82214425D01*
X166061184Y-82059716D01*
X165800889Y-81940843D01*
X165526325Y-81860225D01*
X165313889Y-81829681D01*
X165243079Y-81819500D01*
X164956921Y-81819500D01*
X164900272Y-81827644D01*
X164673674Y-81860225D01*
X164399110Y-81940843D01*
X164138811Y-82059718D01*
X163898083Y-82214424D01*
X163895925Y-82216295D01*
X163858061Y-82238760D01*
X163757669Y-82276204D01*
X163642454Y-82362454D01*
X163556204Y-82477669D01*
X163518760Y-82578061D01*
X163496295Y-82615925D01*
X163494424Y-82618083D01*
X163339718Y-82858811D01*
X163220843Y-83119110D01*
X163140225Y-83393674D01*
X163101754Y-83661240D01*
X163072729Y-83724795D01*
X163066697Y-83731273D01*
X160405180Y-86392790D01*
X160343857Y-86426275D01*
X160274165Y-86421291D01*
X160229818Y-86392790D01*
X156476819Y-82639791D01*
X156443334Y-82578468D01*
X156440500Y-82552110D01*
X156440500Y-82490503D01*
X156440500Y-82490502D01*
X156440500Y-82487933D01*
X156425108Y-82302179D01*
X156364063Y-82061119D01*
X156264173Y-81833393D01*
X156128164Y-81625215D01*
X155959744Y-81442262D01*
X155937612Y-81425036D01*
X155763514Y-81289529D01*
X155763510Y-81289526D01*
X155763509Y-81289526D01*
X155544810Y-81171172D01*
X155544806Y-81171170D01*
X155544805Y-81171170D01*
X155309615Y-81090429D01*
X155064335Y-81049500D01*
X154815665Y-81049500D01*
X154570384Y-81090429D01*
X154335194Y-81171170D01*
X154116485Y-81289529D01*
X153920259Y-81442259D01*
X153920256Y-81442261D01*
X153920256Y-81442262D01*
X153751837Y-81625214D01*
X153615825Y-81833395D01*
X153535890Y-82015630D01*
X153515937Y-82061119D01*
X153502132Y-82115633D01*
X153454892Y-82302177D01*
X153454891Y-82302179D01*
X153454892Y-82302179D01*
X153439500Y-82487933D01*
X153439500Y-82490502D01*
X153439500Y-82490503D01*
X153439500Y-83124135D01*
X153438548Y-83139473D01*
X153435642Y-83162780D01*
X151748000Y-83162780D01*
X151748000Y-82478552D01*
X151732696Y-82264572D01*
X151675434Y-82001343D01*
X151671870Y-81984958D01*
X151670105Y-81980225D01*
X151571867Y-81716839D01*
X151434726Y-81465685D01*
X151263239Y-81236605D01*
X151060895Y-81034261D01*
X150946354Y-80948517D01*
X150831813Y-80862772D01*
X150580663Y-80725634D01*
X150580662Y-80725633D01*
X150580661Y-80725633D01*
X150312546Y-80625631D01*
X150312541Y-80625629D01*
X150032929Y-80564804D01*
X149747500Y-80544389D01*
X149462070Y-80564804D01*
X149182458Y-80625629D01*
X148914336Y-80725634D01*
X148663186Y-80862772D01*
X148434102Y-81034263D01*
X148231763Y-81236602D01*
X148060272Y-81465686D01*
X147923134Y-81716836D01*
X147823129Y-81984958D01*
X147762304Y-82264570D01*
X147753953Y-82381335D01*
X147747000Y-82478552D01*
X147747000Y-82480767D01*
X147747000Y-84997503D01*
X147727315Y-85064542D01*
X147710681Y-85085184D01*
X147447680Y-85348184D01*
X147386357Y-85381669D01*
X147316665Y-85376685D01*
X147272320Y-85348185D01*
X144399046Y-82474912D01*
X144381604Y-82457470D01*
X144348398Y-82424263D01*
X144294597Y-82383988D01*
X144287705Y-82378434D01*
X144262237Y-82356366D01*
X144236917Y-82334426D01*
X144180367Y-82298084D01*
X144173103Y-82293039D01*
X144119317Y-82252774D01*
X144060339Y-82220570D01*
X144052727Y-82216054D01*
X144039675Y-82207666D01*
X143996187Y-82179718D01*
X143996185Y-82179717D01*
X143935058Y-82151801D01*
X143927144Y-82147840D01*
X143868159Y-82115632D01*
X143805190Y-82092145D01*
X143797017Y-82088760D01*
X143778224Y-82080178D01*
X143735888Y-82060844D01*
X143671405Y-82041909D01*
X143663018Y-82039118D01*
X143600045Y-82015630D01*
X143534367Y-82001343D01*
X143525792Y-81999154D01*
X143461326Y-81980225D01*
X143394806Y-81970661D01*
X143386096Y-81969089D01*
X143320429Y-81954804D01*
X143253390Y-81950008D01*
X143244594Y-81949062D01*
X143178081Y-81939500D01*
X143178079Y-81939500D01*
X143106448Y-81939500D01*
X137231448Y-81939500D01*
X119681448Y-81939500D01*
X102194138Y-81939500D01*
X102159205Y-81934477D01*
X101906322Y-81860225D01*
X101623079Y-81819500D01*
X101336921Y-81819500D01*
X101240295Y-81833393D01*
X101053677Y-81860225D01*
X101005640Y-81874330D01*
X100800794Y-81934477D01*
X100765862Y-81939500D01*
X97519997Y-81939500D01*
X97452958Y-81919815D01*
X97432316Y-81903181D01*
X94941771Y-79412637D01*
X94913270Y-79368289D01*
X94899588Y-79331605D01*
X94888796Y-79302669D01*
X94802546Y-79187454D01*
X94687331Y-79101204D01*
X94586937Y-79063759D01*
X94549069Y-79041291D01*
X94546918Y-79039427D01*
X94546917Y-79039426D01*
X94546914Y-79039424D01*
X94546913Y-79039423D01*
X94437045Y-78968815D01*
X94391290Y-78916011D01*
X94381346Y-78846853D01*
X94410371Y-78783297D01*
X94469149Y-78745523D01*
X94504084Y-78740500D01*
X171976557Y-78740500D01*
X172043596Y-78760185D01*
X172089351Y-78812989D01*
X172099295Y-78882147D01*
X172070270Y-78945703D01*
X172011492Y-78983477D01*
X172007394Y-78984604D01*
X171980518Y-78991504D01*
X171980511Y-78991506D01*
X171976738Y-78992475D01*
X171973120Y-78993907D01*
X171973109Y-78993911D01*
X171699526Y-79102230D01*
X171699515Y-79102234D01*
X171695896Y-79103668D01*
X171692491Y-79105539D01*
X171692478Y-79105546D01*
X171434612Y-79247310D01*
X171434600Y-79247317D01*
X171431205Y-79249184D01*
X171428061Y-79251467D01*
X171428055Y-79251472D01*
X171189994Y-79424432D01*
X171189983Y-79424440D01*
X171186838Y-79426726D01*
X171184003Y-79429387D01*
X171183996Y-79429394D01*
X170969488Y-79630831D01*
X170969481Y-79630838D01*
X170966651Y-79633496D01*
X170964176Y-79636487D01*
X170964172Y-79636492D01*
X170776598Y-79863229D01*
X170776588Y-79863241D01*
X170774115Y-79866232D01*
X170772033Y-79869511D01*
X170772024Y-79869525D01*
X170614352Y-80117977D01*
X170614345Y-80117988D01*
X170612267Y-80121264D01*
X170610614Y-80124774D01*
X170610611Y-80124782D01*
X170485315Y-80391050D01*
X170483659Y-80394570D01*
X170482457Y-80398267D01*
X170482455Y-80398274D01*
X170391524Y-80678130D01*
X170390319Y-80681840D01*
X170389590Y-80685660D01*
X170389588Y-80685669D01*
X170334449Y-80974716D01*
X170334446Y-80974732D01*
X170333720Y-80978543D01*
X170333475Y-80982434D01*
X170333475Y-80982436D01*
X170330214Y-81034263D01*
X170314754Y-81280000D01*
X170333720Y-81581457D01*
X170334447Y-81585269D01*
X170334449Y-81585283D01*
X170387995Y-81865977D01*
X170390319Y-81878160D01*
X170391523Y-81881867D01*
X170391524Y-81881869D01*
X170479230Y-82151801D01*
X170483659Y-82165430D01*
X170519582Y-82241771D01*
X170605456Y-82424263D01*
X170612267Y-82438736D01*
X170614349Y-82442017D01*
X170614352Y-82442022D01*
X170772024Y-82690474D01*
X170772028Y-82690480D01*
X170774115Y-82693768D01*
X170966651Y-82926504D01*
X171186838Y-83133274D01*
X171431205Y-83310816D01*
X171695896Y-83456332D01*
X171976738Y-83567525D01*
X172269302Y-83642642D01*
X172568973Y-83680500D01*
X172572867Y-83680500D01*
X172867133Y-83680500D01*
X172871027Y-83680500D01*
X173170698Y-83642642D01*
X173463262Y-83567525D01*
X173744104Y-83456332D01*
X174008795Y-83310816D01*
X174253162Y-83133274D01*
X174473349Y-82926504D01*
X174665885Y-82693768D01*
X174827733Y-82438736D01*
X174956341Y-82165430D01*
X175017569Y-81976989D01*
X175057007Y-81919314D01*
X175121365Y-81892116D01*
X175190211Y-81904031D01*
X175241687Y-81951275D01*
X175259500Y-82015308D01*
X175259500Y-111024691D01*
X175239815Y-111091730D01*
X175187011Y-111137485D01*
X175117853Y-111147429D01*
X175054297Y-111118404D01*
X175017569Y-111063009D01*
X174997832Y-111002268D01*
X174956341Y-110874570D01*
X174827733Y-110601264D01*
X174665885Y-110346232D01*
X174649244Y-110326117D01*
X174593964Y-110259294D01*
X174473349Y-110113496D01*
X174253162Y-109906726D01*
X174230436Y-109890215D01*
X174011944Y-109731472D01*
X174011945Y-109731472D01*
X174008795Y-109729184D01*
X174005391Y-109727313D01*
X174005387Y-109727310D01*
X173747521Y-109585546D01*
X173747514Y-109585542D01*
X173744104Y-109583668D01*
X173740478Y-109582232D01*
X173740473Y-109582230D01*
X173466890Y-109473911D01*
X173466884Y-109473909D01*
X173463262Y-109472475D01*
X173459484Y-109471505D01*
X173459481Y-109471504D01*
X173174476Y-109398328D01*
X173174475Y-109398327D01*
X173170698Y-109397358D01*
X173166835Y-109396870D01*
X173166830Y-109396869D01*
X172874891Y-109359988D01*
X172874888Y-109359987D01*
X172871027Y-109359500D01*
X172568973Y-109359500D01*
X172565112Y-109359987D01*
X172565108Y-109359988D01*
X172273169Y-109396869D01*
X172273161Y-109396870D01*
X172269302Y-109397358D01*
X172265527Y-109398327D01*
X172265523Y-109398328D01*
X171980518Y-109471504D01*
X171980511Y-109471506D01*
X171976738Y-109472475D01*
X171973120Y-109473907D01*
X171973109Y-109473911D01*
X171699526Y-109582230D01*
X171699515Y-109582234D01*
X171695896Y-109583668D01*
X171692491Y-109585539D01*
X171692478Y-109585546D01*
X171434612Y-109727310D01*
X171434600Y-109727317D01*
X171431205Y-109729184D01*
X171428061Y-109731467D01*
X171428055Y-109731472D01*
X171189994Y-109904432D01*
X171189983Y-109904440D01*
X171186838Y-109906726D01*
X171184003Y-109909387D01*
X171183996Y-109909394D01*
X170969488Y-110110831D01*
X170969481Y-110110838D01*
X170966651Y-110113496D01*
X170964176Y-110116487D01*
X170964172Y-110116492D01*
X170776598Y-110343229D01*
X170776588Y-110343241D01*
X170774115Y-110346232D01*
X170772033Y-110349511D01*
X170772024Y-110349525D01*
X170614352Y-110597977D01*
X170614345Y-110597988D01*
X170612267Y-110601264D01*
X170610614Y-110604774D01*
X170610611Y-110604782D01*
X170487041Y-110867382D01*
X170483659Y-110874570D01*
X170482457Y-110878267D01*
X170482455Y-110878274D01*
X170391524Y-111158130D01*
X170390319Y-111161840D01*
X170389590Y-111165660D01*
X170389588Y-111165669D01*
X170334449Y-111454716D01*
X170334446Y-111454732D01*
X170333720Y-111458543D01*
X170314754Y-111760000D01*
X170333720Y-112061457D01*
X170334447Y-112065269D01*
X170334449Y-112065283D01*
X170384001Y-112325041D01*
X170390319Y-112358160D01*
X170391523Y-112361867D01*
X170391524Y-112361869D01*
X170472227Y-112610248D01*
X170483659Y-112645430D01*
X170612267Y-112918736D01*
X170614349Y-112922017D01*
X170614352Y-112922022D01*
X170772024Y-113170474D01*
X170772028Y-113170480D01*
X170774115Y-113173768D01*
X170966651Y-113406504D01*
X171186838Y-113613274D01*
X171431205Y-113790816D01*
X171695896Y-113936332D01*
X171976738Y-114047525D01*
X172007394Y-114055396D01*
X172067432Y-114091134D01*
X172098618Y-114153657D01*
X172091050Y-114223116D01*
X172047132Y-114277457D01*
X171980806Y-114299427D01*
X171976557Y-114299500D01*
X151890809Y-114299500D01*
X151823770Y-114279815D01*
X151778015Y-114227011D01*
X151768071Y-114157853D01*
X151797096Y-114094297D01*
X151806816Y-114084279D01*
X151844333Y-114049744D01*
X151858762Y-114031203D01*
X151868920Y-114019701D01*
X153389701Y-112498920D01*
X153401203Y-112488762D01*
X153419744Y-112474333D01*
X153481235Y-112407534D01*
X153484714Y-112403908D01*
X153504902Y-112383721D01*
X153523315Y-112361978D01*
X153526701Y-112358146D01*
X153588160Y-112291384D01*
X153588164Y-112291380D01*
X153601006Y-112271721D01*
X153610188Y-112259408D01*
X153625366Y-112241489D01*
X153671848Y-112163479D01*
X153674505Y-112159222D01*
X153724173Y-112083202D01*
X153733607Y-112061694D01*
X153740631Y-112048047D01*
X153752656Y-112027868D01*
X153785667Y-111943264D01*
X153787587Y-111938629D01*
X153824063Y-111855476D01*
X153829827Y-111832712D01*
X153834515Y-111818079D01*
X153835428Y-111815738D01*
X153843049Y-111796209D01*
X153861680Y-111707349D01*
X153862818Y-111702433D01*
X153885108Y-111614416D01*
X153887047Y-111591008D01*
X153889264Y-111575802D01*
X153894081Y-111552832D01*
X153896548Y-111493181D01*
X153897831Y-111462135D01*
X153898149Y-111457022D01*
X153900500Y-111428662D01*
X153900500Y-111400191D01*
X153900606Y-111395066D01*
X153904357Y-111304375D01*
X153901452Y-111281068D01*
X153900500Y-111265730D01*
X153900500Y-110755503D01*
X153900500Y-110752933D01*
X153885108Y-110567179D01*
X153824063Y-110326119D01*
X153724173Y-110098393D01*
X153588164Y-109890215D01*
X153419744Y-109707262D01*
X153397612Y-109690036D01*
X153223514Y-109554529D01*
X153223510Y-109554526D01*
X153223509Y-109554526D01*
X153004810Y-109436172D01*
X153004806Y-109436170D01*
X153004805Y-109436170D01*
X152769615Y-109355429D01*
X152524335Y-109314500D01*
X152275665Y-109314500D01*
X152030384Y-109355429D01*
X151795194Y-109436170D01*
X151795190Y-109436171D01*
X151795190Y-109436172D01*
X151576491Y-109554526D01*
X151576489Y-109554526D01*
X151576486Y-109554529D01*
X151560660Y-109566847D01*
X151495665Y-109592488D01*
X151427126Y-109578920D01*
X151376802Y-109530451D01*
X151360500Y-109468992D01*
X151360500Y-108939500D01*
X151380185Y-108872461D01*
X151432989Y-108826706D01*
X151484500Y-108815500D01*
X157419135Y-108815500D01*
X157434473Y-108816452D01*
X157457779Y-108819357D01*
X157457779Y-108819356D01*
X157457780Y-108819357D01*
X157528017Y-108816452D01*
X157548473Y-108815605D01*
X157553596Y-108815500D01*
X157579498Y-108815500D01*
X157582067Y-108815500D01*
X157610447Y-108813147D01*
X157615540Y-108812831D01*
X157706237Y-108809081D01*
X157729209Y-108804263D01*
X157744413Y-108802047D01*
X157767821Y-108800108D01*
X157855838Y-108777818D01*
X157860754Y-108776680D01*
X157949614Y-108758049D01*
X157971496Y-108749510D01*
X157986116Y-108744827D01*
X158008881Y-108739063D01*
X158092008Y-108702599D01*
X158096699Y-108700656D01*
X158181274Y-108667656D01*
X158201456Y-108655628D01*
X158215101Y-108648605D01*
X158236607Y-108639173D01*
X158312593Y-108589528D01*
X158316916Y-108586830D01*
X158394894Y-108540366D01*
X158412813Y-108525188D01*
X158425126Y-108516006D01*
X158444785Y-108503164D01*
X158467352Y-108482388D01*
X158511551Y-108441701D01*
X158515383Y-108438315D01*
X158537126Y-108419902D01*
X158557313Y-108399714D01*
X158560939Y-108396235D01*
X158627738Y-108334744D01*
X158642167Y-108316203D01*
X158652325Y-108304701D01*
X160645208Y-106311818D01*
X160706531Y-106278334D01*
X160732889Y-106275500D01*
X162512110Y-106275500D01*
X162579149Y-106295185D01*
X162599791Y-106311819D01*
X163063181Y-106775208D01*
X163096666Y-106836531D01*
X163099500Y-106862888D01*
X163099500Y-111831448D01*
X163099657Y-111833656D01*
X163099658Y-111833658D01*
X163114804Y-112045429D01*
X163175629Y-112325041D01*
X163275634Y-112593163D01*
X163412772Y-112844313D01*
X163468485Y-112918736D01*
X163584261Y-113073395D01*
X163786605Y-113275739D01*
X163957283Y-113403507D01*
X164015686Y-113447227D01*
X164074451Y-113479315D01*
X164266839Y-113584367D01*
X164534954Y-113684369D01*
X164534957Y-113684369D01*
X164534958Y-113684370D01*
X164587217Y-113695738D01*
X164814572Y-113745196D01*
X165100000Y-113765610D01*
X165385428Y-113745196D01*
X165665046Y-113684369D01*
X165933161Y-113584367D01*
X166184315Y-113447226D01*
X166413395Y-113275739D01*
X166615739Y-113073395D01*
X166787226Y-112844315D01*
X166924367Y-112593161D01*
X167024369Y-112325046D01*
X167085196Y-112045428D01*
X167100500Y-111831448D01*
X167100500Y-107569996D01*
X167120185Y-107502957D01*
X167136819Y-107482315D01*
X171482316Y-103136819D01*
X171543639Y-103103334D01*
X171569997Y-103100500D01*
X172779497Y-103100500D01*
X172782067Y-103100500D01*
X172967821Y-103085108D01*
X173208881Y-103024063D01*
X173436607Y-102924173D01*
X173644785Y-102788164D01*
X173827738Y-102619744D01*
X173980474Y-102423509D01*
X174098828Y-102204810D01*
X174179571Y-101969614D01*
X174220500Y-101724335D01*
X174220500Y-101475665D01*
X174179571Y-101230386D01*
X174098828Y-100995190D01*
X173980474Y-100776491D01*
X173980471Y-100776487D01*
X173980470Y-100776485D01*
X173827740Y-100580259D01*
X173827738Y-100580256D01*
X173644785Y-100411836D01*
X173436607Y-100275827D01*
X173436604Y-100275825D01*
X173289179Y-100211159D01*
X173208881Y-100175937D01*
X173028867Y-100130351D01*
X172967822Y-100114892D01*
X172933854Y-100112077D01*
X172782067Y-100099500D01*
X172779497Y-100099500D01*
X171537889Y-100099500D01*
X171470850Y-100079815D01*
X171456686Y-100069213D01*
X171381917Y-100004425D01*
X171141185Y-99849717D01*
X170880888Y-99730843D01*
X170606324Y-99650224D01*
X170323079Y-99609500D01*
X170036921Y-99609500D01*
X169942506Y-99623074D01*
X169753676Y-99650224D01*
X169479112Y-99730843D01*
X169218815Y-99849717D01*
X168978079Y-100004428D01*
X168817651Y-100143439D01*
X168817627Y-100143461D01*
X168815954Y-100144911D01*
X168814386Y-100146478D01*
X168814372Y-100146492D01*
X164834127Y-104126737D01*
X164772804Y-104160222D01*
X164703112Y-104155238D01*
X164658765Y-104126737D01*
X164317335Y-103785307D01*
X164307162Y-103773787D01*
X164292740Y-103755258D01*
X164225953Y-103693776D01*
X164222255Y-103690227D01*
X164203939Y-103671911D01*
X164202126Y-103670098D01*
X164180388Y-103651687D01*
X164176546Y-103648293D01*
X164109788Y-103586837D01*
X164090125Y-103573991D01*
X164077811Y-103564808D01*
X164059894Y-103549634D01*
X163981890Y-103503153D01*
X163977609Y-103500481D01*
X163926278Y-103466945D01*
X163901603Y-103450824D01*
X163880107Y-103441395D01*
X163866448Y-103434364D01*
X163846275Y-103422344D01*
X163793953Y-103401928D01*
X163761717Y-103389349D01*
X163757004Y-103387397D01*
X163729332Y-103375260D01*
X163673880Y-103350936D01*
X163651114Y-103345171D01*
X163636485Y-103340484D01*
X163614614Y-103331950D01*
X163525793Y-103313325D01*
X163520803Y-103312171D01*
X163432819Y-103289891D01*
X163409421Y-103287952D01*
X163394223Y-103285738D01*
X163371237Y-103280919D01*
X163349488Y-103280019D01*
X163280559Y-103277168D01*
X163275448Y-103276851D01*
X163249609Y-103274710D01*
X163249594Y-103274709D01*
X163247067Y-103274500D01*
X163244514Y-103274500D01*
X163218596Y-103274500D01*
X163213473Y-103274394D01*
X163209701Y-103274238D01*
X163122780Y-103270642D01*
X163099473Y-103273548D01*
X163084135Y-103274500D01*
X160732890Y-103274500D01*
X160665851Y-103254815D01*
X160645209Y-103238181D01*
X159016819Y-101609791D01*
X158983334Y-101548468D01*
X158980500Y-101522110D01*
X158980500Y-100501438D01*
X159000185Y-100434399D01*
X159005234Y-100427126D01*
X159023796Y-100402331D01*
X159074091Y-100267483D01*
X159080500Y-100207873D01*
X159080499Y-97912128D01*
X159074091Y-97852517D01*
X159023796Y-97717669D01*
X158937546Y-97602454D01*
X158822331Y-97516204D01*
X158687483Y-97465909D01*
X158627873Y-97459500D01*
X158624550Y-97459500D01*
X156335439Y-97459500D01*
X156335420Y-97459500D01*
X156332128Y-97459501D01*
X156328848Y-97459853D01*
X156328840Y-97459854D01*
X156272515Y-97465909D01*
X156137669Y-97516204D01*
X156022454Y-97602454D01*
X155936204Y-97717668D01*
X155885909Y-97852516D01*
X155885311Y-97858083D01*
X155879500Y-97912127D01*
X155879500Y-97915448D01*
X155879500Y-97915449D01*
X155879500Y-100204560D01*
X155879500Y-100204578D01*
X155879501Y-100207872D01*
X155879853Y-100211152D01*
X155879854Y-100211159D01*
X155885909Y-100267484D01*
X155936204Y-100402331D01*
X155954766Y-100427126D01*
X155979184Y-100492590D01*
X155979500Y-100501438D01*
X155979500Y-102094135D01*
X155978548Y-102109473D01*
X155975642Y-102132780D01*
X155979394Y-102223471D01*
X155979500Y-102228596D01*
X155979500Y-102257067D01*
X155979709Y-102259594D01*
X155979710Y-102259609D01*
X155981851Y-102285448D01*
X155982168Y-102290559D01*
X155985919Y-102381235D01*
X155990738Y-102404220D01*
X155992952Y-102419421D01*
X155994891Y-102442819D01*
X156017171Y-102530803D01*
X156018325Y-102535793D01*
X156036950Y-102624614D01*
X156045484Y-102646485D01*
X156050171Y-102661114D01*
X156055936Y-102683880D01*
X156092393Y-102766993D01*
X156094349Y-102771717D01*
X156100767Y-102788164D01*
X156127344Y-102856275D01*
X156139364Y-102876448D01*
X156146395Y-102890107D01*
X156155824Y-102911603D01*
X156164037Y-102924174D01*
X156205481Y-102987609D01*
X156208153Y-102991890D01*
X156254634Y-103069894D01*
X156269808Y-103087811D01*
X156278991Y-103100125D01*
X156291837Y-103119788D01*
X156353293Y-103186546D01*
X156356687Y-103190388D01*
X156375098Y-103212126D01*
X156376911Y-103213939D01*
X156395227Y-103232255D01*
X156398776Y-103235953D01*
X156448430Y-103289892D01*
X156460258Y-103302740D01*
X156478787Y-103317162D01*
X156490307Y-103327335D01*
X157850291Y-104687319D01*
X157883776Y-104748642D01*
X157878792Y-104818334D01*
X157850291Y-104862681D01*
X156934791Y-105778181D01*
X156873468Y-105811666D01*
X156847110Y-105814500D01*
X149735663Y-105814500D01*
X149679293Y-105823905D01*
X149669127Y-105825172D01*
X149612180Y-105829891D01*
X149556787Y-105843918D01*
X149546762Y-105846020D01*
X149490388Y-105855428D01*
X149436318Y-105873989D01*
X149426502Y-105876911D01*
X149371119Y-105890937D01*
X149318791Y-105913890D01*
X149309255Y-105917610D01*
X149261417Y-105934034D01*
X149254680Y-105936347D01*
X149184881Y-105939496D01*
X149124460Y-105904409D01*
X149092600Y-105842226D01*
X149099417Y-105772690D01*
X149110104Y-105752024D01*
X149110108Y-105752017D01*
X149120282Y-105736187D01*
X149148205Y-105675041D01*
X149152156Y-105667149D01*
X149184367Y-105608161D01*
X149207855Y-105545181D01*
X149211233Y-105537026D01*
X149239156Y-105475889D01*
X149258093Y-105411392D01*
X149260871Y-105403043D01*
X149284369Y-105340046D01*
X149298655Y-105274370D01*
X149300839Y-105265810D01*
X149319775Y-105201323D01*
X149329339Y-105134798D01*
X149330906Y-105126117D01*
X149345196Y-105060428D01*
X149349991Y-104993381D01*
X149350932Y-104984621D01*
X149360500Y-104918079D01*
X149360500Y-104631921D01*
X149360500Y-104631920D01*
X149360500Y-99028552D01*
X149360500Y-98956922D01*
X149350932Y-98890377D01*
X149349991Y-98881619D01*
X149345196Y-98814572D01*
X149330906Y-98748886D01*
X149329338Y-98740191D01*
X149319777Y-98673683D01*
X149319776Y-98673678D01*
X149300834Y-98609169D01*
X149298659Y-98600648D01*
X149284369Y-98534954D01*
X149260874Y-98471963D01*
X149258092Y-98463605D01*
X149239156Y-98399112D01*
X149211230Y-98337963D01*
X149207857Y-98329822D01*
X149184367Y-98266839D01*
X149184365Y-98266833D01*
X149152162Y-98207860D01*
X149148198Y-98199941D01*
X149120284Y-98138815D01*
X149083942Y-98082266D01*
X149079425Y-98074652D01*
X149047228Y-98015688D01*
X149029857Y-97992483D01*
X149006950Y-97961883D01*
X149001919Y-97954638D01*
X148965574Y-97898083D01*
X148921557Y-97847285D01*
X148916004Y-97840393D01*
X148875738Y-97786604D01*
X148673394Y-97584260D01*
X148664884Y-97577889D01*
X148657995Y-97572338D01*
X148527774Y-97459501D01*
X148521917Y-97454426D01*
X148521915Y-97454425D01*
X148521912Y-97454422D01*
X148281188Y-97299718D01*
X148020889Y-97180843D01*
X147746325Y-97100225D01*
X147533889Y-97069681D01*
X147463079Y-97059500D01*
X147176921Y-97059500D01*
X147120272Y-97067644D01*
X146893674Y-97100225D01*
X146619110Y-97180843D01*
X146358811Y-97299718D01*
X146118088Y-97454421D01*
X145901820Y-97641820D01*
X145714421Y-97858088D01*
X145559718Y-98098811D01*
X145440843Y-98359110D01*
X145360225Y-98633674D01*
X145319500Y-98916921D01*
X145319500Y-99203078D01*
X145358238Y-99472501D01*
X145359500Y-99490148D01*
X145359500Y-103895003D01*
X145339815Y-103962042D01*
X145323181Y-103982684D01*
X142122685Y-107183181D01*
X142061362Y-107216666D01*
X142035004Y-107219500D01*
X101456918Y-107219500D01*
X101390403Y-107229062D01*
X101381608Y-107230008D01*
X101324617Y-107234085D01*
X101314572Y-107234804D01*
X101249737Y-107248907D01*
X101248903Y-107249089D01*
X101240196Y-107250660D01*
X101173673Y-107260225D01*
X101109211Y-107279153D01*
X101100637Y-107281342D01*
X101034954Y-107295631D01*
X100971988Y-107319115D01*
X100963595Y-107321908D01*
X100899109Y-107340844D01*
X100837991Y-107368756D01*
X100829814Y-107372144D01*
X100766834Y-107395634D01*
X100707858Y-107427837D01*
X100699947Y-107431797D01*
X100638812Y-107459717D01*
X100582277Y-107496050D01*
X100574668Y-107500565D01*
X100515683Y-107532774D01*
X100461889Y-107573043D01*
X100454621Y-107578090D01*
X100398081Y-107614426D01*
X100347285Y-107658441D01*
X100340395Y-107663993D01*
X100286603Y-107704262D01*
X100218515Y-107772348D01*
X100218511Y-107772354D01*
X97632685Y-110358181D01*
X97571362Y-110391666D01*
X97545004Y-110394500D01*
X93273552Y-110394500D01*
X93271344Y-110394657D01*
X93271341Y-110394658D01*
X93059570Y-110409804D01*
X92779958Y-110470629D01*
X92511836Y-110570634D01*
X92260686Y-110707772D01*
X92031602Y-110879263D01*
X91829263Y-111081602D01*
X91657772Y-111310686D01*
X91520634Y-111561836D01*
X91420629Y-111829958D01*
X91359804Y-112109570D01*
X91339389Y-112395000D01*
X91359804Y-112680429D01*
X91420629Y-112960041D01*
X91420631Y-112960046D01*
X91500345Y-113173768D01*
X91520634Y-113228163D01*
X91657772Y-113479313D01*
X91657775Y-113479317D01*
X91829261Y-113708395D01*
X92031605Y-113910739D01*
X92151611Y-114000574D01*
X92252679Y-114076233D01*
X92294550Y-114132167D01*
X92299534Y-114201858D01*
X92266049Y-114263181D01*
X92204726Y-114296666D01*
X92178368Y-114299500D01*
X84351632Y-114299500D01*
X84284593Y-114279815D01*
X84238838Y-114227011D01*
X84228894Y-114157853D01*
X84257919Y-114094297D01*
X84277320Y-114076234D01*
X84326653Y-114039303D01*
X84380696Y-113998846D01*
X84411665Y-113981935D01*
X84527331Y-113938796D01*
X84642546Y-113852546D01*
X84728796Y-113737331D01*
X84771935Y-113621665D01*
X84788848Y-113590694D01*
X84793586Y-113584365D01*
X84872226Y-113479315D01*
X85009367Y-113228161D01*
X85109369Y-112960046D01*
X85170196Y-112680428D01*
X85185500Y-112466448D01*
X85185500Y-102494994D01*
X85205185Y-102427956D01*
X85221814Y-102407319D01*
X89207315Y-98421818D01*
X89268639Y-98388333D01*
X89294997Y-98385499D01*
X89959561Y-98385499D01*
X89962872Y-98385499D01*
X90022483Y-98379091D01*
X90157331Y-98328796D01*
X90272546Y-98242546D01*
X90358796Y-98127331D01*
X90409091Y-97992483D01*
X90415500Y-97932873D01*
X90415499Y-97254427D01*
X90435183Y-97187389D01*
X90445787Y-97173225D01*
X90520123Y-97087438D01*
X90520574Y-97086918D01*
X90675282Y-96846187D01*
X90794156Y-96585889D01*
X90827758Y-96471450D01*
X90874776Y-96311322D01*
X90915500Y-96028079D01*
X90915500Y-95741921D01*
X90874776Y-95458677D01*
X90794156Y-95184111D01*
X90675282Y-94923813D01*
X90520574Y-94683082D01*
X90445786Y-94596772D01*
X90416761Y-94533216D01*
X90415499Y-94515569D01*
X90415499Y-93840439D01*
X90415498Y-93840438D01*
X90415499Y-93837128D01*
X90409091Y-93777517D01*
X90358796Y-93642669D01*
X90272546Y-93527454D01*
X90157331Y-93441204D01*
X90022483Y-93390909D01*
X89962873Y-93384500D01*
X89959551Y-93384500D01*
X89294997Y-93384500D01*
X89227958Y-93364815D01*
X89207316Y-93348181D01*
X82616815Y-86757680D01*
X82583330Y-86696357D01*
X82588314Y-86626665D01*
X82616815Y-86582318D01*
X83612180Y-85586954D01*
X84650088Y-84549046D01*
X84700729Y-84498405D01*
X84700729Y-84498404D01*
X84700739Y-84498395D01*
X84741025Y-84444577D01*
X84746554Y-84437717D01*
X84790573Y-84386918D01*
X84826923Y-84330354D01*
X84831929Y-84323143D01*
X84872226Y-84269315D01*
X84904434Y-84210329D01*
X84908930Y-84202749D01*
X84945282Y-84146187D01*
X84973205Y-84085041D01*
X84977156Y-84077149D01*
X85009367Y-84018161D01*
X85032855Y-83955181D01*
X85036233Y-83947026D01*
X85064156Y-83885889D01*
X85083093Y-83821392D01*
X85085871Y-83813043D01*
X85109369Y-83750046D01*
X85123655Y-83684370D01*
X85125839Y-83675810D01*
X85144775Y-83611323D01*
X85154339Y-83544798D01*
X85155906Y-83536117D01*
X85170196Y-83470428D01*
X85174991Y-83403381D01*
X85175932Y-83394621D01*
X85185500Y-83328079D01*
X85185500Y-83041921D01*
X85185500Y-83041920D01*
X85185500Y-80573552D01*
X85170196Y-80359572D01*
X85109369Y-80079954D01*
X85009367Y-79811839D01*
X84872226Y-79560685D01*
X84700739Y-79331605D01*
X84498395Y-79129261D01*
X84342808Y-79012790D01*
X84277321Y-78963767D01*
X84235450Y-78907833D01*
X84230466Y-78838142D01*
X84263951Y-78776819D01*
X84325274Y-78743334D01*
X84351632Y-78740500D01*
X92185915Y-78740500D01*
X92252954Y-78760185D01*
G37*
%TD.AperFunction*%
%TA.AperFunction,Conductor*%
G36*
X76405703Y-81921595D02*
G01*
X76442430Y-81976989D01*
X76450038Y-82000402D01*
X76499230Y-82151801D01*
X76503659Y-82165430D01*
X76539582Y-82241771D01*
X76625456Y-82424263D01*
X76632267Y-82438736D01*
X76634349Y-82442017D01*
X76634352Y-82442022D01*
X76792024Y-82690474D01*
X76792028Y-82690480D01*
X76794115Y-82693768D01*
X76986651Y-82926504D01*
X77206838Y-83133274D01*
X77451205Y-83310816D01*
X77715896Y-83456332D01*
X77996738Y-83567525D01*
X78289302Y-83642642D01*
X78588973Y-83680500D01*
X78592867Y-83680500D01*
X78887133Y-83680500D01*
X78891027Y-83680500D01*
X79190698Y-83642642D01*
X79483262Y-83567525D01*
X79737832Y-83466733D01*
X79807406Y-83460357D01*
X79869387Y-83492609D01*
X79904091Y-83553251D01*
X79900501Y-83623028D01*
X79871157Y-83669707D01*
X77368021Y-86172842D01*
X77368017Y-86172848D01*
X77224261Y-86316603D01*
X77183988Y-86370400D01*
X77178438Y-86377287D01*
X77134427Y-86428080D01*
X77098092Y-86484617D01*
X77093047Y-86491883D01*
X77052771Y-86545687D01*
X77020568Y-86604662D01*
X77016053Y-86612272D01*
X76979720Y-86668808D01*
X76951801Y-86729941D01*
X76947841Y-86737852D01*
X76915634Y-86796837D01*
X76892146Y-86859807D01*
X76888761Y-86867978D01*
X76860843Y-86929113D01*
X76841909Y-86993593D01*
X76839115Y-87001987D01*
X76815631Y-87064952D01*
X76801343Y-87130634D01*
X76799154Y-87139211D01*
X76780225Y-87203675D01*
X76770660Y-87270196D01*
X76769089Y-87278903D01*
X76754804Y-87344574D01*
X76750008Y-87411608D01*
X76749062Y-87420403D01*
X76739500Y-87486918D01*
X76739500Y-87554124D01*
X76739184Y-87562970D01*
X76734389Y-87629999D01*
X76739184Y-87697027D01*
X76739500Y-87705874D01*
X76739500Y-87773080D01*
X76749062Y-87839594D01*
X76750008Y-87848390D01*
X76754804Y-87915429D01*
X76769089Y-87981096D01*
X76770661Y-87989806D01*
X76780225Y-88056326D01*
X76799154Y-88120792D01*
X76801343Y-88129367D01*
X76815630Y-88195045D01*
X76839118Y-88258018D01*
X76841909Y-88266405D01*
X76860844Y-88330888D01*
X76880178Y-88373224D01*
X76888760Y-88392017D01*
X76892145Y-88400190D01*
X76915632Y-88463159D01*
X76947840Y-88522144D01*
X76951801Y-88530058D01*
X76979717Y-88591185D01*
X77016054Y-88647727D01*
X77020570Y-88655339D01*
X77052774Y-88714317D01*
X77093039Y-88768103D01*
X77098087Y-88775373D01*
X77134426Y-88831917D01*
X77178441Y-88882712D01*
X77183988Y-88889596D01*
X77224261Y-88943396D01*
X77271781Y-88990915D01*
X77277800Y-88997380D01*
X77321820Y-89048180D01*
X77321823Y-89048183D01*
X77372609Y-89092190D01*
X77379088Y-89098222D01*
X77426603Y-89145738D01*
X77480403Y-89186011D01*
X77487289Y-89191560D01*
X77538083Y-89235574D01*
X77567833Y-89254693D01*
X77594620Y-89271908D01*
X77601892Y-89276957D01*
X77655685Y-89317226D01*
X77714667Y-89349432D01*
X77722273Y-89353945D01*
X77778321Y-89389966D01*
X77778815Y-89390283D01*
X77839944Y-89418200D01*
X77847859Y-89422162D01*
X77894765Y-89447774D01*
X77906839Y-89454367D01*
X77969819Y-89477857D01*
X77977965Y-89481231D01*
X78039112Y-89509156D01*
X78103602Y-89528091D01*
X78111960Y-89530873D01*
X78174954Y-89554369D01*
X78174959Y-89554370D01*
X78240635Y-89568657D01*
X78249210Y-89570845D01*
X78313678Y-89589775D01*
X78380193Y-89599338D01*
X78388881Y-89600905D01*
X78454572Y-89615196D01*
X78521615Y-89619990D01*
X78530384Y-89620933D01*
X78596921Y-89630500D01*
X78668552Y-89630500D01*
X79780004Y-89630500D01*
X79847043Y-89650185D01*
X79867685Y-89666819D01*
X85998183Y-95797318D01*
X86031668Y-95858641D01*
X86026684Y-95928333D01*
X85998183Y-95972680D01*
X81813021Y-100157842D01*
X81813017Y-100157848D01*
X81669261Y-100301603D01*
X81628988Y-100355400D01*
X81623438Y-100362287D01*
X81579427Y-100413080D01*
X81543092Y-100469617D01*
X81538047Y-100476883D01*
X81497771Y-100530687D01*
X81465568Y-100589662D01*
X81461053Y-100597272D01*
X81424720Y-100653808D01*
X81396801Y-100714941D01*
X81392841Y-100722852D01*
X81360634Y-100781837D01*
X81337146Y-100844807D01*
X81333761Y-100852978D01*
X81305843Y-100914113D01*
X81286909Y-100978593D01*
X81284115Y-100986987D01*
X81260631Y-101049952D01*
X81246343Y-101115634D01*
X81244154Y-101124211D01*
X81225225Y-101188675D01*
X81215660Y-101255196D01*
X81214089Y-101263903D01*
X81199804Y-101329574D01*
X81195008Y-101396608D01*
X81194062Y-101405403D01*
X81184500Y-101471918D01*
X81184500Y-110762184D01*
X81164815Y-110829223D01*
X81112011Y-110874978D01*
X81042853Y-110884922D01*
X80979297Y-110855897D01*
X80948302Y-110814981D01*
X80849395Y-110604795D01*
X80849388Y-110604782D01*
X80847733Y-110601264D01*
X80685885Y-110346232D01*
X80669244Y-110326117D01*
X80613964Y-110259294D01*
X80493349Y-110113496D01*
X80273162Y-109906726D01*
X80250436Y-109890215D01*
X80031944Y-109731472D01*
X80031945Y-109731472D01*
X80028795Y-109729184D01*
X80025391Y-109727313D01*
X80025387Y-109727310D01*
X79767521Y-109585546D01*
X79767514Y-109585542D01*
X79764104Y-109583668D01*
X79760478Y-109582232D01*
X79760473Y-109582230D01*
X79486890Y-109473911D01*
X79486884Y-109473909D01*
X79483262Y-109472475D01*
X79479484Y-109471505D01*
X79479481Y-109471504D01*
X79194476Y-109398328D01*
X79194475Y-109398327D01*
X79190698Y-109397358D01*
X79186835Y-109396870D01*
X79186830Y-109396869D01*
X78894891Y-109359988D01*
X78894888Y-109359987D01*
X78891027Y-109359500D01*
X78588973Y-109359500D01*
X78585112Y-109359987D01*
X78585108Y-109359988D01*
X78293169Y-109396869D01*
X78293161Y-109396870D01*
X78289302Y-109397358D01*
X78285527Y-109398327D01*
X78285523Y-109398328D01*
X78000518Y-109471504D01*
X78000511Y-109471506D01*
X77996738Y-109472475D01*
X77993120Y-109473907D01*
X77993109Y-109473911D01*
X77719526Y-109582230D01*
X77719515Y-109582234D01*
X77715896Y-109583668D01*
X77712491Y-109585539D01*
X77712478Y-109585546D01*
X77454612Y-109727310D01*
X77454600Y-109727317D01*
X77451205Y-109729184D01*
X77448061Y-109731467D01*
X77448055Y-109731472D01*
X77209994Y-109904432D01*
X77209983Y-109904440D01*
X77206838Y-109906726D01*
X77204003Y-109909387D01*
X77203996Y-109909394D01*
X76989488Y-110110831D01*
X76989481Y-110110838D01*
X76986651Y-110113496D01*
X76984176Y-110116487D01*
X76984172Y-110116492D01*
X76796598Y-110343229D01*
X76796588Y-110343241D01*
X76794115Y-110346232D01*
X76792033Y-110349511D01*
X76792024Y-110349525D01*
X76634352Y-110597977D01*
X76634345Y-110597988D01*
X76632267Y-110601264D01*
X76630614Y-110604774D01*
X76630611Y-110604782D01*
X76507041Y-110867382D01*
X76503659Y-110874570D01*
X76502457Y-110878267D01*
X76502455Y-110878274D01*
X76442431Y-111063009D01*
X76402993Y-111120685D01*
X76338635Y-111147883D01*
X76269788Y-111135968D01*
X76218313Y-111088724D01*
X76200500Y-111024691D01*
X76200500Y-95885000D01*
X78859417Y-95885000D01*
X78879699Y-96090932D01*
X78879700Y-96090934D01*
X78939768Y-96288954D01*
X79037315Y-96471450D01*
X79037316Y-96471451D01*
X79168589Y-96631410D01*
X79248570Y-96697047D01*
X79328550Y-96762685D01*
X79511046Y-96860232D01*
X79709066Y-96920300D01*
X79863392Y-96935500D01*
X79866442Y-96935500D01*
X79963558Y-96935500D01*
X79966608Y-96935500D01*
X80120934Y-96920300D01*
X80318954Y-96860232D01*
X80501450Y-96762685D01*
X80661410Y-96631410D01*
X80792685Y-96471450D01*
X80890232Y-96288954D01*
X80950300Y-96090934D01*
X80970583Y-95885000D01*
X80950300Y-95679066D01*
X80890232Y-95481046D01*
X80792685Y-95298550D01*
X80713834Y-95202469D01*
X80661410Y-95138589D01*
X80563952Y-95058608D01*
X80501450Y-95007315D01*
X80318954Y-94909768D01*
X80219943Y-94879734D01*
X80120932Y-94849699D01*
X79969641Y-94834798D01*
X79969626Y-94834797D01*
X79966608Y-94834500D01*
X79863392Y-94834500D01*
X79860374Y-94834797D01*
X79860358Y-94834798D01*
X79709067Y-94849699D01*
X79511043Y-94909769D01*
X79328551Y-95007314D01*
X79168589Y-95138589D01*
X79037314Y-95298551D01*
X78939769Y-95481043D01*
X78879699Y-95679067D01*
X78859417Y-95885000D01*
X76200500Y-95885000D01*
X76200500Y-82015308D01*
X76220185Y-81948269D01*
X76272989Y-81902514D01*
X76342147Y-81892570D01*
X76405703Y-81921595D01*
G37*
%TD.AperFunction*%
%TD*%
M02*
