M48
; DRILL file {KiCad 7.0.2} date Tue Jun 20 09:22:38 2023
; FORMAT={-:-/ absolute / inch / decimal}
; #@! TF.CreationDate,2023-06-20T09:22:38-04:00
; #@! TF.GenerationSoftware,Kicad,Pcbnew,7.0.2
; #@! TF.FileFunction,Plated,1,2,PTH
FMAT,2
INCH
; #@! TA.AperFunction,Plated,PTH,ComponentDrill
T1C0.0315
; #@! TA.AperFunction,Plated,PTH,ComponentDrill
T2C0.0394
; #@! TA.AperFunction,Plated,PTH,ComponentDrill
T3C0.0433
; #@! TA.AperFunction,Plated,PTH,ComponentDrill
T4C0.0472
; #@! TA.AperFunction,Plated,PTH,ComponentDrill
T5C0.0866
%
G90
G05
T1
X5.8016Y-3.475
X5.8016Y-4.125
X5.9984Y-3.475
X5.9984Y-4.125
X6.1016Y-3.475
X6.1047Y-4.125
X6.2984Y-3.475
X6.3016Y-4.125
T2
X3.1Y-3.45
X3.1Y-4.1
X6.7Y-3.6
X6.7Y-3.7
X6.7Y-3.8
X6.7Y-3.9
X6.7Y-4.0
X6.8Y-3.6
X6.8Y-3.7
X6.8Y-3.8
X6.8Y-3.9
X6.8Y-4.0
T3
X3.275Y-3.175
X3.275Y-4.425
X3.675Y-3.175
X3.675Y-4.425
X5.8Y-3.7
X5.8Y-3.9
X5.9Y-3.25
X5.9Y-4.3628
X6.0Y-3.25
X6.0Y-4.3628
X6.1Y-3.25
X6.1Y-4.3628
X6.2Y-3.7
X6.2Y-3.9
X6.5Y-3.3
X6.5Y-3.7
X6.5Y-4.0
X6.5Y-4.4
T4
X4.0Y-3.3047
X4.0Y-3.6
X4.0Y-4.0047
X4.0Y-4.3
X4.7Y-4.0047
X4.7Y-4.3
X4.7091Y-3.3047
X4.7091Y-3.6
X5.4Y-3.3047
X5.4Y-3.6
X5.4Y-4.0047
X5.4Y-4.3
T5
X3.1Y-3.2
X3.1Y-4.4
X6.8Y-3.2
X6.8Y-4.4
T2
G00X3.2644Y-3.7494
M15
G01X3.2644Y-3.8006
M16
G05
G00X3.5006Y-3.7356
M15
G01X3.5006Y-3.8144
M16
G05
T0
M30
